<?xml version="1.0" encoding="UTF-8" standalone="no"?>
<!-- Created with Inkscape (http://www.inkscape.org/) -->

<svg
   xmlns:dc="http://purl.org/dc/elements/1.1/"
   xmlns:cc="http://creativecommons.org/ns#"
   xmlns:rdf="http://www.w3.org/1999/02/22-rdf-syntax-ns#"
   xmlns:svg="http://www.w3.org/2000/svg"
   xmlns="http://www.w3.org/2000/svg"
   xmlns:sodipodi="http://sodipodi.sourceforge.net/DTD/sodipodi-0.dtd"
   xmlns:inkscape="http://www.inkscape.org/namespaces/inkscape"
   width="64"
   height="64"
   viewBox="0 0 16.933333 16.933334"
   version="1.1"
   id="svg8"
   inkscape:version="0.92.1 r15371"
   sodipodi:docname="0_bicycle.svg"
   inkscape:export-filename="/home/physt/undev/repos/deep_learning/workshop/tasks/commonlearningdata/cartooncats/0_bicycle.png"
   inkscape:export-xdpi="96.000008"
   inkscape:export-ydpi="96.000008">
  <defs
     id="defs2" />
  <sodipodi:namedview
     id="base"
     pagecolor="#ffffff"
     bordercolor="#666666"
     borderopacity="1.0"
     inkscape:pageopacity="0.0"
     inkscape:pageshadow="2"
     inkscape:zoom="11.2"
     inkscape:cx="50.237003"
     inkscape:cy="32.732721"
     inkscape:document-units="mm"
     inkscape:current-layer="layer1"
     showgrid="false"
     inkscape:window-width="1920"
     inkscape:window-height="1016"
     inkscape:window-x="0"
     inkscape:window-y="27"
     inkscape:window-maximized="1"
     units="px" />
  <metadata
     id="metadata5">
    <rdf:RDF>
      <cc:Work
         rdf:about="">
        <dc:format>image/svg+xml</dc:format>
        <dc:type
           rdf:resource="http://purl.org/dc/dcmitype/StillImage" />
        <dc:title></dc:title>
      </cc:Work>
    </rdf:RDF>
  </metadata>
  <g
     inkscape:label="Layer 1"
     inkscape:groupmode="layer"
     id="layer1"
     transform="translate(0,-280.06665)">
    <path
       id="path833"
       d="m 3.5557391,289.12832 c -0.015444,0.12659 -0.019169,0.25421 -0.028769,0.38133 -0.016563,0.14629 -0.00984,0.29276 0.00116,0.43905 0.00985,0.15372 0.028605,0.30648 0.05948,0.45736 0.026326,0.12423 0.072156,0.24183 0.1310582,0.35384 0.051862,0.0966 0.1226036,0.17697 0.2078508,0.24485 0.1022437,0.0784 0.2229268,0.12659 0.3410037,0.17548 0.1362565,0.0527 0.2740028,0.10184 0.4146312,0.1415 0.1369383,0.0408 0.2787047,0.063 0.4203253,0.0799 0.1290132,0.0154 0.2584656,0.017 0.3874077,0.002 0.1072036,-0.0104 0.2117965,-0.0346 0.3129214,-0.0711 0.033664,-0.0137 0.057141,-0.0221 0.089052,-0.0394 0.014206,-0.008 0.05553,-0.033 0.041476,-0.0251 -0.464046,0.263 -0.2765575,0.16357 -0.1756791,0.093 0.079503,-0.0537 0.141531,-0.12538 0.2001653,-0.20022 0.059042,-0.0764 0.1028684,-0.16228 0.1398296,-0.25105 0.035804,-0.0904 0.06934,-0.18197 0.09548,-0.27562 0.024746,-0.0935 0.043605,-0.18869 0.059448,-0.28412 0.013769,-0.0946 0.027393,-0.18894 0.035039,-0.28422 0.010906,-0.0981 -0.00581,-0.19537 -0.019008,-0.29228 -0.017621,-0.10101 -0.032729,-0.20243 -0.050729,-0.30338 -0.023696,-0.11293 -0.059753,-0.22281 -0.094837,-0.33261 -0.03608,-0.11465 -0.090249,-0.22193 -0.1498362,-0.32585 -0.050008,-0.0939 -0.1135684,-0.17866 -0.1831091,-0.25874 -0.054356,-0.0673 -0.1193371,-0.12049 -0.1936337,-0.16383 -0.073856,-0.0445 -0.1542352,-0.0736 -0.2370505,-0.0961 -0.083004,-0.0206 -0.1663978,-0.036 -0.2515815,-0.0438 -0.078861,-0.008 -0.1585653,-0.001 -0.2363078,0.0132 -0.089067,0.01 -0.1702917,0.0446 -0.253396,0.0751 -0.092588,0.0376 -0.1836594,0.0795 -0.2728603,0.12479 -0.1385088,0.0835 0.019283,-0.012 0.2092357,-0.11895 0.014306,-0.008 -0.027808,0.0175 -0.04164,0.0263 -0.042667,0.0273 -0.084282,0.0559 -0.1258773,0.0848 -0.078743,0.054 -0.1533443,0.11391 -0.2236166,0.1785 -0.094716,0.0895 -0.1629434,0.19901 -0.2231594,0.31336 -0.073916,0.14662 -0.1059175,0.30831 -0.1387552,0.46774 0,0 -0.2988153,0.14463 -0.2988153,0.14463 v 0 c 0.033378,-0.15954 0.060647,-0.32257 0.1276879,-0.47237 0.056772,-0.11651 0.1206193,-0.22893 0.2132449,-0.32131 0.066608,-0.0692 0.1443717,-0.12761 0.2219433,-0.18408 0.1765361,-0.12247 0.3571473,-0.23815 0.5499931,-0.33476 0.09001,-0.0442 0.1815412,-0.0859 0.2751566,-0.1219 0.084068,-0.0317 0.1689645,-0.0599 0.2587702,-0.0704 0.080187,-0.0103 0.1608619,-0.0166 0.241436,-0.006 0.086127,0.0101 0.1708134,0.0268 0.2546776,0.049 0.084711,0.0253 0.1666488,0.0573 0.2424464,0.10347 0.076008,0.0467 0.1425337,0.10394 0.1982981,0.17404 0.070112,0.0824 0.1346197,0.16905 0.1849556,0.26527 0.06045,0.10607 0.1159108,0.21542 0.1536113,0.33193 0.036103,0.11094 0.071262,0.22254 0.097358,0.3363 0.019357,0.10114 0.034179,0.20301 0.052411,0.30436 0.013409,0.099 0.031718,0.19825 0.022691,0.29865 -0.0072,0.0961 -0.020042,0.19136 -0.033775,0.28672 -0.014848,0.0966 -0.034788,0.19251 -0.058138,0.28742 -0.024299,0.0952 -0.058643,0.18769 -0.093475,0.27948 -0.036268,0.0913 -0.077879,0.18028 -0.1366314,0.25967 -0.057228,0.0771 -0.1167926,0.15261 -0.1954093,0.20935 -0.1695752,0.12505 -0.3532137,0.23559 -0.5500288,0.3112 -0.1027784,0.0332 -0.2086446,0.0539 -0.3162937,0.0638 -0.1303057,0.0111 -0.2607652,0.008 -0.3905597,-0.009 -0.1424908,-0.0191 -0.2851187,-0.0418 -0.4226597,-0.0848 -0.141338,-0.0417 -0.2806716,-0.0901 -0.4177887,-0.1441 -0.1208747,-0.0508 -0.2439414,-0.10155 -0.3485219,-0.18234 -0.087456,-0.0723 -0.1604515,-0.15675 -0.2143143,-0.25731 -0.060097,-0.11521 -0.1065626,-0.23597 -0.1331479,-0.36362 -0.031669,-0.15216 -0.050759,-0.30623 -0.060977,-0.46134 -0.012536,-0.14766 -0.021458,-0.29552 -0.00439,-0.44337 0.00964,-0.12617 0.014864,-0.2524 0.020963,-0.37879 0,0 0.3135582,-0.15542 0.3135582,-0.15542 z"
       inkscape:connector-curvature="0"
       style="stroke-width:0.26458332" />
    <path
       id="path835"
       d="m 10.328353,287.73787 c -0.01062,0.006 -0.02121,0.0122 -0.03186,0.0181 -0.143488,0.0806 0.0691,-0.0437 0.206795,-0.11989 0.01852,-0.0102 -0.03578,0.0226 -0.05302,0.0349 -0.01944,0.0138 -0.03818,0.0287 -0.05696,0.0434 -0.02029,0.0159 -0.04017,0.0323 -0.06026,0.0485 -0.130994,0.10828 -0.241758,0.23755 -0.3499363,0.36785 -0.099236,0.11818 -0.1744527,0.25125 -0.2387671,0.39074 -0.066633,0.13903 -0.105346,0.28702 -0.1335212,0.43783 -0.028523,0.15832 -0.031403,0.31766 -0.013766,0.47708 0.022693,0.15392 0.065402,0.30414 0.1171652,0.45059 0.037512,0.0945 0.072473,0.19148 0.1216967,0.28082 0.029125,0.0529 0.045786,0.073 0.08082,0.12177 0.091447,0.11866 0.2079977,0.20991 0.3336437,0.28933 0.135342,0.0815 0.282141,0.13633 0.43257,0.18208 0.174833,0.0454 0.353245,0.0747 0.532624,0.0945 0.187113,0.0106 0.375164,-0.003 0.560854,-0.0266 0.170124,-0.0244 0.336186,-0.0683 0.497112,-0.12793 0.100157,-0.0399 0.200116,-0.0803 0.294574,-0.13259 0.02259,-0.0125 0.08959,-0.0514 0.06703,-0.0389 -0.07606,0.0424 -0.151689,0.0855 -0.227533,0.12831 0.118462,-0.0763 0.223094,-0.16996 0.317132,-0.27436 0.09499,-0.10442 0.17132,-0.22242 0.243057,-0.3434 0.06384,-0.1109 0.118542,-0.22675 0.164558,-0.34607 0.0388,-0.1009 0.06242,-0.20545 0.07509,-0.31251 0.0068,-0.10882 -0.01689,-0.21651 -0.0375,-0.32273 -0.01884,-0.13113 -0.05361,-0.25805 -0.09799,-0.38255 -0.05036,-0.14002 -0.103526,-0.27885 -0.163951,-0.41484 -0.05766,-0.13154 -0.125175,-0.25799 -0.201344,-0.37966 -0.06355,-0.10845 -0.143356,-0.20415 -0.234829,-0.2898 -0.0878,-0.0741 -0.183058,-0.13879 -0.286035,-0.18968 -0.104224,-0.0485 -0.215979,-0.0758 -0.329318,-0.0919 -0.131951,-0.0213 -0.262134,-0.002 -0.391899,0.0224 -0.172968,0.0362 -0.340395,0.0949 -0.507718,0.1509 -0.03042,0.011 -0.06091,0.0217 -0.09125,0.0328 -0.08091,0.0297 -0.118506,0.0423 -0.196485,0.083 -0.03817,0.0199 -0.15183,0.0808 -0.112118,0.0642 0.145915,-0.0612 0.264738,-0.16404 0.03785,0.0107 -0.03633,0.031 -0.07267,0.0621 -0.109005,0.0931 0,0 -0.305419,0.1238 -0.305419,0.1238 v 0 c 0.0368,-0.0317 0.0736,-0.0635 0.110392,-0.0952 0.235325,-0.18929 0.102371,-0.0913 0.524375,-0.34096 0.12887,-0.0762 0.266291,-0.13293 0.408574,-0.17886 0.16881,-0.0566 0.338088,-0.11474 0.513144,-0.14898 0.133142,-0.0236 0.266717,-0.0385 0.401344,-0.0151 0.115678,0.0192 0.229635,0.0494 0.335484,0.10099 0.104135,0.0549 0.202664,0.12011 0.290953,0.19826 0.09232,0.0887 0.173817,0.18678 0.238038,0.29807 0.07641,0.12336 0.14482,0.25114 0.202418,0.38443 0.06129,0.13648 0.115029,0.27592 0.166206,0.41648 0.0458,0.12562 0.08247,0.25353 0.102004,0.38616 0.02256,0.10908 0.04703,0.2197 0.04326,0.3317 -0.01133,0.10976 -0.03243,0.21732 -0.07225,0.32073 -0.04491,0.12161 -0.100426,0.23899 -0.163869,0.35207 -0.07065,0.12282 -0.146026,0.24272 -0.239973,0.34939 -0.02341,0.0269 -0.06649,0.0774 -0.0918,0.10239 -0.06815,0.0673 -0.145636,0.12531 -0.223,0.18136 -0.23449,0.13827 -0.461191,0.28685 -0.7198,0.37579 -0.162532,0.0572 -0.329848,0.0994 -0.501017,0.12123 -0.18726,0.0214 -0.376806,0.0344 -0.565095,0.0199 -0.18109,-0.0211 -0.36136,-0.0509 -0.537526,-0.0987 -0.152986,-0.0471 -0.302112,-0.10449 -0.4389441,-0.18897 -0.1282915,-0.083 -0.2475336,-0.17767 -0.3408588,-0.3002 -0.035657,-0.0503 -0.053499,-0.0724 -0.083297,-0.12675 -0.049623,-0.0906 -0.085222,-0.18874 -0.1234694,-0.28435 -0.05322,-0.14867 -0.096012,-0.30152 -0.1201296,-0.45778 -0.019399,-0.1622 -0.019047,-0.32424 0.009,-0.48576 0.025961,-0.15332 0.063194,-0.30382 0.1295382,-0.44533 0.063244,-0.1425 0.1361575,-0.27898 0.2363592,-0.39963 0.1083106,-0.13074 0.2171041,-0.26213 0.3460475,-0.37345 0.0048,-0.004 0.106643,-0.0877 0.114055,-0.0934 0.144462,-0.11185 0.309744,-0.19484 0.473522,-0.27477 0,0 -0.27576,0.21588 -0.27576,0.21588 z"
       inkscape:connector-curvature="0"
       style="stroke-width:0.26458332" />
    <path
       id="path837"
       d="m 11.271119,289.22871 c -0.03483,-0.0616 -0.07251,-0.12179 -0.112319,-0.18033 -0.03259,-0.0521 -0.06705,-0.10334 -0.09606,-0.15754 -0.0333,-0.061 -0.06952,-0.12006 -0.10239,-0.18127 -0.03654,-0.0607 -0.06912,-0.12348 -0.102707,-0.18576 -0.03244,-0.0683 -0.07923,-0.12746 -0.122123,-0.18918 -0.0471,-0.0737 -0.08929,-0.15041 -0.134131,-0.2255 -0.04105,-0.076 -0.09306,-0.1444 -0.14948,-0.20942 -0.04923,-0.0607 -0.09688,-0.12217 -0.150446,-0.17917 -0.04789,-0.0461 -0.08614,-0.10078 -0.129354,-0.15097 -0.04006,-0.0452 -0.07972,-0.0912 -0.116407,-0.13929 -0.03109,-0.039 -0.05906,-0.0801 -0.087386,-0.12113 -0.02385,-0.0356 -0.048876,-0.0706 -0.071773,-0.10683 -0.023947,-0.0286 -0.044533,-0.0593 -0.06652,-0.0892 -0.016502,-0.0272 -0.035087,-0.0528 -0.049392,-0.0812 -0.010919,-0.0184 -0.00816,-0.0419 -0.018497,-0.06 -0.00793,-0.016 -0.015047,-0.0321 -0.018627,-0.0496 -0.010036,-0.005 -0.014182,-0.017 -0.018822,-0.027 -0.00688,0.004 -0.01883,0.002 -0.027931,0.002 -0.00319,0.003 -0.010478,-0.003 -0.013618,5.8e-4 -0.00209,0.002 -0.00434,0.0104 -0.00169,0.009 0.098737,-0.0537 0.1950316,-0.11169 0.2927893,-0.16711 0.00532,-0.003 -0.01052,0.006 -0.016349,0.008 -0.014714,0.0123 -0.027675,0.0258 -0.035838,0.0438 -0.011599,0.0446 -0.035258,0.0837 -0.05744,0.12356 -0.035892,0.066 -0.070616,0.13239 -0.099923,0.20165 -0.035066,0.0851 -0.062975,0.17271 -0.095731,0.25862 -0.031991,0.0897 -0.064915,0.1791 -0.099008,0.26803 -0.035471,0.0855 -0.069851,0.17154 -0.1099757,0.255 -0.037701,0.0689 -0.069729,0.14057 -0.1035587,0.21135 -0.034722,0.0681 -0.067878,0.137 -0.099358,0.20665 -0.027925,0.0611 -0.052427,0.12364 -0.078285,0.18562 -0.021445,0.052 -0.045597,0.10285 -0.070231,0.15341 -0.024657,0.0455 -0.052971,0.0888 -0.074301,0.13597 -0.01447,0.04 -0.033892,0.0777 -0.052174,0.11603 -0.016304,0.0341 -0.032294,0.0684 -0.048394,0.10265 -0.013449,0.0298 -0.030311,0.0578 -0.044572,0.0871 -0.014624,0.0258 -0.025228,0.0533 -0.038146,0.0798 -0.012279,0.0269 -0.025736,0.0538 -0.042734,0.0781 -0.012086,0.0214 -0.025019,0.0419 -0.037826,0.0628 -0.00844,0.0183 -0.02359,0.0312 -0.031142,0.0503 -0.00618,0.0193 -0.016674,0.0366 -0.024548,0.0553 -0.0018,0.0184 -0.00683,0.0319 -0.01602,0.0477 -0.00809,0.009 -0.011311,0.0189 -0.012602,0.0314 -0.00122,0.0147 -8.996e-4,0.0293 4.498e-4,0.044 -0.00314,0.009 -0.011872,0.0199 -0.020029,0.0265 -0.00568,0.0136 -0.00228,0.0279 -0.00848,0.0412 -0.00785,0.0182 -0.015465,0.0364 -0.029103,0.0511 -0.00406,0.018 -0.01769,0.0275 -0.027484,0.0416 -0.00693,0.015 -0.020741,0.0284 -0.031691,0.0422 -0.00713,0.002 -0.00965,0.018 -0.014632,0.021 -0.1039132,0.0618 -0.2096825,0.12044 -0.3143773,0.18092 -0.00368,0.002 -0.014409,0.009 -0.010729,0.007 0.097602,-0.0562 0.1950011,-0.11264 0.2925019,-0.16897 -0.1072102,0.0628 -0.2153655,0.12144 -0.3253536,0.18153 -0.011449,0.006 -0.01402,-0.005 -0.022066,0.008 0.097758,-0.0559 0.383081,-0.23584 0.293275,-0.16786 -0.095305,0.0721 -0.2062419,0.12092 -0.3099011,0.18045 -0.00468,0.003 -0.020331,0.007 -0.015655,0.004 0.3042081,-0.17603 0.377603,-0.24118 0.2856553,-0.16066 -0.096188,0.0803 -0.2023711,0.11803 -0.3222289,0.18952 -0.09704,0.0579 0.1955572,-0.11325 0.2932993,-0.16994 0.00447,-0.003 -0.00837,0.006 -0.011583,0.0103 -0.1042117,0.0589 -0.2076569,0.11915 -0.3126349,0.17666 -0.00324,0.002 -0.00772,-9e-4 -0.011067,6.6e-4 -0.00288,0.001 -0.00887,0.009 -0.0061,0.007 0.098886,-0.0557 0.3908904,-0.2309 0.2949675,-0.1702 -0.2532514,0.16027 -0.1985724,0.14047 -0.318022,0.18245 -0.018,0.005 -0.038002,0.003 -0.056697,0.003 -0.00354,10e-6 -0.00724,10e-4 -0.010612,2e-5 -0.018013,-0.006 -0.03266,-0.0169 -0.051794,-0.0214 -0.019698,-0.002 -0.039557,-0.003 -0.059388,-0.003 -0.020114,0.003 -0.032015,-0.0122 -0.043149,-0.027 -0.00461,-0.0127 -0.020235,-0.0433 -0.00397,-0.0515 0.00558,-0.006 0.00936,-0.0128 0.013404,-0.0197 0.1648622,-0.19699 0.2220309,-0.21362 0.3298717,-0.14864 0.00576,0.0188 0.011914,0.0138 0.021976,0.0289 0.00836,0.0126 0.012025,0.0266 0.013864,0.0414 0.035678,0.1366 -0.195984,0.20148 -0.3266551,0.20223 -0.1466651,0.004 0.3615926,-0.27473 0.2747132,-0.15262 -0.075353,0.0993 -0.00691,0.0103 -0.3177977,0.17675 -0.018201,0.01 0.00238,-0.01 -0.017193,-5.3e-4 -0.00257,10e-4 -0.00294,0.005 -0.00441,0.007 -0.00307,10e-4 -0.00615,0.002 -0.00922,0.003 -0.017735,-0.003 -0.041592,-0.0176 -0.056503,-0.004 -0.016452,0.0133 -0.040726,0.0176 -0.059227,0.008 -0.014806,-0.0119 -0.032433,-0.0145 -0.05082,-0.0154 -0.022175,-0.001 -0.044414,-9.5e-4 -0.066619,-9.8e-4 -0.021439,1.1e-4 -0.04288,1.8e-4 -0.06432,3.2e-4 -0.021857,-2e-5 -0.043713,-1.4e-4 -0.065569,-6e-5 -0.023513,-1e-5 -0.047026,-1.2e-4 -0.070538,-2e-5 -0.021183,-7e-5 -0.042362,1.6e-4 -0.063544,4e-5 -0.02232,-4e-5 -0.04464,3e-5 -0.06696,-8e-5 -0.022701,8e-5 -0.045401,-8e-5 -0.068102,1.4e-4 -0.020786,2e-5 -0.041571,-1.3e-4 -0.062357,-6e-5 -0.00392,-2e-5 -0.00802,-0.001 -0.011766,-6e-5 -0.00336,0.001 -0.00534,0.005 -0.00842,0.006 -0.014481,0.008 -0.030954,0.0108 -0.046906,0.0143 -0.023069,0.003 -0.046289,0.004 -0.069492,0.003 -0.021397,-1.1e-4 -0.042797,-1.9e-4 -0.064196,-3.5e-4 -0.0234,-7e-5 -0.046801,1e-5 -0.070201,-9e-5 -0.020468,2.3e-4 -0.040935,5e-5 -0.061403,1.2e-4 -0.00376,-2e-5 -0.00771,-0.001 -0.011269,-7e-5 -0.00324,10e-4 -0.00499,0.005 -0.00794,0.007 -0.014092,0.008 -0.030617,0.0108 -0.046274,0.0142 -0.024323,0.003 -0.048813,0.003 -0.073278,0.003 -0.024873,-0.002 -0.032091,0.013 -0.058303,0.0182 -0.011946,0.007 -0.028828,7.4e-4 -0.040939,0.005 -0.00655,0.003 -0.01138,0.008 -0.017362,0.0119 -0.021799,0.007 -0.044682,0.0112 -0.067665,0.0116 -0.021662,4.8e-4 -0.043346,1.8e-4 -0.065015,-3e-5 -0.01992,0.003 -0.050089,-0.009 -0.064563,0.007 -0.01646,0.0114 -0.033902,0.0143 -0.053079,0.0173 -0.019852,-9e-5 -0.039708,-3.7e-4 -0.059567,-4e-4 -0.023249,-1.7e-4 -0.0465,-3.2e-4 -0.069749,-2.5e-4 -0.021201,-1e-4 -0.0424,1.3e-4 -0.063601,0 -0.022325,-3e-5 -0.044651,3e-5 -0.066976,-7e-5 -0.023577,0 -0.047155,9e-5 -0.070732,-1e-5 -0.020463,2.3e-4 -0.040928,5e-5 -0.061392,1.2e-4 -0.022717,-4e-5 -0.045435,-1.5e-4 -0.068152,-6e-5 -0.022339,-2e-4 -0.044681,1.3e-4 -0.067021,5e-5 -0.024524,-1.2e-4 -0.049049,-2e-4 -0.073574,-8e-5 -0.026207,-4e-5 -0.052413,-5e-5 -0.07862,-1.3e-4 -0.027034,-0.001 -0.051446,-0.0158 -0.07855,-0.0203 -0.03059,-0.003 -0.061382,-0.003 -0.092108,-0.004 -0.028818,1.3e-4 -0.057637,1.3e-4 -0.086455,1.4e-4 -0.031753,-3e-5 -0.063506,9e-5 -0.095259,6e-5 -0.023839,2.6e-4 -0.047679,3e-4 -0.071519,1.3e-4 -0.025635,-5e-5 -0.051272,9e-5 -0.076908,1e-5 -0.019148,0.003 -0.048351,-0.008 -0.062161,0.007 -0.020624,0.012 -0.043831,0.0138 -0.067035,0.016 -0.022431,0.004 -0.050434,-0.006 -0.069405,0.007 -0.021923,0.0121 -0.044253,0.0144 -0.068599,0.0164 -0.025098,10e-4 -0.050213,8.8e-4 -0.075327,9.3e-4 -0.021669,-1.5e-4 -0.043337,-2.4e-4 -0.065006,-1e-5 -0.017751,0.002 -0.024821,-0.0211 -0.028707,-0.0354 -0.00204,-0.0125 -0.00132,-0.0252 -0.00114,-0.0378 -0.00272,-0.0196 0.00307,-0.0338 0.011541,-0.0505 0.010567,-0.0251 0.027511,-0.0465 0.039696,-0.0707 0.018735,-0.0394 0.038243,-0.0784 0.05773,-0.11742 0.024035,-0.0473 0.046353,-0.0954 0.072293,-0.14171 0.030575,-0.0459 0.060137,-0.0923 0.088801,-0.13937 0.027546,-0.0415 0.057345,-0.0813 0.083516,-0.12366 0.030484,-0.0506 0.070536,-0.0942 0.1065766,-0.14068 0.038173,-0.0463 0.073239,-0.095 0.110264,-0.14221 0.044427,-0.0487 0.083578,-0.10112 0.1212496,-0.15513 0.032414,-0.0527 0.06904,-0.10216 0.1067541,-0.15108 0.04012,-0.055 0.079477,-0.11065 0.1191196,-0.16605 0.049781,-0.0682 0.1067123,-0.13066 0.1646682,-0.19192 0.054104,-0.0567 0.1085218,-0.11295 0.1673804,-0.1647 0.050573,-0.0411 0.09634,-0.0874 0.1441003,-0.13164 0.036955,-0.0382 0.072467,-0.0779 0.1084189,-0.11707 0.028569,-0.0291 0.052559,-0.0614 0.075215,-0.0951 0.020087,-0.0352 0.045655,-0.0663 0.071576,-0.0971 0.031512,-0.0336 0.063187,-0.0668 0.092137,-0.10267 0.029825,-0.0345 0.060607,-0.0679 0.093814,-0.0992 0.028147,-0.0274 0.058887,-0.0525 0.083958,-0.0828 0.02105,-0.0227 0.040537,-0.0465 0.05947,-0.071 0.013568,-0.018 0.028282,-0.0352 0.043503,-0.0518 0.092707,-0.0993 0.2157804,-0.19419 0.3526649,-0.20215 0.019238,-0.003 0.029672,0.0141 0.04447,0.0244 0.00869,0.0161 0.017373,0.0268 0.027236,0.0411 0.015081,0.02 0.029343,0.0404 0.042865,0.0615 0.020246,0.0249 0.032318,0.0548 0.049688,0.0815 0.021431,0.0344 0.035645,0.0726 0.05335,0.10889 0.017558,0.0415 0.034245,0.0834 0.05184,0.12491 0.01856,0.0399 0.035477,0.0804 0.05156,0.12134 0.019312,0.0464 0.041797,0.0913 0.063191,0.13668 0.023302,0.0473 0.047592,0.0942 0.070552,0.14167 0.025498,0.049 0.050073,0.0985 0.071189,0.14955 0.023609,0.0521 0.048787,0.10314 0.076694,0.15305 0.030935,0.0472 0.057463,0.0971 0.088105,0.14451 0.027465,0.041 0.05422,0.0818 0.076053,0.12625 0.019944,0.0447 0.049645,0.0828 0.07848,0.12179 0.031375,0.0411 0.057377,0.0861 0.081257,0.13194 0.026244,0.0379 0.044152,0.0805 0.06439,0.12172 0.022154,0.0391 0.04435,0.0782 0.066427,0.11734 0.025659,0.0377 0.046372,0.0779 0.064898,0.11955 0.019457,0.0358 0.040967,0.0703 0.061094,0.10568 0.016089,0.0265 0.027741,0.0552 0.044179,0.0816 0.010427,0.0212 0.024826,0.04 0.033852,0.062 0.011618,0.0154 0.020995,0.032 0.027208,0.0504 0.00604,0.0108 0.00135,0.0263 0.00853,0.0361 0.00836,0.0152 0.015338,0.0307 0.01891,0.0477 4.07e-5,0.007 0.00839,0.0174 0.015512,0.0286 0.00591,0.0145 0.017074,0.024 0.024199,0.0382 0.00582,0.01 0.014859,0.0207 0.022611,0.0321 0.00429,0.0109 0.00917,0.0168 0.018375,0.0237 0.080263,0.11825 -0.1887532,0.26698 -0.3063346,0.20271 -0.00394,0.003 -0.00493,-0.008 -0.00803,-0.006 -0.00135,6.1e-4 6.35e-4,0.003 -1.085e-4,0.004 -0.056124,0.0974 0.1976268,-0.10729 0.2965672,-0.1607 0,0 -0.3251737,0.13598 -0.3251737,0.13598 v 0 c 0.6153274,-0.34777 0.2010143,-0.23111 0.3318901,-0.1673 0.1157365,0.0537 -0.2690968,0.30538 -0.2890641,0.17767 -0.00945,-0.009 -0.018732,-0.0199 -0.023106,-0.0317 -0.00785,-0.0124 -0.018402,-0.0233 -0.024765,-0.0363 -0.0057,-0.0129 -0.01928,-0.0211 -0.022691,-0.035 -0.00756,-0.013 -0.019161,-0.0262 -0.021966,-0.0407 -0.00114,-0.0125 -0.005,-0.0237 -0.011549,-0.0346 -0.00951,-0.0151 -0.012835,-0.028 -0.013571,-0.0456 -0.00357,-0.0183 -0.01655,-0.0322 -0.025604,-0.048 -0.00681,-0.0207 -0.021892,-0.037 -0.030525,-0.0568 -0.015568,-0.0271 -0.028139,-0.0555 -0.043284,-0.0828 -0.021066,-0.0362 -0.042444,-0.0723 -0.062429,-0.10916 -0.017881,-0.0407 -0.03872,-0.0794 -0.062964,-0.11658 -0.022738,-0.0395 -0.045658,-0.079 -0.067475,-0.11898 -0.020616,-0.0408 -0.038318,-0.0832 -0.063835,-0.12139 -0.022815,-0.0443 -0.04828,-0.0874 -0.078701,-0.12697 -0.030168,-0.0407 -0.060064,-0.0812 -0.081863,-0.12726 -0.020942,-0.0432 -0.047118,-0.0828 -0.073167,-0.12305 -0.031112,-0.048 -0.057829,-0.0986 -0.089118,-0.14653 -0.028593,-0.0511 -0.054672,-0.10334 -0.07866,-0.15674 -0.020696,-0.0505 -0.045862,-0.099 -0.07074,-0.14752 -0.022722,-0.0477 -0.047366,-0.0945 -0.070754,-0.14193 -0.021503,-0.0462 -0.044702,-0.0916 -0.064748,-0.13842 -0.015878,-0.0407 -0.033321,-0.0806 -0.050877,-0.12062 -0.017283,-0.0409 -0.034862,-0.0816 -0.051513,-0.12276 -0.017436,-0.035 -0.030532,-0.0722 -0.051604,-0.10528 -0.017174,-0.0269 -0.030632,-0.0561 -0.050617,-0.0813 -0.012973,-0.0208 -0.027624,-0.0404 -0.042737,-0.0596 -0.00716,-0.0101 -0.015658,-0.0196 -0.021021,-0.0304 -0.027322,-0.0191 -0.004,-0.005 -0.027947,-0.002 -0.00623,0.002 -0.023633,0.0118 -0.017955,0.008 0.4500716,-0.2674 0.359251,-0.24317 0.2721494,-0.15439 -0.015843,0.0157 -0.031341,0.0318 -0.045488,0.049 -0.019902,0.0246 -0.038366,0.05 -0.058728,0.0738 -0.028301,0.0267 -0.05184,0.0611 -0.083732,0.0853 -0.033267,0.0308 -0.066698,0.061 -0.09556,0.096 -0.031317,0.0332 -0.055796,0.0734 -0.092102,0.10191 -0.025326,0.0303 -0.051671,0.0587 -0.073543,0.0916 -0.019225,0.0374 -0.044458,0.0716 -0.073353,0.10205 -0.035769,0.0404 -0.07455,0.0775 -0.107751,0.12023 -0.048308,0.0446 -0.09478,0.091 -0.1451081,0.13334 -0.059747,0.0506 -0.1156745,0.10493 -0.1694458,0.16192 -0.057812,0.06 -0.1150842,0.12078 -0.1656603,0.18714 -0.039824,0.0549 -0.078631,0.11058 -0.117751,0.16599 -0.035844,0.0502 -0.078265,0.0958 -0.1075838,0.15057 -0.038433,0.0536 -0.072799,0.11011 -0.1199362,0.15692 -0.038137,0.0462 -0.071574,0.0959 -0.1104638,0.14148 -0.035298,0.0462 -0.073864,0.0896 -0.1073806,0.13717 -0.02631,0.0423 -0.051487,0.0851 -0.083277,0.12363 -0.029582,0.0465 -0.056388,0.0949 -0.089525,0.13903 -0.02825,0.0441 -0.048607,0.0922 -0.0732,0.13841 -0.017703,0.0393 -0.037883,0.0774 -0.056792,0.1161 -0.010142,0.0257 -0.021082,0.0487 -0.038575,0.0701 -0.0023,0.006 -0.00317,0.0127 -0.00661,0.0181 -0.00553,0.009 -0.014854,0.005 -0.010779,0.0194 -1.09e-4,0.0108 9.24e-5,0.0217 -0.00106,0.0325 -0.00175,0.009 -0.014729,-0.0126 0.00167,-0.007 0.021421,3.7e-4 0.042845,4e-4 0.064267,2.1e-4 0.024231,-1.8e-4 0.04861,-5.9e-4 0.072561,-0.005 0.022773,-0.004 0.043313,-0.0154 0.066202,-0.0197 0.023926,8.8e-4 0.048061,3e-5 0.071672,-0.004 0.022225,-0.004 0.042376,-0.0142 0.064118,-0.0202 0.022545,0.002 0.045253,10e-4 0.067901,10e-4 0.02562,-8e-5 0.051241,6e-5 0.076861,2e-5 0.023728,-1.8e-4 0.047454,-1.4e-4 0.071182,10e-5 0.031747,-4e-5 0.063495,3e-5 0.095242,-1.1e-4 0.028944,-10e-5 0.057901,-4e-4 0.086836,4.2e-4 0.032371,0.001 0.06505,0.002 0.096717,0.009 0.024432,0.007 0.047798,0.017 0.073766,0.0139 0.026321,-8e-5 0.05264,-9e-5 0.07896,-1.3e-4 0.024596,1.2e-4 0.049194,4e-5 0.07379,-8e-5 0.022294,-8e-5 0.044591,2.5e-4 0.066887,5e-5 0.02277,1e-4 0.045544,-2e-5 0.068315,-6e-5 0.02036,7e-5 0.040719,-1.1e-4 0.061078,1.2e-4 0.023585,-1e-4 0.047172,-1e-5 0.070758,-1e-5 0.022392,-10e-5 0.044786,-4e-5 0.067179,-7e-5 0.021185,-1.2e-4 0.042365,1.4e-4 0.063549,1.1e-4 0.023236,1.5e-4 0.046478,1.7e-4 0.069715,-5e-5 0.018534,-2.4e-4 0.037708,10e-6 0.055438,-0.006 0.017539,-0.005 0.032923,-0.0159 0.051318,-0.0189 0.023365,0.003 0.046898,10e-4 0.070373,10e-4 0.021021,-2.2e-4 0.042141,-5e-5 0.062985,-0.003 0.02109,-0.004 0.041868,-0.01 0.061071,-0.02 0.01987,-0.006 0.041358,-0.005 0.060598,-0.0141 0.021479,-0.009 0.040796,-0.0126 0.064207,-0.0105 0.023056,-8.7e-4 0.04632,-0.003 0.068431,-0.01 0.02377,-0.007 0.045413,-0.0179 0.071003,-0.0136 0.020368,6e-5 0.040734,-1.1e-4 0.061101,1.3e-4 0.023434,-8e-5 0.046869,4e-5 0.070304,9e-5 0.021275,-6e-5 0.042554,1.7e-4 0.063818,-6.3e-4 0.021749,-0.001 0.043705,-0.003 0.064575,-0.01 0.024228,-0.007 0.046474,-0.0178 0.072504,-0.0136 0.020839,7e-5 0.041679,-8e-5 0.062518,-6e-5 0.022579,2.3e-4 0.045157,6e-5 0.067736,1.4e-4 0.022386,-10e-5 0.044773,-4e-5 0.067159,-7e-5 0.021153,-1.3e-4 0.042303,10e-5 0.063455,3e-5 0.023524,1e-4 0.04705,0 0.070575,-2e-5 0.021918,7e-5 0.043836,-6e-5 0.065754,-1.6e-4 0.021368,5e-5 0.042734,-3e-5 0.064101,2.1e-4 0.023278,2.6e-4 0.046691,6.8e-4 0.069669,0.005 0.017518,0.004 0.034389,0.0124 0.051332,0.0154 0.013266,-0.0105 0.035925,-0.0146 0.05215,-0.0174 0.016846,0.003 0.037917,0.0108 0.052793,-6.7e-4 0.017219,-0.007 7.408e-4,-0.002 0.020209,-0.002 0.00481,-4e-5 0.018201,-0.006 0.014039,-0.003 -0.098304,0.0568 -0.1974318,0.11228 -0.2958115,0.16901 -0.00135,7.9e-4 0.00306,-7.2e-4 0.00459,-0.001 0.1191017,-0.0484 0.2076382,-0.17384 0.3364431,-0.18977 0.1447152,-0.0322 -0.3778993,0.0908 -0.2705827,0.17875 0.00198,0.002 -0.00225,-0.0106 1.511e-4,-0.008 -1.474e-4,-0.009 8.202e-4,-0.0165 -0.00414,-0.0241 -0.00589,-0.004 -0.022447,-0.0198 -0.018216,-0.022 -0.099376,-0.10376 0.3001539,-0.26903 0.2922637,-0.18555 -0.00335,0.009 -0.00754,0.0175 -0.011401,0.0262 -0.00748,0.0246 -0.015639,-0.0145 -0.016425,0.0108 0.00711,0.008 0.015431,-0.002 0.025993,0.002 0.021545,0.002 0.043269,0.003 0.063929,0.0103 0.019124,0.007 0.035439,0.017 0.055859,0.0123 0.017542,-0.002 0.033712,-0.004 0.048338,-0.0143 0.094147,-0.0578 -0.3818514,0.22227 -0.286509,0.1665 0.1027464,-0.0601 0.2050727,-0.12095 0.3086346,-0.17964 0.00569,-0.003 0.01442,0.002 0.018743,-0.006 -0.097854,0.0562 -0.1957085,0.1124 -0.2935628,0.1686 0.019357,-0.002 -0.00292,0.002 0.013068,-0.007 0.1024557,-0.0612 0.2093897,-0.11515 0.3088222,-0.18115 0.089772,-0.0596 -0.3716181,0.21827 -0.2794841,0.16241 0.1087191,-0.0718 0.00625,-0.004 0.3198609,-0.18787 0.00412,-0.002 0.01628,-0.01 0.01215,-0.008 -0.097505,0.0567 -0.391668,0.224 -0.2922577,0.17067 0.1057244,-0.0567 0.2074739,-0.12056 0.3112109,-0.18084 0.014819,0.001 0.028618,-0.007 0.024469,-0.004 -0.4848162,0.28091 -0.3794932,0.22881 -0.282701,0.16092 0.1033799,-0.0599 0.2066518,-0.11996 0.3101398,-0.17966 0.00365,-0.002 0.014901,-0.008 0.011261,-0.006 -0.0962,0.056 -0.193444,0.11027 -0.2889509,0.16746 -0.00238,10e-4 0.00569,0.002 0.00831,6.1e-4 0.005,-0.002 0.00547,-0.0104 0.010716,-0.0118 0.00555,-0.006 0.022199,-0.0332 0.026477,-0.036 0.00209,-0.001 0.005,2e-4 0.0075,2.9e-4 0.00317,-0.007 0.00626,-0.0191 0.011036,-0.0249 0.00331,-0.004 0.010806,-0.003 0.014068,-0.007 0.00212,-0.003 0.00206,-0.006 0.0031,-0.01 0.00598,-0.0193 0.02358,-0.0298 0.029886,-0.0492 0.00127,-0.003 0.00254,-0.006 0.00381,-0.009 0.00196,-1.3e-4 0.0047,0.001 0.00584,-4.2e-4 0.00387,-0.005 -0.00343,-0.0206 9.26e-4,-0.0265 -1.291e-4,-0.009 0.00573,-0.0371 0.016015,-0.0349 0.00228,10e-4 0.00444,0.004 0.00681,0.003 0.00153,-6.1e-4 -0.00325,-0.0299 2.22e-5,-0.0328 2.911e-4,-0.0151 -0.00119,-0.033 0.00534,-0.0466 0.00289,-0.005 0.0077,-0.0175 0.012166,-0.0205 0.0018,-0.001 0.00502,0.002 0.00648,1.7e-4 0.00412,-0.004 -0.00281,-0.014 0.0022,-0.0181 0.00251,-0.0206 0.00932,-0.0418 0.023252,-0.0575 0.00526,-0.02 0.00905,-0.0455 0.028943,-0.0559 0.010684,-0.0238 0.027644,-0.0416 0.037279,-0.0659 0.014396,-0.0249 0.033139,-0.047 0.044765,-0.0739 0.00396,-0.009 0.010118,-0.0169 0.013859,-0.026 0.00751,-0.0182 0.00947,-0.0381 0.024191,-0.0532 0.012793,-0.0311 0.031748,-0.0583 0.044259,-0.0896 0.019452,-0.0324 0.033015,-0.0681 0.048932,-0.1023 0.02004,-0.0366 0.037028,-0.0747 0.054484,-0.11259 0.01542,-0.0507 0.046042,-0.0947 0.073072,-0.13987 0.026408,-0.0494 0.049433,-0.10057 0.071793,-0.15184 0.028204,-0.0614 0.050283,-0.12544 0.079067,-0.18663 0.032273,-0.0695 0.063207,-0.13956 0.098768,-0.20748 0.03574,-0.0701 0.064808,-0.1437 0.1046842,-0.21173 0.041083,-0.0825 0.07627,-0.16748 0.1117016,-0.25252 0.034707,-0.0888 0.068103,-0.17813 0.099383,-0.26818 0.033425,-0.0854 0.060517,-0.17301 0.094144,-0.25837 0.026841,-0.0707 0.06132,-0.13752 0.09671,-0.20425 0.019495,-0.0387 0.044931,-0.0741 0.057871,-0.1157 0.00228,-0.0135 0.00508,-0.0394 0.015663,-0.0494 0.00198,-0.002 0.00575,-8.2e-4 0.00774,-0.003 0.00235,-0.002 0.00288,-0.006 0.00432,-0.009 0.00801,-0.0154 8.731e-4,-0.007 0.01433,-0.0145 0.3565656,-0.20418 0.1950662,-0.19777 0.3391411,-0.17456 0.019614,0.004 0.036644,0.0112 0.047681,0.0291 0.0051,0.0134 0.01775,0.0212 0.02289,0.0349 0.0012,0.0139 0.0058,0.0264 0.01231,0.0389 0.0109,0.02 0.01307,0.0403 0.01885,0.0621 0.0125,0.027 0.03072,0.0507 0.04571,0.0764 0.02175,0.0309 0.04394,0.0612 0.06701,0.0913 0.02285,0.0359 0.04733,0.0708 0.07119,0.106 0.02708,0.041 0.05532,0.0811 0.08524,0.12003 0.03634,0.0475 0.07577,0.0929 0.114988,0.13806 0.04213,0.0504 0.08146,0.10333 0.127937,0.14994 0.05335,0.0578 0.100513,0.1201 0.150308,0.18088 0.05709,0.0671 0.110292,0.13697 0.152197,0.21479 0.04419,0.0745 0.08665,0.15018 0.133492,0.22311 0.04341,0.063 0.09204,0.12246 0.125427,0.19186 0.03317,0.0625 0.06491,0.12575 0.101922,0.18614 0.03288,0.0612 0.0698,0.11984 0.103333,0.18069 0.02873,0.053 0.06241,0.10334 0.09364,0.15492 0.03951,0.0589 0.07583,0.11984 0.114604,0.17923 0,0 -0.302715,0.17738 -0.302715,0.17738 z"
       inkscape:connector-curvature="0"
       style="stroke-width:0.26458332" />
    <path
       id="path839"
       d="m 7.1941152,287.74779 c 0.016939,-0.0517 0.041135,-0.10063 0.073509,-0.14439 0.10249,-0.0979 0.252345,-0.20015 0.3780538,-0.22244 0.033624,-0.007 0.061729,-0.0196 0.097146,-0.0247 0.044549,-0.013 0.089675,-0.026 0.1351066,-0.0366 0.050729,-0.0201 0.1044717,-0.0293 0.1572177,-0.0424 0.064763,-0.0153 0.1296348,-0.0302 0.1948935,-0.0434 0.08305,-0.0206 0.1670751,-0.0368 0.2504924,-0.0559 0.090535,-0.0177 0.1773713,-0.0494 0.2656435,-0.0754 0.090655,-0.0278 0.1781855,-0.0643 0.2689291,-0.0918 0.090468,-0.0276 0.1816748,-0.0531 0.2731765,-0.0771 0.077978,-0.0208 0.154433,-0.0459 0.2305399,-0.0725 0.055168,-0.0163 0.112377,-0.0265 0.1658786,-0.0481 0.045472,-0.0131 0.090594,-0.0278 0.1367372,-0.0386 0.033725,-0.0212 0.074505,-0.0235 0.1102792,-0.0384 0.025434,-0.0119 0.052614,-0.0184 0.080344,-0.0214 0.0089,-0.0134 0.02624,-0.019 0.04019,-0.0267 0.116575,0.0217 0.319579,-0.17947 -0.2776862,0.16893 -0.00329,0.002 0.00574,0.005 0.00783,0.008 0.021585,0.0417 7.938e-4,0.023 -0.020137,0.0361 -6.086e-4,6.4e-4 -0.00259,0.002 -0.00183,0.002 0.098399,-0.0566 0.1962979,-0.11398 0.2948302,-0.17031 0.005,-0.003 -0.0063,0.0101 -0.01123,0.013 -0.3418567,0.19828 -0.2175549,0.10309 -0.3223066,0.18388 0.6310996,-0.36361 0.1410798,-0.0808 -0.019394,0.01 -0.013893,0.008 -0.028616,0.003 -0.042548,0.012 -0.010303,0.0102 -0.025284,0.007 -0.037407,0.012 -0.015605,0.006 -0.023828,0.0134 -0.042246,0.0185 -0.040299,0.0138 -0.083337,0.0199 -0.123766,0.0335 -0.0562,0.0105 -0.1114819,0.0244 -0.1677371,0.0346 -0.060452,0.006 -0.1193742,0.0201 -0.1794327,0.0287 -0.058127,0.0137 -0.1168316,0.0238 -0.1751412,0.0366 -0.062198,0.009 -0.1236835,0.0202 -0.1857251,0.0299 -0.067125,0.0131 -0.1333317,0.006 -0.2004875,-7.7e-4 -0.070092,-0.006 -0.1406432,-0.013 -0.2108491,-0.007 -0.077493,0.006 -0.1528839,0.0241 -0.2287132,0.0398 -0.087936,0.0225 -0.1773002,0.038 -0.2651959,0.0607 -0.081346,0.0158 -0.1613492,0.0367 -0.2412822,0.0583 -0.05858,0.0143 -0.1185043,0.0256 -0.1753434,0.0461 -0.044317,0.01 -0.085765,0.0283 -0.129495,0.0398 -0.00708,10e-4 -0.014372,0.002 -0.021251,0.004 -0.0122,0.004 -0.023193,0.0109 -0.035357,0.0149 -0.018013,0.006 -0.034119,0.009 -0.051087,0.0175 -0.012806,0.0113 -0.030554,0.0102 -0.045253,0.0161 -0.015587,0.006 -0.027684,0.0147 -0.044477,0.0195 -0.030766,0.005 -0.058249,0.0155 -0.087519,0.0254 -0.018357,0.0115 -0.048637,6.9e-4 -0.062141,0.0167 0.7839297,-0.44589 -0.010075,0.007 -0.015311,0.01 -0.013891,0.008 -0.025863,-6.6e-4 -0.035294,0.0138 0.7748691,-0.44944 -0.00906,0.008 -0.021868,0.0136 -0.1043191,0.0449 0.196146,-0.11451 0.2943397,-0.17156 0.00381,-0.002 -0.00716,0.005 -0.010332,0.008 -0.00901,0.007 -0.010017,0.0149 -0.011488,0.0257 -3.968e-4,0.0118 -3.439e-4,0.0236 -1.431e-4,0.0354 3.969e-4,0.0109 -0.00246,0.0117 0.00446,0.0177 0.00101,7.4e-4 0.00198,0.002 0.00298,0.002 7.673e-4,-9e-4 0.00122,-0.003 0.00228,-0.003 0.013581,0.007 0.014597,0.0138 0.032771,0.0179 0.018156,0.005 0.035019,10e-4 0.049582,0.0134 0.015957,0.0112 0.034169,0.0125 0.052934,0.0141 0.022704,8.5e-4 0.045429,8e-4 0.068145,6.1e-4 0.026292,-0.002 0.044112,0.007 0.065258,-0.0102 0.00562,-0.003 0.011239,-0.006 0.016859,-0.009 0,0 -0.2752193,0.21786 -0.2752193,0.21786 v 0 c -0.00629,0.002 -0.012573,0.005 -0.018859,0.007 -0.024403,0.002 -0.048771,0.002 -0.073232,10e-4 -0.023807,-4e-4 -0.047758,-5.6e-4 -0.071274,-0.005 -0.02113,-0.004 -0.040582,-0.0123 -0.059469,-0.0228 -0.011062,0.008 -0.035552,-0.009 -0.047171,-0.0109 -0.016907,-0.008 -0.034401,-0.0172 -0.047563,-0.0306 -0.00986,-0.0119 -0.019497,-0.0244 -0.017179,-0.0405 1.99e-5,-0.0122 -3.439e-4,-0.0245 -3.968e-4,-0.0367 -7.144e-4,-0.0143 -8.996e-4,-0.0304 0.00301,-0.0439 0.05895,-0.12475 0.053997,0.0788 0.3147235,-0.19904 0.077605,-0.0827 -0.1967077,0.11293 -0.2946173,0.17015 -0.00257,0.001 0.0056,-0.002 0.0084,-0.003 0.1026131,-0.0603 0.2052261,-0.12065 0.307839,-0.18097 0.011853,-7.4e-4 0.018079,-0.003 0.028425,-0.008 0.00259,-0.001 0.010348,-0.006 0.00781,-0.004 -0.3329345,0.19196 -0.4598927,0.26333 0.016933,-0.007 0.021826,3.1e-4 0.04216,-0.008 0.062614,-0.0146 0.028762,-0.01 0.058322,-0.015 0.08668,-0.0258 0.029367,-0.0131 0.059513,-0.0236 0.08903,-0.0364 0.036542,-0.0108 0.072003,-0.0247 0.1090821,-0.0337 0.042481,-0.0145 0.085562,-0.0264 0.1284637,-0.0396 0.05796,-0.0157 0.1162412,-0.0299 0.1746491,-0.0437 0.079765,-0.0213 0.1603179,-0.0389 0.2408441,-0.0571 0.088454,-0.0209 0.1777158,-0.0381 0.2660091,-0.0598 0.076852,-0.0165 0.1540598,-0.0326 0.23284,-0.0362 0.071599,-0.002 0.1430785,0.003 0.214303,0.0106 0.065544,0.006 0.130538,0.007 0.1954654,-0.007 0.061614,-0.0106 0.1235276,-0.0192 0.1848178,-0.0315 0.058713,-0.0127 0.1179153,-0.0232 0.1767904,-0.0351 0.059442,-0.01 0.118696,-0.0207 0.1782889,-0.0296 0.05578,-0.0117 0.1118087,-0.0228 0.1668537,-0.0376 0.04172,-0.01 0.08279,-0.022 0.1233318,-0.036 0.026331,-0.0116 0.053294,-0.0206 0.079872,-0.0315 0.012187,-0.002 0.021143,-0.004 0.032106,-0.01 0.00291,-10e-4 0.011515,-0.006 0.00868,-0.005 -0.00613,0.004 -0.8037515,0.46415 0.018264,-0.0109 0.00378,-0.001 0.014803,-0.006 0.011337,-0.004 -0.097188,0.0568 -0.1957585,0.11121 -0.2926762,0.16846 -0.00243,10e-4 0.00592,6.1e-4 0.00849,-5.8e-4 0.00246,-0.001 0.00323,-0.005 0.00556,-0.006 0.3048152,-0.18351 0.1894149,-0.1758 0.3116882,-0.18351 0.02618,-0.005 0.0297,-0.0236 0.05134,0.0112 0.06168,0.13585 -0.2168831,0.13565 -0.3152436,0.21516 -0.014708,0.007 -0.029519,0.0181 -0.046375,0.0172 -0.025977,0.006 -0.050593,0.0168 -0.075947,0.0249 -0.037837,0.01 -0.073665,0.0247 -0.1109782,0.036 -0.045165,0.013 -0.090717,0.0247 -0.1349346,0.0407 -0.054727,0.0162 -0.1103265,0.0292 -0.1645385,0.047 -0.075971,0.0261 -0.1532128,0.0482 -0.2306751,0.0694 -0.090885,0.025 -0.1821974,0.0487 -0.2718224,0.078 -0.090167,0.0298 -0.1785913,0.0647 -0.2696834,0.0918 -0.088106,0.0272 -0.1761956,0.0552 -0.2667582,0.0732 -0.083955,0.0189 -0.168261,0.0362 -0.2519294,0.0564 -0.06528,0.0147 -0.130611,0.029 -0.1954741,0.0454 -0.052819,0.0133 -0.1057664,0.0256 -0.1575052,0.0428 -0.045726,0.0125 -0.091478,0.0251 -0.1375196,0.0363 -0.031928,0.008 -0.062912,0.0197 -0.094782,0.0281 -0.1118979,0.0569 -0.0235,0.0122 0.2760585,-0.16075 0.041468,-0.0239 -0.09658,0.058 -0.05317,0.0305 -0.035963,0.0376 -0.061895,0.082 -0.079648,0.13096 0,0 -0.316897,0.15051 -0.316897,0.15051 z"
       inkscape:connector-curvature="0"
       style="stroke-width:0.26458332" />
    <path
       id="path841"
       d="m 8.6371942,288.93173 c -0.00246,0.0773 -0.00177,0.15476 -0.00127,0.23214 5.69e-5,0.0677 1.241e-4,0.13535 4.498e-4,0.20302 6.38e-5,0.0575 9.5e-5,0.11509 2.646e-4,0.17264 1.574e-4,0.0494 2.122e-4,0.0987 2.426e-4,0.14808 -3.97e-5,0.0424 3.704e-4,0.0849 2.911e-4,0.12729 1.375e-4,0.0307 5.556e-4,0.0613 5.027e-4,0.092 1.762e-4,0.0265 -1.612e-4,0.053 4.63e-5,0.0796 -1.35e-5,0.0271 -8e-6,0.0542 -1.133e-4,0.0813 0.00164,0.0318 -3.175e-4,0.0621 -0.00885,0.0928 -0.00752,0.0255 -0.011194,0.0517 -0.013438,0.0782 -2.91e-4,0.0244 -3.704e-4,0.0473 -0.00881,0.0704 -0.00684,0.0128 -0.010274,0.0265 -0.01402,0.0403 -0.00254,0.0149 2.519e-4,0.03 -0.004,0.0445 4.498e-4,0.009 -0.00823,0.009 -0.011017,0.0121 -0.00678,0.008 -0.00759,0.0157 -0.016322,0.024 -0.023278,0.0201 -0.04483,0.042 -0.069413,0.0604 -0.045207,0.0366 -0.093084,0.0691 -0.1416386,0.10109 -0.056997,0.0408 -0.1135764,0.0826 -0.166596,0.12852 -0.047604,0.0482 -0.09827,0.0932 -0.147933,0.13918 -0.026506,0.0241 -0.051194,0.05 -0.07933,0.0722 0,0 -0.3265842,0.12914 -0.3265842,0.12914 v 0 c 0.030348,-0.0199 0.057304,-0.0427 0.082569,-0.069 0.050257,-0.046 0.1022022,-0.0905 0.1494211,-0.1396 0.049972,-0.0499 0.1084974,-0.0894 0.1636866,-0.13316 0.047085,-0.0327 0.09777,-0.06 0.140167,-0.099 0.024479,-0.0176 0.048283,-0.0346 0.069242,-0.0567 0.00161,-0.001 0.019987,-0.0111 0.020574,-0.0121 0.00564,-0.009 -0.00206,-0.0111 0.00961,-0.0156 0.00335,-0.002 0.00866,-10e-5 0.011067,-0.003 0.00396,-0.005 -0.00346,-0.0202 2.104e-4,-0.0259 -1.355e-4,-0.0167 0.00338,-0.0348 0.010009,-0.05 0.00323,-0.007 0.011843,-0.0169 0.013814,-0.0231 0.00355,-0.0112 -0.00259,-0.0252 6.35e-4,-0.0366 9.26e-4,-0.0284 0.0035,-0.057 0.010851,-0.0845 0.00687,-0.0288 0.017693,-0.054 0.012552,-0.0847 -1.056e-4,-0.0271 -9.95e-5,-0.0541 -1.133e-4,-0.0812 2.061e-4,-0.0265 -1.286e-4,-0.0531 4.63e-5,-0.0796 -5.53e-5,-0.0308 3.704e-4,-0.0617 5.027e-4,-0.0925 -7.19e-5,-0.0425 3.175e-4,-0.0851 2.911e-4,-0.12758 3.04e-5,-0.0494 8.52e-5,-0.0989 2.426e-4,-0.14833 1.725e-4,-0.0576 2.04e-4,-0.11528 2.646e-4,-0.17291 3.175e-4,-0.0678 3.969e-4,-0.13566 4.498e-4,-0.20349 5.027e-4,-0.0769 0.00122,-0.15393 -0.00127,-0.23084 0,0 0.312707,-0.15933 0.312707,-0.15933 z"
       inkscape:connector-curvature="0"
       style="stroke-width:0.26458332" />
    <path
       id="path843"
       d="m 8.9718247,288.97814 c 0.045504,-0.008 0.090628,-0.0182 0.135769,-0.0281 0,0 -0.2748311,0.20885 -0.2748311,0.20885 v 0 c -0.047205,0.0102 -0.094291,0.0212 -0.1418868,0.0295 0,0 0.2809489,-0.21028 0.2809489,-0.21028 z"
       inkscape:connector-curvature="0"
       style="stroke-width:0.26458332" />
    <path
       id="path845"
       d="m 10.089943,287.0081 c -0.033,-0.0546 -0.06753,-0.10799 -0.096777,-0.16484 -0.025032,-0.0471 -0.02997,-0.0996 -0.038701,-0.15108 -0.010581,-0.0539 -0.016788,-0.10838 -0.02046,-0.16311 -5.821e-4,-0.0476 -0.00317,-0.0943 -0.012372,-0.14102 -0.00831,-0.0392 -0.011451,-0.0791 -0.013446,-0.11903 -0.00138,-0.0279 -0.00172,-0.0557 -0.00161,-0.0836 4.498e-4,-0.0256 -1.074e-4,-0.0511 7.4e-6,-0.0767 -2.31e-4,-0.0163 -4.74e-5,-0.0326 -3.704e-4,-0.0489 6.14e-5,-0.014 2.241e-4,-0.028 6.9e-5,-0.042 8.203e-4,-0.0179 0.00329,0.0103 -0.00361,0.003 -0.00319,-0.003 -0.00529,-0.008 -0.00793,-0.0118 -0.050912,-0.13708 0.03907,-0.0595 0.311438,-0.16399 0.0031,-0.001 -0.002,0.0108 -0.0045,0.0235 -0.0018,0.019 -0.01467,0.0373 -0.02564,0.0529 -0.01166,0.0161 -0.02523,0.0306 -0.039,0.0448 -0.01614,0.0149 -0.0298,0.032 -0.04204,0.0504 -0.01078,0.0151 -0.01757,0.036 -0.0338,0.0456 -0.1082464,0.10264 0.101856,-0.0304 -0.3297404,0.1989 -0.097086,0.0516 0.3696044,-0.23525 0.2866104,-0.16316 -0.018372,0.004 -0.021679,0.025 -0.03722,0.0326 -0.00869,0.005 -0.00759,0.0129 -0.012314,0.0198 -0.00354,0.005 -0.012091,0.0103 -0.016489,0.0156 -0.011046,0.0162 -0.025056,0.028 -0.033089,0.046 -0.010038,0.0206 -0.023614,0.0387 -0.038277,0.0562 -0.019129,0.0186 -0.033122,0.0412 -0.051496,0.0605 -0.017055,0.0213 -0.033169,0.0434 -0.050842,0.0642 -0.011745,0.014 -0.024434,0.0272 -0.037101,0.0404 -0.2112624,0.21501 -0.3963318,0.22133 -0.2992038,0.061 0.044487,-0.0696 0.094759,-0.13509 0.1438095,-0.20145 0.06153,-0.0858 0.1260668,-0.16931 0.1933424,-0.25065 0.052729,-0.0652 0.1081908,-0.12797 0.1654945,-0.18912 0.036696,-0.0453 0.077991,-0.0864 0.1168051,-0.12981 0.02673,-0.034 0.05341,-0.0681 0.08049,-0.10187 0.02257,-0.0219 0.04068,-0.0484 0.06385,-0.0695 0.01174,-0.016 0.02603,-0.0281 0.03933,-0.0425 0.0074,-0.0123 0.02024,-0.0198 0.0299,-0.0312 0.0036,-0.0107 0.01069,-0.0132 0.01856,-0.0195 0,0 0.325727,-0.13642 0.325727,-0.13642 v 0 c -0.0058,0.008 -0.0082,0.0159 -0.01976,0.0155 -0.0075,0.0118 -0.01591,0.0315 -0.02978,0.0329 -0.0047,0.007 -0.01058,0.019 -0.01687,0.0238 -0.0024,0.002 -0.0064,7.7e-4 -0.0088,0.003 -0.0062,0.005 -0.0069,0.0145 -0.01371,0.0185 -0.0258,0.0336 0.0084,-0.008 -0.01999,0.0189 -0.0161,0.0155 -0.02792,0.0362 -0.04435,0.0514 -0.03234,0.0288 -0.05642,0.0666 -0.08231,0.10112 -0.0383,0.0451 -0.08231,0.0843 -0.117789,0.13184 -0.05838,0.0607 -0.115416,0.12269 -0.168775,0.18789 -0.06691,0.0812 -0.1340355,0.1622 -0.1938278,0.2489 -0.048356,0.065 -0.097496,0.1295 -0.1406689,0.19797 -0.1056008,0.1468 0.023884,0.0252 -0.3515366,0.21848 -0.00159,8.2e-4 0.00257,-0.002 0.00386,-0.004 0.013115,-0.0128 0.026204,-0.0256 0.038746,-0.0389 0.018558,-0.0198 0.036683,-0.0403 0.051882,-0.0628 0.015388,-0.0222 0.035844,-0.0396 0.050164,-0.0623 0.015092,-0.0151 0.030206,-0.0304 0.041394,-0.0487 0.011597,-0.0163 0.012319,-0.0375 0.030759,-0.0496 0.00329,-0.005 0.00905,-0.0192 0.013639,-0.0224 0.00671,-0.005 0.00822,0.005 0.014499,-0.0152 0.00654,-0.0157 0.00941,-0.006 0.018815,-0.0161 0.00702,-0.007 0.00249,-0.0218 0.015351,-0.0244 0.1042453,-0.0644 0.21682,-0.11569 0.3168053,-0.18656 0.09177,-0.065 -0.1950951,0.11202 -0.2917564,0.16954 -0.00642,0.004 0.033552,-0.0136 0.019587,-0.0151 0.01496,-0.0203 -0.00284,-6.4e-4 0.015303,-0.01 0.00913,-0.005 0.016145,-0.0198 0.022246,-0.0273 0.011983,-0.0207 0.02432,-0.0397 0.038884,-0.0576 0.013674,-0.0136 0.027528,-0.027 0.040558,-0.0412 0.0046,-0.005 0.025008,-0.0355 0.025969,-0.0362 0.00175,-0.001 0.00441,-4.3e-4 0.00661,-6.4e-4 0.022865,-0.15065 0.4265254,-0.0794 0.3138234,-0.19564 -0.0062,-0.0128 0.0271,0.0196 0.02269,0.0299 -1.52e-4,0.014 8e-6,0.0279 7.1e-5,0.0419 -3.44e-4,0.0164 -1.65e-4,0.0329 -4.24e-4,0.0493 5.8e-5,0.0256 -6.08e-4,0.0512 -2.55e-4,0.0769 3.2e-5,0.0276 -4.23e-4,0.0552 1.48e-4,0.0827 0.0012,0.0384 0.003,0.0769 0.01054,0.11466 0.009,0.0483 0.01555,0.0961 0.0138,0.14541 0.0027,0.0534 0.0073,0.10672 0.01865,0.15906 0.0098,0.048 0.01,0.0982 0.03313,0.1428 0.02795,0.056 0.06064,0.10894 0.09603,0.16048 0,0 -0.302715,0.17738 -0.302715,0.17738 z"
       inkscape:connector-curvature="0"
       style="stroke-width:0.26458332" />
    <path
       id="path847"
       d="m 10.439614,286.87238 c 0.08581,0.15682 0.157653,0.3201 0.229692,0.48355 0,0 -0.289723,0.16309 -0.289723,0.16309 v 0 c -0.07155,-0.16292 -0.149772,-0.32234 -0.244136,-0.47345 0,0 0.304167,-0.17319 0.304167,-0.17319 z"
       inkscape:connector-curvature="0"
       style="stroke-width:0.26458332" />
    <path
       id="path849"
       d="m 6.97164,287.66956 c -0.046809,-0.0757 -0.094119,-0.15081 -0.1356947,-0.22958 -0.035361,-0.0697 -0.065574,-0.14208 -0.1031647,-0.21066 -0.025479,-0.0459 -0.050884,-0.0919 -0.077645,-0.13709 -0.013922,-0.0248 -0.024286,-0.0507 -0.030174,-0.0785 -0.00116,-0.0154 -0.00817,-0.0359 -1.164e-4,-0.0495 0.045593,-0.0928 0.2618613,-0.19664 0.4010215,-0.21598 0.066887,-0.004 0.13251,-0.0169 0.1989855,-0.0248 0.044601,-0.005 0.089374,-0.008 0.1342236,-0.009 0.02277,-2e-4 0.045539,-2.6e-4 0.06831,-5e-5 0.00243,-4e-5 0.00526,-0.001 0.00734,-1.2e-4 0.00641,0.004 0.029347,0.0376 0.02064,0.0432 -0.2899542,0.1857 -0.1916366,0.17335 -0.3243066,0.18743 -0.042317,-10e-4 -0.081862,0.0147 -0.1225066,0.0246 -0.080871,0.0212 -0.161576,0.0437 -0.2429248,0.0633 -0.089108,0.0206 -0.1759538,0.0475 -0.261543,0.0796 -0.075268,0.0219 -0.146589,0.0549 -0.2188951,0.0847 -0.05415,0.0286 -0.1120741,0.0486 -0.1688275,0.0711 -0.049917,0.024 -0.1010793,0.0468 -0.1541621,0.063 -0.022474,0.0161 -0.05093,0.0204 -0.075208,0.0319 -0.00938,0.004 -0.017423,0.0114 -0.026755,0.0159 -0.034521,0.009 -0.061871,-0.0262 -0.039604,-0.0549 0.03538,-0.0331 0.066421,-0.0702 0.099914,-0.10509 0.070362,-0.0738 0.1284714,-0.15812 0.1865635,-0.2416 0.045171,-0.0628 0.08486,-0.12915 0.1237533,-0.19593 0.016573,-0.0304 0.03399,-0.0603 0.051348,-0.0902 0.051449,-0.13026 0.2123813,-0.21333 0.351396,-0.21303 0.049368,-2.4e-4 0.098732,5.6e-4 0.1480963,0.001 0.104348,10e-4 0.2087012,10e-4 0.3130539,10e-4 0.103395,4e-4 0.2067883,-3.7e-4 0.3101822,-6.3e-4 0.07183,0.006 0.1442871,0.0113 0.2121522,0.0368 0.043679,0.0123 0.07725,0.0431 0.1154152,0.0654 0.022246,0.0183 0.042118,0.0405 0.058063,0.0646 0.00884,0.0129 0.021021,0.0261 0.033342,0.0357 0.1178116,0.0992 -0.167867,0.21442 -0.2996914,0.21678 -0.051694,-0.004 -0.1025972,7.7e-4 -0.1539713,0.006 -0.085951,0.004 -0.1709158,0.0161 -0.2563363,0.0256 -0.082358,0.01 -0.1653228,0.0111 -0.2481241,0.0128 -0.075107,-0.003 -0.1491869,0.01 -0.2237587,0.0161 -0.070888,0.0136 -0.1422477,0.0229 -0.2141982,0.0283 -0.043162,0.003 -0.087703,0.0302 -0.1309023,0.0206 -0.00348,-0.002 -0.00762,-0.003 -0.01043,-0.006 -0.00536,-0.005 -0.023101,-0.0365 -0.016505,-0.0408 0.013089,-0.009 0.2268609,-0.15198 0.3439554,-0.18472 0.043137,-0.0101 0.084197,-0.0235 0.1282235,-0.0305 0.040404,-0.007 0.078239,-0.0225 0.1190834,-0.0281 0.029121,-0.004 0.058633,-0.005 0.088011,-0.005 0.019912,-7e-5 0.039825,1.8e-4 0.059738,1.8e-4 0,0 -0.2851828,0.20704 -0.2851828,0.20704 v 0 c -0.019685,-1.5e-4 -0.039374,-1.3e-4 -0.059057,2.3e-4 -0.028107,0.001 -0.056225,0.003 -0.083801,0.009 -0.03932,0.009 -0.077771,0.0224 -0.1180216,0.0276 -0.04277,0.01 -0.084429,0.0232 -0.1267331,0.0345 -0.1412438,0.0496 0.024426,0.004 0.262898,-0.15931 0.010962,-0.007 -0.020815,-0.0202 -0.021257,-0.0295 -8.04e-5,-0.002 0.00329,-7.1e-4 0.00494,-10e-4 0.041215,-0.0102 0.083361,-0.0173 0.1255035,-0.022 0.071537,-0.006 0.1421921,-0.0185 0.213319,-0.0282 0.074907,-0.008 0.1497068,-0.0162 0.2251755,-0.0139 0.08194,-0.002 0.1639041,-0.005 0.2453203,-0.0148 0.085683,-0.0103 0.1713937,-0.0189 0.2574314,-0.0257 0.052461,-0.005 0.1049679,-0.005 0.1573768,-0.009 0.1217306,-0.0284 -0.012348,0.002 -0.2779196,0.18029 -0.0035,0.002 0.011377,0.0122 0.00774,0.01 -0.0019,-0.001 -0.012107,-0.0105 -0.013163,-0.0114 -0.01292,-0.0136 -0.02856,-0.0252 -0.036873,-0.0425 -0.013883,-0.0198 -0.02964,-0.0391 -0.049661,-0.0529 -0.034534,-0.0235 -0.068499,-0.0478 -0.1093515,-0.0595 -0.065879,-0.0199 -0.1348039,-0.0264 -0.2033789,-0.029 -0.1027695,-2.6e-4 -0.2055379,-10e-4 -0.3083084,-7.4e-4 -0.1052978,-1.3e-4 -0.2105959,5e-5 -0.3158921,6.7e-4 -0.049296,3.1e-4 -0.09924,-10e-4 -0.1480939,0.006 -0.0068,0.002 -0.025495,0.0136 -0.019246,0.01 0.097864,-0.0568 0.1953472,-0.11429 0.2930208,-0.17143 -0.011808,0.002 -0.016005,0.006 -0.023818,0.0152 -0.00985,0.0357 -0.037032,0.0628 -0.051622,0.0964 -0.04114,0.0673 -0.079799,0.13612 -0.1266801,0.19968 -0.057344,0.0841 -0.1153041,0.16883 -0.1824832,0.24529 -0.031484,0.0351 -0.06281,0.0702 -0.094948,0.10439 -0.020082,0.0149 -0.053735,-0.008 -0.021238,-0.0239 0.00343,-0.002 0.00658,-0.004 0.00987,-0.006 0.033082,-0.017 0.069344,-0.0283 0.1035246,-0.043 0.051669,-0.0196 0.1021744,-0.0419 0.1528289,-0.0639 0.056676,-0.0218 0.1123794,-0.0457 0.1675765,-0.0711 0.071943,-0.0302 0.1445609,-0.0588 0.2188903,-0.0827 0.086359,-0.0303 0.174176,-0.0549 0.2631411,-0.0763 0.081806,-0.0212 0.1635572,-0.0427 0.2449946,-0.0652 0.041119,-0.0113 0.082753,-0.0185 0.1242047,-0.0272 0.1125738,-0.0599 -0.065226,0.0345 -0.2781414,0.17026 -8.44e-5,5e-5 0.00652,10e-4 0.015785,0.0163 0.00467,0.008 -5.82e-4,0.005 -0.00556,0.005 -0.022355,5e-5 -0.044715,-2.5e-4 -0.067061,5e-4 -0.043385,0.001 -0.086706,0.005 -0.129798,0.01 -0.066121,0.009 -0.1321072,0.0184 -0.1981724,0.0272 -0.024096,0.006 -0.044917,0.0125 -0.06679,0.0243 -0.00465,0.003 -0.018399,0.0105 -0.013848,0.008 0.2910287,-0.17308 0.3987429,-0.19982 0.2813348,-0.16975 -0.00891,0.0139 -0.013478,-0.0109 -0.010996,0.0269 0.00259,0.0243 0.010554,0.0468 0.022241,0.0684 0.025744,0.0461 0.051005,0.0925 0.075914,0.13905 0.037236,0.069 0.067269,0.14162 0.1015693,0.2121 0.040921,0.0778 0.086388,0.1528 0.1378551,0.22418 0,0 -0.3027149,0.17738 -0.3027149,0.17738 z"
       inkscape:connector-curvature="0"
       style="stroke-width:0.26458332" />
    <path
       id="path851"
       d="m 0.11112006,293.13004 c 0.0472319,-0.0827 0.11007901,-0.15418 0.17206882,-0.22585 0.0671223,-0.081 0.14215695,-0.15375 0.22413227,-0.21946 0.0979638,-0.0769 0.19969604,-0.14878 0.30415441,-0.21657 0.14834177,-0.099 0.30340584,-0.18443 0.45999994,-0.27108 0.055453,-0.0307 0.1196734,-0.0516 0.1785572,-0.0747 0.1176254,-0.04 0.2380764,-0.072 0.3589445,-0.10062 0.1362838,-0.0255 0.2745656,-0.0368 0.4120737,-0.0532 0.1373249,-0.0193 0.2760579,-0.0211 0.4140798,-0.0316 0.1298617,-0.01 0.2598978,-0.0212 0.3901918,-0.0172 0.1181484,0.007 0.2363396,0.0128 0.354669,0.0158 0.1244404,0.003 0.2489152,0.002 0.3733762,0.002 0.1270702,6.3e-4 0.2537963,-0.0118 0.380042,-0.025 0.1270939,-0.0163 0.2531269,-0.0373 0.3792336,-0.0597 0.1287026,-0.0251 0.257071,-0.0515 0.3874072,-0.0666 0.1177774,-0.0155 0.2353812,-0.0325 0.3533994,-0.0461 0.1078934,-0.0198 0.217015,-0.0299 0.3264818,-0.0351 0.1257427,-0.008 0.2501059,-0.0275 0.3745659,-0.0461 0.1303681,-0.0241 0.2608445,-0.0475 0.3917005,-0.0689 0.138919,-0.0231 0.2775421,-0.0477 0.4163732,-0.0713 0.1305801,-0.0244 0.2620632,-0.045 0.3940514,-0.0601 0.1370031,-0.0117 0.2736262,-0.028 0.4095162,-0.049 0.1521775,-0.0217 0.3056433,-0.0316 0.458266,-0.0499 0.1588426,-0.0177 0.3174397,-0.0364 0.4769149,-0.0475 0.1611609,-0.006 0.3218932,-0.019 0.4829935,-0.0263 0.1767014,-0.007 0.3535513,-0.008 0.5303572,-0.008 0.1970575,0.004 0.3938366,-0.008 0.5906835,-0.0146 0.194894,-0.003 0.389385,-0.0151 0.584077,-0.0234 0.197603,-0.0127 0.394532,-0.0354 0.590942,-0.0603 0.1985,-0.029 0.3966,-0.0612 0.593614,-0.0991 0.206565,-0.0398 0.41197,-0.0852 0.617208,-0.13124 0.222052,-0.0534 0.44131,-0.11728 0.660171,-0.1823 0.221102,-0.0718 0.433773,-0.16662 0.644982,-0.26304 0.196226,-0.0918 0.391204,-0.18645 0.583686,-0.2859 0.17011,-0.0916 0.343545,-0.17676 0.512354,-0.27081 -0.07111,0.0409 -0.284945,0.16282 -0.213337,0.12277 0.223327,-0.1249 0.442788,-0.25678 0.672193,-0.37038 0.140721,-0.0646 0.28375,-0.12394 0.42876,-0.1782 0.112671,-0.0462 0.228365,-0.0826 0.345366,-0.11568 0.110167,-0.0254 0.221527,-0.0447 0.33396,-0.0565 0.09928,-0.009 0.199018,-0.0105 0.298639,-0.011 0.105764,0.003 0.211031,-0.008 0.316453,-0.0147 0.09097,-0.008 0.182988,-0.002 0.273653,-0.0128 0.03383,-0.004 0.06927,-0.009 0.100319,-0.0246 0.01215,-0.006 0.04655,-0.0278 0.03464,-0.0213 -0.271024,0.14728 -0.322132,0.20987 -0.194289,0.0809 0.01838,-0.0224 0.03675,-0.0447 0.05513,-0.0671 0,0 0.312164,-0.13332 0.312164,-0.13332 v 0 c -0.01787,0.0228 -0.03574,0.0457 -0.05361,0.0685 -0.01717,0.021 -0.02916,0.0476 -0.05152,0.063 -0.152723,0.105 -0.297314,0.2247 -0.482467,0.24069 -0.09055,0.005 -0.181425,0.003 -0.271915,0.0106 -0.106049,0.007 -0.212,0.0163 -0.318409,0.0137 -0.09862,10e-4 -0.197409,0.003 -0.295571,0.0132 -0.111229,0.0133 -0.221824,0.0329 -0.330338,0.0609 -0.115815,0.033 -0.229443,0.0723 -0.341508,0.11649 -0.143434,0.0557 -0.28645,0.11255 -0.425046,0.17962 -0.07594,0.0385 -0.150516,0.0789 -0.225281,0.11958 -0.02573,0.014 -0.102288,0.0571 -0.07734,0.0417 0.09775,-0.0601 0.690218,-0.40019 -0.154382,0.0866 -0.168865,0.0924 -0.3414,0.17788 -0.511199,0.26856 -0.19265,0.0982 -0.387048,0.19303 -0.583399,0.28361 -0.211833,0.0956 -0.425099,0.18977 -0.647315,0.259 -0.219781,0.0649 -0.439906,0.12905 -0.663041,0.18162 -0.205805,0.0459 -0.411751,0.0912 -0.618824,0.13111 -0.197476,0.0371 -0.395875,0.0693 -0.59483,0.0973 -0.19724,0.0241 -0.394838,0.0476 -0.593299,0.0587 -0.194589,0.008 -0.389024,0.0198 -0.5837954,0.0229 -0.197317,0.007 -0.3945821,0.0168 -0.5921004,0.0143 -0.1769624,0.001 -0.3539927,0.002 -0.5308008,0.0103 -0.1609307,0.008 -0.3216714,0.0199 -0.4826645,0.0271 -0.1591244,0.0121 -0.3174929,0.0315 -0.4761156,0.0488 -0.1529662,0.0175 -0.3067137,0.0284 -0.4589563,0.0518 -0.136503,0.0198 -0.2734873,0.0359 -0.4108254,0.0488 -0.1314543,0.0167 -0.2625177,0.0369 -0.3927689,0.0612 -0.1387475,0.0236 -0.2774133,0.0477 -0.4162073,0.071 -0.1310405,0.022 -0.2615748,0.0467 -0.3925703,0.0689 -0.125458,0.019 -0.2511938,0.0367 -0.3779369,0.0446 -0.1089255,0.007 -0.2171266,0.0192 -0.3248866,0.0367 -0.1175988,0.0144 -0.2350003,0.0304 -0.3524882,0.0456 -0.1296366,0.0171 -0.2576481,0.0434 -0.3860316,0.068 -0.1263237,0.023 -0.2531684,0.0418 -0.3806222,0.0576 -0.1272405,0.0131 -0.2550401,0.024 -0.3830624,0.0228 -0.1244867,-2.2e-4 -0.2489793,-9.8e-4 -0.3734435,-0.003 -0.1183651,-0.003 -0.2365335,-0.009 -0.354774,-0.0155 -0.1293589,-10e-4 -0.2583866,0.009 -0.3873113,0.019 -0.1376761,0.009 -0.2757153,0.0138 -0.4126023,0.0325 -0.1374362,0.0156 -0.2756157,0.0284 -0.411011,0.0577 -0.1197124,0.0303 -0.2399376,0.0603 -0.355586,0.10409 -0.045673,0.0186 -0.073351,0.0293 -0.1180871,0.0498 -0.019546,0.009 -0.0763975,0.0394 -0.058134,0.028 0.4570933,-0.28443 0.2275856,-0.13179 0.1273334,-0.0686 -0.1051246,0.0656 -0.20616762,0.13737 -0.30424565,0.21308 -0.0828796,0.0628 -0.15866419,0.13266 -0.22528535,0.21279 -0.0608789,0.0693 -0.12482012,0.13697 -0.17056856,0.21769 0,0 -0.32008338,0.14268 -0.32008338,0.14268 z"
       inkscape:connector-curvature="0"
       style="stroke-width:0.26458332" />
    <path
       id="path853"
       d="m 0.39508318,286.21911 c 0.0713524,-0.25484 0.15750114,-0.50478 0.2494651,-0.75284 0.14171286,-0.34878 0.29896133,-0.69136 0.45966492,-1.03179 0.1407852,-0.29318 0.2889727,-0.58271 0.4313713,-0.8751 0.090045,-0.19192 0.1747483,-0.3863 0.2531192,-0.58328 0.031056,-0.0776 0.057894,-0.15713 0.099045,-0.23016 0.068993,-0.11544 0.2780095,-0.29245 0.3619334,-0.15963 0.012978,0.0205 0.015909,0.033 0.024287,0.0563 0.025045,0.0863 0.041593,0.17473 0.06974,0.26015 0.023273,0.0626 0.056952,0.12107 0.1169808,0.15338 0.00903,0.002 0.017942,0.004 0.027096,0.005 0.035734,10e-4 0.075923,-0.017 0.106417,-0.0332 0.016991,-0.009 0.066115,-0.0393 0.049099,-0.0303 -0.079563,0.0419 -0.1578903,0.0862 -0.2368354,0.12924 0.1427496,-0.12176 0.2631627,-0.26742 0.3778099,-0.41526 0.081617,-0.10649 0.1616898,-0.21459 0.2521315,-0.31387 0.111348,-0.0995 0.2650932,-0.16697 0.3909901,-0.22697 0.00991,-0.005 0.022217,0.002 0.032328,0.006 0.033217,0.0141 0.042473,0.0318 0.065986,0.0588 0.098581,0.16215 0.1600462,0.34372 0.2226477,0.52193 0.07818,0.22046 0.1518208,0.44254 0.2307839,0.66271 0.055591,0.1487 0.126148,0.28983 0.218758,0.41871 0.058518,0.0746 0.1298353,0.13424 0.2194579,0.16593 0.078171,0.0165 0.1472697,-0.006 0.2154983,-0.0429 -0.4872521,0.28017 -0.2570146,0.15835 -0.1639504,0.0767 0.061041,-0.0536 0.110372,-0.11526 0.1598962,-0.17921 0.1415092,-0.19683 0.25331,-0.41278 0.3660174,-0.62682 0.1260912,-0.2449 0.2395443,-0.49595 0.3612537,-0.74305 0.1106945,-0.22354 0.2185326,-0.44875 0.3360623,-0.66882 0.087399,-0.17409 0.1919521,-0.33851 0.2981497,-0.50151 0.071055,-0.1053 0.1491636,-0.20614 0.2370553,-0.29793 0.1134888,-0.10592 0.2495055,-0.1618 0.3899247,-0.24054 0.021897,-0.0123 0.048692,-0.0156 0.073059,-0.0188 0.06401,0.006 0.1124657,0.0457 0.1573091,0.088 0.055453,0.0578 0.09801,0.12539 0.1385297,0.19398 0.030607,0.0528 0.054572,0.10909 0.084362,0.16231 0.015166,0.0346 0.045169,0.0407 0.074621,0.0563 0.027646,0.0147 0.059884,0.0125 0.088137,0.0242 0.05174,0.0141 0.07261,0.0635 0.092801,0.10824 0.03753,0.11563 0.056155,0.23619 0.080832,0.35495 0.017653,0.0885 0.035787,0.17792 0.072642,0.26077 0.015883,0.0356 0.043264,0.0598 0.081099,0.0685 0.054956,0.019 0.1108165,0.0343 0.1650519,0.0554 0.1023951,0.0462 0.1751954,0.13052 0.2459662,0.21459 0.077345,0.10517 0.1526468,0.21184 0.2319443,0.31557 0.040728,0.0466 0.080049,0.11873 0.1476052,0.12991 0.010483,0.002 0.021246,3.9e-4 0.03187,6.1e-4 0.011435,-0.003 0.023188,-0.006 0.034306,-0.0101 0.048611,-0.0188 0.093914,-0.0519 0.08697,-0.0482 -0.080166,0.042 -0.1556234,0.0934 -0.238393,0.13006 -0.024236,0.0107 0.040862,-0.0338 0.060694,-0.0514 0.021757,-0.0193 0.042693,-0.0395 0.064039,-0.0592 0.1162378,-0.11545 0.2239478,-0.23892 0.3399337,-0.35462 0.1251654,-0.11358 0.338477,-0.30901 0.4856631,-0.2983 0.00849,0.003 0.017801,0.005 0.025463,0.01 0.05716,0.0361 0.094377,0.13056 0.1245518,0.18784 0.04731,0.0921 0.091397,0.18646 0.155675,0.26821 0.065586,0.0799 0.1111478,0.0613 0.1979991,0.0242 0.1814528,-0.10102 -0.1087848,0.0658 -0.1652564,0.0948 -0.026645,0.0137 0.050078,-0.0329 0.074635,-0.0501 0.082328,-0.0576 0.16047,-0.1205 0.239065,-0.18297 0.2076306,-0.16926 0.4434566,-0.29283 0.6758866,-0.424 0.07565,-0.0373 0.151997,-0.0257 0.2271,0.005 0.06283,0.0333 0.122104,0.0688 0.191932,0.0848 0.01162,4.5e-4 0.02328,0.002 0.03486,10e-4 0.01793,-0.002 0.06126,-0.0149 0.07665,-0.0218 0.01522,-0.007 0.05845,-0.0322 0.04392,-0.024 -0.269666,0.15233 -0.317737,0.19091 -0.185982,0.0947 0.133901,-0.1084 0.239427,-0.24594 0.345354,-0.38053 0.08692,-0.10658 0.167766,-0.21815 0.257074,-0.32277 0.04186,-0.0479 0.09,-0.0896 0.140309,-0.12831 0.0304,-0.0255 0.06372,-0.0466 0.09642,-0.069 0.03754,-0.0236 0.07079,-0.0535 0.102773,-0.0841 0.0276,-0.0237 0.05636,-0.046 0.08373,-0.0699 0.108081,-0.0778 0.03251,-0.024 0.326247,-0.18565 0.01457,-0.008 0.02888,7.1e-4 0.04102,-0.0115 0.0817,-0.0679 0.400578,-0.2325 -0.273964,0.15658 -0.0027,0.002 0.0051,-0.003 0.0077,-0.005 0.01077,-0.007 0.0054,-0.001 0.01304,-0.0146 0.02601,-0.0312 0.04219,-0.0689 0.05801,-0.10598 0.03192,-0.07 0.05959,-0.14185 0.08737,-0.21358 0.03421,-0.0824 0.06674,-0.16564 0.103755,-0.2469 0.04314,-0.0855 0.08532,-0.17167 0.133714,-0.25432 0.04543,-0.0695 0.09162,-0.13856 0.136908,-0.2082 0.09185,-0.11279 0.252712,-0.29172 0.395508,-0.23917 0.07145,0.0599 0.09937,0.16025 0.134006,0.2439 0.04482,0.12252 0.09433,0.24173 0.166554,0.35067 0.03809,0.0584 0.08463,0.10306 0.153719,0.11709 0.06518,0.009 0.128801,-0.0116 0.187978,-0.037 0.07158,-0.0339 0.140726,-0.0724 0.210768,-0.10931 0.127871,-0.075 -0.0325,0.0192 -0.244278,0.14045 -0.0077,0.004 0.0152,-0.009 0.02262,-0.0139 0.02179,-0.0141 0.04255,-0.0299 0.06394,-0.0446 0.0611,-0.0381 0.110761,-0.0894 0.161538,-0.13967 0.04866,-0.0485 0.09879,-0.0955 0.144597,-0.14675 0.100963,-0.10254 0.23168,-0.21339 0.378241,-0.21531 0.02742,0.009 0.05102,0.0233 0.07455,0.0396 0.01957,0.006 0.03408,0.0203 0.05181,0.0306 0.0094,0.004 0.01332,0.0139 0.01794,0.0222 0,0 -0.306461,0.17569 -0.306461,0.17569 v 0 c -0.0021,-0.004 -0.0028,-0.003 -0.0081,-0.007 -0.01714,-0.0113 -0.03393,-0.0225 -0.05215,-0.032 -0.0167,-0.011 -0.03894,-0.0249 -0.05935,-0.0179 -0.107019,0.0357 -0.311991,0.17931 0.269162,-0.15922 0.009,-0.005 -0.01948,0.008 -0.02783,0.0144 -0.0054,0.004 -0.0098,0.009 -0.01477,0.0139 -0.04938,0.049 -0.09491,0.10225 -0.146912,0.14892 -0.05069,0.05 -0.09679,0.10479 -0.156732,0.14411 -0.139559,0.0989 -0.285073,0.18809 -0.439164,0.2645 -0.06965,0.0378 -0.140162,0.0746 -0.213103,0.10561 -0.06556,0.0224 -0.133761,0.0387 -0.202534,0.0201 -0.07255,-0.0249 -0.123236,-0.0759 -0.163636,-0.14066 -0.07083,-0.11206 -0.120441,-0.23334 -0.167302,-0.35709 -0.01802,-0.0414 -0.07048,-0.17845 -0.108566,-0.20398 -0.0036,-0.002 -0.0085,-0.002 -0.01269,-0.003 -0.111082,0.0513 -0.02816,0.0134 0.276873,-0.16368 0.0051,-0.003 -0.0098,0.007 -0.0145,0.0101 -0.01949,0.0144 -0.0338,0.0328 -0.05175,0.049 -0.04981,0.067 -0.09126,0.14024 -0.14061,0.20765 -0.05136,0.0797 -0.08971,0.1669 -0.134376,0.25045 -0.03892,0.0797 -0.06972,0.16296 -0.104495,0.2445 -0.02761,0.0714 -0.05356,0.14368 -0.08516,0.21336 -0.01527,0.0386 -0.0294,0.0778 -0.05121,0.1132 -0.0088,0.008 -0.0073,0.022 -0.01748,0.0281 -0.06571,0.0398 -0.215233,0.1469 -0.33042,0.1921 -0.01118,5.1e-4 -0.01945,0.002 -0.02979,0.007 -0.0035,10e-4 -0.01377,0.007 -0.01046,0.005 0.27925,-0.16226 0.39059,-0.21635 0.277381,-0.161 -0.03216,0.017 -0.05525,0.0475 -0.08624,0.0668 -0.03521,0.0277 -0.06442,0.0623 -0.100544,0.0893 -0.03428,0.0191 -0.06676,0.042 -0.0976,0.0661 -0.05203,0.0377 -0.103173,0.077 -0.147551,0.1237 -0.09477,0.10186 -0.174429,0.21677 -0.263781,0.32327 -0.105542,0.13527 -0.210323,0.2733 -0.339339,0.38739 -0.154111,0.12325 -0.06754,0.0584 -0.402065,0.24736 -0.05244,0.0296 -0.113775,0.0384 -0.172236,0.0266 -0.06898,-0.0204 -0.128436,-0.0583 -0.193786,-0.0874 -0.07234,-0.0231 -0.139508,-0.0216 -0.207618,0.0161 0.565513,-0.33267 0.0088,-0.0129 -0.09378,0.083 -0.2285107,0.18249 -0.4600341,0.36071 -0.7330497,0.47601 -0.1044352,0.0315 -0.1543346,0.0299 -0.2246979,-0.0591 -0.062452,-0.0853 -0.1074936,-0.18074 -0.1560544,-0.27426 -0.019415,-0.0356 -0.070881,-0.14742 -0.1135698,-0.15952 -0.00607,-0.002 -0.012618,-2.9e-4 -0.018926,-4.4e-4 -0.1197216,0.0399 -0.032569,0.0124 0.2560222,-0.15558 0.00954,-0.006 -0.018862,0.0115 -0.027796,0.018 -0.04061,0.0295 -0.077292,0.0642 -0.1157621,0.0963 -0.118623,0.11464 -0.2283775,0.23752 -0.342596,0.35648 -0.1781141,0.17101 -0.1656702,0.14431 -0.4683077,0.32628 -0.042844,0.0258 -0.087083,0.0443 -0.1377413,0.0427 -0.012409,-0.003 -0.025249,-0.004 -0.037231,-0.008 -0.069371,-0.0246 -0.1109678,-0.0931 -0.1542894,-0.1475 -0.076838,-0.10459 -0.1512588,-0.21095 -0.2294524,-0.31455 -0.068539,-0.0795 -0.1401096,-0.15852 -0.2406375,-0.19703 -0.055283,-0.0193 -0.111982,-0.0339 -0.1671908,-0.0534 -0.042861,-0.0195 -0.076718,-0.0492 -0.094561,-0.0939 -0.036612,-0.0859 -0.053244,-0.17854 -0.071058,-0.2698 -0.023786,-0.1158 -0.041915,-0.23351 -0.081189,-0.34542 -0.019217,-0.039 -0.034761,-0.0727 -0.080525,-0.0817 -0.031386,-0.006 -0.062374,-0.0139 -0.090913,-0.0287 -0.036761,-0.0161 -0.066112,-0.0392 -0.085259,-0.0755 -0.027876,-0.0538 -0.051066,-0.1098 -0.081067,-0.16252 -0.039119,-0.0655 -0.078705,-0.13119 -0.1338805,-0.18483 -0.039397,-0.0349 -0.084538,-0.0704 -0.1405409,-0.0596 -0.029757,0.008 -0.087313,0.0386 -0.06538,0.0255 0.4942943,-0.2945 0.2984545,-0.1861 0.2014373,-0.11017 -0.092421,0.0882 -0.171382,0.18976 -0.2451322,0.29382 -0.1087319,0.16241 -0.2157399,0.32657 -0.3043717,0.50106 -0.1204383,0.21916 -0.2278022,0.44541 -0.3396149,0.66904 -0.122311,0.24695 -0.2370082,0.49746 -0.3607345,0.74368 -0.1113602,0.21367 -0.2215689,0.42907 -0.3571073,0.62869 -0.1779476,0.24763 -0.279378,0.29144 -0.5783599,0.45297 -0.076366,0.0323 -0.1517911,0.0475 -0.2328664,0.0202 -0.091925,-0.0401 -0.1669518,-0.10457 -0.2270183,-0.18494 -0.091483,-0.13343 -0.1617834,-0.27823 -0.2167181,-0.4305 -0.077206,-0.22091 -0.1488715,-0.44377 -0.2287076,-0.66379 -0.062433,-0.17265 -0.12371,-0.34987 -0.226884,-0.50319 -0.019487,-0.0186 -0.02604,-0.0322 -0.053459,-0.0352 -0.00814,-8.7e-4 -0.031209,0.008 -0.024299,0.004 0.4819481,-0.30572 0.3115464,-0.18407 0.2044523,-0.12012 -0.096731,0.0957 -0.1769658,0.20673 -0.2607956,0.31354 -0.1142283,0.14848 -0.2343557,0.29347 -0.3707847,0.42223 -0.116338,0.0712 -0.2319849,0.14358 -0.3490137,0.21366 -0.064418,0.0386 -0.1365836,0.0655 -0.2082452,0.0319 -0.062499,-0.0427 -0.102041,-0.10456 -0.1273244,-0.17558 -0.028024,-0.0849 -0.044331,-0.17288 -0.071308,-0.25808 -0.00639,-0.0174 -0.00915,-0.0294 -0.019892,-0.0441 -0.00148,-0.002 -0.00357,-0.004 -0.00606,-0.004 -0.00282,-1.9e-4 -0.010157,0.005 -0.00773,0.003 0.2812893,-0.16682 0.3887302,-0.21999 0.2733094,-0.1624 -0.047987,0.0703 -0.077691,0.15019 -0.1097887,0.2286 -0.08294,0.19873 -0.1704052,0.39552 -0.2625804,0.59013 -0.1445213,0.29339 -0.2954009,0.58361 -0.4383209,0.8778 -0.1611347,0.3389 -0.3180468,0.68035 -0.45888704,1.02821 -0.0883761,0.24261 -0.17322157,0.48679 -0.23014104,0.73903 0,0 -0.31346984,0.15086 -0.31346984,0.15086 z"
       inkscape:connector-curvature="0"
       style="stroke-width:0.26458332" />
    <path
       id="path855"
       d="m 6.2138424,289.36856 c -0.085477,-0.0228 -0.1740895,-0.0293 -0.2620608,-0.0346 -0.08754,-0.003 -0.1755282,-0.008 -0.2628947,-6.8e-4 -0.088261,0.0108 -0.1756807,0.0296 -0.2620013,0.051 -0.098004,0.0246 -0.1972707,0.0444 -0.2948884,0.0705 -0.095339,0.0205 -0.1887143,0.0464 -0.281505,0.0761 -0.074259,0.0159 -0.1423194,0.0502 -0.2128698,0.077 -0.1070099,0.0546 -0.2787576,0.15064 0.2057138,-0.11946 0.011679,-0.007 -0.022241,0.0148 -0.033373,0.0223 -0.049274,0.0328 -0.022937,0.0146 -0.071839,0.0496 -0.061066,0.0448 -0.1132531,0.0993 -0.1605664,0.15814 -0.026504,0.038 -0.051974,0.0764 -0.065352,0.12102 -0.011893,0.0434 0.00122,0.0852 0.017251,0.12557 0.027716,0.0684 0.079714,0.12171 0.1307705,0.1734 0.079825,0.0773 0.1742988,0.13492 0.2715628,0.18713 0.1202598,0.0669 0.2531044,0.0947 0.3881025,0.11177 0.1545632,0.0188 0.308977,-0.002 0.4621487,-0.0218 0.1527056,-0.021 0.3051937,-0.0412 0.4590529,-0.0516 0.1371174,-0.007 0.2744843,-0.009 0.4117713,-0.009 0.1146707,-3.5e-4 0.2293432,-3.2e-4 0.3440144,-8e-5 0.1122601,0.002 0.2240984,2.4e-4 0.3360883,-0.007 0.1204352,-0.005 0.2400658,-0.0202 0.3601734,-0.03 0.09591,-0.005 0.1918663,-0.0136 0.2866437,-0.0294 0.080879,-0.0111 0.1601462,-0.031 0.2409976,-0.0422 0.065983,-0.0143 0.1326065,-0.0238 0.1960081,-0.0478 0.042341,-0.0185 0.082683,-0.0406 0.1237628,-0.0615 -0.7026346,0.40351 -0.022074,0.0125 0.036835,-0.0207 0.094718,-0.0534 -0.1883965,0.10865 -0.2829303,0.16238 -0.04053,0.023 0.03752,-0.0253 0.046834,-0.0327 0.0264,-0.0189 0.048805,-0.042 0.069631,-0.0667 0.016253,-0.0182 0.030808,-0.0384 0.015272,-0.0603 -0.073814,-0.0622 -0.1668198,-0.10006 -0.2547159,-0.13812 -0.1233078,-0.0533 -0.2524519,-0.0911 -0.3781023,-0.13828 -0.1145111,-0.0349 -0.226437,-0.0763 -0.335893,-0.12468 -0.1224513,-0.0527 -0.2434498,-0.10848 -0.3647718,-0.16367 -0.1343853,-0.0658 -0.2765356,-0.10865 -0.4223861,-0.1398 -0.1917258,-0.0391 -0.3861546,-0.0343 -0.5799199,-0.0187 -0.170775,0.0217 -0.3412524,0.0491 -0.5066752,0.0978 -0.1104799,0.0325 -0.1659633,0.0554 -0.2753323,0.0959 -0.044114,0.0176 -0.088229,0.0352 -0.132343,0.0528 0,0 0.2595637,-0.20387 0.2595637,-0.20387 v 0 c 0.043737,-0.017 0.087475,-0.034 0.1312121,-0.051 0.1165387,-0.0426 0.1623084,-0.062 0.2796501,-0.0951 0.1677694,-0.0474 0.3404348,-0.0747 0.5132639,-0.0955 0.1972296,-0.0148 0.3954282,-0.0181 0.5900901,0.0236 0.1477812,0.0332 0.2920037,0.0773 0.4283406,0.1445 0.1212606,0.0554 0.2429433,0.10981 0.3653602,0.1626 0.1094846,0.0471 0.2220624,0.0854 0.3350593,0.12311 0.1256932,0.0473 0.2546779,0.086 0.3776189,0.14056 0.094472,0.0406 0.1962407,0.0794 0.2729965,0.1496 0.023106,0.0341 0.026704,0.0644 0.00554,0.10096 -0.021558,0.026 -0.041753,0.0524 -0.067098,0.0746 -0.020529,0.0143 -0.010708,0.006 -0.029327,0.0243 -0.1024252,0.0785 -0.2248654,0.12693 -0.3342516,0.19543 -0.012015,0.008 0.8270751,-0.47884 -0.037176,0.0206 -0.040378,0.0217 -0.082626,0.0409 -0.1258866,0.0559 -0.065215,0.0186 -0.1319297,0.0304 -0.1986322,0.0424 -0.080043,0.0133 -0.1594046,0.0304 -0.2398453,0.0413 -0.095102,0.013 -0.190604,0.0217 -0.2864843,0.0263 -0.1200435,0.01 -0.2397876,0.0235 -0.3601563,0.0292 -0.1125784,0.007 -0.2251681,0.007 -0.3379462,0.006 -0.1143135,-3e-5 -0.2286268,-5.5e-4 -0.3429405,-4.7e-4 -0.1363811,5.3e-4 -0.2728632,0.001 -0.409016,0.01 -0.1529423,0.0114 -0.3046425,0.0322 -0.4566507,0.0522 -0.1555321,0.0198 -0.3123398,0.0369 -0.4688665,0.0156 -0.1381165,-0.02 -0.2737326,-0.0522 -0.3967607,-0.12091 -0.099691,-0.0546 -0.1965912,-0.11509 -0.2787732,-0.19455 -0.05451,-0.055 -0.109933,-0.11091 -0.1409298,-0.18321 -0.019285,-0.0456 -0.036026,-0.0946 -0.027951,-0.14475 0.00972,-0.0507 0.032495,-0.0922 0.061053,-0.13488 0.044981,-0.0629 0.098603,-0.11932 0.1588881,-0.16778 0.032807,-0.0262 0.067134,-0.0521 0.1032449,-0.0736 0.1243634,-0.0742 0.2540124,-0.16526 0.392485,-0.22228 0.069826,-0.028 0.1395524,-0.0563 0.2129004,-0.0741 0.092904,-0.0289 0.1873285,-0.0514 0.2819176,-0.074 0.098361,-0.0238 0.196937,-0.0467 0.29538,-0.0702 0.087865,-0.0201 0.1763323,-0.0406 0.2664465,-0.047 0.088276,-0.004 0.176729,6e-5 0.2649045,0.005 0.090675,0.007 0.1815677,0.0157 0.2700129,0.038 0,0 -0.2894505,0.19823 -0.2894505,0.19823 z"
       inkscape:connector-curvature="0"
       style="stroke-width:0.26458332" />
    <path
       id="path857"
       d="m 6.7590283,288.85074 c -0.044086,-0.0736 -0.090829,-0.1456 -0.1378291,-0.21735 -0.047776,-0.0719 -0.1066237,-0.13543 -0.1718226,-0.19171 -0.085166,-0.0657 -0.1645819,-0.13771 -0.2419797,-0.21233 -0.08631,-0.093 -0.1703816,-0.18748 -0.2610974,-0.27632 -0.1086959,-0.10189 -0.2402457,-0.16741 -0.3784878,-0.21883 -0.131645,-0.0484 -0.2685124,-0.0788 -0.4045715,-0.11149 -0.1177909,-0.028 -0.234361,-0.0598 -0.3493526,-0.0978 -0.1231099,-0.0338 -0.2438043,-0.0753 -0.3684855,-0.10303 -0.1251053,-0.0307 -0.2533142,-0.0468 -0.3820438,-0.0466 -0.1375349,-2e-5 -0.2727486,0.0291 -0.4074961,0.0534 -0.1127213,0.0278 -0.2275245,0.044 -0.3431167,0.0532 -0.081788,0.0117 -0.1637403,0.0218 -0.2462541,0.0264 -0.054942,0.003 -0.1099539,0.003 -0.1649497,0.004 -0.031106,-4e-5 -0.062211,9e-5 -0.093316,1e-5 -0.1360398,1.6e-4 -0.1400889,0.0505 0.280393,-0.20681 0.00831,-0.005 0.019164,0.004 0.02882,0.005 0.013864,0.002 0.027811,0.003 0.041717,0.005 0.1858497,0.0131 0.3726722,0.004 0.5585992,-0.003 0,0 -0.2656115,0.1946 -0.2656115,0.1946 v 0 c -0.191643,0.007 -0.3837969,0.0198 -0.5755452,0.0101 -0.014613,-10e-4 -0.029205,-0.002 -0.043835,-0.003 -0.00951,-5.3e-4 -0.035758,0.005 -0.028553,-8e-4 0.2709013,-0.23402 0.1573956,-0.20803 0.2888292,-0.20668 0.030824,5e-5 0.061648,4.5e-4 0.092473,3.2e-4 0.053812,1.7e-4 0.1076479,-6.4e-4 0.1613694,-0.004 0.08159,-0.006 0.1626439,-0.0164 0.2439183,-0.0256 0.1141206,-0.0103 0.2268852,-0.0288 0.3387291,-0.0539 0.1361072,-0.0242 0.2728579,-0.0509 0.4117671,-0.0485 0.1303649,0.004 0.2598277,0.0209 0.3864705,0.0525 0.1248561,0.0302 0.2469242,0.0703 0.3704905,0.10524 0.1145881,0.0367 0.2308579,0.0672 0.3477125,0.0957 0.1364747,0.0334 0.2731987,0.0669 0.4049255,0.11658 0.1410771,0.0558 0.2765118,0.12387 0.3876082,0.22956 0.09068,0.0887 0.1748361,0.1832 0.2619809,0.27528 0.077881,0.0737 0.1581957,0.14424 0.2430512,0.20983 0.06698,0.059 0.1281333,0.12454 0.1768356,0.1997 0.047232,0.0716 0.091748,0.14498 0.1413725,0.21501 0,0 -0.3027151,0.17738 -0.3027151,0.17738 z"
       inkscape:connector-curvature="0"
       style="stroke-width:0.26458332" />
    <path
       id="path859"
       d="m 10.469888,287.47434 c -0.09651,0.0662 -0.186554,0.14106 -0.270448,0.22253 -0.122829,0.11438 -0.2154619,0.25225 -0.3000611,0.39582 -0.076262,0.13564 -0.1392015,0.27818 -0.2041752,0.41943 -0.060429,0.13203 -0.1191877,0.26482 -0.1806255,0.39638 -0.05858,0.10709 -0.1060992,0.21933 -0.1538631,0.33144 -0.029423,0.067 -0.053179,0.13602 -0.076613,0.20524 -0.012057,0.0306 -0.021897,0.0618 -0.028947,0.0939 -0.00378,0.13795 -0.2860005,0.31094 -0.3380944,0.16476 -0.00757,-0.0699 0.016679,-0.14054 0.034879,-0.20724 0.033055,-0.14192 0.071621,-0.28208 0.1199076,-0.41959 0.057579,-0.16021 0.1238377,-0.3174 0.2007224,-0.46929 0.075414,-0.15441 0.1742284,-0.29481 0.2817405,-0.42818 0.1098428,-0.13625 0.2381507,-0.25524 0.3680251,-0.37185 0.1439847,-0.12134 0.2928797,-0.23666 0.4391807,-0.35517 0.134335,-0.11467 0.276792,-0.21752 0.428281,-0.30804 0.205718,-0.13351 0.415017,-0.24916 0.646707,-0.32498 0.08707,-0.0324 0.179523,-0.0449 0.269033,-0.0684 0.07617,-0.0201 0.152896,-0.0383 0.228637,-0.0602 0,0 -0.276287,0.21238 -0.276287,0.21238 v 0 c -0.07578,0.0202 -0.151822,0.0394 -0.227917,0.0583 -0.08943,0.0207 -0.179959,0.0379 -0.266305,0.0698 -0.05294,0.0182 -0.105634,0.0369 -0.15682,0.0597 -0.103845,0.0462 -0.343027,0.18293 0.100428,-0.069 -0.153145,0.0894 -0.297579,0.18775 -0.432003,0.30406 -0.145518,0.11887 -0.294076,0.23393 -0.439109,0.3534 -0.129467,0.11574 -0.25884,0.2323 -0.3695242,0.36676 -0.1082741,0.13093 -0.2086385,0.26864 -0.2841559,0.42152 -0.078793,0.14968 -0.1447858,0.30606 -0.2024052,0.46506 -0.049141,0.13541 -0.087116,0.27395 -0.1165534,0.41498 -0.016288,0.0613 -0.034865,0.12442 -0.036653,0.18809 -2.91e-4,10e-4 -5.821e-4,0.003 -8.731e-4,0.004 4.233e-4,-10e-6 8.466e-4,-2e-5 0.0013,-4e-5 -0.1003146,0.0572 -0.200629,0.11446 -0.3009437,0.17169 -0.00389,0.002 0.00969,-0.003 0.011562,-0.007 0.00153,-0.003 6.086e-4,-0.007 9.261e-4,-0.0109 0.00348,-0.0352 0.01555,-0.0687 0.028018,-0.1015 0.028338,-0.0688 0.047954,-0.14118 0.079663,-0.20875 0.050486,-0.11213 0.095219,-0.22709 0.156936,-0.33387 0.06229,-0.1311 0.1201044,-0.26424 0.1806509,-0.39614 0.066206,-0.14211 0.1294908,-0.28576 0.2048814,-0.42331 0.083802,-0.14489 0.1724493,-0.28666 0.294717,-0.40306 0.080264,-0.0825 0.1677451,-0.15597 0.2594571,-0.22546 0,0 0.326737,-0.12784 0.326737,-0.12784 z"
       inkscape:connector-curvature="0"
       style="stroke-width:0.26458332" />
  </g>
</svg>
