<?xml version="1.0" encoding="UTF-8" standalone="no"?>
<!-- Created with Inkscape (http://www.inkscape.org/) -->

<svg
   xmlns:dc="http://purl.org/dc/elements/1.1/"
   xmlns:cc="http://creativecommons.org/ns#"
   xmlns:rdf="http://www.w3.org/1999/02/22-rdf-syntax-ns#"
   xmlns:svg="http://www.w3.org/2000/svg"
   xmlns="http://www.w3.org/2000/svg"
   xmlns:sodipodi="http://sodipodi.sourceforge.net/DTD/sodipodi-0.dtd"
   xmlns:inkscape="http://www.inkscape.org/namespaces/inkscape"
   width="64"
   height="64"
   viewBox="0 0 16.933333 16.933334"
   version="1.1"
   id="svg8"
   inkscape:version="0.92.1 r15371"
   sodipodi:docname="0_car_clouds.svg"
   inkscape:export-filename="/home/physt/undev/repos/deep_learning/workshop/tasks/commonlearningdata/cartooncats/0_car_clouds.png"
   inkscape:export-xdpi="96.000008"
   inkscape:export-ydpi="96.000008">
  <defs
     id="defs2" />
  <sodipodi:namedview
     id="base"
     pagecolor="#ffffff"
     bordercolor="#666666"
     borderopacity="1.0"
     inkscape:pageopacity="0.0"
     inkscape:pageshadow="2"
     inkscape:zoom="11.2"
     inkscape:cx="50.237003"
     inkscape:cy="32.732721"
     inkscape:document-units="mm"
     inkscape:current-layer="layer1"
     showgrid="false"
     inkscape:window-width="1920"
     inkscape:window-height="1016"
     inkscape:window-x="0"
     inkscape:window-y="27"
     inkscape:window-maximized="1"
     units="px" />
  <metadata
     id="metadata5">
    <rdf:RDF>
      <cc:Work
         rdf:about="">
        <dc:format>image/svg+xml</dc:format>
        <dc:type
           rdf:resource="http://purl.org/dc/dcmitype/StillImage" />
        <dc:title></dc:title>
      </cc:Work>
    </rdf:RDF>
  </metadata>
  <g
     inkscape:label="Layer 1"
     inkscape:groupmode="layer"
     id="layer1"
     transform="translate(0,-280.06665)">
    <path
       id="path788"
       d="m 2.8255944,290.89541 c 0.00764,0.1353 0.04998,0.26513 0.096475,0.39134 0.051474,0.14435 0.1260423,0.27783 0.2209785,0.39774 0.084418,0.10672 0.1908206,0.18963 0.3009595,0.26778 0.1220584,0.0794 0.2606334,0.11227 0.4025813,0.13329 0.1767469,0.0192 0.3498736,-0.0156 0.5196842,-0.0607 0.1743462,-0.0432 0.3382667,-0.11636 0.5014881,-0.18953 0.02608,-0.0125 0.052349,-0.0247 0.078238,-0.0376 0.025662,-0.0128 0.051016,-0.0262 0.0764,-0.0396 0.2815966,-0.14801 -0.3383737,0.20853 -0.093463,0.0537 0.01796,-0.0114 0.035704,-0.0231 0.053557,-0.0346 0.098474,-0.0609 0.1916925,-0.12967 0.2789473,-0.20572 0.099411,-0.0865 0.1798196,-0.19151 0.2579119,-0.29693 0.090273,-0.12541 0.174398,-0.25502 0.2536754,-0.38761 0.073275,-0.11663 0.1233947,-0.24378 0.1635434,-0.37484 0.030195,-0.10429 0.046163,-0.21205 0.046806,-0.32053 -5.821e-4,-0.0872 -0.017195,-0.17222 -0.050517,-0.2526 -0.029799,-0.0656 -0.077078,-0.11815 -0.1296109,-0.16612 -0.061773,-0.0503 -0.133766,-0.0834 -0.2075379,-0.11168 -0.1075568,-0.0323 -0.2184138,-0.0507 -0.3299764,-0.0618 -0.1408004,-0.011 -0.2821546,-0.0112 -0.4232966,-0.0118 -0.1440886,-0.004 -0.2876854,0.004 -0.4314422,0.0118 -0.1243344,0.008 -0.248951,0.0178 -0.3713933,0.0413 -0.1146916,0.0238 -0.2246696,0.0651 -0.3300484,0.11559 -0.153952,0.0911 0.084738,-0.0505 0.2016181,-0.11385 0.017468,-0.009 -0.032994,0.0222 -0.049303,0.0335 -0.05182,0.0361 -0.099841,0.075 -0.1475552,0.11628 -0.1148567,0.1057 -0.2113569,0.22824 -0.2948482,0.35962 -0.088007,0.14425 -0.1528181,0.30077 -0.1994779,0.4628 -0.028869,0.11619 -0.042667,0.23599 -0.040098,0.35565 0.00942,0.0871 0.071491,0.14161 0.1312188,0.19869 0,0 -0.291053,0.17903 -0.291053,0.17903 v 0 c -0.065233,-0.0638 -0.1338382,-0.12464 -0.1480127,-0.21978 -0.00416,-0.12341 0.01247,-0.247 0.039812,-0.36721 0.046353,-0.16456 0.1102333,-0.32396 0.1965579,-0.47192 0.081335,-0.13359 0.1757037,-0.25807 0.2880159,-0.36747 0.173297,-0.15682 0.3723248,-0.27743 0.5833774,-0.38007 0.1075896,-0.0474 0.2186826,-0.087 0.3346807,-0.10813 0.1230143,-0.0205 0.247655,-0.0302 0.3721354,-0.0367 0.1440711,-0.008 0.2880828,-0.0134 0.4324305,-0.01 0.1423302,9e-4 0.2849409,10e-4 0.4268451,0.0134 0.1140918,0.0127 0.2278274,0.032 0.3371564,0.0679 0.077301,0.0303 0.1530295,0.0666 0.2161985,0.12158 0.055701,0.0519 0.1051173,0.10915 0.1367761,0.17931 0.035249,0.0845 0.053662,0.17352 0.05538,0.26529 0.00175,0.1118 -0.01483,0.22298 -0.044433,0.33078 -0.039536,0.13381 -0.087954,0.26444 -0.1623893,0.38341 -0.078109,0.13375 -0.1624243,0.26367 -0.2516921,0.39024 -0.076068,0.10699 -0.1554519,0.21334 -0.2523479,0.30258 -0.086117,0.0786 -0.1787067,0.14996 -0.2781678,0.21109 -0.2246032,0.14612 -0.4571458,0.28104 -0.7005016,0.39347 -0.1638803,0.0729 -0.3296007,0.14246 -0.5045406,0.18472 -0.1733023,0.0435 -0.3502223,0.0737 -0.5293648,0.0506 -0.1461532,-0.0241 -0.2892634,-0.0602 -0.4132768,-0.14533 -0.1117629,-0.0811 -0.2205133,-0.16628 -0.3056506,-0.27642 -0.095152,-0.12399 -0.1719149,-0.26009 -0.2245844,-0.40769 -0.048628,-0.12911 -0.089469,-0.26088 -0.1111402,-0.39748 0,0 0.3122751,-0.15911 0.3122751,-0.15911 z"
       inkscape:connector-curvature="0"
       style="stroke-width:0.26458332" />
    <path
       id="path790"
       d="m 9.8117839,289.65214 c -0.129594,0.0515 -0.4845246,0.26357 0.028969,-0.0311 -0.076972,0.0481 -0.1537012,0.097 -0.2245781,0.15386 -0.064066,0.0543 -0.1091514,0.12477 -0.1452644,0.19962 -0.042913,0.0997 -0.0603,0.20621 -0.07133,0.31336 -0.016372,0.13483 0.00681,0.26834 0.032633,0.40025 0.025257,0.12125 0.067914,0.23737 0.116236,0.35104 0.039675,0.0977 0.094116,0.18815 0.1565971,0.27277 0.058367,0.0806 0.126239,0.15294 0.2043361,0.21451 0.077468,0.0623 0.1650254,0.10949 0.2534204,0.15413 0.102161,0.0462 0.214204,0.0633 0.324627,0.077 0.133006,0.0194 0.265781,0.005 0.397802,-0.0138 0.130166,-0.0233 0.256963,-0.0623 0.382779,-0.10237 0.01867,-0.008 0.03749,-0.0151 0.056,-0.0231 0.05251,-0.0229 0.057,-0.0257 0.10667,-0.0541 0.01714,-0.01 0.06828,-0.0396 0.05107,-0.03 -0.24718,0.13893 -0.324994,0.19184 -0.194886,0.106 0.09707,-0.0641 0.184601,-0.14046 0.26593,-0.22328 0.07371,-0.0724 0.127079,-0.15887 0.174881,-0.24948 0.04312,-0.0845 0.06975,-0.17438 0.0842,-0.26773 0.01382,-0.0998 0.012,-0.20011 -4.24e-4,-0.29984 -0.0174,-0.0918 -0.04344,-0.18193 -0.07273,-0.27061 -0.03793,-0.0975 -0.09473,-0.18543 -0.149348,-0.27405 -0.05771,-0.0857 -0.122991,-0.16584 -0.198829,-0.236 -0.07752,-0.0651 -0.159141,-0.12402 -0.248033,-0.17235 -0.07823,-0.047 -0.161758,-0.0829 -0.244357,-0.12117 -0.07637,-0.0382 -0.156793,-0.0589 -0.240988,-0.0697 -0.114155,-0.006 -0.225047,0.0211 -0.335253,0.0468 -0.159385,0.0355 -0.315346,0.0818 -0.4683526,0.13849 -0.095114,0.0403 -0.049159,0.0202 -0.1379524,0.0603 0,0 0.2683203,-0.21256 0.2683203,-0.21256 v 0 c 0.088302,-0.0381 0.042326,-0.0189 0.1380237,-0.0575 0.154394,-0.0553 0.312189,-0.099 0.471985,-0.13602 0.113838,-0.0261 0.229051,-0.0524 0.346677,-0.0393 0.0861,0.0139 0.168476,0.0384 0.246576,0.078 0.08325,0.0383 0.16649,0.0765 0.245233,0.12372 0.09002,0.0512 0.173208,0.1129 0.252244,0.17975 0.07698,0.0732 0.144172,0.15564 0.202889,0.24422 0.05606,0.0908 0.11437,0.18082 0.15446,0.28028 0.03071,0.0906 0.05662,0.18292 0.07529,0.27677 0.01412,0.10221 0.0171,0.2052 0.0052,0.30791 -0.01236,0.0969 -0.03715,0.18995 -0.07954,0.27845 -0.04733,0.0933 -0.09784,0.18404 -0.172124,0.25919 -0.0805,0.0849 -0.166487,0.1641 -0.263412,0.2303 -0.157311,0.10555 -0.04801,0.0336 -0.393236,0.23593 -0.06933,0.0406 -0.141708,0.0759 -0.218136,0.10114 -0.126309,0.0391 -0.253816,0.0766 -0.384769,0.0966 -0.134554,0.0173 -0.269337,0.0287 -0.404382,0.007 -0.113779,-0.0155 -0.2287512,-0.0341 -0.3326462,-0.0857 -0.090191,-0.0461 -0.1793467,-0.0949 -0.2576621,-0.15984 -0.079417,-0.0645 -0.1491064,-0.13922 -0.2090015,-0.22233 -0.063413,-0.0873 -0.1193559,-0.17991 -0.1595633,-0.28031 -0.048807,-0.11602 -0.091972,-0.23455 -0.1182026,-0.35798 -0.026915,-0.13452 -0.05117,-0.27085 -0.037986,-0.4086 0.00911,-0.10979 0.024355,-0.21865 0.06374,-0.32232 0.032948,-0.0792 0.077024,-0.15333 0.1387417,-0.21385 0.069311,-0.0608 0.1472321,-0.10969 0.2244381,-0.15987 0.1863815,-0.10794 0.3695591,-0.22503 0.5681069,-0.31031 0,0 -0.2751153,0.21742 -0.2751153,0.21742 z"
       inkscape:connector-curvature="0"
       style="stroke-width:0.26458332" />
    <path
       id="path792"
       d="m 6.37473,290.77835 c 0.08602,-7.7e-4 0.1714312,0.0103 0.2571054,0.0166 0.1020733,0.007 0.2043033,-0.006 0.3056501,-0.0168 0.1109207,-0.0153 0.2225543,-0.0261 0.3334261,-0.0418 0.098193,-0.0109 0.195857,-0.025 0.2938089,-0.0378 0.078947,-0.0116 0.1590358,-0.009 0.2381089,-0.0174 0.079699,-0.0111 0.1600885,-0.0154 0.2404414,-0.0181 0.075896,0.002 0.1505021,-0.005 0.2255541,-0.0149 0.059698,-0.007 0.1197274,-0.01 0.1797664,-0.011 0.055276,-0.003 0.109664,-0.0145 0.1649902,-0.0188 0.061686,-1.7e-4 0.1218956,-0.0133 0.1828517,-0.0211 0.04975,-0.006 0.099889,-0.007 0.1499314,-0.008 0.036577,-4.3e-4 0.073155,-3.5e-4 0.109733,-1.7e-4 0.029611,-0.0121 0.060457,-0.0176 0.091959,-0.0216 0.024842,-0.003 0.049994,-0.002 0.074995,-0.002 0.028567,0.003 0.052935,-0.0118 0.08072,-0.0173 0.020873,-0.009 0.049511,0.002 0.066508,-0.0131 0.01452,-0.006 0.00733,-0.003 0.021585,-0.009 0,0 -0.2773169,0.21741 -0.2773169,0.21741 v 0 c -0.014846,0.005 -0.00721,0.003 -0.022923,0.008 -0.023032,-2.3e-4 -0.04525,0.005 -0.067494,0.0106 -0.028411,0.008 -0.055971,0.0136 -0.085744,0.0112 -0.024064,4.5e-4 -0.048085,0.002 -0.071805,0.006 -0.031563,0.006 -0.06219,0.0178 -0.094639,0.0169 -0.036299,5e-5 -0.072601,-1.6e-4 -0.1088956,5.3e-4 -0.048995,9.5e-4 -0.09799,0.004 -0.1465636,0.0104 -0.060997,0.009 -0.121858,0.0172 -0.183466,0.02 -0.055537,0.006 -0.110775,0.0174 -0.1668714,0.0172 -0.059124,0.002 -0.1182238,0.005 -0.1769126,0.013 -0.07524,0.009 -0.1505159,0.0109 -0.2262309,0.0118 -0.080075,0.004 -0.1598848,0.01 -0.2394728,0.0196 -0.07889,0.006 -0.1581692,0.007 -0.2365933,0.0181 -0.097386,0.0132 -0.19495,0.0244 -0.292444,0.0367 -0.1111427,0.0137 -0.2222119,0.0279 -0.333426,0.0409 -0.103137,0.0114 -0.2072857,0.0219 -0.3110421,0.0128 -0.086262,-0.007 -0.1725406,-0.0167 -0.2592242,-0.0118 0,0 0.2839321,-0.20629 0.2839321,-0.20629 z"
       inkscape:connector-curvature="0"
       style="stroke-width:0.26458332" />
    <path
       id="path794"
       d="m 12.372123,290.41448 c 0.06736,-0.0301 0.140971,-0.0385 0.211585,-0.0571 0.06031,-0.0155 0.121995,-0.0232 0.183171,-0.0343 0.05944,-0.006 0.117509,-0.0189 0.176417,-0.0285 0.05816,-0.009 0.117133,-0.0104 0.17588,-0.0116 0.04879,-6.4e-4 0.09759,-7.2e-4 0.146388,-7.7e-4 0.03749,8e-5 0.07498,-2e-5 0.112466,9e-5 0.03711,-2e-4 0.07422,2e-5 0.111328,1.1e-4 0.0336,3e-5 0.0672,-3.4e-4 0.100793,-3.7e-4 0.0149,0.003 0.03221,-0.004 0.04689,-7e-5 0.0092,0.002 0.01725,0.008 0.02608,0.0113 0.01954,0.008 0.04058,0.0111 0.06157,0.0124 0.0059,-0.003 0.01395,0.003 0.01991,1.9e-4 0.0051,-0.003 0.01444,-0.0171 0.0095,-0.0142 -0.284241,0.16264 -0.373303,0.25125 -0.28718,0.1664 0.0097,-0.0178 0.02159,-0.0318 0.02608,-0.0523 0.0063,-0.0417 0.0052,-0.0843 0.0058,-0.12643 4.76e-4,-0.0628 2.22e-4,-0.12567 5.29e-4,-0.1885 1.14e-4,-0.0753 9.9e-5,-0.15066 2.91e-4,-0.22598 -9.7e-5,-0.0707 -6.08e-4,-0.14143 -4.76e-4,-0.21215 -2.91e-4,-0.0601 -3.17e-4,-0.12016 -2.91e-4,-0.18024 0.0036,-0.0667 -0.006,-0.13265 -0.01303,-0.19873 -0.0067,-0.0675 -0.0086,-0.13539 -0.01001,-0.20321 -0.0041,-0.0679 0.0059,-0.13512 0.01307,-0.20244 0.0066,-0.0627 0.0084,-0.12583 0.0094,-0.18886 4.24e-4,-0.053 9.79e-4,-0.10598 3.71e-4,-0.15897 -0.0035,-0.0403 -0.01362,-0.0795 -0.01894,-0.11953 -0.0094,-0.0297 -0.01458,-0.061 -0.02485,-0.0904 -0.01048,-0.0299 -0.02135,-0.0595 -0.03304,-0.089 -0.01005,-0.0263 -0.02027,-0.0535 -0.03383,-0.0782 -0.01265,-0.0237 -0.02502,-0.0481 -0.04125,-0.0695 -0.01376,-0.0194 -0.02613,-0.043 -0.04545,-0.0575 -0.01742,-0.0207 -0.03907,-0.0366 -0.05995,-0.0537 -0.02625,-0.0142 -0.05012,-0.0315 -0.07785,-0.0428 -0.02751,-0.0162 -0.05813,-0.0265 -0.08805,-0.0373 -0.03458,-0.01 -0.06724,-0.0245 -0.102293,-0.0328 -0.04114,-0.003 -0.08044,-0.0128 -0.120798,-0.0204 -0.04576,-0.008 -0.09223,-0.009 -0.138538,-0.0101 -0.04157,-4.5e-4 -0.08315,-2.1e-4 -0.124722,-2e-4 -0.04157,-1.3e-4 -0.08315,2e-4 -0.124719,2.1e-4 -0.04567,8e-5 -0.09134,-4.5e-4 -0.137009,-2.2e-4 -0.04871,-0.002 -0.09596,5.5e-4 -0.143892,0.009 -0.04969,0.0101 -0.100558,0.0123 -0.151098,0.0141 -0.04873,-9.2e-4 -0.09585,9e-4 -0.143586,0.0101 -0.04715,0.009 -0.09514,0.012 -0.143046,0.0136 -0.04797,-0.004 -0.09357,0.006 -0.140424,0.014 -0.04862,0.008 -0.0979,0.009 -0.147019,0.01 -0.04549,0.0113 -0.09173,0.0177 -0.138392,0.0213 -0.04246,0.003 -0.085,0.003 -0.127533,0.003 -0.03982,-1.2e-4 -0.07963,-2.3e-4 -0.119448,3e-5 -0.03594,0.005 -0.06816,-0.006 -0.102514,-0.014 -0.03814,-0.004 -0.06896,-0.0217 -0.09745,-0.0465 -0.02317,-0.0239 -0.04728,-0.0476 -0.06609,-0.0752 -0.0222,-0.0334 -0.04707,-0.0647 -0.06975,-0.0978 -0.02663,-0.0388 -0.05317,-0.0777 -0.07872,-0.11724 -0.03295,-0.045 -0.05965,-0.0939 -0.08921,-0.14105 -0.02982,-0.0439 -0.05704,-0.0895 -0.08167,-0.13642 -0.02676,-0.0465 -0.05394,-0.0928 -0.08067,-0.13942 -0.02556,-0.0485 -0.04601,-0.0997 -0.065,-0.15112 -0.01863,-0.0561 -0.03695,-0.11244 -0.05829,-0.16758 -0.021,-0.0552 -0.0399,-0.11113 -0.05973,-0.16676 -0.01472,-0.0515 -0.03585,-0.10053 -0.05809,-0.14913 -0.02088,-0.0415 -0.03809,-0.0847 -0.06154,-0.12483 -0.02308,-0.0452 -0.05302,-0.0861 -0.08558,-0.12481 -0.031435,-0.0403 -0.056151,-0.0845 -0.090673,-0.12235 -0.029314,-0.0372 -0.064654,-0.069 -0.1037865,-0.0954 -0.030961,-0.0261 -0.065148,-0.0448 -0.1006049,-0.0635 -0.036243,-0.0143 -0.068917,-0.0353 -0.1030851,-0.0537 -0.035077,-0.0188 -0.072981,-0.0301 -0.1095523,-0.0451 -0.035964,-0.0169 -0.076007,-0.0166 -0.1134153,-0.0273 -0.042488,-0.0135 -0.087521,-0.013 -0.1304985,-0.0232 -0.047077,-0.0119 -0.095378,-0.0165 -0.1437251,-0.019 -0.057157,-0.002 -0.1143702,-0.002 -0.171558,-0.002 -0.066221,-0.003 -0.1314921,0.009 -0.1971749,0.0156 -0.072594,0.006 -0.1454346,0.007 -0.2182236,0.008 -0.07341,-0.003 -0.1458169,0.005 -0.2186408,0.0123 -0.076196,0.004 -0.1515094,0.0141 -0.2272421,0.0229 -0.082311,0.009 -0.1650662,0.0104 -0.247744,0.0115 -0.082254,10e-4 -0.1640556,0.0128 -0.2461069,0.019 -0.074287,0.004 -0.1487324,0.005 -0.2231287,0.005 -0.071987,-5.8e-4 -0.1433589,-0.0128 -0.215183,-0.0182 -0.068316,-0.004 -0.1368028,-0.005 -0.2052391,-0.005 -0.069341,-0.002 -0.1389174,0.004 -0.2079355,-0.004 -0.065728,-0.009 -0.1317493,-0.0146 -0.1980002,-0.0175 -0.063405,-0.002 -0.1268526,-0.002 -0.1902843,-0.002 -0.070114,3e-5 -0.1402281,-1e-5 -0.2103422,2.3e-4 -0.06602,-4e-5 -0.13204,-1e-5 -0.1980602,1.9e-4 -0.062799,0.002 -0.1262054,-0.005 -0.1885132,0.004 -0.06104,0.012 -0.1238335,0.0103 -0.1847681,0.0216 -0.06275,0.0109 -0.1258197,0.0175 -0.1886677,0.0277 -0.08605,0.0187 -0.1715379,0.0403 -0.2557492,0.0661 -0.1013772,0.0361 -0.2034582,0.07 -0.3049736,0.10583 -0.1039042,0.0403 -0.2061218,0.0835 -0.3062769,0.13234 -0.091279,0.0463 -0.1837332,0.0904 -0.2734527,0.13974 -0.1249224,0.0667 -0.4834284,0.27462 0.045648,-0.0291 -0.077304,0.049 -0.1498285,0.10482 -0.223085,0.15951 -0.071913,0.0503 -0.132444,0.11387 -0.196996,0.17274 -0.067527,0.0575 -0.1261436,0.12389 -0.1861328,0.18888 -0.057458,0.054 -0.1075595,0.11473 -0.1604161,0.17304 -0.045621,0.0487 -0.095979,0.0925 -0.1460767,0.13652 -0.044497,0.0343 -0.083961,0.0741 -0.1245465,0.1127 -0.052524,0.0436 -0.1034058,0.089 -0.1532433,0.13563 -0.054106,0.0521 -0.1097949,0.10242 -0.1627602,0.15571 -0.0539,0.0513 -0.099192,0.11005 -0.141419,0.17103 -0.033355,0.0562 -0.079937,0.10216 -0.1219513,0.15163 -0.033771,0.0407 -0.067139,0.0817 -0.106746,0.11689 -0.031671,0.0308 -0.066254,0.0579 -0.1026589,0.0829 -0.1287641,0.0871 -0.2640412,0.16713 -0.4095645,0.22145 -0.031994,0.004 -0.060222,0.0168 -0.090739,0.0252 -0.030224,0.007 -0.06097,0.009 -0.091828,0.009 -0.023826,0.0143 -0.049926,0.0193 -0.077262,0.0218 -0.032175,-0.003 -0.059482,0.009 -0.089678,0.0162 -0.029676,0.009 -0.062434,0.003 -0.090923,0.0144 -0.032089,0.0108 -0.065456,0.0151 -0.09909,0.0172 -0.030983,-0.002 -0.057617,0.0134 -0.087783,0.0185 -0.03365,0.003 -0.064277,0.0168 -0.097364,0.0234 -0.03059,0.009 -0.059332,0.0219 -0.091678,0.0262 -0.030093,-9.8e-4 -0.054142,0.0161 -0.082861,0.0222 -0.00905,0.006 -0.024321,0.001 -0.033585,0.005 -0.00307,0.001 -0.00986,0.009 -0.00693,0.007 0.098869,-0.0551 0.3916813,-0.22702 0.295191,-0.16783 -0.1018736,0.0625 -0.2075813,0.1185 -0.311372,0.17775 -0.11412693,0.0426 -0.010724,0.005 0.2838016,-0.16366 0.00325,-0.002 -0.0066,0.004 -0.00983,0.005 -0.010157,0.006 -0.016157,0.008 -0.023772,0.0173 -0.014169,0.0145 -0.029609,0.0277 -0.043069,0.0429 -0.016856,0.0207 -0.027807,0.0422 -0.035817,0.0675 -0.015449,0.039 -0.025782,0.0801 -0.035539,0.12084 -0.012928,0.059 -0.014882,0.11959 -0.016832,0.17975 -0.0066,0.074 -0.01567,0.14764 -0.020287,0.22181 -0.0033,0.0882 -0.0074,0.17669 -0.00256,0.26489 0.00907,0.0844 0.012547,0.16938 0.020806,0.25386 0.00895,0.0786 0.021159,0.15677 0.037505,0.23412 0.01671,0.0688 0.026174,0.13862 0.031607,0.20907 0.00353,0.0623 0.00363,0.12465 0.00372,0.187 0.00134,0.0533 -0.00234,0.10683 0.00208,0.16 0.00811,0.0477 0.014843,0.0955 0.018527,0.14378 0.00256,0.0438 0.00343,0.0878 0.00365,0.13168 -0.002,0.037 2.234e-4,0.0728 0.0089,0.1088 0.00558,0.0316 0.01889,0.0606 0.03383,0.0887 0.012996,0.0284 0.028275,0.0561 0.045856,0.082 0.016728,0.0298 0.044298,0.0441 0.070758,0.0629 0.032023,0.0195 0.063614,0.0394 0.097735,0.0551 0.045123,0.0189 0.091817,0.0327 0.1387498,0.0465 0.072819,0.0249 0.1488749,0.0407 0.2248657,0.0524 0.1055946,0.0128 0.2122477,0.0179 0.3184936,0.0131 0.1327299,-0.008 0.2648263,-0.0264 0.3956775,-0.0495 0.1065364,-0.0198 0.2122527,-0.0445 0.3169074,-0.0726 0.080143,-0.0214 0.162302,-0.0329 0.2423908,-0.0546 0.042374,-0.008 0.083881,-0.019 0.1254713,-0.0299 0,0 -0.2757657,0.21102 -0.2757657,0.21102 v 0 c -0.041904,0.0103 -0.083862,0.0204 -0.125894,0.0301 -0.080062,0.0188 -0.1613824,0.0319 -0.2407738,0.0536 -0.1045778,0.0262 -0.2096256,0.0512 -0.3161463,0.0683 -0.1323848,0.0214 -0.2655025,0.0411 -0.3996429,0.0467 -0.108234,0.002 -0.216809,-0.002 -0.3240743,-0.0174 -0.077735,-0.0131 -0.1551762,-0.0296 -0.2301335,-0.0543 -0.048412,-0.0148 -0.097189,-0.0286 -0.143071,-0.0505 -0.034682,-0.0179 -0.068128,-0.0378 -0.100815,-0.0591 -0.030867,-0.0202 -0.058202,-0.0426 -0.078309,-0.0742 -0.01767,-0.0272 -0.033914,-0.0556 -0.04736,-0.085 -0.016352,-0.0305 -0.031394,-0.0623 -0.03805,-0.0966 -0.00917,-0.0386 -0.015944,-0.0762 -0.012283,-0.11621 -4.63e-5,-0.0433 3.148e-4,-0.0867 -0.001982,-0.12995 -0.002914,-0.0479 -0.008473,-0.0954 -0.0176218,-0.14254 -0.007483,-0.0542 -0.001582,-0.10927 -0.003027,-0.1639 5.011e-5,-0.0617 2.8839e-4,-0.1234 -0.002476,-0.18502 -0.003952,-0.0691 -0.0119028,-0.13778 -0.0282593,-0.20515 -0.0171135,-0.0784 -0.0293175,-0.15794 -0.0386522,-0.23763 -0.009875,-0.0848 -0.0107836,-0.17055 -0.0212222,-0.25542 -0.006043,-0.0892 -0.001754,-0.17882 1.7751e-4,-0.26817 0.003412,-0.0738 0.010173,-0.14715 0.0198848,-0.22037 7.6465e-4,-0.0618 0.002185,-0.12405 0.0126934,-0.18516 0.008273,-0.0423 0.0191857,-0.0839 0.031256,-0.12516 0.0120986,-0.0244 0.0109744,-0.0538 0.0319928,-0.0738 0.003505,-0.007 0.00562,-0.0147 0.0104674,-0.0207 0.004342,-0.005 0.0125514,-0.007 0.0168732,-0.0121 0.018961,-0.0238 -0.00811,-0.001 0.012896,-0.0172 0.020165,-0.015 -0.00353,0.005 0.013128,-0.0177 0.00431,-0.006 0.011189,-0.009 0.017467,-0.013 0.2824895,-0.16278 0.2073856,-0.12292 0.3206364,-0.18286 -0.68838701,0.39633 -0.083395,0.0474 0.017527,-0.008 0.010813,-0.006 0.031758,-6e-5 0.042493,-0.009 0.027521,-0.0101 0.055122,-0.0157 0.084117,-0.0198 0.030456,-0.009 0.059504,-0.0218 0.090919,-0.027 0.032349,-0.009 0.064643,-0.0173 0.097785,-0.023 0.029838,-0.008 0.059132,-0.0149 0.090348,-0.0153 0.032705,-0.005 0.064505,-0.0125 0.096461,-0.0208 0.030422,-0.003 0.060822,-0.007 0.090171,-0.0154 0.030334,-0.008 0.061137,-0.009 0.092119,-0.0136 0.026573,-0.006 0.051767,-0.0186 0.079447,-0.0184 0.029257,-0.002 0.058497,-0.006 0.086265,-0.0163 0.029326,-0.0105 0.060342,-0.0144 0.089048,-0.0268 0.017488,-0.007 0.034886,-0.0145 0.05227,-0.0219 0.00574,-0.002 0.022449,-0.0108 0.017072,-0.008 -0.2554056,0.15019 -0.3798869,0.21354 -0.262554,0.15344 0.036032,-0.0253 0.07509,-0.0469 0.1046631,-0.0801 0.041074,-0.033 0.077322,-0.0698 0.1096472,-0.11161 0.041241,-0.0499 0.088964,-0.0943 0.1245008,-0.14861 0.040775,-0.0633 0.085503,-0.12434 0.1392956,-0.17729 0.052622,-0.0538 0.1070064,-0.10518 0.1618048,-0.15666 0.049159,-0.0468 0.09857,-0.0936 0.1514194,-0.13624 0.043799,-0.0354 0.078184,-0.0813 0.1252903,-0.11286 0.049723,-0.0443 0.1008888,-0.0869 0.1484175,-0.13358 0.053915,-0.058 0.1023625,-0.1205 0.1608833,-0.17396 0.062478,-0.0633 0.1174599,-0.13393 0.1855886,-0.19185 0.066567,-0.0569 0.1239588,-0.12378 0.1954527,-0.17513 0.07339,-0.0552 0.146708,-0.11048 0.2222428,-0.16275 0.1815061,-0.10569 0.3617249,-0.21365 0.5470158,-0.31263 0.09062,-0.0476 0.1823302,-0.0932 0.2741964,-0.13835 0.1007187,-0.0477 0.2038657,-0.0894 0.3081081,-0.12881 0.1023202,-0.0351 0.2040231,-0.072 0.3069788,-0.10522 0.086036,-0.0242 0.1722385,-0.0483 0.2602714,-0.0642 0.063032,-0.0104 0.1266825,-0.0162 0.1895512,-0.0276 0.061982,-0.007 0.1241277,-0.0118 0.1859272,-0.0203 0.063413,-0.003 0.1269429,-6.7e-4 0.1904082,-10e-4 0.065883,1.9e-4 0.1317654,2.1e-4 0.1976483,9e-5 0.070043,1.5e-4 0.1400857,-6e-5 0.2101289,2e-5 0.063946,1e-5 0.1279411,-1.9e-4 0.1918134,0.003 0.066275,0.004 0.1321181,0.0117 0.1981319,0.0186 0.068836,0.003 0.1378077,6.9e-4 0.2067091,0.002 0.068809,8.2e-4 0.1376749,0.002 0.2062896,0.008 0.071015,0.006 0.1418206,0.0178 0.2132872,0.0158 0.073914,-7.4e-4 0.1478915,-0.002 0.2216266,-0.007 0.08215,-0.006 0.1640925,-0.0173 0.2466182,-0.0168 0.082155,-0.002 0.1644189,-0.005 0.24605,-0.0146 0.07577,-0.009 0.1516462,-0.0163 0.2277396,-0.0226 0.073453,-0.007 0.1467718,-0.012 0.2206681,-0.01 0.072321,-10e-4 0.1447508,-0.003 0.2167334,-0.0106 0.0665,-0.007 0.1328542,-0.0164 0.1999625,-0.0131 0.057921,1.9e-4 0.1158928,-1e-4 0.1737384,0.003 0.04924,0.004 0.097968,0.0115 0.1462006,0.0224 0.044224,0.006 0.088447,0.0123 0.1316548,0.024 0.039756,0.007 0.078852,0.0152 0.1161404,0.0312 0.038849,0.0135 0.07584,0.0308 0.1125212,0.0493 0.033355,0.0192 0.067727,0.0359 0.1022303,0.0529 0.03707,0.0188 0.07028,0.0426 0.103234,0.0678 0.0396,0.0298 0.07669,0.063 0.107312,0.10221 0.03421,0.0386 0.05954,0.0829 0.09132,0.1234 0.03364,0.0403 0.06397,0.0833 0.08853,0.12973 0.02444,0.041 0.04289,0.0848 0.06303,0.12795 0.02325,0.0494 0.04463,0.0996 0.05922,0.15231 0.01939,0.0554 0.0394,0.11052 0.05905,0.1658 0.02183,0.0552 0.04081,0.11158 0.05886,0.16808 0.01819,0.0496 0.03881,0.0985 0.06241,0.14579 0.02707,0.0469 0.05427,0.0938 0.08162,0.14056 0.02398,0.0464 0.0512,0.091 0.08,0.13452 0.02861,0.0474 0.05684,0.0951 0.08952,0.13985 0.02554,0.0391 0.0514,0.0781 0.07832,0.11621 0.02311,0.0328 0.04794,0.0643 0.07084,0.0972 0.01732,0.0245 0.03891,0.046 0.06045,0.0667 0.02717,0.0194 0.05587,0.0281 0.08874,0.0333 0.03257,0.008 0.06469,0.009 0.09815,0.007 0.03959,4e-4 0.07918,4.8e-4 0.118772,1.2e-4 0.04179,-5e-4 0.08364,-10e-4 0.125251,-0.005 0.04671,-0.005 0.09263,-0.016 0.139549,-0.0192 0.04833,-0.002 0.09663,-0.005 0.144257,-0.014 0.04746,-0.008 0.09486,-0.0104 0.142972,-0.0107 0.04718,-0.003 0.0941,-0.008 0.140561,-0.0168 0.04842,-0.007 0.09719,-0.004 0.145921,-0.007 0.0499,-0.003 0.09951,-0.008 0.148743,-0.0167 0.04894,-0.006 0.09806,-0.005 0.147312,-0.005 0.04588,2.3e-4 0.09176,-2.9e-4 0.137643,-2.6e-4 0.04151,-5e-5 0.08301,1.8e-4 0.124517,-8e-5 0.04166,-9e-5 0.08331,-6e-5 0.124953,0.001 0.04759,0.002 0.09525,0.005 0.14199,0.0147 0.04095,0.008 0.08239,0.0127 0.123062,0.0221 0.03486,0.0111 0.06933,0.0235 0.103879,0.0354 0.0306,0.0119 0.06151,0.0228 0.09024,0.039 0.02849,0.0147 0.05554,0.0323 0.0822,0.05 0.02193,0.017 0.04252,0.0356 0.06185,0.0556 0.01844,0.0193 0.03455,0.0409 0.04864,0.0635 0.01637,0.0232 0.03065,0.048 0.04357,0.0733 0.01428,0.0261 0.02515,0.0548 0.03578,0.0825 0.01119,0.0298 0.02333,0.059 0.03335,0.0891 0.0125,0.0316 0.01579,0.0663 0.02828,0.0981 0.0045,0.0416 0.0137,0.0824 0.01997,0.12371 -5.03e-4,0.0533 3.44e-4,0.10653 -5.56e-4,0.15979 -0.0012,0.0641 -0.0036,0.12818 -0.009,0.19208 -0.0068,0.0661 -0.01841,0.13189 -0.01451,0.19852 6.09e-4,0.067 0.002,0.13401 0.0081,0.20075 0.0067,0.0671 0.01844,0.13386 0.01543,0.20151 10e-6,0.0602 -8e-6,0.12036 -2.91e-4,0.18055 1.11e-4,0.0709 -3.97e-4,0.14175 -4.76e-4,0.21263 2.11e-4,0.0752 2.07e-4,0.15039 4.23e-4,0.22559 3.97e-4,0.0626 3.7e-4,0.12528 8.2e-4,0.18793 3.71e-4,0.0435 2.91e-4,0.087 -10e-4,0.13047 -0.0025,0.0206 -0.0018,0.0495 -0.02095,0.062 -0.0381,0.13563 -0.21812,0.21953 -0.351657,0.1965 -0.02225,-0.004 -0.04376,-0.0108 -0.06503,-0.0183 -0.02148,-0.005 -0.04436,-4.5e-4 -0.06648,-0.002 -0.03325,-4e-5 -0.0665,-4e-4 -0.09976,-3.7e-4 -0.03721,8e-5 -0.07441,3.1e-4 -0.11162,7e-5 -0.03744,5e-5 -0.07487,-1.6e-4 -0.112311,-2.5e-4 -0.04823,-2.1e-4 -0.09647,-5e-4 -0.144696,7.2e-4 -0.0578,0.002 -0.115664,0.005 -0.172634,0.0155 -0.05852,0.0106 -0.117206,0.0193 -0.175915,0.0288 -0.06058,0.0116 -0.122048,0.0185 -0.181541,0.0354 -0.07211,0.0159 -0.143668,0.033 -0.212717,0.0598 0,0 0.277974,-0.21403 0.277974,-0.21403 z"
       inkscape:connector-curvature="0"
       style="stroke-width:0.26458332" />
    <path
       id="path796"
       d="m 5.4608774,286.76677 c -0.064309,0.0546 -0.1284121,0.10922 -0.1977736,0.15732 -0.070559,0.047 -0.1427639,0.0915 -0.2150399,0.13576 -0.1662107,0.0964 -0.3282484,0.20231 -0.5051078,0.27826 -0.055981,0.0329 -0.118165,0.0542 -0.1737638,0.0875 -0.00779,0.004 -0.01556,0.008 -0.023381,0.0123 -0.016939,0.009 -0.066658,0.0372 -0.050099,0.0277 0.487653,-0.27909 0.3208927,-0.18536 0.2150747,-0.12066 -0.1391663,0.0822 -0.2789883,0.16314 -0.4192455,0.24361 -0.010472,0.006 -0.042515,0.0229 -0.03207,0.0168 0.089474,-0.0518 0.1794544,-0.1028 0.2691818,-0.1542 -0.050222,0.0302 -0.098858,0.0629 -0.1472145,0.0959 -0.042117,0.0271 -0.082597,0.0562 -0.1195906,0.09 -0.032895,0.0273 -0.064928,0.0556 -0.096404,0.0846 -0.020391,0.0201 -0.041282,0.0404 -0.059371,0.0626 -0.00982,0.0107 -0.013354,0.0229 -0.016018,0.0367 0.00286,0.041 -0.013772,-0.002 3.175e-4,0.017 0.016822,0.009 0.036194,0.009 0.054911,0.0101 0.036854,0.0148 0.076388,0.019 0.1156068,0.0221 0.047201,0.005 0.093313,0.0166 0.1407043,0.0218 0.048352,6.6e-4 0.094751,0.0142 0.142381,0.0211 0.049009,0.002 0.095809,0.0169 0.1443146,0.0234 0.050893,0.004 0.1009775,0.008 0.151297,0.0163 0.057658,0.0101 0.1162534,0.0125 0.1746472,0.0141 0.059483,10e-4 0.1189805,10e-4 0.1784718,9.6e-4 0.057502,-0.004 0.1137335,0.01 0.1706287,0.0158 0.055998,0.006 0.1122844,0.007 0.1685158,0.007 0.047546,-0.01 0.095422,-0.0168 0.1438037,-0.0206 0.047891,6.9e-4 0.09373,-0.0129 0.1408718,-0.0196 0.040947,-0.007 0.082531,-0.007 0.1239049,-0.007 0.037876,-0.003 0.077346,0.006 0.1140278,-0.005 0.036718,-0.011 0.07511,-0.0147 0.1132017,-0.0172 0.040268,-0.0118 0.080989,-0.0198 0.1214032,-0.0311 0.039174,-0.007 0.076059,-0.0203 0.1142717,-0.0309 0.040904,-0.009 0.082958,-0.009 0.1246063,-0.01 0.046789,-5.1e-4 0.093581,-2.9e-4 0.1403715,-1.8e-4 0.05295,2.9e-4 0.1059006,3.4e-4 0.1588516,2.9e-4 0.049416,-0.001 0.097852,-0.0137 0.1471584,-0.0189 0.044683,-0.004 0.089381,-0.008 0.1337477,-4.2e-4 0.049579,0.01 0.099803,0.0148 0.1502031,0.0175 0.053926,0.002 0.1079106,0.002 0.161871,0.002 0.05837,-0.002 0.1160876,-0.0133 0.1743806,-0.0185 0.071667,-0.004 0.1435081,-0.005 0.2152837,-0.005 0.087819,1.2e-4 0.1756379,1.1e-4 0.263457,9e-5 0.080268,-5e-5 0.1598401,-0.013 0.2399268,-0.0182 0.078681,-0.004 0.1574827,-0.005 0.2362637,-0.006 0.072783,-5e-4 0.1455674,-1.3e-4 0.2183516,-2.9e-4 0.06015,-0.009 0.1204939,-0.0164 0.1812044,-0.0207 0.064365,10e-4 0.1274617,-0.008 0.1911408,-0.0154 0.064957,-0.008 0.1304394,-0.01 0.195792,-0.0109 0.059537,-0.003 0.1196726,0.004 0.1787006,-0.005 0.054356,-0.009 0.1084995,-0.0149 0.1623886,-0.0261 0.051733,-0.0117 0.1018426,-0.0277 0.1546426,-0.0351 0.039685,-0.0117 0.075337,-0.0327 0.1151056,-0.0442 0.028347,-0.002 0.04878,-0.0194 0.074585,-0.029 -0.4672531,0.41284 -0.3672618,0.1995 -0.2568993,0.14309 0.00917,-0.01 0.023519,-0.0122 0.029867,-0.0236 8.466e-4,-0.0176 0.010668,-0.0286 0.019222,-0.0423 0.00539,-0.009 0.00785,-0.0185 0.00867,-0.0291 0.00296,-0.0139 -0.00159,-0.0141 -0.00935,-0.0282 -0.00919,-0.0146 -0.011467,-0.031 -0.012819,-0.0478 -7.409e-4,-0.0234 -0.00912,-0.0464 -0.017158,-0.0682 -0.014126,-0.0326 -0.029601,-0.0645 -0.044482,-0.0968 -0.016886,-0.04 -0.035184,-0.0794 -0.051634,-0.11963 -0.015177,-0.0406 -0.030167,-0.081 -0.044189,-0.12202 -0.014655,-0.04 -0.021312,-0.082 -0.033371,-0.12268 -0.0098,-0.0378 -0.023606,-0.0747 -0.040692,-0.10973 -0.013417,-0.0334 -0.026836,-0.0668 -0.040603,-0.10016 -0.014282,-0.0307 -0.028024,-0.0619 -0.045103,-0.0912 -0.015444,-0.0253 -0.024193,-0.0541 -0.042794,-0.0773 -0.019934,-0.0206 -0.041601,-0.0393 -0.062251,-0.0592 -0.022069,-0.0226 -0.052029,-0.0346 -0.076925,-0.0531 -0.020669,-0.0135 -0.041338,-0.0298 -0.064198,-0.0395 -0.027811,-0.003 -0.051916,-0.0141 -0.0778,-0.024 -0.023871,-0.008 -0.049454,-0.004 -0.072013,-0.0146 -0.022722,-0.0109 -0.046726,-0.0149 -0.071624,-0.0163 -0.039282,-0.002 -0.078605,-10e-4 -0.1179108,-0.002 -0.055538,-2.3e-4 -0.1110763,-2e-4 -0.1666142,-2e-4 -0.071663,-0.002 -0.1425869,3.7e-4 -0.2138434,0.007 -0.097309,0.0122 -0.1950651,0.022 -0.2922783,0.0352 -0.1097836,0.0125 -0.2195174,0.0254 -0.3294753,0.0365 -0.1021128,0.0202 -0.2062438,0.0244 -0.3091969,0.0377 -0.096124,0.01 -0.1916938,0.0229 -0.287629,0.0341 -0.086697,0.01 -0.1738847,0.0123 -0.2610311,0.0137 -0.082472,7.1e-4 -0.1649486,5.5e-4 -0.2474227,3.7e-4 -0.083476,1.4e-4 -0.1669518,-3.2e-4 -0.2504276,-1.5e-4 -0.08381,-6.9e-4 -0.1671037,-0.0127 -0.250758,-0.0181 -0.08362,-0.005 -0.1673937,-0.005 -0.2511198,-0.005 -0.075223,-0.004 -0.1494795,0.008 -0.2240833,0.0158 -0.062748,0.005 -0.1248344,0.006 -0.1868741,0.017 -0.051763,0.004 -0.101418,0.0173 -0.1521061,0.0275 -0.044239,0.002 -0.082761,0.0213 -0.1230304,0.0371 -0.112431,0.06 -0.060199,0.0324 0.2578679,-0.14817 0.00785,-0.004 -0.015557,0.009 -0.023074,0.0142 -0.026305,0.0175 -0.049912,0.0382 -0.073708,0.0589 -0.075299,0.0662 -0.1526681,0.13004 -0.2289019,0.19517 -0.1073359,0.0894 -0.2198675,0.17242 -0.3341952,0.2526 0,0 -0.3189388,0.12544 -0.3189388,0.12544 v 0 c 0.1147389,-0.0784 0.2262645,-0.16123 0.3342346,-0.24867 0.074503,-0.065 0.1506694,-0.12805 0.225375,-0.19282 0.1253807,-0.11872 0.2745716,-0.20981 0.4369694,-0.27315 0.040837,-0.0163 0.082921,-0.0256 0.1263245,-0.0322 0.050514,-0.0111 0.1014392,-0.0185 0.1526916,-0.0255 0.062085,-0.008 0.1247815,-0.008 0.187031,-0.0149 0.075063,-0.008 0.1500175,-0.0165 0.2256653,-0.0124 0.084094,9e-4 0.1682308,0.002 0.2521781,0.007 0.083054,0.006 0.1659109,0.0177 0.2493428,0.0162 0.083454,2.2e-4 0.1669081,-1.4e-4 0.2503619,2.3e-4 0.082426,-5e-5 0.1648595,2.9e-4 0.2472764,-10e-4 0.086153,-0.002 0.1723504,-0.005 0.2579582,-0.0158 0.095736,-0.0119 0.191485,-0.0232 0.2873859,-0.0338 0.1030055,-0.0109 0.2061104,-0.0204 0.3084986,-0.0366 0.1099021,-0.0118 0.2197791,-0.0239 0.3294626,-0.0375 0.098154,-0.0122 0.1963052,-0.0246 0.2946054,-0.0354 0.072372,-0.006 0.144762,-0.007 0.2173869,-0.006 0.05589,-9e-5 0.1117807,-2.3e-4 0.1676704,-4.5e-4 0.040451,1.1e-4 0.081061,-4.2e-4 0.1213406,0.004 0.026141,0.004 0.050793,0.0128 0.075735,0.0215 0.025173,10e-4 0.049761,0.007 0.073179,0.0166 0.026456,0.0103 0.054448,0.0149 0.080042,0.0274 0.022535,0.0136 0.045335,0.027 0.066087,0.0433 0.027867,0.0173 0.056496,0.0342 0.07965,0.0577 0.022495,0.0207 0.045869,0.0407 0.065592,0.0641 0.018423,0.0253 0.030029,0.0537 0.044684,0.0813 0.017571,0.0306 0.032447,0.0628 0.046743,0.0951 0.014449,0.0325 0.027371,0.0656 0.040084,0.0988 0.017402,0.0369 0.032823,0.0751 0.0431,0.11466 0.012144,0.0402 0.018717,0.0814 0.032349,0.12118 0.014782,0.0401 0.027469,0.081 0.043241,0.12075 0.016161,0.0398 0.034546,0.0785 0.050839,0.11815 0.015285,0.0327 0.032273,0.0645 0.046405,0.0978 0.010504,0.0245 0.01923,0.052 0.023625,0.0779 2.911e-4,0.0118 -7.937e-4,0.0236 0.00552,0.034 0.0079,0.0148 0.021426,0.0269 0.018936,0.0451 -3.968e-4,0.0136 7.938e-4,0.0274 -0.00378,0.0403 -0.00169,0.006 -0.00175,0.0125 -0.00457,0.0181 -0.00249,0.005 -0.014092,0.007 -0.015822,0.0115 -0.0013,0.003 6.5e-5,0.007 9.76e-5,0.01 -0.00338,0.019 -0.00465,0.0318 -0.021865,0.0433 -0.090167,0.0998 -0.3883922,-0.0474 -0.3475156,0.20617 -0.024381,0.0114 -0.048933,0.019 -0.074921,0.0263 -0.038393,0.0155 -0.076364,0.0332 -0.117788,0.039 -0.051614,0.0101 -0.1015802,0.0268 -0.1535168,0.0355 -0.054416,0.0101 -0.1095357,0.0161 -0.1643817,0.0234 -0.059921,0.003 -0.1199565,6.6e-4 -0.1799193,0.003 -0.064611,0.002 -0.1292426,0.005 -0.1933688,0.0134 -0.064143,0.008 -0.1282312,0.0123 -0.1928009,0.0147 -0.060767,0.005 -0.12104,0.0153 -0.181997,0.0178 -0.072503,-2.7e-4 -0.1450076,-1.5e-4 -0.2175111,0 -0.078333,8.2e-4 -0.156728,0.002 -0.234892,0.007 -0.080218,0.007 -0.1602949,0.0179 -0.2409561,0.0158 -0.087887,-1.2e-4 -0.1757746,-4.2e-4 -0.2636594,3.7e-4 -0.07167,8.2e-4 -0.1434907,10e-4 -0.2148856,0.008 -0.058878,0.006 -0.1175345,0.0176 -0.1769821,0.016 -0.054475,-3.1e-4 -0.1089861,-6.3e-4 -0.1633879,-0.004 -0.050585,-0.004 -0.1006647,-0.0115 -0.150908,-0.0185 -0.043173,-10e-4 -0.086343,0.002 -0.1292294,0.007 -0.049596,0.007 -0.098956,0.0178 -0.1493242,0.0153 -0.053092,-1e-4 -0.1061826,-1.3e-4 -0.1592739,-4e-5 -0.046614,-4e-5 -0.093246,-2.6e-4 -0.139841,0.001 -0.040397,0.002 -0.08112,0.005 -0.119752,0.0176 -0.03752,0.012 -0.076282,0.0186 -0.1140413,0.0298 -0.041319,0.0112 -0.083637,0.0203 -0.1259022,0.0266 -0.037674,0.004 -0.074642,0.0117 -0.111841,0.0189 -0.038775,10e-4 -0.077575,3.9e-4 -0.1163582,10e-4 -0.040449,0.001 -0.080841,0.004 -0.1207666,0.0108 -0.047191,0.008 -0.094114,0.0166 -0.1421456,0.0179 -0.04868,0.005 -0.096825,0.0162 -0.1458751,0.0172 -0.056709,-10e-4 -0.1134247,-0.004 -0.1697971,-0.0107 -0.056052,-0.007 -0.111859,-0.0157 -0.1685761,-0.0124 -0.059616,-1.7e-4 -0.119252,-3e-5 -0.1788375,-0.002 -0.059501,-0.003 -0.1190003,-0.007 -0.1776851,-0.0173 -0.050219,-0.007 -0.1010722,-0.007 -0.1511716,-0.016 -0.048294,-0.008 -0.096034,-0.0189 -0.1448969,-0.0234 -0.047101,-0.008 -0.093882,-0.0174 -0.1417418,-0.0202 -0.046858,-0.007 -0.093008,-0.0182 -0.1403858,-0.0209 -0.039643,-0.005 -0.078173,-0.0139 -0.117181,-0.0217 -0.026244,-0.005 -0.05162,-0.0112 -0.070412,-0.0314 -0.013999,-0.0127 -0.013838,-0.0238 -0.013205,-0.0407 -6.879e-4,-0.0179 0.00124,-0.0376 0.00882,-0.0537 0.014724,-0.0273 0.037246,-0.0477 0.057534,-0.0708 0.030972,-0.0298 0.062858,-0.0587 0.095949,-0.0862 0.039513,-0.0316 0.073593,-0.0702 0.1196514,-0.0933 0.047351,-0.0352 0.097212,-0.0671 0.1472496,-0.0983 0.1089838,-0.0634 0.2178638,-0.12689 0.326951,-0.19007 0.010467,-0.006 0.042155,-0.0237 0.031705,-0.0177 -0.089031,0.0519 -0.1780503,0.1038 -0.2674554,0.15504 -0.020833,0.0119 0.040976,-0.0251 0.061683,-0.0372 0.00966,-0.006 0.01923,-0.0115 0.028843,-0.0173 0.153561,-0.0847 0.299685,-0.1833 0.4559302,-0.26351 0.058171,-0.0282 0.1162262,-0.0567 0.1744946,-0.0847 0.034022,-0.0158 0.067885,-0.0317 0.1009295,-0.0495 0.011554,-0.006 0.045726,-0.0257 0.034393,-0.0191 -0.2299509,0.13417 -0.355846,0.20462 -0.2265653,0.13205 0.071732,-0.0449 0.1446929,-0.0879 0.2152991,-0.13468 0.070044,-0.0446 0.134752,-0.0963 0.1958999,-0.15252 0,0 0.325084,-0.13121 0.325084,-0.13121 z"
       inkscape:connector-curvature="0"
       style="stroke-width:0.26458332" />
    <path
       id="path798"
       d="m 7.4507679,286.79802 c 0.5239925,-0.32161 0.2329741,-0.13244 0.1192609,-0.0456 -0.050774,0.0426 -0.086592,0.0988 -0.1234339,0.15303 -0.035607,0.0538 -0.072812,0.10634 -0.1137145,0.15619 -0.034549,0.041 -0.064091,0.086 -0.098114,0.12739 -0.03358,0.0421 -0.068346,0.0833 -0.1029141,0.12462 -0.035634,0.0472 -0.07414,0.0921 -0.1113423,0.13799 -0.032205,0.035 -0.063473,0.0709 -0.089744,0.11063 -0.019026,0.0306 -0.037357,0.0616 -0.056589,0.0922 -0.018865,0.0303 -0.037728,0.0607 -0.058658,0.0896 -0.016013,0.0214 -0.033871,0.0412 -0.052372,0.0604 -0.00921,0.0142 -0.028308,0.0215 -0.033666,0.0357 -0.1035727,0.0594 -0.2061543,0.12053 -0.3107179,0.17815 -0.00249,10e-4 -0.00626,-3.2e-4 -0.00812,-0.002 -0.01823,-0.0209 -0.017394,-0.0346 -0.011184,-0.0581 0.026813,-0.0399 0.061163,-0.074 0.09253,-0.11024 0.056034,-0.0719 0.1180962,-0.13863 0.1749314,-0.20982 0.069941,-0.0894 0.1426157,-0.17675 0.2154052,-0.26388 0.064742,-0.0769 0.1306713,-0.15282 0.1972066,-0.22819 0.055209,-0.0625 0.1126382,-0.12291 0.1707886,-0.18264 0.1204121,-0.12479 0.245772,-0.17265 0.4118652,-0.26789 -0.010509,0.006 0.034457,-0.0203 0.025797,-0.0153 -0.097148,0.056 -0.3949729,0.21082 -0.2913383,0.16805 0.1866752,-0.077 0.2123983,-0.22784 0.3369239,-0.16761 0.026329,0.0136 0.028531,0.0411 0.014044,0.0641 -0.022154,0.0295 -0.048138,0.0556 -0.071865,0.0838 -0.035124,0.0421 -0.065849,0.0875 -0.1004763,0.12998 -0.044736,0.048 -0.086473,0.0975 -0.1241539,0.15126 -0.038079,0.0527 -0.07901,0.10315 -0.1184968,0.15476 -0.036292,0.0413 -0.062737,0.0895 -0.096776,0.13241 -0.029311,0.0418 -0.065401,0.0775 -0.099215,0.1155 -0.028131,0.0319 -0.054525,0.0653 -0.080619,0.0989 -0.019495,0.0216 -0.040074,0.042 -0.057733,0.0651 -0.015184,0.024 -0.037964,0.0407 -0.057806,0.0604 -0.016769,0.0163 -0.032472,0.0332 -0.047484,0.0513 -0.012957,0.0129 -0.022455,0.0315 -0.038695,0.0405 -0.00354,0.017 -0.019878,0.0219 -0.027954,0.0347 -1.363e-4,0.0176 -0.013959,0.0183 -0.022818,0.0305 -0.00884,0.007 -0.00776,0.022 -0.00801,0.0323 -0.0014,0.0101 0.00246,0.009 0.0043,-0.002 0,0 -0.2891319,0.20398 -0.2891319,0.20398 v 0 c -0.012859,-0.01 -0.029263,-0.0257 -0.030146,-0.0424 1.381e-4,-0.0158 2.077e-4,-0.0316 4.498e-4,-0.0474 0.00543,-0.0132 0.00677,-0.0329 0.024442,-0.0276 0.00518,-0.018 0.00753,-0.031 0.026424,-0.0389 0.0044,-0.0201 0.024286,-0.0306 0.036593,-0.0466 0.015441,-0.0176 0.02783,-0.0397 0.047533,-0.0522 0.017888,-0.0223 0.039001,-0.0387 0.058944,-0.0583 0.018629,-0.0235 0.03464,-0.0482 0.057436,-0.0678 0.031141,-0.0295 0.05201,-0.0678 0.08191,-0.0988 0.032913,-0.0389 0.071422,-0.0721 0.099452,-0.11495 0.036858,-0.0415 0.06316,-0.0888 0.098115,-0.13157 0.040221,-0.0509 0.079084,-0.10276 0.1196252,-0.15341 0.038005,-0.054 0.073858,-0.10827 0.1224392,-0.15372 0.035557,-0.0413 0.066986,-0.0854 0.099427,-0.12904 0.022614,-0.0287 0.047135,-0.0548 0.070304,-0.0824 0.02168,-0.022 0.037883,-5.6e-4 0.020365,-0.001 -0.00402,0.002 -0.014391,0.009 -0.010642,0.007 0.097731,-0.0554 0.3880204,-0.2267 0.2922222,-0.16799 -0.1079987,0.0662 -0.222605,0.13427 -0.3377948,0.19355 0.5242073,-0.30372 0.2905905,-0.18809 0.1839875,-0.0855 -0.058883,0.0596 -0.117367,0.11956 -0.1733904,0.18184 -0.067108,0.0752 -0.1331095,0.15134 -0.1987064,0.22785 -0.073158,0.0862 -0.1451914,0.17343 -0.2150787,0.26227 -0.054642,0.0722 -0.1168754,0.13789 -0.1722821,0.20953 -0.028127,0.0368 -0.060259,0.0702 -0.090027,0.10486 -0.00246,10e-4 -0.00552,0.002 -0.00735,0.004 -0.00167,0.002 -9.3e-6,0.006 -0.00238,0.007 -0.00382,0.001 -0.026919,-0.0205 -0.013285,-0.0225 -0.098214,0.0581 -0.1964283,0.11616 -0.2946424,0.17424 0.00209,-8.4e-4 0.00523,-5.5e-4 0.00629,-0.003 0.00169,-0.003 -3.44e-4,-0.007 8.467e-4,-0.0108 0.00359,-0.0102 0.021833,-0.0154 0.026101,-0.0255 0.018672,-0.0186 0.037527,-0.0371 0.05457,-0.0572 0.022998,-0.0266 0.040126,-0.0568 0.061252,-0.0847 0.016491,-0.0329 0.038921,-0.0618 0.055982,-0.0943 0.026136,-0.041 0.053472,-0.0815 0.088778,-0.11548 0.039939,-0.0431 0.075293,-0.0908 0.1121508,-0.13657 0.032232,-0.0433 0.071187,-0.0813 0.1016965,-0.12606 0.036788,-0.0394 0.066371,-0.0842 0.098874,-0.12715 0.042275,-0.0481 0.081597,-0.0988 0.1154486,-0.15317 0.03895,-0.0552 0.073695,-0.11346 0.1201669,-0.16304 0.1474345,-0.11833 0.3098691,-0.21424 0.4764185,-0.30415 0,0 -0.2724446,0.22042 -0.2724446,0.22042 z"
       inkscape:connector-curvature="0"
       style="stroke-width:0.26458332" />
    <path
       id="path800"
       d="m 12.61268,287.86079 c 0.02702,0.0562 0.0661,0.10499 0.09981,0.15702 0.02027,0.0307 0.04597,0.0566 0.06949,0.0846 0.02469,0.0284 0.04614,0.0591 0.07192,0.0865 0.02469,0.0338 0.05055,0.0652 0.08206,0.0928 0.04088,0.0401 0.08361,0.0777 0.121854,0.12042 0.03466,0.0383 0.07013,0.0769 0.112959,0.10617 0.03226,0.0284 0.06523,0.0563 0.09632,0.0859 0.02993,0.0265 0.06543,0.0444 0.100694,0.0626 0.02969,0.0139 0.05618,0.033 0.084,0.0499 0.01249,0.0117 0.03015,0.01 0.0447,0.0149 0.0088,0.003 0.01651,0.009 0.0251,0.0125 0.01837,0.0101 0.03787,0.0115 0.05829,0.0124 0.141526,0.007 -0.197178,0.15123 -0.286082,0.20702 -4.49e-4,2.9e-4 -0.02933,-0.0104 -0.03087,-0.0109 -0.03502,-0.006 -0.06547,-0.0218 -0.09542,-0.0403 -0.03755,-0.0173 -0.07174,-0.0405 -0.107589,-0.061 -0.03812,-0.0314 -0.07821,-0.0596 -0.11943,-0.0868 -0.03815,-0.0304 -0.07658,-0.0603 -0.113089,-0.0927 -0.03866,-0.0274 -0.07592,-0.0566 -0.111274,-0.0881 -0.03729,-0.0391 -0.06961,-0.0823 -0.09772,-0.12838 -0.02824,-0.0445 -0.05481,-0.0902 -0.08506,-0.13338 -0.02327,-0.0397 -0.05071,-0.0769 -0.072,-0.11776 -0.0201,-0.0304 -0.03646,-0.0633 -0.05759,-0.0929 -0.01453,-0.0208 -0.02723,-0.0463 -0.04773,-0.0619 -0.0024,-0.002 -0.0049,-0.003 -0.0073,-0.005 0,0 0.298096,-0.18831 0.298096,-0.18831 v 0 c 0.003,0.003 0.006,0.005 0.009,0.008 0.0196,0.0208 0.03626,0.0442 0.05082,0.0688 0.02114,0.0315 0.03903,0.0651 0.05926,0.0972 0.0201,0.0397 0.04682,0.0757 0.06923,0.11407 0.03024,0.044 0.05661,0.0906 0.08572,0.13538 0.02619,0.0431 0.05676,0.0833 0.09254,0.11901 0.03604,0.0308 0.0738,0.0594 0.111511,0.0881 0.03561,0.031 0.0724,0.0604 0.110114,0.0888 0.04086,0.0267 0.07901,0.0567 0.118558,0.0851 0.03575,0.0212 0.07221,0.0409 0.10886,0.0605 0.02857,0.0161 0.05921,0.0249 0.09097,0.0327 0.0082,0.002 0.03161,-0.003 0.02502,0.003 -0.112689,0.0883 -0.169771,0.21974 -0.286091,0.20424 -0.02243,-0.004 -0.04334,-0.0113 -0.06375,-0.0214 -0.02443,-0.0104 -0.05126,-0.0153 -0.07264,-0.0324 -0.02647,-0.0175 -0.05398,-0.0334 -0.08197,-0.0483 -0.03694,-0.0208 -0.07476,-0.0403 -0.105495,-0.0701 -0.03081,-0.028 -0.06106,-0.0566 -0.09353,-0.0827 -0.04288,-0.0331 -0.08,-0.0725 -0.115868,-0.11291 -0.03775,-0.0416 -0.08015,-0.0777 -0.120741,-0.11644 -0.03201,-0.0286 -0.05841,-0.0612 -0.08421,-0.0953 -0.02597,-0.0279 -0.04795,-0.059 -0.07329,-0.0875 -0.0251,-0.0287 -0.05021,-0.0573 -0.07084,-0.0896 -0.03295,-0.0532 -0.07035,-0.10355 -0.100942,-0.15823 0,0 0.303572,-0.17509 0.303572,-0.17509 z"
       inkscape:connector-curvature="0"
       style="stroke-width:0.26458332" />
    <path
       id="path802"
       d="m 6.7924822,287.92081 c -0.00946,0.0848 -0.018465,0.16964 -0.029944,0.25424 -0.00896,0.0663 -0.01292,0.13303 -0.014856,0.19989 -0.00338,0.0435 0.00808,0.0855 0.015356,0.12769 0.00396,0.0239 0.012544,0.0483 0.023934,0.0692 0.010737,0.0168 0.023672,0.0287 0.040792,0.0366 0.00769,0.014 0.024392,0.0165 0.034616,0.0267 0.037808,0.0378 -0.011996,-0.007 0.014872,0.0168 0.017473,0.008 0.031837,0.0199 0.0486,0.0302 0.023185,0.003 0.042014,0.0147 0.063294,0.0243 0.027174,0.005 0.053508,0.0169 0.075305,0.0354 0.025053,0.0172 0.045803,0.0435 0.061749,0.0704 0.019913,0.0318 0.034946,0.0666 0.049245,0.10168 0.015978,0.0333 0.027923,0.0683 0.042911,0.10201 0.014129,0.0269 0.018108,0.0578 0.028001,0.0865 0.00768,0.0319 0.021045,0.0607 0.036157,0.0891 0.020323,0.0346 0.037984,0.0707 0.056241,0.10657 0.020386,0.045 0.037604,0.0916 0.056598,0.13728 0.022106,0.0486 0.029224,0.10124 0.033362,0.15456 0.00911,0.0616 0.017158,0.12316 0.022101,0.18529 0.00124,0.0553 0.00581,0.10966 0.014348,0.16415 0.00855,0.0517 0.011512,0.10418 0.013232,0.15661 0.00249,0.0395 -4.233e-4,0.0793 0.00309,0.11874 0.00576,0.0283 0.013676,0.056 0.018587,0.0846 0.00308,0.0221 0.00396,0.0443 0.00402,0.0667 1.143e-4,0.0192 3.175e-4,0.0385 7.96e-5,0.0576 -6.85e-5,0.0197 -1.516e-4,0.0394 -7.38e-5,0.0591 -6.93e-5,0.0198 -1.587e-4,0.0396 9.45e-5,0.0594 0.00396,0.0204 -0.010475,0.0334 -0.017161,0.0504 -0.00407,0.0114 -0.00568,0.0231 -0.00612,0.0353 -6.88e-4,0.0154 -4.234e-4,0.031 -9.79e-5,0.0465 -0.042878,0.1359 -0.2049085,0.20869 -0.335411,0.21918 0,0 0.2813381,-0.23225 0.2813381,-0.23225 v 0 c 0.134652,-0.0601 -0.397155,0.25577 -0.266781,0.1733 0.011136,-10e-5 0.0045,-0.0231 0.0055,-0.0334 2.63e-4,-0.0149 -5.82e-4,-0.0299 0.00265,-0.0443 0.0023,-0.0129 0.00567,-0.0427 0.021524,-0.0406 2.493e-4,-0.0199 1.635e-4,-0.0396 9.74e-5,-0.0595 8.68e-5,-0.0198 1.67e-5,-0.0394 2.7e-5,-0.0592 -1.635e-4,-0.0191 2.397e-4,-0.0384 2.91e-4,-0.0575 -1.608e-4,-0.0205 1.199e-4,-0.0411 -0.00156,-0.0615 -0.00338,-0.0289 -0.010599,-0.0569 -0.017425,-0.0852 -0.00782,-0.0406 -0.00243,-0.0823 -0.00429,-0.12363 -0.00119,-0.0508 -0.00313,-0.10178 -0.01088,-0.15205 -0.00862,-0.0557 -0.016224,-0.11076 -0.015208,-0.16751 -0.004,-0.0623 -0.011105,-0.12397 -0.022339,-0.18518 -0.00316,-0.0489 -0.00808,-0.0977 -0.028295,-0.1423 -0.019039,-0.0445 -0.034601,-0.0908 -0.054939,-0.13466 -0.018664,-0.0354 -0.037023,-0.0709 -0.05688,-0.10559 -0.016208,-0.03 -0.03174,-0.0602 -0.039384,-0.0943 -0.00983,-0.0278 -0.014706,-0.0567 -0.026273,-0.0838 -0.015221,-0.0342 -0.026751,-0.07 -0.043399,-0.10353 -0.012824,-0.0334 -0.027808,-0.0658 -0.046788,-0.0957 -0.014129,-0.023 -0.032246,-0.0431 -0.05441,-0.0569 -0.023331,-0.0125 -0.047224,-0.0209 -0.071909,-0.0295 -0.021989,-0.01 -0.045432,-0.0154 -0.066266,-0.0286 -0.017523,-0.012 -0.036557,-0.0212 -0.052155,-0.0362 -0.013555,-0.014 -0.029648,-0.0248 -0.045025,-0.0362 -0.020381,-0.0141 -0.037684,-0.0323 -0.050655,-0.0545 -0.013253,-0.0248 -0.024622,-0.0536 -0.029243,-0.0816 -0.00668,-0.045 -0.019727,-0.0895 -0.017227,-0.13538 0.00188,-0.0686 0.00596,-0.13692 0.015063,-0.20478 0.010964,-0.084 0.024114,-0.16735 0.027732,-0.25224 0,0 0.3142025,-0.16861 0.3142025,-0.16861 z"
       inkscape:connector-curvature="0"
       style="stroke-width:0.275767" />
    <path
       id="path804"
       d="m 9.8172603,287.60907 c 0.05404,0.0288 0.102806,0.0661 0.155248,0.0974 0.03181,0.0224 0.06457,0.0459 0.1009107,0.0603 0.02947,0.011 0.05795,0.0247 0.08273,0.0441 0.02135,0.0147 0.04258,0.0304 0.06337,0.0464 0.01778,0.0221 0.04187,0.0374 0.05932,0.0598 0.01944,0.0227 0.04086,0.0437 0.0602,0.0665 0.02085,0.0271 0.03517,0.0585 0.05211,0.0881 0.02133,0.0292 0.04586,0.0555 0.06583,0.0858 0.02456,0.0367 0.04977,0.0727 0.07138,0.11119 0.02711,0.0364 0.04808,0.076 0.06755,0.11673 0.01652,0.0363 0.03608,0.0714 0.04911,0.10922 0.01503,0.034 0.02415,0.0701 0.03758,0.10463 0.01291,0.0335 0.01793,0.0691 0.02732,0.10356 0.01088,0.0334 0.01607,0.0681 0.01872,0.10302 0.0019,0.034 0.0021,0.0681 0.0021,0.10214 -2.7e-5,0.0295 -1.34e-4,0.0589 9.7e-5,0.0884 3.18e-4,0.02 -1.5e-5,0.04 2.65e-4,0.0601 2.29e-4,0.0147 3.4e-5,0.0293 6.1e-5,0.044 2.28e-4,0.0122 -2e-6,0.0244 2.2e-4,0.0366 2.12e-4,0.008 -5.5e-5,0.0166 6.8e-5,0.0248 0.01144,0.13268 -0.236198,0.28804 -0.329686,0.18629 -0.0022,-0.004 -0.0044,-0.008 -0.0067,-0.0113 0,0 0.306279,-0.17606 0.306279,-0.17606 v 0 c -1.91e-4,-1e-4 -3.7e-4,-2.1e-4 -5.82e-4,-3.2e-4 0.04434,-0.10865 -0.408658,0.16886 -0.290749,0.16813 0.0022,-10e-6 0.0044,0.003 0.0064,0.002 0.0025,-10e-4 -0.0018,-0.006 -8.9e-5,-0.008 1.21e-4,-0.008 -1.42e-4,-0.0166 6.8e-5,-0.0249 2.19e-4,-0.0123 -6e-6,-0.0246 2.18e-4,-0.0368 2.7e-5,-0.0147 -1.7e-4,-0.0294 6.1e-5,-0.0441 2.91e-4,-0.0202 -4.9e-5,-0.0403 3.44e-4,-0.0604 3.18e-4,-0.0295 3.44e-4,-0.0591 4.5e-4,-0.0886 5e-5,-0.0334 4.23e-4,-0.0668 -8.73e-4,-0.10017 -0.0017,-0.0327 -0.0049,-0.0654 -0.015,-0.0967 -0.0096,-0.0334 -0.01534,-0.0674 -0.02583,-0.10059 -0.01346,-0.0353 -0.02304,-0.0716 -0.03844,-0.10618 -0.01138,-0.0368 -0.03111,-0.0702 -0.04604,-0.10559 -0.01954,-0.0399 -0.04019,-0.0788 -0.06653,-0.11481 -0.02122,-0.0376 -0.04645,-0.0727 -0.07045,-0.10854 -0.02087,-0.0305 -0.047,-0.0568 -0.06734,-0.0877 -0.01587,-0.0276 -0.0298,-0.0566 -0.04892,-0.082 -0.02033,-0.0225 -0.041291,-0.0444 -0.061181,-0.0673 -0.01681,-0.0191 -0.03798,-0.0339 -0.05503,-0.0528 -0.02072,-0.0157 -0.04197,-0.0308 -0.06317,-0.0459 -0.02397,-0.0165 -0.05187,-0.0263 -0.07807,-0.0386 -0.035743,-0.0187 -0.069721,-0.0408 -0.1021598,-0.0648 -0.051412,-0.0339 -0.1019447,-0.069 -0.1566233,-0.0976 0,0 0.2954781,-0.1892 0.2954781,-0.1892 z"
       inkscape:connector-curvature="0"
       style="stroke-width:0.26458332" />
    <path
       id="path806"
       d="m 4.1417885,287.87526 c -0.035598,0.0567 -0.065803,0.1173 -0.095069,0.17826 -0.027323,0.0529 -0.047203,0.10985 -0.068643,0.16595 -0.019058,0.0469 -0.032071,0.0964 -0.047457,0.14487 -0.00969,0.0439 -0.020214,0.0877 -0.030249,0.13146 -0.00847,0.0424 -0.00851,0.0858 -0.016433,0.12823 -0.00737,0.0446 -0.015237,0.0887 -0.026088,0.13245 -0.00822,0.0471 -0.018264,0.0936 -0.028149,0.14023 -0.00816,0.04 -0.01007,0.081 -0.011329,0.12187 -8.202e-4,0.0399 -3.704e-4,0.0798 -2.646e-4,0.11966 -6.35e-4,0.0386 0.00271,0.0772 -0.0045,0.11512 -0.00821,0.0294 -0.013854,0.0591 -0.016497,0.0897 -0.0023,0.0258 -0.00193,0.0517 -0.00217,0.0776 4.95e-5,0.0213 7.62e-5,0.0427 2.204e-4,0.064 0.00456,0.0115 0.010951,0.0241 0.016108,0.036 0.00432,0.0157 0.014806,0.0261 0.021291,0.041 0.00603,0.0124 0.00329,0.0268 0.013962,0.0352 0.00816,0.0132 0.013481,0.0279 0.017566,0.0432 0.00103,10e-4 0.00204,0.002 0.00307,0.003 0,0 -0.3035353,0.20227 -0.3035353,0.20227 v 0 c -0.00188,-0.003 -0.00374,-0.006 -0.00561,-0.009 -0.00561,-0.0112 -0.00693,-0.022 -0.01252,-0.0332 -0.011306,-0.0145 -0.018457,-0.0288 -0.020304,-0.0478 -0.00561,-0.0148 -0.019579,-0.0249 -0.021706,-0.0411 -0.00663,-0.0177 -0.015899,-0.0335 -0.022648,-0.0511 7.17e-5,-0.0214 -3.81e-5,-0.0428 -4.47e-5,-0.0642 -1.837e-4,-0.0269 3.704e-4,-0.0539 0.00122,-0.0808 0.00222,-0.0323 0.00391,-0.0653 0.014216,-0.0958 0.010972,-0.0384 0.00998,-0.0655 0.00868,-0.10604 -7.41e-5,-0.0402 4.16e-5,-0.0805 2.646e-4,-0.12078 4.498e-4,-0.0432 0.00193,-0.0863 0.00841,-0.12884 0.00875,-0.0474 0.02304,-0.0931 0.02772,-0.14145 0.00931,-0.0438 0.022757,-0.086 0.026516,-0.13126 0.009,-0.0425 0.01238,-0.0847 0.016322,-0.12828 0.00801,-0.0455 0.023765,-0.0887 0.029047,-0.13486 0.013399,-0.0505 0.03152,-0.0994 0.046696,-0.14928 0.023789,-0.0556 0.040019,-0.11509 0.068505,-0.16815 0.027738,-0.0622 0.059192,-0.12241 0.091963,-0.18142 0,0 0.3214362,-0.15764 0.3214362,-0.15764 z"
       inkscape:connector-curvature="0"
       style="stroke-width:0.28012246" />
    <path
       id="path808"
       d="m 0.51035542,292.81523 c 0.0988006,-0.0465 0.20480591,-0.0738 0.30931657,-0.1042 0.1427241,-0.0396 0.28870211,-0.064 0.43507461,-0.0852 0.1521289,-0.0167 0.3036409,-0.0383 0.4558826,-0.054 0.1564239,-0.0183 0.3124328,-0.0396 0.4685458,-0.0603 0.1484458,-0.0159 0.2971418,-0.0288 0.4443633,-0.0541 0.146945,-0.0257 0.2950608,-0.0426 0.4430537,-0.0607 0.1559824,-0.0254 0.3123446,-0.0473 0.4689766,-0.0683 0.1618665,-0.0175 0.3235108,-0.0366 0.4859636,-0.0479 0.1657297,-0.006 0.3313316,-0.0136 0.4969849,-0.022 0.1869122,-0.007 0.3738242,-0.0154 0.5603859,-0.0288 0.2121344,-0.0178 0.4249703,-0.0229 0.6377188,-0.0268 0.2204718,1.8e-4 0.4406837,-0.0104 0.660994,-0.0175 0.2198129,-0.0149 0.4401055,-0.0199 0.660074,-0.0313 0.2324616,-0.0158 0.4651756,-0.0278 0.69771,-0.0425 0.2329825,-0.0159 0.4664109,-0.0232 0.6998626,-0.0272 0.2215703,-0.002 0.4429879,-0.002 0.6644386,-0.01 0.2396916,-0.0159 0.4796213,-0.0272 0.7194367,-0.0409 0.2581413,-0.0107 0.5160853,-0.0257 0.7742853,-0.0352 0.254407,0.004 0.508821,-4.3e-4 0.763221,10e-4 0.2521,0.008 0.504193,5.3e-4 0.756264,-0.004 0.252737,-0.003 0.505389,-0.005 0.758001,-0.014 0.245855,-0.006 0.491517,-0.0167 0.737236,-0.0267 0.238939,-0.009 0.477692,-0.0226 0.716277,-0.0382 0.241072,-0.0194 0.4811,-0.0493 0.721327,-0.0768 0.244944,-0.0351 0.489608,-0.0719 0.734549,-0.10704 0.218873,-0.0319 0.435744,-0.0755 0.654331,-0.10921 0.185823,-0.0259 0.370826,-0.0547 0.554293,-0.0942 0.169723,-0.0308 0.336832,-0.0737 0.505407,-0.1098 0.172733,-0.0354 0.344025,-0.0774 0.515258,-0.11941 0.155258,-0.0417 0.31094,-0.0816 0.467223,-0.11927 0.108061,-0.0245 0.216931,-0.0466 0.322932,-0.0791 0.05064,-0.012 0.09841,-0.0309 0.146409,-0.0505 0,0 -0.275819,0.21657 -0.275819,0.21657 v 0 c -0.04761,0.0178 -0.09606,0.0325 -0.145227,0.0455 -0.106032,0.0285 -0.213393,0.0514 -0.320533,0.0753 -0.155209,0.0369 -0.309627,0.0769 -0.464025,0.11705 -0.171646,0.0421 -0.343439,0.0838 -0.516605,0.1193 -0.168262,0.037 -0.335641,0.0781 -0.505143,0.10936 -0.183363,0.038 -0.36839,0.0647 -0.553677,0.0914 -0.217569,0.0341 -0.433851,0.0759 -0.651922,0.10687 -0.244937,0.0346 -0.489371,0.0725 -0.734478,0.10588 -0.240835,0.028 -0.481535,0.0583 -0.723389,0.0762 -0.238466,0.015 -0.477048,0.029 -0.715868,0.037 -0.245674,0.0102 -0.491299,0.0202 -0.737119,0.0264 -0.252688,0.008 -0.505424,0.009 -0.758206,0.0136 -0.252215,0.005 -0.504443,0.0112 -0.75669,0.004 -0.254045,-8.2e-4 -0.508091,8.7e-4 -0.762132,-3.7e-4 -0.258202,0.01 -0.5162022,0.0241 -0.7743106,0.036 -0.2405179,0.014 -0.4810983,0.0266 -0.7215632,0.0415 -0.2216793,0.008 -0.4433626,0.007 -0.6651435,0.009 -0.2327203,0.004 -0.4654063,0.011 -0.697639,0.0274 -0.2331683,0.0142 -0.4663167,0.0284 -0.6994324,0.0432 -0.2200434,0.0106 -0.4402648,0.0174 -0.6601902,0.0307 -0.2204418,0.007 -0.4407881,0.0176 -0.6614003,0.0172 -0.2129177,0.004 -0.4257839,0.0115 -0.638074,0.0292 -0.1873998,0.0128 -0.37499,0.0227 -0.5626909,0.0297 -0.1658279,0.008 -0.3316737,0.0154 -0.4975156,0.0233 -0.1619287,0.0122 -0.3233087,0.0307 -0.484581,0.0495 -0.156795,0.0209 -0.3130454,0.045 -0.4695155,0.0682 -0.1480099,0.0181 -0.2958812,0.0371 -0.4428923,0.0623 -0.1473642,0.0232 -0.2959035,0.0357 -0.4440675,0.0526 -0.1563485,0.0209 -0.3126476,0.0423 -0.4694217,0.0598 -0.1521086,0.0166 -0.3037769,0.0371 -0.45565762,0.0556 -0.14562892,0.0223 -0.29094046,0.0474 -0.43249008,0.0892 -0.1059048,0.0316 -0.2138041,0.0612 -0.31082177,0.11565 0,0 0.27244459,-0.22042 0.27244459,-0.22042 z"
       inkscape:connector-curvature="0"
       style="stroke-width:0.26458332" />
    <path
       id="path810"
       d="m 1.7975646,282.45491 c 0.1481931,-0.021 0.2971419,-0.0278 0.4465016,-0.0205 0.1198298,0.009 0.2386846,0.0348 0.3499852,0.0806 0.070655,0.0291 0.099716,0.0484 0.1664285,0.0862 0.1547802,0.0916 0.2892007,0.21157 0.4294015,0.32312 0.1259854,0.10103 0.2535233,0.19858 0.3978786,0.27171 0.2080067,0.0903 0.4210264,0.076 0.6404951,0.05 0.3074093,-0.0509 0.5998094,-0.16076 0.8885698,-0.27412 0.2403663,-0.10334 0.4862724,-0.19188 0.7349863,-0.27261 0.1353701,-0.0443 0.2181691,-0.0597 0.3523983,-0.0126 0.1095438,0.0547 0.2041575,0.13438 0.3023438,0.20662 0.1298287,0.0971 0.2766172,0.16689 0.4338278,0.20674 0.040412,0.0102 0.081573,0.0173 0.1223597,0.0259 0.2686953,0.0405 0.5431222,0.0222 0.8088059,-0.0311 0.061518,-0.0124 0.1222814,-0.0282 0.1834221,-0.0423 0.3467399,-0.085 0.671599,-0.23355 0.9866244,-0.39821 0.041357,-0.0235 0.1660781,-0.0927 0.1240716,-0.0704 -0.059034,0.0313 -0.1135431,0.0716 -0.1751682,0.0975 -0.035376,0.0148 0.064403,-0.0417 0.095567,-0.0641 0.087688,-0.0629 0.1621925,-0.1354 0.2373718,-0.2123 0.1486783,-0.1612 0.2450285,-0.35665 0.3227239,-0.55939 0.040574,-0.12455 0.073957,-0.25309 0.082041,-0.38438 0.00445,-0.0723 9.261e-4,-0.0883 -0.00436,-0.15873 -0.014018,-0.10386 -0.041591,-0.20879 -0.109042,-0.29175 -0.013866,-0.0171 -0.030135,-0.032 -0.045203,-0.048 -0.161984,-0.14999 -0.3762412,-0.20891 -0.585548,-0.25905 -0.3255542,-0.0738 -0.660536,-0.0752 -0.9925413,-0.0788 -0.3496016,0.002 -0.6986809,0.0168 -1.0472065,0.0436 -0.3654282,0.0224 -0.7291782,0.0634 -1.0932649,0.10058 -0.3088413,0.0369 -0.6185924,0.0598 -0.9295704,0.0621 -0.2163403,-0.003 -0.4321255,-0.0237 -0.6444036,-0.0653 -0.1425945,-0.0268 -0.2760313,-0.0799 -0.40586,-0.14286 -0.09722,-0.0502 -0.1947889,-0.0994 -0.2951612,-0.14295 -0.1142587,-0.0434 -0.2370286,-0.0524 -0.3581352,-0.052 -0.1825292,0.004 -0.3568663,0.0561 -0.5266971,0.1188 -0.044422,0.0196 -0.135875,0.0593 -0.1799392,0.0814 -0.028014,0.0141 -0.1097751,0.0606 -0.082654,0.0449 0.3742192,-0.21702 0.2324531,-0.13713 0.1404941,-0.0713 -0.022997,0.0165 -0.045099,0.0341 -0.067648,0.0512 -0.1160346,0.0926 -0.2141371,0.20364 -0.302106,0.32253 -0.07848,0.10719 -0.1429817,0.22253 -0.2000249,0.34218 -0.0454,0.0939 -0.065551,0.19279 -0.061863,0.29636 0.010434,0.12457 0.064645,0.23621 0.1304255,0.34023 0.1220993,0.15826 0.2231205,0.14744 0.4124122,0.14022 0.2209872,-0.0253 0.1102064,-0.0106 0.332326,-0.0444 0,0 -0.2602753,0.19507 -0.2602753,0.19507 v 0 c -0.2251638,0.0331 -0.111825,0.0179 -0.3400279,0.0455 -0.044471,10e-4 -0.088943,0.006 -0.1334131,0.004 -0.1376453,-0.005 -0.2287459,-0.059 -0.3080414,-0.16799 -0.067492,-0.1093 -0.1251528,-0.22527 -0.1399461,-0.35473 -0.00864,-0.11451 0.008,-0.20681 0.055081,-0.3122 0.057468,-0.12153 0.1208664,-0.23952 0.1996305,-0.34892 0.086966,-0.12221 0.1843806,-0.23629 0.3003165,-0.33237 0.2333372,-0.18301 0.4962665,-0.32742 0.7705153,-0.43929 0.1739201,-0.0615 0.3524729,-0.11097 0.5384789,-0.11259 0.1252659,0.002 0.2517098,0.0128 0.3686556,0.0616 0.1001292,0.0443 0.1971868,0.0947 0.2944043,0.14501 0.1269611,0.0614 0.2582571,0.11135 0.3973684,0.13802 0.2087317,0.0411 0.421082,0.0619 0.6338467,0.0646 0.3083258,-0.002 0.6155253,-0.0247 0.9218297,-0.0602 0.3643101,-0.0369 0.7284284,-0.076 1.0938992,-0.10006 0.3489378,-0.0267 0.6985701,-0.0402 1.0485734,-0.0411 0.3353882,0.004 0.6734397,0.007 1.0023564,0.0809 0.216898,0.0528 0.438022,0.11366 0.6063832,0.26879 0.016219,0.0173 0.033721,0.0335 0.048654,0.052 0.071256,0.088 0.1011569,0.19856 0.1155949,0.30875 0.0055,0.0715 0.0093,0.0918 0.0052,0.16505 -0.0075,0.13438 -0.041989,0.26576 -0.081498,0.39376 -0.075744,0.20592 -0.1703192,0.40487 -0.3161517,0.57147 -0.04848,0.0509 -0.096549,0.10376 -0.1496171,0.15012 -0.2072966,0.18109 -0.4627859,0.29603 -0.6987937,0.4338 -0.3155021,0.16117 -0.6407219,0.30569 -0.9868551,0.38792 -0.061785,0.0138 -0.1231918,0.0294 -0.1853549,0.0414 -0.2708735,0.0522 -0.5505781,0.0694 -0.8238908,0.0268 -0.041777,-0.009 -0.083953,-0.0165 -0.1253318,-0.0272 -0.1611495,-0.0419 -0.3120046,-0.11384 -0.4462772,-0.21211 -0.09658,-0.0697 -0.1902444,-0.14751 -0.3003756,-0.19483 -0.1251051,-0.0366 -0.2093899,-0.0148 -0.3327186,0.0246 -0.2457836,0.078 -0.4875075,0.16725 -0.725157,0.26752 -0.2913642,0.11281 -0.5865045,0.22214 -0.8968047,0.26975 -0.232819,0.0259 -0.4401928,0.0367 -0.659539,-0.0608 -0.024842,-0.0129 -0.050248,-0.0248 -0.074528,-0.0387 -0.1173554,-0.0673 -0.2185223,-0.15851 -0.326499,-0.23905 -0.1383527,-0.11075 -0.2713128,-0.22959 -0.4251368,-0.31912 -0.066521,-0.0361 -0.093717,-0.0536 -0.1638164,-0.0809 -0.1100262,-0.0429 -0.2269849,-0.0657 -0.3446743,-0.0722 -0.150583,-0.005 -0.301651,0.003 -0.4497187,0.033 0,0 0.278569,-0.21091 0.278569,-0.21091 z"
       inkscape:connector-curvature="0"
       style="stroke-width:0.26458332" />
    <path
       id="path812"
       d="m 12.919117,281.7847 c 0.137755,-0.0683 0.280444,-0.12547 0.423056,-0.18276 0.155525,-0.0649 0.315592,-0.11212 0.481975,-0.13764 0.128113,-0.0219 0.252806,4.4e-4 0.374902,0.0391 0.131944,0.0461 0.259557,0.10353 0.390696,0.15202 0.159938,0.0604 0.324814,0.10436 0.491448,0.14149 0.178087,0.0359 0.358291,0.0561 0.539759,0.0605 0.176305,10e-4 0.34866,-0.0365 0.519051,-0.0774 0.154611,-0.0451 0.30321,-0.10849 0.444461,-0.18551 0.201268,-0.11538 -0.130713,0.0751 -0.168267,0.095 -0.02013,0.0107 0.03796,-0.0252 0.05654,-0.0384 0.04705,-0.0334 0.09099,-0.0695 0.133907,-0.10798 0.05972,-0.0556 0.113123,-0.11631 0.155866,-0.18582 0.01802,-0.0426 0.05083,-0.0845 0.0509,-0.13222 -0.01995,-0.0714 -0.08465,-0.11546 -0.141652,-0.15661 -0.135179,-0.0933 -0.280515,-0.16974 -0.429405,-0.23841 -0.208361,-0.0905 -0.428917,-0.14634 -0.651149,-0.18991 -0.270436,-0.0474 -0.545173,-0.0511 -0.818842,-0.0483 -0.269133,0.0107 -0.538087,0.0251 -0.807259,0.035 -0.140411,0.007 -0.280358,0.009 -0.420488,-0.002 -0.04354,-0.004 -0.08703,-0.009 -0.130732,-0.0104 -0.09353,0.0729 -0.222616,0.12738 0.276457,-0.15382 0.005,-0.003 -0.01047,0.005 -0.01452,0.009 -0.02196,0.0221 -0.03486,0.0519 -0.04962,0.0784 -0.126015,0.26779 -0.245174,0.53881 -0.36451,0.80964 -0.06881,0.15373 -0.13629,0.30803 -0.202965,0.46268 0,0 -0.298631,0.13683 -0.298631,0.13683 v 0 c 0.07,-0.1546 0.139217,-0.30953 0.207764,-0.46478 0.116389,-0.26688 0.234399,-0.5331 0.344735,-0.80256 0.06904,-0.15357 0.146418,-0.30542 0.387824,-0.28082 0.04225,0.004 0.08437,0.009 0.126577,0.0141 0.136026,0.0125 0.272236,0.01 0.408682,0.006 0.267741,-0.007 0.535192,-0.0211 0.802846,-0.0308 0.276121,-0.002 0.553504,0.002 0.826086,0.0515 0.224834,0.0454 0.448185,0.10168 0.658976,0.19405 0.15191,0.0693 0.300131,0.14695 0.43893,0.24017 0.06632,0.0479 0.135386,0.0977 0.161795,0.17883 0.01057,0.062 -0.02061,0.0976 -0.04346,0.15303 -0.04082,0.0741 -0.09318,0.13832 -0.154786,0.19648 -0.175346,0.16921 -0.395815,0.27869 -0.607411,0.39605 -0.143211,0.0738 -0.292217,0.13694 -0.448464,0.1776 -0.172112,0.04 -0.346476,0.0746 -0.524179,0.0702 -0.18255,-0.007 -0.364119,-0.0285 -0.543033,-0.0661 -0.168185,-0.0379 -0.334577,-0.0831 -0.496163,-0.14377 -0.131176,-0.0485 -0.258994,-0.10597 -0.392272,-0.14854 -0.119287,-0.035 -0.240274,-0.051 -0.363968,-0.0277 -0.163697,0.0276 -0.321107,0.0773 -0.474315,0.14138 -0.145673,0.0592 -0.290459,0.12015 -0.431105,0.19062 0,0 0.273977,-0.21712 0.273977,-0.21712 z"
       inkscape:connector-curvature="0"
       style="stroke-width:0.26458332" />
  </g>
</svg>
