<?xml version="1.0" encoding="UTF-8" standalone="no"?>
<!-- Created with Inkscape (http://www.inkscape.org/) -->

<svg
   xmlns:dc="http://purl.org/dc/elements/1.1/"
   xmlns:cc="http://creativecommons.org/ns#"
   xmlns:rdf="http://www.w3.org/1999/02/22-rdf-syntax-ns#"
   xmlns:svg="http://www.w3.org/2000/svg"
   xmlns="http://www.w3.org/2000/svg"
   xmlns:sodipodi="http://sodipodi.sourceforge.net/DTD/sodipodi-0.dtd"
   xmlns:inkscape="http://www.inkscape.org/namespaces/inkscape"
   width="64"
   height="64"
   viewBox="0 0 16.933333 16.933334"
   version="1.1"
   id="svg8"
   inkscape:version="0.92.1 r15371"
   sodipodi:docname="0_cube.svg"
   inkscape:export-filename="/home/physt/undev/repos/deep_learning/workshop/tasks/commonlearningdata/cartooncats/0_cube.png"
   inkscape:export-xdpi="96.000008"
   inkscape:export-ydpi="96.000008">
  <defs
     id="defs2" />
  <sodipodi:namedview
     id="base"
     pagecolor="#ffffff"
     bordercolor="#666666"
     borderopacity="1.0"
     inkscape:pageopacity="0.0"
     inkscape:pageshadow="2"
     inkscape:zoom="11.2"
     inkscape:cx="50.237003"
     inkscape:cy="29.986148"
     inkscape:document-units="mm"
     inkscape:current-layer="layer1"
     showgrid="false"
     inkscape:window-width="1920"
     inkscape:window-height="1016"
     inkscape:window-x="0"
     inkscape:window-y="27"
     inkscape:window-maximized="1"
     units="px" />
  <metadata
     id="metadata5">
    <rdf:RDF>
      <cc:Work
         rdf:about="">
        <dc:format>image/svg+xml</dc:format>
        <dc:type
           rdf:resource="http://purl.org/dc/dcmitype/StillImage" />
        <dc:title></dc:title>
      </cc:Work>
    </rdf:RDF>
  </metadata>
  <g
     inkscape:label="Layer 1"
     inkscape:groupmode="layer"
     id="layer1"
     transform="translate(0,-280.06665)">
    <path
       id="path1383"
       d="m 4.1233769,285.8629 c -0.024783,0.11134 -0.040765,0.22437 -0.053256,0.33767 -0.017775,0.19724 -0.019783,0.39542 -0.021952,0.59331 -0.00392,0.19091 0.00329,0.38178 0.017092,0.57217 0.014237,0.16291 0.022566,0.32621 0.034814,0.48927 0.012391,0.1602 0.027321,0.32008 0.035938,0.48056 0.00704,0.13521 0.00892,0.27062 0.00963,0.40599 -9.79e-4,0.11532 0.011253,0.23015 0.017203,0.34521 0.00259,0.12109 0.00861,0.24188 0.016108,0.36275 0.00745,0.12788 0.011115,0.25595 0.013422,0.38401 6.086e-4,0.11214 -2.286e-4,0.22412 0.00704,0.33606 0.0096,0.12305 0.013086,0.24639 0.015034,0.36975 -0.00408,0.13575 -0.012899,0.27127 -0.017142,0.40702 -0.00349,0.1112 -0.00557,0.22221 0.00225,0.33323 0.00533,0.10381 0.019569,0.20676 0.02956,0.31016 0.00827,0.0822 0.010851,0.16478 0.012668,0.24732 0.00257,0.0511 0.0022,0.10124 -0.00733,0.1515 -0.00797,0.0233 -0.00624,0.0493 -0.0137,0.0725 0,0 -0.3269258,0.13385 -0.3269258,0.13385 v 0 c 5.292e-4,0 0.013131,1e-5 0.013459,-3.4e-4 0.00736,-0.008 0.00421,-0.044 0.01088,-0.0534 0.012263,-0.0482 0.016883,-0.0956 0.013446,-0.1455 -4.498e-4,-0.0821 -0.00225,-0.16426 -0.00902,-0.24613 -0.00925,-0.10374 -0.024231,-0.20688 -0.029619,-0.31096 -0.00814,-0.11241 -0.0074,-0.22476 -0.00217,-0.33736 0.00513,-0.13524 0.012909,-0.27035 0.018195,-0.40557 -0.00225,-0.12264 -0.00583,-0.24529 -0.015428,-0.36762 -0.00781,-0.11249 -0.00894,-0.22486 -0.00809,-0.33762 -9.525e-4,-0.1278 -0.00287,-0.25564 -0.011134,-0.38321 -0.00796,-0.12072 -0.016454,-0.24126 -0.017957,-0.36229 -0.00588,-0.11571 -0.017253,-0.23128 -0.01692,-0.34718 -3.704e-4,-0.13533 -6.614e-4,-0.27069 -0.00624,-0.40592 -0.00773,-0.16029 -0.022945,-0.31986 -0.035605,-0.47978 -0.012576,-0.16327 -0.019693,-0.32683 -0.033583,-0.49 -0.014277,-0.1917 -0.019082,-0.38395 -0.015415,-0.57615 0.00135,-0.19807 0.00254,-0.39634 0.016724,-0.59399 0.00926,-0.11206 0.022238,-0.22387 0.043105,-0.33441 0,0 0.3149055,-0.15486 0.3149055,-0.15486 z"
       inkscape:connector-curvature="0"
       style="stroke-width:0.26458332" />
    <path
       id="path1385"
       d="m 4.0387616,285.70897 c 0.09692,0.0359 0.1983851,0.057 0.2987037,0.0811 0.1798127,0.0421 0.3588716,0.0874 0.5403337,0.12199 0.2174153,0.0394 0.436458,0.0692 0.6553689,0.0989 0.2400737,0.0288 0.4811705,0.048 0.7226372,0.06 0.2480834,0.002 0.4963996,-8.2e-4 0.7443028,-0.0108 0.2384221,-0.006 0.4759097,-0.0259 0.712915,-0.0517 0.2170761,-0.0299 0.4350877,-0.0527 0.6515783,-0.0867 0.179076,-0.0242 0.3560312,-0.0612 0.5343276,-0.0902 0.1471062,-0.0189 0.2943489,-0.0362 0.4412538,-0.0568 0.111705,-0.0177 0.2244082,-0.0295 0.3360928,-0.0472 0.093818,-0.0145 0.188419,-0.0211 0.2825803,-0.0328 0.084802,-0.012 0.1707423,-0.0217 0.2546193,-0.0393 0.05755,-0.0139 0.116094,-0.0216 0.175111,-0.0252 0.03383,-0.009 0.06732,-0.0202 0.102363,-0.0239 0.02407,0.005 0.0409,0.0182 0.05771,0.0349 0.01936,0.0199 0.02252,0.0504 0.02929,0.0763 0.0163,0.0799 0.01371,0.16207 0.01811,0.24312 0.01217,0.15605 0.01511,0.31254 0.01738,0.46898 0.0017,0.21821 0.001,0.43644 0.0011,0.65467 -9.78e-4,0.23397 -1.23e-4,0.46794 7.6e-5,0.70191 0.0052,0.19989 0.015,0.3996 0.02076,0.59947 0.0046,0.17013 0.0044,0.34034 0.0051,0.51052 1.17e-4,0.14959 9e-4,0.29917 0.0012,0.44875 -3.18e-4,0.13033 2.91e-4,0.26067 3.96e-4,0.391 1.64e-4,0.11704 4.77e-4,0.23407 1.79e-4,0.3511 0.0034,0.11473 -0.0056,0.22903 -0.01295,0.3434 -0.006,0.0862 -0.008,0.17265 -0.0087,0.25905 0.0027,0.0796 -0.0068,0.15857 -0.01398,0.23765 -0.0023,0.0658 -0.01217,0.13055 -0.02169,0.19552 -0.0074,0.0402 -0.01934,0.0791 -0.03869,0.11512 -0.02581,0.0401 -0.06112,0.0727 -0.09991,0.0999 -0.15735,0.10076 -0.314856,0.20889 -0.4965303,0.25728 -0.091997,0.0278 -0.1859999,0.0498 -0.2804255,0.0678 -0.1226285,0.0272 -0.2474206,0.0447 -0.372237,0.0584 -0.1481984,0.0206 -0.297588,0.0308 -0.4466352,0.0433 -0.1649576,0.0198 -0.3306548,0.0319 -0.4961403,0.0462 -0.1767022,0.0199 -0.3536251,0.0377 -0.5303308,0.0576 -0.1830432,0.0191 -0.3666027,0.0325 -0.5498211,0.0496 -0.1919607,0.0194 -0.3848579,0.0249 -0.577623,0.0292 -0.1938022,0.003 -0.3876307,0.002 -0.581448,0.003 -0.1888048,5e-5 -0.3776097,-9e-5 -0.5664145,-1.6e-4 -0.1745075,2.1e-4 -0.3490153,2.6e-4 -0.5235231,5.6e-4 -0.1541433,-1.5e-4 -0.3082861,3.1e-4 -0.4624289,6.1e-4 -0.1325645,-1.2e-4 -0.2651284,3.1e-4 -0.3976926,4.2e-4 -0.105787,-0.004 -0.2107094,0.003 -0.3159373,0.0127 -0.084179,0.007 -0.1686338,0.0103 -0.253088,0.0116 -0.059549,0.005 -0.1176174,-0.005 -0.1759109,-0.0152 -0.016486,-2.9e-4 -0.026947,-0.01 -0.03869,-0.0196 0,0 0.2978292,-0.18899 0.2978292,-0.18899 v 0 c 0.009,0.005 0.0186,0.005 0.028466,0.007 0.056011,0.0104 0.1121442,0.0152 0.1692106,0.0114 0.083653,-0.002 0.1672971,-0.005 0.2506519,-0.0127 0.1050653,-0.009 0.2101287,-0.0114 0.3155548,-0.009 0.132184,8e-5 0.2643674,5.3e-4 0.3965517,4.2e-4 0.1535954,2.7e-4 0.307191,7.4e-4 0.4607869,6.1e-4 0.1739498,2.9e-4 0.3478998,3.7e-4 0.5218494,6.9e-4 0.1886825,6e-5 0.3773651,1.8e-4 0.5660477,4.2e-4 0.1937382,2e-4 0.3874958,8e-5 0.5812097,-0.003 0.1924338,-0.004 0.3848481,-0.0117 0.5764273,-0.0312 0.1833806,-0.0165 0.3669305,-0.0312 0.5500362,-0.0506 0.1771883,-0.0192 0.3543406,-0.0386 0.5315558,-0.0575 0.1656176,-0.0147 0.3314333,-0.0271 0.4966005,-0.0465 0.149452,-0.0133 0.2991998,-0.0242 0.4478141,-0.0454 0.1248246,-0.0154 0.2494002,-0.0342 0.3721222,-0.062 0.094378,-0.0204 0.1885055,-0.0427 0.2805685,-0.072 0.03604,-0.0122 0.07204,-0.0245 0.106381,-0.0411 0.01068,-0.005 0.04167,-0.0227 0.03143,-0.0167 -0.07533,0.0441 -0.3765514,0.2179 -0.24205,0.1403 0.03863,-0.0243 0.07531,-0.0497 0.104017,-0.0861 0.02397,-0.0304 0.03574,-0.0654 0.04605,-0.10245 0.01121,-0.0645 0.0234,-0.12877 0.02471,-0.19442 0.0074,-0.0783 0.01844,-0.15638 0.01536,-0.23521 0.0014,-0.0873 0.003,-0.17463 0.0094,-0.26171 0.0089,-0.11382 0.0198,-0.22764 0.01551,-0.34196 -2.91e-4,-0.11709 1.3e-5,-0.23419 1.87e-4,-0.35128 1.06e-4,-0.13049 7.41e-4,-0.26099 5.29e-4,-0.39148 3.97e-4,-0.14996 0.0014,-0.29992 0.0012,-0.44989 9.9e-5,-0.17014 -7.14e-4,-0.34028 -0.0036,-0.5104 -0.0041,-0.20069 -0.01245,-0.40124 -0.01782,-0.6019 2.91e-4,-0.23404 0.0013,-0.46808 3.44e-4,-0.70212 -1.27e-4,-0.21747 -3.7e-4,-0.43494 -0.0042,-0.65239 -0.0032,-0.15506 -0.0077,-0.3102 -0.02187,-0.46472 -0.0064,-0.078 -0.0055,-0.157 -0.02076,-0.23398 -0.0054,-0.0192 -0.008,-0.0434 -0.02104,-0.0586 -0.01134,-0.01 -0.024,-0.014 -0.03884,-0.009 -0.03403,0.008 -0.06767,0.018 -0.102622,0.0203 -0.05763,0.005 -0.1144986,0.0152 -0.1711366,0.0269 -0.084615,0.0137 -0.1694254,0.0268 -0.254576,0.0366 -0.093898,0.0114 -0.1883577,0.0178 -0.2817503,0.0332 -0.1112536,0.0151 -0.222576,0.0296 -0.3337761,0.0451 -0.1460339,0.0199 -0.2925741,0.0354 -0.4385038,0.0559 -0.177265,0.0298 -0.3538389,0.064 -0.5320564,0.0879 -0.2164048,0.0317 -0.4338148,0.056 -0.6506985,0.0842 -0.2371452,0.0246 -0.4747519,0.043 -0.7131751,0.049 -0.2484329,0.009 -0.4972516,0.0129 -0.7458035,0.008 -0.2424668,-0.0127 -0.4846709,-0.0317 -0.7257143,-0.0612 -0.2196899,-0.0294 -0.4394369,-0.0595 -0.6574805,-0.0996 -0.1831777,-0.035 -0.3642871,-0.0794 -0.54639,-0.11944 -0.1028983,-0.0233 -0.2056977,-0.0466 -0.3065696,-0.0777 0,0 0.2894505,-0.19823 0.2894505,-0.19823 z"
       inkscape:connector-curvature="0"
       style="stroke-width:0.26458332" />
    <path
       id="path1387"
       d="m 10.320381,285.78163 c 0.09399,-0.0942 0.190502,-0.1857 0.289584,-0.27455 0.153795,-0.13716 0.312461,-0.2688 0.471511,-0.3998 0.170941,-0.1422 0.341701,-0.28459 0.513182,-0.42614 0.158538,-0.12838 0.317214,-0.25658 0.473592,-0.38758 0.156411,-0.1258 0.310289,-0.25441 0.462519,-0.38518 0.136664,-0.11871 0.269419,-0.24175 0.40333,-0.36352 0.12265,-0.10712 0.241509,-0.21837 0.361655,-0.32826 0.09549,-0.0931 0.198563,-0.17751 0.298196,-0.26591 0.06565,-0.0558 0.129697,-0.11364 0.19745,-0.16694 0.128494,-0.10692 0.274073,-0.17605 0.421099,-0.26113 0.03143,-0.0159 0.05718,-0.0138 0.0837,0.009 0.02822,0.0254 0.03047,0.0639 0.03265,0.0994 0.0015,0.0766 5.29e-4,0.15334 -1.41e-4,0.23 -0.0015,0.14028 -0.0027,0.28057 -0.003,0.42087 0.0061,0.19411 0.01329,0.38816 0.0176,0.58233 8.4e-5,0.21986 0.0062,0.43945 0.01433,0.65914 0.01201,0.20784 0.005,0.41588 -5.29e-4,0.62378 -0.01036,0.18055 -0.02155,0.36097 -0.02691,0.54175 -0.0042,0.17403 -0.005,0.34813 -0.005,0.5222 0.0012,0.16457 -0.0023,0.32926 0.0032,0.49376 0.0045,0.15277 0.02114,0.30468 0.03279,0.45696 0.01335,0.12626 0.02339,0.2528 0.03871,0.37884 0.0085,0.0958 0.02354,0.19081 0.03551,0.28622 0.01105,0.0665 0.0209,0.13331 0.03666,0.19892 0.01177,0.0486 0.02732,0.0959 0.03795,0.14477 0.01044,0.033 0.02175,0.0654 0.02804,0.0995 0.004,0.0266 0.0083,0.0535 0.0014,0.0798 -0.0084,0.0319 -0.02017,0.0617 -0.03752,0.0897 -0.0293,0.0474 -0.06431,0.0898 -0.10295,0.12976 -0.06325,0.0654 -0.129067,0.12859 -0.196923,0.18921 -0.09693,0.0902 -0.205838,0.16531 -0.310916,0.24531 -0.132196,0.10225 -0.266472,0.20172 -0.39772,0.30521 -0.153537,0.11522 -0.305677,0.23238 -0.460865,0.34538 -0.193532,0.14365 -0.392025,0.28051 -0.590952,0.41654 -0.243475,0.16406 -0.480926,0.33662 -0.718718,0.50872 -0.221318,0.15685 -0.4399,0.31742 -0.663697,0.47075 -0.160893,0.11373 -0.32195,0.22721 -0.483223,0.34039 -0.101072,0.071 -0.202506,0.14153 -0.300169,0.21715 -0.136077,0.10588 -0.2919103,0.18021 -0.4421254,0.26407 -0.00418,-2.9e-4 -0.00836,-5.8e-4 -0.012541,-8.7e-4 0,0 0.2819804,-0.21167 0.2819804,-0.21167 v 0 c 0.0026,-0.001 0.0052,-0.003 0.0078,-0.004 -0.5542967,0.3198 -0.2742212,0.16613 -0.1564388,0.0811 0.098529,-0.0779 0.2020178,-0.14915 0.3049768,-0.22096 0.163034,-0.11464 0.327428,-0.22736 0.489501,-0.34338 0.225624,-0.15285 0.445357,-0.31386 0.667721,-0.47136 0.237715,-0.17148 0.474159,-0.34474 0.717011,-0.50897 0.197363,-0.13475 0.393876,-0.271 0.585747,-0.41348 0.154954,-0.11188 0.305468,-0.22972 0.459276,-0.34315 0.129866,-0.10401 0.263619,-0.20285 0.395159,-0.30469 0.102946,-0.0807 0.212748,-0.15253 0.308556,-0.24209 0.06806,-0.0584 0.131622,-0.12187 0.195185,-0.18496 0.03654,-0.0395 0.07711,-0.0756 0.102424,-0.12418 0.0196,-0.024 0.03427,-0.0486 0.0411,-0.079 0.0022,-0.006 0.007,-0.0113 0.0088,-0.0176 0.0042,-0.0147 -0.0039,-0.0331 -0.0026,-0.048 -0.0047,-0.0341 -0.0154,-0.0664 -0.0266,-0.0989 -0.0087,-0.0491 -0.02464,-0.0959 -0.03623,-0.1442 -0.01579,-0.0672 -0.02497,-0.13549 -0.03665,-0.20356 -0.01027,-0.0959 -0.02579,-0.19117 -0.03312,-0.28741 -0.01452,-0.12693 -0.0238,-0.25429 -0.03722,-0.38135 -0.01052,-0.15294 -0.02694,-0.30543 -0.03212,-0.45871 -0.0063,-0.16508 -0.0014,-0.33032 -0.0027,-0.49549 4.5e-4,-0.17441 1.29e-4,-0.34885 0.0049,-0.52321 0.0057,-0.18099 0.01491,-0.36175 0.02821,-0.54235 0.0065,-0.20758 0.01526,-0.41528 0.0037,-0.62289 -0.0081,-0.21961 -0.01494,-0.43918 -0.01583,-0.65896 -0.0041,-0.19393 -0.0121,-0.38767 -0.021,-0.58142 -1.82e-4,-0.13939 -0.0013,-0.27878 -0.0024,-0.41816 -4.5e-4,-0.0754 -2e-6,-0.15082 -0.0027,-0.22618 -0.0012,-0.0222 0.0024,-0.0548 -0.01757,-0.0696 -0.02198,-0.004 -0.04162,0.0114 -0.06072,0.0209 0.534756,-0.31131 0.28419,-0.17754 0.17578,-0.0884 -0.06942,0.0528 -0.134966,0.11004 -0.201784,0.16607 -0.100101,0.0896 -0.20591,0.17257 -0.301793,0.26694 -0.120822,0.11002 -0.239558,0.22224 -0.363228,0.32907 -0.134953,0.12144 -0.267326,0.24575 -0.404303,0.36495 -0.153227,0.13016 -0.305402,0.26141 -0.463497,0.38578 -0.155458,0.13241 -0.315072,0.25989 -0.473977,0.38815 -0.171753,0.14183 -0.343595,0.28352 -0.514286,0.42664 -0.15784,0.12972 -0.314875,0.26065 -0.467331,0.39667 -0.09703,0.086 -0.191761,0.1745 -0.280821,0.26881 0,0 -0.323579,0.13403 -0.323579,0.13403 z"
       inkscape:connector-curvature="0"
       style="stroke-width:0.26458332" />
    <path
       id="path1389"
       d="m 3.8704096,285.64131 c 0.1018246,-0.0801 0.1959256,-0.16964 0.2887631,-0.25985 0.1366909,-0.12911 0.26738,-0.26438 0.3992761,-0.39834 0.1283975,-0.13473 0.2647071,-0.26142 0.3995674,-0.38956 0.1292751,-0.12303 0.25953,-0.24503 0.3894899,-0.36734 0.1242666,-0.12048 0.2553957,-0.23348 0.3851209,-0.34796 0.1238009,-0.11096 0.2443954,-0.22543 0.3655809,-0.33923 0.1147286,-0.10201 0.2301589,-0.20316 0.3424991,-0.30781 0.087882,-0.0831 0.1762408,-0.16569 0.2656224,-0.24718 0.055687,-0.0582 0.1178681,-0.10918 0.1781537,-0.16235 0.1267574,-0.10791 0.2808259,-0.18055 0.4231399,-0.26322 0.047001,-0.0204 0.094332,-0.0381 0.1441831,-0.051 0.063258,-0.0158 0.1285682,-0.018 0.1934126,-0.0195 0.1002088,4e-4 0.2000652,0.0148 0.2995869,0.0258 0.1770708,0.0159 0.3529801,0.0422 0.5296103,0.0623 0.2532079,0.0227 0.5070637,0.0377 0.7610772,0.0477 0.2813984,0.0129 0.562837,0.007 0.8442519,-3.6e-4 0.267471,-0.008 0.535047,-0.0105 0.802616,-0.0124 0.248634,-0.003 0.497437,-0.01 0.745816,-0.0219 0.247842,-0.0127 0.495788,-0.0245 0.743362,-0.0418 0.233609,-0.0134 0.466811,-0.0317 0.699902,-0.052 0.201429,-0.0167 0.402815,-0.0339 0.604092,-0.0523 0.165741,-0.0113 0.331392,-0.0227 0.497048,-0.0352 0.125169,-0.005 0.249666,-0.0186 0.374447,-0.029 0.07695,-0.006 0.154055,-0.009 0.231201,-0.0101 0.03417,0.003 0.07327,-0.009 0.105008,0.006 0.0094,-10e-4 0.0051,-1.5e-4 0.01303,-0.002 0,0 -0.286106,0.20718 -0.286106,0.20718 v 0 c -0.01079,-0.003 -0.005,-10e-4 -0.01724,-0.005 -0.0322,0.003 -0.0648,-10e-4 -0.09706,4.5e-4 -0.07558,0.001 -0.151155,0.004 -0.226531,0.009 -0.123911,0.01 -0.247617,0.0215 -0.371828,0.0268 -0.164602,0.0116 -0.329297,0.0213 -0.493845,0.0335 -0.200489,0.0177 -0.401062,0.0344 -0.601685,0.0504 -0.232678,0.0196 -0.465495,0.037 -0.698634,0.0503 -0.247814,0.0158 -0.495767,0.0297 -0.743813,0.0413 -0.248392,0.011 -0.497077,0.019 -0.745712,0.0202 -0.266944,10e-4 -0.533878,0.005 -0.8007385,0.0118 -0.2818974,0.007 -0.5637924,0.0114 -0.8456494,-0.001 -0.2560402,-0.01 -0.5119676,-0.0244 -0.7672543,-0.0463 -0.1783503,-0.0198 -0.3562631,-0.0438 -0.5351793,-0.0581 -0.099818,-0.0102 -0.200224,-0.0222 -0.3006971,-0.019 -0.06374,0.003 -0.1277824,0.008 -0.189067,0.0271 -0.048069,0.0159 -0.095437,0.0335 -0.1401371,0.0576 0.5253707,-0.30749 0.2799969,-0.17337 0.1729674,-0.0875 -0.062997,0.0511 -0.1255239,0.10373 -0.1816376,0.16249 -0.09069,0.0817 -0.1807591,0.16396 -0.2691839,0.24807 -0.1124569,0.1054 -0.2278329,0.20751 -0.3442504,0.30851 -0.1218777,0.11352 -0.2420223,0.22891 -0.365846,0.34034 -0.1292696,0.11483 -0.2615456,0.22638 -0.3855217,0.34704 -0.1303406,0.12224 -0.2607088,0.24443 -0.3902707,0.36747 -0.1352029,0.12816 -0.2722076,0.25451 -0.4012147,0.389 -0.1312019,0.13341 -0.260717,0.26863 -0.3962279,0.3977 -0.089859,0.0892 -0.1812059,0.17756 -0.2784144,0.25866 0,0 -0.325084,0.13122 -0.325084,0.13122 z"
       inkscape:connector-curvature="0"
       style="stroke-width:0.26458332" />
  </g>
</svg>
