<?xml version="1.0" encoding="UTF-8" standalone="no"?>
<!-- Created with Inkscape (http://www.inkscape.org/) -->

<svg
   xmlns:dc="http://purl.org/dc/elements/1.1/"
   xmlns:cc="http://creativecommons.org/ns#"
   xmlns:rdf="http://www.w3.org/1999/02/22-rdf-syntax-ns#"
   xmlns:svg="http://www.w3.org/2000/svg"
   xmlns="http://www.w3.org/2000/svg"
   xmlns:sodipodi="http://sodipodi.sourceforge.net/DTD/sodipodi-0.dtd"
   xmlns:inkscape="http://www.inkscape.org/namespaces/inkscape"
   width="64"
   height="64"
   viewBox="0 0 16.933333 16.933334"
   version="1.1"
   id="svg8"
   inkscape:version="0.92.1 r15371"
   sodipodi:docname="0_gears.svg"
   inkscape:export-filename="/home/physt/undev/repos/deep_learning/workshop/tasks/commonlearningdata/cartooncats/0_gears.png"
   inkscape:export-xdpi="96.000008"
   inkscape:export-ydpi="96.000008">
  <defs
     id="defs2" />
  <sodipodi:namedview
     id="base"
     pagecolor="#ffffff"
     bordercolor="#666666"
     borderopacity="1.0"
     inkscape:pageopacity="0.0"
     inkscape:pageshadow="2"
     inkscape:zoom="11.2"
     inkscape:cx="50.237003"
     inkscape:cy="29.986148"
     inkscape:document-units="mm"
     inkscape:current-layer="layer1"
     showgrid="false"
     inkscape:window-width="1920"
     inkscape:window-height="1016"
     inkscape:window-x="0"
     inkscape:window-y="27"
     inkscape:window-maximized="1"
     units="px" />
  <metadata
     id="metadata5">
    <rdf:RDF>
      <cc:Work
         rdf:about="">
        <dc:format>image/svg+xml</dc:format>
        <dc:type
           rdf:resource="http://purl.org/dc/dcmitype/StillImage" />
        <dc:title></dc:title>
      </cc:Work>
    </rdf:RDF>
  </metadata>
  <g
     inkscape:label="Layer 1"
     inkscape:groupmode="layer"
     id="layer1"
     transform="translate(0,-280.06665)">
    <path
       id="path1447"
       d="m 6.5468065,285.89412 c -0.1031279,0.10533 -0.2008706,0.21561 -0.2948892,0.3291 -0.1260224,0.15751 -0.2329622,0.32874 -0.3368982,0.50124 -0.105591,0.17897 -0.1893723,0.36943 -0.2596436,0.56465 -0.067957,0.19871 -0.1129979,0.40395 -0.1484381,0.61062 -0.029708,0.19624 -0.047594,0.39373 -0.057143,0.59188 -0.011118,0.17658 -0.00114,0.35319 0.0068,0.52963 0.00704,0.16256 0.038604,0.32266 0.075029,0.48082 0.037342,0.15899 0.090406,0.31296 0.1521555,0.4639 0.056967,0.14787 0.1395346,0.28381 0.2300372,0.41322 0.099317,0.13388 0.2152253,0.25436 0.3367709,0.36802 0.1297877,0.12505 0.2730759,0.23303 0.4221147,0.33371 0.1701993,0.10888 0.3448362,0.21045 0.5231402,0.30542 0.2060223,0.10275 0.4213752,0.18319 0.6412058,0.25048 0.2220106,0.0662 0.4503256,0.10814 0.6789822,0.14363 0.2187726,0.0386 0.4403982,0.0527 0.6620484,0.0607 0.208929,0.0118 0.4173243,-0.002 0.6250442,-0.0239 0.2216635,-0.0226 0.4385255,-0.0732 0.6516935,-0.13651 0.227175,-0.0727 0.448145,-0.16362 0.668096,-0.25557 0.037,-0.0166 0.07423,-0.0328 0.110986,-0.0499 0.04313,-0.0202 0.17983,-0.0872 0.22206,-0.1096 0.03532,-0.0187 0.139137,-0.0788 0.104708,-0.0585 -0.312652,0.18447 -0.187068,0.10726 -0.08285,0.0415 0.184604,-0.1131 0.354667,-0.24706 0.517505,-0.38918 0.148109,-0.12682 0.273563,-0.27484 0.389084,-0.4311 0.121277,-0.16325 0.203358,-0.34875 0.277897,-0.5366 0.07547,-0.19421 0.113645,-0.3994 0.144565,-0.60457 0.02979,-0.22506 0.03366,-0.45239 0.03693,-0.67905 -3.97e-4,-0.23182 -0.01539,-0.46313 -0.02941,-0.6944 -0.008,-0.19956 -0.04342,-0.39525 -0.09428,-0.58784 -0.04537,-0.18588 -0.122289,-0.36133 -0.196311,-0.53705 -0.07367,-0.17734 -0.163211,-0.34719 -0.257692,-0.51413 -0.07311,-0.13614 -0.163523,-0.26013 -0.272664,-0.3692 -0.119257,-0.11149 -0.263786,-0.19061 -0.405436,-0.26967 -0.170723,-0.0962 -0.351484,-0.1718 -0.536036,-0.23672 -0.185277,-0.0666 -0.376782,-0.11627 -0.569189,-0.15761 -0.198224,-0.0443 -0.401275,-0.0586 -0.6032444,-0.0749 -0.2109554,-0.0171 -0.4223361,-0.0196 -0.6337434,-0.0135 -0.2066314,0.006 -0.4127646,0.024 -0.6182363,0.046 -0.2157235,0.022 -0.4264581,0.0743 -0.6366645,0.12544 -0.2046689,0.0501 -0.4067961,0.11081 -0.6052007,0.18172 -0.1705073,0.06 -0.334513,0.13499 -0.4954961,0.21665 -0.1022948,0.0563 -0.3721867,0.19513 0.1008409,-0.0604 0.01937,-0.0105 -0.037108,0.0237 -0.055386,0.036 -0.030736,0.0206 -0.072998,0.051 -0.1032913,0.0726 -0.048189,0.0339 -0.093833,0.0712 -0.1393179,0.10858 0,0 -0.3199934,0.12898 -0.3199934,0.12898 v 0 c 0.045854,-0.038 0.09138,-0.0764 0.1396489,-0.11134 0.2039787,-0.14542 0.4186023,-0.27545 0.643123,-0.38703 0.1607674,-0.0804 0.3256084,-0.15207 0.4955169,-0.21111 0.1992434,-0.0687 0.4012536,-0.1297 0.6063769,-0.17834 0.2112779,-0.0506 0.4231483,-0.10166 0.6399405,-0.12234 0.2060644,-0.0211 0.4126296,-0.0395 0.6198214,-0.044 0.2121368,-0.005 0.4242485,-2.6e-4 0.6358695,0.0165 0.203325,0.017 0.407583,0.0321 0.606983,0.0778 0.193006,0.0434 0.385094,0.0938 0.571143,0.16141 0.185798,0.0668 0.367694,0.14422 0.540322,0.24059 0.144902,0.0802 0.292252,0.16104 0.412957,0.2762 0.110745,0.11188 0.201753,0.23903 0.275276,0.37849 0.09309,0.16911 0.183721,0.33975 0.258207,0.51808 0.07511,0.17692 0.152801,0.35374 0.199113,0.54095 0.05249,0.19725 0.08649,0.3905 0.09508,0.59508 0.01275,0.23231 0.02788,0.46453 0.0289,0.6973 -0.0024,0.22755 -0.0047,0.45572 -0.03265,0.6819 -0.02956,0.2073 -0.06739,0.41445 -0.140906,0.61134 -0.07368,0.18969 -0.15373,0.37778 -0.273271,0.544 -0.114391,0.15891 -0.238899,0.30963 -0.387381,0.43836 -0.162377,0.14447 -0.332613,0.28056 -0.517862,0.39491 -0.296115,0.19096 -0.604657,0.36445 -0.92836,0.50422 -0.220855,0.0914 -0.442383,0.18265 -0.670987,0.25316 -0.2151496,0.0619 -0.4339029,0.11106 -0.6571173,0.13287 -0.208507,0.0201 -0.4175567,0.0324 -0.6270514,0.0196 -0.2222314,-0.009 -0.4443185,-0.0249 -0.6635636,-0.0645 -0.2295104,-0.0369 -0.4586409,-0.0799 -0.6812952,-0.14786 -0.2212493,-0.0693 -0.4385238,-0.1507 -0.6460056,-0.2549 -0.1795878,-0.0956 -0.3562056,-0.19684 -0.527345,-0.30697 -0.1501164,-0.10211 -0.2948,-0.2113 -0.425596,-0.33776 -0.1233924,-0.11536 -0.2409791,-0.23729 -0.3416962,-0.37331 -0.092135,-0.13131 -0.1754102,-0.26984 -0.2334963,-0.41988 -0.063198,-0.15232 -0.1158754,-0.30831 -0.1546392,-0.46876 -0.038161,-0.15979 -0.069483,-0.32213 -0.078035,-0.48651 -0.0068,-0.17767 -0.017309,-0.35552 -0.00644,-0.53328 0.010245,-0.19956 0.02756,-0.39847 0.057027,-0.59621 0.034149,-0.20834 0.080112,-0.4148 0.1454814,-0.61576 0.069268,-0.19725 0.1529665,-0.38927 0.2571346,-0.57085 0.103352,-0.17326 0.2094986,-0.34534 0.3332297,-0.50503 0.090968,-0.11216 0.1864487,-0.2201 0.2827075,-0.32768 0,0 0.3235791,-0.13403 0.3235791,-0.13403 z"
       inkscape:connector-curvature="0"
       style="stroke-width:0.26458332" />
    <path
       id="path1449"
       d="m 10.273817,285.28388 c 0.07669,-0.0867 0.142968,-0.18159 0.210223,-0.27558 0.07134,-0.10255 0.141836,-0.20568 0.21388,-0.30775 0.0681,-0.10131 0.136283,-0.20252 0.208795,-0.30074 0.0538,-0.0763 0.114551,-0.14739 0.166402,-0.22504 0.03637,-0.0531 0.07198,-0.10656 0.106226,-0.16102 0.0312,-0.0401 0.05923,-0.0823 0.08738,-0.12456 0.02435,-0.0362 0.0517,-0.0702 0.07721,-0.10557 0.01803,-0.0251 0.03921,-0.0483 0.06223,-0.069 0.02125,-0.0232 0.0445,-0.0442 0.06873,-0.0643 0.01718,-0.0151 0.03886,-0.0244 0.05145,-0.0442 0.200284,-0.13862 0.212163,-0.18369 0.357923,-0.17632 0.02164,-0.003 0.03649,0.0105 0.05588,0.0169 0.02837,0.0111 0.05588,0.0247 0.08075,0.0427 0.04432,0.0341 0.09258,0.0624 0.137358,0.0962 0.05948,0.0388 0.119688,0.0765 0.17974,0.11446 0.07035,0.0439 0.136908,0.094 0.209356,0.13433 0.06591,0.0368 0.128825,0.0783 0.193596,0.11699 0.05735,0.035 0.119479,0.0609 0.177001,0.0955 0.0421,0.0246 0.08827,0.0421 0.130153,0.0668 0.02318,0.0165 0.04966,0.0225 0.07255,0.039 0.0181,0.0106 0.03251,0.0239 0.04252,0.0429 0.0076,0.0155 0.0101,0.032 0.01069,0.0491 -2.91e-4,0.024 -0.01208,0.0476 -0.023,0.0688 -0.01389,0.0342 -0.03301,0.0657 -0.05068,0.098 -0.0345,0.0609 -0.07361,0.11897 -0.110694,0.17827 -0.05018,0.0876 -0.103988,0.17312 -0.155474,0.25999 -0.04864,0.0898 -0.104856,0.17501 -0.164209,0.25801 -0.04738,0.0685 -0.09962,0.13333 -0.150529,0.19918 -0.02972,0.0464 -0.06819,0.0861 -0.101136,0.13003 -0.0119,0.0216 -0.0325,0.0388 -0.04198,0.0613 -0.06794,0.10745 -0.261012,0.15962 -0.329028,0.19734 -0.0984,0.0546 0.196204,-0.11019 0.294305,-0.16528 -0.0094,0.006 -0.01765,0.004 -0.0194,0.0167 -0.0022,0.0134 0.0035,0.0189 0.01104,0.0321 0.0079,0.0131 0.01119,0.0284 0.01314,0.0434 -5.55e-4,0.01 0.0087,0.0192 0.01432,0.0301 0.008,0.0117 0.01482,0.0251 0.02417,0.0356 0.0122,0.0113 0.02722,0.0146 0.042,0.0235 0.02053,0.005 0.03709,0.0123 0.05405,0.0245 0.01706,0.008 0.03312,0.0169 0.04936,0.0274 0.01439,0.0138 0.02255,0.0351 0.03883,0.0467 0.01594,0.0163 0.03258,0.0324 0.05103,0.0461 0.01641,0.0192 0.03412,0.0371 0.05024,0.0564 0.01301,0.02 0.02808,0.0385 0.03976,0.0593 0.01699,0.0157 0.02301,0.0392 0.03288,0.0594 0.01164,0.0221 0.02471,0.0433 0.03853,0.0642 0.01488,0.0269 0.02781,0.0547 0.04177,0.0821 0.01267,0.0272 0.02593,0.0536 0.03405,0.0827 0.01115,0.0229 0.02172,0.0452 0.02712,0.0702 0.0033,0.0264 0.01458,0.0506 0.02109,0.0763 0.0063,0.0247 0.01461,0.0494 0.02454,0.0729 0.01383,0.0273 0.02068,0.0569 0.03169,0.0852 0.0082,0.0268 0.02265,0.0509 0.03279,0.0769 0.0059,0.0234 0.01496,0.0454 0.02468,0.0675 0.0026,0.0174 0.0094,0.0276 0.0182,0.0405 0.0092,0.0125 0.01415,0.0264 0.0169,0.0416 -0.0052,-0.006 0.0039,-0.002 0.0038,-0.003 -0.02273,-0.13599 -0.377186,0.26446 -0.29616,0.14949 0.0056,-0.0122 0.01817,-0.0174 0.02292,-0.0292 9.79e-4,-0.0163 0.01504,-0.0319 0.02504,-0.0455 0.01294,-0.0172 0.02795,-0.0326 0.04288,-0.048 0.01845,-0.0199 0.04163,-0.035 0.06402,-0.0505 0.02067,-0.0223 0.04166,-0.0444 0.0677,-0.0606 0.102112,-0.0796 0.23858,-0.14274 0.338557,-0.19676 0.09804,-0.053 -0.383375,0.22712 -0.290272,0.16587 0.100832,-0.0663 0.20887,-0.12099 0.3135,-0.18115 0.09639,-0.0554 -0.192523,0.11129 -0.288784,0.16694 0.02352,-0.0182 0.04849,-0.0343 0.07143,-0.0533 0.09841,-0.0838 0.267675,-0.15767 0.342285,-0.20329 0.09347,-0.0571 -0.189642,0.10974 -0.284823,0.16398 -0.01379,0.008 0.01214,-0.008 0.03294,-0.0215 0.121909,-0.088 0.256496,-0.15225 0.38567,-0.23109 0.09162,-0.0559 -0.185952,0.10729 -0.278928,0.16094 0.12136,-0.0777 0.248117,-0.14443 0.372537,-0.21843 0.08976,-0.0534 -0.180801,0.10459 -0.271394,0.15656 -0.01807,0.0104 0.03559,-0.0217 0.05333,-0.0326 0.904954,-0.51998 0.0347,-0.0201 0.05804,-0.033 0.119355,-0.066 0.232784,-0.14289 0.355143,-0.2031 0.01985,-0.01 0.04061,-0.0176 0.06059,-0.0271 0.05983,-0.0237 0.117774,-0.0509 0.176057,-0.0781 0.05383,-0.0295 0.110419,-0.0539 0.167157,-0.0772 0.04916,-0.0201 0.09865,-0.036 0.150836,-0.046 0.03211,-0.005 0.06143,-0.0193 0.09349,-0.0262 0.02545,0.007 0.04467,0.0149 0.06015,0.0367 0.0067,0.0163 0.01633,0.031 0.02393,0.047 0.01027,0.0278 0.01087,0.0577 0.01159,0.0869 6.09e-4,0.0455 -2e-5,0.0911 -2.57e-4,0.13658 0.0064,0.062 0.01218,0.1241 0.02028,0.18587 0.01323,0.0764 0.0168,0.15395 0.02527,0.2309 0.01052,0.0753 0.01591,0.15118 0.02754,0.22635 0.0117,0.0659 0.01651,0.13272 0.01928,0.19954 0.0064,0.0625 0.01454,0.12491 0.02634,0.18668 0.0107,0.0596 0.02105,0.11937 0.03625,0.17803 0.01439,0.0597 0.02957,0.11913 0.04568,0.17835 0.01607,0.0593 0.02963,0.1194 0.04731,0.17833 0.0129,0.0418 0.03132,0.0816 0.04514,0.12305 0.01256,0.0304 0.02489,0.0605 0.03264,0.0925 0.0029,0.0195 0.01399,0.0358 0.02087,0.054 0.0074,0.0169 0.008,0.0351 0.0089,0.0531 -7.41e-4,0.017 0.0061,0.0378 -0.0064,0.0514 -0.0071,0.0185 -0.01955,0.0293 -0.03355,0.0428 -0.165993,-0.0579 -0.230293,0.17789 -0.368859,0.20205 -0.03961,0.0199 -0.08423,0.0226 -0.127633,0.0257 -0.06144,0.006 -0.122402,0.0161 -0.184082,0.0214 -0.06993,3.9e-4 -0.138466,0.0141 -0.207942,0.0204 -0.07478,0.006 -0.149782,0.007 -0.224758,0.008 -0.06691,1.7e-4 -0.133816,6.6e-4 -0.200725,4.8e-4 -0.05115,-2e-5 -0.102294,2.6e-4 -0.153442,3.1e-4 -0.04253,10e-4 -0.08412,0.0137 -0.126465,0.0194 -0.03958,-6.9e-4 -0.07579,0.0148 -0.114277,0.0215 -0.03057,0.004 -0.06122,0.007 -0.09208,0.007 -0.01429,0.0138 -0.02846,0.0192 -0.04708,0.0241 0.09831,-0.0563 0.196626,-0.11271 0.294938,-0.16906 -0.0071,0.006 -0.01282,0.009 -0.01446,0.0181 0.0019,0.022 -0.0053,0.0405 -0.01242,0.0607 -0.0074,0.0384 -0.01708,0.0763 -0.0244,0.11473 -0.01393,0.0558 -0.02382,0.11245 -0.03587,0.16867 -0.01276,0.0677 -0.02194,0.13603 -0.0319,0.2042 -0.0083,0.0826 -0.01743,0.16518 -0.03061,0.24722 -0.01561,0.0729 -0.02412,0.14671 -0.02851,0.22102 -0.0028,0.0767 -0.01432,0.15268 -0.02022,0.22917 -0.0052,0.072 -0.0037,0.14422 -0.01201,0.21601 -0.008,0.053 -0.01303,0.10634 -0.01553,0.15989 -0.0015,0.0401 -0.0017,0.0803 -0.0014,0.12041 9.79e-4,0.0247 -0.0099,0.0469 -0.01674,0.0699 -4.49e-4,0.004 -0.0098,0.0289 -0.0015,0.0216 0.02064,1.6e-4 0.03749,0.0138 0.05809,0.0184 0.02243,0.005 0.04565,0.005 0.06853,0.005 0.03277,-0.002 0.06294,0.0118 0.09524,0.017 0.03885,0.003 0.07624,0.008 0.114255,0.0161 0.04767,0.004 0.09324,0.0169 0.139838,0.0268 0.05276,0.0118 0.107125,0.0196 0.159224,0.0342 0.04666,0.0125 0.09387,0.0184 0.140078,0.0324 0.05201,0.0134 0.103766,0.028 0.15565,0.0423 0.05532,0.0119 0.10707,0.035 0.161019,0.0516 0.05419,0.0165 0.110192,0.0254 0.164998,0.0391 0.0604,0.0117 0.120556,0.024 0.181005,0.0357 0.05635,0.0132 0.111223,0.0314 0.167249,0.0457 0.03944,0.008 0.0759,0.0248 0.115127,0.0337 0.01912,0.0139 0.04311,0.0188 0.05728,0.0379 0.01562,0.0111 0.02442,0.0283 0.03067,0.046 0.0063,0.0209 0.0077,0.042 0.0017,0.063 -0.01156,0.0405 -0.02331,0.0807 -0.03968,0.11957 -0.0251,0.0613 -0.04944,0.12294 -0.07324,0.18476 -0.02927,0.0765 -0.07095,0.14715 -0.107879,0.22 -0.03789,0.076 -0.08275,0.14811 -0.124966,0.2217 -0.04414,0.0769 -0.08998,0.15282 -0.139413,0.22642 -0.04027,0.0556 -0.08302,0.10988 -0.129134,0.16082 -0.04107,0.0427 -0.08427,0.0832 -0.126502,0.12468 -0.03851,0.0419 -0.07785,0.0828 -0.121984,0.11876 -0.04488,0.0329 -0.08419,0.0723 -0.125232,0.10967 -0.04119,0.0392 -0.08726,0.0724 -0.129059,0.11094 -0.04461,0.0414 -0.09321,0.0783 -0.143215,0.11285 -0.04765,0.0343 -0.09506,0.0689 -0.142846,0.10304 -0.04416,0.0271 -0.0857,0.0577 -0.127537,0.0881 -0.198836,0.12367 -0.722436,0.42078 -0.111685,0.0684 -0.194673,0.12419 -0.721157,0.42118 -0.0998,0.0636 -0.112531,0.0737 -0.103824,0.0684 -0.333193,0.1904 -0.097,0.0516 0.379958,-0.22065 0.28614,-0.1635 -0.112678,0.0686 -0.218683,0.15661 -0.345437,0.19323 -0.0044,0.001 -0.0093,0.001 -0.0133,0.004 -0.0035,0.002 -0.0051,0.006 -0.0083,0.009 -0.01303,0.01 -0.0283,0.0127 -0.04368,0.0163 0.768917,-0.4389 -0.01246,0.017 -0.03258,0.023 -0.0063,0.002 -0.01308,0.002 -0.01959,0.003 -0.01792,0.002 -0.03617,5.3e-4 -0.05423,5.3e-4 -0.02056,-0.008 -0.03075,-0.0295 -0.04749,-0.0414 -0.01767,-0.0225 -0.04073,-0.0398 -0.05988,-0.0611 -0.03367,-0.0322 -0.06859,-0.0624 -0.105495,-0.0908 -0.05078,-0.0398 -0.100521,-0.0805 -0.149363,-0.12263 -0.05814,-0.0378 -0.106326,-0.0874 -0.154664,-0.13653 -0.05623,-0.0538 -0.1111,-0.10898 -0.166312,-0.1638 -0.05199,-0.0571 -0.09713,-0.11975 -0.144423,-0.18066 -0.0513,-0.0623 -0.09708,-0.1292 -0.138621,-0.19836 -0.03847,-0.0611 -0.07271,-0.12467 -0.107376,-0.188 -0.02513,-0.0506 -0.04738,-0.10249 -0.07221,-0.1532 -0.01727,-0.0395 -0.0418,-0.0753 -0.06279,-0.11289 -0.01127,-0.0311 -0.02784,-0.0597 -0.04092,-0.0899 -4.23e-4,-0.007 -0.02071,-0.0395 -0.02213,-0.0326 0.03025,0.12332 0.235123,-0.12053 0.299319,-0.15654 0.0025,-0.001 -0.0041,0.004 -0.0058,0.006 -0.0097,0.0124 -7.15e-4,0.006 -0.01391,0.0128 -0.01404,0.017 -0.03303,0.0271 -0.05128,0.0393 -0.107741,0.0851 -0.0193,0.0163 -0.329585,0.19114 -0.09578,0.054 0.380146,-0.22102 0.286259,-0.16382 -0.103897,0.0633 -0.210292,0.12242 -0.316296,0.18212 -0.01132,0.006 -0.02429,0.009 -0.03588,0.0152 -0.04963,0.0186 -0.09669,0.0422 -0.144643,0.0649 -0.05713,0.0307 -0.118419,0.0535 -0.179288,0.0759 -0.06218,0.0248 -0.12665,0.0428 -0.190301,0.0633 -0.06878,0.021 -0.139987,0.0328 -0.209006,0.0528 -0.0651,0.0174 -0.129739,0.0363 -0.194562,0.0548 -0.06053,0.01 -0.119196,0.0278 -0.179712,0.0379 -0.04627,0.006 -0.09033,0.0217 -0.1366831,0.0279 -0.030716,-6e-5 -0.056872,0.0127 -0.084883,0.0238 -0.09405,0.0811 -0.012039,0.009 0.2827171,-0.16038 0.0027,-0.002 -0.0053,0.003 -0.0081,0.005 -0.0082,0.004 -0.01164,0.006 -0.01717,0.0131 -0.01183,0.0137 -0.0022,0.0256 0.0032,0.0419 0.01422,0.0342 0.02739,0.0689 0.03869,0.10413 0.01365,0.0574 0.03121,0.11378 0.04463,0.17123 0.01427,0.0756 0.02805,0.15124 0.04309,0.22668 0.01693,0.0828 0.01857,0.16744 0.02612,0.2513 0.01003,0.0755 0.01657,0.1513 0.02076,0.22732 0.0028,0.055 0.0034,0.11014 0.0036,0.16524 2.91e-4,0.0338 7.67e-4,0.0677 6.88e-4,0.10154 1.37e-4,0.0218 1.37e-4,0.0435 2.91e-4,0.0653 8e-5,0.0159 1e-5,0.0316 0.0015,0.0474 -6.35e-4,0.003 -2.91e-4,0.006 -0.0019,0.008 -0.0022,0.003 -0.007,0.004 -0.0094,0.007 -0.0051,0.006 -0.0052,0.0138 -0.0102,0.0205 -0.01416,-2.2e-4 -0.01254,0.01 -0.01896,0.018 -0.0031,0.004 -0.0087,0.005 -0.01238,0.009 -0.06895,0.111 -0.209046,0.19416 -0.3424112,0.19599 -0.022048,-0.001 -0.044148,-0.002 -0.066229,-0.002 -0.031661,-4.5e-4 -0.063326,-3.7e-4 -0.094989,-4.3e-4 -0.039626,-1.7e-4 -0.079252,-2.6e-4 -0.1188781,-3.4e-4 -0.052648,6e-5 -0.1052931,-5e-4 -0.1579404,-2.9e-4 -0.065928,-2.7e-4 -0.1318572,-2.4e-4 -0.1977861,-3.7e-4 -0.067411,0.002 -0.1338857,6.1e-4 -0.2006719,-0.008 -0.064852,-0.009 -0.1303014,-0.0123 -0.1957049,-0.0142 -0.069707,-0.002 -0.1394393,-10e-4 -0.2091602,-10e-4 -0.065247,10e-6 -0.1304923,2e-4 -0.1957388,2.9e-4 -0.05901,-0.002 -0.1168611,6.6e-4 -0.175229,0.008 -0.062197,0.009 -0.1249415,0.0126 -0.1877351,0.0141 -0.058773,0.001 -0.1175605,0.001 -0.1763445,0.002 -0.048464,3e-5 -0.096929,-10e-6 -0.1453931,-3e-5 -0.041605,4e-5 -0.083211,10e-6 -0.124815,2.9e-4 -0.031236,-8e-5 -0.062471,1.9e-4 -0.093707,1.6e-4 -0.024619,7e-5 -0.04924,1.8e-4 -0.073861,9e-5 -0.028533,0.004 -0.04205,-0.0145 -0.052062,-0.0391 -0.00742,-0.0273 -0.00565,-0.0559 -0.00543,-0.0839 4.763e-4,-0.0441 6.879e-4,-0.0883 8.202e-4,-0.1324 2.646e-4,-0.0451 -2.1e-6,-0.0902 -1.852e-4,-0.13524 8.202e-4,-0.0485 -0.00108,-0.0972 0.00238,-0.14562 0.00865,-0.0559 0.014065,-0.11218 0.024649,-0.16778 0.011123,-0.0703 0.031097,-0.13879 0.046566,-0.20819 0.018402,-0.0776 0.037418,-0.15497 0.056191,-0.23245 0.017185,-0.0744 0.032872,-0.14891 0.055881,-0.22174 0.026406,-0.0797 0.055053,-0.15867 0.086204,-0.2366 0.031188,-0.0697 0.061702,-0.13961 0.092905,-0.20926 0.016785,-0.0433 0.042934,-0.0816 0.065307,-0.1219 0.012922,-0.0187 0.022836,-0.0409 0.037085,-0.0585 0.1035478,-0.0594 0.2070957,-0.11878 0.3106436,-0.17817 0.00214,-6.1e-4 0.00449,-0.003 0.0064,-0.002 0.012621,0.007 0.020944,0.0253 0.025246,0.0387 7.938e-4,0.003 0.00711,0.0185 0.00206,0.0245 -0.00518,0.006 -0.018129,0.0108 -0.02518,0.0149 -0.1034838,0.0595 -0.2070317,0.11897 -0.3105478,0.17845 -0.024961,0.002 -0.035036,0.0161 -0.06142,0.0214 -0.02078,0.006 -0.042307,0.005 -0.063705,0.005 -0.030004,0.002 -0.05641,-0.002 -0.084716,-0.0111 -0.030732,-0.009 -0.062706,-0.0115 -0.094575,-0.0127 -0.037449,-0.0112 -0.07505,-0.02 -0.1124813,-0.0311 -0.037335,-0.0205 -0.078127,-0.0329 -0.1183045,-0.0464 -0.042732,-0.0111 -0.08294,-0.0298 -0.1238903,-0.0459 -0.046549,-0.0237 -0.089942,-0.0539 -0.1289116,-0.0886 -0.04022,-0.0322 -0.079973,-0.0646 -0.1244251,-0.0908 -0.040101,-0.0256 -0.071258,-0.0621 -0.1081312,-0.0915 -0.031146,-0.0334 -0.067609,-0.0608 -0.1024692,-0.09 -0.028552,-0.033 -0.064643,-0.0574 -0.096035,-0.0874 -0.031276,-0.0276 -0.064398,-0.0531 -0.096292,-0.0801 -0.029313,-0.0238 -0.05583,-0.0506 -0.082881,-0.0769 -0.023691,-0.0269 -0.051995,-0.0487 -0.077809,-0.0731 -0.024334,-0.0171 -0.042745,-0.0413 -0.062478,-0.0633 -0.016351,-0.009 -0.023413,-0.0269 -0.041324,-0.0332 -0.00459,0.003 -0.018351,-0.004 -0.021794,-6.9e-4 -0.00212,0.002 -0.00388,0.0104 -0.00122,0.009 0.4946949,-0.26564 0.3895886,-0.21349 0.2853095,-0.16195 -0.018396,0.0108 -0.020352,0.029 -0.02836,0.0469 -0.011409,0.017 -0.017058,0.0366 -0.027607,0.0542 -0.013279,0.0273 -0.030398,0.053 -0.04893,0.0772 -0.027572,0.034 -0.058545,0.0651 -0.089339,0.0962 -0.04587,0.05 -0.098977,0.0919 -0.1514488,0.13453 -0.064967,0.0537 -0.1295948,0.10768 -0.1966621,0.15871 -0.0745,0.0532 -0.147206,0.10878 -0.2218569,0.16171 -0.085606,0.0621 -0.1716365,0.12372 -0.2565212,0.18683 -0.074074,0.0595 -0.1504011,0.11604 -0.2262015,0.17329 -0.063912,0.0463 -0.1255837,0.0955 -0.1900219,0.14108 -0.054345,0.0412 -0.1116547,0.0778 -0.1690791,0.11445 -0.1353352,0.0966 -0.2806864,0.17333 -0.4252685,0.25703 -0.029994,0.007 -0.0535,0.0258 -0.08205,0.0365 -0.023418,0.0106 -0.038845,-1.4e-4 -0.054958,-0.017 -0.018722,-0.006 -0.027527,-0.0353 -0.032275,-0.0526 -0.00534,-0.0247 -0.015184,-0.0479 -0.021153,-0.0726 -0.00433,-0.037 -0.013642,-0.0731 -0.020293,-0.10971 -0.012634,-0.0509 -0.027602,-0.10132 -0.043809,-0.15119 -0.017288,-0.0591 -0.032784,-0.11867 -0.049165,-0.17802 -0.018187,-0.0655 -0.035022,-0.13134 -0.050927,-0.1974 -0.021831,-0.0815 -0.043087,-0.16316 -0.063634,-0.24503 -0.021042,-0.0826 -0.041256,-0.16517 -0.057343,-0.24886 -0.016081,-0.10456 -0.031516,-0.20921 -0.048511,-0.31363 -0.013205,-0.0946 -0.024474,-0.18941 -0.040806,-0.28351 -0.016505,-0.0704 -0.021598,-0.14267 -0.032767,-0.2139 -0.00933,-0.0459 -0.017153,-0.0921 -0.022661,-0.13862 -0.00241,-0.0272 -0.00439,-0.0545 -0.00303,-0.0818 0.00513,-0.0196 0.012832,-0.0391 0.025032,-0.0555 0.018095,-0.0168 0.034665,-0.036 0.055283,-0.0496 0.021397,-0.0214 0.047031,-0.0374 0.070906,-0.0559 0.029363,-0.0281 0.064211,-0.0485 0.098853,-0.0692 0.1394053,-0.0929 0.2874007,-0.17207 0.432394,-0.256 -0.9423236,0.53653 0.7633237,-0.43633 -0.1527083,0.0895 0.155755,-0.087 0.309603,-0.18811 0.4769636,-0.25468 0.066058,-0.0347 0.1348915,-0.0639 0.2004722,-0.0996 0.069942,-0.029 0.1355042,-0.0669 0.2032471,-0.1004 0.058891,-0.023 0.1171408,-0.0475 0.1758952,-0.0708 0.040558,-0.0171 0.085369,-0.0279 0.1239983,-0.0492 0.018566,-0.0187 0.053193,-0.0123 0.069948,-0.0299 0.1722189,-0.0868 -0.3347331,0.23776 -0.2526215,0.14907 0.010488,-0.007 0.00541,-0.0261 0.011337,-0.0115 -0.010253,-0.0114 -0.015012,-0.0259 -0.025614,-0.0369 -0.016198,-0.0205 -0.018666,-0.0458 -0.02449,-0.0703 -0.011449,-0.0274 -0.017888,-0.0557 -0.021132,-0.085 -0.0028,-0.0427 -0.013301,-0.0844 -0.019005,-0.12683 -0.00366,-0.0421 -0.016703,-0.0824 -0.023416,-0.12408 -0.00628,-0.0447 -0.00661,-0.0898 -0.00771,-0.13481 -8.467e-4,-0.048 -0.00101,-0.0958 0.00572,-0.14341 0.00792,-0.0623 0.021389,-0.12369 0.0305,-0.18582 0.00459,-0.0609 0.016153,-0.12089 0.024707,-0.18132 0.00983,-0.0579 0.024704,-0.11469 0.038608,-0.17168 0.014473,-0.0584 0.033336,-0.11548 0.052324,-0.1725 0.017801,-0.0483 0.03606,-0.0966 0.055376,-0.14433 0.017103,-0.036 0.034358,-0.0721 0.055786,-0.10578 0.018386,-0.022 0.028702,-0.0487 0.042338,-0.0733 0.00833,-0.0115 0.017896,-0.0244 0.021934,-0.0382 0.0045,-0.0158 -0.00488,-0.0308 -0.011158,-0.045 -0.00836,-0.0144 -0.02027,-0.0242 -0.03428,-0.0328 -0.02432,-0.0105 -0.046288,-0.0256 -0.068633,-0.0404 -0.03079,-0.0163 -0.060731,-0.0338 -0.092666,-0.0478 -0.046824,-0.0161 -0.09388,-0.0315 -0.1412272,-0.046 -0.055579,-0.0211 -0.110644,-0.0434 -0.1660753,-0.0649 -0.052074,-0.0154 -0.100389,-0.0405 -0.151874,-0.0575 -0.052063,-0.0206 -0.1040926,-0.0413 -0.156387,-0.0614 -0.053328,-0.0235 -0.1076489,-0.0444 -0.1615241,-0.0667 -0.047089,-0.0235 -0.097859,-0.0359 -0.1474626,-0.052 -0.039815,-0.0184 -0.084576,-0.016 -0.1255752,-0.0285 -0.034099,-0.0114 -0.069792,-0.0158 -0.1054585,-0.0186 -0.025696,-10e-4 -0.051438,-10e-4 -0.077157,-8.7e-4 -0.022371,-0.001 -0.04278,-0.0145 -0.064258,-0.0218 -0.016634,-0.005 -0.038839,-0.0185 -0.051538,-0.0317 -0.011459,-0.0147 -0.021492,-0.0307 -0.03079,-0.0469 -0.012351,-0.0198 -0.014957,-0.0424 -0.016571,-0.0653 -0.00193,-0.0269 -0.00164,-0.0538 7.408e-4,-0.0806 0.00788,-0.0552 0.028462,-0.10699 0.046523,-0.15937 0.04572,-0.1254 0.1006126,-0.24741 0.1539306,-0.36974 0.083524,-0.19404 0.1766507,-0.38328 0.2782301,-0.56842 0.09269,-0.18052 0.2048684,-0.34927 0.3166615,-0.5182 0.05507,-0.085 0.1169778,-0.16507 0.180417,-0.24387 0.022003,-0.0303 0.048548,-0.057 0.070885,-0.087 0.014946,-0.0152 0.030747,-0.029 0.045025,-0.0448 0.00342,-0.006 0.00567,-0.0113 0.011377,-0.0153 0.1028115,-0.072 0.2654204,-0.1454 0.3408,-0.18566 0.02109,0.003 0.030391,0.0177 0.045777,0.0296 0.015108,0.008 0.030274,0.0193 0.042865,0.0322 0.023627,0.0163 0.050657,0.0269 0.074758,0.0424 0.033646,0.0138 0.06361,0.0344 0.096003,0.0508 0.044239,0.0237 0.087388,0.0492 0.1300327,0.0758 0.051903,0.0359 0.1001471,0.0771 0.1467858,0.11954 0.05323,0.0503 0.1088993,0.0978 0.1625624,0.14761 0.06902,0.0632 0.1428953,0.12002 0.2174912,0.17631 0.086389,0.0711 0.1802532,0.13225 0.2680073,0.20152 0.084093,0.0628 0.1657519,0.12872 0.2486173,0.1931 0.061394,0.0466 0.1205447,0.0961 0.1777029,0.14786 0.028623,0.0256 0.056147,0.0524 0.083569,0.0793 0.010007,0.006 0.03678,0.0427 0.028896,0.0101 -0.098571,0.0571 -0.1971614,0.11414 -0.2957142,0.17125 -0.00196,10e-4 0.00411,-0.003 0.0037,-0.006 -0.00156,-0.008 -0.00513,-0.0165 -0.0081,-0.0244 -0.00568,-0.0136 -0.00833,-0.0282 -0.0098,-0.0428 -0.0014,-0.0175 -0.00225,-0.0343 0.00507,-0.0506 0.010221,-0.0158 0.01646,-0.0293 0.031784,-0.0421 0.021894,-0.0195 0.046349,-0.0352 0.070608,-0.0516 0.131386,-0.10147 0.2769701,-0.18652 0.4294148,-0.25202 0.061422,-0.022 0.120184,-0.0509 0.1802021,-0.0765 0.073018,-0.0344 0.1479966,-0.0647 0.2232467,-0.094 0.1055116,-0.0407 0.2116741,-0.0795 0.3183816,-0.11688 0.1054857,-0.0409 0.2104281,-0.0814 0.3211835,-0.10541 0.045193,-0.002 0.1017072,-0.0278 0.1454039,-0.009 0.024564,0.0108 0.039323,0.0339 0.047791,0.0584 0.00715,0.0201 0.00659,0.0389 -8.467e-4,0.0587 -0.3658351,0.23375 -0.2070717,0.23826 -0.3305799,0.16574 -0.011364,-0.007 -0.014309,-0.005 -0.024392,-0.0162 -0.012628,-0.0146 -0.021894,-0.0312 -0.030332,-0.0485 -0.012668,-0.0289 -0.014449,-0.0601 -0.01574,-0.0912 -0.00549,-0.0447 -0.014732,-0.0888 -0.024596,-0.13272 -0.00966,-0.0537 -0.019264,-0.10716 -0.030577,-0.16052 -0.010747,-0.0573 -0.013348,-0.11558 -0.014946,-0.17372 -0.00225,-0.0591 0.00156,-0.11832 -0.0031,-0.17726 -0.00772,-0.0499 -0.014748,-0.0998 -0.018537,-0.15017 -0.00265,-0.0427 -0.00348,-0.0855 -0.00361,-0.1283 5.32e-5,-0.0442 2.255e-4,-0.0885 3.175e-4,-0.13271 -2.601e-4,-0.0383 -3.175e-4,-0.0767 -3.704e-4,-0.115 3.969e-4,-0.0283 0.010904,-0.0549 0.017047,-0.0822 0.00422,-0.0194 0.00456,-0.0386 0.012689,-0.057 0.00446,-0.004 0.00291,-0.0118 0.00641,-0.0165 0.00188,-0.003 0.019442,-0.0165 0.022749,-0.0185 0.1028295,-0.06 0.2061064,-0.11932 0.3091598,-0.17898 -0.6092902,0.38061 -0.142553,0.0383 0.074384,-0.033 0.054243,-0.009 0.1064207,-0.0241 0.161186,-0.0305 0.092261,-0.006 0.1845136,-0.009 0.2767796,-0.0149 0.1737164,-0.007 0.3473587,-0.0127 0.5206592,-0.0274 0.1616353,-0.0111 0.3233312,-0.032 0.4855454,-0.0297 0.06988,0.004 0.14035,0.003 0.207668,0.0231 0.02835,0.007 0.04496,0.0295 0.06182,0.0513 0.01,0.0115 0.01782,0.0226 0.02183,0.0374 0.003,0.0127 0.0026,0.0258 0.0036,0.0388 -7.67e-4,0.003 -7.41e-4,0.006 -0.0023,0.008 -0.0024,0.004 -0.0069,0.005 -0.0094,0.009 -0.005,0.007 -0.0081,0.0154 -0.01283,0.0228 -0.01748,0.0178 -0.01929,0.043 -0.02742,0.0653 -0.01347,0.0293 -0.01638,0.0609 -0.02095,0.0923 -0.01111,0.039 -0.01683,0.0791 -0.0266,0.11843 -0.01352,0.0472 -0.01615,0.0962 -0.02202,0.14458 -0.0093,0.0517 -0.01631,0.10361 -0.02008,0.15597 1.46e-4,0.0574 -0.0096,0.11385 -0.01683,0.17061 -0.0072,0.0587 -0.0086,0.11779 -0.0099,0.17682 2.4e-4,0.0656 -0.0032,0.13139 0.0015,0.19689 0.0052,0.058 0.01454,0.11478 0.0284,0.17121 0.0094,0.0429 0.02363,0.0844 0.0328,0.12731 0.0075,0.0305 0.0054,0.0623 0.01023,0.093 0.0064,0.0175 0.01176,0.0352 0.02211,0.0508 0.01159,0.0109 0.02793,0.0186 0.04211,0.0278 0.02539,0.003 0.04877,0.009 0.07329,0.0161 0.03633,0.005 0.06909,0.0218 0.104589,0.0303 0.03258,10e-4 0.06058,0.018 0.09203,0.0245 0.03181,-0.005 0.06421,-0.005 0.09631,-0.007 0,0 -0.279846,0.20577 -0.279846,0.20577 v 0 c -0.03518,0.002 -0.07113,0.007 -0.106067,3.9e-4 -0.03061,-0.009 -0.06063,-0.0197 -0.09231,-0.0252 -0.03455,-0.011 -0.06866,-0.0232 -0.104377,-0.0302 -0.02722,-0.007 -0.05666,-0.008 -0.08051,-0.0245 -0.0179,-0.0119 -0.0384,-0.0209 -0.04966,-0.0403 -0.01238,-0.0193 -0.01985,-0.04 -0.02754,-0.0616 -0.0089,-0.0307 -0.0035,-0.0634 -0.01,-0.0948 -0.0077,-0.043 -0.022005,-0.084 -0.031384,-0.12654 -0.01333,-0.0583 -0.024138,-0.11667 -0.029506,-0.17637 -0.00673,-0.0664 -0.00243,-0.13329 -0.00336,-0.19994 4.498e-4,-0.0601 0.00151,-0.12024 0.00802,-0.18 0.00637,-0.0562 0.018418,-0.11172 0.016891,-0.16851 0.0031,-0.0533 0.00879,-0.10631 0.019307,-0.15868 0.00837,-0.0488 0.0063,-0.0992 0.019659,-0.14741 0.0099,-0.0391 0.01578,-0.0785 0.02616,-0.11739 0.01042,-0.0311 0.004,-0.0658 0.01862,-0.0961 0.003,-0.008 0.0084,-0.0156 0.01082,-0.0241 0.0046,-0.0162 0.0021,-0.0348 0.01164,-0.05 0.0036,-0.004 0.0083,-0.008 0.01153,-0.0123 0.0042,-0.006 0.004,-0.0176 0.0085,-0.0226 0.0012,-10e-4 0.0037,-2.6e-4 0.0056,-3.7e-4 0.01231,0.006 0.0058,-0.008 0.0071,-0.0167 -5.3e-5,-0.008 -0.0064,-0.0149 -0.01279,-0.023 -0.01347,-0.0172 -0.02552,-0.0293 -0.04827,-0.0333 -0.064074,-0.0162 -0.1313316,-0.015 -0.1968665,-0.0195 -0.1598626,-1.2e-4 -0.3192391,0.0159 -0.4784801,0.0283 -0.1751717,0.0135 -0.3506568,0.0199 -0.5259703,0.0309 -0.093034,0.007 -0.1864558,0.009 -0.2790957,0.0198 -0.053422,0.009 -0.106857,0.0217 -0.1585931,0.0379 -0.010927,0.005 -0.022334,0.008 -0.033057,0.0131 -0.00394,0.002 -0.014896,0.009 -0.011134,0.007 0.096956,-0.0565 0.1935239,-0.11373 0.2907157,-0.16985 0.00315,-0.002 -0.00565,0.005 -0.00847,0.007 -0.1034169,0.0605 -0.2068341,0.121 -0.3102512,0.18149 0.097998,-0.0568 0.1959959,-0.11355 0.2939938,-0.17032 -0.00594,0.003 -0.012996,0.004 -0.018164,0.008 -0.00246,0.002 -0.0023,0.007 -0.00516,0.008 -0.019098,0.009 2.646e-4,-0.0123 -0.012226,0.003 -0.014047,0.0186 -0.017515,0.0221 -0.017462,0.0475 -0.00578,0.0257 -0.011885,0.0512 -0.02164,0.0758 -7.01e-5,0.0385 -1.402e-4,0.077 -4.762e-4,0.11545 3.4e-6,0.0441 1.3e-6,0.0882 1.026e-4,0.13235 1.236e-4,0.0422 -1.066e-4,0.0844 0.00198,0.1266 0.00298,0.0502 0.00885,0.1 0.017404,0.14947 0.00713,0.0596 0.00146,0.11985 0.00402,0.17976 0.00122,0.0561 0.00298,0.11244 0.012642,0.16785 0.010702,0.0533 0.021656,0.10618 0.030007,0.15986 0.01098,0.0458 0.02032,0.0916 0.028998,0.13793 8.996e-4,0.0261 8.996e-4,0.0528 0.00994,0.0777 0.00606,0.0127 0.013192,0.0252 0.023006,0.0353 0.00587,7.1e-4 0.012028,0.006 0.017796,0.005 0.00303,-7e-5 0.00426,-0.009 0.00421,-0.009 -0.098906,0.0558 -0.1961803,0.11436 -0.2942706,0.17154 0.0186,0.003 0.023193,-0.002 0.019267,-0.0196 -0.00339,-0.0154 -0.011065,-0.0251 -0.027748,-0.0268 -0.043808,0.007 -0.088948,0.006 -0.1319636,0.0183 -0.1081918,0.0262 -0.2111052,0.0677 -0.3154301,0.106 -0.1075902,0.0385 -0.2145686,0.0786 -0.3209174,0.12036 -0.075186,0.0299 -0.1495901,0.0618 -0.2232059,0.0953 -0.060258,0.0261 -0.1197623,0.0539 -0.1807483,0.0782 -0.1094179,0.0549 -0.2699631,0.14973 0.2240156,-0.13446 0.051035,-0.0294 -0.1085839,0.0643 -0.053543,0.0395 -0.02264,0.0182 -0.047824,0.0314 -0.069926,0.0497 -0.00119,9.2e-4 -0.014594,0.0114 -0.016166,0.0123 -0.00411,0.002 -0.010345,3.7e-4 -0.01375,0.004 -8.467e-4,8.2e-4 -0.00465,0.0175 -0.00468,0.0176 -0.014256,0.0109 -0.017457,0.008 -0.015592,0.0284 -3.79e-5,0.0113 6.614e-4,0.0231 0.00467,0.0337 0.055328,0.15507 0.0045,0.0923 -0.2881966,0.24619 -0.017187,-0.0134 -0.035081,-0.0259 -0.049353,-0.0425 -0.02635,-0.0269 -0.053019,-0.0535 -0.080406,-0.0794 -0.055809,-0.0515 -0.1133049,-0.10114 -0.1736746,-0.1473 -0.08214,-0.0651 -0.163776,-0.13072 -0.2474703,-0.19382 -0.088049,-0.0686 -0.1811666,-0.13051 -0.2683122,-0.20038 -0.076154,-0.0564 -0.1501417,-0.11523 -0.2208641,-0.1784 -0.053999,-0.0494 -0.1103415,-0.0962 -0.163422,-0.14658 -0.045672,-0.0406 -0.092678,-0.0805 -0.1442333,-0.11354 -0.042675,-0.0256 -0.085488,-0.0507 -0.1298115,-0.0733 -0.032253,-0.0177 -0.064653,-0.035 -0.097398,-0.0517 -0.02745,-0.0142 -0.055266,-0.0286 -0.079482,-0.048 -0.014142,-0.0103 -0.027945,-0.0203 -0.042224,-0.0303 -0.012327,-0.0104 -0.014846,-0.0123 -0.032065,-0.01 0.099375,-0.0561 0.1986709,-0.11236 0.2981264,-0.16832 0.00271,-0.002 -0.00527,0.003 -0.00789,0.005 -0.012036,0.008 -0.00663,0.003 -0.016417,0.0143 -0.00146,0.001 -0.014904,0.004 -0.016219,0.004 -0.013793,0.0193 -0.029011,0.0319 -0.043479,0.0502 -0.025884,0.0148 -0.055283,0.0623 -0.075885,0.0843 -0.069191,0.0761 -0.1300473,0.16003 -0.1898489,0.24358 -0.1146821,0.16802 -0.2294922,0.33621 -0.3226046,0.51754 -0.1010743,0.18349 -0.1942941,0.37082 -0.2759885,0.56386 -0.05117,0.12013 -0.1017926,0.24075 -0.1470935,0.36318 -0.015944,0.051 -0.036742,0.10021 -0.045574,0.15302 -0.00658,0.0239 -0.00305,0.0486 -0.00349,0.0732 6.614e-4,0.0173 -1.59e-5,0.035 0.00904,0.0504 0.0076,0.0127 0.015378,0.0255 0.024725,0.0367 0.01515,0.007 0.027944,0.0181 0.044842,0.0211 0.019039,0.007 0.035723,0.0155 0.056753,0.0121 0.026307,4e-4 0.052658,9e-4 0.078797,0.004 0.03638,0.005 0.072202,0.0127 0.107506,0.0228 0.042686,0.007 0.085264,0.0148 0.1258237,0.0308 0.050994,0.0147 0.1004596,0.0332 0.148773,0.0553 0.053491,0.0227 0.1083146,0.0419 0.1612424,0.0659 0.051847,0.0207 0.1042289,0.0399 0.1562725,0.0601 0.05077,0.0193 0.1004286,0.0415 0.1519343,0.0589 0.054565,0.022 0.1095462,0.043 0.1650444,0.0625 0.048539,0.0156 0.097741,0.0296 0.1448528,0.0491 0.032673,0.016 0.064796,0.0329 0.095968,0.0516 0.022924,0.0147 0.047378,0.0265 0.070134,0.0414 0.017687,0.0142 0.034281,0.0284 0.044793,0.0491 0.00805,0.0201 0.019182,0.0409 0.020386,0.0625 -0.00135,0.0194 -0.00626,0.0359 -0.015666,0.0534 -0.020061,0.0211 -0.026602,0.0495 -0.043487,0.0737 -0.024664,0.0304 -0.040812,0.0651 -0.05964,0.0992 -0.021238,0.0467 -0.037951,0.0952 -0.057075,0.14277 -0.021328,0.0551 -0.037845,0.11223 -0.054104,0.16904 -0.013044,0.0564 -0.028252,0.11206 -0.040246,0.16869 -0.00801,0.0607 -0.021061,0.12055 -0.025318,0.18172 -0.00823,0.0622 -0.021868,0.12337 -0.028897,0.18574 -0.00805,0.0459 -0.00976,0.0912 -0.00764,0.13777 -3.76e-5,0.0436 5.821e-4,0.0872 0.0054,0.13056 0.00589,0.0422 0.019436,0.0827 0.023463,0.12499 0.00509,0.0428 0.015835,0.0845 0.020492,0.12719 0.00225,0.0272 0.00689,0.0537 0.018312,0.0788 0.00655,0.019 0.00535,0.0402 0.01778,0.0568 0.00964,0.0118 0.016007,0.025 0.026083,0.0364 0.00992,0.0156 0.013885,0.033 0.00884,0.0516 -0.052838,0.12645 -0.2271202,0.15195 -0.3455554,0.21391 -0.025072,0.004 -0.046525,0.0187 -0.069791,0.0281 -0.041482,0.0148 -0.081973,0.0321 -0.1233869,0.0471 -0.05761,0.0241 -0.1167913,0.0445 -0.1729131,0.0719 -0.067331,0.0342 -0.1341541,0.0693 -0.202855,0.10076 -0.067077,0.0334 -0.1342258,0.0668 -0.2024033,0.0978 -0.1276017,0.0586 -0.4139949,0.2041 0.1223036,-0.0869 -0.1079989,0.0623 -0.2157814,0.12503 -0.3239966,0.18699 -0.016208,0.009 -0.033232,0.0171 -0.049571,0.0261 -0.00832,0.005 -0.033058,0.0189 -0.024842,0.0141 0.564462,-0.3298 0.1521944,-0.088 -0.046476,0.0287 0.091042,-0.0528 0.1818148,-0.10606 0.2731257,-0.15839 0.00856,-0.005 -0.016431,0.0109 -0.02485,0.0161 -0.015071,0.009 -0.031809,0.0156 -0.046689,0.0251 -0.012475,0.008 -0.021693,0.0205 -0.035147,0.0272 -0.034046,0.0206 -0.070733,0.0377 -0.1006533,0.064 -0.022325,0.0202 -0.047265,0.0367 -0.070212,0.0551 -0.016039,0.0175 -0.039175,0.0282 -0.055335,0.0468 -0.01964,0.0142 -0.02091,0.0178 -0.032981,0.0388 -0.013978,0.0174 -9.789e-4,0.0501 -0.00357,0.071 0.0034,0.0463 0.010194,0.0921 0.019595,0.13757 0.012218,0.0712 0.013298,0.14415 0.030414,0.21468 0.016957,0.0943 0.027098,0.18968 0.039964,0.28457 0.0165,0.10405 0.031734,0.20824 0.04868,0.31222 0.016494,0.0829 0.036604,0.16482 0.057246,0.24673 0.020974,0.0819 0.040551,0.164 0.063965,0.24523 0.016132,0.0655 0.034843,0.13025 0.051643,0.19555 0.01697,0.0586 0.031452,0.11793 0.048838,0.17643 0.017306,0.0512 0.032006,0.10331 0.047279,0.15514 0.00611,0.0362 0.017502,0.0711 0.020775,0.10767 0.00502,0.025 0.01528,0.0478 0.021466,0.0721 0.00259,0.016 0.00794,0.0243 0.021775,0.0327 0.00555,0.002 0.023162,-0.0134 0.031402,-0.0147 0.026075,-0.0133 0.052675,-0.0245 0.078726,-0.0379 -0.5276159,0.30753 -0.2862135,0.17206 -0.1724853,0.0907 0.054876,-0.0407 0.117043,-0.0707 0.1705107,-0.11389 0.1274461,-0.0973 -0.065267,0.0483 0.061909,-0.0428 0.043823,-0.0314 0.08305,-0.0695 0.1290582,-0.0981 0.075839,-0.0582 0.1543354,-0.11303 0.2279906,-0.17413 0.083702,-0.0643 0.1710246,-0.12379 0.2550224,-0.18775 0.075459,-0.0513 0.1466061,-0.1084 0.2215615,-0.16039 0.067988,-0.0493 0.1317824,-0.10357 0.1969641,-0.15641 0.0497,-0.044 0.1057791,-0.0808 0.1502174,-0.13079 0.030184,-0.0304 0.060543,-0.0607 0.089415,-0.0924 0.018894,-0.0221 0.035238,-0.0454 0.051773,-0.0686 0.00678,-0.0198 0.02005,-0.0367 0.026125,-0.0566 0.01302,-0.019 0.014314,-0.0365 0.024241,-0.0569 0.07428,-0.11643 0.2340674,-0.24029 0.3594751,-0.17307 0.017648,0.0126 0.030376,0.0302 0.047194,0.0438 0.018288,0.0216 0.036916,0.0432 0.059774,0.0602 0.027129,0.0237 0.052708,0.0488 0.077994,0.0744 0.026186,0.0258 0.053156,0.0509 0.081245,0.0746 0.032726,0.0269 0.065415,0.0537 0.097028,0.0819 0.03162,0.0287 0.066195,0.054 0.09505,0.0857 0.035036,0.029 0.070023,0.0579 0.1022475,0.0901 0.034614,0.0297 0.06621,0.0632 0.1050496,0.0877 0.044725,0.0288 0.086716,0.0614 0.1275831,0.0954 0.037266,0.0314 0.07796,0.0597 0.1231742,0.0785 0.040275,0.0166 0.080972,0.0322 0.1227772,0.0446 0.039585,0.014 0.079054,0.0279 0.1174576,0.0449 0.035541,0.0102 0.071983,0.0192 0.1085416,0.0244 0.033592,0.003 0.066704,0.008 0.09905,0.0182 0.025993,0.005 0.052789,0.003 0.07917,0.002 0.019815,-0.002 0.038978,-0.006 0.057448,-0.0131 0.019807,-0.01 0.039708,-0.0157 0.059159,-0.0251 -0.097921,0.0568 -0.1958425,0.11363 -0.2937637,0.17044 0.00631,-0.005 0.015666,-0.0151 0.023913,-0.0162 0.00575,-7.7e-4 0.014505,0.0128 0.015147,0.0136 9.79e-4,8.7e-4 0.00992,0.008 0.00981,0.0143 -3.28e-5,0.002 -0.00329,0.002 -0.00493,0.003 0.098,-0.0568 0.1959997,-0.11353 0.2939995,-0.17029 -0.00538,0.001 -0.01174,6.6e-4 -0.016185,0.004 -0.012338,0.009 -0.012922,0.0326 -0.028922,0.039 -0.020889,0.0416 -0.050027,0.0781 -0.06884,0.12092 -0.030876,0.07 -0.063182,0.13951 -0.095056,0.20907 -0.031979,0.0769 -0.059723,0.1554 -0.086719,0.23412 -0.024358,0.0718 -0.040804,0.14553 -0.056665,0.21958 -0.020669,0.0766 -0.036403,0.15447 -0.056999,0.23109 -0.013462,0.0694 -0.034731,0.1369 -0.045436,0.20684 -0.010041,0.0549 -0.017124,0.10986 -0.025082,0.16513 -0.00732,0.0468 -0.00212,0.0944 -0.00325,0.14171 -1.928e-4,0.0452 -4.762e-4,0.0904 -3.439e-4,0.13557 -3.04e-5,0.044 -1.024e-4,0.088 8e-7,0.13198 1.156e-4,0.0242 -4.55e-5,0.0485 0.0014,0.0726 0.00241,0.0109 0.017936,-7.4e-4 0.028048,0.003 0.024537,-9e-5 0.049078,2e-5 0.073616,8e-5 0.031091,-2e-5 0.062183,2.5e-4 0.093274,1.6e-4 0.041312,2.9e-4 0.082627,2.7e-4 0.1239396,3.7e-4 0.048346,5e-5 0.096693,1.5e-4 0.1450393,2.4e-4 0.058238,4e-5 0.1164934,1.2e-4 0.174707,-0.002 0.062248,-0.003 0.1243145,-0.008 0.1860307,-0.0167 0.059135,-0.007 0.1183968,-0.005 0.1778434,-0.005 0.065123,10e-6 0.1302459,5e-5 0.1953691,2e-5 0.070028,1.6e-4 0.1400688,1.8e-4 0.2100752,0.002 0.065997,0.003 0.1318823,0.008 0.1973508,0.0166 0.06582,0.007 0.1317832,0.005 0.1978962,0.005 0.066265,-1.3e-4 0.1325293,-1e-4 0.1987934,-3.7e-4 0.052922,2e-4 0.1058436,-3.7e-4 0.1587664,-3.2e-4 0.039937,-6e-5 0.079874,-1.8e-4 0.1198119,-2.6e-4 0.03182,6e-5 0.06364,2.9e-4 0.09547,4.5e-4 0.02116,7e-5 0.04281,10e-4 0.06359,-0.003 0.01001,-0.003 0.0051,-10e-4 0.01476,-0.007 -0.09812,0.0567 -0.196249,0.11342 -0.2943746,0.17014 -0.00225,0.001 0.00507,0.003 0.00761,0.002 0.00438,-10e-4 0.00243,-0.0109 0.00738,-0.0115 0.00332,-0.005 0.00409,-0.0126 0.00927,-0.0159 0.00209,-10e-4 0.00521,0.002 0.00742,9.3e-4 0.00542,-0.003 0.00628,-0.0192 0.00973,-0.0233 0.00468,-4.4e-4 0.00973,0.003 0.014067,9.8e-4 0.0052,-0.002 0.0047,-0.0181 0.0082,-0.0212 0.0015,-10e-4 0.0039,6.6e-4 0.0059,9.8e-4 0.0023,10e-4 0.0045,0.004 0.0069,0.003 0.0031,-10e-4 -0.0016,-0.0303 2.45e-4,-0.0344 1.59e-4,-0.0219 1.8e-4,-0.0438 3.97e-4,-0.0657 4.4e-5,-0.0341 7.15e-4,-0.0682 9.79e-4,-0.10228 9.2e-5,-0.0549 2.29e-4,-0.10974 -0.0015,-0.16458 -0.0029,-0.0757 -0.0086,-0.15121 -0.01869,-0.22633 -0.00894,-0.0826 -0.00798,-0.16634 -0.024913,-0.24808 -0.014999,-0.075 -0.02933,-0.15013 -0.043403,-0.22531 -0.01298,-0.0565 -0.031833,-0.11142 -0.045131,-0.16788 -0.010872,-0.0353 -0.024649,-0.0697 -0.040258,-0.10312 -0.00682,-0.022 -0.020116,-0.0417 -0.015692,-0.0653 0.041183,-0.13247 0.2145126,-0.1787 0.3417426,-0.22067 0.02872,-0.009 0.05744,-0.0148 0.08755,-0.0178 0.04513,-0.009 0.08959,-0.0216 0.135357,-0.0276 0.05925,-0.012 0.118166,-0.0261 0.176975,-0.04 0.06471,-0.0187 0.129557,-0.0369 0.194707,-0.054 0.0696,-0.0167 0.13952,-0.0325 0.20783,-0.0541 0.06367,-0.02 0.127432,-0.0401 0.189394,-0.065 0.06038,-0.0237 0.12066,-0.0478 0.177929,-0.0786 0.048,-0.0235 0.0976,-0.0431 0.146002,-0.0657 0.01184,-0.005 0.0461,-0.0236 0.0349,-0.0171 -0.0949,0.0551 -0.381428,0.21717 -0.284955,0.16487 1.073034,-0.58173 -0.209897,0.0881 0.04435,-0.023 0.0086,-0.008 0.01835,-0.0173 0.02853,-0.0233 0.0052,-0.003 0.01226,-0.002 0.01722,-0.006 0.0026,-0.002 0.0038,-0.005 0.0058,-0.008 0.01438,-0.0205 -0.0028,-5e-4 0.01494,-0.01 0.0026,-10e-4 0.0034,-0.005 0.006,-0.007 0.257621,-0.15533 0.225758,-0.2666 0.32225,-0.17248 0.01416,0.0153 0.02594,0.0345 0.03316,0.0539 0.01152,0.0294 0.02805,0.0568 0.03797,0.0869 0.02125,0.0381 0.04512,0.075 0.06255,0.11512 0.02483,0.0503 0.04657,0.10195 0.07063,0.15258 0.03369,0.0633 0.06808,0.12621 0.105519,0.18737 0.04033,0.0683 0.0867,0.13304 0.136858,0.19452 0.04612,0.0599 0.09074,0.12117 0.142101,0.17683 0.05509,0.0551 0.110025,0.11049 0.166904,0.16378 0.0479,0.0485 0.09705,0.0951 0.153248,0.13404 0.04862,0.0417 0.09864,0.0813 0.149417,0.12035 0.03832,0.0295 0.07487,0.0612 0.109724,0.0947 0.01971,0.0197 0.04153,0.0373 0.06002,0.0583 0.0056,0.006 0.02393,0.0287 0.03263,0.019 0.01656,-4.2e-4 0.03308,-0.001 0.04841,-0.008 0.008,-0.004 0.01434,-0.009 0.02197,-0.0131 -0.770066,0.44486 0.01609,-0.01 0.02918,-0.0132 0.02144,-0.009 0.03993,-0.0245 0.06324,-0.0298 0.0088,-0.005 0.03507,-0.0194 0.0264,-0.0144 -0.09502,0.0551 -0.382321,0.21624 -0.285245,0.16488 0.07704,-0.0408 0.723322,-0.41827 0.03192,-0.0167 -0.0052,0.003 0.01059,-0.006 0.01588,-0.009 0.796567,-0.46476 0.0742,-0.0433 0.03258,-0.0191 -0.0056,0.003 0.01117,-0.007 0.01634,-0.0105 0.06064,-0.0455 -0.03067,0.0176 0.03372,-0.0234 0.0059,-0.004 0.01123,-0.008 0.01685,-0.0124 1.023572,-0.59213 -0.219913,0.12786 0.113712,-0.0654 0.04191,-0.0311 0.08234,-0.0636 0.127567,-0.0898 0.04965,-0.0313 0.09589,-0.0679 0.143106,-0.10273 0.04983,-0.0341 0.100174,-0.068 0.145028,-0.10856 0.04239,-0.0376 0.0844,-0.0752 0.128717,-0.11058 0.04116,-0.0379 0.08069,-0.0773 0.124422,-0.11209 0.04481,-0.0343 0.08853,-0.0705 0.123351,-0.11537 0.04241,-0.0411 0.08468,-0.0824 0.127103,-0.12348 0.04844,-0.0487 0.09078,-0.10289 0.133304,-0.15673 0.05116,-0.072 0.09656,-0.14778 0.141329,-0.22388 0.04107,-0.0736 0.08561,-0.14516 0.124931,-0.21973 0.03578,-0.0725 0.07739,-0.14204 0.108921,-0.21662 0.02322,-0.0621 0.04769,-0.12357 0.07098,-0.18564 0.01699,-0.0372 0.03097,-0.0749 0.03895,-0.11484 0.006,-0.0179 0.01235,-0.0235 0.007,-0.0443 -0.0025,-0.0146 -0.01332,-0.0232 -0.02349,-0.033 -0.01453,-0.006 -0.02877,-0.0166 -0.0447,-0.0208 -0.03788,-0.0116 -0.07448,-0.0273 -0.1135,-0.035 -0.05489,-0.0158 -0.109641,-0.032 -0.165531,-0.0441 -0.06041,-0.0127 -0.121256,-0.0229 -0.181446,-0.0365 -0.05628,-0.0117 -0.112013,-0.0249 -0.167152,-0.0413 -0.05295,-0.0179 -0.10516,-0.0382 -0.159789,-0.0507 -0.05222,-0.0146 -0.104792,-0.0278 -0.157173,-0.0418 -0.04568,-0.0127 -0.09312,-0.0178 -0.138528,-0.0319 -0.05292,-0.0116 -0.105873,-0.0231 -0.159114,-0.0331 -0.04628,-0.0107 -0.09285,-0.0187 -0.139778,-0.0262 -0.03783,-0.007 -0.07648,-0.007 -0.114144,-0.0153 -0.03105,-0.006 -0.06116,-0.0144 -0.09321,-0.0121 -0.02505,-0.001 -0.05012,-0.004 -0.07389,-0.0128 -0.02153,-0.008 -0.04355,-0.0151 -0.06381,-0.0256 -0.01747,-0.0173 -0.02675,-0.0355 -0.01987,-0.0603 0.0045,-0.022 0.01234,-0.0424 0.02167,-0.0629 3.97e-4,-0.0408 3.44e-4,-0.0816 0.0018,-0.12239 0.0024,-0.0546 0.006,-0.10919 0.01537,-0.16313 0.0105,-0.0713 0.01032,-0.14286 0.01388,-0.21481 0.0057,-0.0763 0.01655,-0.15207 0.02018,-0.22842 0.0041,-0.0755 0.01009,-0.15118 0.02737,-0.22504 0.01569,-0.0811 0.02374,-0.16359 0.03088,-0.24582 0.0087,-0.0689 0.01933,-0.13744 0.02965,-0.20602 0.01187,-0.0556 0.0202,-0.11196 0.0353,-0.16678 0.006,-0.0393 0.01713,-0.0772 0.02159,-0.11659 0.0014,-0.008 0.0027,-0.0183 0.0059,-0.026 0.0019,-0.005 0.0075,-0.007 0.0093,-0.012 2.46e-4,-6.6e-4 -7.94e-4,-0.0153 -8.2e-4,-0.0157 -0.0049,-0.14339 0.159583,-0.13802 0.313923,-0.22482 0.01765,-0.008 0.03162,-0.0191 0.05253,-0.0152 0.02942,-0.002 0.05885,-0.005 0.08768,-0.0113 0.03814,-0.009 0.07615,-0.0167 0.11533,-0.0199 0.04279,-0.007 0.08553,-0.0171 0.129232,-0.0149 0.05075,10e-5 0.101497,4.8e-4 0.152247,5.5e-4 0.06654,-5e-5 0.133076,6.9e-4 0.19961,-2.1e-4 0.07438,-9.8e-4 0.148847,-0.003 0.222898,-0.0104 0.06952,-0.008 0.138782,-0.0178 0.208794,-0.0207 0.06172,-0.006 0.122807,-0.0173 0.184681,-0.0221 0.0433,-0.006 0.08447,-0.0164 0.125051,-0.0326 0.117848,-0.0551 0.2811,-0.15322 -0.237069,0.14396 0.0053,-0.003 0.01214,-0.004 0.01632,-0.009 0.0024,-0.003 0.0019,-0.007 0.0042,-0.01 0.0065,-0.007 0.0172,0.002 0.01806,-0.0114 0.0076,-0.0203 0.01889,10e-4 0.01492,-0.0338 -3.4e-5,-0.0145 9.79e-4,-0.0295 -0.0037,-0.0434 -0.0064,-0.02 -0.01985,-0.0372 -0.02244,-0.0582 -0.0057,-0.0315 -0.01728,-0.0608 -0.03015,-0.09 -0.01259,-0.0421 -0.03192,-0.0818 -0.04376,-0.12424 -0.01829,-0.059 -0.03099,-0.11967 -0.04735,-0.17924 -0.01693,-0.0591 -0.03134,-0.11891 -0.04615,-0.17856 -0.01624,-0.0592 -0.02667,-0.11995 -0.03699,-0.18043 -0.01231,-0.0634 -0.02106,-0.12725 -0.02886,-0.19142 -0.002,-0.0657 -0.0059,-0.13138 -0.01674,-0.19629 -0.01161,-0.0756 -0.01747,-0.1517 -0.02778,-0.22752 -0.0099,-0.0764 -0.01054,-0.15396 -0.0254,-0.22984 -0.01008,-0.0629 -0.0135,-0.12681 -0.02381,-0.18978 -1.29e-4,-0.045 -3.44e-4,-0.09 -8.46e-4,-0.13503 -5.82e-4,-0.0246 -4.24e-4,-0.0496 -0.0061,-0.0737 -0.0061,-0.0139 -0.01609,-0.026 -0.02031,-0.0402 -0.0073,-0.008 -0.0273,-0.009 -0.03631,-0.003 -0.03085,0.009 -0.06075,0.0209 -0.093,0.0243 -0.05019,0.0119 -0.09784,0.0312 -0.145611,0.0505 -0.05599,0.0247 -0.111895,0.0496 -0.166107,0.0781 -0.05786,0.0277 -0.117638,0.0509 -0.175847,0.0779 -0.02972,0.0139 -0.03039,0.0138 -0.05924,0.0291 -0.0094,0.005 -0.03735,0.0207 -0.02812,0.0154 0.08978,-0.0524 0.360407,-0.2073 0.269789,-0.15638 -0.06518,0.0366 -0.727454,0.42046 -0.05767,0.0325 -0.197845,0.11216 -0.702773,0.40543 -0.107404,0.0632 0.016,-0.009 -0.05886,0.0365 -0.04603,0.0308 -0.106762,0.0618 -0.212635,0.12523 -0.320287,0.1855 -0.0942,0.0527 0.186338,-0.10907 0.279912,-0.1629 0.0063,-0.004 -0.01188,0.008 -0.01803,0.0122 -0.01673,0.0105 -0.0326,0.0214 -0.04839,0.0335 -0.108487,0.0757 -0.255975,0.1486 -0.348196,0.20576 -0.09313,0.0577 0.189193,-0.11059 0.284064,-0.16541 0.0091,-0.005 -0.03248,0.0218 -0.02705,0.0159 -0.02223,0.02 -0.04433,0.0403 -0.07066,0.055 -0.1039,0.0616 -0.215497,0.11172 -0.311701,0.18475 -0.08852,0.0672 0.386869,-0.21881 0.288484,-0.16713 -0.0372,0.0195 -0.762219,0.44037 -0.02437,0.013 0.0085,-0.005 -0.03575,0.0202 -0.02552,0.0145 -0.02144,0.0204 -0.05293,0.0304 -0.06938,0.0566 -0.01585,0.0217 -0.04126,0.0367 -0.06349,0.0499 -0.01479,0.0148 -0.02971,0.0294 -0.04391,0.0448 -0.004,0.004 -0.0087,0.008 -0.01246,0.0131 -0.003,0.004 -0.0077,0.0186 -0.01152,0.0203 -0.0022,10e-4 -0.0046,-0.002 -0.0069,-0.003 -0.0024,0.0176 -0.0032,0.0303 -0.01751,0.0427 -0.08855,0.1074 -0.265549,0.29096 -0.344423,0.15679 -5.56e-4,-0.0101 -0.0011,-0.0179 -0.008,-0.0262 -0.01242,-0.0147 -0.01935,-0.0287 -0.02185,-0.0478 -0.0092,-0.0228 -0.02039,-0.0448 -0.02493,-0.0691 -0.0092,-0.0262 -0.02484,-0.0496 -0.03213,-0.0765 -0.01108,-0.0279 -0.01815,-0.0567 -0.0311,-0.0838 -0.0115,-0.025 -0.02043,-0.0523 -0.02799,-0.0786 -0.0055,-0.0266 -0.018,-0.051 -0.0218,-0.0777 -0.0037,-0.0248 -0.01509,-0.0458 -0.02581,-0.0683 -0.0062,-0.0274 -0.01906,-0.051 -0.03061,-0.0762 -0.01269,-0.0263 -0.02556,-0.0524 -0.03933,-0.0782 -0.01484,-0.0218 -0.02858,-0.0443 -0.04097,-0.0675 -0.01065,-0.0199 -0.01581,-0.0423 -0.03272,-0.0586 -0.0099,-0.0188 -0.02401,-0.0352 -0.03553,-0.0529 -0.01572,-0.017 -0.03008,-0.0351 -0.0471,-0.0509 -0.01818,-0.0155 -0.03588,-0.0317 -0.05275,-0.0485 -0.01215,-0.0132 -0.02227,-0.0285 -0.03523,-0.0408 -0.01624,-0.01 -0.03438,-0.016 -0.04963,-0.0277 -0.01663,-0.009 -0.03673,-0.0119 -0.05272,-0.023 -0.01833,-0.01 -0.0373,-0.0167 -0.04937,-0.035 -0.01002,-0.0134 -0.02009,-0.0274 -0.02841,-0.0418 -0.0066,-0.0141 -0.01976,-0.0264 -0.02079,-0.0421 1.52e-4,-0.0101 -5.55e-4,-0.0211 -0.0056,-0.03 -0.0083,-0.0152 -0.02028,-0.0296 -0.02003,-0.0476 -0.0015,-0.0165 -0.0056,-0.0339 0.0071,-0.0469 1.026037,-0.58841 -0.210498,0.12494 0.03825,-0.0226 0.01105,-0.008 0.02954,-0.0512 0.04363,-0.0614 0.03148,-0.047 0.07405,-0.0845 0.103808,-0.13285 0.05125,-0.0659 0.104235,-0.1304 0.152094,-0.19882 0.06102,-0.0813 0.118434,-0.16567 0.16671,-0.25529 0.05062,-0.0869 0.105156,-0.17145 0.15339,-0.25973 0.03533,-0.0591 0.07414,-0.11597 0.108034,-0.17586 0.01821,-0.0308 0.03693,-0.0626 0.05035,-0.0954 0.0035,-0.008 0.0095,-0.0139 0.01288,-0.0216 0.0053,-0.0121 0.002,-0.0254 0.01655,-0.0318 -6.8e-5,-0.0119 9.26e-4,-0.0238 -0.0033,-0.0352 -0.0059,-0.0135 -0.02215,-0.0184 -0.03269,-0.0274 -0.0227,-0.0133 -0.04875,-0.021 -0.06977,-0.0376 -0.04329,-0.0223 -0.08669,-0.0444 -0.129025,-0.0685 -0.05821,-0.0332 -0.119351,-0.0611 -0.176543,-0.0962 -0.06434,-0.0387 -0.126661,-0.0807 -0.192374,-0.11707 -0.07165,-0.0426 -0.139578,-0.0912 -0.210289,-0.1353 -0.06106,-0.0381 -0.122954,-0.0751 -0.182193,-0.116 -0.04515,-0.0327 -0.09335,-0.0605 -0.13836,-0.0933 -0.02449,-0.0144 -0.05069,-0.0257 -0.0774,-0.0353 -0.01672,-0.007 -0.0312,-0.007 -0.04925,-0.006 -0.110697,0.006 -0.390377,0.26705 0.256689,-0.15906 -0.02302,0.001 -0.02941,0.0379 -0.05412,0.0406 -0.0241,0.0198 -0.04871,0.0383 -0.07067,0.06 -0.0188,0.0241 -0.04374,0.0423 -0.06445,0.0647 -0.02478,0.0365 -0.05275,0.0702 -0.0787,0.10598 -0.02949,0.0413 -0.05326,0.0866 -0.0874,0.12445 -0.03865,0.0518 -0.06827,0.11034 -0.108452,0.16131 -0.05178,0.0796 -0.112715,0.15169 -0.168715,0.22836 -0.07402,0.0969 -0.142392,0.19789 -0.209326,0.29984 -0.07214,0.10245 -0.144315,0.20484 -0.214784,0.30845 -0.0666,0.0926 -0.130575,0.18708 -0.202683,0.27561 0,0 -0.322213,0.13637 -0.322213,0.13637 z"
       inkscape:connector-curvature="0"
       style="stroke-width:0.26458332" />
    <path
       id="path1451"
       d="m 7.8968498,286.38757 c -0.079086,0.027 -0.1519412,0.068 -0.224333,0.10903 0.027092,-0.0177 -0.099314,0.0544 -0.074782,0.0403 0.088054,-0.0507 0.3517633,-0.20375 0.2644187,-0.15179 -0.108558,0.0646 -0.2192041,0.12559 -0.3280648,0.18965 -0.089384,0.0526 0.1795291,-0.10391 0.2696348,-0.15526 0.00922,-0.005 -0.017965,0.0113 -0.026949,0.0169 -0.051453,0.0353 -0.1020554,0.0718 -0.1528205,0.10801 -0.063999,0.0438 -0.1268214,0.0892 -0.187316,0.13777 -0.054525,0.0422 -0.1065143,0.0874 -0.156818,0.13454 -0.042371,0.0399 -0.083512,0.081 -0.124697,0.12212 -0.041101,0.0417 -0.075329,0.0892 -0.1095354,0.13643 -0.03272,0.0465 -0.063484,0.0944 -0.095387,0.14147 -0.028489,0.0417 -0.050749,0.0871 -0.075211,0.13121 -0.022397,0.041 -0.042862,0.0829 -0.059747,0.12651 -0.018058,0.0552 -0.030039,0.11211 -0.043595,0.16854 -0.016174,0.0712 -0.02889,0.14296 -0.042638,0.21459 -0.0136,0.0599 -0.02249,0.12045 -0.026806,0.18164 -0.00306,0.0539 -0.00262,0.10785 -0.00302,0.16178 -1.439e-4,0.0595 1.133e-4,0.11893 -7.93e-5,0.1784 -0.0014,0.0628 0.0098,0.12484 0.016592,0.18704 0.00388,0.05 0.00533,0.0997 0.018738,0.14828 0.016042,0.0532 0.038949,0.10369 0.063195,0.15357 0.028966,0.0579 0.053222,0.1175 0.074804,0.17846 0.018383,0.0645 0.048708,0.12415 0.077827,0.18423 0.031761,0.065 0.063079,0.13031 0.095643,0.19497 0.034235,0.065 0.072403,0.12769 0.1074097,0.19235 0.033666,0.0626 0.078664,0.11778 0.1205974,0.17484 0.033058,0.0563 0.078208,0.10246 0.1243002,0.14792 0.041913,0.0461 0.09207,0.083 0.1373349,0.12537 0.042896,0.0347 0.083629,0.0719 0.1236749,0.10988 0.044222,0.0418 0.092894,0.0786 0.1385589,0.11889 0.047945,0.0471 0.1041223,0.0839 0.1580457,0.12353 0.056532,0.0412 0.1156657,0.0785 0.1758391,0.11412 0.0639,0.0406 0.1319059,0.0739 0.1999724,0.10674 0.070183,0.0367 0.144608,0.0636 0.2200235,0.0871 0.083492,0.0303 0.1701221,0.0489 0.2566913,0.0677 0.1109856,0.0193 0.223292,0.0317 0.3354078,0.0429 0.1186675,0.0106 0.2378591,0.0125 0.3569219,0.0137 0.1141447,6.1e-4 0.2282918,5.3e-4 0.3424375,2.6e-4 0.1065183,0.005 0.2117795,-0.008 0.3168265,-0.0233 0.107417,-0.024 0.213371,-0.0551 0.31898,-0.0862 0.12499,-0.0366 0.247243,-0.0803 0.365482,-0.13483 0.118406,-0.0512 0.232122,-0.11222 0.346363,-0.17194 0.158832,-0.0936 -0.04906,0.0293 -0.194058,0.10956 -0.01583,0.009 0.03056,-0.0194 0.04571,-0.0293 0.04178,-0.0273 0.08159,-0.0565 0.120983,-0.0871 0.0722,-0.0541 0.140197,-0.1132 0.208552,-0.17193 0.06799,-0.0524 0.125688,-0.11547 0.17882,-0.1825 0.04878,-0.0652 0.09668,-0.13127 0.138727,-0.20107 0.04753,-0.0827 0.08797,-0.16948 0.125795,-0.25702 0.04679,-0.1124 0.09428,-0.22451 0.142498,-0.3363 0.04871,-0.10342 0.08362,-0.21237 0.112469,-0.32276 0.0233,-0.0998 0.03964,-0.20091 0.05763,-0.30172 0.01694,-0.0882 0.02138,-0.1779 0.0245,-0.26743 0.0047,-0.0925 1.85e-4,-0.18453 -0.0088,-0.27656 -0.01255,-0.0789 -0.02413,-0.15785 -0.03812,-0.23647 -0.01028,-0.0775 -0.0316,-0.15228 -0.05413,-0.22689 -0.02734,-0.0783 -0.05934,-0.15516 -0.09456,-0.23023 -0.02837,-0.0744 -0.06565,-0.14403 -0.106741,-0.21194 -0.05056,-0.0682 -0.107541,-0.13127 -0.161118,-0.19704 -0.05541,-0.0769 -0.114636,-0.15084 -0.184221,-0.21533 -0.06109,-0.0619 -0.132973,-0.11096 -0.203929,-0.16054 -0.07206,-0.0521 -0.15168,-0.091 -0.231533,-0.12926 -0.07597,-0.0427 -0.156054,-0.0761 -0.237335,-0.10705 -0.08618,-0.0344 -0.175282,-0.0612 -0.265065,-0.0844 -0.09069,-0.0281 -0.184769,-0.0418 -0.278255,-0.0567 -0.09383,-0.0162 -0.189296,-0.0141 -0.283758,-0.0231 -0.088431,-0.0101 -0.1772094,-0.0157 -0.2661459,-0.0184 -0.07902,-1.5e-4 -0.1584648,-0.006 -0.2371884,0.002 -0.080323,0.01 -0.1610341,0.015 -0.2418857,0.0176 -0.077178,0.0103 -0.154509,0.0187 -0.2322693,0.0228 -0.067977,0.0105 -0.1359239,0.0193 -0.2034704,0.0322 -0.06976,0.01 -0.1378196,0.0293 -0.2044065,0.0521 -0.059655,0.0191 -0.1183082,0.0426 -0.1740712,0.0712 -0.1558237,0.0992 0.3783703,-0.24107 0.2220809,-0.12218 -0.00853,0.006 -0.016663,0.0135 -0.024998,0.0202 0,0 -0.3234,0.13062 -0.3234,0.13062 v 0 c 0.1189239,-0.10284 0.2578548,-0.17763 0.3996037,-0.24646 0.057426,-0.0254 0.1156753,-0.049 0.1759894,-0.0668 0.067974,-0.0208 0.136941,-0.038 0.2073236,-0.0486 0.068093,-0.0122 0.1368102,-0.0213 0.2055963,-0.0285 0.077549,-0.005 0.154586,-0.0154 0.2320523,-0.0216 0.080795,-0.004 0.1613037,-0.0106 0.2417461,-0.019 0.079596,-0.004 0.1593381,-4.2e-4 0.2389551,10e-4 0.08894,0.004 0.177609,0.0108 0.266128,0.0204 0.09523,0.007 0.191149,0.008 0.285334,0.0253 0.0943,0.0157 0.188755,0.0309 0.280247,0.0595 0.09054,0.0248 0.180584,0.052 0.267799,0.087 0.08186,0.0315 0.161364,0.0681 0.238632,0.10962 0.08135,0.0392 0.161407,0.0811 0.234998,0.13381 0.07193,0.0507 0.14433,0.10158 0.205721,0.1652 0.06989,0.0663 0.130116,0.14115 0.186767,0.21899 0.05535,0.0665 0.113712,0.13068 0.164639,0.2007 0.04204,0.0688 0.07976,0.13977 0.108406,0.21535 0.03576,0.0766 0.06846,0.15498 0.09696,0.23458 0.0231,0.0757 0.04672,0.15133 0.0564,0.23032 0.01424,0.0796 0.02559,0.15957 0.03886,0.23935 0.0084,0.0935 0.01516,0.18669 0.0099,0.28066 -0.0017,0.091 -0.0052,0.18235 -0.02182,0.2721 -0.01928,0.10157 -0.03561,0.20363 -0.05819,0.30456 -0.02773,0.11209 -0.06137,0.22329 -0.110593,0.32801 -0.04882,0.11142 -0.09607,0.22354 -0.142684,0.3359 -0.03601,0.0885 -0.07519,0.17587 -0.120464,0.25995 -0.042,0.071 -0.08837,0.13888 -0.137824,0.20502 -0.05132,0.0696 -0.107707,0.13614 -0.17621,0.1896 -0.06969,0.0576 -0.135132,0.12032 -0.208797,0.1731 -0.172004,0.13963 -0.36865,0.24336 -0.561935,0.3508 -0.1143,0.0594 -0.228661,0.11889 -0.347047,0.16993 -0.119828,0.0525 -0.243527,0.0949 -0.369087,0.13164 -0.106704,0.031 -0.2134471,0.0642 -0.3230476,0.0832 -0.1058989,0.0147 -0.2122185,0.0229 -0.319251,0.019 -0.114092,-6e-5 -0.2281896,3.7e-4 -0.3422763,-9.3e-4 -0.1196743,-0.002 -0.2394652,-0.004 -0.358648,-0.0163 -0.1132764,-0.0121 -0.2270427,-0.0233 -0.3389567,-0.0449 -0.08795,-0.0183 -0.1750118,-0.0401 -0.2599124,-0.0698 -0.076305,-0.0255 -0.1517258,-0.0533 -0.2231342,-0.0908 -0.068816,-0.0333 -0.1366194,-0.0687 -0.201485,-0.10921 -0.061289,-0.0361 -0.1208526,-0.0748 -0.1784556,-0.11652 -0.054839,-0.04 -0.1104479,-0.0792 -0.1598859,-0.12596 -0.0463,-0.0401 -0.095275,-0.0772 -0.1393608,-0.11982 -0.040414,-0.0375 -0.082145,-0.0735 -0.1238358,-0.10955 -0.045876,-0.0421 -0.09473,-0.081 -0.1374484,-0.12665 -0.047202,-0.0469 -0.092117,-0.0957 -0.1271005,-0.15275 -0.042386,-0.0586 -0.087495,-0.11547 -0.1220031,-0.17926 -0.035704,-0.0647 -0.073509,-0.1281 -0.1085152,-0.19315 -0.032362,-0.0649 -0.063565,-0.1304 -0.095806,-0.19537 -0.02976,-0.0611 -0.0615,-0.12164 -0.08017,-0.18731 -0.0214,-0.0596 -0.043878,-0.11866 -0.073254,-0.175 -0.024831,-0.0516 -0.049739,-0.10328 -0.066743,-0.15812 -0.015772,-0.0504 -0.019479,-0.10176 -0.021233,-0.15436 -0.00588,-0.0635 -0.017484,-0.12659 -0.017761,-0.19035 -2.91e-4,-0.0594 -2.545e-4,-0.11875 -5.556e-4,-0.17812 -3.704e-4,-0.0546 -1.35e-5,-0.1093 0.00238,-0.1639 0.00343,-0.0628 0.010525,-0.12513 0.025575,-0.18636 0.015206,-0.0715 0.026463,-0.14388 0.042025,-0.21528 0.012478,-0.0573 0.025641,-0.11441 0.04032,-0.17123 0.01415,-0.0454 0.033683,-0.0896 0.058269,-0.13028 0.019944,-0.0474 0.050343,-0.0907 0.07354,-0.13663 0.033465,-0.0462 0.063492,-0.0948 0.095122,-0.14225 0.035567,-0.0475 0.06812,-0.097 0.1077693,-0.14138 0.041114,-0.0413 0.082049,-0.0827 0.1240602,-0.12308 0.050821,-0.0478 0.1019223,-0.0953 0.1572604,-0.13786 0.060954,-0.0476 0.1204251,-0.0972 0.1858801,-0.13883 0.050341,-0.0369 0.1015865,-0.0725 0.1519685,-0.10931 0.1317802,-0.0909 -0.0018,2.2e-4 0.3530031,-0.20776 0.088764,-0.052 -0.3561104,0.20632 -0.2671279,0.15466 0.1100776,-0.0639 0.2200921,-0.12792 0.3304138,-0.1914 0.024265,-0.014 0.049659,-0.0259 0.073902,-0.0399 0.074662,-0.0412 0.1508506,-0.0806 0.2327955,-0.10541 0,0 -0.2779744,0.21402 -0.2779744,0.21402 z"
       inkscape:connector-curvature="0"
       style="stroke-width:0.26458332" />
    <path
       id="path1453"
       d="m 9.0499879,286.30232 c -0.080068,-0.0105 -0.1609313,-0.0185 -0.2416675,-0.0141 -0.091828,0.004 -0.1797445,0.034 -0.268274,0.0562 -0.08742,0.0269 -0.173173,0.0579 -0.2578373,0.0924 -0.1748216,0.10427 0.1020443,-0.062 0.1530689,-0.0786 0.039113,-0.0127 -0.065348,0.05 -0.097223,0.076 -0.075817,0.0618 -0.1242739,0.10612 -0.1967092,0.17043 0,0 -0.3082597,0.12554 -0.3082597,0.12554 v 0 c 0.056114,-0.0498 0.1387928,-0.12372 0.1954983,-0.17175 0.030549,-0.0259 0.059278,-0.0544 0.092789,-0.0763 0.1211551,-0.0792 0.2462829,-0.15217 0.3704481,-0.22657 0.020177,-0.0121 0.041645,-0.0219 0.062467,-0.0328 0.085207,-0.0341 0.1722059,-0.0639 0.2605955,-0.0887 0.089787,-0.0234 0.1799796,-0.0497 0.2735392,-0.0505 0.083068,-1.6e-4 0.1658443,0.007 0.2483665,0.0166 0,0 -0.2868025,0.20221 -0.2868025,0.20221 z"
       inkscape:connector-curvature="0"
       style="stroke-width:0.26458332" />
    <path
       id="path1455"
       d="m 7.7503458,286.65053 c -0.013869,0.006 -0.02789,0.011 -0.041612,0.0171 -0.062195,0.0274 -0.1352645,0.066 -0.1200801,0.0568 0.072026,-0.0436 0.1437595,-0.0882 0.2195878,-0.12476 0.030542,-0.0147 -0.056734,0.0374 -0.082956,0.0589 -0.030239,0.0248 -0.057381,0.0531 -0.086071,0.0797 -0.1157893,0.1287 -0.060653,0.0641 -0.1657741,0.19357 0,0 -0.3064209,0.13073 -0.3064209,0.13073 v 0 c 0.1055191,-0.13107 0.051192,-0.0654 0.1631207,-0.19688 0.02729,-0.0276 0.05295,-0.0569 0.081871,-0.0827 0.024826,-0.0222 0.050606,-0.0438 0.079017,-0.0612 0.1721834,-0.10532 0.3458869,-0.21389 0.5355138,-0.28582 0,0 -0.276197,0.21457 -0.276197,0.21457 z"
       inkscape:connector-curvature="0"
       style="stroke-width:0.26458332" />
    <path
       id="path1457"
       d="m 9.3156901,288.35285 c -0.00961,0.005 -0.019238,0.01 -0.028846,0.0145 -0.021138,0.0107 -0.082995,0.0456 -0.062452,0.0338 0.4787193,-0.27419 0.3089365,-0.18874 0.2124887,-0.11424 -0.037607,0.0295 -0.061598,0.0683 -0.080144,0.11151 -0.02119,0.048 -0.027944,0.10006 -0.032255,0.15183 -0.00499,0.0444 0.0043,0.0874 0.018465,0.12906 0.018063,0.0387 0.051575,0.065 0.086941,0.0871 0.04253,0.0236 0.086745,0.0389 0.1346457,0.0465 0.042252,0.005 0.084898,0.005 0.1274003,0.005 0.031682,-0.0126 0.065512,-0.0186 0.099334,-0.0216 0.034646,-0.0107 0.067942,-0.0216 0.097749,-0.0427 0.00574,-0.003 0.022778,-0.0119 0.017214,-0.009 -0.6096971,0.35335 -0.1105898,0.0509 0.095699,-0.049 -0.5203754,0.29733 -0.3035893,0.19933 -0.2104044,0.10089 0.029396,-0.0297 0.054171,-0.0636 0.075618,-0.0994 0.019423,-0.0304 0.033425,-0.0638 0.045825,-0.0976 0.013729,-0.0376 0.015801,-0.0777 0.017489,-0.11721 0.00292,-0.0414 0.00146,-0.0817 -0.00833,-0.12203 -0.00495,-0.032 -0.020145,-0.059 -0.039414,-0.0844 -0.02562,-0.0277 -0.056546,-0.0478 -0.0879,-0.0683 -0.036472,-0.0242 -0.072128,-0.0493 -0.1129496,-0.0656 -0.045225,-0.0149 -0.093136,-0.0156 -0.1402593,-0.0167 -0.05402,-0.006 -0.1034254,0.009 -0.1539267,0.025 -0.1247158,0.0559 -0.3634949,0.2021 0.1580393,-0.098 -0.050859,0.028 -0.091768,0.0678 -0.1276347,0.11284 -0.037944,0.0649 -0.056639,0.13894 -0.077457,0.21064 -0.019717,0.0771 -0.038649,0.15465 -0.053027,0.233 -0.00988,0.0538 -0.014814,0.10753 -0.00169,0.16101 0.019423,0.0501 0.048391,0.0944 0.08288,0.13522 0.039075,0.05 0.088408,0.0861 0.1415412,0.11958 0.1006322,0.0468 0.2115317,0.0328 0.3183493,0.0234 0,0 -0.2736413,0.20208 -0.2736413,0.20208 v 0 c -0.1141614,0.008 -0.2326688,0.0185 -0.337561,-0.037 -0.055729,-0.0357 -0.1066615,-0.0759 -0.1482582,-0.12802 -0.037406,-0.0449 -0.068075,-0.0943 -0.091021,-0.14819 -0.016425,-0.0578 -0.015031,-0.11653 -0.00392,-0.17539 0.01424,-0.0797 0.034953,-0.15796 0.052863,-0.23685 0.021267,-0.074 0.040497,-0.1489 0.070915,-0.21992 0.030113,-0.0507 0.072353,-0.0937 0.1214747,-0.12652 0.1400794,-0.0811 0.2870062,-0.18589 0.4450614,-0.24172 0.052651,-0.0149 0.1059252,-0.0201 0.1606275,-0.0156 0.050621,0.002 0.1015556,0.006 0.1484826,0.0273 0.040771,0.0198 0.07846,0.0448 0.1159902,0.0701 0.03488,0.0223 0.06777,0.0469 0.09515,0.0783 0.02177,0.029 0.0403,0.0608 0.04656,0.097 0.01019,0.0433 0.01575,0.086 0.0119,0.13073 -9.26e-4,0.0423 -0.0017,0.0852 -0.01235,0.12638 -0.01158,0.0359 -0.02438,0.0716 -0.04311,0.10436 -0.02196,0.0368 -0.04291,0.0748 -0.07268,0.1061 -0.1192727,0.13128 -0.1554971,0.13212 -0.3870874,0.25384 -0.039876,0.021 0.0043,-0.002 -0.037631,0.0183 -0.00667,0.003 -0.026172,0.0138 -0.019783,0.0101 0.5833954,-0.34082 0.1463465,-0.0809 -0.054643,0.0309 -0.033787,0.0153 -0.069359,0.0271 -0.1062495,0.0321 -0.03408,0.006 -0.067597,0.0176 -0.1023557,0.0177 -0.043527,-10e-4 -0.087283,-0.003 -0.130134,-0.0111 -0.050359,-0.0118 -0.098022,-0.0308 -0.1421781,-0.058 -0.040317,-0.0283 -0.07843,-0.0605 -0.099217,-0.10641 -0.01587,-0.0456 -0.02806,-0.0932 -0.02432,-0.14198 0.00348,-0.0548 0.0094,-0.10978 0.026797,-0.16222 0.019891,-0.0457 0.036009,-0.0931 0.075321,-0.1268 0.1352058,-0.12666 0.3120604,-0.20062 0.4771419,-0.28241 0,0 -0.275115,0.21743 -0.275115,0.21743 z"
       inkscape:connector-curvature="0"
       style="stroke-width:0.26458332" />
    <path
       id="path1459"
       d="m 0.61452772,284.76875 c 0.0694058,0.0284 0.14238312,0.0468 0.21324806,0.0709 0.062851,0.0209 0.12550592,0.0425 0.18709442,0.0668 0.060899,0.0217 0.1193573,0.0505 0.1754331,0.0826 0.055777,0.0269 0.1057588,0.0637 0.1566463,0.0987 0.051846,0.0351 0.094986,0.0809 0.1434927,0.12007 0.046943,0.0339 0.085048,0.0774 0.1280027,0.11591 0.045431,0.0402 0.089154,0.0822 0.1325822,0.12455 0.044453,0.0423 0.084902,0.0884 0.1254251,0.1344 0.036458,0.0423 0.073875,0.0835 0.1082283,0.12748 0.038769,0.0471 0.078058,0.0935 0.1126473,0.14389 0.03491,0.0554 0.074685,0.10786 0.1086647,0.16379 0.036438,0.0576 0.068869,0.11747 0.1021605,0.17691 0.032146,0.0656 0.068156,0.12939 0.098012,0.19607 0.032576,0.0718 0.052291,0.14833 0.079097,0.22226 0.028004,0.0771 0.053715,0.15499 0.079582,0.23285 0.025078,0.0743 0.042449,0.1507 0.0591,0.22721 0.016169,0.0759 0.031142,0.15215 0.047899,0.22798 0.015687,0.0805 0.033564,0.16055 0.04468,0.24186 0.010626,0.0911 0.011695,0.18296 0.012679,0.27458 -6.879e-4,0.0912 0.00307,0.18259 -0.0018,0.27373 -0.0074,0.0972 -0.020278,0.19399 -0.03516,0.29033 -0.018214,0.10034 -0.034556,0.20119 -0.056451,0.30082 -0.026106,0.10985 -0.058651,0.21767 -0.096408,0.32403 -0.034935,0.10521 -0.073693,0.20902 -0.108398,0.31429 -0.033817,0.10284 -0.074747,0.20322 -0.1237834,0.29971 -0.049883,0.09 -0.1024799,0.17839 -0.1535577,0.2677 -0.046115,0.0805 -0.1004754,0.15546 -0.1545132,0.23063 -0.04969,0.0725 -0.1086376,0.13757 -0.1663095,0.2036 -0.059357,0.0688 -0.1237129,0.13278 -0.1890497,0.19581 -0.062501,0.0548 -0.124093,0.11058 -0.1858398,0.16623 -0.056444,0.0525 -0.1170164,0.10017 -0.1751808,0.15068 -0.053065,0.0462 -0.1109362,0.0864 -0.1681156,0.12732 -0.14837204,0.11274 -0.31292766,0.19746 -0.47437749,0.29102 0.0899312,-0.0519 0.36080629,-0.20553 0.26979372,-0.15559 -0.10975734,0.0602 -0.2173356,0.12434 -0.32603842,0.18645 -0.008705,0.005 -0.0348722,0.0198 -0.0261834,0.0148 0.0910456,-0.0524 0.36519813,-0.2078 0.27325418,-0.157 -0.0556465,0.0308 -0.73937662,0.42332 -0.0529622,0.0295 -0.1418976,0.0886 -0.28603646,0.17319 -0.43988891,0.23809 -0.0453686,0.0118 -0.0830226,0.0401 -0.12667916,0.0558 -0.0384804,0.0196 -0.0803992,0.0279 -0.11922999,0.0467 -0.01987164,0.0113 -0.04454563,0.008 -0.06541178,0.0143 -0.0090019,0.003 -0.01670109,0.009 -0.02547424,0.0123 -0.02194963,0.01 -0.04582504,0.0124 -0.06945893,0.0137 -0.01501415,-0.01 -0.0082381,-0.005 -0.02053002,-0.0147 0,0 0.29605174,-0.19252 0.29605174,-0.19252 v 0 c 0.005245,-2.5e-4 0.002655,5.9e-4 0.007424,-0.003 0.0219818,-0.004 0.0429028,-0.0118 0.0636694,-0.0198 0.0294025,-0.0101 0.0616093,-0.012 0.0892675,-0.0278 0.0397065,-0.0152 0.0809371,-0.0263 0.1189424,-0.046 0.0413393,-0.0201 0.0824068,-0.0403 0.12572902,-0.056 0.12316352,-0.0579 0.36636907,-0.17696 -0.16048976,0.10457 0.10821104,-0.0622 0.21642205,-0.12438 0.32463308,-0.18657 -0.0904288,0.0526 -0.36203603,0.20995 -0.27128633,0.15788 0.10839775,-0.0622 0.21601041,-0.12576 0.32423142,-0.18826 0.27035897,-0.15616 -1.0080414,0.58644 0.0815377,-0.0457 -0.52646355,0.30567 -0.23109129,0.14293 -0.12044889,0.0559 0.0576928,-0.0396 0.11440332,-0.0808 0.16957923,-0.12381 0.0577436,-0.0514 0.11862633,-0.0989 0.17607213,-0.15055 0.061669,-0.0557 0.1221886,-0.11257 0.1863719,-0.16533 0.065582,-0.0624 0.1309868,-0.12481 0.1908147,-0.19282 0.055937,-0.0668 0.1175797,-0.12888 0.1673651,-0.20072 0.053279,-0.0753 0.1100956,-0.14812 0.1562993,-0.22821 0.053702,-0.0876 0.1022444,-0.17848 0.1553208,-0.26657 0.051189,-0.094 0.091455,-0.19349 0.1263292,-0.29461 0.034949,-0.10554 0.072806,-0.20995 0.1083478,-0.31529 0.03833,-0.10488 0.0714,-0.21128 0.097473,-0.31991 0.023407,-0.0986 0.037384,-0.1992 0.056989,-0.29862 0.016086,-0.095 0.027693,-0.19087 0.035587,-0.28691 0.00724,-0.0903 0.00249,-0.1811 0.00353,-0.27162 -8.308e-4,-0.0902 -0.00162,-0.18066 -0.011392,-0.27046 -0.010454,-0.0804 -0.02828,-0.15927 -0.043874,-0.23872 -0.017654,-0.0757 -0.031317,-0.1523 -0.047477,-0.22833 -0.017307,-0.0752 -0.033401,-0.15063 -0.057444,-0.22404 -0.02613,-0.0774 -0.05101,-0.1553 -0.078987,-0.23211 -0.026859,-0.073 -0.046876,-0.14853 -0.078979,-0.2196 -0.029061,-0.0658 -0.064164,-0.12879 -0.095998,-0.19329 -0.033799,-0.0587 -0.065974,-0.11832 -0.102187,-0.1756 -0.03395,-0.0551 -0.072819,-0.10732 -0.1076831,-0.16188 -0.035082,-0.0492 -0.073662,-0.0954 -0.1122194,-0.14193 -0.034152,-0.0434 -0.071611,-0.0837 -0.1075892,-0.12563 -0.039595,-0.0455 -0.078703,-0.0915 -0.1230671,-0.13252 -0.043407,-0.0419 -0.08732,-0.0832 -0.1326897,-0.12302 -0.042229,-0.0384 -0.080135,-0.0815 -0.1267085,-0.11501 -0.046682,-0.0398 -0.090641,-0.0831 -0.1418993,-0.1172 -0.050216,-0.0341 -0.0996573,-0.0696 -0.15448605,-0.0962 -0.0556939,-0.03 -0.11282926,-0.0576 -0.17258551,-0.0786 -0.0616505,-0.0229 -0.12349914,-0.0452 -0.18596112,-0.0658 -0.0723784,-0.0237 -0.14541603,-0.0455 -0.21683308,-0.072 0,0 0.29180112,-0.19446 0.29180112,-0.19446 z"
       inkscape:connector-curvature="0"
       style="stroke-width:0.26458332" />
    <path
       id="path1463"
       d="m 2.8341505,286.92395 c 0.063183,0.0421 0.1384869,0.0566 0.2123345,0.0673 0.092826,0.0102 0.1853811,0.0227 0.2779281,0.0353 0.10951,0.0102 0.2183281,0.026 0.32795,0.0351 0.1022791,0.003 0.2037365,0.0167 0.3057043,0.0245 0.077977,0.004 0.1549231,0.0186 0.2326632,0.0259 0.059235,0.0124 0.1187913,0.0218 0.1779897,0.0342 0.061052,0.0117 0.1212149,0.0274 0.180929,0.0446 0.048536,0.0112 0.094726,0.0298 0.1407149,0.0485 0.02767,0.0161 0.053121,0.0344 0.078777,0.0529 0.025911,0.0238 0.03366,0.0541 0.03807,0.0877 0.00382,0.0356 0.00353,0.0714 0.00356,0.10716 -1.672e-4,0.0386 -6.085e-4,0.0771 -5.027e-4,0.11567 -5.21e-5,0.0418 -2.14e-4,0.0836 -2.91e-4,0.12543 -7.62e-5,0.0466 -8.44e-5,0.0933 -9.16e-5,0.13994 -8.467e-4,0.0519 -0.00206,0.1035 0.00536,0.15496 0.00889,0.0498 0.013631,0.10012 0.01632,0.15059 0.00124,0.0571 0.00338,0.11429 -4.498e-4,0.17132 -0.00698,0.0535 -0.014245,0.10695 -0.018113,0.16081 -0.00383,0.0458 -0.00106,0.0919 -0.00467,0.13773 -0.00639,0.0361 -0.014327,0.0718 -0.018108,0.10824 -4.65e-5,0.0306 -0.00596,0.0593 -0.015031,0.0882 -0.00857,0.0225 -0.00851,0.0467 -0.015237,0.0696 -0.00777,0.0179 -0.014846,0.0355 -0.017928,0.0549 -0.00702,0.0131 -0.013041,0.0274 -0.021122,0.0401 4.498e-4,0.02 -0.016282,0.0275 -0.021302,0.0447 -0.00201,0.0105 -0.00991,0.009 -0.01519,0.0129 -0.00566,0.005 -0.010554,0.0142 -0.016446,0.0196 -0.1033081,0.0594 -0.2066163,0.11876 -0.3099244,0.17814 -0.00606,0.004 -0.013404,-0.002 -0.019457,8e-4 -0.00741,0.003 -0.017552,0.0153 -0.025493,0.0193 -0.027953,0.002 -0.049364,0.0179 -0.076941,0.0224 -0.020153,0.007 -0.042389,8.8e-4 -0.062736,0.005 -0.010634,0.002 -0.020349,0.007 -0.030701,0.0105 -0.04366,0.0108 -0.088915,0.0109 -0.133599,0.0121 -0.051896,10e-4 -0.1038101,10e-4 -0.1557155,9.5e-4 -0.05285,0.002 -0.1049994,0.0133 -0.1577615,0.0186 -0.053463,0.005 -0.107179,0.005 -0.1608064,0.005 -0.066018,0.0102 -0.1324932,0.0161 -0.1991235,0.0202 -0.067366,0.003 -0.1348169,0.003 -0.2022359,0.003 -0.061071,10e-4 -0.1214932,0.0131 -0.1824646,0.0185 -0.053914,0.004 -0.1080328,0.005 -0.1620901,0.006 -0.034056,9e-5 -0.068108,5.8e-4 -0.1021643,5e-4 -0.018494,0.003 -0.047214,-0.008 -0.0601,0.007 -0.082627,0.0889 -0.012522,0.0122 0.2875567,-0.16293 0.00342,-0.002 -0.011271,0.003 -0.016846,0.014 -0.00266,0.0213 -0.013494,0.0422 -0.023416,0.0614 -0.013547,0.0297 -0.027805,0.0587 -0.039582,0.0892 -0.022074,0.0422 -0.047099,0.0825 -0.067533,0.12561 -0.027589,0.0605 -0.057082,0.12009 -0.085802,0.18005 -0.028474,0.066 -0.052564,0.13376 -0.081456,0.19957 -0.025868,0.0639 -0.058792,0.12452 -0.091442,0.18512 -0.03875,0.0644 -0.079184,0.12778 -0.1177822,0.1923 -0.036924,0.0597 -0.070964,0.12113 -0.1106702,0.17905 -0.032805,0.0515 -0.07054,0.0993 -0.1085844,0.1469 -0.031041,0.0434 -0.061965,0.0862 -0.097811,0.12585 -0.030261,0.032 -0.061622,0.063 -0.093006,0.094 -0.021367,0.0179 -0.036984,0.0406 -0.056426,0.0602 -0.016195,0.0162 -0.03425,0.0304 -0.049219,0.0478 -0.017454,0.0133 -0.036475,0.0246 -0.054835,0.0369 -0.00748,0.008 -0.8023484,0.46123 -0.02877,0.0168 0.020047,-0.0115 -0.011234,0.007 -0.016833,0.0126 -0.00693,0.0143 -0.022652,0.0175 -0.02856,0.034 -0.012593,0.0235 -0.016528,0.0216 -0.024776,-0.004 0.00657,-0.0164 0.03042,0.002 0.038843,0.008 0.017424,0.008 0.03369,0.018 0.049142,0.0308 0.032051,0.0252 0.058578,0.056 0.083865,0.0878 0.036943,0.0491 0.079255,0.093 0.1249643,0.13384 0.058176,0.0531 0.11281,0.11028 0.1668418,0.16765 0.063966,0.0691 0.129362,0.13692 0.1954662,0.20401 0.063076,0.0616 0.1222434,0.12737 0.1887428,0.18531 0.048557,0.0447 0.097435,0.09 0.1500808,0.13 0.042211,0.0347 0.084604,0.0704 0.1230566,0.10931 0.033194,0.0359 0.070904,0.0672 0.1040596,0.10315 0.027009,0.031 0.048692,0.066 0.078089,0.0949 0.020598,0.0211 0.043527,0.0407 0.061634,0.0641 0.013126,0.0177 0.019926,0.0392 0.023461,0.0607 7.673e-4,0.0204 0.00822,0.0277 -0.00467,0.0455 -0.00153,0.003 -0.00262,0.007 -0.00461,0.01 -0.00624,0.009 -0.019177,0.0145 -0.028614,0.02 -0.3147465,0.18173 -0.1988116,0.14064 -0.3230052,0.18385 -0.1013156,0.0722 -0.01316,0.009 0.28086,-0.16051 0.00294,-0.002 -0.00586,0.003 -0.00879,0.005 -0.010959,0.006 -0.019897,0.013 -0.02938,0.0215 -0.1107863,0.07 -0.2252784,0.13073 -0.3400268,0.19671 -0.015107,0.009 -0.028602,0.0169 -0.044948,0.023 0.011282,-0.007 -0.04095,0.0233 -0.030745,0.0174 0.7120083,-0.40993 0.022329,-0.013 -0.031674,0.0196 -0.092896,0.0561 0.3765962,-0.21569 0.2819481,-0.16265 -0.1071652,0.0601 -0.2130015,0.12246 -0.3195023,0.18369 -0.043014,0.0245 -0.087786,0.0454 -0.1308588,0.0699 0.6318806,-0.35785 0.055997,-0.0385 -0.1403462,0.0777 -0.060248,0.0273 -0.1216662,0.0527 -0.1789967,0.0859 -0.064529,0.0292 -0.1292572,0.0564 -0.1918274,0.0898 -0.071479,0.0303 -0.1427622,0.0611 -0.2149049,0.09 -0.067333,0.0309 -0.1363043,0.0585 -0.2035782,0.0896 -0.064249,0.025 -0.128908,0.049 -0.1935479,0.073 -0.060972,0.0182 -0.1173303,0.0482 -0.177535,0.0683 -0.049419,0.0184 -0.0962168,0.0425 -0.14451751,0.0635 -0.008083,0.003 -0.0164325,0.005 -0.0242485,0.008 -0.0136501,0.006 -0.026643,0.0134 -0.039824,0.0204 -0.006502,0.003 -0.0253161,0.015 -0.0189352,0.0113 0.26518331,-0.1521 0.37815241,-0.2193 0.26584441,-0.1526 -0.1086544,0.0776 -0.21578312,0.1297 -0.34213222,0.20136 -0.0971216,0.0551 0.19292279,-0.11247 0.28991982,-0.16777 0.00727,-0.004 -0.013119,0.0104 -0.019852,0.0154 -0.14099831,0.0893 -0.2201342,0.18052 -0.36107092,0.18515 -0.0180663,0.004 -0.0200398,-0.0182 -0.0321087,-0.0245 -0.0119354,-0.006 -0.0180848,-0.0203 -0.025205,-0.0309 -0.010641,-0.0128 -0.0238308,-0.0243 -0.0378808,-0.0341 -0.0131636,-0.0157 -0.0238143,-0.0332 -0.0365723,-0.0492 -0.0149843,-0.0188 -0.0355048,-0.0309 -0.0523046,-0.048 -0.0241734,-0.0187 -0.0531824,-0.0308 -0.0759918,-0.0513 -0.0208287,-0.0139 -0.0414865,-0.0271 -0.0637052,-0.0388 -0.0180864,-0.007 -0.0366495,-0.008 -0.0557422,-0.009 0,0 0.28753273,-0.20478 0.28753273,-0.20478 v 0 c 0.0222353,0.004 0.0437301,0.0102 0.0634173,0.0214 0.0228809,0.0137 0.0461369,0.027 0.0667394,0.0441 0.0255678,0.0181 0.0538558,0.0326 0.0773326,0.0536 0.0192757,0.0167 0.0403988,0.0316 0.0559247,0.0522 0.0103844,0.0139 0.0196146,0.0289 0.0315597,0.0414 0.0155665,0.0128 0.0318754,0.0262 0.0434584,0.0427 0.0104894,0.0129 0.009381,0.0156 0.0201763,0.0218 0.0314855,0.0287 -0.008516,0.002 0.0169675,0.003 0.10839299,-0.0186 0.37474059,-0.27296 -0.25055425,0.15377 0.19569358,-0.12147 0.64101554,-0.37854 0.0437955,-0.0304 -0.0101576,0.006 0.0438687,-0.0223 0.0296184,-0.0192 0.12696306,-0.0966 0.27117354,-0.1709 0.41796634,-0.23289 0.047781,-0.0224 0.096339,-0.0431 0.1459033,-0.0612 0.058594,-0.023 0.1164078,-0.0481 0.1763244,-0.0676 0.06458,-0.0237 0.128814,-0.0484 0.1923219,-0.0749 0.068072,-0.0291 0.1352908,-0.0601 0.2037202,-0.0884 0.071452,-0.0299 0.1436745,-0.0582 0.213118,-0.0926 0.063173,-0.032 0.1293623,-0.0573 0.1918759,-0.0906 0.059197,-0.0301 0.1205981,-0.0557 0.1791875,-0.087 0.025077,-0.0138 0.049941,-0.028 0.075298,-0.0413 0.00803,-0.004 0.032039,-0.0169 0.024228,-0.0123 -0.013637,0.008 -0.7960109,0.46293 0.041847,-0.0243 0.043713,-0.0233 0.088223,-0.0452 0.1312267,-0.0698 -0.6600594,0.38265 -0.064257,0.0374 0.037381,-0.0221 0.094322,-0.0551 -0.3775554,0.22011 -0.2834787,0.16455 0.1125108,-0.0665 0.2274929,-0.14218 0.3480571,-0.1996 0.2060385,-0.11786 -0.3787149,0.22974 -0.2184818,0.1265 0.015737,-0.006 0.023606,-0.0188 0.037936,-0.0271 0.3099507,-0.18008 0.2012837,-0.13388 0.3239535,-0.18535 0.1015357,-0.0574 0.1762434,-0.0996 -0.2812172,0.16351 -0.00748,0.004 0.013756,-0.0107 0.021524,-0.0144 0.00566,-0.003 0.00978,-0.002 0.015896,-0.003 0.018912,-0.028 0.014785,0.0126 0.015658,-0.0228 -1.863e-4,-0.0153 -0.00355,-0.031 -0.012848,-0.0434 -0.0186,-0.0217 -0.039237,-0.0417 -0.059455,-0.0619 -0.027816,-0.0305 -0.050305,-0.065 -0.077613,-0.0958 -0.033177,-0.0353 -0.069792,-0.067 -0.1028836,-0.10231 -0.038151,-0.0373 -0.078454,-0.073 -0.1201364,-0.10626 -0.051895,-0.0421 -0.1018573,-0.0866 -0.1502113,-0.13269 -0.064998,-0.0604 -0.125366,-0.12559 -0.1883076,-0.18809 -0.066084,-0.0675 -0.1321057,-0.13512 -0.1968018,-0.20399 -0.053584,-0.0566 -0.1083287,-0.11246 -0.1662747,-0.16459 -0.047047,-0.0422 -0.090545,-0.0876 -0.1293581,-0.13766 -0.024207,-0.0293 -0.050062,-0.0569 -0.081035,-0.0793 -0.01535,-0.01 -0.03202,-0.0166 -0.047415,-0.0265 -0.013027,-0.004 -0.0287,0.005 -0.040174,-0.009 -0.017606,-0.0217 -0.026858,-0.0319 -0.00176,-0.0479 0.011738,-0.007 0.0097,-0.0384 0.027627,-0.0349 0.00316,-0.006 0.0086,-0.0184 0.013977,-0.0216 0.1026118,-0.0617 0.2066864,-0.12101 0.3099819,-0.1816 0.00307,-0.002 0.012189,-0.007 0.00911,-0.006 -0.096854,0.0566 -0.1936379,0.11327 -0.2904568,0.1699 0.017547,-0.0143 0.038116,-0.0236 0.053854,-0.039 0.021802,-0.005 0.033981,-0.0292 0.052139,-0.0417 0.021415,-0.0192 0.037762,-0.0395 0.057789,-0.0601 0.031341,-0.031 0.063071,-0.0616 0.094075,-0.093 0.037262,-0.0382 0.071843,-0.0776 0.1001752,-0.12299 0.03595,-0.0491 0.078867,-0.093 0.1094642,-0.1461 0.041976,-0.0561 0.07613,-0.11701 0.112327,-0.17688 0.039213,-0.0637 0.076964,-0.1283 0.1179761,-0.19089 0.033837,-0.0593 0.066269,-0.11994 0.093203,-0.18266 0.029912,-0.0654 0.05499,-0.13273 0.080808,-0.19986 0.027312,-0.0601 0.057738,-0.1188 0.085147,-0.17891 0.01783,-0.0437 0.038906,-0.0861 0.06556,-0.12509 0.0082,-0.0155 0.011998,-0.0311 0.018568,-0.0472 0.026894,-0.0661 -0.011146,0.0301 0.015543,-0.0266 0.00234,-0.005 0.00309,-0.0105 0.00464,-0.0158 0.00325,-0.007 0.00921,-0.0133 0.012309,-0.0206 0.00491,-0.0117 2.539e-4,-0.0246 0.015206,-0.0297 -0.00882,-0.14107 0.2032784,-0.20497 0.3246962,-0.22347 0.021894,0.003 0.043969,10e-4 0.065982,0.002 0.033456,5e-5 0.066911,6.8e-4 0.1003662,2.2e-4 0.053231,-7.1e-4 0.1064985,-0.002 0.159506,-0.007 0.061283,-0.006 0.122306,-0.0176 0.1841418,-0.0157 0.066941,0 0.1339326,-8.4e-4 0.2007557,-0.005 0.067056,-0.005 0.1335913,-0.0143 0.200637,-0.0188 0.053176,-9e-4 0.1064424,-0.002 0.1593276,-0.008 0.053139,-0.006 0.1061117,-0.0174 0.1598866,-0.0154 0.051661,-2.9e-4 0.1033458,-2e-5 0.1549742,-0.002 0.044021,-0.002 0.088031,-0.006 0.1304181,-0.0191 0.030953,-0.007 0.06333,-0.005 0.093587,-0.0157 0.024164,-0.009 0.049176,-0.017 0.071908,-0.0291 0.09887,-0.0576 0.4444368,-0.005 -0.2473452,0.15316 0.00407,-0.002 0.017637,-0.007 0.020016,-0.0109 0.00678,-0.01 7.144e-4,-0.0121 0.014505,-0.0148 0.01506,-0.002 0.00773,-0.0288 0.02837,-0.0288 5.556e-4,-0.0158 0.00754,-0.0358 0.01832,-0.0469 0.014383,-0.0106 0.00564,-0.0393 0.019241,-0.0531 0.011247,-0.0217 0.012536,-0.0433 0.016161,-0.0676 0.00898,-0.0274 0.021865,-0.052 0.018955,-0.0818 0.00353,-0.0371 0.00853,-0.0739 0.01796,-0.10999 0.01016,-0.0442 0.00153,-0.0907 0.00668,-0.13561 0.00327,-0.0543 0.00943,-0.10837 0.018431,-0.16208 0.0069,-0.0551 0.00225,-0.11102 0.00183,-0.16649 -0.00196,-0.0493 -0.00547,-0.0986 -0.01442,-0.14726 -0.00901,-0.0531 -0.00888,-0.10591 -0.0081,-0.15969 -8.7e-6,-0.0466 -2.04e-5,-0.0932 -9.39e-5,-0.13985 -7.36e-5,-0.0417 -2.358e-4,-0.0835 -1.71e-4,-0.12525 2.403e-4,-0.0385 3.07e-5,-0.077 1.548e-4,-0.1155 1.368e-4,-0.0345 6.35e-4,-0.0691 -0.00164,-0.10363 -0.00225,-0.0244 -0.0037,-0.0468 -0.024688,-0.0626 -0.022381,-0.0178 -0.047231,-0.0328 -0.072469,-0.0461 -0.044682,-0.0186 -0.090709,-0.0337 -0.1375256,-0.046 -0.058973,-0.0171 -0.1188927,-0.0307 -0.179106,-0.0426 -0.058394,-0.012 -0.1173438,-0.0212 -0.176063,-0.0314 -0.076528,-0.009 -0.1525921,-0.0228 -0.2296681,-0.0269 -0.1016389,-0.009 -0.2030244,-0.0202 -0.304958,-0.0254 -0.1099325,-0.0103 -0.2193422,-0.0252 -0.3292065,-0.0362 -0.093327,-0.0125 -0.18693,-0.0226 -0.28028,-0.0349 -0.078119,-0.0144 -0.1557208,-0.0344 -0.2233793,-0.0778 0,0 0.295478,-0.18919 0.295478,-0.18919 z"
       inkscape:connector-curvature="0"
       style="stroke-width:0.26458332" />
    <path
       id="path1465"
       d="m 1.8585835,285.5487 c 0.048772,-0.0689 0.097811,-0.13735 0.1541776,-0.20026 0.067112,-0.0747 0.1438897,-0.13956 0.218811,-0.20613 0.07038,-0.0659 0.1468462,-0.12468 0.2221074,-0.18479 0.077918,-0.0629 0.1602027,-0.12002 0.2453607,-0.17259 0.072775,-0.0425 0.1406366,-0.0925 0.2119355,-0.13731 1.0590435,-0.60784 -0.2415527,0.13718 0.1165378,-0.0721 0.1055471,-0.0617 0.2114534,-0.12276 0.3171804,-0.18414 -0.09495,0.0547 -0.18963,0.10994 -0.2848485,0.16421 -0.0094,0.005 0.017476,-0.0128 0.02687,-0.0182 0.1048427,-0.0599 0.2083038,-0.12235 0.3149616,-0.17896 0.098364,-0.0522 -0.3829857,0.22712 -0.2900678,0.16574 0.1006967,-0.0665 0.2089658,-0.12079 0.3134487,-0.18118 0.1188421,-0.0492 0.1863858,-0.10033 -0.261099,0.15381 -0.00576,0.003 0.011531,-0.007 0.0166,-0.0109 0.3197283,-0.18285 0.4986184,-0.28593 0.016669,-0.007 -0.019751,0.0114 0.015838,-0.0125 0.018695,-0.014 0.0035,-0.006 0.00563,-0.0219 0.00619,-0.024 -0.00678,-0.012 -0.014888,-0.0211 -0.022728,-0.0311 -0.010441,-0.0181 -0.027098,-0.0295 -0.040966,-0.0438 -0.022344,-0.014 -0.034316,-0.0391 -0.055551,-0.0544 -0.021968,-0.0261 -0.047255,-0.0486 -0.071184,-0.0726 -0.030173,-0.0221 -0.062504,-0.0411 -0.092507,-0.0637 -0.036481,-0.0295 -0.074345,-0.057 -0.1157026,-0.0793 -0.050066,-0.031 -0.1017016,-0.0592 -0.1527037,-0.0886 -0.055179,-0.0272 -0.1091103,-0.0566 -0.1660556,-0.0801 -0.06318,-0.0262 -0.127949,-0.0484 -0.1897657,-0.0779 -0.070422,-0.0273 -0.1367675,-0.0633 -0.2058054,-0.0937 -0.070716,-0.0349 -0.1437505,-0.0647 -0.2153975,-0.0974 -0.071266,-0.0347 -0.1428933,-0.0686 -0.214949,-0.10164 -0.066496,-0.0299 -0.134178,-0.0568 -0.1996018,-0.0891 -0.057513,-0.0224 -0.1098269,-0.0549 -0.1634951,-0.0847 -0.038282,-0.0263 -0.077907,-0.0487 -0.1188805,-0.0701 -0.038955,-0.0122 -0.072094,-0.0352 -0.1072045,-0.0549 -0.027979,-0.0139 -0.057995,-0.019 -0.088793,-0.0211 -0.0227944,-8.2e-4 -0.0455947,-3e-5 -0.0683898,1.5e-4 -0.006274,0.002 -0.0137724,-0.002 -0.0200001,1.4e-4 -0.003281,10e-4 -0.034713,0.021 -0.038344,0.0239 -0.11184569,0.0522 -0.2612047,0.14748 0.2471051,-0.14494 0.00956,-0.005 -0.018624,0.0119 -0.027563,0.0183 -0.035079,0.0366 -0.070979,0.0722 -0.1048222,0.10994 -0.0526803,0.0611 -0.0983164,0.12757 -0.14928707,0.19002 -0.0678713,0.0853 -0.13457417,0.17158 -0.20135273,0.25776 -0.0463506,0.0606 -0.0953159,0.11933 -0.15036845,0.1722 -0.0130326,0.0115 -0.0247817,0.0242 -0.0375175,0.036 0,0 -0.32636846,0.13149 -0.32636846,0.13149 v 0 c 0.0144219,-0.0105 0.0292167,-0.0203 0.0395822,-0.0353 0.0594661,-0.0492 0.11011164,-0.10787 0.15769489,-0.16843 0.0671188,-0.0857 0.13370681,-0.17172 0.19975983,-0.25819 0.0515102,-0.0614 0.0973579,-0.12671 0.14628598,-0.19009 0.0333565,-0.0378 0.0668446,-0.075 0.10181616,-0.11079 0.0883168,-0.11899 0.25014855,-0.15865 0.37925585,-0.22871 0.023305,-0.008 0.044317,-0.0138 0.069274,-0.0107 0.023562,-5e-5 0.04721,5e-4 0.070581,0.004 0.033737,0.006 0.066162,0.0162 0.095954,0.0335 0.034037,0.0205 0.069134,0.0382 0.1057038,0.0538 0.041589,0.0211 0.079405,0.0476 0.1191685,0.0718 0.052248,0.0308 0.1052625,0.0596 0.1611541,0.0834 0.06557,0.0313 0.1328043,0.0587 0.1988233,0.089 0.071351,0.0342 0.1432966,0.0671 0.2146627,0.10133 0.071665,0.0323 0.143915,0.0633 0.214766,0.0974 0.069307,0.0306 0.136379,0.066 0.2070302,0.0936 0.062357,0.0275 0.1265414,0.0507 0.1894152,0.077 0.057395,0.0254 0.1133525,0.0538 0.1689189,0.083 0.051221,0.0289 0.1016334,0.0591 0.1525644,0.0884 0.041745,0.0243 0.081254,0.0517 0.1187825,0.0821 0.032176,0.0222 0.06652,0.0417 0.09579,0.0678 0.024106,0.0228 0.04719,0.0464 0.070537,0.07 0.019476,0.0182 0.035218,0.0402 0.057021,0.056 0.01637,0.0138 0.030079,0.0298 0.043219,0.0467 0.011459,0.0117 0.018137,0.0255 0.0276,0.0387 0.00815,0.0159 0.00812,0.0303 0.00616,0.048 -1.24e-5,0.008 -0.00288,0.027 -0.011287,0.0321 -0.1019476,0.0622 -0.2208302,0.10124 -0.3082843,0.18258 -0.082762,0.077 0.1959065,-0.11278 0.2938598,-0.16917 -0.03137,0.0109 0.011792,-0.006 -0.016761,0.0108 -0.1140142,0.0658 -0.2279618,0.12883 -0.3416197,0.19388 0.7283543,-0.42197 0.020709,-0.0116 -0.025141,0.0132 -0.097755,0.0528 0.1924264,-0.11118 0.2886165,-0.16681 0.0094,-0.005 -0.018828,0.0108 -0.02819,0.0163 -0.10492,0.0617 -0.2098423,0.12344 -0.3147637,0.18515 0.9364396,-0.54497 -0.753847,0.44697 0.1635202,-0.0903 -0.072066,0.0451 -0.1416627,0.0935 -0.2137227,0.13862 -0.085877,0.0508 -0.1686814,0.10649 -0.247133,0.16821 -0.074356,0.0609 -0.1523359,0.11755 -0.2226717,0.18327 -0.074454,0.0664 -0.151852,0.12967 -0.2199103,0.20281 -0.056572,0.06 -0.1059817,0.12491 -0.1519294,0.19342 0,0 -0.3214363,0.14064 -0.3214363,0.14064 z"
       inkscape:connector-curvature="0"
       style="stroke-width:0.26458332" />
    <path
       id="path1469"
       d="m 0.12155954,285.33957 c 0.10314597,0.0532 0.20428774,0.11014 0.30536998,0.16717 0.12832029,0.0759 0.25833575,0.14832 0.38499494,0.22699 0.11848695,0.0691 0.22227724,0.16003 0.32153514,0.25391 0.099193,0.0919 0.1822808,0.19866 0.258621,0.30975 0.078791,0.11472 0.1383583,0.24085 0.1975555,0.36636 0.071004,0.13402 0.1118163,0.27867 0.1379901,0.42724 0.026223,0.16719 0.047852,0.33511 0.070025,0.50289 0.019643,0.15263 0.037231,0.30531 0.04731,0.45889 0.01074,0.13847 0.0042,0.27722 -0.00764,0.41534 -0.012221,0.14329 -0.033545,0.28556 -0.067088,0.42538 -0.044398,0.16881 -0.1125154,0.33073 -0.1879306,0.4878 -0.076168,0.1537 -0.1504341,0.30831 -0.2312141,0.45966 -0.059112,0.10863 -0.1160235,0.21838 -0.179142,0.32475 -0.05641,0.0976 -0.1278013,0.1838 -0.2040935,0.26613 -0.0761136,0.0806 -0.16352335,0.14818 -0.25610047,0.2086 -0.18331741,0.11189 -0.37197019,0.21475 -0.55762059,0.32261 -0.08021116,0.0375 -0.15900391,0.0778 -0.23963042,0.11441 -0.06236194,0.0264 -0.1255114,0.0516 -0.18580872,0.0825 -0.0525457,0.016 -0.10250697,0.0398 -0.15602516,0.0524 -0.006472,10e-4 -0.012944,0.003 -0.0194159,0.004 0,0 0.27906035,-0.21296 0.27906035,-0.21296 v 0 c 0.006059,-0.002 0.0121172,-0.003 0.0181758,-0.005 0.05116746,-0.0166 0.10207173,-0.035 0.15131107,-0.0566 0.06112478,-0.0278 0.1228819,-0.0541 0.18454183,-0.0806 0.0797545,-0.037 0.15873922,-0.0759 0.2368657,-0.11617 0.10530121,-0.0594 0.30506046,-0.17491 -0.16730475,0.0985 -0.0144472,0.008 0.028931,-0.0167 0.043327,-0.0251 0.10392709,-0.061 -0.016999,0.009 0.0909434,-0.0532 0.0934525,-0.0577 0.1819425,-0.12207 0.25932619,-0.20057 0.0767024,-0.0805 0.15063777,-0.16324 0.20741542,-0.25949 0.0642657,-0.10641 0.12273574,-0.21593 0.18278985,-0.32477 0.08285,-0.15078 0.1580516,-0.30538 0.2344859,-0.45949 0.075853,-0.15429 0.1427642,-0.31427 0.188708,-0.48015 0.034053,-0.13799 0.054652,-0.2787 0.068154,-0.42015 0.012166,-0.13657 0.019352,-0.27392 0.010237,-0.41094 -0.00883,-0.1532 -0.025852,-0.3054 -0.044695,-0.45765 -0.021439,-0.16737 -0.043073,-0.33482 -0.069315,-0.5015 -0.025953,-0.14547 -0.066153,-0.28685 -0.135367,-0.41829 -0.058778,-0.12361 -0.1174935,-0.2481 -0.1948735,-0.36144 -0.075838,-0.10859 -0.15794128,-0.21307 -0.25541542,-0.30335 -0.0979086,-0.0922 -0.20082711,-0.18011 -0.31706497,-0.24871 -0.12597243,-0.0791 -0.25624797,-0.1505 -0.38485052,-0.22522 -0.10177654,-0.0572 -0.20401859,-0.1138 -0.31054787,-0.16175 0,0 0.29240066,-0.19239 0.29240066,-0.19239 z"
       inkscape:connector-curvature="0"
       style="stroke-width:0.26458332" />
  </g>
</svg>
