<?xml version="1.0" encoding="UTF-8" standalone="no"?>
<!-- Created with Inkscape (http://www.inkscape.org/) -->

<svg
   xmlns:dc="http://purl.org/dc/elements/1.1/"
   xmlns:cc="http://creativecommons.org/ns#"
   xmlns:rdf="http://www.w3.org/1999/02/22-rdf-syntax-ns#"
   xmlns:svg="http://www.w3.org/2000/svg"
   xmlns="http://www.w3.org/2000/svg"
   xmlns:sodipodi="http://sodipodi.sourceforge.net/DTD/sodipodi-0.dtd"
   xmlns:inkscape="http://www.inkscape.org/namespaces/inkscape"
   width="64"
   height="64"
   viewBox="0 0 16.933333 16.933334"
   version="1.1"
   id="svg8"
   inkscape:version="0.92.1 r15371"
   sodipodi:docname="0_house.svg"
   inkscape:export-filename="/home/physt/undev/repos/deep_learning/workshop/tasks/commonlearningdata/cartooncats/0_house.png"
   inkscape:export-xdpi="96.000008"
   inkscape:export-ydpi="96.000008">
  <defs
     id="defs2" />
  <sodipodi:namedview
     id="base"
     pagecolor="#ffffff"
     bordercolor="#666666"
     borderopacity="1.0"
     inkscape:pageopacity="0.0"
     inkscape:pageshadow="2"
     inkscape:zoom="11.2"
     inkscape:cx="50.237003"
     inkscape:cy="32.732721"
     inkscape:document-units="mm"
     inkscape:current-layer="layer1"
     showgrid="false"
     inkscape:window-width="1920"
     inkscape:window-height="1016"
     inkscape:window-x="0"
     inkscape:window-y="27"
     inkscape:window-maximized="1"
     units="px" />
  <metadata
     id="metadata5">
    <rdf:RDF>
      <cc:Work
         rdf:about="">
        <dc:format>image/svg+xml</dc:format>
        <dc:type
           rdf:resource="http://purl.org/dc/dcmitype/StillImage" />
        <dc:title></dc:title>
      </cc:Work>
    </rdf:RDF>
  </metadata>
  <g
     inkscape:label="Layer 1"
     inkscape:groupmode="layer"
     id="layer1"
     transform="translate(0,-280.06665)">
    <path
       id="path463"
       d="m 4.3393103,284.775 c 0.010245,0.12874 0.021294,0.2573 0.027798,0.38631 0.00922,0.22915 0.00901,0.45854 0.00945,0.68783 -0.00664,0.27265 -0.015039,0.54523 -0.019547,0.81794 -0.00663,0.24872 -0.00156,0.49724 0.00745,0.7458 0.00827,0.22355 0.011374,0.44724 0.012316,0.67093 8.731e-4,0.24249 6.35e-4,0.48498 2.14e-4,0.72747 -7.91e-5,0.22993 0.00116,0.45985 0.00132,0.68978 9.26e-4,0.19559 0.00257,0.39102 -0.00535,0.58647 -0.00965,0.18919 -0.013221,0.37858 -0.015544,0.56797 -0.00704,0.17454 -0.01547,0.34899 -0.019958,0.52362 -0.00311,0.13717 -0.00296,0.27438 -0.00327,0.41158 0.00217,0.12967 0.01633,0.25854 0.029364,0.38743 0.011906,0.1243 0.015192,0.24916 0.017637,0.37393 0.00161,0.0847 0.00243,0.16936 0.00308,0.25405 3.704e-4,0.0409 6.35e-4,0.0817 0.00116,0.12261 -1.778e-4,0.0109 4.763e-4,0.0333 0.00108,0.0387 0.015716,-0.007 0.039087,-0.004 0.056986,-0.004 0.094664,0.003 0.1888606,-0.01 0.2822181,-0.0238 0.1731692,-0.0335 0.346325,-0.0671 0.5204729,-0.0953 0.2068963,-0.0341 0.4129157,-0.0727 0.6197606,-0.10705 0.2131393,-0.0325 0.4268983,-0.0606 0.6416963,-0.0793 0.2226056,-0.0254 0.4458946,-0.0358 0.6697887,-0.0337 0.2074461,0.001 0.4143367,0.0192 0.620386,0.042 0.1821394,0.018 0.3634378,0.0423 0.5432084,0.0766 0.1724908,0.0336 0.3462943,0.0592 0.5198935,0.0862 0.1669722,0.0274 0.333352,0.0579 0.4996241,0.0892 0.1523685,0.026 0.3045566,0.0539 0.4553249,0.0881 0.1407292,0.0335 0.2806082,0.0707 0.4214032,0.10396 0.134491,0.0315 0.269871,0.0595 0.40568,0.0848 0.116007,0.0278 0.234321,0.0414 0.353171,0.0486 0.112952,0.006 0.225434,0.0172 0.33843,0.0228 0.106758,0.005 0.213633,0.005 0.32047,0.005 0.09533,-3e-5 0.19066,5e-5 0.285989,-3.5e-4 0.07552,-0.001 0.150368,0.0116 0.225524,0.0177 0.05125,0.004 0.102655,0.005 0.154029,0.005 0.02899,-5e-5 0.05797,-4.5e-4 0.08696,-4.8e-4 0.09911,-0.0755 0.202679,-0.12129 -0.269591,0.1518 -0.0068,0.004 0.01254,-0.009 0.01756,-0.0155 0.03107,-0.0551 0.03685,-0.11964 0.04665,-0.18109 0.03168,-0.19436 0.04034,-0.39161 0.05283,-0.58791 0.01929,-0.26635 0.0342,-0.53296 0.05445,-0.79925 0.02808,-0.31286 0.04431,-0.6264 0.05988,-0.94007 0.01831,-0.37658 0.02396,-0.75358 0.03524,-1.13041 0.01011,-0.34109 0.02509,-0.68198 0.03265,-1.02316 0.0037,-0.25985 0.01608,-0.51945 0.02259,-0.77923 0.0047,-0.23721 0.01685,-0.47417 0.02297,-0.71135 0.0061,-0.18698 8.2e-4,-0.37413 0.0066,-0.56109 0.0073,-0.13729 0.01364,-0.27459 0.01708,-0.41203 0.0086,-0.12054 0.01391,-0.24136 0.0238,-0.36179 0.01062,-0.0965 0.01546,-0.19344 0.02765,-0.28975 0.0053,-0.0575 0.02113,-0.11314 0.03289,-0.16946 0.0044,-0.0254 0.0098,-0.0516 0.0081,-0.0776 -0.01074,-0.0224 -0.04289,-0.0303 -0.06384,-0.0413 -0.07028,-0.0321 -0.147219,-0.0423 -0.222617,-0.0554 -0.146775,-0.024 -0.295766,-0.0247 -0.443813,-0.0342 -0.189271,-0.0138 -0.379004,-0.0183 -0.568694,-0.0213 -0.219953,-0.006 -0.439753,0.005 -0.659543,0.0118 -0.227892,0.006 -0.455855,0.008 -0.6838105,0.009 -0.2128909,4.5e-4 -0.4257829,6.1e-4 -0.6386746,8.2e-4 -0.2030351,-4.5e-4 -0.4060698,-1.2e-4 -0.6091049,1.5e-4 -0.1938113,-1.6e-4 -0.3876228,-6e-5 -0.5814341,-1e-5 -0.191058,0.002 -0.3822088,-0.003 -0.5731772,0.003 -0.1805768,0.0113 -0.3616195,0.0116 -0.5422174,0.0216 -0.1621402,0.009 -0.3242858,0.0214 -0.4867696,0.0179 -0.1451306,-0.006 -0.2902598,-0.0123 -0.4355103,-0.0151 -0.1400209,-0.006 -0.2797643,0.006 -0.4195794,0.0118 -0.1449742,0.01 -0.2886977,0.0306 -0.433329,0.0438 -0.108045,0.0155 -0.2165141,0.027 -0.3254145,0.0342 -0.061864,0.004 -0.1238467,0.005 -0.1858028,0.005 -0.03881,0.004 -0.058524,-0.002 -0.093538,-0.0153 -0.020407,-0.007 -0.042731,-0.003 -0.06,-0.0163 -0.00265,-0.002 -0.00528,-0.005 -0.00792,-0.007 0,0 0.2981394,-0.18916 0.2981394,-0.18916 v 0 c 0.00135,5.3e-4 0.00272,10e-4 0.00408,0.002 0.018725,-0.004 0.039677,0.0103 0.05761,0.0138 0.027689,0.009 0.055969,0.006 0.084863,0.007 0.060673,-2.1e-4 0.1213673,-8.3e-4 0.1819429,-0.005 0.1075454,-0.007 0.2144532,-0.0197 0.3214454,-0.0324 0.1444284,-0.0135 0.2881617,-0.0342 0.4331348,-0.0416 0.1405729,-0.007 0.2811786,-0.0174 0.4219999,-0.0107 0.1447969,0.004 0.2894809,0.0102 0.4342198,0.0157 0.1614525,10e-4 0.3225957,-0.01 0.483751,-0.0184 0.1805072,-0.008 0.3612234,-0.0114 0.5417087,-0.0204 0.1912048,-0.005 0.3824848,-0.002 0.5737325,-0.002 0.1938084,5e-5 0.3876167,1.6e-4 0.5814248,2e-5 0.2027941,3.2e-4 0.405588,6.9e-4 0.6083824,3.7e-4 0.2124993,2.9e-4 0.4249997,7.2e-4 0.6374987,-1.6e-4 0.227631,-8.2e-4 0.455293,-0.002 0.682828,-0.009 0.220605,-0.007 0.441234,-0.0174 0.662008,-0.0116 0.190835,0.003 0.38166,0.008 0.572139,0.0207 0.150038,0.008 0.300851,0.0104 0.449539,0.0345 0.07948,0.0126 0.160258,0.025 0.233174,0.0611 0.03231,0.0158 0.06787,0.0299 0.08138,0.0663 0.0093,0.0298 0.0013,0.0618 -0.0022,0.0922 -0.01266,0.0562 -0.03054,0.11139 -0.03756,0.16872 -0.01414,0.0961 -0.01973,0.19293 -0.03062,0.28946 -0.01194,0.1198 -0.01535,0.2404 -0.02597,0.36036 -0.0034,0.13802 -0.01026,0.27588 -0.01928,0.41366 -0.0086,0.18763 -0.0048,0.37567 -0.01199,0.56339 -0.0069,0.23734 -0.01955,0.47446 -0.02409,0.71185 -0.007,0.26066 -0.02089,0.52103 -0.02741,0.78169 -0.01043,0.34203 -0.02765,0.68378 -0.03755,1.02582 -0.01234,0.37681 -0.01878,0.75378 -0.03438,1.13048 -0.01288,0.31275 -0.02489,0.62546 -0.05223,0.93739 -0.02071,0.26586 -0.03572,0.53211 -0.0537,0.79817 -0.01016,0.19493 -0.01609,0.39058 -0.03983,0.58443 -0.0073,0.0629 -0.01118,0.13021 -0.03622,0.18884 -0.04079,0.13653 -0.215486,0.21058 -0.353442,0.21571 -0.02873,1.2e-4 -0.05747,-9e-5 -0.0862,-7.4e-4 -0.0514,-0.001 -0.102805,-0.003 -0.153997,-0.008 -0.07382,-0.007 -0.147536,-0.0188 -0.221946,-0.0164 -0.0951,-2.5e-4 -0.190191,1.1e-4 -0.285286,-4e-4 -0.106971,-6.8e-4 -0.21397,-0.002 -0.320838,-0.007 -0.112914,-0.007 -0.22545,-0.018 -0.33843,-0.0234 -0.119374,-0.009 -0.23778,-0.0254 -0.35447,-0.0528 -0.135638,-0.0265 -0.270974,-0.0548 -0.4053971,-0.0869 -0.14043,-0.0342 -0.2805864,-0.0696 -0.4210656,-0.10358 -0.150337,-0.0333 -0.3017615,-0.0615 -0.4534432,-0.0879 -0.1657911,-0.0311 -0.3315856,-0.062 -0.4981255,-0.0889 -0.173886,-0.0267 -0.3477818,-0.0534 -0.5204848,-0.0871 -0.178861,-0.0328 -0.359065,-0.057 -0.5399501,-0.0757 -0.2050415,-0.0214 -0.4106973,-0.0399 -0.617039,-0.0403 -0.2232813,-9e-4 -0.4458819,0.0115 -0.6678668,0.0363 -0.2143371,0.0202 -0.4277929,0.0485 -0.6405313,0.0815 -0.2072953,0.0345 -0.4135994,0.0744 -0.6210451,0.108 -0.1754825,0.0298 -0.3498996,0.0653 -0.5248455,0.0979 -0.096734,0.0143 -0.1940354,0.0264 -0.2920452,0.0244 -0.026873,-1.1e-4 -0.056479,0.004 -0.075541,-0.0191 -0.01438,-0.0198 -0.014108,-0.0378 -0.012311,-0.0617 6.35e-4,-0.0413 0.00106,-0.0827 0.00156,-0.124 8.731e-4,-0.0852 0.00177,-0.17041 0.00127,-0.25562 -0.00135,-0.12405 -0.00408,-0.24821 -0.015552,-0.37181 -0.012377,-0.13003 -0.027514,-0.2598 -0.030837,-0.39053 2.109e-4,-0.13787 0.00146,-0.27574 0.00522,-0.41356 0.00531,-0.1748 0.014679,-0.34941 0.022117,-0.52412 0.00233,-0.18971 0.00688,-0.37938 0.015192,-0.56892 0.00851,-0.19537 0.00887,-0.39076 0.00815,-0.58631 2.074e-4,-0.23042 0.00156,-0.46083 0.00159,-0.69125 -3.704e-4,-0.24214 -3.175e-4,-0.48428 -0.0018,-0.72642 -0.00206,-0.22339 -0.00429,-0.4468 -0.011993,-0.67009 -0.00762,-0.24965 -0.01229,-0.49924 -0.00486,-0.74899 0.00457,-0.27225 0.012996,-0.54439 0.018468,-0.81662 -0.00143,-0.22781 -0.00251,-0.45574 -0.014335,-0.68331 -0.00818,-0.12674 -0.020339,-0.25304 -0.036942,-0.37895 0,0 0.3102457,-0.16297 0.3102457,-0.16297 z"
       inkscape:connector-curvature="0"
       style="stroke-width:0.26458332" />
    <path
       id="path465"
       d="m 2.0697729,287.34415 c 0.049678,-0.11638 0.1263122,-0.2176 0.2008233,-0.3188 0.1430457,-0.19612 0.297591,-0.3837 0.4545325,-0.56879 0.1954088,-0.22994 0.3904331,-0.46003 0.5928516,-0.68386 0.2031026,-0.22752 0.4132074,-0.44858 0.6254707,-0.66753 0.1847517,-0.19563 0.3758785,-0.3851 0.5666719,-0.57481 0.161267,-0.16118 0.3225128,-0.32231 0.4876485,-0.47953 0.1612374,-0.15487 0.3200167,-0.31204 0.4757827,-0.4724 0.1389571,-0.1481 0.2853802,-0.28871 0.4299371,-0.43122 0.1368835,-0.13917 0.2709558,-0.28108 0.4072797,-0.42081 0.1299673,-0.13448 0.2577547,-0.27103 0.3854059,-0.4077 0.1115941,-0.12412 0.2265206,-0.24513 0.3398573,-0.36765 0.116677,-0.12829 0.2349815,-0.25499 0.3535875,-0.3815 0.1143323,-0.12114 0.2285979,-0.24226 0.3375666,-0.36828 0.086282,-0.0986 0.1709557,-0.19854 0.2598213,-0.2948 0.0632,-0.0683 0.123611,-0.13896 0.1914192,-0.20277 0.1388798,-0.12949 0.3135328,-0.21099 0.4762293,-0.30547 0.038019,-0.0202 0.077704,-0.0432 0.1213067,-0.0487 0.016796,-0.002 0.055375,-3.8e-4 0.071728,7e-5 0.1051264,0.0116 0.1948431,0.0718 0.2820027,0.12711 0.1654453,0.10973 0.3113268,0.2442 0.4560406,0.37914 0.1600941,0.15548 0.3172217,0.31393 0.474325,0.47241 0.14065,0.14708 0.288554,0.28682 0.430795,0.43231 0.147462,0.15345 0.283642,0.31689 0.412959,0.48575 0.128697,0.1767 0.247941,0.35993 0.36819,0.54239 0.108242,0.17181 0.22508,0.33794 0.346349,0.50074 0.1215,0.16569 0.244522,0.33017 0.366587,0.49546 0.127759,0.17452 0.254164,0.35009 0.375046,0.52947 0.122272,0.17496 0.244973,0.34969 0.377793,0.51686 0.128352,0.15841 0.253779,0.31914 0.383247,0.47666 0.123248,0.15509 0.245145,0.31128 0.369902,0.46517 0.118655,0.14032 0.23691,0.281 0.357809,0.4194 0.110271,0.12628 0.221079,0.25211 0.332107,0.37776 0.101979,0.11671 0.205303,0.23208 0.303024,0.35245 0.08725,0.10441 0.17313,0.2099 0.258012,0.31624 0.06558,0.089 0.131922,0.17724 0.198981,0.26509 0.05556,0.0696 0.104827,0.1439 0.157808,0.21544 0.04265,0.0539 0.08647,0.107 0.126117,0.16321 0.0291,0.0403 0.06099,0.0788 0.09316,0.11676 0.01844,0.0211 0.03756,0.0417 0.05762,0.0613 0.006,0.008 0.01007,0.0177 0.01388,0.0272 0,0 -0.309191,0.17083 -0.309191,0.17083 v 0 c -0.0013,-0.005 -0.0026,-0.01 -0.0058,-0.0142 -0.01938,-0.0212 -0.03902,-0.0421 -0.05698,-0.0645 -0.03252,-0.0389 -0.06414,-0.0788 -0.09355,-0.12013 -0.03908,-0.0562 -0.08242,-0.10927 -0.124095,-0.16353 -0.05215,-0.0718 -0.10153,-0.14569 -0.156187,-0.2157 -0.06654,-0.0879 -0.131392,-0.17681 -0.196662,-0.26559 -0.0844,-0.10646 -0.169232,-0.21253 -0.256221,-0.31689 -0.09751,-0.11991 -0.199383,-0.23585 -0.301476,-0.35184 -0.110418,-0.12613 -0.221006,-0.25209 -0.330924,-0.37864 -0.120884,-0.13888 -0.238538,-0.28055 -0.357498,-0.42107 -0.124105,-0.15425 -0.245356,-0.31078 -0.368925,-0.46546 -0.129319,-0.15786 -0.254875,-0.31869 -0.383152,-0.47739 -0.132852,-0.16823 -0.255185,-0.34414 -0.37825,-0.51959 -0.120671,-0.17894 -0.24719,-0.35381 -0.374699,-0.52793 -0.122586,-0.1649 -0.245904,-0.32919 -0.36766,-0.49468 -0.122032,-0.16305 -0.237173,-0.33109 -0.346087,-0.5032 -0.119713,-0.18187 -0.237979,-0.36476 -0.366636,-0.54054 -0.128472,-0.16786 -0.265655,-0.32879 -0.411785,-0.48162 -0.142998,-0.14468 -0.290296,-0.28499 -0.4304355,-0.43249 -0.1556605,-0.1591 -0.312107,-0.31748 -0.4727075,-0.47162 -0.1444453,-0.13325 -0.2906731,-0.26548 -0.4581266,-0.36987 -0.085522,-0.0504 -0.1736785,-0.10592 -0.2760855,-0.10767 -0.067255,0.004 -0.1257234,0.0263 -0.1825239,0.0626 0.528747,-0.30866 0.2202535,-0.14086 0.1161251,-0.0451 -0.069835,0.0625 -0.1326388,0.13153 -0.1949278,0.20156 -0.09163,0.0948 -0.1758183,0.19638 -0.2635663,0.29474 -0.1094396,0.12648 -0.2232583,0.2488 -0.3383608,0.37014 -0.1187304,0.12609 -0.2372987,0.25219 -0.3531002,0.38097 -0.1134898,0.12304 -0.229295,0.24384 -0.3411537,0.36836 -0.1276766,0.13729 -0.2565279,0.27346 -0.3861271,0.40895 -0.1372381,0.13912 -0.2708894,0.28173 -0.4075488,0.4214 -0.1438434,0.1437 -0.292767,0.28229 -0.4314323,0.43118 -0.1561253,0.16057 -0.3147099,0.31849 -0.4759454,0.47392 -0.1659292,0.15722 -0.3278574,0.31845 -0.4898983,0.47967 -0.1919369,0.19023 -0.3851447,0.37931 -0.5706956,0.57584 -0.2129655,0.21852 -0.423698,0.43925 -0.6269265,0.66691 -0.2024449,0.22249 -0.3966456,0.45197 -0.5907225,0.68176 -0.1549662,0.1829 -0.3077438,0.36834 -0.4474866,0.56319 -0.07114,0.0976 -0.1473829,0.19446 -0.1935986,0.30699 0,0 -0.318629,0.14642 -0.318629,0.14642 z"
       inkscape:connector-curvature="0"
       style="stroke-width:0.26458332" />
    <path
       id="path467"
       d="m 6.7455867,287.51655 c -0.013687,0.10284 -0.026947,0.20579 -0.036154,0.30916 -0.00893,0.16073 -0.016402,0.32153 -0.024688,0.4823 -0.00858,0.16765 -0.011287,0.33552 -0.011978,0.50336 -0.00517,0.1108 -0.00841,0.22203 -0.01955,0.33244 -0.00919,0.0664 -0.017751,0.13275 -0.02181,0.19966 -0.00243,0.0557 -0.00606,0.11147 0.00265,0.16675 0.00405,0.0408 0.018883,0.0788 0.029434,0.11799 0.00389,0.0293 0.023429,0.0507 0.036837,0.0757 0.024355,0.0396 0.067321,0.0587 0.1068559,0.0799 0.080835,0.0412 0.1662674,0.0731 0.2542302,0.0951 0.1246119,0.0304 0.2514801,0.0509 0.3782457,0.0701 0.1552504,0.0188 0.3108706,0.0341 0.4670015,0.0433 0.1737056,0.0119 0.3476389,0.001 0.5213588,-0.004 0.1917901,-0.01 0.3826063,-0.0311 0.5742683,-0.0427 0.1895475,-0.0166 0.3794279,-0.028 0.5696149,-0.0333 0.1724705,-0.004 0.3450031,-0.005 0.517514,-0.005 0.151346,-10e-4 0.302408,-10e-4 0.453521,0.007 0.11671,0.007 0.233566,0.0117 0.350484,0.0138 0.08198,0.002 0.163332,0.003 0.244704,-0.007 0.0603,-0.004 0.117634,-0.0234 0.174248,-0.0429 0.02449,-0.009 0.01636,-0.005 0.03852,-0.017 0.0053,-0.003 0.02092,-0.0121 0.01568,-0.009 -0.498797,0.28594 -0.357375,0.21368 -0.2598,0.14681 0.02867,-0.0242 0.04473,-0.0546 0.05714,-0.0895 0.02367,-0.073 0.04138,-0.14758 0.05331,-0.22335 0.01321,-0.1152 0.01463,-0.23124 0.02252,-0.34686 0.01474,-0.1379 0.03008,-0.27575 0.04872,-0.41318 0.01593,-0.13906 0.04706,-0.27559 0.06679,-0.41407 0.01208,-0.12335 0.03116,-0.24582 0.04672,-0.36874 0.0079,-0.0969 0.02114,-0.19312 0.03156,-0.28972 0.0046,-0.0566 0.01129,-0.11363 0.0076,-0.17046 -0.0027,-0.0381 -0.014,-0.0721 -0.0354,-0.10343 -0.01636,-0.0337 -0.04102,-0.0574 -0.07431,-0.0739 -0.0505,-0.0304 -0.106564,-0.0444 -0.164154,-0.0538 -0.108407,-0.0209 -0.218819,-0.0293 -0.328561,-0.0404 -0.159091,-0.0148 -0.31894,-0.0175 -0.478594,-0.0197 -0.192618,0.005 -0.3850252,0.0128 -0.5772812,0.0252 -0.1979872,0.0128 -0.3963533,0.0166 -0.594682,0.0193 -0.1905741,0.002 -0.3811566,0.002 -0.571736,0.002 -0.1590278,-7.7e-4 -0.3166147,-0.0208 -0.473955,-0.0415 -0.1343808,-0.0226 -0.2697096,-0.0387 -0.4039979,-0.0618 -0.1228486,-0.0192 -0.2456738,-0.0384 -0.3695247,-0.0499 -0.1069065,-0.0129 -0.2139947,-0.002 -0.320852,0.005 -0.070871,0.007 -0.139509,0.0233 -0.2077106,0.0431 -0.018833,0.011 -0.04059,0.0156 -0.059979,0.0253 -0.0056,0.003 -0.021492,0.0128 -0.016063,0.01 0.281197,-0.16049 0.3751474,-0.22126 0.2675315,-0.15208 -0.063087,0.0426 -0.086474,0.0772 -0.1180301,0.14741 -0.027429,0.0867 -0.0152,0.0435 -0.03686,0.12968 0,0 -0.3092371,0.14823 -0.3092371,0.14823 v 0 c 0.021458,-0.0881 0.010208,-0.0437 0.033803,-0.13312 0.026299,-0.0791 0.039443,-0.11189 0.1037267,-0.16335 0.1236519,-0.0959 0.2629868,-0.17776 0.4126537,-0.22494 0.068524,-0.0175 0.1380601,-0.03 0.2087345,-0.035 0.1075084,-0.006 0.2152253,-0.0132 0.3225218,10e-4 0.123988,0.0131 0.2472648,0.032 0.370291,0.0521 0.1338024,0.022 0.2682033,0.04 0.4020635,0.0617 0.1556377,0.0207 0.3117635,0.0389 0.4690491,0.0395 0.1901375,3.7e-4 0.3802832,5.3e-4 0.5704128,-0.002 0.1980258,-0.003 0.3960709,-0.007 0.593713,-0.0207 0.193176,-0.0119 0.386594,-0.0203 0.580109,-0.024 0.16122,0.002 0.322602,0.005 0.483246,0.0199 0.111641,0.0109 0.223799,0.0189 0.334153,0.0398 0.06077,0.012 0.119829,0.0295 0.173167,0.062 0.03513,0.0222 0.06501,0.0497 0.0837,0.0875 0.02353,0.0366 0.0389,0.0752 0.0424,0.11907 0.0074,0.0592 -0.0016,0.11903 -0.0065,0.17814 -0.01151,0.0973 -0.02666,0.19405 -0.0346,0.29172 -0.01548,0.12319 -0.03532,0.24579 -0.04715,0.36944 -0.01887,0.13898 -0.05228,0.2753 -0.06822,0.41472 -0.01903,0.13643 -0.03206,0.27354 -0.04812,0.41033 -0.0084,0.11589 -0.009,0.23199 -0.01899,0.34774 -0.0094,0.0768 -0.02564,0.15222 -0.04749,0.22645 -0.0092,0.0367 -0.01975,0.0781 -0.0489,0.10409 -0.0085,0.0126 -0.0093,0.0167 -0.02279,0.0246 -0.125554,0.0739 -0.236611,0.16081 -0.372715,0.20459 -0.0575,0.0187 -0.117009,0.0306 -0.177297,0.0358 -0.0818,0.007 -0.163773,0.004 -0.245804,0.003 -0.115984,-0.003 -0.231848,-0.01 -0.347639,-0.0171 -0.150329,-0.008 -0.3007161,-0.007 -0.4512222,-0.007 -0.1718228,1.1e-4 -0.3436713,-1.1e-4 -0.5154478,0.005 -0.18962,0.006 -0.3789743,0.0172 -0.5680218,0.0335 -0.1919763,0.013 -0.3833283,0.0339 -0.5756036,0.0424 -0.1746666,0.006 -0.3495569,0.0161 -0.5241796,0.003 -0.1573326,-0.01 -0.3144104,-0.0238 -0.4706881,-0.0445 -0.1283888,-0.0198 -0.257183,-0.0392 -0.3832667,-0.071 -0.090006,-0.0248 -0.1779575,-0.0576 -0.2611684,-0.10019 -0.04592,-0.0244 -0.093095,-0.0494 -0.1204214,-0.0957 -0.014719,-0.0274 -0.036971,-0.0511 -0.040459,-0.0834 -0.00989,-0.0406 -0.026403,-0.0793 -0.030112,-0.12135 -0.0093,-0.0577 -0.0086,-0.11555 -0.00527,-0.1739 0.00381,-0.0679 0.010901,-0.13546 0.022937,-0.20249 0.014639,-0.10989 0.017886,-0.22123 0.026323,-0.33171 0.00238,-0.16853 0.00463,-0.3371 0.01298,-0.50547 0.00825,-0.16043 0.015089,-0.32082 0.0205,-0.48136 0.00768,-0.10284 0.021945,-0.20486 0.028585,-0.30774 0,0 0.3149055,-0.15487 0.3149055,-0.15487 z"
       inkscape:connector-curvature="0"
       style="stroke-width:0.26458332" />
    <path
       id="path469"
       d="m 9.6022016,287.5896 c -0.033524,0.092 -0.06396,0.18471 -0.08654,0.28 -0.022841,0.10377 -0.027214,0.21007 -0.029893,0.3159 -0.00225,0.10207 -0.00116,0.20418 -5.821e-4,0.30627 0.00183,0.0845 -0.00913,0.16854 -0.015584,0.25266 -0.00983,0.069 -0.017015,0.13842 -0.027391,0.20733 -0.011155,0.0586 -0.017923,0.11788 -0.029005,0.1765 -0.01184,0.0523 -0.014168,0.10591 -0.020751,0.15892 -0.010065,0.0461 -0.016761,0.0925 -0.020323,0.13944 5.292e-4,0.049 -0.00854,0.0968 -0.016185,0.14493 -0.010581,0.047 -0.022389,0.0934 -0.02855,0.14128 -0.00735,0.041 -0.018584,0.0809 -0.023969,0.12224 -0.00582,0.0363 -0.016962,0.0713 -0.023072,0.10756 -0.00345,0.0252 -0.00446,0.0506 -0.00469,0.0759 -2.911e-4,0.0173 4.31e-5,0.0346 1.892e-4,0.0519 0.021775,0.1392 -0.3003378,0.30151 -0.3377586,0.15087 -0.00465,-0.0519 0.00554,-0.10365 0.014097,-0.15462 0.02118,-0.12684 0.044798,-0.25322 0.061502,-0.38075 0.022818,-0.15179 0.03521,-0.30466 0.04213,-0.45791 0.010451,-0.14235 0.019709,-0.28472 0.024191,-0.4274 0.00328,-0.11854 9.525e-4,-0.237 0.00923,-0.35534 0.012166,-0.0937 0.024445,-0.18735 0.039984,-0.28053 0.011364,-0.0799 0.021172,-0.15996 0.032091,-0.23992 0.00868,-0.0702 0.019516,-0.1404 0.032312,-0.21003 0.010475,-0.0408 0.018214,-0.082 0.02621,-0.12333 0.00593,-0.0218 0.015811,-0.0423 0.021069,-0.0642 -6.88e-4,-0.0199 1.598e-4,0.0247 0.012002,0.0196 0.4030046,-0.17645 0.3241011,-0.25782 0.2728962,-0.0943 -0.043552,0.22534 -0.07323,0.45335 -0.097463,0.68153 0,0 -0.2933526,0.14553 -0.2933526,0.14553 v 0 c 0.024678,-0.22582 0.048558,-0.45169 0.076599,-0.67712 0.00441,-0.02 0.00686,-0.0406 0.013277,-0.06 0.041349,-0.12526 0.2672686,-0.30407 0.3361468,-0.17046 4.233e-4,8.5e-4 -0.00159,10e-4 -0.00238,0.002 -0.00429,0.0237 -0.010591,0.046 -0.020786,0.0679 -0.017608,0.0372 -0.012293,0.0835 -0.030038,0.12148 -0.016314,0.0683 -0.024051,0.13902 -0.034939,0.2083 -0.010028,0.0805 -0.021839,0.16078 -0.03205,0.24128 -0.015491,0.0926 -0.028881,0.1855 -0.042637,0.27842 -0.00986,0.11826 -0.00974,0.23664 -0.01234,0.35525 -0.00509,0.14291 -0.012922,0.28565 -0.024916,0.42818 -0.00673,0.15406 -0.018751,0.3078 -0.041327,0.46044 -0.014393,0.12717 -0.037357,0.25291 -0.055802,0.37951 -0.0075,0.0472 -0.015229,0.0947 -0.013396,0.14262 -0.00114,0.006 -0.00576,0.009 -0.00495,-0.002 1.011e-4,-10e-4 0.00498,-0.002 0.00381,-0.002 -0.294591,0.17858 -0.4083849,0.17281 -0.2879339,0.17774 9.8e-6,-0.0175 8.79e-5,-0.0351 -7.1e-6,-0.0526 3.44e-4,-0.0268 9.26e-4,-0.0537 0.00386,-0.0804 0.00379,-0.0365 0.012065,-0.0723 0.02409,-0.10708 0.00373,-0.0417 0.010239,-0.0829 0.024254,-0.12252 0.00474,-0.0484 0.012949,-0.0961 0.028014,-0.14246 0.00675,-0.0475 0.019113,-0.0941 0.017529,-0.14235 0.00273,-0.0478 0.00632,-0.096 0.018981,-0.14242 0.010668,-0.0528 0.00793,-0.10766 0.021034,-0.16023 0.011409,-0.0584 0.018651,-0.11738 0.029777,-0.17591 0.01243,-0.0679 0.01674,-0.13713 0.029793,-0.20498 0.00593,-0.0836 0.018746,-0.16692 0.017867,-0.25085 9.47e-5,-0.10253 1.992e-4,-0.20506 0.00108,-0.30758 0.00254,-0.10784 0.00575,-0.21627 0.027339,-0.32233 0.020831,-0.0948 0.048903,-0.18736 0.080339,-0.27912 0,0 0.316897,-0.15051 0.316897,-0.15051 z"
       inkscape:connector-curvature="0"
       style="stroke-width:0.26458332" />
    <path
       id="path471"
       d="m 7.0860652,288.55788 c 0.1171993,0.004 0.2339811,0.0186 0.3500376,0.035 0.1512073,0.0232 0.3039992,0.031 0.4567071,0.0357 0.1468578,0.0101 0.2937867,0.0183 0.4409247,0.0228 0.1586156,-0.005 0.3171256,-0.0118 0.4757819,-0.0154 0.1792656,-0.003 0.3585668,-0.003 0.5378551,-0.004 0.1643872,0.004 0.3284106,-0.008 0.492525,-0.0153 0.1456428,-0.006 0.2914224,-0.008 0.4371774,-0.009 0.131101,-3.5e-4 0.262204,-6.4e-4 0.393306,-6.4e-4 0.104105,0.006 0.207979,0.0148 0.312165,0.0193 0.0835,0.003 0.167067,0.003 0.250613,0.003 0.06153,0.002 0.123925,-0.006 0.184922,0.004 0.04181,0.009 0.08419,0.0146 0.126855,0.0174 0.02758,0.002 0.05521,0.001 0.08282,0.001 0.02043,-3.4e-4 0.04087,-2.3e-4 0.06131,-3.4e-4 0.02266,2e-5 0.04531,1.3e-4 0.06797,4e-5 0.02595,-0.002 0.04024,-7.4e-4 0.0628,0.0128 0.0097,0.005 0.02046,0.006 0.03088,0.008 0,0 -0.290056,0.2 -0.290056,0.2 v 0 c -0.01188,-0.004 -0.02369,-0.007 -0.03482,-0.0129 -0.01712,-0.004 -0.03626,0.002 -0.05392,-6.1e-4 -0.0227,-9e-5 -0.0454,4e-5 -0.0681,1.4e-4 -0.02036,-1e-5 -0.04071,2.9e-4 -0.06106,-1.3e-4 -0.02795,-2.9e-4 -0.05592,-0.001 -0.08372,-0.004 -0.04235,-0.005 -0.08419,-0.0123 -0.126282,-0.0187 -0.0603,-0.004 -0.12082,-1.9e-4 -0.181196,-0.002 -0.08344,-7.7e-4 -0.166899,-0.001 -0.250259,-0.005 -0.103091,-0.005 -0.205819,-0.0162 -0.309021,-0.0196 -0.130779,-1.2e-4 -0.26156,-6.6e-4 -0.392338,2.4e-4 -0.1449949,9.2e-4 -0.2900085,0.003 -0.4348845,0.009 -0.164011,0.007 -0.3279669,0.017 -0.4922351,0.0133 -0.1792266,5e-5 -0.3584696,5.9e-4 -0.5376537,0.005 -0.1596162,0.004 -0.3190978,0.0132 -0.4787545,0.0152 -0.1468231,-0.005 -0.2932695,-0.0151 -0.4398992,-0.0237 -0.1537337,-0.005 -0.3074167,-0.0144 -0.4596384,-0.0378 -0.1174355,-0.0149 -0.235736,-0.0293 -0.3543413,-0.0263 0,0 0.2835399,-0.206 0.2835399,-0.206 z"
       inkscape:connector-curvature="0"
       style="stroke-width:0.26458332" />
    <path
       id="path473"
       d="m 12.01363,282.48474 c -0.02248,0.0926 -0.03531,0.18672 -0.03845,0.28187 0.0019,0.13141 0.01825,0.2621 0.02646,0.39325 0.0036,0.12496 0.01496,0.2494 0.0247,0.37398 0.0072,0.0788 0.0061,0.15812 0.01722,0.23656 0.0058,0.0392 0.01331,0.0782 0.01749,0.11767 -0.0051,0.004 0.009,0.0438 0.0072,0.0447 -0.31356,0.16985 -0.25256,0.249 -0.327712,0.14294 -0.01951,-0.0418 -0.02658,-0.0881 -0.03551,-0.13308 -0.01631,-0.095 -0.01928,-0.19168 -0.02207,-0.28785 -0.0065,-0.0937 -0.01633,-0.18713 -0.02134,-0.28096 -0.0074,-0.0879 0.0017,-0.17558 0.009,-0.26315 0.0041,-0.0749 0.01782,-0.14867 0.02546,-0.22317 0.0083,-0.0762 0.02729,-0.15047 0.04647,-0.2245 0.0177,-0.0636 0.03972,-0.1259 0.06942,-0.18486 0.02175,-0.041 0.04849,-0.0788 0.08313,-0.10974 0.109253,-0.0831 0.251054,-0.15126 0.358809,-0.21174 0.02078,-0.0117 0.0499,-0.0153 0.07251,-0.0223 0.06653,-0.0144 0.133968,-0.0263 0.201531,-0.0356 0.08666,-0.0134 0.17397,-0.002 0.260848,0.003 0.08323,0.0127 0.166812,0.0223 0.250842,0.0276 0.06935,-0.001 0.137283,0.012 0.2059,0.0195 0.05062,0.007 0.104628,0.0127 0.15266,0.0312 0.03,0.01 0.05942,0.025 0.08094,0.0485 0.02892,0.022 0.03681,0.0579 0.04261,0.0918 0.009,0.0713 6.09e-4,0.14265 -0.0061,0.21367 -0.01039,0.12099 -0.02322,0.24177 -0.0375,0.36236 -0.01364,0.11136 -0.01943,0.2234 -0.02245,0.33548 -7.68e-4,0.0941 -0.01172,0.18762 -0.01797,0.2814 -0.0065,0.0657 -0.01778,0.13069 -0.02408,0.19638 -0.0013,0.0421 -0.0053,0.0834 -0.0136,0.12467 -0.0068,0.0388 -0.01585,0.0769 -0.02792,0.11439 -0.01469,0.0292 -0.02246,0.0608 -0.03414,0.0911 -0.0086,0.0193 -0.01641,0.0392 -0.02005,0.06 0.0011,0.02 -0.0074,0.0326 -0.01663,0.0482 -0.0064,0.0147 -0.0088,0.0293 -0.01783,0.043 -0.01297,0.0179 -0.0342,0.0245 -0.04794,0.0415 -0.02421,0.0184 -0.04641,0.0396 -0.06887,0.0604 -0.03023,0.0294 -0.05644,0.0625 -0.08742,0.0912 -0.123694,0.10444 -0.270708,0.17292 -0.410746,0.25385 -0.02991,0.0136 -0.05708,0.0292 -0.08947,0.0372 -0.0035,7.7e-4 -0.007,0.002 -0.01052,0.002 0,0 0.279589,-0.21482 0.279589,-0.21482 v 0 c 0.0031,-10e-4 0.0062,-0.002 0.0093,-0.003 0.02908,-0.0116 0.05569,-0.0288 0.08399,-0.042 -0.524297,0.30396 -0.295922,0.18176 -0.186515,0.0986 0.03221,-0.027 0.05902,-0.0574 0.0878,-0.0875 0.01948,-0.0245 0.04413,-0.0436 0.06535,-0.0653 0.01942,-0.008 0.02619,-0.0334 0.04945,-0.0357 0.01489,-0.011 0.02105,-0.0124 0.02316,-0.0317 0.0017,-0.006 0.0019,-0.0123 0.0047,-0.0177 0.0027,-0.005 0.01366,-0.008 0.01564,-0.0127 0.0012,-0.003 10e-5,-0.007 1.5e-4,-0.01 0.0028,-0.024 0.0074,-0.0469 0.01692,-0.0693 0.01494,-0.0293 0.0197,-0.0612 0.03547,-0.0901 0.01653,-0.0342 0.02406,-0.0721 0.03025,-0.10932 0.0097,-0.0402 0.01643,-0.0797 0.01675,-0.12133 0.0059,-0.066 0.01733,-0.13126 0.02703,-0.19682 0.0061,-0.0936 0.01817,-0.18693 0.01968,-0.28077 0.0032,-0.11339 0.0093,-0.2267 0.02326,-0.33935 0.01398,-0.11973 0.02746,-0.23959 0.03507,-0.35992 0.0052,-0.068 0.01458,-0.13602 0.0059,-0.20423 -0.0038,-0.0284 -0.008,-0.0537 -0.03256,-0.0715 -0.02102,-0.017 -0.04495,-0.0282 -0.07093,-0.0356 -0.04831,-0.0123 -0.09739,-0.0226 -0.147148,-0.0267 -0.06785,-0.009 -0.135431,-0.0184 -0.204015,-0.0189 -0.08357,-0.007 -0.166477,-0.0188 -0.249787,-0.0279 -0.08579,-0.006 -0.17202,-0.0122 -0.257244,0.004 -0.06702,0.0111 -0.134807,0.021 -0.199806,0.0411 -0.01818,0.006 -0.0306,0.009 -0.04776,0.0171 -0.0072,0.003 -0.02785,0.0147 -0.02106,0.0107 0.487779,-0.28637 0.343896,-0.19853 0.239169,-0.13891 -0.03617,0.0273 -0.06719,0.0577 -0.08955,0.098 -0.0332,0.0555 -0.05467,0.11643 -0.07455,0.17776 -0.01905,0.0724 -0.03865,0.14478 -0.04807,0.21923 -0.0072,0.0747 -0.02151,0.14841 -0.02707,0.22323 -0.0067,0.0863 -0.01866,0.17249 -0.0112,0.25922 0.0044,0.0943 0.0125,0.18821 0.02071,0.2822 0.0023,0.0939 0.0046,0.18844 0.02155,0.28111 0.0086,0.0395 0.01659,0.0798 0.03185,0.11726 0.08213,0.0882 -0.0084,-0.011 -0.305151,0.16636 -0.0051,0.003 0.0057,0.0108 0.01036,0.0145 0.0068,0.005 -0.0073,-0.0309 -5.29e-4,-0.0257 -0.0025,-0.0394 -0.008,-0.0784 -0.01385,-0.11738 -0.0112,-0.0798 -0.0097,-0.16017 -0.01471,-0.24057 -0.0081,-0.12514 -0.01984,-0.25002 -0.02257,-0.37545 -0.0081,-0.13175 -0.0245,-0.26283 -0.02967,-0.39468 3.44e-4,-0.0952 0.0111,-0.18974 0.03086,-0.2829 0,0 0.314905,-0.15487 0.314905,-0.15487 z"
       inkscape:connector-curvature="0"
       style="stroke-width:0.26458332" />
    <path
       id="path475"
       d="m 13.249172,281.91953 c 0.097,-0.007 0.193071,-0.0222 0.287823,-0.0442 0.01851,-0.005 0.03733,-0.01 0.05553,-0.0159 0.04372,-0.015 0.06502,-0.0268 0.10542,-0.0492 0.01716,-0.01 0.06809,-0.0391 0.05095,-0.0295 -0.257937,0.14386 -0.321719,0.19818 -0.203802,0.10459 0.0723,-0.0625 0.118154,-0.14188 0.14552,-0.23224 0.0235,-0.10912 -4.86e-4,-0.21515 -0.03573,-0.3185 -0.05236,-0.13947 -0.153014,-0.24371 -0.268261,-0.33353 -0.135575,-0.0874 -0.227152,-0.0813 -0.373178,-0.0264 -0.02146,0.0106 -0.04339,0.0202 -0.06438,0.0316 -0.02131,0.0116 -0.08381,0.049 -0.0624,0.0376 0.07878,-0.0421 0.154046,-0.0909 0.234538,-0.12957 0.02057,-0.01 -0.03644,0.0276 -0.05363,0.0426 -0.03639,0.0318 -0.05163,0.0511 -0.08316,0.0865 -0.04526,0.0538 -0.09105,0.11075 -0.108689,0.1801 2.18e-4,0.005 -9.53e-4,0.009 6.61e-4,0.0137 0.01184,0.0316 0.147532,0.0157 0.166834,0.0143 0.200551,-0.0301 0.385013,-0.12282 0.558237,-0.22423 -0.06568,0.0365 -0.128948,0.0778 -0.197053,0.10956 -0.02973,0.0139 0.05467,-0.0363 0.08125,-0.0555 0.08145,-0.0589 0.157001,-0.12474 0.229475,-0.1942 0.04877,-0.0507 0.09723,-0.1038 0.125992,-0.16877 0.0061,-0.0218 0.01988,-0.0521 0.0038,-0.0725 -0.01953,-0.0279 -0.03266,-0.0266 -0.06234,-0.0199 -0.11036,0.0586 -0.262206,0.1495 0.240283,-0.13858 0.0087,-0.005 -0.01666,0.0112 -0.02405,0.018 -0.02823,0.0386 -0.01977,0.054 0.01263,0.0868 0.08553,0.063 0.192438,0.0946 0.297505,0.10472 0.02958,0.003 0.0594,0.002 0.08911,0.003 0.167507,9.5e-4 0.323718,-0.0478 0.472379,-0.12079 0.186914,-0.10717 -0.150225,0.0862 -0.19263,0.10917 -0.01343,0.007 0.02509,-0.0174 0.03714,-0.0268 0.02823,-0.022 0.05121,-0.0458 0.07302,-0.0739 0.04678,-0.071 0.0021,-0.11285 -0.04472,-0.16979 -0.09353,-0.0987 -0.202235,-0.18259 -0.316072,-0.25652 -0.07095,-0.0401 -0.14663,-0.0718 -0.228593,-0.0557 -0.0052,0.002 -0.05101,0.0204 -0.05624,0.0232 -0.008,0.004 -0.03064,0.0195 -0.0227,0.0151 0.504833,-0.2816 0.307032,-0.23038 0.254124,-0.12105 -0.01108,0.0774 0.07365,0.11229 0.132565,0.13414 0.163766,0.035 0.327074,-0.0228 0.476497,-0.086 0.152136,-0.0839 0.09922,-0.0551 -0.156735,0.0899 0,0 0.319128,-0.12337 0.319128,-0.12337 v 0 c -0.37714,0.21926 -0.23103,0.14448 -0.428405,0.24275 -0.157884,0.0608 -0.32798,0.11582 -0.496974,0.0687 -0.081,-0.0344 -0.158669,-0.0787 -0.162661,-0.17654 0.0286,-0.15135 0.180695,-0.15525 0.334793,-0.24784 0.02584,-0.0155 0.05765,-0.0211 0.08661,-0.0268 0.08717,-0.002 0.165574,0.0317 0.238467,0.0781 0.113978,0.0791 0.224359,0.16492 0.321271,0.26451 0.05235,0.0602 0.111288,0.12523 0.06959,0.20777 -0.02702,0.0443 -0.06359,0.0879 -0.108662,0.11533 -0.26331,0.15996 -0.239754,0.14652 -0.39663,0.22876 -0.152142,0.068 -0.311324,0.11055 -0.479609,0.10548 -0.145008,-0.009 -0.291354,-0.0315 -0.409039,-0.12389 -0.03624,-0.0381 -0.06296,-0.076 -0.0374,-0.12789 0.06254,-0.13901 0.244122,-0.20049 0.389462,-0.22806 0.03451,0.003 0.06347,0.0206 0.08266,0.0498 0.02074,0.0326 0.02144,0.0662 0.0101,0.10285 -0.02257,0.0732 -0.07518,0.13029 -0.12603,0.18578 -0.20388,0.19878 -0.436563,0.35197 -0.691936,0.48198 -0.178967,0.0997 -0.367851,0.19251 -0.573802,0.2167 -0.07155,0.004 -0.189119,0.0174 -0.205943,-0.0772 0.007,-0.0773 0.05896,-0.14184 0.106164,-0.20016 0.02569,-0.0304 0.05376,-0.0652 0.08265,-0.0926 0.14953,-0.14164 0.347955,-0.23261 0.533935,-0.32034 0.02252,-0.007 0.04459,-0.0152 0.06755,-0.0202 0.11747,-0.0255 0.228761,0.005 0.32489,0.0747 0.118059,0.0957 0.222144,0.20576 0.278489,0.34972 0.03967,0.10842 0.06709,0.21919 0.0487,0.33541 -0.02401,0.0962 -0.06616,0.18225 -0.138659,0.25194 -0.13965,0.12478 -0.03434,0.0355 -0.38368,0.24092 -0.06798,0.04 -0.140852,0.0706 -0.218253,0.0867 -0.09813,0.0204 -0.197439,0.0362 -0.297595,0.0421 0,0 0.283932,-0.20629 0.283932,-0.20629 z"
       inkscape:connector-curvature="0"
       style="stroke-width:0.26458332" />
    <path
       id="path477"
       d="m 0.70359563,293.08863 c 0.11553457,-0.0207 0.23114672,-0.0418 0.34669577,-0.0628 0.1755373,-0.0294 0.3520648,-0.0518 0.5283815,-0.0757 0.1937806,-0.0244 0.387874,-0.0455 0.5823104,-0.0639 0.1846233,-0.0229 0.3701014,-0.0368 0.5559218,-0.0445 0.1643809,-0.009 0.3284691,-0.002 0.492668,0.006 0.164634,0.008 0.3294589,0.0105 0.4942596,0.0122 0.1579465,0.002 0.3156117,-0.011 0.4733576,-0.0175 0.1329073,-0.004 0.2656155,-0.005 0.3982617,-0.014 0.1208368,-0.008 0.241523,-0.0185 0.3616936,-0.0333 0.1188122,-0.0121 0.2366724,-0.0313 0.3554865,-0.0433 0.087904,-0.0137 0.1758034,-0.002 0.2637274,0.004 0.073553,0.011 0.1476346,0.0172 0.2217536,0.0227 0,0 -0.2800779,0.2001 -0.2800779,0.2001 v 0 c -0.074541,-0.006 -0.1490569,-0.0128 -0.2234284,-0.0209 -0.086398,-0.006 -0.1727523,-0.013 -0.2590168,-8e-5 -0.1181534,0.0128 -0.2357125,0.0304 -0.3539228,0.0428 -0.1206224,0.0137 -0.2414754,0.0256 -0.3627405,0.0319 -0.1324986,0.008 -0.2651279,0.008 -0.3977683,0.0126 -0.1573355,0.006 -0.3146671,0.0173 -0.4722047,0.0146 -0.1652561,-10e-4 -0.3305294,-0.004 -0.49559,-0.0128 -0.1634667,-0.008 -0.3269534,-0.0126 -0.4905384,-0.004 -0.1848613,0.008 -0.3692694,0.0224 -0.552996,0.0446 -0.1943027,0.0191 -0.3884154,0.0398 -0.5819855,0.0653 -0.1768951,0.0239 -0.35385225,0.0477 -0.52968229,0.0787 -0.11858958,0.0221 -0.23698726,0.0452 -0.3555147,0.0677 0,0 0.28094882,-0.21027 0.28094882,-0.21027 z"
       inkscape:connector-curvature="0"
       style="stroke-width:0.26458332" />
    <path
       id="path479"
       d="m 12.183135,293.01306 c 0.09903,-0.0337 0.196665,-0.0713 0.295514,-0.10555 0.151828,-0.0559 0.309763,-0.0908 0.466541,-0.12929 0.149694,-0.0373 0.301215,-0.0621 0.454833,-0.0749 0.138762,-0.009 0.277945,0.002 0.416688,0.008 0.151815,0.01 0.303067,0.0258 0.454671,0.0381 0.167685,0.0116 0.335148,0.0263 0.502587,0.0411 0.177997,0.0202 0.356562,0.0124 0.53466,-2.6e-4 0.168778,-0.011 0.337597,-0.0231 0.505817,-0.0408 0.153926,-0.018 0.307548,-0.0367 0.462264,-0.0466 0.142251,-0.0108 0.283418,-0.0314 0.425522,-0.0438 0.129745,-0.01 0.259889,-0.0115 0.389935,-0.0125 0.114732,-0.002 0.229573,0.003 0.344174,-0.004 0.08139,-0.01 0.04155,-0.004 0.119538,-0.0158 0,0 -0.275879,0.20622 -0.275879,0.20622 v 0 c -0.07844,0.01 -0.03807,0.005 -0.121122,0.0132 -0.114801,0.004 -0.229703,10e-4 -0.344569,0.002 -0.12928,10e-4 -0.25869,0.003 -0.38758,0.0142 -0.141772,0.0132 -0.282874,0.0327 -0.424982,0.0424 -0.154158,0.0108 -0.307256,0.0303 -0.460843,0.0469 -0.168123,0.016 -0.33654,0.0287 -0.505103,0.0389 -0.179397,0.0115 -0.359155,0.0167 -0.53826,-0.004 -0.167672,-0.015 -0.335515,-0.0282 -0.503413,-0.0403 -0.151655,-0.0128 -0.303137,-0.0276 -0.455133,-0.0359 -0.137788,-0.005 -0.276055,-0.0169 -0.413775,-0.005 -0.152014,0.0145 -0.301975,0.0409 -0.450224,0.0778 -0.157287,0.0383 -0.314819,0.0764 -0.466607,0.1336 -0.101158,0.0361 -0.200979,0.076 -0.303228,0.10889 0,0 0.277974,-0.21402 0.277974,-0.21402 z"
       inkscape:connector-curvature="0"
       style="stroke-width:0.26458332" />
  </g>
</svg>
