<?xml version="1.0" encoding="UTF-8" standalone="no"?>
<!-- Created with Inkscape (http://www.inkscape.org/) -->

<svg
   xmlns:dc="http://purl.org/dc/elements/1.1/"
   xmlns:cc="http://creativecommons.org/ns#"
   xmlns:rdf="http://www.w3.org/1999/02/22-rdf-syntax-ns#"
   xmlns:svg="http://www.w3.org/2000/svg"
   xmlns="http://www.w3.org/2000/svg"
   xmlns:sodipodi="http://sodipodi.sourceforge.net/DTD/sodipodi-0.dtd"
   xmlns:inkscape="http://www.inkscape.org/namespaces/inkscape"
   width="64"
   height="64"
   viewBox="0 0 16.933333 16.933334"
   version="1.1"
   id="svg8"
   inkscape:version="0.92.1 r15371"
   sodipodi:docname="0_mountains_river_moon.svg"
   inkscape:export-filename="/home/physt/undev/repos/deep_learning/workshop/tasks/commonlearningdata/cartooncats/0_mountains_river.png"
   inkscape:export-xdpi="96.000008"
   inkscape:export-ydpi="96.000008">
  <defs
     id="defs2" />
  <sodipodi:namedview
     id="base"
     pagecolor="#ffffff"
     bordercolor="#666666"
     borderopacity="1.0"
     inkscape:pageopacity="0.0"
     inkscape:pageshadow="2"
     inkscape:zoom="11.2"
     inkscape:cx="50.237003"
     inkscape:cy="32.732721"
     inkscape:document-units="mm"
     inkscape:current-layer="layer1"
     showgrid="false"
     inkscape:window-width="1920"
     inkscape:window-height="1016"
     inkscape:window-x="0"
     inkscape:window-y="27"
     inkscape:window-maximized="1"
     units="px" />
  <metadata
     id="metadata5">
    <rdf:RDF>
      <cc:Work
         rdf:about="">
        <dc:format>image/svg+xml</dc:format>
        <dc:type
           rdf:resource="http://purl.org/dc/dcmitype/StillImage" />
        <dc:title></dc:title>
      </cc:Work>
    </rdf:RDF>
  </metadata>
  <g
     inkscape:label="Layer 1"
     inkscape:groupmode="layer"
     id="layer1"
     transform="translate(0,-280.06665)">
    <path
       id="path146"
       d="m 1.2173668,286.21227 c 0.048132,-0.13776 0.105425,-0.272 0.159446,-0.4075 0.078348,-0.19388 0.1569553,-0.38765 0.2362488,-0.58115 0.07196,-0.17581 0.1398,-0.35335 0.2134275,-0.52847 0.060888,-0.14219 0.1197384,-0.28522 0.1828379,-0.42644 0.041414,-0.0895 0.084689,-0.17842 0.1325281,-0.26469 0.028289,-0.0505 0.057132,-0.1006 0.085111,-0.15122 0.013283,-0.0302 0.03469,-0.0546 0.054665,-0.0802 0.010991,-0.0135 0.017082,-0.0325 0.03174,-0.0425 0.00912,-0.0124 0.00933,-0.0262 0.0088,-0.041 0.00935,-0.021 0.022373,-0.0363 0.039946,-0.0511 0.040603,-0.0317 0.082556,-0.0607 0.120937,-0.0951 0.073403,-0.071 0.1426603,-0.14626 0.213702,-0.21966 0.078729,-0.0858 0.1608151,-0.16838 0.2407433,-0.25304 0.051794,-0.0524 0.099643,-0.10891 0.1591011,-0.15287 0.1303973,-0.0794 0.2466819,-0.19152 0.400018,-0.19701 0.045344,0.0201 0.060264,0.0713 0.076706,0.11404 0.05307,0.15827 0.098387,0.31896 0.1437222,0.47957 0.065449,0.23851 0.143346,0.47272 0.2281619,0.70492 0.064752,0.17633 0.1368488,0.34964 0.2129197,0.52131 0.046511,0.10674 0.1075693,0.20497 0.1795166,0.29614 0.044513,0.0591 0.092444,0.11642 0.1578883,0.15232 0.077916,0.0388 0.1496211,8.5e-4 0.2210948,-0.0354 -0.075086,0.0426 -0.1483492,0.0886 -0.2252586,0.12781 -0.028131,0.0143 0.052923,-0.0345 0.078525,-0.053 0.1246307,-0.09 0.2346135,-0.19697 0.3447849,-0.3036 0.1224468,-0.12064 0.2420123,-0.24415 0.3614449,-0.36776 0.1109372,-0.11338 0.2230959,-0.15547 0.3823872,-0.24457 0.037989,-0.0213 0.059532,0.0241 0.075035,0.0479 0.00607,0.0215 0.013848,0.0427 0.018195,0.0647 0.012663,0.064 0.018367,0.15167 0.02199,0.21448 0.00921,0.15963 0.0078,0.31904 0.00674,0.47885 -0.00556,0.31555 -9.79e-4,0.63122 0.015902,0.94635 0.011271,0.1525 0.011684,0.31193 0.066538,0.45672 0.038837,0.0798 0.073502,0.10023 0.1533486,0.12835 0.07236,0.0209 0.1477057,0.0261 0.2203936,0.0459 0.066906,0.013 0.1153417,0.048 0.1527892,0.10357 0.043065,0.0917 0.051027,0.19331 0.066008,0.29202 0.00889,0.0789 0.029375,0.15529 0.054582,0.23029 0.014219,0.0328 0.027627,0.0638 0.067711,0.0583 0.04141,-0.002 0.082119,-0.016 0.118446,-0.0359 0.014968,-0.008 0.058426,-0.0352 0.043524,-0.0269 -0.081154,0.0452 -0.1615463,0.0917 -0.2423194,0.13754 0.1499489,-0.0953 0.2642859,-0.23115 0.3731747,-0.36903 0.1364644,-0.1814 0.2390148,-0.38444 0.3360923,-0.58871 0.1082206,-0.22534 0.1901613,-0.46156 0.27472,-0.69639 0.08031,-0.24792 0.1669624,-0.49366 0.2517418,-0.74006 0.076797,-0.23347 0.1575885,-0.46547 0.2396762,-0.69712 0.079557,-0.21233 0.1491946,-0.42822 0.2300097,-0.64006 0.065325,-0.16707 0.1251839,-0.33618 0.186527,-0.50473 0.049536,-0.13145 0.095547,-0.26404 0.1412976,-0.39681 0.046168,-0.13144 0.097791,-0.26083 0.1472152,-0.39108 0.043628,-0.10344 0.08941,-0.20581 0.1399514,-0.30606 0.034062,-0.0667 0.068161,-0.13269 0.115688,-0.19084 0.093409,-0.10089 0.2181849,-0.14019 0.3458273,-0.21222 0.0147,-0.008 0.028564,3.2e-4 0.042225,0.006 0.00496,0.006 0.010766,0.0105 0.01487,0.0167 0.018182,0.0276 0.027353,0.0654 0.03715,0.0959 0.025747,0.0804 0.016142,0.0496 0.042076,0.14083 0.066783,0.25755 0.1275795,0.51657 0.1856047,0.77623 0.071362,0.32577 0.1417391,0.65174 0.2088938,0.97842 0.05195,0.25743 0.1041752,0.5148 0.1606778,0.77128 0.039312,0.17357 0.075823,0.3474 0.1249361,0.51852 0.02158,0.0881 0.06285,0.1676 0.110291,0.24403 0.0196,0.0322 0.04242,0.0623 0.07709,0.0788 0.0032,-4.5e-4 0.0068,2.3e-4 0.0096,-0.001 0.0035,-0.002 0.0051,-0.006 0.0084,-0.009 0.004,-0.003 0.0173,-0.009 0.01302,-0.007 -0.09423,0.0533 -0.188146,0.1072 -0.282876,0.15962 -0.0084,0.005 0.0165,-0.0101 0.02388,-0.0163 0.01111,-0.009 0.02093,-0.0201 0.03139,-0.0302 0.105309,-0.11705 0.180548,-0.25688 0.260416,-0.39157 0.07018,-0.12105 0.136649,-0.24406 0.208006,-0.36443 0.101973,-0.19163 0.09533,-0.13032 0.383686,-0.29208 0.0382,0.0297 0.03789,0.0856 0.04478,0.12939 0.01089,0.0692 0.01156,0.072 0.02385,0.14527 0.0325,0.19254 0.07223,0.38383 0.121814,0.57269 0.03685,0.12352 0.07684,0.2475 0.133007,0.36379 0.02761,0.0498 0.05199,0.10164 0.108215,0.12171 0.0065,0.001 0.01292,0.003 0.01946,0.004 0.02568,0.004 0.04048,-0.005 0.06273,-0.0181 0.0087,-0.005 0.03415,-0.0208 0.02544,-0.0159 -0.08953,0.0504 -0.178611,0.10157 -0.267917,0.15236 0.09171,-0.0658 0.165673,-0.15278 0.231118,-0.24392 0.06413,-0.0989 0.131464,-0.19577 0.193138,-0.29618 0.03515,-0.0603 0.0675,-0.12215 0.103276,-0.1821 0.08154,-0.14629 0.151456,-0.12773 0.360762,-0.24564 0.0442,0.0104 0.06699,0.0424 0.093,0.0768 0.07835,0.10483 0.135051,0.22357 0.195784,0.33899 0.07752,0.16707 0.165955,0.32865 0.248941,0.49296 0.07948,0.15703 0.164186,0.31145 0.25099,0.46454 0.07558,0.1407 0.14619,0.28395 0.222812,0.42407 0.05682,0.10244 0.111739,0.20588 0.169421,0.30783 0.0479,0.0866 0.09726,0.17253 0.149102,0.25688 0.04664,0.0692 0.09099,0.13949 0.140136,0.20687 0.02625,0.0393 0.05406,0.0759 0.09157,0.10508 0.02845,0.0165 0.0598,0.0232 0.09182,0.0152 0.0674,-0.0257 0.1317,-0.0592 0.193962,-0.0954 -0.524391,0.31862 -0.121922,0.0637 -0.0055,-0.0199 0.08821,-0.0638 0.172796,-0.13219 0.261035,-0.19592 0.07605,-0.0566 0.149256,-0.11677 0.226902,-0.1712 0.0711,-0.0489 0.143108,-0.0963 0.217494,-0.14004 0.158606,-0.0805 0.311699,-0.19476 0.483916,-0.25313 0.04214,-0.0121 0.08143,-0.0306 0.125074,-0.0379 0.02698,-0.005 0.05449,-0.004 0.08177,-0.004 0.01591,0.004 0.01367,-0.007 0.02349,-0.0135 0.006,-0.004 0.01646,-0.007 0.02338,-0.009 -0.09724,0.0557 -0.194067,0.11219 -0.291711,0.16721 -0.0032,0.002 0.0053,-0.005 0.0081,-0.007 0.0064,-0.006 0.01407,-0.0133 0.02133,-0.0175 0.103821,-0.0603 0.208218,-0.11962 0.312327,-0.17943 0.02468,-0.0135 0.05291,0.002 0.07861,0.008 0.02846,0.016 0.05923,0.0269 0.09048,0.036 0.0535,0.013 0.105647,0.0319 0.156793,0.0523 0.06781,0.0284 0.134784,0.0584 0.202839,0.0862 0.06989,0.0258 0.13864,0.0542 0.210699,0.0735 0.05878,0.0149 0.119346,0.0173 0.17964,0.0186 0.04329,4.3e-4 0.08658,-1.8e-4 0.129865,-5.3e-4 0.03298,-2e-4 0.06597,-3.9e-4 0.09895,-3.9e-4 0.033,-0.005 0.04123,0.005 0.06866,0.0163 0.01955,0.005 0.03426,0.015 0.05226,0.0237 0.01823,0.004 0.029,0.0279 0.0473,0.0301 0.01745,1.5e-4 0.0269,0.0174 0.04313,0.0211 0.02335,0.002 0.03692,0.004 0.0578,0.0161 0.01844,0.009 0.03837,0.01 0.0584,0.0107 0.02079,3.9e-4 0.04159,3.9e-4 0.06238,-6e-5 0.02048,-0.003 0.03211,0.0149 0.05151,0.0193 0.01586,0.005 0.03245,0.005 0.04887,0.005 0.01809,0.002 0.0314,0.019 0.05052,0.0215 0.02028,-0.002 0.03132,0.0123 0.04852,0.0191 0.01847,0.009 0.03033,0.001 0.04555,0.0164 0.01367,0.0117 0.02955,0.0105 0.04222,0.0222 0.02003,0.0181 0.02739,0.0104 0.03615,0.043 0.0064,0.12434 -0.209229,0.13499 -0.314559,0.20136 -0.09544,0.0601 0.196279,-0.11126 0.294325,-0.16705 0.0028,-0.002 -0.0057,0.003 -0.0085,0.004 -0.103684,0.06 -0.20722,0.12021 -0.31083,0.18031 -0.157991,0.0631 0.375019,-0.24533 0.261261,-0.15409 -0.0049,0.0102 -0.0043,0.0216 -0.0039,0.0326 4.24e-4,0.0158 0.0036,0.031 -0.0036,0.0457 -0.03047,0.0309 -0.266772,0.27414 -0.350906,0.14724 0.0013,0.004 -0.0051,-0.0105 -0.0041,-0.008 0.0015,0.004 0.0039,0.007 0.0047,0.0113 3.7e-4,0.002 -0.0072,0.003 -0.0055,0.002 0.100154,-0.054 0.200661,-0.10733 0.300991,-0.16099 -0.102018,0.071 -0.215362,0.1304 -0.324009,0.18518 -0.101211,0.051 0.196999,-0.11217 0.295431,-0.16838 0.0053,-0.003 -0.01017,0.007 -0.01443,0.0112 -0.103278,0.0595 -0.206344,0.11935 -0.309832,0.17848 -0.0023,0.001 -0.0049,0.002 -0.0074,0.003 -0.0034,4e-5 -0.0071,-10e-4 -0.01005,1.2e-4 -0.0028,10e-4 -0.0083,0.009 -0.0056,0.008 0.09874,-0.0558 0.390298,-0.23101 0.294276,-0.17069 -0.101166,0.0636 -0.206477,0.12026 -0.309715,0.18038 -0.13066,0.047 0.410144,-0.25208 0.257346,-0.14479 -0.192716,-0.0957 -0.227949,0.1665 -0.362368,0.19745 -0.0037,1.3e-4 -0.0077,-10e-4 -0.01118,4e-4 -0.0031,0.001 -0.0043,0.005 -0.0072,0.007 -0.01404,0.009 -0.03659,0.0112 -0.05281,0.0134 -0.0234,0.0197 -0.05457,0.0187 -0.08131,0.0297 -0.04212,0.015 -0.08372,0.0316 -0.12598,0.0466 -0.05097,0.0245 -0.104731,0.0413 -0.154185,0.069 -0.06229,0.0302 -0.127859,0.0521 -0.192099,0.0775 -0.07527,0.022 -0.146786,0.0543 -0.221144,0.0788 -0.07648,0.0202 -0.152699,0.0413 -0.228408,0.0643 -0.08094,0.0255 -0.16079,0.0546 -0.242041,0.0791 -0.08867,0.0327 -0.178649,0.0612 -0.267897,0.0923 -0.107121,0.0426 -0.217152,0.0775 -0.328329,0.10782 -0.131593,0.0338 -0.261181,0.0746 -0.391308,0.1135 -0.16844,0.054 -0.341918,0.0879 -0.513677,0.12884 -0.213913,0.0514 -0.427384,0.10422 -0.640737,0.15786 -0.218327,0.061 -0.437831,0.11761 -0.656876,0.17594 -0.179629,0.0476 -0.358699,0.0973 -0.537387,0.14825 -0.167612,0.0507 -0.33331,0.10741 -0.500717,0.15886 -0.170634,0.0555 -0.339349,0.11717 -0.505098,0.18586 -0.14681,0.0641 -0.288556,0.13852 -0.428679,0.21596 0.04525,-0.0285 -0.154382,0.0879 -0.115863,0.0658 0.08133,-0.0467 0.324865,-0.18754 0.243758,-0.14046 -0.114112,0.0662 -0.228413,0.13213 -0.342773,0.19793 -0.01556,0.009 -0.06251,0.0353 -0.04698,0.0263 0.08395,-0.0486 0.168158,-0.0968 0.252237,-0.14515 -0.174496,0.10864 -0.7433642,0.42495 -0.14579,0.0853 0.02074,-0.0118 -0.04021,0.0257 -0.05987,0.0392 -0.04106,0.0277 -0.07666,0.0619 -0.109515,0.0988 -0.01956,0.0234 -0.04295,0.0443 -0.05907,0.0703 -0.01562,0.0231 -0.03216,0.0462 -0.04561,0.0707 -0.01036,0.0171 -0.01328,0.0356 -0.01486,0.0551 -5.82e-4,0.0195 -6.09e-4,0.0391 -3.97e-4,0.0587 -7.67e-4,0.0254 0.0099,0.0499 0.02007,0.0728 0.01354,0.0339 0.03052,0.0662 0.04543,0.0996 0.01336,0.0374 0.0279,0.0743 0.03929,0.11239 0.0063,0.0331 0.01684,0.065 0.02532,0.0975 0.0081,0.034 0.01004,0.0688 0.01092,0.10359 8.99e-4,0.0361 0.0024,0.0722 -0.0044,0.10775 -0.0062,0.0351 -0.01779,0.0685 -0.0309,0.10147 -0.0155,0.0338 -0.02839,0.0684 -0.04902,0.0995 -0.01782,0.0282 -0.04206,0.0514 -0.06304,0.0772 -0.02116,0.0262 -0.04255,0.0523 -0.06877,0.0736 -0.1319997,0.0861 -0.2696518,0.16032 -0.407138,0.23903 -0.045891,0.0219 -0.091086,0.0454 -0.1376545,0.0659 -0.050417,0.0278 -0.1052806,0.0451 -0.155438,0.0734 -0.064638,0.0287 -0.1302292,0.0549 -0.1957014,0.0818 -0.069537,0.0306 -0.1420797,0.0523 -0.2148684,0.0733 -0.073181,0.0292 -0.1487387,0.0496 -0.2247104,0.0698 -0.072158,0.0185 -0.1434687,0.0402 -0.2156687,0.0586 -0.066183,0.0172 -0.1328534,0.0319 -0.1992873,0.0483 -0.076518,0.016 -0.1531512,0.031 -0.2298494,0.0462 -0.083036,0.0102 -0.1646476,0.0279 -0.2465874,0.0442 -0.086105,0.0151 -0.1703962,0.0384 -0.2565064,0.0536 -0.091415,0.021 -0.1835081,0.0379 -0.2753239,0.0569 -0.1018561,0.0184 -0.2045414,0.0319 -0.3066851,0.0486 -0.1196517,0.0178 -0.2375898,0.0453 -0.3563377,0.0682 -0.1286584,0.0181 -0.2560317,0.0429 -0.3833476,0.0685 -0.1282555,0.0286 -0.2554814,0.0615 -0.3852587,0.0827 -0.1296779,0.0184 -0.2571978,0.0485 -0.386342,0.0697 -0.1267526,0.024 -0.254223,0.0432 -0.3817786,0.0622 -0.1385213,0.0185 -0.2760464,0.0443 -0.4125831,0.074 -0.1472903,0.0303 -0.2954948,0.0555 -0.4420502,0.0893 -0.1538094,0.032 -0.3079708,0.0626 -0.4625448,0.0908 -0.1562516,0.0295 -0.3125224,0.0586 -0.4669634,0.0967 -0.1508149,0.031 -0.3000288,0.0683 -0.4479822,0.11082 -0.1575424,0.0376 -0.3149229,0.0756 -0.4714392,0.11729 -0.1537637,0.0425 -0.3063371,0.0892 -0.4579672,0.13869 -0.1294511,0.0318 -0.2537844,0.0798 -0.3803065,0.12067 -0.09926,0.0343 -0.1995077,0.0663 -0.296609,0.10638 -0.098953,0.0392 -0.1953041,0.0845 -0.29118523,0.13055 -0.0886483,0.0463 -0.17978455,0.0872 -0.26947685,0.13126 -0.0762892,0.0423 -0.15428573,0.0807 -0.2325131,0.11934 -0.0121801,0.007 -0.0243713,0.0134 -0.0365406,0.0201 -0.0123804,0.007 -0.0247219,0.0138 -0.037108,0.0206 -0.012854,0.007 -0.051311,0.0285 -0.038612,0.0212 0.5708879,-0.33103 0.0804425,-0.0317 -0.11610049,0.0599 -0.0827018,0.0401 -0.16360769,0.0826 -0.24844914,0.11808 -0.08740773,0.0396 -0.17204793,0.0848 -0.25913056,0.12504 -0.1002493,0.0477 -0.20579884,0.0826 -0.31206951,0.11408 -0.109397,0.0368 -0.22252392,0.0597 -0.33496374,0.0847 -0.0926595,0.0209 -0.18713768,0.0294 -0.28182238,0.0332 -0.057908,10e-4 -0.029753,7.4e-4 -0.084466,0.002 0,0 0.2808067,-0.20487 0.2808067,-0.20487 v 0 c 0.0536929,-9.2e-4 0.0259511,-1.9e-4 0.0832225,-0.002 0.093168,-0.005 0.18598591,-0.0156 0.27704229,-0.0368 0.11211428,-0.024 0.22371979,-0.0504 0.33272343,-0.0864 0.10566232,-0.0328 0.21012103,-0.07 0.30966928,-0.11863 0.08672226,-0.0418 0.17217789,-0.0864 0.26063578,-0.12459 0.0841857,-0.0368 0.16460546,-0.0811 0.24798684,-0.11961 0.0131259,-0.006 0.0519299,-0.0269 0.0393776,-0.0194 -0.085728,0.0514 -0.34640491,0.19959 -0.25901282,0.15108 0.14987342,-0.0832 0.29501298,-0.17584 0.44791058,-0.25383 0.0780939,-0.0385 0.15477196,-0.0794 0.2323673,-0.11879 0.0900506,-0.0423 0.17912903,-0.0864 0.26843633,-0.1303 0.096517,-0.0457 0.193691,-0.0902 0.2931635,-0.1292 0.097799,-0.0375 0.1971992,-0.0706 0.2965639,-0.10374 0.1251766,-0.0424 0.2505545,-0.0839 0.3781194,-0.11869 0.1517253,-0.0487 0.3042585,-0.095 0.4581385,-0.13645 0.1569299,-0.0411 0.3147126,-0.0787 0.4719804,-0.11848 0.1484151,-0.0415 0.2981695,-0.0774 0.448836,-0.10977 0.1548715,-0.0365 0.3113569,-0.0651 0.4676291,-0.0949 0.1543388,-0.029 0.3086026,-0.0587 0.4620627,-0.0921 0.1470578,-0.0326 0.2954597,-0.0583 0.4428551,-0.0893 0.1374294,-0.0288 0.2756022,-0.0544 0.4148095,-0.073 0.1275279,-0.0192 0.2547647,-0.0399 0.3816393,-0.063 0.1287695,-0.0229 0.256714,-0.0501 0.3861069,-0.0696 0.1292588,-0.0235 0.2564757,-0.0562 0.3849095,-0.0836 0.127331,-0.0256 0.2551761,-0.0476 0.3833844,-0.0683 0.1193366,-0.0236 0.2380584,-0.0509 0.3585163,-0.0683 0.102321,-0.016 0.2049079,-0.0306 0.3066007,-0.0503 0.09222,-0.018 0.1838791,-0.0383 0.2759909,-0.0568 0.085646,-0.0172 0.1703255,-0.039 0.2563942,-0.0541 0.08199,-0.017 0.1644001,-0.031 0.2470293,-0.0445 0.076694,-0.0158 0.1537739,-0.0297 0.2299118,-0.0481 0.066289,-0.0162 0.1328314,-0.0312 0.198779,-0.0488 0.071426,-0.0199 0.14311,-0.0388 0.2147504,-0.0579 0.07601,-0.0202 0.1500444,-0.046 0.2246773,-0.0708 0.072391,-0.0212 0.1434452,-0.0466 0.2127345,-0.0765 0.065234,-0.0275 0.1316845,-0.0522 0.1946521,-0.0848 0.052053,-0.0248 0.1058633,-0.0459 0.1570498,-0.0726 0.045745,-0.0223 0.092102,-0.0434 0.1371126,-0.0673 -0.5146899,0.2992 -0.3029108,0.18291 -0.1938726,0.10647 0.03132,-0.0129 0.052135,-0.036 0.072935,-0.0623 0.02109,-0.0254 0.040816,-0.0511 0.064899,-0.0736 0.019309,-0.0309 0.041212,-0.0592 0.050752,-0.0955 0.016849,-0.029 0.027424,-0.0618 0.034203,-0.0945 0.00909,-0.0332 0.010398,-0.0654 0.00845,-0.0999 -6.614e-4,-0.0323 -0.0013,-0.0648 -0.00759,-0.0967 -0.00753,-0.0325 -0.020021,-0.0634 -0.024527,-0.0966 -0.00973,-0.0369 -0.024731,-0.0717 -0.0365,-0.10802 -0.014991,-0.0333 -0.032369,-0.0654 -0.045953,-0.0993 -0.012015,-0.0268 -0.025646,-0.0558 -0.027978,-0.0851 -3.26e-5,-0.0201 -5.821e-4,-0.0401 -1.17e-4,-0.0602 7.49e-5,-0.0228 -2.91e-5,-0.0468 0.00888,-0.0682 0.01166,-0.0276 0.028884,-0.0507 0.043202,-0.0769 0.01946,-0.0217 9.26e-5,0.002 0.015997,-0.0256 0.010732,-0.0187 0.0333,-0.0286 0.042002,-0.0495 0.037294,-0.0342 0.065942,-0.0778 0.1097174,-0.10528 0.122325,-0.0919 0.252258,-0.15418 0.38995,-0.23353 0.0118,-0.007 0.04746,-0.0267 0.03571,-0.0199 -0.08591,0.0503 -0.171727,0.10087 -0.258194,0.15026 -0.01355,0.008 0.02626,-0.0168 0.03939,-0.0253 0.112973,-0.0653 0.225881,-0.13069 0.338918,-0.19587 0.01545,-0.009 0.06196,-0.0353 0.04654,-0.0264 -0.08213,0.0477 -0.328875,0.19008 -0.246657,0.14256 0.15278,-0.0883 0.304613,-0.17867 0.459542,-0.2633 0.140185,-0.0764 0.282332,-0.1493 0.429472,-0.21159 0.166625,-0.0668 0.335234,-0.12898 0.506434,-0.18315 0.167412,-0.0522 0.333203,-0.10946 0.501554,-0.15849 0.178043,-0.0502 0.356346,-0.0994 0.53538,-0.14592 0.218757,-0.0571 0.4374,-0.11464 0.65546,-0.1744 0.214313,-0.0542 0.428857,-0.10726 0.64365,-0.15949 0.172761,-0.0407 0.34644,-0.0779 0.515508,-0.13281 0.130711,-0.0398 0.261444,-0.0795 0.393561,-0.11443 0.110965,-0.0322 0.22044,-0.0688 0.328281,-0.11027 0.09017,-0.0306 0.179843,-0.0624 0.270067,-0.0928 0.08075,-0.0264 0.161415,-0.053 0.242414,-0.0787 0.07583,-0.022 0.152036,-0.0427 0.227564,-0.0657 0.07356,-0.0269 0.146676,-0.055 0.220879,-0.0801 0.06469,-0.0242 0.128939,-0.0497 0.19059,-0.081 0.05166,-0.024 0.105022,-0.0443 0.15756,-0.0663 0.04232,-0.0162 0.08482,-0.0322 0.12791,-0.0462 0.02892,-0.007 0.05483,-0.021 0.08368,-0.0275 0.02367,-0.008 0.04571,-0.0188 0.06945,-0.0248 0.114851,-0.0555 0.276241,-0.12063 -0.245159,0.14742 0.115791,-0.0676 0.231555,-0.13545 0.346239,-0.20485 -0.09761,0.057 -0.388206,0.23165 -0.29284,0.17097 0.100504,-0.0639 0.204838,-0.12169 0.308269,-0.18079 0.0066,-0.004 0.01812,-0.002 0.02358,-0.01 -0.098,0.0567 -0.196011,0.11338 -0.294016,0.17007 0.0292,-0.009 -0.01028,0.005 0.01485,-0.01 0.102952,-0.0604 0.206755,-0.11942 0.310469,-0.17855 0.0941,-0.0536 -0.374604,0.21763 -0.281865,0.16167 0.07442,-0.0403 0.258226,-0.26168 0.337392,-0.15236 0.0051,10e-4 0.0072,-2.3e-4 0.01085,-0.006 -0.09735,0.0572 -0.194701,0.11436 -0.292051,0.17154 0.01721,-0.005 0.0182,0.005 0.01635,-0.0182 -5.29e-4,-0.0144 -0.002,-0.0288 -0.001,-0.0433 0.0043,-0.13725 0.219453,-0.15051 0.332415,-0.21785 -0.756374,0.44066 0.0019,-0.005 0.02789,-0.0145 0.106414,-0.0393 -0.196758,0.11304 -0.294276,0.17103 -0.0021,0.001 0.0049,-10e-4 0.0072,-3.2e-4 0.0033,10e-4 0.0059,0.003 0.0088,0.005 8.99e-4,2.1e-4 0.01259,0.002 0.0081,0.006 -0.0023,0.002 -0.02333,-0.0174 -0.02614,-0.0184 -0.01561,1.2e-4 -0.0284,-0.0153 -0.04196,-0.0214 -0.0057,0.009 -0.03544,-0.0109 -0.04327,-0.0138 -0.01471,-0.009 -0.02994,-0.009 -0.04589,-0.015 -0.0154,-0.008 -0.02831,-0.0163 -0.04501,-0.0136 -0.0188,-0.002 -0.03725,-0.006 -0.0547,-0.0134 -0.01787,-0.009 -0.0259,-0.0119 -0.04479,-0.009 -0.02136,-5.1e-4 -0.04278,-6.1e-4 -0.06402,-0.003 -0.02289,-0.003 -0.04488,-0.01 -0.06544,-0.0207 -0.01869,-0.006 -0.04032,-0.004 -0.05757,-0.0155 -0.01433,-0.009 -0.02832,-0.0156 -0.04384,-0.0219 -0.01523,-0.0109 -0.02947,-0.0232 -0.04698,-0.0303 -0.01677,-0.009 -0.03386,-0.0145 -0.05123,-0.022 -0.01907,-0.009 -0.03896,-0.004 -0.05969,-0.005 -0.03284,8e-5 -0.06567,7e-5 -0.09851,2.3e-4 -0.04304,9e-5 -0.08611,1.5e-4 -0.12912,-0.002 -0.06198,-0.003 -0.123931,-0.008 -0.183633,-0.0262 -0.07204,-0.0219 -0.141966,-0.0498 -0.212149,-0.077 -0.06821,-0.0275 -0.135056,-0.0582 -0.203724,-0.0846 -0.05165,-0.0186 -0.103544,-0.0366 -0.156898,-0.0497 -0.03024,-0.0102 -0.05973,-0.0223 -0.08985,-0.0322 -0.02602,-0.005 -0.04209,-0.004 -0.06387,0.0122 0.770861,-0.44472 -0.05032,0.0251 -0.05257,0.0353 -0.01889,0.009 -0.03277,0.0152 -0.05459,0.0111 -0.02584,9.8e-4 -0.05167,0.003 -0.07676,0.01 -0.04082,0.0117 -0.08011,0.0278 -0.12065,0.0404 -0.127418,0.0518 -0.402534,0.19931 0.115763,-0.087 -0.07465,0.0438 -0.148651,0.0884 -0.219501,0.1383 -0.07916,0.0525 -0.152978,0.11211 -0.227746,0.17062 -0.08897,0.0636 -0.17503,0.13072 -0.26259,0.19622 -0.184175,0.13716 -0.381442,0.25566 -0.583736,0.36415 -0.06544,0.0353 -0.1327,0.0754 -0.207219,0.0865 -0.03959,-0.002 -0.07564,-0.0122 -0.107085,-0.0377 -0.03742,-0.0333 -0.06743,-0.0717 -0.09434,-0.11386 -0.04794,-0.0691 -0.09145,-0.1408 -0.13872,-0.21033 -0.05248,-0.0845 -0.10122,-0.17137 -0.149582,-0.25829 -0.05704,-0.10255 -0.110774,-0.20686 -0.166667,-0.31004 -0.07508,-0.14074 -0.144564,-0.28432 -0.220529,-0.4246 -0.08683,-0.15372 -0.170863,-0.30912 -0.250506,-0.46668 -0.08283,-0.16407 -0.171064,-0.3254 -0.249698,-0.49161 -0.06125,-0.11277 -0.11852,-0.22946 -0.200862,-0.32876 -0.01471,-0.0175 -0.04278,-0.0601 -0.07044,-0.0386 0.0972,-0.0561 0.194705,-0.11167 0.29159,-0.16831 0.0034,-0.002 -0.0074,0.003 -0.01095,0.004 -0.02163,0.009 -0.03412,0.0302 -0.04371,0.051 -0.03879,0.0596 -0.07276,0.12182 -0.107976,0.18351 -0.05999,0.10246 -0.131433,0.19793 -0.193863,0.29894 -0.06254,0.0938 -0.135514,0.18125 -0.222091,0.25392 -0.109415,0.0645 -0.218268,0.12996 -0.328245,0.1935 -0.04151,0.024 -0.08475,0.0244 -0.127817,0.005 -0.05797,-0.0323 -0.08838,-0.0864 -0.117322,-0.14466 -0.05414,-0.12002 -0.09355,-0.24661 -0.129202,-0.37315 -0.04768,-0.18991 -0.08772,-0.38157 -0.12483,-0.57381 -0.01265,-0.0642 -0.02458,-0.1286 -0.03829,-0.19258 -0.002,-0.01 -0.0043,-0.019 -0.0066,-0.0285 -3.71e-4,-0.001 -6.62e-4,-0.005 -0.0015,-0.004 -0.0013,0.002 -1.17e-4,0.004 -1.76e-4,0.007 0.0979,-0.0564 0.196444,-0.11169 0.2937,-0.16919 0.0042,-0.002 -0.0099,10e-4 -0.01406,0.004 -0.0343,0.0206 -0.04687,0.0707 -0.06846,0.10107 -0.0738,0.12119 -0.145625,0.24329 -0.214812,0.36721 -0.07924,0.13399 -0.152497,0.27296 -0.249801,0.39506 -0.107601,0.12878 -0.140247,0.11068 -0.369867,0.23691 -0.01607,0.009 -0.03471,-2e-4 -0.048778,-0.008 -0.03595,-0.0247 -0.063034,-0.0562 -0.083332,-0.095 -0.047943,-0.0801 -0.088936,-0.16368 -0.1100473,-0.25529 -0.04502,-0.17349 -0.081541,-0.34864 -0.1187294,-0.52395 -0.054562,-0.25779 -0.1045213,-0.51649 -0.1542413,-0.77525 -0.064613,-0.32695 -0.1343604,-0.65285 -0.2084228,-0.97778 -0.059219,-0.2575 -0.122587,-0.514 -0.1961087,-0.76783 -0.00687,-0.0214 -0.060396,-0.20455 -0.084572,-0.21508 -0.013724,0.002 -0.00429,-9e-4 -0.01561,0.006 -0.00383,0.002 -0.015687,0.009 -0.011821,0.006 0.5050289,-0.29652 0.3495185,-0.21422 0.2506215,-0.14354 -0.05167,0.0548 -0.08932,0.11702 -0.1228114,0.18447 -0.051262,0.0998 -0.098754,0.20119 -0.1438976,0.30393 -0.05047,0.12969 -0.1014323,0.25919 -0.1479285,0.39033 -0.047683,0.13256 -0.090499,0.26688 -0.1425867,0.39793 -0.06282,0.16934 -0.1248423,0.33899 -0.1905735,0.50724 -0.082814,0.21147 -0.1531824,0.42745 -0.2325494,0.64023 -0.082685,0.23175 -0.1645875,0.46368 -0.2412868,0.6975 -0.084723,0.24656 -0.1732058,0.49184 -0.2516685,0.74054 -0.084498,0.23514 -0.1646116,0.4723 -0.2717295,0.69848 -0.095885,0.20567 -0.1975313,0.40981 -0.3306921,0.59445 -0.1064112,0.13868 -0.2166006,0.27718 -0.3622638,0.37709 -0.1155427,0.0681 -0.2306452,0.13688 -0.3466277,0.20419 -0.055029,0.0319 -0.1154631,0.0547 -0.1798865,0.0482 -0.047292,-0.0151 -0.070845,-0.0466 -0.087552,-0.0926 -0.023349,-0.0778 -0.045356,-0.15597 -0.053555,-0.23711 -0.013875,-0.0934 -0.020534,-0.18973 -0.061412,-0.27647 -0.034413,-0.0482 -0.081159,-0.0711 -0.1389229,-0.0828 -0.073879,-0.0174 -0.1502244,-0.0239 -0.2220868,-0.0492 -0.084605,-0.0329 -0.1286907,-0.0706 -0.1671399,-0.15491 -0.054423,-0.15014 -0.051296,-0.31475 -0.059886,-0.47223 -0.010993,-0.31695 -0.012869,-0.63413 -0.00963,-0.95126 -3.968e-4,-0.15767 -8.17e-5,-0.31481 -0.013308,-0.47207 -0.0053,-0.0631 -0.013256,-0.14062 -0.027746,-0.20377 -0.00411,-0.0179 -0.011073,-0.035 -0.016608,-0.0526 -0.00479,-0.006 -0.00771,-0.0139 -0.014372,-0.0173 -0.010258,-0.005 -0.042292,0.0182 -0.032374,0.0123 0.4974225,-0.29585 0.3015956,-0.1955 0.2077233,-0.10746 -0.123525,0.12442 -0.2465689,0.24933 -0.3711781,0.37267 -0.083831,0.082 -0.1669849,0.16526 -0.2565019,0.24118 -0.1580978,0.13408 -0.3321339,0.2334 -0.5189443,0.32874 -0.088513,0.0377 -0.1569309,0.0623 -0.2449798,0.011 -0.065992,-0.0424 -0.1167082,-0.1015 -0.1626132,-0.16471 -0.071661,-0.0948 -0.1334344,-0.19613 -0.179819,-0.3059 -0.073129,-0.17401 -0.1432473,-0.34913 -0.2074278,-0.52672 -0.08348,-0.23334 -0.1610024,-0.46836 -0.2295218,-0.70658 -0.047479,-0.15787 -0.094734,-0.31599 -0.154016,-0.46993 -0.00929,-0.0217 -0.022849,-0.0815 -0.056138,-0.0744 -0.1218205,0.0172 -0.3205139,0.19192 0.2092836,-0.13924 -0.066258,0.0355 -0.1129552,0.0947 -0.1662669,0.14628 -0.079725,0.0856 -0.1638884,0.16703 -0.2420088,0.25415 -0.070243,0.0727 -0.1396727,0.14614 -0.2084903,0.22018 -0.038575,0.0345 -0.073025,0.068 -0.1171919,0.0957 -0.00685,0.005 -0.015216,0.008 -0.021601,0.0141 -0.00271,0.002 -0.00307,0.007 -0.00601,0.009 -0.00672,0.005 -0.011546,6.1e-4 -0.016149,0.0149 -0.00217,-6.4e-4 -0.00473,-0.003 -0.0065,-0.002 -0.0071,0.006 0.00499,0.0333 -0.00345,0.041 -0.00329,0.0196 -0.021797,0.0298 -0.030279,0.0475 -0.016856,0.0281 -0.041763,0.0483 -0.058091,0.077 -0.025577,0.0531 -0.059562,0.10183 -0.087,0.15395 -0.051346,0.0847 -0.094104,0.1746 -0.1378672,0.26335 -0.065257,0.14135 -0.1262962,0.28453 -0.1875315,0.42766 -0.075097,0.17483 -0.1422456,0.35304 -0.2151066,0.52882 -0.079579,0.19298 -0.1590916,0.386 -0.2355053,0.58026 -0.051602,0.13229 -0.1065389,0.26349 -0.1491885,0.39899 0,0 -0.3168969,0.15051 -0.3168969,0.15051 z"
       inkscape:connector-curvature="0"
       style="stroke-width:0.26458332" />
    <path
       id="path148"
       d="m 16.918036,287.89887 c -0.0851,0.0177 -0.168178,0.0434 -0.252867,0.0629 -0.07385,0.0231 -0.150354,0.0359 -0.224489,0.0579 -0.07011,0.0229 -0.142324,0.0375 -0.211516,0.0631 -0.06724,0.0237 -0.136265,0.041 -0.205053,0.0594 -0.07901,0.0149 -0.15772,0.0295 -0.233858,0.0558 -0.06914,0.0222 -0.13466,0.0542 -0.204751,0.0734 -0.06547,0.0158 -0.123282,0.0497 -0.184505,0.0759 -0.05925,0.0271 -0.114521,0.0637 -0.176013,0.0856 -0.05808,0.0268 -0.118873,0.0446 -0.179805,0.0634 -0.06194,0.0208 -0.123944,0.0415 -0.185438,0.0636 -0.05811,0.0228 -0.116911,0.0435 -0.175928,0.0638 -0.05106,0.0128 -0.09764,0.0376 -0.147707,0.0533 -0.04813,0.0177 -0.09359,0.0412 -0.140565,0.0615 -0.04355,0.0249 -0.09109,0.0421 -0.134543,0.067 -0.04113,0.0198 -0.08551,0.0313 -0.127518,0.0488 -0.04976,0.0205 -0.1008,0.0388 -0.149908,0.061 -0.05597,0.0232 -0.111123,0.0484 -0.169089,0.0665 -0.05591,0.0182 -0.10929,0.0424 -0.164253,0.0631 -0.05275,0.0237 -0.104486,0.0495 -0.158656,0.0699 -0.05236,0.0119 -0.09777,0.0406 -0.147488,0.059 -0.03881,0.0182 -0.07872,0.0332 -0.116051,0.0545 -0.0058,0.003 -0.02302,0.0134 -0.01725,0.01 0.93981,-0.54023 -0.735025,0.42508 0.205242,-0.11649 -0.04682,0.0274 -0.09185,0.0576 -0.137628,0.0866 -0.05678,0.0387 -0.111577,0.0802 -0.167228,0.12048 -0.08138,0.0578 -0.157864,0.12224 -0.232916,0.18797 -0.06334,0.0573 -0.126627,0.11478 -0.183178,0.17887 -0.03418,0.0369 -0.0671,0.0749 -0.09905,0.11379 -0.02253,0.0321 -0.03965,0.0675 -0.053,0.10425 -0.01408,0.03 -0.02281,0.0619 -0.03671,0.092 -0.01083,0.023 -0.01533,0.0474 -0.01708,0.0725 -0.0015,0.0265 -0.0011,0.053 -0.0012,0.0796 5.82e-4,0.0254 -0.0022,0.0507 0.0046,0.0754 0.0066,0.0305 0.01989,0.0588 0.0294,0.0884 0.01464,0.0336 0.02327,0.069 0.03276,0.10419 0.01337,0.0433 0.03226,0.0851 0.05159,0.12613 0.02468,0.0463 0.05122,0.0913 0.07898,0.13572 0.0292,0.0389 0.04449,0.0848 0.06044,0.13015 0.01777,0.0444 0.03663,0.0884 0.05705,0.1316 0.01933,0.0382 0.03678,0.0772 0.05334,0.11667 0.01465,0.0334 0.0253,0.0679 0.03029,0.10404 0.0034,0.0333 0.0036,0.0668 0.0036,0.10029 0.0016,0.0357 -0.0093,0.0701 -0.01777,0.10439 -0.01311,0.039 -0.02772,0.0774 -0.04499,0.11482 -0.02246,0.0427 -0.04821,0.0836 -0.07299,0.12496 -0.02431,0.044 -0.05373,0.0845 -0.0857,0.12314 -0.0347,0.035 -0.07203,0.0674 -0.109212,0.0998 -0.05109,0.039 -0.104176,0.0753 -0.156615,0.11247 -0.07115,0.051 -0.14506,0.098 -0.217987,0.14643 -0.09195,0.0583 -0.184608,0.11551 -0.277435,0.17241 -0.189745,0.1232 -0.390057,0.22441 -0.592987,0.32227 -0.09411,0.0452 -0.191557,0.083 -0.287307,0.12452 -0.01598,0.007 -0.032,0.0142 -0.04794,0.0215 -0.01197,0.005 -0.084,0.0387 -0.09565,0.0447 -0.01598,0.008 -0.06266,0.0353 -0.04707,0.0263 0.306621,-0.17614 0.325992,-0.18794 0.204227,-0.11579 -0.196758,0.11629 -0.395692,0.22927 -0.598818,0.33406 -0.05824,0.0306 -0.116094,0.0619 -0.173566,0.0939 -0.01961,0.0109 -0.07828,0.044 -0.05882,0.0328 0.284534,-0.16384 0.306382,-0.17805 0.181119,-0.10115 -0.169953,0.10035 -0.046,0.0275 -0.405096,0.23314 -0.017145,0.01 -0.068619,0.0392 -0.051502,0.0293 0.0809,-0.0466 0.161775,-0.0933 0.242853,-0.13967 0.01719,-0.01 -0.0341,0.0201 -0.05118,0.0301 -0.01679,0.01 -0.03362,0.0196 -0.05042,0.0294 -0.1148359,0.0661 -0.2294973,0.13246 -0.3445075,0.19823 -0.217746,0.12452 0.3636925,-0.21479 0.148844,-0.0851 -0.015909,0.01 -0.031927,0.019 -0.047742,0.0288 -0.01605,0.01 -0.031899,0.0201 -0.047849,0.0302 -0.1021866,0.0652 -0.2016469,0.13448 -0.3014012,0.20329 -0.096656,0.0652 -0.190042,0.13497 -0.2828324,0.20551 -0.088809,0.0701 -0.176711,0.14162 -0.2596846,0.21859 -0.08796,0.0867 -0.177511,0.17175 -0.2656591,0.25825 -0.087926,0.0907 -0.1771954,0.18011 -0.2633588,0.27248 -0.080317,0.0854 -0.1520698,0.17821 -0.2241196,0.27055 -0.049944,0.0711 -0.1073687,0.13621 -0.160756,0.20458 -0.042907,0.0527 -0.08186,0.1084 -0.1233734,0.16217 -0.046109,0.0543 -0.081886,0.1159 -0.1213326,0.17492 -0.053943,0.0729 -0.1112793,0.14335 -0.1701075,0.21233 -0.064843,0.075 -0.1289455,0.15052 -0.1930697,0.22612 -0.064532,0.0727 -0.1328221,0.14197 -0.199083,0.21311 -0.07574,0.0799 -0.1587535,0.15221 -0.2418837,0.22418 -0.082301,0.0721 -0.1649169,0.14405 -0.2515301,0.21097 -0.078042,0.0617 -0.1530893,0.12716 -0.2297928,0.19054 -0.061344,0.0517 -0.1276061,0.097 -0.1949151,0.1405 -0.1428675,0.0912 -0.2885268,0.17786 -0.439366,0.25557 -0.044449,0.0124 -0.084049,0.035 -0.1253566,0.0546 -0.00688,0.002 -0.014063,0.004 -0.020638,0.007 -0.049222,0.0235 0.015497,-0.001 -0.034529,0.0193 -0.01815,0.008 -0.037503,0.0109 -0.056593,0.015 -0.020008,0.013 -0.045449,0.0134 -0.066811,0.022 -0.00946,0.004 -0.017571,0.0105 -0.026883,0.0147 -0.030539,0.005 -0.056118,0.0181 -0.084192,0.0301 0.00501,-0.013 -0.031485,0.016 -0.023802,0.0116 0.097618,-0.0553 0.3870399,-0.22696 0.2916562,-0.16791 -0.1261999,0.0781 -0.211315,0.14047 -0.3299983,0.18777 0.4279698,-0.37765 0.3704687,-0.22525 0.2710018,-0.15024 0,0 -0.3288985,0.12913 -0.3288985,0.12913 v 0 c 0.1102323,-0.0682 0.2128591,-0.14634 0.3341857,-0.19838 0.00552,-0.003 0.021741,-0.0122 0.016346,-0.009 -0.096967,0.0563 -0.3879143,0.22511 -0.2908924,0.16891 0.2061906,-0.11944 0.2094791,-0.14154 0.3367561,-0.18991 0.027525,-0.0114 0.05648,-0.0175 0.083475,-0.0304 0.031024,-0.0136 0.064917,-0.021 0.096948,-0.0319 0.037446,-0.0114 0.071053,-0.0312 0.1068273,-0.0468 0.040563,-0.0208 0.083999,-0.0343 0.1247365,-0.0546 0.1177359,-0.0592 0.025797,-0.0135 -0.2571827,0.15109 -0.00728,0.004 0.01483,-0.008 0.021929,-0.0126 0.0077,-0.005 0.014952,-0.0105 0.022429,-0.0158 0.00836,-0.005 0.016727,-0.0104 0.02509,-0.0156 0.00967,-0.006 0.019344,-0.012 0.029017,-0.0181 0.06934,-0.0407 0.1356664,-0.0872 0.1986359,-0.13713 0.078133,-0.0622 0.1528215,-0.1287 0.230097,-0.19199 0.088064,-0.0648 0.1704684,-0.13689 0.2526615,-0.20887 0.082451,-0.0717 0.1661396,-0.14203 0.2425613,-0.22037 0.06564,-0.0715 0.132956,-0.14122 0.1997522,-0.21161 0.063373,-0.0761 0.1280536,-0.15099 0.192315,-0.2263 0.059065,-0.0676 0.114998,-0.13782 0.1704811,-0.20834 0.041082,-0.058 0.073761,-0.12147 0.1191332,-0.17655 0.043152,-0.053 0.081022,-0.10982 0.1248058,-0.1623 0.053141,-0.0695 0.112573,-0.13358 0.1625115,-0.20572 0.073637,-0.0923 0.1444565,-0.18708 0.2248848,-0.27373 0.085171,-0.0937 0.1757288,-0.1824 0.2631744,-0.27399 0.086619,-0.0878 0.1778481,-0.17074 0.2642883,-0.2587 0.081867,-0.0786 0.1696249,-0.15028 0.2575721,-0.22185 0.093737,-0.07 0.1858249,-0.14235 0.2833918,-0.20711 0.098952,-0.0697 0.199041,-0.13782 0.300237,-0.20417 0.1570792,-0.10343 0.3250636,-0.19505 0.4868704,-0.28835 0.016169,-0.009 0.065065,-0.0366 0.048954,-0.0272 -0.081411,0.0476 -0.1632442,0.0946 -0.2448665,0.14183 0.1495033,-0.0862 0.2983602,-0.17348 0.4479102,-0.2597 0.01691,-0.01 0.06791,-0.0385 0.05108,-0.0287 -0.07929,0.0465 -0.15907,0.0923 -0.238455,0.13866 -0.018624,0.0109 0.03745,-0.0214 0.05617,-0.0321 0.208609,-0.12933 0.422325,-0.25044 0.639465,-0.36484 0.124143,-0.0662 0.538361,-0.29302 0.0086,0.005 0.189983,-0.11093 0.375191,-0.23158 0.579452,-0.3149 0.09568,-0.0409 0.192552,-0.0794 0.285961,-0.12534 0.125481,-0.0607 0.526048,-0.27265 0.0016,0.0171 0.09299,-0.056 0.184439,-0.11446 0.277172,-0.17084 0.07234,-0.0479 0.145066,-0.0951 0.216391,-0.14445 0.0514,-0.0372 0.103358,-0.0737 0.155234,-0.1102 0.03972,-0.0282 0.07309,-0.0645 0.110955,-0.0951 0.03613,-0.0328 0.06494,-0.0746 0.08868,-0.11691 0.02631,-0.0395 0.04759,-0.082 0.07385,-0.12129 0.01869,-0.0356 0.03404,-0.0723 0.04625,-0.11062 0.01336,-0.0281 0.01876,-0.0634 0.02265,-0.0937 5.9e-5,-0.0322 5.03e-4,-0.0645 -0.0017,-0.0966 -0.0031,-0.0331 -0.01123,-0.065 -0.02487,-0.0955 -0.01699,-0.0388 -0.03231,-0.0783 -0.0523,-0.11583 -0.02087,-0.0443 -0.03966,-0.0897 -0.0587,-0.13488 -0.01486,-0.043 -0.029,-0.0867 -0.05675,-0.1235 -0.02789,-0.0458 -0.05453,-0.0922 -0.08039,-0.13921 -0.02057,-0.0424 -0.04061,-0.0857 -0.05535,-0.13044 -0.01094,-0.0345 -0.01646,-0.0708 -0.03312,-0.10353 -0.0087,-0.03 -0.02335,-0.0577 -0.02984,-0.0883 -0.0091,-0.0281 -0.01118,-0.0549 -0.0092,-0.0845 -3.17e-4,-0.0271 -3.96e-4,-0.0542 1.37e-4,-0.0813 0.0012,-0.0281 0.0016,-0.0567 0.0123,-0.0832 0.0113,-0.0314 0.02792,-0.0607 0.03664,-0.0932 0.01933,-0.0354 0.02756,-0.0771 0.05056,-0.11131 0.02802,-0.0428 0.0651,-0.0801 0.100029,-0.11726 0.05624,-0.0666 0.119422,-0.12609 0.184247,-0.18429 0.07393,-0.0665 0.149691,-0.13162 0.230105,-0.19014 0.05427,-0.0411 0.110411,-0.0798 0.164143,-0.12166 0.04524,-0.0298 0.09105,-0.0585 0.136407,-0.088 1.047698,-0.60389 -0.211226,0.12317 0.07761,-0.0445 0.334277,-0.19404 0.207965,-0.12826 0.334851,-0.19397 0.03894,-0.0181 0.07827,-0.0353 0.117828,-0.052 0.04793,-0.0218 0.09674,-0.0409 0.146595,-0.0579 0.05321,-0.0228 0.105226,-0.0483 0.159024,-0.0697 0.05458,-0.0219 0.109171,-0.0438 0.165167,-0.0619 0.05659,-0.0209 0.111793,-0.0452 0.167409,-0.0685 0.0505,-0.0203 0.100483,-0.0418 0.151582,-0.0605 0.04276,-0.0147 0.0851,-0.0312 0.125218,-0.0522 0.04531,-0.0212 0.09002,-0.0437 0.135288,-0.065 0.04663,-0.0218 0.09399,-0.0421 0.142585,-0.0592 0.04874,-0.0186 0.09706,-0.0383 0.147187,-0.0531 0.05836,-0.0209 0.116947,-0.0411 0.174938,-0.0631 0.06199,-0.0215 0.123771,-0.0437 0.186581,-0.0626 0.06066,-0.0185 0.11971,-0.0412 0.178055,-0.0661 0.05878,-0.0276 0.115587,-0.0593 0.174774,-0.0862 0.06072,-0.0289 0.122265,-0.055 0.187392,-0.0726 0.06825,-0.0233 0.134636,-0.0519 0.203654,-0.0731 0.07745,-0.0229 0.15703,-0.0359 0.235471,-0.0548 0.06857,-0.0179 0.13649,-0.0382 0.203449,-0.0614 0.07023,-0.0226 0.142162,-0.0396 0.212687,-0.0613 0.07475,-0.0191 0.150034,-0.036 0.22449,-0.0563 0.08537,-0.0208 0.16995,-0.0448 0.255407,-0.0653 0,0 -0.278314,0.21281 -0.278314,0.21281 z"
       inkscape:connector-curvature="0"
       style="stroke-width:0.26458332" />
    <path
       id="path150"
       d="m 1.493046,286.74474 c -0.084952,0.12444 -0.168272,0.25003 -0.2522207,0.37517 -0.091278,0.14504 -0.1994261,0.27772 -0.30859665,0.40935 -0.0683467,0.0811 -0.14293197,0.1565 -0.2182232,0.23105 -0.12252325,0.11445 -0.28275555,0.18399 -0.42560539,0.26514 -0.0294939,0.0118 -0.0573766,0.003 -0.0761484,-0.0218 -0.0121391,-0.023 -0.021129,-0.0479 -0.0274263,-0.0731 -0.009343,-0.0474 -0.009062,-0.0959 -0.009428,-0.144 -0.00369,-0.0652 0.005386,-0.12965 0.0131385,-0.19414 0.00635,-0.056 0.008359,-0.11234 0.009435,-0.16864 1.56e-4,-0.037 2.704e-4,-0.0739 -2.2579e-4,-0.11086 -0.002074,-0.0213 -0.0113948,-0.0411 -0.0177013,-0.0614 -8.1729e-4,-3.5e-4 -0.004423,-0.002 -0.004568,-0.002 -0.001357,0.003 9.898e-4,0.007 -7.4507e-4,0.01 -0.004174,0.007 -0.0133073,0.008 -0.0196412,0.0128 0.0940655,-0.0533 0.18813095,-0.10655 0.28219644,-0.15983 -0.0792138,0.0545 -0.15151367,0.11838 -0.21972807,0.18597 -0.0494947,0.0449 -0.094549,0.0942 -0.14157598,0.14149 -0.0188786,0.0188 -0.02588532,0.0418 -0.03117773,0.001 0.09619805,-0.061 0.24214365,-0.13049 -0.26186857,0.14766 -0.0101239,0.006 0.0191996,-0.0129 0.0284748,-0.0198 0.0356366,-0.0265 0.0491769,-0.0392 0.084608,-0.0694 0.13916747,-0.1254 0.27208923,-0.25747 0.40853387,-0.38581 0.12129481,-0.11159 0.23868977,-0.22731 0.34883608,-0.34995 0.0666648,-0.0708 0.13092194,-0.1437 0.19509676,-0.21675 0.0464464,-0.053 0.0952767,-0.10381 0.14455635,-0.15415 0.0503813,-0.0511 0.0960242,-0.10647 0.14569555,-0.15833 0.057141,-0.0627 0.1083833,-0.13029 0.1602036,-0.19732 0.044511,-0.0609 0.091918,-0.11948 0.1366377,-0.18016 0.03177,-0.0418 0.060816,-0.0855 0.094371,-0.12593 0.021105,-0.0242 0.041444,-0.0489 0.061541,-0.074 0.00195,-0.002 0.0039,-0.005 0.00586,-0.007 0,0 0.3245801,-0.13804 0.3245801,-0.13804 v 0 c -0.00211,0.002 -0.00422,0.005 -0.00632,0.007 -0.02089,0.0248 -0.039383,0.0519 -0.063172,0.0738 -0.031577,0.0423 -0.067536,0.0815 -0.096781,0.12578 -0.045075,0.0611 -0.093161,0.11979 -0.137388,0.18156 -0.052903,0.0669 -0.1035818,0.13543 -0.1590581,0.20026 -0.048507,0.0526 -0.096898,0.10498 -0.1442028,0.15857 -0.049637,0.0501 -0.099092,0.10052 -0.146339,0.15295 -0.065737,0.0733 -0.1294937,0.14842 -0.19887493,0.21841 -0.11073315,0.12542 -0.23101935,0.24196 -0.35395715,0.35533 -0.13486873,0.12685 -0.26685372,0.25661 -0.40114473,0.38406 -0.12811564,0.11592 -0.28291198,0.2589 -0.4535634,0.28166 -0.0349156,-0.0265 -0.0378667,-0.0448 -0.008601,-0.0763 0.0447823,-0.0516 0.0962433,-0.0977 0.14592454,-0.14463 0.06685147,-0.0683 0.1378215,-0.13138 0.21223241,-0.19133 0.10701158,-0.0615 0.21311647,-0.12458 0.32103475,-0.18446 0.00426,-0.002 0.023921,-0.004 0.0295306,-0.002 0.0132776,0.005 0.0215569,0.0182 0.0287609,0.0297 0.005992,0.0239 0.0158086,0.0464 0.0212135,0.0704 -3.6512e-4,0.0374 -1.225e-4,0.0749 -0.00113,0.11235 -0.001037,0.0574 -0.003075,0.11487 -0.008963,0.17204 -0.006593,0.0633 -0.019571,0.12611 -0.0147828,0.1901 8.5196e-4,0.0454 8.0169e-4,0.0912 0.007963,0.13614 0.004372,0.02 0.0121978,0.0385 0.0198162,0.057 0.0179753,0.002 0.0331506,-0.006 0.0491562,-0.0141 -0.54293775,0.31453 -0.27994189,0.17517 -0.17038785,0.0863 0.0769726,-0.0748 0.15404282,-0.14965 0.22511596,-0.23017 0.10979063,-0.13128 0.2217043,-0.26132 0.31236767,-0.40712 0.0821001,-0.12276 0.16557573,-0.24479 0.24140473,-0.37158 0,0 0.3212693,-0.13934 0.3212693,-0.13934 z"
       inkscape:connector-curvature="0"
       style="stroke-width:0.26458332" />
    <path
       id="path152"
       d="m 4.1034935,284.43659 c 0.075122,-0.11824 0.1426498,-0.24101 0.2123871,-0.36245 0.099204,-0.178 0.1871345,-0.36178 0.2755927,-0.54524 0.091148,-0.19113 0.1858973,-0.38054 0.2760638,-0.57212 0.087651,-0.18399 0.1830991,-0.36411 0.2833143,-0.54153 0.077975,-0.13662 0.1602787,-0.27067 0.2511652,-0.39909 0.040494,-0.0593 0.085444,-0.11483 0.1404702,-0.16103 0.016597,-0.004 0.2719819,-0.25353 0.3907089,-0.15982 0.015764,0.0124 0.043613,0.0437 0.056389,0.0575 0.080826,0.10404 0.1423202,0.22139 0.2082568,0.33506 0.060276,0.11181 0.1177252,0.22452 0.1919663,0.32785 0.042145,0.0617 0.092627,0.11017 0.1601724,0.14174 0.071187,0.0183 0.1367784,-0.008 0.2022057,-0.0339 0.014131,-0.006 0.028572,-0.0117 0.042397,-0.0186 0.014814,-0.007 0.029029,-0.0158 0.043431,-0.024 0.015097,-0.009 0.060111,-0.0345 0.045063,-0.0259 -0.4637839,0.26508 -0.2740099,0.15999 -0.1727912,0.0918 0.055836,-0.0347 0.1100953,-0.072 0.1660866,-0.10647 0.083457,0.0541 0.2519575,-0.22981 0.3943671,-0.18585 0.077773,0.0327 0.1320149,0.10264 0.1845296,0.16574 0.1124546,0.1441 0.211549,0.29759 0.3087077,0.4522 0.093132,0.16539 0.1854001,0.33117 0.2843934,0.49316 0.066384,0.0992 0.1356897,0.19795 0.215501,0.28702 0.045016,0.0455 0.089736,0.0914 0.1334048,0.13816 0.032863,0.0304 0.059987,0.0639 0.084278,0.10138 0.018928,0.0309 0.026411,0.0665 0.039466,0.0999 0.010157,0.0275 0.016796,0.0561 0.020402,0.0852 0.00204,0.0177 0.00254,0.0356 0.00238,0.0534 -3.68e-5,0.007 4.71e-5,0.0138 1.444e-4,0.0207 0,0 -0.3149877,0.16022 -0.3149877,0.16022 v 0 c 1.894e-4,-0.007 3.704e-4,-0.0138 3.704e-4,-0.0208 -7.91e-5,-0.0168 5.556e-4,-0.0337 -3.44e-4,-0.0506 -0.00169,-0.0262 -0.0061,-0.0522 -0.015084,-0.077 -0.012332,-0.0313 -0.018928,-0.0645 -0.035566,-0.094 -0.023199,-0.0357 -0.049031,-0.0675 -0.080162,-0.0968 -0.043497,-0.0472 -0.087314,-0.0941 -0.1312969,-0.14085 -0.077795,-0.0932 -0.1472186,-0.19339 -0.2127771,-0.29542 -0.097015,-0.16289 -0.1873959,-0.32947 -0.280933,-0.49435 -0.097206,-0.15278 -0.1964658,-0.30458 -0.3120922,-0.4443 -0.048811,-0.0543 -0.1017381,-0.12489 -0.1774528,-0.13996 -0.1205399,0.015 -0.3293139,0.20298 0.2198365,-0.14304 -0.058632,0.0325 -0.1126117,0.0725 -0.1708185,0.10586 -0.1760072,0.11928 -0.3580468,0.23299 -0.553638,0.31675 -0.073173,0.0252 -0.1460971,0.044 -0.2206416,0.0118 -0.06951,-0.038 -0.1224848,-0.0916 -0.1661771,-0.15795 -0.072578,-0.10562 -0.1298681,-0.21949 -0.1901872,-0.33236 -0.064423,-0.11123 -0.1259822,-0.22585 -0.2086147,-0.32489 -0.013579,-0.0131 -0.034019,-0.0355 -0.052229,-0.0451 -0.017865,-0.009 -0.037074,-0.004 -0.054449,0.003 0.09387,-0.0551 0.1877393,-0.11013 0.281609,-0.16519 -0.062369,0.0375 -0.1081257,0.0958 -0.1512121,0.15335 -0.094212,0.12712 -0.1783529,0.26112 -0.257757,0.39794 -0.1014744,0.17646 -0.1974628,0.35606 -0.2855868,0.5396 -0.089581,0.19197 -0.1854483,0.38097 -0.2760231,0.57249 -0.088273,0.18347 -0.1756556,0.36738 -0.2726661,0.54645 -0.067153,0.11926 -0.1321676,0.23967 -0.2014921,0.35767 0,0 -0.3200834,0.14268 -0.3200834,0.14268 z"
       inkscape:connector-curvature="0"
       style="stroke-width:0.26458332" />
    <path
       id="path154"
       d="m 3.6431304,285.81591 c -0.094393,0.005 -0.1869106,0.0251 -0.2790923,0.0448 -0.1019876,0.0301 -0.2014717,0.0677 -0.298002,0.11223 -0.030689,0.0132 -0.061489,0.0256 -0.090841,0.0416 -0.00684,0.004 -0.027094,0.0154 -0.020336,0.0115 0.2892763,-0.1662 0.3727481,-0.22002 0.2666269,-0.15204 -0.02775,0.0157 -0.036371,0.0378 -0.040247,0.0679 0.00288,0.0811 0.046152,0.15615 0.082207,0.22675 0.076985,0.14929 0.1741252,0.28708 0.2680229,0.42602 0.081196,0.11489 0.1515293,0.23661 0.2229885,0.3576 0.056616,0.098 0.086259,0.17848 0.088862,0.29215 -0.00499,0.1111 -0.034867,0.21624 -0.080081,0.31705 -0.041811,0.0967 -0.107786,0.17799 -0.1761125,0.25683 -0.050304,0.0605 -0.1126652,0.10783 -0.1804451,0.14702 -0.1120216,0.0648 -0.2244455,0.12886 -0.3366682,0.19329 -0.079893,0.045 -0.1634747,0.0826 -0.2486232,0.1165 -0.074475,0.0318 -0.149393,0.0624 -0.224403,0.093 -0.07379,0.0322 -0.1469748,0.0664 -0.2179078,0.10455 -0.011787,0.006 -0.023563,0.0128 -0.035361,0.0192 -0.012405,0.007 -0.024965,0.0131 -0.037245,0.0201 -0.012263,0.007 -0.048587,0.0285 -0.036373,0.0215 0.5699955,-0.32746 0.078969,-0.042 -0.117491,0.0669 0.5989794,-0.37287 0.2921636,-0.16713 0.2193783,-0.1249 -0.1399031,0.0812 -0.2902484,0.17681 -0.4410942,0.24872 -0.063769,0.0372 -0.1329957,0.0629 -0.1999662,0.0933 -0.064309,0.0299 -0.1300264,0.057 -0.1959494,0.0831 -0.049996,0.0239 -0.102013,0.0434 -0.1541017,0.0623 -0.00643,0.003 -0.012731,0.007 -0.0193,0.01 -0.00653,0.003 -0.013309,0.005 -0.019964,0.008 -0.00692,0.002 -0.014121,0.003 -0.020758,0.006 -0.00599,0.003 -0.022529,0.0132 -0.016856,0.01 0.282568,-0.16105 0.3760165,-0.21978 0.2654481,-0.15068 -0.1064594,0.0608 -0.2128579,0.12168 -0.3193782,0.18236 -0.020328,0.0116 -0.041733,0.0201 -0.062273,0.0314 -0.00651,0.004 -0.025893,0.0144 -0.019469,0.0107 0.093648,-0.0539 0.1874289,-0.10765 0.2811433,-0.16148 -0.1224048,0.12658 -0.2740864,0.15443 -0.415418,0.2288 -0.1232168,0.0534 -0.30726356,0.17041 0.2165997,-0.1311 -0.56522118,0.49155 -0.1845948,0.13731 -0.33576584,0.18141 -0.0129384,0.004 -0.0242258,0.0119 -0.0376076,0.0156 -0.0176937,0.009 -0.0385253,0.003 -0.0568354,0.008 -0.009032,0.002 -0.0169796,0.008 -0.0254725,0.0116 -0.0290396,0.004 -0.0540024,0.0185 -0.0817148,0.0268 -0.0234169,0.008 -0.0481363,0.009 -0.0725875,0.0103 -0.00689,0.0125 -0.0222703,0.017 -0.0344486,0.0236 0.0978961,-0.0575 0.1957923,-0.11505 0.29368845,-0.17257 -0.0065,0.0121 -0.002983,0.007 -0.0102751,0.0164 0,0 -0.32712356,0.13266 -0.32712356,0.13266 v 0 c 0.009424,-0.005 0.004598,-0.002 0.0144616,-0.008 0.10166622,-0.0632 0.20320635,-0.12671 0.30499867,-0.18976 0.007953,-0.005 0.0220197,-0.0123 0.0311607,-0.0134 0.003748,-4.5e-4 0.007511,7.7e-4 0.011266,0.001 0.0227438,-0.003 0.0449324,-0.009 0.0662514,-0.0171 0.0267489,-0.011 0.0549474,-0.0165 0.0819627,-0.0268 0.02734,-0.007 0.056275,-0.007 0.082259,-0.0195 0.1194839,-0.0507 0.3160541,-0.0716 -0.23307159,0.1456 0.13319189,-0.0767 0.25064819,-0.15392 0.38651969,-0.214 0.1234949,-0.0545 0.333751,-0.18079 -0.1857564,0.11649 0.106317,-0.0616 0.2124589,-0.12347 0.318951,-0.18474 0.020008,-0.0115 0.041563,-0.0207 0.062096,-0.0312 0.00674,-0.003 0.026785,-0.0142 0.02024,-0.0104 -0.093648,0.0548 -0.1877193,0.10883 -0.281579,0.16325 0.1360015,-0.0801 0.2662375,-0.17159 0.4146655,-0.22609 0.05126,-0.0193 0.101996,-0.0399 0.1520683,-0.0621 0.065337,-0.0271 0.1310351,-0.0534 0.1950091,-0.0837 0.067422,-0.0288 0.133795,-0.0596 0.1984483,-0.0942 0.043105,-0.0222 0.026662,-0.0134 0.070367,-0.0375 0.011803,-0.007 0.046998,-0.0264 0.035366,-0.0196 -0.086342,0.0506 -0.1726023,0.10138 -0.2595035,0.15104 -0.012812,0.007 0.024792,-0.016 0.037188,-0.024 0.1120494,-0.0647 0.2240987,-0.12945 0.336148,-0.19417 0.013645,-0.008 0.054497,-0.031 0.040936,-0.0232 -0.085729,0.0497 -0.343197,0.19845 -0.2574405,0.14876 0.1474945,-0.0855 0.2936396,-0.17402 0.4447057,-0.25328 0.072349,-0.0362 0.1451097,-0.0719 0.2201421,-0.10223 0.074711,-0.0302 0.148963,-0.0616 0.2234388,-0.0924 0.084084,-0.0354 0.1666554,-0.074 0.2458735,-0.11948 -0.085493,0.0496 -0.1710409,0.0992 -0.2564804,0.1489 -0.012896,0.007 0.026043,-0.0146 0.038849,-0.0222 0.011856,-0.007 0.066504,-0.0414 0.077031,-0.0494 0.026875,-0.0205 0.04572,-0.0413 0.069291,-0.0653 0.06716,-0.0778 0.1385539,-0.15321 0.1809528,-0.24847 0.04809,-0.0997 0.077506,-0.1919 0.086364,-0.30315 0.00124,-0.11096 -0.027128,-0.18027 -0.079666,-0.27681 -0.068921,-0.12149 -0.1375405,-0.24326 -0.2170935,-0.35828 -0.094625,-0.14004 -0.1920709,-0.27888 -0.2734006,-0.42724 -0.041021,-0.0758 -0.086403,-0.15353 -0.098539,-0.24026 0.00138,-0.0354 0.00233,-0.0687 0.027746,-0.0961 0.1348941,-0.10291 0.2876545,-0.17957 0.4431882,-0.24523 0.097808,-0.0414 0.1971448,-0.0796 0.3004786,-0.105 0.094644,-0.0195 0.1895117,-0.0369 0.2856806,-0.047 0,0 -0.2809488,0.21028 -0.2809488,0.21028 z"
       inkscape:connector-curvature="0"
       style="stroke-width:0.26458332" />
    <path
       id="path156"
       d="m 8.1760273,287.58728 c -0.094478,0.0144 -0.187597,0.031 -0.2793441,0.0582 -0.1078357,0.0295 -0.2078525,0.0793 -0.3101531,0.12294 -0.014272,0.007 -0.028541,0.0133 -0.042812,0.0199 -0.013015,0.006 -0.026157,0.0109 -0.039045,0.0168 -0.011663,0.005 -0.045669,0.0233 -0.034589,0.0168 0.4760145,-0.27723 0.3266496,-0.18926 0.2257989,-0.12706 -0.022254,0.0156 -0.045602,0.0311 -0.064028,0.0512 -0.015989,0.0303 0.019682,0.0652 0.036815,0.0881 0.061924,0.0752 0.1310053,0.1442 0.1992234,0.21364 0.083572,0.077 0.1666221,0.15476 0.2525855,0.2291 0.066799,0.0589 0.1383779,0.11198 0.2071828,0.16848 0.041001,0.0368 0.08058,0.0749 0.1203346,0.11278 0.019992,0.0209 0.035104,0.0437 0.044211,0.0711 0.011613,0.0423 -0.00374,0.0586 -0.034415,0.0868 -0.2227665,0.15287 -0.4645322,0.27761 -0.7040076,0.40254 -0.2450126,0.13072 -0.4952857,0.25102 -0.7483977,0.36513 -0.2030328,0.0891 -0.4105995,0.16696 -0.6212409,0.23595 -0.1705687,0.0513 -0.3410059,0.10367 -0.5150596,0.14189 -0.1083286,0.0274 -0.2183075,0.0462 -0.3295536,0.056 -0.060275,-0.002 -0.1182958,0.0124 -0.1774338,0.0208 -0.04019,0.005 -0.080668,0.006 -0.1211147,0.007 -0.02844,-0.006 -0.046792,0.0131 -0.072862,0.0187 -0.022627,0.006 -0.041538,-0.0136 -0.051201,-0.032 -0.00884,-0.0121 -0.017415,-0.0226 -0.029254,-0.0321 -0.021598,-0.007 -0.041449,-0.0154 -0.064518,-0.0196 -0.047548,-0.0169 -0.097668,-0.0251 -0.1469191,-0.0358 -0.064171,-0.0115 -0.1274522,-0.0285 -0.1879526,-0.0528 -0.049469,-0.0189 -0.098881,-0.0402 -0.1412994,-0.0723 -0.02627,-0.0244 -0.053917,-0.0483 -0.074142,-0.0781 -0.014324,-0.0202 -0.020016,-0.043 -0.022675,-0.0671 -0.0049,-0.0254 0.0068,-0.0461 0.014163,-0.0692 0.056925,-0.0971 0.4150481,-0.26426 0.3321793,-0.14736 -0.035478,0.0486 -0.074562,0.0939 -0.1157808,0.13772 -0.073799,0.0808 -0.1549101,0.15457 -0.2389818,0.22442 -0.098273,0.088 -0.2077304,0.16167 -0.3194801,0.23115 -0.2254171,0.1406 -0.4585031,0.26825 -0.6928503,0.39315 -0.1464226,0.075 -0.2934941,0.14881 -0.4410724,0.22156 -0.1365861,0.0745 -0.2764956,0.1427 -0.4168084,0.20986 -0.1073524,0.0577 -0.2222677,0.0972 -0.3360392,0.1396 -0.071715,0.0233 -0.1430631,0.0476 -0.2146084,0.0713 -0.053125,0.0206 -0.1088922,0.0319 -0.1591193,0.0594 -0.01967,0.0131 -0.043638,0.0152 -0.065136,0.0231 -0.019077,0.007 -0.035832,0.0165 -0.055644,0.0223 -0.030266,0.005 -0.056452,0.0191 -0.084548,0.0311 -0.01147,0.005 -0.00475,0.003 -0.017961,0.004 -0.1086007,0.009 0.3645693,-0.23544 0.2840662,-0.16196 -0.016894,0.0154 -0.2143529,0.12563 -0.3194046,0.18429 -0.00201,10e-4 -0.00403,0.002 -0.00604,0.003 0,0 0.2747777,-0.22193 0.2747777,-0.22193 v 0 c 0.00187,-0.001 0.00375,-0.002 0.00562,-0.003 0.1125665,-0.0648 -0.2864515,0.16479 -0.2834705,0.16378 0.1229164,-0.0416 0.2204997,-0.13651 0.3392123,-0.18669 0.027859,-0.0111 0.055953,-0.0199 0.084682,-0.0285 0.039389,-0.0158 0.079866,-0.0287 0.1178196,-0.0479 0.052743,-0.0211 0.1077473,-0.0356 0.1609385,-0.0556 0.070317,-0.0237 0.1413702,-0.0452 0.2113264,-0.07 0.1127814,-0.0405 0.2240984,-0.0845 0.3307062,-0.13961 0.1397008,-0.0671 0.2782782,-0.13646 0.4151738,-0.20911 0.1474007,-0.0733 0.2948567,-0.14652 0.4408268,-0.22265 0.02391,-0.0127 0.047832,-0.0254 0.071728,-0.0382 0.023569,-0.0126 0.047218,-0.025 0.07067,-0.0378 0.2709778,-0.14781 -0.3439893,0.20683 -0.094547,0.0572 0.020378,-0.0122 0.040351,-0.0251 0.060527,-0.0377 0.1120839,-0.067 0.2223294,-0.13906 0.31989,-0.22624 0.083948,-0.0674 0.1643933,-0.13968 0.2376593,-0.2187 0.039066,-0.0429 0.080265,-0.0835 0.1122794,-0.13212 0.080787,-0.10344 -5.027e-4,-0.002 0.3372072,-0.15283 0.00175,-7.7e-4 -0.00417,-0.002 -0.00569,-6.6e-4 -0.00742,0.006 -0.00366,0.0207 -0.016251,0.0216 -0.0098,0.004 -0.025151,0.0349 -0.025008,0.0464 6.085e-4,0.0184 0.00198,0.0355 0.01301,0.0512 0.018367,0.026 0.042628,0.048 0.066822,0.0684 0.041722,0.0281 0.0879,0.0482 0.1349629,0.0656 0.060228,0.0216 0.1220721,0.0373 0.1850792,0.0485 0.049847,0.011 0.1001435,0.0199 0.1489726,0.035 0.026329,0.007 0.053464,0.0165 0.075433,0.0332 0.014116,0.0135 0.026178,0.0286 0.037192,0.0447 -6.085e-4,-6.8e-4 -0.00196,-10e-4 -0.00183,-0.002 2.296e-4,-0.002 0.0034,0.001 0.0051,7.4e-4 0.0072,-10e-4 0.010311,-0.0104 0.018852,-0.009 0.025601,-0.0107 0.050488,-0.0115 0.078077,-0.0104 0.039336,-10e-4 0.078677,-0.004 0.1175731,-0.01 0.058535,-0.009 0.1170157,-0.0159 0.1763689,-0.0174 0.108554,-0.0104 0.2156923,-0.0302 0.3217288,-0.0556 0.1723165,-0.0391 0.3415927,-0.0905 0.510385,-0.14253 0.2082667,-0.0691 0.4138083,-0.14617 0.6145104,-0.23513 0.2533083,-0.11424 0.5032417,-0.2358 0.7480114,-0.36745 0.036977,-0.0197 0.074063,-0.0392 0.1109321,-0.0591 0.1479767,-0.0799 0.1702388,-0.0973 -0.1196935,0.0742 -0.033729,0.02 0.067843,-0.0393 0.1008962,-0.0604 0.00935,-0.006 0.018553,-0.0121 0.02783,-0.0182 0.00148,-0.001 0.048455,-0.0319 0.049355,-0.0342 2.066e-4,-5.2e-4 -4.763e-4,-0.0135 -5.292e-4,-0.0143 -0.00473,-0.0224 -0.01765,-0.0399 -0.03341,-0.0564 -0.037384,-0.0386 -0.076472,-0.0752 -0.1157719,-0.11182 -0.068585,-0.0568 -0.1395658,-0.11075 -0.2057027,-0.17052 -0.085909,-0.0755 -0.1688745,-0.15429 -0.2528358,-0.2319 -0.070048,-0.0701 -0.1415018,-0.13918 -0.205527,-0.21492 -0.025466,-0.0324 -0.064166,-0.0757 -0.05765,-0.11995 0.0077,-0.034 0.033677,-0.0485 0.057954,-0.0711 0.1575638,-0.0984 0.3162178,-0.19685 0.4883491,-0.26752 0.1021043,-0.045 0.204661,-0.0895 0.3126309,-0.11898 0.094397,-0.0253 0.190423,-0.041 0.2867181,-0.0572 0,0 -0.2809322,0.2095 -0.2809322,0.2095 z"
       inkscape:connector-curvature="0"
       style="stroke-width:0.26458332" />
    <path
       id="path158"
       d="m 14.55868,280.67068 c -0.06871,0.0148 -0.135286,0.0362 -0.204545,0.0486 -0.06466,0.0166 -0.129288,0.0337 -0.190563,0.0604 -0.106153,0.0582 -0.280477,0.15511 0.202688,-0.11761 0.0108,-0.006 -0.02103,0.0131 -0.0313,0.0201 -0.01662,0.0112 -0.04476,0.0322 -0.0607,0.0439 -0.06705,0.0494 -0.120316,0.11387 -0.17659,0.17458 -0.05292,0.0575 -0.09137,0.12501 -0.119028,0.19767 -0.02976,0.0715 -0.03811,0.14799 -0.049,0.22384 -0.01041,0.0684 -0.02382,0.13692 -0.01495,0.2061 0.0095,0.0588 0.0285,0.1147 0.05272,0.16882 0.02221,0.0589 0.05716,0.11018 0.09661,0.1586 0.04395,0.0537 0.09717,0.0986 0.151523,0.14124 0.05999,0.0404 0.121227,0.0787 0.184897,0.11294 0.06816,0.0301 0.134414,0.064 0.202127,0.095 0.06357,0.0343 0.131932,0.0578 0.198697,0.0847 0.05869,0.0207 0.117614,0.0402 0.177245,0.058 0.06479,0.0212 0.130961,0.0138 0.197428,0.009 0.07839,-0.004 0.155953,-0.0208 0.23075,-0.0442 0.07735,-0.0172 0.147165,-0.0549 0.217856,-0.0891 0.01081,-0.006 0.02164,-0.0118 0.03244,-0.0177 0.0815,-0.0448 -0.01493,0.007 0.06576,-0.0342 0.01036,-0.005 0.04082,-0.0225 0.03073,-0.0167 -0.292144,0.16885 -0.354247,0.21033 -0.243776,0.13784 0.03758,-0.0267 0.07394,-0.0543 0.103942,-0.0894 0.02813,-0.0301 0.046,-0.0667 0.06121,-0.10454 0.02249,-0.054 0.03278,-0.11103 0.03919,-0.16879 0.0055,-0.0612 0.0057,-0.12266 0.0058,-0.18403 0.0013,-0.065 -0.01059,-0.12927 -0.01645,-0.19384 -0.0044,-0.0576 -0.01349,-0.1152 -0.02587,-0.17164 -0.01132,-0.0399 -0.02869,-0.0778 -0.04715,-0.11485 -0.02243,-0.0391 -0.05206,-0.074 -0.08214,-0.10761 -0.03845,-0.0381 -0.08013,-0.0753 -0.126037,-0.10419 -0.0557,-0.036 -0.117368,-0.0617 -0.180269,-0.082 -0.07149,-0.0246 -0.14339,-0.0479 -0.215272,-0.0714 -0.06684,-0.0209 -0.13409,-0.0367 -0.203692,-0.0447 -0.061,-0.0143 -0.122966,-0.0222 -0.185387,-0.0266 -0.06645,-0.004 -0.131507,0.0171 -0.19528,0.0332 0,0 0.273015,-0.20867 0.273015,-0.20867 v 0 c 0.06779,-0.0165 0.136174,-0.037 0.206644,-0.0275 0.0624,0.006 0.123989,0.0167 0.18555,0.0285 0.07064,0.0106 0.139347,0.0284 0.207333,0.0503 0.07153,0.0244 0.143764,0.0467 0.215089,0.0717 0.06499,0.0231 0.128835,0.0501 0.186177,0.089 0.04715,0.0327 0.0922,0.0696 0.131622,0.11132 0.03198,0.0361 0.06363,0.0734 0.08774,0.11522 0.01943,0.0396 0.03801,0.0801 0.05003,0.12252 0.01406,0.0576 0.02161,0.11752 0.02714,0.17649 0.0057,0.0655 0.01743,0.13067 0.01832,0.19645 -2.36e-4,0.0624 -4e-6,0.12479 -0.0041,0.18706 -0.0056,0.0596 -0.01299,0.11947 -0.03456,0.17571 -0.0124,0.0406 -0.02877,0.0822 -0.05565,0.1153 -0.02958,0.0382 -0.0609,0.0725 -0.102524,0.0984 -0.142877,0.11776 -0.31917,0.18851 -0.481372,0.27634 -0.07141,0.0345 -0.144027,0.0664 -0.221646,0.0844 -0.07709,0.0199 -0.155331,0.0354 -0.235139,0.0384 -0.06972,0.004 -0.139005,0.005 -0.205944,-0.0187 -0.05991,-0.0191 -0.119846,-0.038 -0.178646,-0.0604 -0.06727,-0.0264 -0.133942,-0.0544 -0.198589,-0.0869 -0.06838,-0.0313 -0.135768,-0.0647 -0.20379,-0.0968 -0.06482,-0.0356 -0.127621,-0.0751 -0.187863,-0.11807 -0.05613,-0.0446 -0.111164,-0.0913 -0.156389,-0.1473 -0.04096,-0.0508 -0.0777,-0.10461 -0.101192,-0.16602 -0.02666,-0.0566 -0.04621,-0.11561 -0.05706,-0.17738 -0.01322,-0.0724 -0.001,-0.14411 0.0112,-0.21612 0.01217,-0.0771 0.01569,-0.15632 0.0459,-0.2294 0.02411,-0.0771 0.06221,-0.14882 0.114261,-0.21097 0.05549,-0.0622 0.110363,-0.12561 0.173107,-0.18067 0.152583,-0.11144 0.313225,-0.21301 0.486425,-0.28987 0.06339,-0.0231 0.128391,-0.0417 0.194528,-0.0553 0.06892,-0.0147 0.136561,-0.0348 0.204749,-0.0525 0,0 -0.277974,0.21402 -0.277974,0.21402 z"
       inkscape:connector-curvature="0"
       style="stroke-width:0.26458332" />
    <path
       id="path160"
       d="m 1.1793415,293.90766 c 0.1346604,-0.0569 0.2738954,-0.10203 0.4126156,-0.14782 0.2133094,-0.0675 0.4277083,-0.13154 0.6435154,-0.19052 0.229776,-0.0708 0.4639442,-0.1236 0.6995787,-0.17036 0.2288119,-0.0444 0.4574217,-0.0894 0.6873322,-0.12777 0.2278419,-0.0401 0.45686,-0.0726 0.6849993,-0.11091 0.2259428,-0.0404 0.4508815,-0.0861 0.6758999,-0.13131 0.2413055,-0.0435 0.4776165,-0.10785 0.7126295,-0.17684 0.2178492,-0.0698 0.4329816,-0.14782 0.6499484,-0.22031 0.2035027,-0.0668 0.4034576,-0.14295 0.6010336,-0.22552 0.1994897,-0.0864 0.396766,-0.17763 0.5915043,-0.27422 0.1845726,-0.086 0.3707813,-0.16858 0.5485329,-0.2682 0.028781,-0.0166 0.1153443,-0.066 0.086344,-0.0498 -0.067189,0.0376 -0.1329862,0.0776 -0.2009135,0.11381 -0.030527,0.0163 0.059194,-0.0358 0.088628,-0.054 0.08554,-0.0528 0.1699194,-0.10736 0.2541196,-0.16226 0,0 0.3154921,-0.12302 0.3154921,-0.12302 v 0 c -0.2636158,0.17074 -0.5304208,0.33625 -0.8062384,0.48697 -0.1789181,0.0968 -0.36469,0.17945 -0.5485643,0.26628 -0.1951439,0.0958 -0.3926964,0.1867 -0.5925576,0.27228 -0.198111,0.0818 -0.3986184,0.15694 -0.6023602,0.22359 -0.2161535,0.073 -0.4311206,0.14978 -0.6489179,0.21781 -0.2358742,0.0684 -0.4733308,0.13084 -0.7151037,0.17515 -0.2252802,0.0453 -0.4504607,0.0914 -0.6769065,0.13068 -0.2281862,0.0379 -0.4572026,0.0705 -0.6849719,0.11092 -0.2295747,0.0388 -0.4579561,0.0839 -0.6864691,0.12842 -0.2350152,0.0473 -0.4682102,0.10176 -0.6976217,0.17189 -0.2165985,0.0603 -0.4319728,0.12499 -0.6457804,0.19454 -0.1420024,0.048 -0.2834925,0.0975 -0.42196564,0.15504 0,0 0.27619694,-0.21457 0.27619694,-0.21457 z"
       inkscape:connector-curvature="0"
       style="stroke-width:0.26458332" />
    <path
       id="path162"
       d="m 0.91952759,295.2039 c 0.0846901,-0.11001 0.18881791,-0.20284 0.29422751,-0.29237 0.218595,-0.18602 0.4721516,-0.31954 0.719656,-0.46217 0.164573,-0.0815 0.332578,-0.15652 0.5046291,-0.22074 0.1827051,-0.0665 0.3714088,-0.11496 0.5600128,-0.16145 0.2097196,-0.0431 0.420379,-0.081 0.6318303,-0.11449 0.2180314,-0.031 0.4366246,-0.0581 0.6559854,-0.0777 0.2235017,-0.023 0.4470159,-0.0464 0.6702189,-0.0722 0.2395199,-0.0289 0.477683,-0.0685 0.7142284,-0.11576 0.2629157,-0.0562 0.5208252,-0.13067 0.7765238,-0.21308 0.2486671,-0.0803 0.498403,-0.15725 0.7478546,-0.2351 0.2337731,-0.0711 0.4698828,-0.13382 0.702555,-0.20846 0.224832,-0.075 0.4431172,-0.16727 0.6579425,-0.26696 0.035204,-0.019 0.1396725,-0.0779 0.1056111,-0.057 -0.057494,0.0354 -0.1142884,0.0728 -0.1759781,0.10027 -0.039762,0.0177 0.073776,-0.0462 0.1096859,-0.0708 0.1183315,-0.081 0.226382,-0.17242 0.3339743,-0.26686 0.031762,-0.0297 0.063524,-0.0595 0.095286,-0.0892 0,0 0.3068918,-0.12592 0.3068918,-0.12592 v 0 c -0.032472,0.0303 -0.064943,0.0607 -0.097415,0.091 -0.098627,0.0886 -0.1165241,0.10781 -0.220245,0.18885 -0.2216211,0.17315 -0.4699592,0.30839 -0.719174,0.43732 -0.2156272,0.0987 -0.434645,0.19025 -0.6603703,0.2636 -0.2327537,0.0734 -0.4685731,0.1362 -0.7018997,0.20769 -0.2490136,0.0772 -0.4980511,0.15439 -0.7462504,0.23423 -0.2567995,0.0819 -0.51611,0.15537 -0.7800477,0.21098 -0.2378191,0.0468 -0.4770665,0.0867 -0.7178365,0.11503 -0.2236656,0.025 -0.4473758,0.0499 -0.6713464,0.0721 -0.2188321,0.0203 -0.4369797,0.0474 -0.6544132,0.0794 -0.2113386,0.0342 -0.4221412,0.072 -0.6313176,0.11773 -0.1882444,0.0476 -0.3766564,0.0967 -0.5585452,0.16542 -0.1709983,0.0666 -0.3396425,0.14015 -0.5022176,0.22541 0.071303,-0.0415 0.1423136,-0.0835 0.2139103,-0.12453 0.024998,-0.0143 -0.049725,0.0291 -0.074103,0.0445 -0.097366,0.0613 -0.1903168,0.12916 -0.2798725,0.20132 -0.1034362,0.0858 -0.206958,0.17454 -0.289021,0.28163 0,0 -0.32097021,0.13832 -0.32097021,0.13832 z"
       inkscape:connector-curvature="0"
       style="stroke-width:0.26458332" />
    <path
       id="path164"
       d="m 2.527103,296.48177 c 0.092875,-0.0847 0.1842983,-0.17092 0.2800412,-0.25243 0.2110526,-0.17911 0.4577038,-0.30646 0.6964606,-0.44362 0.1468858,-0.0812 0.299449,-0.15236 0.45525,-0.21465 0.1565463,-0.0575 0.3121255,-0.11755 0.4690861,-0.174 0.1620534,-0.055 0.3251002,-0.10739 0.4851181,-0.16811 0.1639649,-0.0599 0.3277086,-0.12035 0.4918866,-0.1797 0.1622912,-0.0618 0.3252324,-0.12198 0.4847693,-0.19067 0.1625732,-0.066 0.3181053,-0.14714 0.472803,-0.2295 0.02693,-0.0149 0.053992,-0.0296 0.08079,-0.0448 0.026609,-0.015 0.052932,-0.0306 0.079426,-0.0458 0.026829,-0.0154 0.1073703,-0.0617 0.080544,-0.0462 -0.4429792,0.255 -0.1376982,0.0774 -0.04644,0.0174 0.1588876,-0.10832 0.3143668,-0.22148 0.4677566,-0.33742 0.1459101,-0.10888 0.291556,-0.21813 0.4357558,-0.32927 0.1363647,-0.10835 0.2774649,-0.21034 0.4206621,-0.30939 0.1478119,-0.0975 0.2883337,-0.20488 0.4232579,-0.31941 0.019563,-0.0172 0.039126,-0.0345 0.058689,-0.0517 0,0 0.3156479,-0.12838 0.3156479,-0.12838 v 0 c -0.020127,0.0177 -0.040254,0.0353 -0.060381,0.0529 -0.1340676,0.11547 -0.2727114,0.22531 -0.4209749,0.32225 -0.1433695,0.099 -0.2860407,0.19911 -0.4222112,0.308 -0.1437942,0.11218 -0.2901516,0.22105 -0.4364178,0.32998 -0.1535162,0.11623 -0.308619,0.2303 -0.4673237,0.33941 -0.2475915,0.16759 -0.5124469,0.30774 -0.7726355,0.45454 -0.1554173,0.0823 -0.3123649,0.16183 -0.4755229,0.22791 -0.160298,0.0671 -0.3230025,0.12808 -0.4856951,0.18907 -0.1640641,0.0596 -0.3279552,0.11958 -0.4917098,0.17997 -0.1609553,0.059 -0.3238701,0.11254 -0.4859721,0.16831 -0.1565614,0.0567 -0.3121134,0.11607 -0.4678805,0.17485 -0.1545907,0.0644 -0.3067817,0.13542 -0.4526359,0.21791 0.07223,-0.0422 0.1441604,-0.0849 0.2166901,-0.1266 0.02432,-0.014 -0.048246,0.0286 -0.072055,0.0435 -0.090475,0.0564 -0.1780926,0.11711 -0.2601674,0.18525 -0.094445,0.0788 -0.1856137,0.16177 -0.2723433,0.24901 0,0 -0.3242684,0.13141 -0.3242684,0.13141 z"
       inkscape:connector-curvature="0"
       style="stroke-width:0.26458332" />
  </g>
</svg>
