<?xml version="1.0" encoding="UTF-8" standalone="no"?>
<!-- Created with Inkscape (http://www.inkscape.org/) -->

<svg
   xmlns:dc="http://purl.org/dc/elements/1.1/"
   xmlns:cc="http://creativecommons.org/ns#"
   xmlns:rdf="http://www.w3.org/1999/02/22-rdf-syntax-ns#"
   xmlns:svg="http://www.w3.org/2000/svg"
   xmlns="http://www.w3.org/2000/svg"
   xmlns:sodipodi="http://sodipodi.sourceforge.net/DTD/sodipodi-0.dtd"
   xmlns:inkscape="http://www.inkscape.org/namespaces/inkscape"
   width="64"
   height="64"
   viewBox="0 0 16.933333 16.933334"
   version="1.1"
   id="svg8"
   inkscape:version="0.92.1 r15371"
   sodipodi:docname="0_rabbit.svg"
   inkscape:export-filename="/home/physt/undev/repos/deep_learning/workshop/tasks/commonlearningdata/cartooncats/0_rabbit.png"
   inkscape:export-xdpi="96.000008"
   inkscape:export-ydpi="96.000008">
  <defs
     id="defs2" />
  <sodipodi:namedview
     id="base"
     pagecolor="#ffffff"
     bordercolor="#666666"
     borderopacity="1.0"
     inkscape:pageopacity="0.0"
     inkscape:pageshadow="2"
     inkscape:zoom="11.2"
     inkscape:cx="50.237003"
     inkscape:cy="32.732721"
     inkscape:document-units="mm"
     inkscape:current-layer="layer1"
     showgrid="false"
     inkscape:window-width="1920"
     inkscape:window-height="1016"
     inkscape:window-x="0"
     inkscape:window-y="27"
     inkscape:window-maximized="1"
     units="px" />
  <metadata
     id="metadata5">
    <rdf:RDF>
      <cc:Work
         rdf:about="">
        <dc:format>image/svg+xml</dc:format>
        <dc:type
           rdf:resource="http://purl.org/dc/dcmitype/StillImage" />
        <dc:title></dc:title>
      </cc:Work>
    </rdf:RDF>
  </metadata>
  <g
     inkscape:label="Layer 1"
     inkscape:groupmode="layer"
     id="layer1"
     transform="translate(0,-280.06665)">
    <path
       id="path502"
       d="m 7.0874219,285.91572 c 0.044642,-0.16352 0.06338,-0.33232 0.086098,-0.49959 0.034305,-0.23784 0.071956,-0.47522 0.1105341,-0.71245 0.03162,-0.19475 0.055295,-0.39017 0.068044,-0.58687 0.011894,-0.21601 -0.031108,-0.42842 -0.072127,-0.63947 -0.051125,-0.24092 -0.1193691,-0.47781 -0.1888713,-0.71428 -0.063987,-0.22431 -0.128323,-0.44845 -0.195519,-0.6719 -0.053868,-0.1912 -0.1209001,-0.37817 -0.2068191,-0.5582 -0.070669,-0.15084 -0.1682843,-0.28552 -0.2720399,-0.41645 -0.077628,-0.0973 -0.1635219,-0.18796 -0.2519668,-0.27614 -0.069647,-0.0582 -0.1347601,-0.12298 -0.2105719,-0.17385 -0.06613,-0.0489 -0.1397913,-0.0775 -0.2210999,-0.0922 -0.084547,-0.0169 -0.1664194,-4.4e-4 -0.2472616,0.0239 -0.052647,0.0151 -0.1043432,0.036 -0.1525035,0.0615 -0.014276,0.008 -0.05598,0.0322 -0.041753,0.0245 0.099035,-0.0533 0.1974695,-0.10771 0.2962042,-0.16154 -0.1411216,0.0931 -0.2540377,0.21762 -0.3651703,0.34114 -0.1694181,0.18752 -0.2960708,0.40412 -0.4076724,0.62674 -0.1148818,0.23002 -0.1667511,0.47896 -0.205442,0.72935 -0.038134,0.23296 -0.053038,0.46831 -0.061184,0.70374 -0.00874,0.2312 -0.00601,0.46234 0.00927,0.69319 0.018096,0.2278 0.050765,0.45389 0.09732,0.67785 0.047552,0.19774 0.094341,0.39567 0.1430713,0.59315 0.034573,0.1771 0.083524,0.35019 0.1398714,0.52187 0.055032,0.16196 0.1100049,0.32397 0.1724632,0.48345 0.051156,0.12618 0.1028224,0.2521 0.1538855,0.37833 0.033327,0.0995 0.077207,0.19478 0.124504,0.28868 0.035759,0.072 0.072544,0.14353 0.1194612,0.20943 0.038913,0.0532 0.086251,0.0995 0.1299681,0.1487 0.023422,0.031 0.049615,0.0605 0.069732,0.0937 0.00381,0.01 0.00618,0.0111 0.014509,0.0149 0,0 -0.3455161,0.20856 -0.3455161,0.20856 v 0 c -0.00874,-0.008 -0.017802,-0.0167 -0.021854,-0.0282 -0.017637,-0.0314 -0.042412,-0.0591 -0.063325,-0.0885 -0.044705,-0.0502 -0.091201,-0.099 -0.1310887,-0.15305 -0.047573,-0.0679 -0.084528,-0.14153 -0.1210087,-0.21542 -0.046175,-0.0955 -0.091899,-0.19127 -0.1237063,-0.29239 -0.050572,-0.12671 -0.1002798,-0.25369 -0.1515243,-0.38016 -0.061179,-0.16071 -0.1161056,-0.32351 -0.1712817,-0.4862 -0.056904,-0.17256 -0.1082587,-0.34616 -0.1406065,-0.52481 -0.047326,-0.19843 -0.094414,-0.39687 -0.1417103,-0.5953 -0.045944,-0.2258 -0.07908,-0.45341 -0.098318,-0.68284 -0.01608,-0.23184 -0.019931,-0.46398 -0.011441,-0.69625 0.00827,-0.23688 0.022365,-0.47373 0.060652,-0.70818 0.038381,-0.25334 0.088315,-0.50593 0.2015516,-0.73985 0.1097968,-0.22402 0.2333533,-0.44298 0.3992857,-0.63396 0.1089151,-0.1235 0.217178,-0.24962 0.3528598,-0.34736 0.1873509,-0.10671 0.3745472,-0.24217 0.589231,-0.30004 0.08603,-0.0198 0.1718187,-0.0305 0.2590978,-0.009 0.084225,0.0201 0.1611647,0.0544 0.2302252,0.1056 0.075383,0.055 0.1432949,0.11913 0.2126429,0.18084 0.087947,0.0904 0.1734277,0.18286 0.2508588,0.28183 0.1042531,0.134 0.2018329,0.27178 0.2735955,0.42509 0.086703,0.18202 0.1533508,0.37129 0.2061798,0.56494 0.066753,0.22376 0.1320177,0.44782 0.1945916,0.67269 0.068997,0.23766 0.138079,0.47536 0.1905488,0.71704 0.042762,0.21306 0.090148,0.42726 0.080573,0.64572 -0.011962,0.19831 -0.035425,0.39525 -0.06868,0.59134 -0.040735,0.23674 -0.079604,0.47374 -0.1119603,0.71169 -0.020856,0.16623 -0.039025,0.33289 -0.068584,0.49795 0,0 -0.3662289,0.16712 -0.3662289,0.16712 z"
       inkscape:connector-curvature="0"
       style="stroke-width:0.29971579" />
    <path
       id="path504"
       d="m 8.8942968,285.5272 c -0.016002,-0.13063 -0.025302,-0.26214 -0.036767,-0.39338 -0.019572,-0.17395 -0.017418,-0.34759 -0.00224,-0.52164 0.025167,-0.2473 0.07379,-0.49017 0.1279426,-0.73071 0.060213,-0.2644 0.119445,-0.52911 0.1891083,-0.79039 0.064154,-0.23479 0.1437751,-0.4629 0.2268146,-0.68931 0.074603,-0.19987 0.1604809,-0.39369 0.253334,-0.58279 0.081323,-0.17812 0.1817666,-0.34201 0.2864078,-0.50216 0.092869,-0.14074 0.1947689,-0.27307 0.2984439,-0.40304 0.09022,-0.11038 0.182326,-0.21876 0.283159,-0.31605 0.1673,-0.14008 0.344898,-0.26887 0.532059,-0.36908 0.07033,-0.0399 0.146127,-0.0502 0.223059,-0.055 0.09044,6.1e-4 0.177229,0.0247 0.26057,0.0641 0.110653,0.051 0.199813,0.14227 0.286879,0.23395 0.09474,0.10209 0.168307,0.22436 0.232451,0.35376 0.07827,0.16447 0.101886,0.35009 0.123803,0.53357 0.01992,0.21568 0.02791,0.43294 0.02573,0.64981 -0.003,0.19139 -0.01301,0.38246 -0.03563,0.57208 -0.02283,0.17415 -0.06269,0.34409 -0.09725,0.51534 -0.03148,0.17438 -0.08014,0.34327 -0.129148,0.51176 -0.0456,0.15462 -0.09102,0.30932 -0.135953,0.46422 -0.04391,0.16707 -0.09907,0.32934 -0.152826,0.4923 -0.05713,0.17196 -0.113003,0.34439 -0.164114,0.51892 -0.04587,0.16254 -0.09021,0.32564 -0.135562,0.48836 -0.03961,0.12968 -0.07425,0.26117 -0.108327,0.3929 -0.0224,0.0847 -0.04095,0.1707 -0.06238,0.25574 -0.01381,0.0508 -0.02065,0.10326 -0.02345,0.15628 0.0012,0.0368 -0.0048,0.072 -0.01261,0.10744 -0.0037,0.03 -0.01157,0.0579 -0.02159,0.0857 -0.01495,0.0246 -0.01913,0.0551 -0.03121,0.0811 -0.0048,0.0106 -0.0092,0.0206 -0.01374,0.0308 0,0 -0.293459,0.15372 -0.293459,0.15372 v 0 c 0.0049,-0.0106 0.0099,-0.0211 0.01471,-0.0316 0.0032,-0.007 0.0088,-0.0128 0.01202,-0.02 0.0084,-0.0189 0.0075,-0.0438 0.01932,-0.0614 0.01403,-0.0229 0.02219,-0.049 0.02544,-0.0765 0.0061,-0.0343 0.01849,-0.0666 0.01567,-0.10242 0.0031,-0.0556 0.0073,-0.11137 0.02192,-0.16486 0.02259,-0.0857 0.04319,-0.17189 0.06521,-0.25775 0.03677,-0.13182 0.06955,-0.26519 0.111416,-0.39508 0.04583,-0.16306 0.09093,-0.3264 0.13677,-0.48946 0.05044,-0.17516 0.106514,-0.34792 0.163638,-0.52026 0.05336,-0.16225 0.108732,-0.32352 0.151713,-0.49008 0.04505,-0.15516 0.09059,-0.31012 0.136803,-0.4648 0.04944,-0.16752 0.09926,-0.33525 0.131015,-0.50881 0.03386,-0.17053 0.07349,-0.33954 0.09788,-0.51242 0.02548,-0.18829 0.03574,-0.37863 0.03958,-0.56912 0.0038,-0.21519 -0.0029,-0.43093 -0.02355,-0.64488 -0.02141,-0.17861 -0.04505,-0.35914 -0.121207,-0.51918 -0.06373,-0.12516 -0.135,-0.24524 -0.228189,-0.34364 -0.08537,-0.0887 -0.173355,-0.17499 -0.282498,-0.22133 -0.08185,-0.0341 -0.166791,-0.055 -0.254256,-0.0497 -0.0748,0.007 -0.147396,0.0244 -0.214877,0.0649 -0.117821,0.0673 -0.06519,0.0387 0.186796,-0.13203 0.01434,-0.01 -0.02849,0.0198 -0.04259,0.03 -0.04756,0.0342 -0.09505,0.0689 -0.140319,0.10726 -0.103532,0.0938 -0.195403,0.20288 -0.286704,0.31227 -0.104963,0.12866 -0.20671,0.26138 -0.301377,0.40051 -0.104999,0.15918 -0.208161,0.32058 -0.2891896,0.49844 -0.09331,0.18832 -0.1807778,0.38063 -0.2560436,0.57975 -0.084305,0.22565 -0.1648946,0.45303 -0.2303229,0.68723 -0.071407,0.26047 -0.1305331,0.5251 -0.1907003,0.78934 -0.053368,0.23789 -0.1007206,0.47815 -0.1248183,0.72278 -0.014605,0.17136 -0.017009,0.34232 0.00194,0.5136 0.011689,0.12974 0.020276,0.26051 0.043731,0.38825 0,0 -0.2824595,0.17277 -0.2824595,0.17277 z"
       inkscape:connector-curvature="0"
       style="stroke-width:0.25993893" />
    <path
       id="path506"
       d="m 11.223444,286.81514 c -0.04532,-0.081 -0.09429,-0.15983 -0.141298,-0.23983 -0.04822,-0.0836 -0.100356,-0.16416 -0.157862,-0.24166 -0.05883,-0.0827 -0.134948,-0.14894 -0.211998,-0.21377 -0.08475,-0.0779 -0.183419,-0.13782 -0.281847,-0.19653 -0.12626,-0.0703 -0.263399,-0.11411 -0.403442,-0.14686 -0.1571694,-0.0367 -0.3180344,-0.0557 -0.4785643,-0.0704 -0.1597065,-0.006 -0.3195545,3.9e-4 -0.4792588,0.004 -0.1446081,-0.002 -0.2886017,0.006 -0.4327845,0.0158 -0.1350966,0.007 -0.2702531,0.0152 -0.4047567,0.0297 -0.1328058,0.0107 -0.2645323,0.0291 -0.3959887,0.0503 -0.1119129,0.0183 -0.2218319,0.0462 -0.3328349,0.0689 -0.1112631,0.0213 -0.2194499,0.0545 -0.329165,0.082 -0.1147823,0.0279 -0.2247876,0.0713 -0.3340092,0.11557 -0.1035627,0.0406 -0.2045766,0.0881 -0.3024029,0.14102 -0.062543,0.0345 -0.4440472,0.24527 0.2093032,-0.12044 0.014994,-0.008 -0.029362,0.0179 -0.043678,0.0274 -0.043241,0.0287 -0.083855,0.0611 -0.124568,0.0932 -0.1042982,0.0776 -0.19837,0.16655 -0.2895216,0.25883 -0.09011,0.0891 -0.1785242,0.17977 -0.2691241,0.26834 -0.083874,0.0805 -0.1568484,0.17127 -0.2278737,0.26304 -0.064446,0.0886 -0.1282393,0.17767 -0.1883916,0.26924 -0.048739,0.0786 -0.086115,0.16209 -0.114368,0.2499 -0.023254,0.0865 -0.049347,0.17206 -0.072802,0.25848 -0.022461,0.0845 -0.040298,0.17023 -0.052035,0.2569 -0.012094,0.104 -0.013801,0.20849 -0.00703,0.31284 0.00485,0.0985 0.022185,0.19519 0.050926,0.28934 0.033383,0.108 0.087895,0.20679 0.143173,0.30472 0.063823,0.11379 0.141384,0.21892 0.2153835,0.32613 0.077849,0.11342 0.1638358,0.22044 0.2549199,0.3234 0.089249,0.10248 0.1849398,0.19876 0.2814781,0.2943 0.1007615,0.0892 0.2028909,0.17695 0.3089134,0.25987 0.1017471,0.0857 0.2123784,0.15924 0.3206002,0.23615 0.1079762,0.0787 0.224105,0.14386 0.3414122,0.20732 0.1232464,0.0639 0.2510057,0.11861 0.3789082,0.17241 0.131508,0.057 0.2675774,0.10335 0.4062566,0.13932 0.1403268,0.0401 0.2831198,0.0655 0.4282286,0.0792 0.1482474,0.0149 0.2966265,0.006 0.4437695,-0.0141 0.157689,-0.0151 0.3090204,-0.0592 0.4590495,-0.1076 0.1526172,-0.0576 0.3046354,-0.11668 0.453387,-0.18372 0.024749,-0.0111 0.049645,-0.0219 0.074248,-0.0333 0.024516,-0.0114 0.049142,-0.0226 0.073101,-0.0351 0.024384,-0.0127 0.095641,-0.0544 0.071846,-0.0406 -0.4480245,0.25995 -0.1581443,0.0905 -0.064614,0.0299 0.1626891,-0.10457 0.3077671,-0.23228 0.4459461,-0.36678 0.133313,-0.12974 0.249413,-0.27388 0.356127,-0.42577 0.09921,-0.13741 0.17482,-0.28915 0.235848,-0.44673 0.06142,-0.15749 0.09849,-0.32226 0.124605,-0.48881 0.02088,-0.16002 0.03582,-0.32054 0.04381,-0.4817 0.0041,-0.1348 0.0091,-0.26992 0.0029,-0.40472 -0.002,-0.0974 -0.01985,-0.19184 -0.04529,-0.28542 -0.02789,-0.0976 -0.06714,-0.1915 -0.105266,-0.28543 -0.03438,-0.0773 -0.06704,-0.15561 -0.110577,-0.22829 -0.0372,-0.0603 -0.07817,-0.11834 -0.120152,-0.1754 -0.03876,-0.0501 -0.08266,-0.0957 -0.122354,-0.14503 -0.03522,-0.0385 -0.06798,-0.0782 -0.107248,-0.11271 -0.03153,-0.0303 -0.06667,-0.0558 -0.102613,-0.0805 0,0 0.293222,-0.18693 0.293222,-0.18693 v 0 c 0.03692,0.0259 0.07388,0.0517 0.106611,0.0829 0.04014,0.0361 0.0741,0.0775 0.109682,0.11805 0.03997,0.0498 0.0843,0.0957 0.122854,0.14661 0.04224,0.0582 0.08297,0.11773 0.121128,0.17871 0.04375,0.0747 0.07657,0.15484 0.111433,0.23392 0.03779,0.0954 0.0776,0.1903 0.107763,0.28849 0.02683,0.096 0.04535,0.19317 0.04703,0.29319 0.0066,0.1363 -0.0015,0.27293 -0.0046,0.40926 -0.0079,0.16243 -0.0225,0.32414 -0.04357,0.48542 -0.02462,0.16847 -0.06019,0.3356 -0.120971,0.49512 -0.0599,0.16 -0.133549,0.315 -0.23307,0.45463 -0.106654,0.15387 -0.221724,0.30066 -0.355504,0.4323 -0.137065,0.13584 -0.280288,0.26607 -0.442132,0.37229 -0.233906,0.15694 -0.4789271,0.30018 -0.7368882,0.41377 -0.1497994,0.0656 -0.3018591,0.12609 -0.4559318,0.18094 -0.1514509,0.0474 -0.3046063,0.0879 -0.4631714,0.10311 -0.1491684,0.0183 -0.2993231,0.0244 -0.449136,0.008 -0.1461331,-0.0159 -0.2898251,-0.0439 -0.431455,-0.0836 -0.1393491,-0.038 -0.2759802,-0.0857 -0.4083889,-0.14352 -0.1291351,-0.0539 -0.258087,-0.10873 -0.3815939,-0.17478 -0.1182312,-0.0645 -0.2355313,-0.13035 -0.3442134,-0.21041 -0.1086197,-0.0772 -0.2190213,-0.15196 -0.3213074,-0.23773 -0.1063305,-0.0845 -0.2099217,-0.1724 -0.3109801,-0.26315 -0.096908,-0.0962 -0.1924198,-0.19364 -0.2823004,-0.2965 -0.091607,-0.10423 -0.1782815,-0.21247 -0.2575255,-0.32649 -0.075086,-0.10774 -0.1517034,-0.21471 -0.2174486,-0.32855 -0.056703,-0.0998 -0.1135814,-0.20013 -0.1486136,-0.31013 -0.030413,-0.0964 -0.049571,-0.19545 -0.054428,-0.29664 -0.00734,-0.10614 -0.0068,-0.21233 0.00357,-0.31836 0.00947,-0.0883 0.027194,-0.17516 0.048754,-0.26125 0.025241,-0.0863 0.049807,-0.17277 0.072904,-0.25967 0.027847,-0.0907 0.062202,-0.17718 0.1113977,-0.25883 0.059461,-0.093 0.1248715,-0.18183 0.1883029,-0.27211 0.070448,-0.0934 0.143469,-0.18547 0.2265193,-0.26809 0.091937,-0.0876 0.1792762,-0.1798 0.2706796,-0.26797 0.090211,-0.0926 0.1811925,-0.18439 0.2854095,-0.26153 0.167966,-0.13759 0.3528872,-0.24902 0.548767,-0.34522 0.098918,-0.0506 0.1997766,-0.0976 0.3035824,-0.13738 0.1100063,-0.0434 0.220976,-0.0847 0.3363508,-0.11185 0.1098118,-0.0294 0.2193835,-0.0594 0.3310051,-0.0815 0.110627,-0.0242 0.221189,-0.0488 0.3330358,-0.0668 0.131409,-0.0204 0.2633279,-0.0362 0.3958098,-0.0478 0.1351719,-0.0128 0.270583,-0.0228 0.4062126,-0.0292 0.1440334,-0.009 0.288058,-0.0132 0.4323874,-0.0137 0.1599158,-0.003 0.3201143,-0.009 0.4799121,5.6e-4 0.161998,0.0155 0.3242972,0.0349 0.4826582,0.0734 0.142744,0.0355 0.282603,0.0815 0.411388,0.15401 0.09996,0.06 0.199619,0.12152 0.286213,0.20027 0.07923,0.0664 0.15563,0.13648 0.21697,0.22037 0.05756,0.0788 0.110951,0.16004 0.159086,0.24503 0.04727,0.08 0.09515,0.15981 0.145705,0.23782 0,0 -0.303571,0.17508 -0.303571,0.17508 z"
       inkscape:connector-curvature="0"
       style="stroke-width:0.26458332" />
    <path
       id="path508"
       d="m 7.216227,287.56597 c -0.028527,0.0857 -0.02938,0.17493 -0.01805,0.26352 0.015002,0.1066 0.059227,0.20182 0.1151649,0.29238 0.043068,0.0709 0.1014783,0.12796 0.1628407,0.18259 0.050202,0.0431 0.1041797,0.0738 0.170955,0.0774 0.00999,-2.4e-4 0.020042,4.2e-4 0.029968,-7.1e-4 0.016394,-0.002 0.040229,-0.008 0.054674,-0.0168 0.00886,-0.005 0.033384,-0.0234 0.024437,-0.0185 -0.2626281,0.14446 -0.353835,0.22259 -0.2458548,0.13308 0.060921,-0.0519 0.094396,-0.11954 0.1203653,-0.19355 0.021283,-0.0779 0.035796,-0.15771 0.046429,-0.23772 0.00986,-0.0642 0.00783,-0.12866 -0.00502,-0.19217 -0.00856,-0.0524 -0.027684,-0.0999 -0.052718,-0.14629 -0.025143,-0.0442 -0.061784,-0.0794 -0.099964,-0.11223 -0.04885,-0.0336 -0.1067702,-0.0465 -0.1651434,-0.0489 -0.1193739,-0.004 -0.2339099,0.0285 -0.3438477,0.0716 -0.2007204,0.11413 0.1074515,-0.0615 0.1603668,-0.0873 0.020241,-0.01 -0.035924,0.0272 -0.053886,0.0408 0,0 -0.3181358,0.1271 -0.3181358,0.1271 v 0 c 0.1471864,-0.11676 0.3121048,-0.20952 0.4810191,-0.29134 0.1149172,-0.0407 0.2341599,-0.0709 0.3572221,-0.0626 0.064345,0.008 0.1283407,0.024 0.1797511,0.0658 0.040691,0.036 0.07836,0.076 0.1060762,0.12312 0.026758,0.0491 0.047874,0.0996 0.057198,0.15512 0.015354,0.0668 0.017963,0.13555 0.00895,0.20358 -0.010393,0.082 -0.025419,0.16343 -0.044359,0.24383 -0.023307,0.0781 -0.052604,0.15118 -0.1115618,0.20969 -0.113829,0.11011 -0.028065,0.0307 -0.3482149,0.21806 -0.037011,0.0217 -0.081417,0.0219 -0.1226164,0.0178 -0.069999,-0.014 -0.1291675,-0.0469 -0.1816455,-0.0955 -0.063187,-0.0574 -0.1224875,-0.11809 -0.1662027,-0.1923 -0.057296,-0.095 -0.1037556,-0.19422 -0.1220343,-0.30473 -0.013875,-0.0915 -0.015237,-0.18367 0.00695,-0.27421 0,0 0.316897,-0.15052 0.316897,-0.15052 z"
       inkscape:connector-curvature="0"
       style="stroke-width:0.26458332" />
    <path
       id="path510"
       d="m 9.5721949,287.45071 c -0.072427,0.0428 -0.1259242,0.10472 -0.1735275,0.17269 -0.044396,0.0608 -0.078179,0.12827 -0.1107945,0.19587 -0.029035,0.0551 -0.04636,0.11377 -0.055103,0.17516 -0.010149,0.0677 0.00674,0.13303 0.031034,0.19571 0.033876,0.0637 0.083641,0.1136 0.143732,0.15219 0.069621,0.0421 0.1468204,0.0583 0.2264253,0.0679 0.096615,0.01 0.1935777,-0.004 0.28764,-0.0256 0.014766,-0.004 0.02973,-0.008 0.044297,-0.0134 0.021603,-0.008 0.061648,-0.0248 0.082126,-0.0349 0.01296,-0.006 0.05076,-0.0277 0.0382,-0.0205 -0.2807761,0.16015 -0.3405327,0.20664 -0.2280912,0.12315 0.061431,-0.047 0.092278,-0.11215 0.1158148,-0.18359 0.028904,-0.0894 0.019108,-0.1801 0.00353,-0.27081 -0.018965,-0.10394 -0.069374,-0.18031 -0.1441979,-0.25209 -0.088547,-0.0732 -0.193443,-0.11009 -0.3043515,-0.13252 -0.059581,-0.009 -0.1218354,-0.0159 -0.1819299,-0.006 -0.020966,0.003 -0.04193,0.008 -0.061657,0.0163 -0.022794,0.009 -0.086932,0.0457 -0.065057,0.0346 0.074605,-0.0381 0.1488366,-0.0769 0.2232546,-0.1153 -0.090735,0.10781 -0.049119,0.0515 -0.1250243,0.16883 0,0 -0.3077237,0.1356 -0.3077237,0.1356 v 0 c 0.074236,-0.12117 0.035014,-0.0618 0.1177116,-0.17802 0.1196356,-0.0746 0.237441,-0.1522 0.3589065,-0.22377 0.022124,-0.013 0.046544,-0.0222 0.071117,-0.0296 0.082037,-0.0249 0.1704691,-0.0124 0.2530011,0.001 0.1153809,0.027 0.2249319,0.0691 0.3156999,0.14785 0.0793,0.0769 0.133261,0.16059 0.155256,0.27062 0.01779,0.0946 0.03152,0.18985 0.0055,0.28448 -0.02074,0.076 -0.0477,0.14857 -0.107617,0.20307 -0.150551,0.12736 -0.3410129,0.2327 -0.5347411,0.28421 -0.097179,0.0183 -0.196288,0.0294 -0.2949826,0.0163 -0.08339,-0.0127 -0.1643428,-0.0337 -0.2360044,-0.0803 -0.064513,-0.0442 -0.1176567,-0.10082 -0.1549688,-0.17013 -0.026838,-0.0669 -0.047364,-0.13787 -0.039425,-0.21067 0.00595,-0.0647 0.02005,-0.12703 0.050107,-0.18528 0.031944,-0.0696 0.066824,-0.13884 0.1104398,-0.20187 0.046404,-0.069 0.093438,-0.13725 0.1646391,-0.18341 0,0 0.3267368,-0.12784 0.3267368,-0.12784 z"
       inkscape:connector-curvature="0"
       style="stroke-width:0.26458332" />
    <path
       id="path512"
       d="m 8.3350829,289.02003 c 0.03067,0.0803 0.074786,0.1548 0.1221542,0.22627 0.049625,0.064 0.1024869,0.1249 0.162729,0.17908 0.037396,0.037 0.073159,0.0759 0.1144818,0.1086 0.02399,0.0197 0.048742,0.0383 0.075528,0.054 0.014594,0.0174 0.027058,0.0283 0.049113,0.0324 0.005,-0.009 0.00151,-0.005 0.010761,-0.0119 -0.098385,0.0554 -0.1965714,0.1111 -0.2951547,0.16612 -0.00365,0.002 0.00681,-0.005 0.010314,-0.007 0.01764,-0.0115 0.00537,-0.001 0.022887,-0.0182 0.041883,-0.0382 0.065417,-0.0867 0.088311,-0.13745 0.028662,-0.0688 0.054868,-0.13866 0.076619,-0.20995 0.015798,-0.0585 0.030601,-0.11728 0.046445,-0.17579 0.010176,-0.0426 0.027056,-0.083 0.038458,-0.12526 -3.44e-4,-0.0186 0.018211,-0.0346 0.019719,-0.051 -0.020423,0.014 -0.045883,0.0147 -0.070663,0.0163 -0.06459,0.0189 -0.1321054,0.0208 -0.198865,0.0235 -0.1037791,0.003 -0.2076022,0.003 -0.3114112,0.004 -0.056493,-0.003 -0.1111054,0.009 -0.1647549,0.0253 0,0 0.277256,-0.21262 0.277256,-0.21262 v 0 c 0.055188,-0.0128 0.1110721,-0.0195 0.1678821,-0.0165 0.1033981,2.3e-4 0.2068701,4e-5 0.3101523,-0.005 0.06788,-0.005 0.1346427,-0.014 0.2013431,-0.0273 0.035514,-0.005 0.068608,-0.0155 0.09467,0.0163 0.018412,0.033 0.010411,0.0463 -0.00787,0.0761 -0.011861,0.0428 -0.026731,0.0842 -0.040631,0.12622 -0.016026,0.0589 -0.031236,0.11793 -0.046964,0.17692 -0.020891,0.0727 -0.047773,0.14338 -0.074903,0.21393 -0.021942,0.0518 -0.039378,0.10639 -0.080744,0.14644 -0.084071,0.10698 -0.2315353,0.25117 -0.3646538,0.20538 -0.021066,-0.009 -0.036457,-0.0247 -0.053302,-0.0399 -0.026832,-0.0181 -0.052923,-0.0372 -0.077246,-0.0585 -0.039607,-0.0351 -0.07576,-0.0738 -0.1129469,-0.1114 -0.060949,-0.0572 -0.114803,-0.12108 -0.1658781,-0.1872 -0.047842,-0.0736 -0.091623,-0.14992 -0.1285687,-0.22965 0,0 0.3057411,-0.17172 0.3057411,-0.17172 z"
       inkscape:connector-curvature="0"
       style="stroke-width:0.26458332" />
    <path
       id="path514"
       d="m 8.8642729,289.93221 c -0.056662,0.0692 -0.1112105,0.1402 -0.1640867,0.21237 -0.057476,0.0809 -0.1280673,0.14921 -0.2058643,0.21009 -0.079724,0.0605 -0.1657967,0.11137 -0.251156,0.16327 -0.1307854,0.0818 -0.2608784,0.16703 -0.4017145,0.23039 0,0 0.2754042,-0.21953 0.2754042,-0.21953 v 0 c 0.1696945,-0.0867 -0.4352128,0.25475 -0.1975191,0.11458 0.084968,-0.0535 0.1737477,-0.10081 0.2544757,-0.16099 0.07822,-0.0578 0.1502048,-0.12165 0.2086129,-0.20016 0.051284,-0.0724 0.106944,-0.14132 0.1591961,-0.21293 0,0 0.3226517,-0.13709 0.3226517,-0.13709 z"
       inkscape:connector-curvature="0"
       style="stroke-width:0.26458332" />
    <path
       id="path516"
       d="m 9.4739324,290.28723 c 0.036676,0.0335 0.077048,0.0625 0.1170046,0.0918 0,0 -0.2912425,0.18459 -0.2912425,0.18459 v 0 c -0.041723,-0.0308 -0.08415,-0.0607 -0.1243902,-0.0934 0,0 0.2986281,-0.183 0.2986281,-0.183 z"
       inkscape:connector-curvature="0"
       style="stroke-width:0.26458332" />
    <path
       id="path518"
       d="m 9.2138404,290.56319 c -0.073916,-0.0642 -0.1434063,-0.13317 -0.213055,-0.20189 -0.097436,-0.0884 -0.1808797,-0.18948 -0.2686531,-0.2869 -0.060556,-0.0691 -0.1205347,-0.13927 -0.189583,-0.2001 0,0 0.2974213,-0.18366 0.2974213,-0.18366 v 0 c 0.065832,0.0651 0.1251035,0.13628 0.1857669,0.20609 0.08659,0.0976 0.1708512,0.197 0.2681137,0.2845 0.069234,0.0669 0.1377844,0.13559 0.2154674,0.19277 0,0 -0.2954782,0.18919 -0.2954782,0.18919 z"
       inkscape:connector-curvature="0"
       style="stroke-width:0.26458332" />
    <path
       id="path520"
       d="m 10.677143,289.37616 c 0.162878,-0.0334 0.325773,-0.0661 0.489311,-0.096 0.117696,-0.0196 0.235272,-0.0398 0.352993,-0.0592 0,0 -0.273388,0.20526 -0.273388,0.20526 v 0 c -0.116346,0.0176 -0.232379,0.037 -0.348353,0.0568 -0.167153,0.0312 -0.333686,0.0653 -0.49906,0.10496 0,0 0.278497,-0.21179 0.278497,-0.21179 z"
       inkscape:connector-curvature="0"
       style="stroke-width:0.26458332" />
    <path
       id="path522"
       d="m 10.650205,289.08039 c 0.172582,-0.0874 0.353203,-0.15607 0.537093,-0.21524 0.164859,-0.0487 0.33247,-0.0872 0.499643,-0.12686 0,0 -0.266319,0.20297 -0.266319,0.20297 v 0 c -0.166405,0.038 -0.332857,0.0767 -0.495878,0.12772 -0.187528,0.0633 -0.372599,0.1353 -0.546407,0.23082 0,0 0.271868,-0.21941 0.271868,-0.21941 z"
       inkscape:connector-curvature="0"
       style="stroke-width:0.26458332" />
    <path
       id="path524"
       d="m 10.440604,289.92805 c 0.174909,0.0204 0.350237,0.037 0.525312,0.056 0.143064,0.0153 0.287167,0.0271 0.428591,0.0547 0.05625,0.011 0.119947,0.0281 0.175818,0.0425 0,0 -0.280324,0.19282 -0.280324,0.19282 v 0 c -0.195402,-0.0529 -0.395563,-0.079 -0.597102,-0.096 -0.178175,-0.0184 -0.356814,-0.0376 -0.535835,-0.044 0,0 0.28354,-0.206 0.28354,-0.206 z"
       inkscape:connector-curvature="0"
       style="stroke-width:0.26458332" />
    <path
       id="path526"
       d="m 6.5586704,289.5705 c -0.2096664,0.004 -0.4190465,0.015 -0.6285616,0.0234 -0.2541349,0.006 -0.5081114,0.0157 -0.7621103,0.0261 -0.2140876,0.002 -0.4269743,0.0264 -0.6380456,0.0609 -0.025204,0.005 -0.050407,0.009 -0.07561,0.014 0,0 0.2726611,-0.20535 0.2726611,-0.20535 v 0 c 0.024625,-0.004 0.049251,-0.008 0.073877,-0.0119 0.2108864,-0.0307 0.4229454,-0.0528 0.6362885,-0.0548 0.2535118,-0.01 0.5070157,-0.0177 0.7605977,-0.0252 0.2137735,-0.01 0.4277444,-0.0187 0.6411454,-0.0343 0,0 -0.2802419,0.20719 -0.2802419,0.20719 z"
       inkscape:connector-curvature="0"
       style="stroke-width:0.26458332" />
    <path
       id="path528"
       d="m 5.8526748,290.30308 c -0.1966989,0.01 -0.3932364,0.0231 -0.5896716,0.0374 -0.1427604,0.009 -0.2853121,0.0211 -0.4278741,0.0328 0,0 0.271925,-0.20073 0.271925,-0.20073 v 0 c 0.1416913,-0.01 0.2832079,-0.022 0.4249936,-0.0305 0.2004544,-0.0144 0.4010901,-0.0267 0.6011013,-0.0466 0,0 -0.2804742,0.20769 -0.2804742,0.20769 z"
       inkscape:connector-curvature="0"
       style="stroke-width:0.26458332" />
    <path
       id="path530"
       d="m 6.4085686,290.56894 c -0.1821553,0.0529 -0.3629726,0.11056 -0.5444167,0.16598 -0.1754055,0.0543 -0.3510224,0.11161 -0.5183135,0.18803 -0.1068006,0.0488 -0.1554517,0.0779 -0.2588905,0.13445 -0.038761,0.0225 -0.077521,0.0449 -0.116282,0.0674 0,0 0.2576978,-0.20855 0.2576978,-0.20855 v 0 c 0.038243,-0.0217 0.076486,-0.0434 0.1147289,-0.0651 0.1094666,-0.0586 0.1490427,-0.0824 0.2618862,-0.1326 0.1689825,-0.0751 0.3456273,-0.13183 0.5219287,-0.18675 0.1869855,-0.0577 0.3729598,-0.11829 0.5596355,-0.17689 0,0 -0.2779744,0.21403 -0.2779744,0.21403 z"
       inkscape:connector-curvature="0"
       style="stroke-width:0.26458332" />
    <path
       id="path532"
       d="m 9.78923,287.68614 c -0.035793,0.0825 -0.051414,0.172 -0.056317,0.26132 -0.00387,0.08 0.00758,0.15806 0.029189,0.23472 0.016306,0.0445 0.032671,0.0889 0.053291,0.13156 0.010419,0.0198 0.022619,0.0405 0.042073,0.0524 0,0 -0.2981325,0.18831 -0.2981325,0.18831 v 0 c -0.021005,-0.0184 -0.037672,-0.0423 -0.049481,-0.0675 -0.0211,-0.0448 -0.036548,-0.0917 -0.054007,-0.13814 -0.021947,-0.0803 -0.03515,-0.16183 -0.032116,-0.24551 0.00298,-0.0919 0.018346,-0.18315 0.046871,-0.27075 0,0 0.318629,-0.14642 0.318629,-0.14642 z"
       inkscape:connector-curvature="0"
       style="stroke-width:0.26458332" />
    <path
       id="path534"
       d="m 7.795675,287.93406 c 0.00625,0.0106 0.012502,0.0211 0.018751,0.0316 0,0 -0.3008003,0.17507 -0.3008003,0.17507 v 0 c -0.00675,-0.0102 -0.013504,-0.0205 -0.020254,-0.0308 0,0 0.3023039,-0.17595 0.3023039,-0.17595 z"
       inkscape:connector-curvature="0"
       style="stroke-width:0.26458332" />
    <path
       id="path536"
       d="m 7.6833377,287.9691 c -0.013131,-0.0494 -0.025127,-0.10368 -0.068324,-0.13523 -0.039382,-0.0202 -0.060104,-0.0124 -0.099107,-0.002 -0.1021805,0.0469 -0.2762753,0.15584 0.269137,-0.15602 0.00287,-0.002 -0.00515,0.004 -0.00734,0.007 -0.00752,0.008 -0.00661,0.0106 -0.010401,0.0224 -0.00262,0.0695 0.017081,0.13819 0.031847,0.20563 0.013703,0.0749 0.037059,0.14791 0.069141,0.2169 0.024119,0.0365 0.011456,0.0192 0.037797,0.052 0,0 -0.2996618,0.17855 -0.2996618,0.17855 v 0 c -0.027957,-0.037 -0.014105,-0.0174 -0.04128,-0.0591 -0.033122,-0.0713 -0.057932,-0.14669 -0.071355,-0.22427 -0.016063,-0.0713 -0.035264,-0.14228 -0.042147,-0.21528 0.00767,-0.15135 0.2024333,-0.21526 0.3443968,-0.23991 0.042119,-0.007 0.08164,0.004 0.1163542,0.0289 0.043763,0.0412 0.062527,0.0962 0.078975,0.15296 0,0 -0.3080332,0.16791 -0.3080332,0.16791 z"
       inkscape:connector-curvature="0"
       style="stroke-width:0.26458332" />
    <path
       id="path538"
       d="m 6.8977491,290.923 c -0.068027,-0.0277 -0.1409124,-0.0467 -0.21457,-0.0473 -0.069319,-0.003 -0.1289698,0.0178 -0.186549,0.0548 0.484957,-0.28328 0.2751741,-0.1739 0.1836005,-0.0874 -0.044628,0.0422 -0.083691,0.0888 -0.1227685,0.13601 -0.093488,0.11926 -0.1573668,0.25753 -0.2248998,0.39224 -0.086323,0.17914 -0.1527625,0.36701 -0.2163837,0.55515 -0.07095,0.21661 -0.1360162,0.4349 -0.1864905,0.65721 -0.048215,0.22333 -0.083795,0.4491 -0.1085823,0.67616 -0.022426,0.20565 -0.040666,0.41171 -0.060325,0.61763 -0.011221,0.14453 -0.029138,0.28838 -0.043042,0.43265 -0.00921,0.0745 -0.021646,0.14856 -0.029056,0.22331 -0.00461,0.0346 -0.00402,0.0688 7.937e-4,0.10319 0,0 -0.3097117,0.1635 -0.3097117,0.1635 v 0 c -0.00559,-0.037 -0.00905,-0.0736 -0.00423,-0.11102 0.00748,-0.0757 0.021362,-0.15052 0.033491,-0.22558 0.015285,-0.14534 0.037469,-0.28988 0.049095,-0.43563 0.021648,-0.2063 0.039355,-0.41301 0.062838,-0.61912 0.023823,-0.22835 0.060368,-0.45505 0.1072724,-0.67982 0.049855,-0.22309 0.113578,-0.44241 0.1841566,-0.65981 0.061931,-0.18883 0.1274241,-0.37714 0.2108107,-0.55774 0.066613,-0.13583 0.1290402,-0.27515 0.2188322,-0.39771 0.1672224,-0.2127 0.2419889,-0.25569 0.525187,-0.40183 0.063269,-0.0309 0.128152,-0.0453 0.1990045,-0.0392 0.076628,0.008 0.1515811,0.0276 0.2233126,0.0559 0,0 -0.291801,0.19446 -0.291801,0.19446 z"
       inkscape:connector-curvature="0"
       style="stroke-width:0.26458332" />
    <path
       id="path540"
       d="m 10.889451,290.47139 c 0.08505,-10e-4 0.169325,0.003 0.253259,0.0168 0.103813,0.0215 0.195831,0.0767 0.285288,0.13116 0.110314,0.0742 0.207874,0.16495 0.304155,0.25608 0.108947,0.0959 0.193718,0.21257 0.272245,0.33356 0.08414,0.12871 0.150008,0.26794 0.224623,0.40215 0.08035,0.15141 0.147884,0.30916 0.215539,0.46651 0.06594,0.15839 0.125199,0.31946 0.186148,0.47982 0.05005,0.14232 0.100919,0.28433 0.153428,0.42577 0.04738,0.11218 0.08718,0.22676 0.122371,0.34326 0.0328,0.0995 0.06499,0.1993 0.102625,0.29714 0.03603,0.0977 0.0933,0.18459 0.152224,0.26963 0.03848,0.0663 0.08377,0.12908 0.119351,0.19704 0.01552,0.0296 0.04228,0.0908 0.05623,0.12202 0,0 -0.299219,0.16839 -0.299219,0.16839 v 0 c -0.04746,-0.11003 -0.107922,-0.21241 -0.173989,-0.31232 -0.06051,-0.0872 -0.118707,-0.17678 -0.156494,-0.27665 -0.03821,-0.0986 -0.07027,-0.19941 -0.103176,-0.2999 -0.03442,-0.11608 -0.07286,-0.23053 -0.119367,-0.34244 -0.05208,-0.14167 -0.101309,-0.28432 -0.151464,-0.42667 -0.05931,-0.16048 -0.119609,-0.32061 -0.184496,-0.47892 -0.06698,-0.15632 -0.134872,-0.31263 -0.214971,-0.46278 -0.07471,-0.13328 -0.140479,-0.27171 -0.224561,-0.39951 -0.07746,-0.11873 -0.160933,-0.23259 -0.26871,-0.32621 -0.09497,-0.0894 -0.191244,-0.17891 -0.302081,-0.24868 -0.08711,-0.0519 -0.177238,-0.10306 -0.278895,-0.11899 -0.08422,-0.0109 -0.168715,-0.0138 -0.253602,-0.0102 0,0 0.28354,-0.206 0.28354,-0.206 z"
       inkscape:connector-curvature="0"
       style="stroke-width:0.26458332" />
    <path
       id="path542"
       d="m 13.485206,294.50433 c 0.03639,0.10529 0.07481,0.20987 0.11209,0.31489 0.03929,0.11303 0.08334,0.22367 0.13851,0.32987 0.0083,0.0148 0.01659,0.0297 0.02488,0.0445 0,0 -0.299704,0.17198 -0.299704,0.17198 v 0 c -0.008,-0.0152 -0.01607,-0.0305 -0.0241,-0.0457 -0.05569,-0.10767 -0.100666,-0.2196 -0.140576,-0.33407 -0.03738,-0.10447 -0.0731,-0.20949 -0.117237,-0.31139 0,0 0.306136,-0.17008 0.306137,-0.17008 z"
       inkscape:connector-curvature="0"
       style="stroke-width:0.26458332" />
    <path
       id="path544"
       d="m 13.191363,293.60496 c -0.0038,-0.10647 0.02816,-0.20654 0.0682,-0.30367 0.05606,-0.11606 0.152411,-0.2014 0.246931,-0.28554 0.186507,-0.15414 0.403556,-0.26564 0.612032,-0.38576 0.104247,-0.06 0.218432,-0.0991 0.335558,-0.1246 0.106344,-0.0215 0.213873,-0.0248 0.321663,-0.0175 0.102211,0.0104 0.197111,0.05 0.290036,0.0913 0.09546,0.0474 0.174515,0.11685 0.249728,0.19103 0.07389,0.074 0.138511,0.15496 0.199443,0.23966 0.05918,0.0883 0.09609,0.18839 0.129197,0.2887 0.03003,0.0997 0.04737,0.20308 0.06109,0.3062 0.01379,0.11896 0.02765,0.2377 0.02954,0.35753 -0.0016,0.13671 -0.02836,0.27005 -0.06331,0.40157 -0.03852,0.13866 -0.08363,0.27547 -0.135225,0.40979 -0.05461,0.15262 -0.138919,0.29117 -0.228689,0.42519 -0.08736,0.12476 -0.189064,0.23823 -0.298095,0.34421 -0.06018,0.0581 -0.121782,0.11481 -0.191325,0.16154 -0.12057,0.076 -0.08319,0.0528 -0.341054,0.19785 -0.0066,0.004 -0.01462,0.004 -0.02152,0.007 -0.0061,0.003 -0.02309,0.0137 -0.01726,0.0104 0.09552,-0.0547 0.383278,-0.21648 0.286346,-0.16436 -0.106572,0.0573 -0.210182,0.11994 -0.315272,0.17991 -0.03421,0.004 -0.06522,0.0165 -0.09855,0.0237 -0.03144,0.008 -0.06387,0.009 -0.09611,0.01 -0.0267,3.9e-4 -0.05339,1.3e-4 -0.08009,1.5e-4 -0.02786,6.9e-4 -0.04827,-0.0165 -0.05881,-0.0407 0.664689,-0.59688 0.163187,-0.15312 0.339598,-0.1912 0.0094,-0.002 0.01786,-0.007 0.02712,-0.01 0.05513,-0.0126 0.108675,-0.0321 0.160137,-0.0559 0.01458,-0.007 0.02943,-0.0136 0.04373,-0.0212 0.01561,-0.008 0.06135,-0.0352 0.04592,-0.0266 -0.08127,0.0455 -0.16094,0.0939 -0.243441,0.13717 -0.02019,0.0106 0.03767,-0.0257 0.05616,-0.039 0.01927,-0.0139 0.03831,-0.0281 0.05712,-0.0426 0.01904,-0.0147 0.03762,-0.03 0.05643,-0.045 0.112592,-0.0886 0.208716,-0.19378 0.294488,-0.30793 0.07955,-0.10781 0.130323,-0.23245 0.182609,-0.35483 0.06164,-0.13459 0.103729,-0.27568 0.13591,-0.4198 0.03684,-0.17185 0.06042,-0.3462 0.08232,-0.52048 0.02017,-0.15525 0.02832,-0.31124 0.01634,-0.46736 -0.0066,-0.1188 -0.03632,-0.23138 -0.08501,-0.33928 -0.04893,-0.0975 -0.127576,-0.16732 -0.21751,-0.22574 -0.112407,-0.0633 -0.237517,-0.0829 -0.363901,-0.0955 -0.146204,-0.013 -0.292763,-0.01 -0.438651,0.005 -0.154193,0.0158 -0.304691,0.0511 -0.449623,0.10561 -0.112563,0.0541 -0.202183,0.099 0.164034,-0.099 0.02249,-0.0122 -0.04359,0.0268 -0.0646,0.0413 -0.06639,0.046 -0.122813,0.0996 -0.179434,0.15675 -0.10658,0.11605 -0.184679,0.25214 -0.246498,0.39612 -0.03086,0.0856 -0.05493,0.17579 -0.05625,0.26747 -8.46e-4,0.0591 0.0063,0.094 0.01435,0.15287 0.03086,0.11224 0.01332,0.0576 0.05226,0.16404 0,0 -0.2972,0.16466 -0.2972,0.16466 v 0 c -0.03944,-0.11019 -0.02065,-0.0537 -0.05611,-0.16969 -0.0091,-0.0573 -0.01817,-0.10054 -0.01916,-0.15854 -0.0016,-0.0949 0.02184,-0.18866 0.05167,-0.27792 0.06085,-0.14737 0.137701,-0.28706 0.242678,-0.40816 0.04663,-0.0497 0.06302,-0.0698 0.114466,-0.11436 0.03465,-0.03 0.08521,-0.0687 0.124929,-0.092 0.341084,-0.20075 0.237982,-0.15324 0.424065,-0.23366 0.147501,-0.0503 0.299178,-0.0847 0.454689,-0.0985 0.1477,-0.0117 0.295874,-0.0154 0.443544,3e-5 0.130821,0.0152 0.260171,0.039 0.374854,0.10791 0.09419,0.0635 0.176495,0.13877 0.2275,0.2423 0.05146,0.11369 0.08228,0.22524 0.08908,0.35066 0.01231,0.15885 0.0038,0.31751 -0.01706,0.47543 -0.02186,0.1747 -0.04303,0.34981 -0.07922,0.52224 -0.02999,0.14564 -0.06939,0.28885 -0.130931,0.42471 -0.05287,0.1239 -0.102131,0.25094 -0.179366,0.36224 -0.01427,0.0194 -0.06662,0.0911 -0.08171,0.10932 -0.06275,0.0757 -0.136707,0.14207 -0.210248,0.20689 -0.18468,0.15151 -0.387353,0.28059 -0.605209,0.37994 -0.05439,0.0222 -0.110003,0.0413 -0.167377,0.0543 -0.01444,0.003 -0.02823,0.004 -0.04267,0.006 -0.0103,0.002 -0.0083,0.002 -0.01774,0.006 0.09614,-0.0619 0.192272,-0.12378 0.288409,-0.18567 -0.01592,-0.02 0.0054,-0.002 0.02842,-0.006 0.02623,1.6e-4 0.05247,1.3e-4 0.07867,-10e-4 0.03088,-0.002 0.06143,-0.007 0.0912,-0.0153 0.03164,-0.01 0.06501,-0.0143 0.09434,-0.0299 -0.67186,0.38779 -0.07689,0.0441 0.02806,-0.0154 0.01217,-0.007 0.04991,-0.0253 0.03783,-0.0182 -0.09285,0.0543 -0.185876,0.10838 -0.279085,0.16211 -0.0073,0.004 0.01431,-0.009 0.02147,-0.0136 0.07374,-0.043 0.138209,-0.0984 0.199729,-0.15737 0.111252,-0.10391 0.214981,-0.21555 0.304436,-0.33907 0.09069,-0.13055 0.174442,-0.26742 0.229665,-0.41716 0.05259,-0.13279 0.09747,-0.26867 0.136318,-0.40612 0.03459,-0.12884 0.06416,-0.2588 0.06694,-0.39296 -7.14e-4,-0.11838 -0.01625,-0.23528 -0.02979,-0.35273 -0.01327,-0.10112 -0.0295,-0.20257 -0.05764,-0.3007 -0.03205,-0.0969 -0.06719,-0.19408 -0.124759,-0.27925 -0.05919,-0.0835 -0.123335,-0.16231 -0.195947,-0.23466 -0.07307,-0.0709 -0.149659,-0.1372 -0.24303,-0.18044 -0.09077,-0.0389 -0.183638,-0.0751 -0.283369,-0.0811 -0.105521,-0.005 -0.21105,10e-4 -0.314415,0.0246 -0.115228,0.0295 -0.226909,0.0707 -0.329351,0.13206 0.52245,-0.30356 0.0797,-0.0533 -0.02634,0.04 -0.09291,0.0818 -0.19094,0.16168 -0.252353,0.27142 -0.04092,0.091 -0.0767,0.18693 -0.06911,0.28844 0,0 -0.311843,0.15889 -0.311843,0.15889 z"
       inkscape:connector-curvature="0"
       style="stroke-width:0.26458332" />
    <path
       id="path546"
       d="m 13.381088,294.25634 c -0.03629,0.13274 -0.06708,0.2666 -0.09039,0.40222 0,0 -0.308312,0.15018 -0.308312,0.15018 v 0 c 0.02564,-0.134 0.05452,-0.26714 0.08355,-0.40041 0,0 0.315146,-0.15199 0.315146,-0.15199 z"
       inkscape:connector-curvature="0"
       style="stroke-width:0.26458332" />
    <path
       id="path554"
       d="m 5.8275915,294.72049 c 0.015581,0.10755 0.029593,0.21532 0.047569,0.32249 0.018285,0.12272 0.045595,0.24386 0.071836,0.36507 0.027651,0.10669 0.051238,0.21441 0.079974,0.32081 0.02512,0.0977 0.055404,0.19403 0.084929,0.29048 0.022503,0.0661 0.040419,0.13349 0.059357,0.20063 0.014764,0.0501 0.033069,0.0991 0.051058,0.14816 0.014885,0.0383 0.030326,0.0764 0.047898,0.11361 0.017915,0.0306 0.029979,0.0636 0.043701,0.0961 0.011221,0.0316 0.025384,0.062 0.037382,0.0932 0.00927,0.0282 0.017732,0.0569 0.03101,0.0836 0.01306,0.0261 0.026276,0.0528 0.043726,0.0763 0.017743,0.0255 0.032244,0.0528 0.047923,0.0795 0.012943,0.0236 0.026668,0.0461 0.041118,0.0687 0.00787,0.0137 0.018471,0.0255 0.028896,0.0372 0,0 -0.3011813,0.18184 -0.3011813,0.18184 v 0 c -0.01152,-0.0133 -0.023905,-0.0262 -0.032266,-0.0418 -0.014158,-0.0231 -0.028078,-0.0459 -0.040744,-0.0698 -0.015521,-0.0257 -0.029404,-0.0523 -0.046763,-0.0768 -0.017701,-0.0256 -0.03281,-0.053 -0.046215,-0.081 -0.014126,-0.0276 -0.024548,-0.0571 -0.032769,-0.087 -0.011332,-0.0309 -0.026083,-0.0604 -0.036327,-0.0918 -0.014274,-0.0319 -0.024971,-0.0652 -0.042986,-0.0954 -0.017828,-0.0383 -0.034041,-0.0772 -0.048539,-0.11686 -0.018026,-0.0499 -0.036919,-0.0997 -0.05164,-0.15073 -0.019127,-0.067 -0.034307,-0.13521 -0.056967,-0.2013 -0.028788,-0.0971 -0.057841,-0.19428 -0.083438,-0.29232 -0.029448,-0.10687 -0.053091,-0.21519 -0.080873,-0.32249 -0.025826,-0.12188 -0.051676,-0.2439 -0.071473,-0.36691 -0.0185,-0.10681 -0.031491,-0.21464 -0.054442,-0.32061 0,0 0.3102456,-0.16297 0.3102456,-0.16297 z"
       inkscape:connector-curvature="0"
       style="stroke-width:0.26458332" />
    <path
       id="path572"
       d="m 10.133816,289.05006 c 0.05575,0.031 0.111463,0.0625 0.167707,0.0927 0.04383,0.0253 0.0925,0.0364 0.139685,0.0526 0.04038,0.009 0.07848,0.0244 0.11776,0.0369 0.03562,0.0173 0.04867,0.0497 0.0601,0.0849 0.01844,0.0447 0.02071,0.0919 0.01742,0.13949 -0.0051,0.0673 -0.02156,0.13302 -0.04218,0.19708 -0.0167,0.0524 -0.0399,0.10198 -0.06708,0.1496 -0.02092,0.0394 -0.04838,0.0745 -0.07745,0.10806 -0.02597,0.0356 -0.05945,0.0642 -0.093,0.0924 -0.113067,0.0816 -0.242539,0.14082 -0.3597649,0.21368 -0.035871,0.0223 0.3963209,-0.22901 0.2709079,-0.15609 -0.09856,-0.013 -0.252923,0.16466 -0.3812386,0.20978 0.00533,-0.0136 -0.030801,0.0141 -0.023418,0.01 0.097844,-0.0553 0.3901266,-0.22321 0.2925666,-0.16746 -0.11039,0.0631 -0.2079914,0.16798 -0.3341233,0.18399 -0.00267,0.003 -0.011269,0.01 -0.00803,0.008 0.098165,-0.0555 0.3896873,-0.22706 0.2930983,-0.16888 -0.10259,0.0618 -0.2067682,0.12092 -0.3111032,0.17972 -0.097952,0.0552 0.1942706,-0.11326 0.2919532,-0.16893 0.0072,-0.004 -0.01295,0.0103 -0.01967,0.0152 -0.2013084,0.11409 -0.6261374,0.35734 -0.02678,0.0151 0.0058,-0.003 -0.01041,0.008 -0.01616,0.0118 -0.103067,0.0601 -0.2068987,0.11889 -0.3103481,0.17833 0.3815851,-0.37538 0.3736111,-0.23242 0.2777376,-0.15672 0,0 -0.3281299,0.12918 -0.3281299,0.12918 v 0 c 0.107596,-0.0657 0.2304753,-0.10921 0.325434,-0.19331 -0.097866,0.0565 -0.1960626,0.11247 -0.2935991,0.16956 -0.00291,0.002 0.00672,-10e-4 0.00954,-0.003 0.00288,-0.002 0.00409,-0.006 0.00705,-0.008 0.103352,-0.0605 0.2066028,-0.12127 0.3115175,-0.17903 0.02717,-0.015 -0.400634,0.23062 -0.2845274,0.16397 0.00692,-0.004 0.013909,-0.008 0.02082,-0.0121 0.1032986,-0.061 0.2143641,-0.11044 0.3098234,-0.18308 0.08956,-0.0682 -0.3891857,0.22626 -0.2919955,0.16951 0.103228,-0.0603 0.2061501,-0.12108 0.3101095,-0.18009 0.0036,-0.002 0.008,-0.002 0.01203,-0.003 0.01258,-0.007 0.02074,-0.0113 0.01824,-0.01 -0.09718,0.0562 -0.390937,0.22086 -0.2917035,0.16836 0.2042635,-0.10808 0.2093575,-0.14208 0.3362795,-0.18731 0.117008,-0.0559 0.291417,-0.15868 -0.2233971,0.13449 0.1977991,-0.11889 0.6379151,-0.36665 0.044652,-0.0244 -0.046018,0.0265 0.085024,-0.0593 0.046172,-0.0304 0.03575,-0.0223 0.06882,-0.0522 0.09637,-0.0838 0.02638,-0.0348 0.06018,-0.0645 0.0798,-0.10399 0.02934,-0.045 0.05434,-0.0925 0.07148,-0.14358 0.02321,-0.0605 0.03962,-0.12413 0.04531,-0.18875 0.0044,-0.043 0.0054,-0.0851 -0.0122,-0.12574 -0.0094,-0.0259 -0.01334,-0.0491 -0.0434,-0.0578 -0.03831,-0.0141 -0.07754,-0.0248 -0.11645,-0.0371 -0.04956,-0.015 -0.09755,-0.0332 -0.142836,-0.0587 -0.056401,-0.0323 -0.1135646,-0.063 -0.1704593,-0.0943 0,0 0.2954783,-0.18919 0.2954783,-0.18919 z"
       inkscape:connector-curvature="0"
       style="stroke-width:0.26458332" />
    <path
       id="path574"
       d="m 7.7493708,289.67566 c -0.065695,-0.0205 -0.130707,-0.0416 -0.1988256,-0.0527 -0.059731,-0.005 -0.1242073,-0.002 -0.1823561,0.0136 -0.00788,0.002 -0.015962,0.004 -0.023651,0.007 -0.022429,0.008 -0.021603,0.011 -0.042318,0.023 -0.00718,0.004 -0.029174,0.0158 -0.02199,0.0117 0.3114556,-0.17998 0.3660867,-0.21411 0.2546247,-0.14518 -0.043059,0.029 -0.082681,0.0625 -0.1169734,0.10143 -0.028734,0.0331 -0.053878,0.0689 -0.07751,0.10573 -0.020108,0.0366 -0.033663,0.0759 -0.041923,0.11677 -0.00813,0.0502 -0.00822,0.10128 -0.0086,0.15203 -0.00259,0.0497 0.00333,0.0987 0.015227,0.14682 0.00965,0.043 0.02871,0.0826 0.047002,0.12238 0.019378,0.0374 0.041195,0.0735 0.063297,0.10933 0.022175,0.027 0.046421,0.0523 0.076781,0.0701 0.033362,0.0208 0.069024,0.0379 0.1069557,0.0483 0.050329,0.012 0.097893,0.03 0.1502823,0.0276 0.044448,4.5e-4 0.085636,-0.015 0.126691,-0.0299 0,0 -0.2755847,0.21383 -0.2755847,0.21383 v 0 c -0.043907,0.0127 -0.088312,0.0233 -0.1344856,0.0207 -0.053605,-0.005 -0.1046422,-0.0208 -0.1564302,-0.0351 -0.039839,-0.014 -0.078007,-0.0326 -0.1132464,-0.0559 -0.032165,-0.0235 -0.060922,-0.0509 -0.08444,-0.0832 -0.022836,-0.037 -0.044445,-0.0749 -0.064917,-0.11331 -0.019172,-0.0416 -0.039856,-0.0826 -0.049591,-0.12781 -0.014235,-0.0505 -0.021728,-0.10275 -0.019222,-0.15524 2.911e-4,-0.0523 -3.439e-4,-0.10476 0.00538,-0.1568 0.00633,-0.0445 0.018299,-0.0864 0.036379,-0.12747 0.020079,-0.0404 0.04798,-0.0768 0.075914,-0.11206 0.033212,-0.0418 0.069782,-0.0793 0.1134099,-0.11061 0.1214197,-0.0887 0.021863,-0.0172 0.3439329,-0.20161 0.029159,-0.0167 0.06064,-0.0279 0.093802,-0.0333 0.062627,-0.008 0.1266664,-0.0147 0.1891721,-0.002 0.068717,0.014 0.1346618,0.0373 0.2026682,0.0541 0,0 -0.2894502,0.19823 -0.2894502,0.19823 z"
       inkscape:connector-curvature="0"
       style="stroke-width:0.26458332" />
  </g>
</svg>
