<?xml version="1.0" encoding="UTF-8" standalone="no"?>
<!-- Created with Inkscape (http://www.inkscape.org/) -->

<svg
   xmlns:dc="http://purl.org/dc/elements/1.1/"
   xmlns:cc="http://creativecommons.org/ns#"
   xmlns:rdf="http://www.w3.org/1999/02/22-rdf-syntax-ns#"
   xmlns:svg="http://www.w3.org/2000/svg"
   xmlns="http://www.w3.org/2000/svg"
   xmlns:sodipodi="http://sodipodi.sourceforge.net/DTD/sodipodi-0.dtd"
   xmlns:inkscape="http://www.inkscape.org/namespaces/inkscape"
   width="64"
   height="64"
   viewBox="0 0 16.933333 16.933334"
   version="1.1"
   id="svg8"
   inkscape:version="0.92.1 r15371"
   sodipodi:docname="0_snow.svg"
   inkscape:export-filename="/home/physt/undev/repos/deep_learning/workshop/tasks/commonlearningdata/cartooncats/0_snow.png"
   inkscape:export-xdpi="96.000008"
   inkscape:export-ydpi="96.000008">
  <defs
     id="defs2" />
  <sodipodi:namedview
     id="base"
     pagecolor="#ffffff"
     bordercolor="#666666"
     borderopacity="1.0"
     inkscape:pageopacity="0.0"
     inkscape:pageshadow="2"
     inkscape:zoom="11.2"
     inkscape:cx="34.299503"
     inkscape:cy="29.986148"
     inkscape:document-units="mm"
     inkscape:current-layer="layer1"
     showgrid="false"
     inkscape:window-width="1920"
     inkscape:window-height="1016"
     inkscape:window-x="0"
     inkscape:window-y="27"
     inkscape:window-maximized="1"
     units="px" />
  <metadata
     id="metadata5">
    <rdf:RDF>
      <cc:Work
         rdf:about="">
        <dc:format>image/svg+xml</dc:format>
        <dc:type
           rdf:resource="http://purl.org/dc/dcmitype/StillImage" />
        <dc:title />
      </cc:Work>
    </rdf:RDF>
  </metadata>
  <g
     inkscape:label="Layer 1"
     inkscape:groupmode="layer"
     id="layer1"
     transform="translate(0,-280.06665)">
    <path
       id="path1551"
       d="m 7.9809006,288.80686 c 0.082951,-0.0591 0.1505307,-0.1351 0.2166667,-0.21173 0.079151,-0.0924 0.1450774,-0.19449 0.2040393,-0.30057 0.056699,-0.10478 0.091952,-0.21728 0.1197247,-0.33247 0.024934,-0.10461 0.034606,-0.2117 0.039233,-0.31886 0.00273,-0.0791 -0.011665,-0.15339 -0.047963,-0.22345 -0.037505,-0.0605 -0.091767,-0.10987 -0.1522105,-0.14672 -0.076913,-0.0437 -0.1624069,-0.0664 -0.249037,-0.0806 -0.08716,-0.0146 -0.1736397,-0.01 -0.2582754,0.0143 -0.1109742,0.044 -0.3078244,0.15567 0.1843561,-0.11279 0.013208,-0.007 -0.025008,0.0168 -0.036846,0.0261 -0.033121,0.026 -0.039461,0.0348 -0.068637,0.0654 -0.076937,0.0844 -0.129872,0.1863 -0.1744556,0.29051 -0.044585,0.10286 -0.07206,0.21177 -0.093548,0.32146 -0.015319,0.085 -0.018878,0.17138 -0.020243,0.25754 0.00164,0.0557 0.01157,0.11031 0.030436,0.16267 0.024556,0.0489 0.05392,0.0959 0.090789,0.13644 0.05236,0.0494 0.1183534,0.0744 0.184934,0.0977 0.073833,0.0252 0.1517806,0.0311 0.2291117,0.0347 0.070565,0.006 0.1401887,-0.006 0.2100067,-0.0144 0.048267,-0.007 0.099324,-0.0147 0.1450504,-0.0326 0.0057,-0.002 0.011284,-0.005 0.017087,-0.007 0.035992,-0.0134 8.63e-5,0.004 0.030211,-0.0152 0.00461,-0.003 0.019182,-0.0103 0.014467,-0.008 -0.2972297,0.17173 -0.3774836,0.22974 -0.2769854,0.15777 0.013954,-0.0128 0.028862,-0.0261 0.039229,-0.042 0.015195,-0.0298 0.023347,-0.0627 0.031637,-0.095 0.016317,-0.0464 0.021725,-0.0951 0.028895,-0.14348 0.010456,-0.0515 0.017634,-0.10348 0.021503,-0.15588 0.00542,-0.0472 0.0014,-0.0933 -0.0063,-0.13989 -0.00714,-0.0543 -0.021228,-0.10725 -0.029466,-0.16141 -0.00713,-0.0602 -0.00771,-0.12078 -0.00801,-0.18127 -4.05e-5,-0.0688 7.09e-5,-0.1377 -1.204e-4,-0.20655 0.00108,-0.0522 -0.00623,-0.10431 -0.021971,-0.154 -0.010213,-0.04 -0.021619,-0.0798 -0.038157,-0.11774 -0.020106,-0.0285 -0.044003,-0.054 -0.066888,-0.0804 -0.024082,-0.0247 -0.045062,-0.0521 -0.068302,-0.0774 -0.020958,-0.0159 -0.040891,-0.0335 -0.062349,-0.049 -0.014684,-0.0123 -0.028225,-0.0179 -0.046719,-0.0194 -0.1168974,-0.003 -0.2792114,0.14249 0.2926268,-0.16868 0.00159,-8.7e-4 -8.732e-4,0.004 -7.938e-4,0.005 1.101e-4,0.002 0.00423,0.0141 0.00426,0.0142 0.00421,0.0187 0.010626,0.0351 0.019614,0.0519 0.00945,0.0203 0.014406,0.0417 0.016552,0.0639 0.00522,0.0171 0.013766,0.0332 0.018849,0.0505 0.00408,0.0146 0.00552,0.0296 0.00629,0.0447 -0.0014,0.0145 0.00507,0.0317 -0.00257,0.0441 -0.05788,0.11038 -0.3545059,0.285 -0.3289001,0.13731 0.010837,-0.0264 0.013772,-0.0539 0.015999,-0.0821 0.00304,-0.0661 0.00196,-0.13227 0.00596,-0.19835 0.011914,-0.0985 0.015663,-0.1967 0.00652,-0.29549 -0.00956,-0.10361 -0.024797,-0.20645 -0.038165,-0.30957 -0.012049,-0.0928 -0.015311,-0.18636 -0.017238,-0.27978 -0.007,-0.0938 -0.014917,-0.18753 -0.019727,-0.2815 -0.00948,-0.092 -0.018598,-0.18394 -0.023469,-0.27633 -0.00406,-0.0809 -0.00473,-0.16197 -0.00565,-0.24297 7.75e-5,-0.0583 -4.498e-4,-0.11652 -8.466e-4,-0.17478 5.34e-5,-0.0307 -7.938e-4,-0.0614 -7.144e-4,-0.0921 0.00241,-0.008 -0.00282,-0.0185 -3.969e-4,-0.0266 5.027e-4,-0.002 -2.91e-4,0.004 -0.00175,0.005 -7.409e-4,2e-4 -0.00148,4e-4 -0.00225,6.1e-4 0.101237,-0.0537 0.2022486,-0.10789 0.3037112,-0.16119 0.0019,-10e-4 -0.00359,0.003 -0.00492,0.004 -0.00233,0.003 -0.00153,0.0134 -0.0041,0.0106 -0.00301,-0.003 -0.00348,-0.008 -0.00522,-0.0122 -0.00114,-0.004 -0.00289,-0.007 -0.00341,-0.0109 -4.233e-4,-0.003 0.00625,-0.0102 0.00354,-0.009 -0.4516988,0.25537 -0.369312,0.23151 -0.2750494,0.15347 0.021654,-0.0179 0.037418,-0.0415 0.054302,-0.0639 0.026527,-0.0362 0.053624,-0.072 0.080467,-0.10798 0.03249,-0.045 0.062407,-0.0917 0.095395,-0.13633 0.041714,-0.0575 0.086802,-0.1123 0.1303936,-0.16831 0.051336,-0.0627 0.089551,-0.13429 0.1348277,-0.2012 0.052377,-0.0719 0.1002434,-0.14691 0.1512982,-0.2197 0.058015,-0.0799 0.1166694,-0.15911 0.1720297,-0.24089 0.053253,-0.0795 0.1072547,-0.15846 0.1598531,-0.23839 0.037185,-0.0622 0.083241,-0.11765 0.1308568,-0.17195 0.025704,-0.0293 0.046343,-0.0624 0.069308,-0.0937 0.00914,-0.018 0.018383,-0.036 0.02859,-0.0535 0.1619729,-0.48164 0.360263,-0.22558 0.3121351,-0.11322 -0.00756,0.0176 -0.022236,0.0337 -0.032152,0.0501 -0.055286,0.079 -0.1071875,0.1602 -0.1571384,0.24272 -0.073419,0.13074 -0.1573887,0.25485 -0.2386028,0.38071 -0.088141,0.14315 -0.1863223,0.27969 -0.2867269,0.41439 -0.098794,0.13766 -0.2012892,0.27257 -0.3015805,0.40914 -0.067553,0.0887 -0.1363332,0.17653 -0.2097072,0.26051 -0.1133448,0.13794 -0.2244622,0.16673 -0.4066532,0.26912 -0.036259,0.008 -0.051814,-0.0272 -0.058416,-0.0566 -0.00225,-0.0428 -0.00946,-0.0847 -0.018555,-0.12651 -0.011946,-0.061 -0.040261,-0.11661 -0.069083,-0.17109 -0.038801,-0.0682 -0.086917,-0.13096 -0.1311851,-0.1958 -0.054962,-0.087 -0.1113269,-0.17314 -0.1643854,-0.26134 -0.04983,-0.0901 -0.1050189,-0.17737 -0.150337,-0.26991 -0.03965,-0.0861 -0.092771,-0.1649 -0.1380792,-0.2479 -0.040524,-0.0718 -0.075491,-0.14642 -0.1112115,-0.22063 -0.028484,-0.0536 -0.054197,-0.10842 -0.078425,-0.16405 -0.017529,-0.0357 -0.025249,-0.075 -0.041242,-0.11113 -0.010329,-0.0193 -0.017238,-0.0401 -0.020947,-0.0616 -0.00235,-0.013 -0.00238,-0.0262 -0.00271,-0.0393 -3.44e-4,-0.0163 -0.0018,-0.0307 0.00766,-0.0447 0,0 0.3286191,-0.13053 0.3286191,-0.13053 v 0 c -0.014769,0.004 -0.023249,-0.003 -0.021198,0.0149 -4.233e-4,0.0118 -6.614e-4,0.0236 -3.09e-5,0.0354 0.00151,0.0188 0.00635,0.0367 0.015227,0.0535 0.015682,0.0366 0.023183,0.0756 0.039479,0.11209 0.024117,0.0553 0.048193,0.11052 0.076364,0.16398 0.03441,0.0742 0.069546,0.14807 0.1089017,0.21976 0.044991,0.0838 0.099168,0.16263 0.1384712,0.24944 0.044243,0.0919 0.09888,0.17836 0.1480021,0.26767 0.052784,0.0876 0.1092237,0.1728 0.164705,0.25865 0.045764,0.0655 0.0948,0.12931 0.1350079,0.19834 0.030002,0.0569 0.060352,0.1149 0.074188,0.1782 0.010999,0.0416 0.020034,0.0842 0.021482,0.1273 0.00294,0.0262 0.00327,0.0121 0.02418,0.004 -0.096076,0.0555 -0.1923843,0.11057 -0.2882278,0.16646 -0.0048,0.003 0.01016,-0.005 0.01506,-0.007 0.033575,-0.018 0.058712,-0.0483 0.083277,-0.0766 0.077726,-0.0814 0.1456107,-0.17164 0.2159867,-0.25935 0.1018837,-0.13628 0.2055231,-0.27131 0.3038034,-0.41023 0.1000656,-0.13379 0.1988491,-0.26886 0.2861664,-0.41145 0.079659,-0.12573 0.1656749,-0.24748 0.2366907,-0.37859 0.047356,-0.0818 0.095742,-0.16329 0.1509517,-0.24008 0.00741,-0.0127 0.012314,-0.0268 0.020566,-0.0389 0.00446,-0.007 0.013549,-0.009 0.017804,-0.0157 0.00185,-0.003 0.00196,-0.007 0.00295,-0.01 0.1074888,-0.0521 0.2149776,-0.1042 0.3224665,-0.15631 -0.0117,0.0162 -0.024109,0.0328 -0.030845,0.0517 -0.015872,0.0376 -0.048329,0.0667 -0.068692,0.10186 -0.047978,0.0539 -0.098092,0.10578 -0.1351952,0.16828 -0.052161,0.0807 -0.1074809,0.15936 -0.1608892,0.23928 -0.054438,0.0824 -0.1120135,0.16218 -0.1707856,0.24154 -0.052299,0.0716 -0.097997,0.14769 -0.1507707,0.21898 -0.047265,0.066 -0.084022,0.1381 -0.1334101,0.20259 -0.043299,0.0557 -0.088335,0.11001 -0.1291989,0.16753 -0.034293,0.0431 -0.063263,0.0897 -0.095303,0.13441 -0.024313,0.038 -0.054665,0.0717 -0.078899,0.10952 -0.018293,0.0226 -0.033409,0.0464 -0.050915,0.0685 -0.091544,0.0959 -0.2448793,0.27802 -0.3519871,0.18571 -0.00347,-0.006 -0.00789,-0.0109 -0.010398,-0.017 -0.0023,-0.006 3.175e-4,-0.0122 8.203e-4,-0.0183 0.010573,-0.12476 0.2197004,-0.26329 0.3200492,-0.18479 0.016962,0.0157 0.022056,0.0313 0.019251,0.054 6.9e-5,0.031 -8.467e-4,0.0619 -8.731e-4,0.0929 -5.292e-4,0.0585 -0.0013,0.11703 -0.00103,0.17554 -3.704e-4,0.0808 -1.577e-4,0.16169 0.00302,0.24248 0.00444,0.0924 0.012756,0.1845 0.023572,0.27641 0.00404,0.0943 0.011308,0.18831 0.020452,0.28225 0.00146,0.0924 0.00356,0.18495 0.014758,0.2768 0.013147,0.10351 0.027488,0.20679 0.038237,0.3106 0.010861,0.10003 0.00981,0.19998 -0.00251,0.29993 -0.00479,0.0653 -0.00156,0.13072 -0.00308,0.19616 -5.292e-4,0.0293 9.525e-4,0.0615 -0.010237,0.089 -0.054019,0.10531 -0.3998097,0.27929 -0.312838,0.15631 0.00959,-0.016 0.011787,0.0132 0.01097,-0.0259 1.416e-4,-0.0127 2.278e-4,-0.0254 -0.00217,-0.038 -0.00361,-0.0199 -0.014825,-0.0371 -0.021497,-0.056 -7.143e-4,-0.0175 -0.00251,-0.0347 -0.00962,-0.051 -0.00968,-0.0185 -0.019079,-0.0359 -0.022445,-0.0568 -0.00138,-0.004 -0.013571,-0.0326 -0.010877,-0.0344 0.237277,-0.16196 0.1920126,-0.22567 0.3140266,-0.18788 0.020188,0.007 0.037124,0.0196 0.053868,0.0328 0.022251,0.0179 0.046448,0.0339 0.065834,0.0549 0.022384,0.0263 0.044747,0.0526 0.068211,0.078 0.024654,0.0292 0.05183,0.0564 0.071826,0.0892 0.017732,0.0389 0.029372,0.0803 0.0396,0.12165 0.016396,0.0531 0.026956,0.10841 0.02549,0.16418 -3.705e-4,0.0688 -6.086e-4,0.13754 -9.79e-5,0.2063 6.35e-4,0.0589 7.408e-4,0.11797 0.00689,0.17663 0.00709,0.0541 0.020825,0.1067 0.029389,0.16048 0.00824,0.049 0.016023,0.0972 0.00988,0.14716 -0.00316,0.0535 -0.00897,0.10683 -0.020405,0.1593 -0.00938,0.0487 -0.0092,0.0993 -0.026186,0.14666 -0.010763,0.0327 -0.015597,0.0675 -0.027244,0.0997 -0.00793,0.0212 -0.01887,0.0378 -0.034544,0.0545 -0.098906,0.10941 -0.2483972,0.17253 -0.3880943,0.21986 -0.048679,0.0113 -0.097538,0.0228 -0.1475398,0.0264 -0.070717,0.008 -0.1414942,0.016 -0.2127475,0.009 -0.079462,-0.006 -0.1591106,-0.015 -0.2343055,-0.043 -0.071261,-0.0257 -0.1410001,-0.0572 -0.1955109,-0.11143 -0.039468,-0.0442 -0.07146,-0.0946 -0.098223,-0.14742 -0.021365,-0.0563 -0.032061,-0.11492 -0.034998,-0.17507 0.00214,-0.0882 0.00544,-0.17665 0.019844,-0.26388 0.020939,-0.11188 0.048124,-0.22327 0.092138,-0.32853 0.042608,-0.10667 0.093553,-0.21181 0.1677718,-0.30035 0.132221,-0.15661 0.3216881,-0.26175 0.5160322,-0.32366 0.088166,-0.0183 0.1773383,-0.0187 0.2660716,-0.002 0.089889,0.0176 0.1785737,0.0436 0.2576724,0.0912 0.063848,0.0427 0.1225294,0.0955 0.1621528,0.16204 0.038888,0.0756 0.05689,0.15492 0.05485,0.24035 -0.0054,0.1093 -0.013787,0.21868 -0.038501,0.32562 -0.027107,0.11776 -0.059468,0.23333 -0.1161169,0.341 -0.058096,0.1078 -0.1219907,0.21241 -0.2005605,0.3068 -0.064385,0.0761 -0.1277051,0.15543 -0.2086274,0.21475 0,0 -0.3250843,0.13121 -0.3250843,0.13121 z"
       inkscape:connector-curvature="0"
       style="stroke-width:0.26458332" />
    <path
       id="path1553"
       d="m 8.6567983,288.53694 c -0.028109,0.11825 -0.045337,0.23899 -0.062467,0.35925 -0.020719,0.18014 -0.036398,0.36085 -0.04645,0.5419 -0.0099,0.21327 -0.011467,0.42682 -0.012189,0.64028 0.00495,0.22113 0.014071,0.44214 0.019434,0.66326 -6.96e-5,0.16697 0.011409,0.33345 0.021288,0.50002 0.00646,0.11711 0.00934,0.23435 0.010808,0.35162 0.00111,0.0829 0.00119,0.16572 0.00175,0.24858 3.439e-4,0.0492 4.233e-4,0.0984 0.00116,0.14758 3.704e-4,0.0189 3.704e-4,0.0379 9.525e-4,0.0568 1.093e-4,6e-5 2.183e-4,1.2e-4 3.175e-4,1.8e-4 -0.1050163,0.0526 -0.2100323,0.1053 -0.3150483,0.15795 -0.0066,0.007 0.00394,0.0114 -0.00872,0.019 -0.097931,0.0759 -0.00509,0.003 0.2740358,-0.15498 0.00665,-0.004 -0.012835,0.008 -0.019013,0.0128 -0.025638,0.0186 -0.049933,0.0395 -0.074805,0.0592 -0.096631,0.0818 -0.1854211,0.17193 -0.2718338,0.26429 -0.1536538,0.16273 -0.294949,0.33641 -0.4354845,0.51041 -0.1407113,0.18839 -0.2782398,0.37926 -0.4123373,0.57243 -0.074564,0.11483 -0.1558441,0.22507 -0.232565,0.33841 -0.031196,0.0421 -0.056942,0.0896 -0.097047,0.1242 0.1076214,0.24768 -0.3110116,0.27279 -0.3366146,0.14027 -0.00346,-0.0179 0.033664,-0.0589 0.041385,-0.0701 0.086922,-0.12326 0.1804484,-0.2418 0.2774709,-0.35724 0.1296186,-0.15009 0.2619192,-0.29766 0.39547,-0.44424 0.1189149,-0.1286 0.2459117,-0.24944 0.3738783,-0.36894 0.091851,-0.0853 0.1851027,-0.16911 0.278748,-0.25245 0.1338273,-0.12698 0.2939063,-0.19979 0.4559104,-0.29304 0.046391,-0.0174 0.091506,-0.0129 0.1373487,0.003 0.094032,0.0525 0.1714569,0.12889 0.2493732,0.20202 0.1472732,0.15222 0.294541,0.30452 0.4394282,0.45903 0.1449231,0.14518 0.2866816,0.2932 0.4206158,0.44862 0.075043,0.0864 0.1426657,0.17881 0.2164093,0.2663 0.029528,0.034 0.062754,0.083 0.1034246,0.10497 0.03562,-0.14152 -0.3711221,0.26125 -0.2753686,0.12908 0,0 0.3200916,-0.14272 0.3200916,-0.14272 v 0 c -0.05442,0.12135 -0.2235874,0.2799 -0.3421372,0.20219 -0.038487,-0.0345 -0.074067,-0.0726 -0.1037571,-0.11495 -0.071617,-0.0886 -0.1366655,-0.18227 -0.2096344,-0.26982 -0.131004,-0.15675 -0.2715858,-0.30463 -0.4152067,-0.44985 -0.1453814,-0.1536 -0.2925932,-0.30568 -0.4440076,-0.45334 -0.07593,-0.0681 -0.1524349,-0.14356 -0.2479757,-0.18316 -0.042973,-0.008 -0.083198,-0.004 -0.1217194,0.0182 0.5441561,-0.31708 0.2433688,-0.15679 0.1373955,-0.0568 -0.09516,0.0838 -0.1903162,0.16764 -0.2835831,0.25356 -0.1291405,0.11905 -0.2570697,0.2396 -0.3776268,0.36742 -0.1333386,0.14636 -0.2666519,0.29252 -0.3955373,0.44287 -0.095268,0.1124 -0.1857586,0.22856 -0.270383,0.34918 -0.017193,0.0292 -0.014245,0.0273 -0.032934,0.0496 -0.00251,0.003 -0.00468,0.0104 -0.00808,0.009 -0.018735,-0.0106 -0.017962,-0.0164 -0.018719,-0.0294 -0.097173,0.0563 -0.194346,0.11267 -0.291519,0.169 0.04983,-0.023 0.075247,-0.0715 0.1078894,-0.11343 0.078016,-0.11552 0.1643946,-0.22525 0.2402263,-0.34231 0.1360506,-0.19393 0.2768013,-0.38451 0.4157364,-0.57636 0.1384686,-0.17329 0.2773116,-0.34658 0.4279018,-0.50963 0.0836,-0.0926 0.1703168,-0.18189 0.2625233,-0.26596 0.1272519,-0.10528 0.2585228,-0.21509 0.4211482,-0.26296 0.1143174,-0.0156 0.2020398,0.73361 -0.270102,0.1996 5.82e-4,-0.0193 5.82e-4,-0.0385 9.789e-4,-0.0578 7.673e-4,-0.0496 9.79e-4,-0.0993 0.0014,-0.14891 7.144e-4,-0.0832 0.00101,-0.16641 0.00103,-0.24963 -5.556e-4,-0.11725 -0.00175,-0.23454 -0.00733,-0.35169 -0.00782,-0.16787 -0.018349,-0.33562 -0.016264,-0.50379 -0.00417,-0.22154 -0.012499,-0.44293 -0.019066,-0.6644 8.466e-4,-0.21366 5.027e-4,-0.42742 0.00982,-0.64092 0.00896,-0.18132 0.022521,-0.36235 0.042166,-0.54284 0.015126,-0.1198 0.032376,-0.23932 0.052005,-0.35845 0,0 0.3159712,-0.15136 0.3159712,-0.15136 z"
       inkscape:connector-curvature="0"
       style="stroke-width:0.26458332" />
    <path
       id="path1555"
       d="m 9.3812941,288.08996 c 0.1461431,0.0138 0.2929916,0.0189 0.4395269,0.0277 0.190577,0.0114 0.381463,0.0153 0.572332,0.0173 0.148658,0.001 0.297321,4.5e-4 0.44598,-2.5e-4 0.100014,-5.8e-4 0.200032,-5e-4 0.300047,-9.2e-4 0.06903,3e-5 0.13805,-5.8e-4 0.207074,-10e-4 0.01038,-0.004 0.06727,0.005 0.07406,-7.9e-4 0.0023,-0.002 9.53e-4,-0.006 0.0015,-0.009 -0.306084,0.68179 -0.36711,0.20015 -0.267578,0.14359 8.99e-4,-0.0159 0.01026,-0.0275 0.01779,-0.0413 0.01008,-0.0286 0.03321,-0.0483 0.0568,-0.0675 0.06688,-0.0561 0.136694,-0.10876 0.205222,-0.1629 0.106611,-0.0828 0.20938,-0.17021 0.316898,-0.25183 0.121337,-0.0872 0.241254,-0.17644 0.363483,-0.26241 0.112231,-0.0814 0.229419,-0.15552 0.34318,-0.23467 0.0821,-0.0593 0.164726,-0.11763 0.247481,-0.17596 0.02834,-0.0285 0.07157,-0.0449 0.09595,-0.0773 0.0077,0.0148 0.02948,0.0294 0.02112,0.0457 0,0 0.277836,-0.21897 0.277836,-0.21897 v 0 c 0.0192,0.002 0.02853,0.0265 0.0297,0.0444 -0.01559,0.004 -0.0014,-0.001 -0.01851,0.0135 -0.02664,0.0229 -0.05617,0.042 -0.08314,0.0646 -0.03694,0.028 -0.07656,0.0509 -0.114173,0.0778 -0.04582,0.0328 -0.08813,0.0706 -0.136384,0.10007 -0.113805,0.0805 -0.232671,0.15351 -0.345332,0.23572 -0.123129,0.0842 -0.241357,0.17528 -0.3634,0.26102 -0.107762,0.0797 -0.20926,0.16695 -0.314572,0.24979 -0.06651,0.0536 -0.133494,0.1066 -0.201107,0.15872 -0.01387,0.0142 -0.02822,0.0243 -0.0432,0.0369 -0.0044,0.004 -0.01203,0.004 -0.01482,0.009 -0.0016,0.003 -4.23e-4,0.007 -6.35e-4,0.01 -0.0035,0.006 -0.0087,0.0235 -0.01428,0.0274 -0.0017,0.001 -0.0049,-0.002 -0.0063,-6.9e-4 -0.0018,0.002 -2.19e-4,0.005 -3.17e-4,0.008 0.0014,0.13334 -0.554094,0.15467 -0.328031,0.22759 -0.02623,-0.009 -0.05527,-0.002 -0.08243,-0.004 -0.06809,-4.8e-4 -0.136179,-10e-4 -0.204272,-9.8e-4 -0.09934,-3.5e-4 -0.198674,-9e-5 -0.29801,-5.6e-4 -0.147231,-6.3e-4 -0.294462,-0.002 -0.441684,-0.003 -0.1908988,-0.003 -0.3818105,-0.007 -0.5724042,-0.0191 -0.1502174,-0.008 -0.3006259,-0.0115 -0.4506888,-0.022 0,0 0.2853848,-0.20256 0.2853848,-0.20256 z"
       inkscape:connector-curvature="0"
       style="stroke-width:0.26458332" />
    <path
       id="path1557"
       d="m 11.9077,288.30692 c 0.09455,0.11134 0.197709,0.21524 0.301968,0.31748 0.123347,0.11648 0.249286,0.23031 0.370407,0.34912 0.08432,0.0849 0.170132,0.16823 0.253807,0.2538 0.0475,0.0508 0.098,0.0984 0.151453,0.14282 0.01717,0.0157 0.03276,0.027 0.05627,0.0248 0,0 -0.288593,0.20213 -0.288593,0.20213 v 0 c -0.02442,-0.009 -0.04551,-0.0235 -0.06441,-0.0416 -0.05326,-0.0459 -0.102112,-0.0965 -0.149981,-0.1479 -0.08192,-0.0864 -0.1669,-0.16967 -0.24956,-0.25533 -0.120534,-0.11905 -0.24397,-0.23509 -0.368178,-0.35029 -0.106241,-0.1029 -0.209607,-0.20861 -0.312901,-0.31444 0,0 0.29972,-0.18052 0.29972,-0.18052 z"
       inkscape:connector-curvature="0"
       style="stroke-width:0.26458332" />
    <path
       id="path1559"
       d="m 7.2534065,288.26779 c -0.1136835,-0.006 -0.2272067,-0.0152 -0.3410257,-0.02 -0.1367264,-0.005 -0.2730291,-0.0174 -0.4097441,-0.0235 -0.1140052,-0.0117 -0.2281536,-0.0207 -0.3426619,-0.0254 -0.1005826,0.003 -0.2008446,0.0122 -0.3013749,0.0167 -0.070073,0.01 -0.1398656,0.0202 -0.2104919,0.025 -0.043292,-10e-4 -0.082821,0.006 -0.1239086,0.0183 -0.00433,10e-4 -0.00866,0.003 -0.012986,0.004 0,0 0.2791513,-0.2145 0.2791513,-0.2145 v 0 c 0.00432,-10e-4 0.00865,-0.002 0.01297,-0.003 0.041436,-0.009 0.083244,-0.01 0.1255392,-0.012 0.069906,-0.006 0.1391491,-0.0178 0.2091627,-0.0227 0.1005623,-0.005 0.2010505,-0.0137 0.3017874,-0.0131 0.1141264,0.005 0.227756,0.0163 0.3415305,0.0265 0.136439,0.007 0.2725894,0.0196 0.4091871,0.0236 0.1154449,0.005 0.2308302,0.0157 0.3464031,0.0143 0,0 -0.2835399,0.206 -0.2835399,0.206 z"
       inkscape:connector-curvature="0"
       style="stroke-width:0.26458332" />
    <path
       id="path1561"
       d="m 4.7933982,287.46502 c -0.1024199,-0.084 -0.2061784,-0.16633 -0.3112846,-0.24698 -0.1073306,-0.0824 -0.219878,-0.15789 -0.3251875,-0.24288 -0.060514,-0.046 -0.1195202,-0.0939 -0.1770695,-0.1436 -0.019857,-0.014 -0.03124,-0.0281 -0.037791,-0.0513 0,0 0.3127666,-0.16344 0.3127666,-0.16344 v 0 c -0.00746,0.0126 0.017616,0.0212 0.022418,0.0301 0.055197,0.0507 0.1131773,0.0982 0.1715719,0.1451 0.1045904,0.0848 0.2148578,0.16227 0.3217569,0.24413 0.1050645,0.0817 0.2096704,0.16415 0.3183364,0.24099 0,0 -0.2955174,0.18787 -0.2955174,0.18787 z"
       inkscape:connector-curvature="0"
       style="stroke-width:0.26458332" />
    <path
       id="path1563"
       d="m 5.4663929,288.47529 c 0.5813018,-0.34008 0.064225,-0.0349 -0.059753,0.0453 -0.157567,0.10161 -0.3126639,0.20684 -0.4653647,0.3156 -0.1328013,0.0961 -0.2606146,0.19903 -0.3878236,0.30236 -0.063986,0.0523 -0.1268953,0.10656 -0.1821577,0.16821 0,0 -0.3224744,0.1363 -0.3224744,0.1363 v 0 c 0.05514,-0.0659 0.1203753,-0.12234 0.1867103,-0.17666 0.1285867,-0.10438 0.2582886,-0.20772 0.3915505,-0.30602 0.151605,-0.10963 0.3063695,-0.21466 0.4634431,-0.31631 0.2094992,-0.14023 0.4321324,-0.26002 0.6483147,-0.38922 0,0 -0.2724447,0.22042 -0.2724447,0.22042 z"
       inkscape:connector-curvature="0"
       style="stroke-width:0.26458332" />
    <path
       id="path1565"
       d="m 9.0254755,287.1036 c 0.1141402,-0.0711 0.2280711,-0.14263 0.3440134,-0.21078 0.019457,-0.0113 0.038915,-0.0226 0.058373,-0.0338 0.1162334,-0.067 0.2326244,-0.13365 0.3487,-0.20089 0.081373,-0.0471 -0.1629246,0.094 -0.2445912,0.14059 -0.015573,0.009 0.030769,-0.0184 0.04631,-0.0274 0.2707423,-0.15592 0.2339946,-0.135 0.376187,-0.21557 -0.028095,0.0123 0.078846,-0.043 0.059441,-0.0317 -0.085944,0.05 -0.3452582,0.19765 -0.2591286,0.14791 0.1052372,-0.0608 0.210431,-0.12161 0.3159006,-0.18197 0.09535,-0.0546 -0.1903529,0.10973 -0.2855297,0.16459 0.011446,-0.007 0.022289,-0.0135 0.03207,-0.0225 0,0 0.3239177,-0.13847 0.3239177,-0.13847 v 0 c -0.0079,0.0131 -0.01412,0.0264 -0.02851,0.0337 -1.0481416,0.60986 0.202199,-0.11542 -0.0501,0.0299 -0.1070762,0.0617 -0.2139173,0.12372 -0.3210725,0.18524 -0.018762,0.0108 -0.03849,0.0198 -0.056851,0.0313 -0.1201973,0.0667 -0.069948,0.0391 0.2157029,-0.12637 0.015693,-0.009 -0.031186,0.0185 -0.046871,0.0276 -0.1145749,0.0665 -0.2292866,0.13274 -0.3439089,0.19914 -0.059699,0.0346 0.3965964,-0.22944 0.1790761,-0.10379 -0.1145191,0.0652 -0.2261134,0.13566 -0.3370265,0.20682 0,0 -0.3261064,0.12649 -0.3261064,0.12649 z"
       inkscape:connector-curvature="0"
       style="stroke-width:0.26458332" />
    <path
       id="path1567"
       d="m 10.533002,285.89334 c 0.0725,-0.14022 0.144184,-0.28081 0.22091,-0.41879 0.09727,-0.17232 0.194393,-0.34473 0.293379,-0.51607 0.05759,-0.11049 0.115517,-0.2207 0.175541,-0.32989 0.01922,-0.0418 0.04612,-0.0795 0.06698,-0.12034 0.0012,-0.003 0.0024,-0.005 0.0036,-0.008 0,0 0.320005,-0.14828 0.320005,-0.14828 v 0 c -0.0011,0.003 -0.0023,0.007 -0.0034,0.01 -0.0179,0.0449 -0.0501,0.0816 -0.07082,0.12527 -0.06178,0.11067 -0.125586,0.22023 -0.182195,0.33375 -0.101101,0.17035 -0.19803,0.34316 -0.294905,0.51594 -0.07523,0.13508 -0.145993,0.27256 -0.211223,0.41277 0,0 -0.317909,0.14383 -0.317909,0.14383 z"
       inkscape:connector-curvature="0"
       style="stroke-width:0.26458332" />
    <path
       id="path1569"
       d="m 11.059034,286.33333 c 0.159847,-0.0163 0.319824,-0.0319 0.480024,-0.0445 0.179557,-0.0162 0.359635,-0.0101 0.539484,-0.005 0.101674,0.009 0.203988,0.0138 0.304071,0.0347 0.0084,0.002 0.0167,0.004 0.02506,0.006 0,0 -0.288096,0.19889 -0.288096,0.19889 v 0 c -0.0078,-0.002 -0.01551,-0.004 -0.02326,-0.006 -0.09698,-0.0201 -0.196414,-0.0254 -0.294877,-0.034 -0.178049,-0.007 -0.356387,-0.0121 -0.53409,0.006 -0.163308,0.0138 -0.326617,0.0295 -0.488991,0.0519 0,0 0.280675,-0.20822 0.280675,-0.20822 z"
       inkscape:connector-curvature="0"
       style="stroke-width:0.26458332" />
    <path
       id="path1571"
       d="m 7.4184536,286.97241 c -0.081197,-0.0632 -0.1646254,-0.12343 -0.2458726,-0.18659 -0.080226,-0.0622 -0.1592651,-0.1272 -0.232674,-0.19745 -0.054597,-0.0459 -0.1057453,-0.0934 -0.1471589,-0.15159 -0.019066,-0.0363 -0.010406,-0.0184 -0.026196,-0.0533 0,0 0.3048844,-0.17149 0.3048844,-0.17149 v 0 c 0.013242,0.0316 0.00585,0.0159 0.022304,0.0473 0.039807,0.0562 0.089826,0.10162 0.1411806,0.14735 0.072936,0.0689 0.1495785,0.13446 0.2290887,0.19565 0.081139,0.0632 0.1642962,0.12397 0.2499214,0.181 0,0 -0.2954779,0.18919 -0.2954779,0.18919 z"
       inkscape:connector-curvature="0"
       style="stroke-width:0.26458332" />
    <path
       id="path1573"
       d="m 6.6142065,286.04949 c -0.071234,-0.15956 -0.1203074,-0.32646 -0.1643703,-0.49511 -0.040892,-0.1844 -0.078894,-0.36949 -0.1144325,-0.55499 -0.022109,-0.1152 -0.047489,-0.22959 -0.077932,-0.34286 -0.019558,-0.0701 -0.027724,-0.14215 -0.033116,-0.21449 0,0 0.3104457,-0.16039 0.3104457,-0.16039 v 0 c 0.00271,0.0707 0.00994,0.14106 0.027376,0.20978 0.028636,0.1151 0.053345,0.23095 0.073848,0.34781 0.032881,0.18559 0.068619,0.37073 0.1096505,0.5547 0.043754,0.16558 0.090556,0.33097 0.1717556,0.4829 0,0 -0.3032252,0.17265 -0.303225,0.17265 z"
       inkscape:connector-curvature="0"
       style="stroke-width:0.26458332" />
    <path
       id="path1575"
       d="m 5.7852547,285.77362 c -0.1295902,-0.045 -0.2586095,-0.0913 -0.3873492,-0.13872 -0.1051816,-0.0341 -0.2096942,-0.0701 -0.3149787,-0.10383 0,0 0.2864662,-0.19415 0.2864662,-0.19415 v 0 c 0.1032171,0.037 0.206888,0.0725 0.3107063,0.10775 0.1307893,0.0479 0.2621015,0.0938 0.3956833,0.1334 0,0 -0.2905279,0.19555 -0.2905279,0.19555 z"
       inkscape:connector-curvature="0"
       style="stroke-width:0.26458332" />
    <path
       id="path1577"
       d="m 8.107537,288.67914 c -0.1333206,0.0897 -0.2460754,0.20511 -0.3605173,0.31687 -0.1730224,0.17236 -0.3353575,0.35541 -0.4901144,0.54425 -0.1262975,0.15752 -0.2507895,0.31653 -0.3737726,0.47665 -0.060268,0.0763 -0.1167477,0.15527 -0.1642158,0.24015 -0.012793,0.0219 -0.024656,0.0442 -0.033622,0.0679 0,0 -0.318453,0.14955 -0.318453,0.14955 v 0 c 0.00791,-0.0267 0.018063,-0.052 0.032948,-0.0758 0.060504,-0.0968 -0.03559,0.0583 0.03391,-0.0593 0.039469,-0.0668 0.090627,-0.12631 0.1368343,-0.1883 0.1250121,-0.16135 0.2525731,-0.32075 0.3799255,-0.48026 0.1535006,-0.1895 0.3155309,-0.37248 0.4862428,-0.54668 0.1112078,-0.10943 0.2191183,-0.22306 0.3440977,-0.3172 0,0 0.3267366,-0.12784 0.3267366,-0.12784 z"
       inkscape:connector-curvature="0"
       style="stroke-width:0.26458332" />
    <path
       id="path1579"
       d="m 5.8637407,291.15482 c -0.1222327,0.0191 -0.2440826,0.041 -0.3659399,0.0626 -0.1544918,0.0263 -0.3096104,0.0491 -0.4637219,0.0776 -0.1164572,0.0214 -0.2304505,0.0522 -0.3443724,0.0838 -0.057579,0.0135 -0.1129184,0.0344 -0.1696017,0.0511 0,0 0.2784123,-0.21464 0.2784123,-0.21464 v 0 c 0.05525,-0.016 0.1097227,-0.0348 0.1658832,-0.0476 0.113043,-0.0312 0.2274345,-0.0568 0.3427039,-0.0785 0.1540643,-0.0265 0.3085696,-0.0503 0.4626301,-0.0768 0.1249934,-0.0226 0.2499114,-0.0455 0.374955,-0.0679 0,0 -0.2809486,0.21027 -0.2809486,0.21027 z"
       inkscape:connector-curvature="0"
       style="stroke-width:0.26458332" />
    <path
       id="path1581"
       d="m 6.7232579,291.13459 c -0.00422,0.13855 -0.00408,0.27721 -0.00465,0.41582 0.00356,0.20119 0.015793,0.40223 0.043114,0.6016 0.026025,0.17096 0.072776,0.33735 0.1350442,0.4984 0,0 -0.3005185,0.1667 -0.3005185,0.1667 v 0 c -0.057771,-0.1657 -0.1053709,-0.3346 -0.1314051,-0.50853 -0.029267,-0.20003 -0.04246,-0.402 -0.048786,-0.60402 -5.556e-4,-0.13703 -3.969e-4,-0.27411 -0.00465,-0.41108 0,0 0.3118432,-0.15889 0.3118429,-0.15889 z"
       inkscape:connector-curvature="0"
       style="stroke-width:0.26458332" />
    <path
       id="path1583"
       d="m 9.9031834,289.10414 c 0.1354906,0.10856 0.2715786,0.21639 0.4063716,0.32582 0.163086,0.13961 0.326249,0.2794 0.485816,0.42305 0.125418,0.11593 0.257515,0.22423 0.385926,0.33673 0.09925,0.081 0.199398,0.16092 0.301022,0.23894 0,0 -0.292514,0.18396 -0.292514,0.18396 v 0 c -0.0994,-0.081 -0.200585,-0.15981 -0.298407,-0.24275 -0.127402,-0.11325 -0.258518,-0.22234 -0.382685,-0.33925 -0.158226,-0.14403 -0.319919,-0.28441 -0.483621,-0.42216 -0.136344,-0.10931 -0.2733431,-0.2183 -0.4172894,-0.31751 0,0 0.2953808,-0.18683 0.2953808,-0.18683 z"
       inkscape:connector-curvature="0"
       style="stroke-width:0.26458332" />
    <path
       id="path1585"
       d="m 11.514831,291.44514 c -0.03255,0.13369 -0.04759,0.2704 -0.05857,0.40726 -0.008,0.13753 -0.01422,0.27558 -0.0086,0.41331 0.0077,0.0805 0.0095,0.16195 0.02593,0.24132 0,0 -0.308167,0.16469 -0.308167,0.16469 v 0 c -0.0155,-0.082 -0.01755,-0.16534 -0.02394,-0.24839 -0.006,-0.13949 0.0034,-0.27926 0.01,-0.41859 0.01024,-0.13658 0.02514,-0.27256 0.04823,-0.40761 0,0 0.315147,-0.15199 0.315147,-0.15199 z"
       inkscape:connector-curvature="0"
       style="stroke-width:0.26458332" />
    <path
       id="path1587"
       d="m 12.31649,290.70523 c 0.133771,0.0696 0.265468,0.14304 0.398782,0.21346 0.138004,0.0786 0.281531,0.14599 0.426147,0.21123 0.104654,0.0476 0.209343,0.0951 0.317584,0.13404 0.05233,0.0207 0.02735,0.0107 0.07496,0.0299 0,0 -0.289495,0.19342 -0.289495,0.19342 v 0 c -0.04584,-0.0196 -0.02167,-0.01 -0.07258,-0.03 -0.107155,-0.0418 -0.211679,-0.0895 -0.31591,-0.13808 -0.143877,-0.0668 -0.286251,-0.13649 -0.424362,-0.21475 -0.134423,-0.0713 -0.267883,-0.14466 -0.406618,-0.20736 0,0 0.291495,-0.1918 0.291495,-0.1918 z"
       inkscape:connector-curvature="0"
       style="stroke-width:0.26458332" />
    <path
       id="path1589"
       d="m 6.6788569,290.76883 c 0.080127,-0.0254 0.1616879,-0.0473 0.2440736,-0.0642 0.082811,-0.0228 0.1678678,-0.0353 0.2514071,-0.0551 0.068592,-0.011 0.1356725,-0.0287 0.2025729,-0.047 0,0 -0.2743647,0.21038 -0.2743647,0.21038 v 0 c -0.067623,0.0172 -0.1355047,0.0331 -0.2039813,0.0466 -0.083933,0.0182 -0.1684353,0.0338 -0.2517219,0.055 -0.082924,0.0192 -0.1651834,0.0415 -0.2459601,0.0684 0,0 0.2779744,-0.21403 0.2779744,-0.21403 z"
       inkscape:connector-curvature="0"
       style="stroke-width:0.26458332" />
    <path
       id="path1591"
       d="m 7.804855,290.28472 c -0.032081,0.0688 -0.047519,0.14329 -0.057752,0.21802 -0.00687,0.0582 -0.0084,0.11688 -0.00862,0.17544 0,0 -0.3112563,0.15806 -0.3112563,0.15806 v 0 c 0.0014,-0.0599 0.00196,-0.1199 0.00791,-0.17958 0.00944,-0.0767 0.023752,-0.15293 0.051088,-0.22552 0,0 0.318629,-0.14642 0.318629,-0.14642 z"
       inkscape:connector-curvature="0"
       style="stroke-width:0.26458332" />
    <path
       id="path1593"
       d="m 8.0362429,291.46234 c 0.045378,0.0308 0.089954,0.0627 0.1349478,0.0941 0,0 -0.2903521,0.18508 -0.2903521,0.18508 v 0 c -0.045167,-0.0314 -0.090211,-0.0633 -0.1386102,-0.0897 0,0 0.2940145,-0.18948 0.2940145,-0.18948 z"
       inkscape:connector-curvature="0"
       style="stroke-width:0.26458332" />
    <path
       id="path1595"
       d="m 7.5850188,290.88579 c 0.075289,0.10545 0.1654929,0.19866 0.2570104,0.2899 0,0 -0.2888961,0.17686 -0.2888961,0.17686 v 0 c -0.091994,-0.0939 -0.184621,-0.1872 -0.2686772,-0.2884 0,0 0.3005629,-0.17836 0.3005629,-0.17836 z"
       inkscape:connector-curvature="0"
       style="stroke-width:0.26458332" />
    <path
       id="path1597"
       d="m 11.177539,290.96101 c -0.09703,-0.0142 -0.195245,-0.0182 -0.293139,-0.0219 -0.122987,-0.004 -0.246046,-0.004 -0.369078,-0.004 -0.09923,2.6e-4 -0.198469,2.1e-4 -0.297703,6.4e-4 -0.07717,-10e-6 -0.154335,3.7e-4 -0.2315022,7.4e-4 -0.046206,2.6e-4 -0.092414,3.4e-4 -0.1386192,6.9e-4 -0.020735,0.002 -0.038888,-0.007 -0.056574,-0.0165 0,0 0.2938994,-0.19499 0.2938994,-0.19499 v 0 c 0.0154,0.005 0.03064,0.006 0.04692,0.005 0.04557,3.7e-4 0.09114,4.2e-4 0.136705,6.8e-4 0.07653,3.5e-4 0.15307,7.2e-4 0.229607,6.1e-4 0.09874,3.2e-4 0.197483,4e-5 0.296223,5.8e-4 0.123096,6.9e-4 0.246207,0.002 0.369262,0.005 0.09945,0.004 0.198598,0.0115 0.297929,0.0168 0,0 -0.283932,0.20629 -0.283932,0.20629 z"
       inkscape:connector-curvature="0"
       style="stroke-width:0.26458332" />
    <path
       id="path1599"
       d="m 9.7325703,290.66314 c -0.076024,-0.0381 -0.1503045,-0.079 -0.2160686,-0.13319 -0.051365,-0.052 -0.099181,-0.10808 -0.1435412,-0.16623 -0.028576,-0.0321 -0.052874,-0.0676 -0.079766,-0.10102 0,0 0.3024454,-0.17994 0.3024454,-0.17994 v 0 c 0.025334,0.0346 0.049762,0.0698 0.077232,0.10276 0.042259,0.0561 0.087818,0.11035 0.1374865,0.15997 0.065138,0.0511 0.1373807,0.0917 0.2140136,0.12319 0,0 -0.2918021,0.19446 -0.2918017,0.19446 z"
       inkscape:connector-curvature="0"
       style="stroke-width:0.26458332" />
    <path
       id="path1601"
       d="m 10.257369,290.97335 c -0.06089,0.0797 -0.100838,0.17201 -0.135243,0.26545 -0.03052,0.0884 -0.03964,0.18145 -0.04418,0.27422 -0.0027,0.0417 -0.0019,0.083 0.0044,0.12423 0,0 -0.3093174,0.16353 -0.3093174,0.16353 v 0 c -0.00662,-0.0438 -0.00955,-0.0873 -0.00533,-0.13162 0.00479,-0.0958 0.012811,-0.19211 0.041624,-0.28421 0.032482,-0.0948 0.0714,-0.18825 0.1267537,-0.27227 0,0 0.3212697,-0.13933 0.3212697,-0.13933 z"
       inkscape:connector-curvature="0"
       style="stroke-width:0.26458332" />
    <path
       id="path1603"
       d="m 11.153001,288.26015 c -0.04599,-0.0826 -0.09536,-0.16281 -0.147763,-0.24144 -0.05541,-0.081 -0.109087,-0.16242 -0.169688,-0.2396 -0.05024,-0.0596 -0.100355,-0.11922 -0.14938,-0.17987 -0.03043,-0.0443 -0.06486,-0.0855 -0.09902,-0.12688 -0.02439,-0.0296 -0.0529,-0.0549 -0.07081,-0.0891 -0.0087,-0.0242 -0.005,-0.0124 -0.01139,-0.0353 0,0 0.309276,-0.16732 0.309276,-0.16732 v 0 c 0.0041,0.019 0.0017,0.01 0.0074,0.0283 0.01608,0.0321 0.04548,0.0546 0.06638,0.0834 0.0331,0.0422 0.06758,0.0833 0.09742,0.12791 0.04853,0.061 0.09775,0.12138 0.147543,0.18139 0.06104,0.0779 0.114328,0.16069 0.170056,0.24243 0.0527,0.0785 0.100978,0.15952 0.152691,0.23861 0,0 -0.302715,0.17738 -0.302715,0.17738 z"
       inkscape:connector-curvature="0"
       style="stroke-width:0.26458332" />
    <path
       id="path1605"
       d="m 10.875826,287.4451 c 0.0029,-0.0666 -0.0011,-0.13327 0.003,-0.19978 0.0055,-0.0488 0.01151,-0.0975 0.02175,-0.1456 0,0 0.315444,-0.1514 0.315444,-0.1514 v 0 c -0.01271,0.0465 -0.01855,0.0936 -0.02474,0.14139 -0.0082,0.0649 -0.0026,0.1308 -0.0027,0.19606 0,0 -0.312707,0.15933 -0.312707,0.15933 z"
       inkscape:connector-curvature="0"
       style="stroke-width:0.26458332" />
    <path
       id="path1607"
       d="m 10.086923,287.26136 c -0.03674,-0.0217 -0.01826,-0.0109 -0.05544,-0.0325 0,0 0.292462,-0.19019 0.292462,-0.19019 v 0 c 0.03636,0.0202 0.01809,0.0108 0.05477,0.0282 0,0 -0.291801,0.19447 -0.291801,0.19447 z"
       inkscape:connector-curvature="0"
       style="stroke-width:0.26458332" />
    <path
       id="path1609"
       d="m 11.797228,288.7492 c -0.04745,0.0948 -0.08154,0.19506 -0.117825,0.29442 -0.03196,0.0817 -0.05154,0.16708 -0.0618,0.25401 -0.0065,0.0466 -0.006,0.0907 0.01501,0.13319 0.0035,0.006 0.0069,0.0111 0.01036,0.0166 0,0 -0.303351,0.17611 -0.303351,0.17611 v 0 c -0.0038,-0.006 -0.0076,-0.0127 -0.01143,-0.0191 -0.0252,-0.0484 -0.0313,-0.0979 -0.02305,-0.1521 0.01014,-0.09 0.02958,-0.17868 0.06194,-0.26344 0.03746,-0.0977 0.06823,-0.19782 0.111502,-0.29329 0,0 0.318629,-0.14642 0.318629,-0.14642 z"
       inkscape:connector-curvature="0"
       style="stroke-width:0.26458332" />
    <path
       id="path1611"
       d="m 11.573245,289.30183 c 0.03013,0.0545 0.06696,0.10508 0.103133,0.15569 0,0 -0.297331,0.17542 -0.297331,0.17542 v 0 c -0.03663,-0.0519 -0.07495,-0.10263 -0.109374,-0.15603 0,0 0.303572,-0.17508 0.303572,-0.17508 z"
       inkscape:connector-curvature="0"
       style="stroke-width:0.26458332" />
    <path
       id="path1613"
       d="m 12.186788,289.36784 c 0.05404,-0.0247 0.108727,-0.0479 0.163184,-0.0717 0,0 -0.26913,0.21303 -0.26913,0.21303 v 0 c -0.05627,0.0247 -0.112522,0.0494 -0.168031,0.0758 0,0 0.273977,-0.21712 0.273977,-0.21712 z"
       inkscape:connector-curvature="0"
       style="stroke-width:0.26458332" />
    <path
       id="path1615"
       d="m 10.252397,286.09386 c -0.07784,-0.0539 -0.162525,-0.097 -0.246363,-0.14067 -0.079521,-0.0413 -0.1596376,-0.0815 -0.2399431,-0.12135 -0.059494,-0.0269 -0.1069856,-0.0722 -0.160496,-0.10832 -0.036856,-0.0243 -0.073003,-0.0472 -0.1058842,-0.0767 0,0 0.298486,-0.18518 0.298486,-0.18518 v 0 c 0.031622,0.0282 0.068408,0.0489 0.102426,0.0741 0.050684,0.037 0.098038,0.0792 0.1560163,0.105 0.07976,0.0402 0.158789,0.082 0.237909,0.12338 0.08652,0.0451 0.173775,0.0898 0.255083,0.14393 0,0 -0.297234,0.18588 -0.297234,0.18588 z"
       inkscape:connector-curvature="0"
       style="stroke-width:0.26458332" />
    <path
       id="path1617"
       d="m 9.6258583,284.818 c 0.00153,-0.0105 0.00305,-0.021 0.00457,-0.0315 0,0 0.3128695,-0.15454 0.3128695,-0.15454 v 0 c -0.00108,0.0103 -0.00214,0.0206 -0.00323,0.0309 0,0 -0.3142025,0.1552 -0.3142025,0.1552 z"
       inkscape:connector-curvature="0"
       style="stroke-width:0.26458332" />
    <path
       id="path1619"
       d="m 9.5988197,285.79632 c -0.026878,0.0372 -0.051471,0.0759 -0.0761,0.11458 0,0 -0.3167128,0.13942 -0.3167128,0.13942 v 0 c 0.023884,-0.0377 0.04742,-0.0757 0.071377,-0.11336 0,0 0.3214362,-0.14064 0.3214358,-0.14064 z"
       inkscape:connector-curvature="0"
       style="stroke-width:0.26458332" />
    <path
       id="path1621"
       d="m 9.0043708,285.14142 c 0.083562,0.0272 0.1709304,0.0391 0.2577706,0.0503 0,0 -0.2821824,0.19905 -0.2821824,0.19905 v 0 c -0.088298,-0.0135 -0.176317,-0.0284 -0.2630789,-0.05 0,0 0.2874907,-0.19941 0.2874907,-0.19941 z"
       inkscape:connector-curvature="0"
       style="stroke-width:0.26458332" />
    <path
       id="path1623"
       d="m 9.8227082,284.88649 c 0.00801,-0.005 0.016015,-0.0106 0.024024,-0.0158 0,0 0.3254988,-0.12736 0.3254988,-0.12736 v 0 c -0.0076,0.005 -0.01519,0.0102 -0.02279,0.0154 0,0 -0.326737,0.12784 -0.326737,0.12784 z"
       inkscape:connector-curvature="0"
       style="stroke-width:0.26458332" />
    <path
       id="path1625"
       d="m 7.0741677,286.0727 c 0.0166,-0.0759 0.032392,-0.15195 0.051798,-0.22723 0.029694,-0.0969 0.071617,-0.18959 0.1090975,-0.28368 0.00652,-0.0176 0.013041,-0.0352 0.019563,-0.0528 0,0 0.3124523,-0.1454 0.3124523,-0.1454 v 0 c -0.00668,0.0178 -0.013367,0.0356 -0.020047,0.0534 -0.034863,0.0934 -0.07525,0.18457 -0.1077444,0.27883 -0.019825,0.0734 -0.035427,0.14747 -0.050213,0.22196 0,0 -0.3149055,0.15486 -0.3149055,0.15486 z"
       inkscape:connector-curvature="0"
       style="stroke-width:0.26458332" />
    <path
       id="path1627"
       d="m 6.5503096,286.50569 c -0.070823,0.0263 -0.1401921,0.056 -0.2102588,0.0842 -0.039125,0.0186 -0.077372,0.0395 -0.1171877,0.0562 -0.1186278,0.0449 -0.2398395,0.13205 0.2492238,-0.14856 0.00395,-0.002 -0.00808,0.004 -0.011848,0.007 -0.00467,0.003 -0.00894,0.007 -0.013417,0.0104 -0.025818,0.0213 -0.0412,0.0515 -0.05728,0.0801 0,0 -0.3188187,0.14284 -0.3188187,0.14284 v 0 c 0.016208,-0.0304 0.031123,-0.0618 0.05071,-0.0902 0.1016979,-0.10535 0.2429369,-0.16295 0.3764171,-0.22008 0.037893,-0.0194 0.077533,-0.0355 0.1162616,-0.0531 0.071055,-0.0284 0.1413695,-0.059 0.2141707,-0.0827 0,0 -0.2779744,0.21403 -0.2779744,0.21403 z"
       inkscape:connector-curvature="0"
       style="stroke-width:0.26458332" />
    <path
       id="path1629"
       d="m 6.7489776,287.08689 c 0.014216,0.0851 0.048086,0.16564 0.084392,0.24342 0.00651,0.0127 0.013018,0.0253 0.019526,0.038 0,0 -0.3015171,0.17163 -0.3015171,0.17163 v 0 c -0.00634,-0.0131 -0.012676,-0.0262 -0.019013,-0.0393 -0.037545,-0.0807 -0.0722,-0.16335 -0.093771,-0.24997 0,0 0.3103843,-0.16374 0.3103843,-0.16374 z"
       inkscape:connector-curvature="0"
       style="stroke-width:0.26458332" />
    <path
       id="path1631"
       d="m 5.8858726,286.68516 c -0.0869,-0.002 -0.1725922,0.0169 -0.2569313,0.0359 0,0 0.2752079,-0.209 0.2752079,-0.209 v 0 c 0.087556,-0.018 0.175868,-0.0342 0.2656554,-0.0332 0,0 -0.283932,0.20629 -0.283932,0.20629 z"
       inkscape:connector-curvature="0"
       style="stroke-width:0.26458332" />
    <path
       id="path1633"
       d="m 6.1600399,288.73845 c 0.0201,0.0958 0.038501,0.19196 0.058516,0.28779 0.014968,0.0863 0.046493,0.16707 0.077694,0.24831 0.00447,0.0117 0.00894,0.0234 0.013407,0.0352 0,0 -0.3042486,0.16878 -0.3042486,0.16878 v 0 c -0.00415,-0.0117 -0.0083,-0.0234 -0.012446,-0.0352 -0.031818,-0.0832 -0.064641,-0.16548 -0.079219,-0.25402 -0.01868,-0.0947 -0.036207,-0.18976 -0.061735,-0.28296 0,0 0.3080329,-0.16791 0.3080329,-0.16791 z"
       inkscape:connector-curvature="0"
       style="stroke-width:0.26458332" />
    <path
       id="path1635"
       d="m 7.3226178,289.64065 c 0.048316,0.0319 0.094386,0.0671 0.141029,0.10142 0,0 -0.2928488,0.1854 -0.2928488,0.1854 v 0 c -0.046318,-0.0348 -0.09303,-0.0692 -0.1436582,-0.0976 0,0 0.295478,-0.18919 0.295478,-0.18919 z"
       inkscape:connector-curvature="0"
       style="stroke-width:0.26458332" />
    <path
       id="path1637"
       d="m 6.2915281,289.74145 c -0.049584,0.0683 -0.0893,0.14247 -0.1253355,0.21856 -0.02323,0.0502 -0.040914,0.10245 -0.056288,0.15548 0,0 -0.314106,0.14908 -0.314106,0.14908 v 0 c 0.01569,-0.0545 0.032101,-0.10867 0.054539,-0.16089 0.036198,-0.076 0.07261,-0.15161 0.1197547,-0.22159 0,0 0.3214362,-0.14064 0.3214358,-0.14064 z"
       inkscape:connector-curvature="0"
       style="stroke-width:0.26458332" />
    <path
       id="path1639"
       d="m 9.692044,294.25737 c -0.063025,0.13936 -0.1179076,0.28244 -0.1770771,0.42354 -0.061505,0.13807 -0.1122413,0.28058 -0.1547514,0.42554 -0.015515,0.0541 -0.025614,0.1093 -0.032992,0.16497 0,0 -0.3130314,0.15399 -0.3130314,0.15399 v 0 c 0.00868,-0.0578 0.018746,-0.11543 0.035277,-0.17162 0.043,-0.14709 0.095847,-0.29137 0.1582454,-0.43136 0.058052,-0.13913 0.1145014,-0.27888 0.1654323,-0.42078 0,0 0.318897,-0.14428 0.3188972,-0.14428 z"
       inkscape:connector-curvature="0"
       style="stroke-width:0.26458332" />
    <path
       id="path1641"
       d="m 10.719965,293.60835 c 0.136317,-0.0221 0.274778,-0.0276 0.412588,-0.0325 0.17987,-0.01 0.35971,10e-4 0.53945,0.008 0.02444,7.4e-4 0.04888,0.001 0.07332,0.002 0,0 -0.277386,0.19989 -0.277386,0.19989 v 0 c -0.0239,-10e-4 -0.0478,-0.002 -0.0717,-0.003 -0.17887,-0.007 -0.3579,-0.0168 -0.536889,-0.006 -0.14069,0.007 -0.281909,0.0146 -0.420334,0.0425 0,0 0.280949,-0.21028 0.280949,-0.21028 z"
       inkscape:connector-curvature="0"
       style="stroke-width:0.26458332" />
    <path
       id="path1643"
       d="m 6.3296582,294.25897 c -0.1186463,-0.029 -0.2369796,-0.0604 -0.3546369,-0.0936 -0.095792,-0.0287 -0.1929815,-0.056 -0.2927564,-0.0667 -0.071707,-0.008 -0.098404,-0.005 -0.1719392,-0.004 -0.028577,10e-4 -0.057155,0.003 -0.085732,0.004 0,0 0.2739337,-0.20079 0.2739337,-0.20079 v 0 c 0.028546,-9.2e-4 0.057092,-0.002 0.085638,-0.003 0.081418,2.5e-4 0.098237,-0.002 0.1769616,0.007 0.1007835,0.0125 0.1984721,0.0412 0.2956811,0.0694 0.1195097,0.0327 0.2395924,0.0643 0.361252,0.0879 0,0 -0.2884027,0.19892 -0.2884027,0.19892 z"
       inkscape:connector-curvature="0"
       style="stroke-width:0.26458332" />
    <path
       id="path1645"
       d="m 7.1066604,295.04403 c 0.057847,0.12902 0.1275532,0.25245 0.1965184,0.37578 0.01474,0.0254 0.02948,0.0508 0.04422,0.0763 0,0 -0.2938775,0.16944 -0.2938775,0.16944 v 0 c -0.014354,-0.0257 -0.028707,-0.0513 -0.043061,-0.077 -0.07114,-0.12353 -0.1419095,-0.24728 -0.2095405,-0.37278 0,0 0.3057412,-0.17171 0.3057412,-0.17171 z"
       inkscape:connector-curvature="0"
       style="stroke-width:0.26458332" />
    <path
       id="path1647"
       d="m 13.482028,288.80694 c 0.05083,-0.0799 0.09759,-0.16235 0.145621,-0.24398 0.02332,-0.0409 0.04269,-0.0838 0.06194,-0.12671 0,0 0.315478,-0.14424 0.315478,-0.14424 v 0 c -0.01992,0.0438 -0.03949,0.0878 -0.06157,0.13063 -0.0473,0.0804 -0.09341,0.16157 -0.141382,0.24162 0,0 -0.320083,0.14268 -0.320083,0.14268 z"
       inkscape:connector-curvature="0"
       style="stroke-width:0.26458332" />
    <path
       id="path1649"
       d="m 13.22175,289.68869 c 0.01589,0.12514 0.05019,0.24726 0.08371,0.36861 0.04468,0.15544 0.08967,0.31063 0.126303,0.46821 0.03508,0.13939 0.07892,0.27645 0.128787,0.41122 0,0 -0.300773,0.16641 -0.300773,0.16641 v 0 c -0.04679,-0.13738 -0.09357,-0.27497 -0.128499,-0.41596 -0.03501,-0.15746 -0.07935,-0.31229 -0.125314,-0.46685 -0.03454,-0.12206 -0.06873,-0.2444 -0.09446,-0.36867 0,0 0.310245,-0.16297 0.310246,-0.16297 z"
       inkscape:connector-curvature="0"
       style="stroke-width:0.26458332" />
    <path
       id="path1651"
       d="m 13.098837,286.39806 c 0.0244,-0.1255 0.03416,-0.25305 0.04122,-0.38049 0.0092,-0.10809 0.0012,-0.21588 -0.0079,-0.32358 -0.0059,-0.0607 -0.0088,-0.12154 -0.01124,-0.18243 -9.52e-4,-0.031 -8.2e-4,-0.062 -0.0014,-0.0931 0,0 0.313521,-0.15974 0.313521,-0.15974 v 0 c -5.82e-4,0.031 -4.5e-4,0.062 -2.22e-4,0.093 3.71e-4,0.0609 0.0029,0.1217 0.0072,0.18242 0.0075,0.10978 0.01626,0.21961 0.0061,0.32962 -0.0072,0.1266 -0.01627,0.25321 -0.03374,0.37887 0,0 -0.313558,0.15542 -0.313558,0.15542 z"
       inkscape:connector-curvature="0"
       style="stroke-width:0.26458332" />
    <path
       id="path1653"
       d="m 14.199058,287.01754 c 0.08966,0.0516 0.181399,0.0987 0.270068,0.15216 0.08555,0.0573 0.178648,0.10054 0.269893,0.14748 0.0529,0.0234 0.02712,0.0125 0.07725,0.0326 0,0 -0.289178,0.19293 -0.289178,0.19293 v 0 c -0.04996,-0.0222 -0.02407,-0.0104 -0.07758,-0.0356 -0.09157,-0.0472 -0.183567,-0.0932 -0.269562,-0.15035 -0.08953,-0.0534 -0.182065,-0.10062 -0.274721,-0.14829 0,0 0.293823,-0.19099 0.293823,-0.19099 z"
       inkscape:connector-curvature="0"
       style="stroke-width:0.26458332" />
    <path
       id="path1655"
       d="m 9.6647203,283.34646 c -0.047498,-0.0757 -0.1015815,-0.14688 -0.1551414,-0.21832 -0.046371,-0.0726 -0.092714,-0.14517 -0.1387419,-0.21797 -0.045008,-0.0729 -0.090664,-0.14507 -0.1320467,-0.22006 -0.037235,-0.0754 -0.088096,-0.14244 -0.1331132,-0.21316 -0.039108,-0.0661 -0.08302,-0.12911 -0.1235641,-0.19431 -0.031886,-0.0477 -0.060787,-0.0971 -0.089211,-0.14684 -0.029397,-0.0386 -0.057306,-0.0782 -0.081522,-0.12032 -0.0391,-0.0452 -0.043784,-0.0976 -0.044704,-0.15491 0,0 0.3111993,-0.15849 0.3111993,-0.15849 v 0 c -0.00116,0.0563 -4.234e-4,0.0932 0.036772,0.13839 0.024194,0.0421 0.053206,0.081 0.081256,0.12056 0.028226,0.0493 0.056495,0.0985 0.08715,0.14643 0.040881,0.0649 0.082875,0.12906 0.1226461,0.19465 0.045016,0.0716 0.096723,0.13892 0.1343162,0.21499 0.04054,0.0746 0.085724,0.14623 0.1308124,0.21818 0.045841,0.0719 0.09094,0.14422 0.1362863,0.21641 0.053607,0.0724 0.1077069,0.14432 0.1603211,0.21739 0,0 -0.302715,0.17738 -0.3027151,0.17738 z"
       inkscape:connector-curvature="0"
       style="stroke-width:0.26458332" />
    <path
       id="path1657"
       d="m 9.9189306,282.77688 c 0.1507014,-0.0643 0.3054544,-0.11966 0.4596204,-0.17527 0.195451,-0.0628 0.385828,-0.13965 0.575071,-0.21887 0.138256,-0.062 0.271122,-0.13432 0.402883,-0.20883 -0.453259,0.26788 -0.24563,0.14119 -0.146037,0.0777 0,0 0.321927,-0.12519 0.321927,-0.12519 v 0 c -0.144959,0.0923 -0.28998,0.18379 -0.44291,0.26327 -0.130847,0.0732 -0.263579,0.14306 -0.401379,0.20247 -0.189234,0.0782 -0.380129,0.15232 -0.57461,0.21662 -0.1574436,0.0583 -0.3162462,0.1144 -0.468542,0.18526 0,0 0.2739766,-0.21712 0.2739766,-0.21712 z"
       inkscape:connector-curvature="0"
       style="stroke-width:0.26458332" />
    <path
       id="path1659"
       d="m 7.6525749,283.39216 c -0.1186008,-0.0258 -0.2386248,-0.0438 -0.3587314,-0.061 -0.1453134,-0.0199 -0.2886702,-0.051 -0.4337544,-0.0721 -0.1423879,-0.0229 -0.2842948,-0.0485 -0.4238768,-0.085 -0.1173192,-0.0322 -0.2285593,-0.0818 -0.3398306,-0.1302 -0.099811,-0.0441 -0.1977477,-0.0929 -0.2930231,-0.14621 -0.045944,-0.0259 -0.087395,-0.0585 -0.1285838,-0.0912 0,0 0.295474,-0.18537 0.295474,-0.18537 v 0 c 0.038945,0.0321 0.079173,0.0627 0.123209,0.0877 0.094029,0.0528 0.1905474,0.10147 0.2895513,0.14428 0.109733,0.0474 0.2195557,0.0959 0.335362,0.12673 0.1386697,0.0352 0.2795587,0.0602 0.4207883,0.0829 0.1450742,0.0223 0.2889297,0.0517 0.434436,0.0714 0.1227749,0.0178 0.2453693,0.0367 0.3673822,0.0593 0,0 -0.2884027,0.19893 -0.2884027,0.19893 z"
       inkscape:connector-curvature="0"
       style="stroke-width:0.26458332" />
    <path
       id="path1661"
       d="m 6.9324267,283.6631 c 0.023368,-0.13127 0.063662,-0.25844 0.1034642,-0.38542 0.054695,-0.16578 0.1249471,-0.32585 0.2004023,-0.48309 0.060609,-0.1282 0.1294548,-0.25235 0.1991559,-0.37579 0.047856,-0.0852 0.1006617,-0.16754 0.1537845,-0.24956 0.00816,-0.0128 0.016314,-0.0256 0.024474,-0.0384 0,0 0.3172275,-0.1394 0.3172275,-0.1394 v 0 c -0.00835,0.0129 -0.016706,0.0257 -0.025061,0.0386 -0.052579,0.0825 -0.1068607,0.16401 -0.1558991,0.24872 -0.07235,0.12258 -0.1419609,0.24719 -0.204025,0.3753 -0.076494,0.1555 -0.1476917,0.31392 -0.2025229,0.47851 -0.038644,0.12329 -0.07892,0.24714 -0.096095,0.37566 0,0 -0.3149053,0.15486 -0.3149055,0.15486 z"
       inkscape:connector-curvature="0"
       style="stroke-width:0.26458332" />
    <path
       id="path1663"
       d="m 3.7570963,286.82065 c -0.067696,-0.0921 -0.1314792,-0.1868 -0.1922505,-0.28354 -0.069386,-0.11198 -0.1319112,-0.22799 -0.1968469,-0.34259 -0.053107,-0.0896 -0.1022643,-0.18104 -0.1488188,-0.27418 -0.028749,-0.0564 -0.040744,-0.11858 -0.052904,-0.18011 0,0 0.3062319,-0.16305 0.3062319,-0.16305 v 0 c 0.00981,0.0589 0.020743,0.11788 0.047821,0.17177 0.045929,0.0928 0.093126,0.18466 0.1455,0.27406 0.063906,0.11446 0.1260943,0.22999 0.1950601,0.34149 0.061067,0.0949 0.1231243,0.18996 0.1967637,0.2757 0,0 -0.3005555,0.18045 -0.3005555,0.18045 z"
       inkscape:connector-curvature="0"
       style="stroke-width:0.26458332" />
    <path
       id="path1665"
       d="m 4.1085267,287.33759 c -0.1213705,0.0902 -0.2422491,0.18121 -0.3628589,0.27248 -0.1216593,0.0902 -0.2420276,0.18216 -0.3624408,0.27405 -0.061399,0.0451 -0.1228346,0.0901 -0.1821357,0.13794 0,0 -0.3231639,0.12991 -0.3231639,0.12991 v 0 c 0.060316,-0.049 0.1219192,-0.0963 0.185797,-0.14055 0.1220311,-0.0924 0.2437686,-0.18507 0.3670067,-0.27582 0.1173073,-0.0901 0.236632,-0.17758 0.3530296,-0.26885 0,0 0.324766,-0.12916 0.324766,-0.12916 z"
       inkscape:connector-curvature="0"
       style="stroke-width:0.26458332" />
    <path
       id="path1667"
       d="m 3.9895015,289.49243 c -0.092859,-0.0754 -0.1886305,-0.1472 -0.2819654,-0.22206 -0.1034201,-0.0741 -0.2062761,-0.15028 -0.318289,-0.21105 -0.09165,-0.0501 -0.1880801,-0.0906 -0.2800583,-0.13999 -0.057693,-0.0275 -0.1118706,-0.0611 -0.1674701,-0.0924 -0.013245,-0.006 -0.027175,-0.0109 -0.041224,-0.015 0,0 0.2920873,-0.19701 0.2920873,-0.19701 v 0 c 0.014825,0.006 0.029574,0.013 0.043438,0.0213 0.053378,0.033 0.1073158,0.0648 0.1631249,0.0936 0.091909,0.0492 0.1877492,0.0906 0.2787362,0.14163 0.1115216,0.0645 0.2160217,0.14058 0.3198667,0.21667 0.094611,0.0751 0.1908283,0.14846 0.2886654,0.2193 0,0 -0.2969122,0.1851 -0.2969122,0.1851 z"
       inkscape:connector-curvature="0"
       style="stroke-width:0.26458332" />
    <path
       id="path1669"
       d="m 4.3100722,289.76536 c -0.037965,0.16436 -0.051775,0.33317 -0.067976,0.50073 -0.019391,0.21281 -0.024575,0.42649 -0.026939,0.64005 -3.704e-4,0.12688 0.015338,0.25303 0.037467,0.37774 0,0 -0.3034694,0.16097 -0.3034694,0.16097 v 0 c -0.019759,-0.12772 -0.037155,-0.25619 -0.035311,-0.38579 0.00441,-0.21463 0.010089,-0.4294 0.027982,-0.64341 0.01438,-0.16662 0.028812,-0.33331 0.052275,-0.49893 0,0 0.3159715,-0.15136 0.3159714,-0.15136 z"
       inkscape:connector-curvature="0"
       style="stroke-width:0.26458332" />
    <path
       id="path1671"
       d="m 6.9109512,293.84765 c -0.012938,0.0964 0.00754,0.19153 0.029404,0.2849 0.035899,0.12867 0.072356,0.25722 0.1004909,0.38784 0.023238,0.11845 0.054885,0.23522 0.091888,0.35007 0.029195,0.11226 0.074136,0.21802 0.1236787,0.3225 0.045911,0.0895 0.022783,0.046 0.069233,0.1306 0,0 -0.2968083,0.17022 -0.2968083,0.17022 v 0 c -0.045549,-0.086 -0.022259,-0.0421 -0.069874,-0.13185 -0.052496,-0.10484 -0.1005401,-0.21096 -0.1285735,-0.32539 -0.037223,-0.11617 -0.067922,-0.23456 -0.091737,-0.35421 -0.026661,-0.13054 -0.06425,-0.25839 -0.100648,-0.38649 -0.024456,-0.0963 -0.045974,-0.19321 -0.04196,-0.29332 0,0 0.3149055,-0.15487 0.3149062,-0.15487 z"
       inkscape:connector-curvature="0"
       style="stroke-width:0.26458332" />
    <path
       id="path1673"
       d="m 10.3213,289.68563 c -0.08259,-0.0678 -0.167806,-0.13239 -0.250106,-0.20054 -0.087017,-0.0714 -0.1734121,-0.14349 -0.2649452,-0.20907 -0.097609,-0.0714 -0.1974551,-0.13963 -0.2948607,-0.21131 -0.1028234,-0.0695 -0.1947034,-0.15316 -0.2931131,-0.22845 -0.076112,-0.0645 -0.1535292,-0.12751 -0.2291434,-0.19262 -0.049453,-0.0473 -0.1042654,-0.0882 -0.1565209,-0.13223 -0.045867,-0.0308 -0.088333,-0.0637 -0.125907,-0.10408 0,0 0.2990943,-0.18184 0.2990943,-0.18184 v 0 c 0.036499,0.0391 0.080553,0.0685 0.1227632,0.10099 0.052464,0.0438 0.1060664,0.0862 0.1553432,0.13368 0.074283,0.0652 0.1498846,0.12888 0.22537,0.19264 0.097366,0.0761 0.1900121,0.15821 0.2922645,0.22794 0.097789,0.0713 0.1979282,0.13921 0.2956811,0.21054 0.09145,0.0668 0.178796,0.13884 0.266089,0.21094 0.08243,0.0677 0.16606,0.13439 0.253509,0.19554 0,0 -0.295518,0.18787 -0.295518,0.18787 z"
       inkscape:connector-curvature="0"
       style="stroke-width:0.26458332" />
    <path
       id="path1675"
       d="m 8.3579585,287.74221 c 0.060373,-0.0845 0.1173009,-0.17127 0.180485,-0.25369 0.088398,-0.11833 0.1954004,-0.2204 0.3003794,-0.32362 0.1063278,-0.10121 0.2071891,-0.20784 0.3087729,-0.31375 0.066255,-0.0788 0.1396368,-0.15072 0.2178323,-0.21754 0.075076,-0.058 0.1516623,-0.11388 0.2299528,-0.16742 0.066771,-0.0471 0.1354381,-0.091 0.2050949,-0.13369 0.065476,-0.0402 0.126636,-0.0868 0.1903513,-0.1296 0.1439129,-0.0917 -0.05498,0.0344 0.3574869,-0.20876 0.08966,-0.0529 -0.3621115,0.20539 -0.270482,0.15601 0.116089,-0.0625 0.24758,-0.15172 0.376698,-0.21185 -0.01866,0.0112 0.06053,-0.0339 0.0455,-0.0252 -0.0932,0.0537 -0.371583,0.21669 -0.279723,0.16077 0.105037,-0.0639 0.212323,-0.12414 0.319266,-0.18485 0.01319,-0.007 0.02794,-0.0118 0.04146,-0.0187 0.03564,-0.0156 0.06872,-0.0365 0.106799,-0.0457 0.01855,-0.0111 0.0097,-0.006 0.0266,-0.0166 0,0 -0.274051,0.22067 -0.274051,0.22067 v 0 c -0.01872,0.008 -0.0088,0.004 -0.02998,0.0114 -0.03491,0.0151 -0.06872,0.0328 -0.103146,0.0489 -0.01355,0.006 -0.05307,0.028 -0.0401,0.0205 0.09318,-0.0542 0.372816,-0.21673 0.279802,-0.16222 -0.120819,0.0708 -0.239991,0.14636 -0.365521,0.20926 -0.01678,0.009 -0.06663,0.0361 -0.05028,0.0265 0.09057,-0.053 0.363745,-0.2094 0.272321,-0.15791 -0.109378,0.0616 -0.216621,0.12697 -0.326187,0.18825 -0.090347,0.0505 0.178765,-0.10443 0.268524,-0.156 0.01052,-0.006 -0.02052,0.0129 -0.03078,0.0194 -0.06576,0.0399 -0.125266,0.089 -0.190311,0.13004 -0.06944,0.0438 -0.1406433,0.0844 -0.2070068,0.13282 -0.078088,0.0533 -0.1548998,0.10803 -0.230808,0.16439 -0.080684,0.0643 -0.1566534,0.13498 -0.222123,0.2149 -0.102063,0.10713 -0.2051256,0.21341 -0.311672,0.31612 -0.1037852,0.10176 -0.2104223,0.20178 -0.2983979,0.31803 -0.063952,0.0793 -0.1197896,0.16461 -0.1754965,0.24979 0,0 -0.3212693,0.13934 -0.3212693,0.13934 z"
       inkscape:connector-curvature="0"
       style="stroke-width:0.26458332" />
    <path
       id="path1677"
       d="m 6.5945778,288.36243 c -0.085688,-0.0103 -0.1713137,-0.0183 -0.2557113,-0.037 -0.084672,-0.0265 -0.1687274,-0.0571 -0.2475719,-0.098 -0.091384,-0.0523 -0.1848308,-0.10074 -0.2779035,-0.14994 -0.096001,-0.0498 -0.191882,-0.0997 -0.286756,-0.15169 -0.08926,-0.0512 -0.1767948,-0.10555 -0.2606529,-0.16523 -0.074318,-0.0534 -0.1456291,-0.11043 -0.2144742,-0.17071 -0.067718,-0.0605 -0.1321213,-0.12456 -0.1990384,-0.18593 -0.060969,-0.0543 -0.1271537,-0.10164 -0.1853252,-0.15908 -0.03032,-0.0314 -0.015737,-0.0162 -0.043758,-0.0455 0,0 0.2985077,-0.18159 0.2985077,-0.18159 v 0 c 0.026689,0.0292 0.012655,0.0142 0.042189,0.0448 0.057656,0.0571 0.1234524,0.1042 0.1832057,0.15898 0.066323,0.0616 0.130897,0.1251 0.1987941,0.18505 0.06778,0.0596 0.1388917,0.11488 0.2116926,0.16821 0.082894,0.0585 0.1695992,0.11157 0.2572435,0.16257 0.095159,0.0514 0.1916764,0.10023 0.2872171,0.15094 0.092885,0.0493 0.185919,0.0983 0.2782123,0.14865 0.078074,0.037 0.1596237,0.0681 0.2430939,0.0904 0.084037,0.0164 0.1693204,0.0266 0.2549668,0.0287 0,0 -0.2839321,0.20629 -0.2839321,0.20629 z"
       inkscape:connector-curvature="0"
       style="stroke-width:0.26458332" />
    <path
       id="path1679"
       d="m 8.0400206,288.87257 c -0.071728,0.0351 -0.1448194,0.0672 -0.2172493,0.10075 -0.1243518,0.0592 -0.081104,0.0398 0.2222648,-0.13017 0.012949,-0.007 -0.025326,0.0155 -0.037767,0.0236 -0.035933,0.0234 -0.070002,0.0493 -0.1043604,0.0748 -0.073482,0.0556 -0.1358196,0.12374 -0.1982774,0.19101 -0.064699,0.0758 -0.1295043,0.15154 -0.1932419,0.22816 -0.06458,0.0851 -0.1260647,0.17273 -0.1846418,0.26204 -0.056371,0.0861 -0.1129647,0.17196 -0.1683864,0.25864 -0.046155,0.0735 -0.085762,0.15091 -0.1279387,0.22674 -0.046476,0.0797 -0.089896,0.1612 -0.1354612,0.24146 -0.049916,0.0868 -0.096386,0.17543 -0.1422066,0.26441 -0.043398,0.0846 -0.080828,0.17218 -0.1178454,0.25972 -0.020407,0.0589 -0.05002,0.11376 -0.075446,0.17044 -0.013605,0.0326 -0.020778,0.0671 -0.023553,0.10218 -9.79e-4,0.0171 -6.615e-4,0.009 -0.00101,0.025 0,0 -0.3141503,0.15939 -0.3141503,0.15939 v 0 c 2.524e-4,-0.0172 1.182e-4,-0.008 3.968e-4,-0.0267 0.0023,-0.0386 0.00754,-0.0767 0.020431,-0.11334 0.022685,-0.0589 0.058153,-0.11184 0.078144,-0.17191 0.037352,-0.0884 0.075627,-0.17662 0.1181272,-0.26265 0.04553,-0.0892 0.091392,-0.17833 0.1408596,-0.26546 0.045584,-0.08 0.089058,-0.1611 0.1346819,-0.24108 0.043784,-0.0756 0.082492,-0.15418 0.1281608,-0.22874 0.0552,-0.0872 0.1123521,-0.17318 0.1694476,-0.25918 0.056678,-0.0911 0.1208508,-0.17757 0.1823278,-0.26546 0.062652,-0.0778 0.1295268,-0.15212 0.1923487,-0.22975 0.061439,-0.0689 0.1242382,-0.13696 0.1946648,-0.19684 0.1617157,-0.1189 0.3262881,-0.23544 0.5142714,-0.31222 0.073896,-0.0333 0.1469461,-0.0683 0.2205053,-0.10228 0,0 -0.2751148,0.21743 -0.2751148,0.21743 z"
       inkscape:connector-curvature="0"
       style="stroke-width:0.26458332" />
    <path
       id="path1681"
       d="m 8.8546693,287.78753 c 0.085092,-0.12152 0.1758071,-0.23892 0.2638343,-0.3583 0.092149,-0.12655 0.1764196,-0.25826 0.2508297,-0.39595 0.055051,-0.10547 0.1004621,-0.21539 0.1524934,-0.32233 0.046889,-0.1053 0.1153912,-0.19793 0.1874811,-0.28703 0.073356,-0.0845 0.1543535,-0.16227 0.2426177,-0.23104 0.1780495,-0.13319 0.3714025,-0.24781 0.5729125,-0.3416 0.08522,-0.0411 0.173224,-0.0765 0.256843,-0.12071 -0.561201,0.3216 -0.119757,0.0689 0.06393,-0.0377 0.08969,-0.052 -0.179766,0.10342 -0.269649,0.15513 0.108373,-0.0625 0.216897,-0.12473 0.325118,-0.18749 0.09094,-0.0527 -0.182047,0.1052 -0.273279,0.15743 -0.0085,0.005 0.01662,-0.0102 0.02493,-0.0152 0.04653,-0.0325 0.09273,-0.066 0.135755,-0.10314 0.0303,-0.026 0.0615,-0.0508 0.0938,-0.0742 0.09447,-0.0785 0.459076,-0.25283 0.312219,-0.1086 -0.07293,0.0743 -0.158422,0.13512 -0.240696,0.19855 -0.116663,0.0904 -0.232063,0.18241 -0.347795,0.274 -0.126405,0.10631 -0.251241,0.21454 -0.374968,0.32397 -0.128156,0.10895 -0.2471584,0.22794 -0.3699817,0.34274 -0.1393317,0.13029 -0.2758355,0.26352 -0.4151987,0.39378 -0.1334606,0.12537 -0.2556931,0.26195 -0.3718354,0.40333 -0.063319,0.0836 -0.1278519,0.16663 -0.1840436,0.25527 -0.015124,0.0234 -0.028277,0.0479 -0.040698,0.0728 0,0 -0.3189552,0.1447 -0.3189552,0.1447 v 0 c 0.012494,-0.0263 0.024604,-0.0528 0.0412,-0.0768 0.055528,-0.0924 0.125177,-0.17536 0.1886413,-0.26228 0.116908,-0.14314 0.2407026,-0.2809 0.3739385,-0.40909 0.1387809,-0.12969 0.2747616,-0.26225 0.4127553,-0.39278 0.122859,-0.1149 0.2416937,-0.23425 0.369642,-0.34356 0.1232015,-0.10956 0.2481505,-0.21712 0.3726895,-0.32515 0.115567,-0.091 0.230246,-0.18318 0.346161,-0.27378 0.0801,-0.0617 0.163179,-0.12149 0.23609,-0.19137 0.09533,-0.10232 0.234793,-0.12128 0.369119,-0.17995 0.0214,-0.009 -0.01255,0.006 -0.02115,0.0145 -0.0037,0.003 -0.0064,0.008 -0.0095,0.0118 -0.03449,0.0207 -0.06589,0.0455 -0.09684,0.0712 -0.04485,0.0359 -0.08827,0.0733 -0.134847,0.10725 -0.125183,0.0856 -0.04461,0.0314 -0.348683,0.20403 -0.09103,0.0517 0.36208,-0.21028 0.271692,-0.15749 -1.0787998,0.63013 0.699805,-0.40777 -0.390633,0.22522 -0.08466,0.041 -0.17098,0.0784 -0.255888,0.1189 -0.134743,0.0659 -0.0489,0.0254 0.201309,-0.12252 0.0162,-0.01 -0.03304,0.0181 -0.04913,0.0278 -0.02509,0.0153 -0.06672,0.0439 -0.09054,0.0611 -0.0147,0.0106 -0.0291,0.0215 -0.04365,0.0323 -0.09017,0.0654 -0.171351,0.14166 -0.246359,0.22398 -0.073594,0.0855 -0.142589,0.17653 -0.1903828,0.27932 -0.05324,0.10739 -0.1000554,0.21751 -0.154291,0.32438 -0.073646,0.14002 -0.1595974,0.27258 -0.2511959,0.40151 -0.085829,0.11691 -0.1744959,0.23172 -0.2557603,0.35193 0,0 -0.3200352,0.14115 -0.3200352,0.14115 z"
       inkscape:connector-curvature="0"
       style="stroke-width:0.26458332" />
    <path
       id="path1683"
       d="m 8.1044938,287.53363 c -0.063666,-0.062 -0.1248196,-0.12675 -0.1897409,-0.18751 -0.071808,-0.0711 -0.1382752,-0.14743 -0.2052918,-0.22306 -0.063298,-0.0739 -0.1365253,-0.13795 -0.2043197,-0.20753 -0.068144,-0.0635 -0.1351267,-0.12845 -0.2052251,-0.18982 -0.068156,-0.0562 -0.1334982,-0.11545 -0.1978203,-0.17592 -0.051407,-0.049 -0.1021778,-0.0986 -0.152741,-0.14851 -0.03548,-0.0361 -0.070191,-0.0733 -0.098433,-0.11545 -0.022638,-0.0416 -0.031066,-0.088 -0.040697,-0.13379 0,0 0.3064385,-0.16402 0.3064385,-0.16402 v 0 c 0.00826,0.0414 0.016391,0.0829 0.03653,0.1205 0.027121,0.04 0.06037,0.0756 0.094048,0.11017 0.04961,0.0501 0.099172,0.10028 0.1502913,0.14887 0.063751,0.0603 0.129377,0.11859 0.1962965,0.1754 0.070619,0.0622 0.1386716,0.12731 0.2069772,0.19201 0.067752,0.0702 0.1413259,0.13462 0.2045771,0.20913 0.066565,0.0747 0.1317284,0.15079 0.2034945,0.22055 0.065154,0.0617 0.1271823,0.1266 0.1948281,0.18563 0,0 -0.2992128,0.18335 -0.2992124,0.18335 z"
       inkscape:connector-curvature="0"
       style="stroke-width:0.26458332" />
    <path
       id="path1685"
       d="m 11.578026,290.55596 c 0.09914,0.0312 0.200077,0.0565 0.300719,0.0824 0.117299,0.0268 0.233918,0.0568 0.349883,0.0889 0.14088,0.0365 0.284981,0.0565 0.429007,0.0756 0.07655,0.0126 0.153622,0.0213 0.230683,0.0299 0,0 -0.278918,0.19761 -0.278918,0.19761 v 0 c -0.07691,-0.01 -0.153884,-0.0192 -0.230574,-0.0306 -0.145519,-0.0202 -0.291206,-0.0408 -0.4336,-0.0779 -0.116139,-0.031 -0.23252,-0.0612 -0.349592,-0.0885 -0.103029,-0.0261 -0.206256,-0.0517 -0.308136,-0.0819 0,0 0.290528,-0.19555 0.290528,-0.19555 z"
       inkscape:connector-curvature="0"
       style="stroke-width:0.26458332" />
    <path
       id="path1687"
       d="m 11.519263,291.55394 c -0.0069,0.11599 0.0048,0.23178 0.01605,0.34709 0.009,0.0928 0.0045,0.048 0.01351,0.13434 0,0 -0.30467,0.15877 -0.30467,0.15877 v 0 c -0.0069,-0.087 -0.0031,-0.042 -0.01172,-0.1349 -0.01216,-0.11505 -0.02541,-0.23012 -0.02587,-0.34597 0,0 0.312707,-0.15933 0.312707,-0.15933 z"
       inkscape:connector-curvature="0"
       style="stroke-width:0.26458332" />
    <path
       id="path1689"
       d="m 5.1593686,293.69946 c 0.0047,-0.13046 0.00564,-0.26104 0.00508,-0.39157 0,0 0.3016813,-0.15372 0.3016813,-0.15372 v 0 c -5.556e-4,0.12881 2.911e-4,0.25767 0.00508,0.3864 0,0 -0.3118432,0.15889 -0.3118432,0.15889 z"
       inkscape:connector-curvature="0"
       style="stroke-width:0.26458332" />
    <path
       id="path1691"
       d="m 5.8469183,294.80073 c -0.00859,0.0776 -0.00489,0.0376 -0.010832,0.11984 0,0 -0.3070373,0.15402 -0.3070373,0.15402 v 0 c 0.00436,-0.0814 0.00279,-0.0419 0.00491,-0.11831 0,0 0.3129555,-0.15555 0.3129555,-0.15555 z"
       inkscape:connector-curvature="0"
       style="stroke-width:0.26458332" />
    <path
       id="path1693"
       d="m 7.7884122,296.70166 c 0.00671,0.1435 0.021466,0.28654 0.035401,0.42949 0,0 -0.2982981,0.15551 -0.2982981,0.15551 v 0 c -0.01256,-0.14082 -0.029097,-0.28109 -0.047487,-0.42126 0,0 0.3103843,-0.16374 0.3103841,-0.16374 z"
       inkscape:connector-curvature="0"
       style="stroke-width:0.26458332" />
    <path
       id="path1695"
       d="m 6.3845844,296.23826 c -0.045615,0.0465 -0.022487,0.0221 -0.069228,0.0732 0,0 -0.31829,0.13378 -0.31829,0.13378 v 0 c 0.044548,-0.0502 0.023492,-0.0259 0.063305,-0.0727 0,0 0.3242125,-0.13429 0.3242125,-0.13429 z"
       inkscape:connector-curvature="0"
       style="stroke-width:0.26458332" />
    <path
       id="path1697"
       d="m 9.6377219,295.57015 c 0.055437,0.0394 0.1137378,0.0748 0.1711992,0.11116 0,0 -0.2898807,0.18644 -0.2898807,0.18644 v 0 c -0.058198,-0.0374 -0.1174774,-0.0729 -0.1767964,-0.10841 0,0 0.2954779,-0.18919 0.2954779,-0.18919 z"
       inkscape:connector-curvature="0"
       style="stroke-width:0.26458332" />
    <path
       id="path1699"
       d="m 8.5138262,295.89307 c 0.5126503,-0.31049 0.228306,-0.13343 0.1187,-0.0532 0,0 -0.3201429,0.12703 -0.3201429,0.12703 v 0 c 0.1503629,-0.11191 0.3007836,-0.21286 0.4738872,-0.29421 0,0 -0.2724443,0.22042 -0.2724443,0.22042 z"
       inkscape:connector-curvature="0"
       style="stroke-width:0.26458332" />
    <path
       id="path1701"
       d="m 11.378859,293.67519 c 0.03836,-0.0535 0.07741,-0.10657 0.116006,-0.15994 0,0 0.319102,-0.13791 0.319102,-0.13791 v 0 c -0.03861,0.0519 -0.07623,0.10448 -0.113672,0.15721 0,0 -0.321436,0.14064 -0.321436,0.14064 z"
       inkscape:connector-curvature="0"
       style="stroke-width:0.26458332" />
    <path
       id="path1703"
       d="m 11.971424,294.36085 c 0.04083,0.14033 0.120017,0.2631 0.202882,0.38172 0,0 -0.292013,0.17173 -0.292013,0.17173 v 0 c -0.08345,-0.12247 -0.165902,-0.24613 -0.218902,-0.38555 0,0 0.308033,-0.1679 0.308033,-0.1679 z"
       inkscape:connector-curvature="0"
       style="stroke-width:0.26458332" />
    <path
       id="path1705"
       d="m 12.782097,284.37452 c -0.04081,-0.0963 -0.0859,-0.19073 -0.128559,-0.28627 0,0 0.301731,-0.16957 0.301731,-0.16957 v 0 c 0.0402,0.0964 0.08443,0.19093 0.131397,0.28425 0,0 -0.304569,0.17159 -0.304569,0.17159 z"
       inkscape:connector-curvature="0"
       style="stroke-width:0.26458332" />
    <path
       id="path1707"
       d="m 14.575023,285.12392 c 0.06597,-0.0129 0.03181,-0.006 0.102481,-0.0208 0,0 -0.274496,0.20843 -0.274496,0.20843 v 0 c -0.07266,0.0159 -0.03717,0.008 -0.106482,0.0241 0,0 0.278497,-0.21179 0.278497,-0.21179 z"
       inkscape:connector-curvature="0"
       style="stroke-width:0.26458332" />
    <path
       id="path1709"
       d="m 15.373283,288.19856 c 0.03217,0.11153 0.08756,0.21534 0.153797,0.31012 0.05572,0.0735 0.123815,0.1317 0.202723,0.17828 0,0 -0.291383,0.18776 -0.291383,0.18776 v 0 c -0.07959,-0.0526 -0.149851,-0.11488 -0.207049,-0.19193 -0.06847,-0.0984 -0.123122,-0.20571 -0.166267,-0.31757 0,0 0.308179,-0.16666 0.308179,-0.16666 z"
       inkscape:connector-curvature="0"
       style="stroke-width:0.26458332" />
    <path
       id="path1711"
       d="m 15.371232,286.51726 c 0.05233,-0.0756 0.100673,-0.15385 0.146516,-0.23357 0.0252,-0.0442 0.04885,-0.0893 0.07228,-0.13454 0,0 0.315764,-0.14212 0.315764,-0.14212 v 0 c -0.0241,0.0454 -0.04787,0.0909 -0.07264,0.13595 -0.04443,0.0794 -0.09167,0.15693 -0.140487,0.23364 0,0 -0.321436,0.14064 -0.321436,0.14064 z"
       inkscape:connector-curvature="0"
       style="stroke-width:0.26458332" />
    <path
       id="path1713"
       d="m 2.7441464,289.29028 c -0.052732,-0.12254 -0.1133059,-0.24157 -0.1739803,-0.36033 -0.064785,-0.1333 -0.1337195,-0.26452 -0.2017645,-0.39617 -0.04363,-0.0885 -0.095909,-0.17238 -0.1460215,-0.25733 -0.024276,-0.0461 -0.052135,-0.0902 -0.078198,-0.1353 0,0 0.3033914,-0.17454 0.3033914,-0.17454 v 0 c 0.024549,0.0458 0.052814,0.0894 0.075747,0.13602 0.049126,0.0863 0.1004044,0.17141 0.1433399,0.26102 0.066573,0.13245 0.1338051,0.26456 0.199108,0.39764 0.061272,0.11976 0.1226502,0.23946 0.1845146,0.35891 0,0 -0.3061364,0.17008 -0.3061366,0.17008 z"
       inkscape:connector-curvature="0"
       style="stroke-width:0.26458332" />
    <path
       id="path1715"
       d="m 2.857151,289.50946 c -0.096372,0.0614 -0.1823945,0.13736 -0.2669685,0.21378 -0.072933,0.0697 -0.1450161,0.14021 -0.2219249,0.20551 0,0 -0.3222333,0.12989 -0.3222333,0.12989 v 0 c 0.079391,-0.0638 0.1535287,-0.1336 0.2256748,-0.20541 0.083899,-0.0754 0.1672057,-0.15184 0.2593453,-0.21728 0,0 0.3261066,-0.12649 0.3261066,-0.12649 z"
       inkscape:connector-curvature="0"
       style="stroke-width:0.26458332" />
    <path
       id="path1717"
       d="m 3.0771499,291.9943 c -0.012684,0.007 -0.025456,0.0136 -0.038056,0.0206 -0.016997,0.009 -0.033816,0.0192 -0.050731,0.0288 -0.019016,0.0108 -0.076047,0.0432 -0.057059,0.0324 0.4385164,-0.2506 0.223267,-0.12949 0.1181364,-0.054 -0.052767,0.0375 -0.099884,0.0817 -0.1465429,0.12625 0,0 -0.3184201,0.13123 -0.3184201,0.13123 v 0 c 0.047042,-0.0458 0.093704,-0.0923 0.146783,-0.13134 0.1932319,-0.14471 0.4084736,-0.25581 0.6192192,-0.3726 0,0 -0.2733299,0.21863 -0.2733299,0.21863 z"
       inkscape:connector-curvature="0"
       style="stroke-width:0.26458332" />
    <path
       id="path1719"
       d="m 4.4317771,292.48113 c -0.00646,0.11217 0.0023,0.22403 0.019571,0.33482 0.022773,0.11599 0.05454,0.23006 0.086712,0.34374 0,0 -0.3005582,0.16343 -0.3005582,0.16343 v 0 c -0.030697,-0.11522 -0.065665,-0.22945 -0.089573,-0.34635 -0.018894,-0.11138 -0.027873,-0.22374 -0.027994,-0.33675 0,0 0.3118432,-0.15889 0.3118432,-0.15889 z"
       inkscape:connector-curvature="0"
       style="stroke-width:0.26458332" />
    <path
       id="path1721"
       d="m 3.2438371,284.91638 c -0.00815,-0.093 -0.024405,-0.18489 -0.033592,-0.27777 -0.00995,-0.0732 -0.00553,-0.14659 -3.704e-4,-0.21989 0,0 0.3111521,-0.15515 0.3111521,-0.15515 v 0 c -0.00741,0.0716 -0.012536,0.14321 -0.00387,0.215 0.00832,0.0922 0.022228,0.18349 0.036927,0.27484 0,0 -0.3102457,0.16297 -0.3102457,0.16297 z"
       inkscape:connector-curvature="0"
       style="stroke-width:0.26458332" />
    <path
       id="path1723"
       d="m 2.3202139,285.79228 c -0.076239,0.008 -0.1527911,0.0171 -0.2273034,0.0353 -0.07028,0.009 -0.1245845,0.0344 -0.1867659,0.0654 -0.00796,0.004 -0.015912,0.008 -0.023868,0.0122 0,0 0.2731932,-0.21849 0.2731932,-0.21849 v 0 c 0.00782,-0.004 0.015639,-0.008 0.023458,-0.0115 0.060891,-0.0291 0.1245491,-0.0463 0.1909975,-0.058 0.076673,-0.0144 0.1539789,-0.0246 0.2312373,-0.0351 0,0 -0.2809487,0.21027 -0.2809487,0.21027 z"
       inkscape:connector-curvature="0"
       style="stroke-width:0.26458332" />
    <path
       id="path1725"
       d="m 5.942069,282.45613 c 0.022175,-0.0808 0.045627,-0.1612 0.065982,-0.24245 0.011658,-0.0542 0.023897,-0.10955 0.022386,-0.16531 -0.00347,-0.0259 -0.00138,-0.0134 -0.00619,-0.0376 0,0 0.3096625,-0.16554 0.3096625,-0.16554 v 0 c 0.00531,0.0266 0.00272,0.0127 0.0077,0.0415 0.00706,0.0592 -0.00945,0.11902 -0.020434,0.17694 -0.020159,0.0808 -0.045317,0.16041 -0.062213,0.24194 0,0 -0.316897,0.15051 -0.316897,0.15051 z"
       inkscape:connector-curvature="0"
       style="stroke-width:0.26458332" />
    <path
       id="path1727"
       d="m 4.7716328,283.07999 c -0.066356,-0.0297 -0.1339963,-0.0566 -0.2009171,-0.0852 0,0 0.2887072,-0.19222 0.2887072,-0.19222 v 0 c 0.067221,0.0296 0.1355582,0.0563 0.2040112,0.083 0,0 -0.2918013,0.19446 -0.2918013,0.19446 z"
       inkscape:connector-curvature="0"
       style="stroke-width:0.26458332" />
    <path
       id="path1729"
       d="m 8.6063049,281.94302 c -0.013262,-0.087 -0.03266,-0.17309 -0.057842,-0.25743 -0.030197,-0.11224 -0.06643,-0.22251 -0.091258,-0.33613 -0.016282,-0.0612 -0.01488,-0.12404 -0.013864,-0.18665 0,0 0.3076678,-0.15535 0.3076678,-0.15535 v 0 c -0.00348,0.0603 -0.00735,0.12046 0.00859,0.17967 0.024424,0.11266 0.062098,0.22125 0.092404,0.33238 0.026212,0.0854 0.044457,0.1728 0.064686,0.25978 0,0 -0.3103843,0.16373 -0.3103838,0.16373 z"
       inkscape:connector-curvature="0"
       style="stroke-width:0.26458332" />
    <path
       id="path1731"
       d="m 9.8683917,281.2725 c 0.047979,-0.0449 0.1001112,-0.0852 0.1509363,-0.12677 0,0 0.320353,-0.12892 0.320353,-0.12892 v 0 c -0.04931,0.0401 -0.09918,0.0796 -0.147077,0.12139 0,0 -0.3242123,0.1343 -0.3242123,0.1343 z"
       inkscape:connector-curvature="0"
       style="stroke-width:0.26458332" />
    <path
       id="path1733"
       d="m 11.610233,281.6997 c 0.01373,-0.0807 0.03255,-0.16017 0.05233,-0.23951 0,0 0.31166,-0.149 0.31166,-0.149 v 0 c -0.02057,0.0769 -0.03926,0.15425 -0.04979,0.2333 0,0 -0.314203,0.15521 -0.314203,0.15521 z"
       inkscape:connector-curvature="0"
       style="stroke-width:0.26458332" />
    <path
       id="path1735"
       d="m 12.733556,282.50603 c 0.08675,-0.004 0.173553,-0.007 0.260328,-0.011 0,0 -0.275962,0.20221 -0.275962,0.20221 v 0 c -0.08852,0.003 -0.177219,0.007 -0.265198,0.0176 0,0 0.280832,-0.20882 0.280832,-0.20882 z"
       inkscape:connector-curvature="0"
       style="stroke-width:0.26458332" />
  </g>
</svg>
