<?xml version="1.0" encoding="UTF-8" standalone="no"?>
<!-- Created with Inkscape (http://www.inkscape.org/) -->

<svg
   xmlns:dc="http://purl.org/dc/elements/1.1/"
   xmlns:cc="http://creativecommons.org/ns#"
   xmlns:rdf="http://www.w3.org/1999/02/22-rdf-syntax-ns#"
   xmlns:svg="http://www.w3.org/2000/svg"
   xmlns="http://www.w3.org/2000/svg"
   xmlns:sodipodi="http://sodipodi.sourceforge.net/DTD/sodipodi-0.dtd"
   xmlns:inkscape="http://www.inkscape.org/namespaces/inkscape"
   width="64"
   height="64"
   viewBox="0 0 16.933333 16.933334"
   version="1.1"
   id="svg8"
   inkscape:version="0.92.1 r15371"
   sodipodi:docname="0_tree.svg"
   inkscape:export-filename="/home/physt/undev/repos/deep_learning/workshop/tasks/commonlearningdata/cartooncats/0_tree.png"
   inkscape:export-xdpi="96.000008"
   inkscape:export-ydpi="96.000008">
  <defs
     id="defs2" />
  <sodipodi:namedview
     id="base"
     pagecolor="#ffffff"
     bordercolor="#666666"
     borderopacity="1.0"
     inkscape:pageopacity="0.0"
     inkscape:pageshadow="2"
     inkscape:zoom="11.2"
     inkscape:cx="50.237003"
     inkscape:cy="29.986148"
     inkscape:document-units="mm"
     inkscape:current-layer="layer1"
     showgrid="false"
     inkscape:window-width="1920"
     inkscape:window-height="1016"
     inkscape:window-x="0"
     inkscape:window-y="27"
     inkscape:window-maximized="1"
     units="px" />
  <metadata
     id="metadata5">
    <rdf:RDF>
      <cc:Work
         rdf:about="">
        <dc:format>image/svg+xml</dc:format>
        <dc:type
           rdf:resource="http://purl.org/dc/dcmitype/StillImage" />
        <dc:title></dc:title>
      </cc:Work>
    </rdf:RDF>
  </metadata>
  <g
     inkscape:label="Layer 1"
     inkscape:groupmode="layer"
     id="layer1"
     transform="translate(0,-280.06665)">
    <path
       id="path1490"
       d="m 7.3329476,292.01925 c 0.00472,-0.14167 0.015597,-0.28306 0.027499,-0.42429 0.011218,-0.16802 0.021622,-0.33606 0.032691,-0.5041 0.00995,-0.16707 0.011171,-0.33441 0.020156,-0.50152 0.00654,-0.14429 0.018325,-0.28827 0.032602,-0.43199 0.016973,-0.14499 0.024738,-0.29072 0.029119,-0.43656 0.00716,-0.12549 0.016685,-0.25078 0.021389,-0.3764 0.00965,-0.11017 0.015674,-0.22068 0.025583,-0.33082 0.00887,-0.10205 0.019502,-0.20379 0.032144,-0.30543 0.00955,-0.0749 0.013192,-0.15036 0.014735,-0.22582 0.00729,-0.0722 0.014071,-0.14443 0.022455,-0.21647 0.00967,-0.078 0.020759,-0.1557 0.032878,-0.23336 0.00874,-0.0571 0.012475,-0.11479 0.014579,-0.17249 1.587e-4,-0.0273 0.00122,-0.0546 -6.19e-5,-0.0819 -0.0069,-0.12069 -0.012544,-0.019 0.3137617,-0.15052 0.00545,-0.002 -5.9e-5,0.0118 -1.601e-4,0.0176 -1.431e-4,0.008 -3.704e-4,0.0166 -5.821e-4,0.0249 -1.638e-4,0.0104 -3.175e-4,0.0208 -5.027e-4,0.0311 -0.00612,0.1362 -0.016708,0.27213 -0.022005,0.40844 -0.00494,0.2456 -0.023477,0.49061 -0.036802,0.73582 -0.017084,0.28835 -0.045881,0.57576 -0.073542,0.86322 -0.02168,0.30903 -0.056665,0.61685 -0.081896,0.92556 -0.027864,0.293 -0.048077,0.58666 -0.075036,0.87974 -0.024101,0.27838 -0.045475,0.55701 -0.066677,0.83562 -0.022566,0.29889 -0.035625,0.59826 -0.049708,0.89761 -0.014097,0.30712 -0.02674,0.61433 -0.042983,0.92134 -0.019325,0.2681 -0.046474,0.53558 -0.070578,0.80328 -0.020897,0.20602 -0.046874,0.41149 -0.069973,0.61728 -0.020095,0.16335 -0.039933,0.32679 -0.056598,0.49054 -0.011475,0.13804 -0.025098,0.27589 -0.04089,0.4135 -0.015023,0.1098 -0.015637,0.22073 -0.023884,0.33105 -0.00618,0.0748 -0.015986,0.14893 -0.028774,0.22284 -0.00421,0.0433 -0.019037,0.0842 -0.029947,0.126 -8.467e-4,0.004 -0.00172,0.007 -0.00257,0.0109 0,0 -0.3176093,0.1526 -0.3176093,0.1526 v 0 c 9.261e-4,-0.004 0.00188,-0.008 0.0028,-0.0117 0.010549,-0.0419 0.028124,-0.0819 0.033713,-0.1249 0.013393,-0.0735 0.025924,-0.14671 0.032085,-0.22125 0.012337,-0.11073 0.011054,-0.2228 0.026562,-0.33334 0.016693,-0.13767 0.031165,-0.27562 0.042756,-0.41381 0.016809,-0.16439 0.038274,-0.32829 0.058974,-0.49222 0.024397,-0.20636 0.051795,-0.41233 0.074843,-0.61882 0.025016,-0.26814 0.055318,-0.53582 0.075469,-0.80437 0.017333,-0.30701 0.030102,-0.61425 0.043718,-0.92144 0.014303,-0.29926 0.0254,-0.59864 0.047523,-0.89748 0.019981,-0.27885 0.042424,-0.55753 0.066054,-0.83609 0.028649,-0.29321 0.04868,-0.58721 0.077394,-0.88044 0.025432,-0.30864 0.06054,-0.61642 0.080874,-0.92549 0.02645,-0.28673 0.056645,-0.57318 0.071726,-0.86082 0.012901,-0.24401 0.029952,-0.48794 0.031744,-0.73238 0.0027,-0.13418 0.00887,-0.26828 0.012219,-0.40234 -2.911e-4,-0.0182 -0.00422,-0.0707 -0.00108,-0.0727 0.3022528,-0.18676 0.3181368,-0.29598 0.3140628,-0.16943 -9.525e-4,0.0281 -1.331e-4,0.0562 -0.00159,0.0843 -0.00198,0.0593 -0.00717,0.11851 -0.015243,0.1773 -0.011314,0.0776 -0.025059,0.15472 -0.033188,0.23278 -0.010374,0.0706 -0.011885,0.14223 -0.023392,0.21275 -0.00198,0.0768 -0.00473,0.15369 -0.014994,0.22991 -0.012938,0.10161 -0.026226,0.203 -0.034112,0.30518 -0.010673,0.10964 -0.014761,0.21987 -0.027005,0.3294 -0.00484,0.12591 -0.013637,0.25152 -0.023495,0.37713 -0.00412,0.1466 -0.011356,0.29315 -0.028365,0.43892 -0.014727,0.14334 -0.025366,0.28712 -0.033664,0.43097 -0.01116,0.16727 -0.012552,0.33479 -0.021262,0.5022 -0.010337,0.16824 -0.022426,0.33633 -0.032366,0.50459 -0.010776,0.13883 -0.023394,0.27815 -0.020193,0.41749 0,0 -0.3114112,0.15868 -0.3114112,0.15868 z"
       inkscape:connector-curvature="0"
       style="stroke-width:0.26458332" />
    <path
       id="path1492"
       d="m 8.953982,297.03603 c -0.087896,-0.0558 -0.1633109,-0.12829 -0.2352202,-0.20297 -0.099322,-0.10193 -0.178403,-0.2213 -0.2515952,-0.34275 -0.065326,-0.12082 -0.1148194,-0.25002 -0.1565198,-0.3807 -0.042084,-0.13667 -0.071215,-0.2768 -0.1002533,-0.41668 -0.027117,-0.13937 -0.049682,-0.27954 -0.073928,-0.41942 -0.025667,-0.13171 -0.036409,-0.26545 -0.041329,-0.39932 -0.00352,-0.15262 -0.00287,-0.30529 -0.00294,-0.45793 0.00402,-0.16162 0.015632,-0.32289 0.03281,-0.4836 0.016587,-0.15544 0.040291,-0.31002 0.064631,-0.46441 0.02735,-0.14898 0.057546,-0.29751 0.095883,-0.44408 0.032697,-0.13033 0.06425,-0.261 0.1002715,-0.39046 0.031373,-0.11235 0.078409,-0.2192 0.1174517,-0.32891 0.036879,-0.11454 0.064082,-0.23181 0.096288,-0.34767 0.032147,-0.1136 0.067463,-0.22604 0.1062807,-0.33753 0.042816,-0.11671 0.075633,-0.23664 0.1172546,-0.35378 0.038263,-0.10523 0.065566,-0.21384 0.1014246,-0.31985 0.036198,-0.10714 0.082135,-0.21047 0.1279448,-0.31373 0.042695,-0.10773 0.1007769,-0.20789 0.1552498,-0.30981 0.051407,-0.10167 0.1000453,-0.2047 0.1508006,-0.30671 0.042222,-0.0886 0.09255,-0.17296 0.1386091,-0.25954 0.039482,-0.0814 0.080575,-0.16197 0.1233353,-0.24167 0.036929,-0.0755 0.076162,-0.14977 0.1127072,-0.22542 0.035145,-0.0747 0.077599,-0.14545 0.1214186,-0.21525 0.050549,-0.0764 0.094839,-0.1567 0.1408705,-0.23586 0.051906,-0.089 0.1025685,-0.17862 0.1552575,-0.26718 0.06451,-0.10325 0.116197,-0.21348 0.167238,-0.32379 0.05898,-0.11741 0.114753,-0.23641 0.17372,-0.35381 0.06573,-0.13477 0.130799,-0.26972 0.203175,-0.40108 0.08916,-0.16291 0.177346,-0.32636 0.267141,-0.48892 0.116071,-0.20274 0.229619,-0.40714 0.351423,-0.60651 0.129747,-0.2141 0.270919,-0.42065 0.416209,-0.62439 0.140965,-0.20389 0.302778,-0.39187 0.468964,-0.57533 0.149987,-0.1765 0.31799,-0.33542 0.484062,-0.49631 0.157803,-0.15017 0.311467,-0.30459 0.46775,-0.45632 0.14803,-0.14048 0.292317,-0.28459 0.431078,-0.43422 0.13377,-0.15055 0.265872,-0.30227 0.388395,-0.46215 0.118276,-0.15657 0.227722,-0.31949 0.341924,-0.47898 0.110647,-0.15145 0.210185,-0.31043 0.310842,-0.46856 0.08935,-0.1373 0.17546,-0.27657 0.254784,-0.4199 0.06443,-0.11712 0.11904,-0.23913 0.17462,-0.36058 0.04529,-0.098 0.09281,-0.19479 0.135547,-0.29391 0.0361,-0.0823 0.06649,-0.16698 0.09525,-0.25207 0.01921,-0.0625 0.04407,-0.12298 0.06483,-0.18488 0.01465,-0.0399 0.02766,-0.0801 0.03506,-0.12195 0.0038,-0.026 0.0047,-0.0523 0.0048,-0.0786 0.0017,-0.0157 4.5e-4,-0.025 -0.0067,-0.0379 -0.0071,-0.017 -0.01124,-0.035 -0.0164,-0.0526 0,0 0.307696,-0.16823 0.307696,-0.16823 v 0 c 0.0046,0.0149 0.0093,0.0298 0.01448,0.0445 0.01053,0.0179 0.01858,0.0327 0.01519,0.0543 -2.15e-4,0.0279 -7.4e-4,0.0559 -0.004,0.0836 -0.005,0.0438 -0.01612,0.0867 -0.03349,0.12741 -0.01856,0.0635 -0.04895,0.12286 -0.06693,0.18666 -0.02874,0.0862 -0.06011,0.17167 -0.09532,0.25549 -0.04406,0.0992 -0.08952,0.19767 -0.137039,0.29534 -0.0568,0.1223 -0.111467,0.24571 -0.176435,0.364 -0.07866,0.14494 -0.165273,0.28513 -0.255924,0.42288 -0.101217,0.15835 -0.200322,0.31821 -0.310564,0.47054 -0.115557,0.15906 -0.224728,0.3227 -0.342531,0.48017 -0.121705,0.16152 -0.253944,0.31385 -0.387848,0.46536 -0.137755,0.15082 -0.281515,0.29573 -0.430116,0.43591 -0.157043,0.15164 -0.311166,0.30623 -0.469191,0.45685 -0.165687,0.1616 -0.336792,0.31785 -0.486432,0.49509 -0.166907,0.18221 -0.329552,0.36911 -0.471195,0.57198 -0.145061,0.20328 -0.28711,0.40857 -0.416814,0.62216 -0.122266,0.19769 -0.233054,0.40231 -0.349016,0.60373 -0.08926,0.16158 -0.17469,0.32524 -0.263206,0.48723 -0.07269,0.13013 -0.137971,0.2639 -0.201135,0.39888 -0.06048,0.11636 -0.113963,0.23631 -0.174683,0.3526 -0.05,0.11091 -0.100225,0.22217 -0.163621,0.32618 -0.05222,0.0885 -0.104067,0.17699 -0.154476,0.26649 -0.04595,0.0793 -0.09003,0.15964 -0.139373,0.23686 -0.04463,0.0682 -0.0871,0.13811 -0.122779,0.21148 -0.03752,0.0759 -0.076454,0.15093 -0.1129793,0.22732 -0.044102,0.0787 -0.08434,0.15965 -0.1236353,0.24083 -0.043967,0.088 -0.098,0.17074 -0.1401361,0.25976 -0.05123,0.10217 -0.1014319,0.20482 -0.1512234,0.30767 -0.052772,0.10217 -0.1140076,0.20008 -0.1560581,0.30754 -0.04474,0.10286 -0.092879,0.20443 -0.1285719,0.31097 -0.037607,0.10588 -0.064679,0.21484 -0.1021752,0.32076 -0.043297,0.11655 -0.075752,0.23636 -0.1175652,0.35336 -0.038266,0.11112 -0.075191,0.22253 -0.1069464,0.33572 -0.033819,0.11587 -0.060425,0.23368 -0.094886,0.3494 -0.038634,0.10963 -0.085067,0.21617 -0.1193879,0.32731 -0.036901,0.12942 -0.070154,0.25989 -0.1016852,0.39072 -0.040404,0.14532 -0.0703,0.2932 -0.098477,0.44133 -0.024786,0.15401 -0.048122,0.30837 -0.066143,0.46332 -0.018127,0.15945 -0.028307,0.31952 -0.033738,0.47989 -1.767e-4,0.15199 -5.027e-4,0.30402 0.0039,0.45596 0.00528,0.13249 0.013795,0.26502 0.03859,0.39555 0.024543,0.13946 0.046793,0.27931 0.073578,0.41838 0.028771,0.13876 0.05626,0.27804 0.099089,0.41334 0.040251,0.12838 0.088973,0.25494 0.1516896,0.37411 0.072132,0.11911 0.1499703,0.23623 0.2488035,0.33516 0.072282,0.0723 0.1474335,0.14333 0.237766,0.19289 0,0 -0.2954779,0.18919 -0.2954779,0.18919 z"
       inkscape:connector-curvature="0"
       style="stroke-width:0.26458332" />
    <path
       id="path1494"
       d="m 9.0370672,288.53236 c -0.017796,0.0897 -0.037732,0.17887 -0.059745,0.26762 -0.016343,0.0648 -0.026752,0.13083 -0.031211,0.19749 -0.00188,0.0331 -0.00235,0.0662 -0.00169,0.0993 -0.00209,0.004 0.01157,0.0409 0.014383,0.0314 0.00318,-0.002 0.010581,4.2e-4 0.01302,-0.003 0.0019,-0.002 0.0053,-0.01 0.00268,-0.009 -0.2611443,0.14115 -0.3815541,0.23225 -0.2768529,0.15384 0.036003,-0.0278 0.06656,-0.0613 0.097807,-0.0942 0.050973,-0.0535 0.098407,-0.11028 0.1460857,-0.16669 0.053109,-0.0637 0.1038995,-0.12923 0.154223,-0.19513 0.045423,-0.0657 0.089585,-0.13222 0.1366123,-0.19676 0.047779,-0.0624 0.097786,-0.12301 0.1404821,-0.18907 0.042962,-0.0663 0.085807,-0.13271 0.1276617,-0.19975 0.045553,-0.0742 0.093958,-0.14662 0.1402937,-0.22034 0.047912,-0.0829 0.099228,-0.16358 0.1525736,-0.24305 0.052257,-0.0814 0.093275,-0.16925 0.1357074,-0.25596 0.043919,-0.0882 0.1002942,-0.16923 0.1480692,-0.25535 0.04722,-0.0897 0.10056,-0.17596 0.15024,-0.2643 0.05137,-0.0925 0.09928,-0.18684 0.14701,-0.28123 0.0451,-0.0856 0.09261,-0.16988 0.134778,-0.25703 0.03868,-0.0832 0.08186,-0.16433 0.125899,-0.24483 0.03829,-0.0781 0.07681,-0.15597 0.117533,-0.23284 0.03681,-0.0701 0.06681,-0.14344 0.102503,-0.21413 0.03622,-0.0677 0.07097,-0.1361 0.107755,-0.20348 0.02745,-0.056 0.04955,-0.11429 0.07671,-0.17052 0.02705,-0.049 0.0559,-0.0969 0.08291,-0.14592 0.02517,-0.0405 0.04068,-0.0853 0.05885,-0.12899 0.01351,-0.0373 0.02881,-0.074 0.04469,-0.11038 0.01784,-0.0376 0.03266,-0.0764 0.04784,-0.11514 0.01293,-0.0444 0.03187,-0.086 0.05298,-0.12698 0.01885,-0.0343 0.03323,-0.0706 0.05139,-0.10523 0.01626,-0.0308 0.03798,-0.0579 0.06082,-0.0839 0.01628,-0.0252 0.0392,-0.0448 0.06082,-0.0652 0.02141,-0.0203 0.03836,-0.0445 0.06011,-0.0646 0.02158,-0.0212 0.04581,-0.0391 0.06856,-0.0587 0.105268,-0.0894 0.215713,-0.12538 0.347819,-0.21062 0.09033,-0.0583 -0.369498,0.21966 -0.279712,0.16054 0.01632,-0.0114 0.02977,-0.0246 0.04494,-0.0374 0.01629,-0.009 0.03377,-0.0219 0.04521,-0.0372 0.01383,-0.0174 0.02559,-0.0355 0.03757,-0.0541 0.02075,-0.0309 0.03821,-0.0634 0.05296,-0.0976 0.02057,-0.0452 0.03862,-0.0913 0.05674,-0.13752 0.02116,-0.0558 0.03541,-0.11362 0.05033,-0.17124 0.01711,-0.0749 0.03183,-0.15023 0.04787,-0.22534 0.01471,-0.0727 0.03145,-0.14482 0.04094,-0.21849 0.0076,-0.0787 0.01959,-0.15683 0.02597,-0.2357 0.0054,-0.0802 0.0063,-0.16069 0.0065,-0.24109 3.17e-4,-0.0817 3.44e-4,-0.16348 5.82e-4,-0.24522 1.59e-4,-0.0957 2.91e-4,-0.19148 1.23e-4,-0.28723 -2.91e-4,-0.0961 6.6e-5,-0.19212 2.32e-4,-0.28818 -5.82e-4,-0.10465 0.01091,-0.20888 0.01677,-0.31329 0.0081,-0.0894 0.01711,-0.17882 0.03095,-0.26757 0.0099,-0.0762 0.01989,-0.15229 0.03046,-0.2284 0.014,-0.0645 0.02369,-0.12958 0.03482,-0.19454 0.01368,-0.0565 0.01792,-0.1145 0.026,-0.17188 0.0083,-0.0665 0.04214,-0.12398 0.07421,-0.18137 0.03513,-0.0596 0.06423,-0.12238 0.09338,-0.18503 0,0 0.31083,-0.14177 0.31083,-0.14177 v 0 c -0.02849,0.062 -0.05519,0.12506 -0.08791,0.18504 -0.02901,0.0546 -0.06501,0.10788 -0.07616,0.16971 -0.01195,0.057 -0.01147,0.11618 -0.02614,0.17285 -0.01442,0.064 -0.01817,0.13017 -0.03696,0.19336 -0.01057,0.0764 -0.0214,0.15264 -0.03072,0.2292 -0.01384,0.0881 -0.02487,0.17653 -0.03411,0.26529 -0.0057,0.10383 -0.01694,0.20749 -0.01747,0.31149 1.67e-4,0.096 5.03e-4,0.19195 2.46e-4,0.28793 -1.45e-4,0.0957 1.6e-5,0.19132 3.17e-4,0.28697 3.44e-4,0.0816 7.15e-4,0.16327 5.56e-4,0.24491 -7.15e-4,0.0812 -0.001,0.16247 -0.0062,0.24354 -0.0052,0.0793 -0.01648,0.15765 -0.02434,0.23658 -0.0079,0.075 -0.02433,0.14795 -0.04004,0.22154 -0.01551,0.0754 -0.03153,0.15057 -0.04653,0.226 -0.01363,0.0587 -0.02831,0.11712 -0.04711,0.17444 -0.01722,0.047 -0.0359,0.0932 -0.05554,0.13915 -0.0156,0.0339 -0.02669,0.0704 -0.04953,0.10036 -0.01115,0.0207 -0.02269,0.0384 -0.0361,0.0576 -0.0064,0.009 -0.01044,0.0215 -0.0173,0.0294 -0.006,0.007 -0.01086,0.003 -0.01708,0.0101 -0.0026,0.003 -0.0035,0.007 -0.0053,0.01 -0.02613,0.0107 -0.01477,0.0127 -0.03026,0.0239 -0.03546,0.0257 0.01698,-0.0235 -0.01672,0.01 -0.03712,0.0346 -0.765629,0.44846 -0.03312,0.0226 0.0092,-0.005 -0.03837,0.0234 -0.03499,0.0289 -0.02547,0.0155 -0.04713,0.0359 -0.06985,0.0556 -0.02253,0.0194 -0.04569,0.0376 -0.06035,0.0638 -0.02111,0.0198 -0.04254,0.0391 -0.06374,0.0588 -0.01725,0.0296 -0.04579,0.0508 -0.06263,0.081 -0.02117,0.0334 -0.03555,0.0691 -0.0523,0.1049 -0.02269,0.0386 -0.04395,0.0788 -0.05513,0.12239 -0.01418,0.0396 -0.0293,0.0787 -0.04605,0.11728 -0.01745,0.0353 -0.0323,0.0721 -0.04584,0.10877 -0.01725,0.045 -0.03391,0.0909 -0.05823,0.13268 -0.025,0.0501 -0.0544,0.0979 -0.08348,0.1457 -0.02976,0.0556 -0.05351,0.11364 -0.0768,0.17217 -0.03858,0.0665 -0.07272,0.13535 -0.109603,0.20275 -0.03632,0.0705 -0.06706,0.14331 -0.101968,0.21445 -0.04081,0.0773 -0.08318,0.15377 -0.118208,0.23402 -0.04521,0.0793 -0.08723,0.16056 -0.126714,0.24282 -0.04169,0.0879 -0.08821,0.17323 -0.135625,0.2582 -0.04773,0.0947 -0.09553,0.18942 -0.146382,0.28251 -0.04893,0.0884 -0.102062,0.17442 -0.149454,0.26361 -0.04664,0.0867 -0.10205,0.16789 -0.149306,0.25415 -0.04261,0.0877 -0.08367,0.17646 -0.133449,0.26041 -0.05411,0.0784 -0.105765,0.15837 -0.152539,0.24136 -0.045169,0.0744 -0.094514,0.14609 -0.1397498,0.22044 -0.042299,0.0665 -0.082831,0.13415 -0.126891,0.19956 -0.04208,0.0673 -0.089396,0.13031 -0.139909,0.19161 -0.048356,0.0636 -0.092978,0.12998 -0.1366237,0.19684 -0.049182,0.0672 -0.1013587,0.13223 -0.1539494,0.19678 -0.045909,0.0573 -0.094452,0.11275 -0.1427223,0.16796 -0.03089,0.0326 -0.059499,0.069 -0.095027,0.0962 -0.094018,0.0982 -0.2382395,0.25744 -0.3617007,0.18038 -0.016002,-0.0175 -0.024617,-0.0391 -0.030689,-0.0619 3.175e-4,-0.0342 -1.413e-4,-0.0685 0.0023,-0.10268 0.00553,-0.0689 0.014383,-0.13746 0.032077,-0.20448 0.02154,-0.087 0.044075,-0.17366 0.057132,-0.26243 0,0 0.3149053,-0.15486 0.3149053,-0.15486 z"
       inkscape:connector-curvature="0"
       style="stroke-width:0.26458332" />
    <path
       id="path1496"
       d="m 12.980364,283.29012 c -0.0311,0.0782 -0.04699,0.16075 -0.06475,0.24262 -0.0098,0.0592 -0.02467,0.11929 -0.02289,0.17973 0.0027,0.0263 0.006,0.0495 0.02788,0.0656 0.02814,0.0124 0.05257,-0.001 0.08093,-0.005 0.123095,-0.0549 0.374435,-0.2054 -0.137756,0.084 0.07155,-0.0522 0.131182,-0.11716 0.185728,-0.1864 0.05809,-0.0781 0.116512,-0.15586 0.174746,-0.2338 0.04967,-0.0705 0.0977,-0.1422 0.145821,-0.21379 0.03122,-0.0543 0.06486,-0.10726 0.09655,-0.16131 0.02012,-0.0385 0.04254,-0.0756 0.06346,-0.11361 0.02109,-0.0346 0.03803,-0.0714 0.05681,-0.10721 0.01849,-0.039 0.04172,-0.0754 0.06103,-0.11394 0.01909,-0.039 0.03822,-0.078 0.05729,-0.11698 0.01421,-0.0371 0.02948,-0.074 0.04036,-0.11222 0.01345,-0.0481 0.02785,-0.096 0.04336,-0.14351 0.02018,-0.058 0.04196,-0.11559 0.06508,-0.17254 0.02444,-0.056 0.05775,-0.10729 0.08683,-0.16085 0.02694,-0.0523 0.06111,-0.0995 0.09933,-0.14389 0.04066,-0.0451 0.08369,-0.088 0.126555,-0.131 0.03623,-0.0405 0.0806,-0.0711 0.125335,-0.10114 0.04877,-0.0369 0.09431,-0.078 0.139341,-0.11937 0.04849,-0.0415 0.08922,-0.0904 0.130338,-0.1389 0.04467,-0.0547 0.08863,-0.10987 0.129898,-0.16716 0.04071,-0.0631 0.08197,-0.12567 0.124939,-0.18726 0.05031,-0.0758 0.107402,-0.14672 0.160826,-0.22029 0.05288,-0.0828 0.107383,-0.16444 0.163013,-0.24541 0,0 0.312961,-0.13618 0.312961,-0.13618 v 0 c -0.05605,0.0795 -0.111079,0.15956 -0.159486,0.24401 -0.05059,0.0747 -0.109045,0.14363 -0.158266,0.21931 -0.04374,0.0611 -0.08703,0.12268 -0.124476,0.18793 -0.0074,0.01 -0.01482,0.0194 -0.02223,0.0291 -0.0065,0.0103 -0.01225,0.021 -0.0194,0.0308 -0.02721,0.0374 -0.06113,0.0701 -0.08639,0.10905 -0.04191,0.0487 -0.08043,0.1004 -0.129126,0.14271 -0.04471,0.0422 -0.09109,0.0824 -0.136569,0.12363 -0.04322,0.031 -0.09133,0.0557 -0.127676,0.0954 -0.04297,0.0426 -0.0861,0.0851 -0.127621,0.12919 -0.03881,0.0422 -0.07549,0.086 -0.102945,0.13672 -0.02879,0.053 -0.05944,0.10462 -0.08799,0.15785 -0.02511,0.0554 -0.04472,0.11315 -0.06584,0.17011 -0.01685,0.046 -0.02805,0.0935 -0.04355,0.1399 -0.0084,0.0411 -0.0251,0.0785 -0.03764,0.11833 -0.01718,0.0404 -0.03919,0.0783 -0.05663,0.11849 -0.02013,0.0381 -0.03955,0.0759 -0.0611,0.11317 -0.01697,0.0373 -0.03732,0.073 -0.05543,0.10977 -0.0235,0.0364 -0.0426,0.0757 -0.06513,0.11274 -0.02848,0.0572 -0.06992,0.10694 -0.09718,0.16503 -0.0475,0.0728 -0.09882,0.14314 -0.146345,0.21597 -0.05757,0.0787 -0.118056,0.15536 -0.175158,0.23446 -0.0524,0.0716 -0.109811,0.13959 -0.180284,0.19426 -0.109001,0.0656 -0.21779,0.13153 -0.327003,0.19676 -0.04298,0.0257 -0.08923,0.0497 -0.138854,0.0586 -0.03625,0.006 -0.06943,0.005 -0.09941,-0.0194 -0.0263,-0.0255 -0.03656,-0.054 -0.04033,-0.0904 -0.0064,-0.0638 0.01292,-0.12752 0.02221,-0.19026 0.01712,-0.0816 0.03174,-0.16434 0.05995,-0.24296 0,0 0.316897,-0.15051 0.316897,-0.15051 z"
       inkscape:connector-curvature="0"
       style="stroke-width:0.26458332" />
    <path
       id="path1498"
       d="m 8.7260868,288.03569 c 0.00329,-0.10202 0.00254,-0.20413 0.00322,-0.3062 -3.704e-4,-0.12584 -0.00146,-0.2515 0.00623,-0.37715 0.00483,-0.12534 0.019799,-0.24974 0.036068,-0.374 0.017772,-0.12757 0.049472,-0.25247 0.07922,-0.37758 0.030295,-0.13601 0.078181,-0.26737 0.1276559,-0.39738 0.0443,-0.1226 0.095679,-0.2417 0.154832,-0.35779 0.054161,-0.11312 0.1131729,-0.22354 0.1753047,-0.33244 0.061145,-0.11309 0.1169514,-0.22854 0.1661176,-0.3473 0.054386,-0.12862 0.093665,-0.26256 0.1327285,-0.39639 0.048807,-0.15196 0.082956,-0.3075 0.1131096,-0.46402 0.032899,-0.16813 0.041607,-0.3393 0.047247,-0.51009 0.00901,-0.18793 -0.00857,-0.37505 -0.029491,-0.56152 -0.02791,-0.19508 -0.059812,-0.3897 -0.093859,-0.58381 -0.028952,-0.20013 -0.067743,-0.3983 -0.1114713,-0.59564 -0.045653,-0.18904 -0.079681,-0.38052 -0.1204955,-0.57059 -0.035972,-0.16679 -0.056682,-0.33609 -0.079726,-0.50494 -0.014664,-0.13051 -0.034204,-0.26044 -0.048183,-0.39103 -0.00498,-0.0588 -0.00697,-0.1178 -0.00969,-0.17674 0,0 0.3066513,-0.15766 0.3066513,-0.15766 v 0 c 0.00153,0.0584 0.00336,0.11669 0.00864,0.17485 0.012086,0.13089 0.030592,0.26105 0.044409,0.39176 0.021598,0.1685 0.041334,0.3374 0.076023,0.5039 0.040145,0.19028 0.074239,0.38179 0.1191946,0.57104 0.043056,0.19795 0.084805,0.39603 0.1120947,0.59695 0.033901,0.19471 0.068037,0.38952 0.095608,0.58521 0.02121,0.18762 0.04089,0.37589 0.0332,0.56507 -0.005,0.17218 -0.01248,0.34495 -0.04443,0.51463 -0.029396,0.15706 -0.061122,0.31365 -0.1100919,0.46602 -0.037921,0.13492 -0.076749,0.26971 -0.130451,0.39938 -0.047985,0.12018 -0.1025001,0.23696 -0.1636242,0.35105 -0.061328,0.10881 -0.1231251,0.21726 -0.1752645,0.33096 -0.060264,0.11502 -0.1144571,0.23221 -0.1574479,0.35494 -0.050645,0.12812 -0.098763,0.25818 -0.1291828,0.39276 -0.028477,0.12453 -0.062311,0.24804 -0.080842,0.37464 -0.016515,0.12346 -0.031137,0.24711 -0.036583,0.37164 -0.00817,0.12501 -0.00882,0.24995 -0.00722,0.37522 6.615e-4,0.10097 -9.71e-5,0.20199 0.00322,0.30292 0,0 -0.3127071,0.15933 -0.3127071,0.15933 z"
       inkscape:connector-curvature="0"
       style="stroke-width:0.26458332" />
    <path
       id="path1500"
       d="m 9.5854492,282.92707 c 0.019648,0.0851 0.029679,0.17188 0.036013,0.25889 0.00528,0.0886 0.00824,0.17756 0.00393,0.26626 -0.00388,0.0877 -0.024937,0.17288 -0.044316,0.25802 -0.00947,0.0487 -0.021378,0.0973 -0.041861,0.14265 -0.061858,0.11678 -0.2174941,0.14594 -0.3272652,0.209 -0.012729,0.007 -0.030347,8.7e-4 -0.042256,-0.003 -0.042765,-0.0113 -0.079737,-0.0404 -0.1106974,-0.0711 -0.056826,-0.0573 -0.093671,-0.12996 -0.1355971,-0.19798 -0.061561,-0.10529 -0.110998,-0.21735 -0.1545185,-0.33113 -0.04199,-0.13196 -0.092021,-0.26093 -0.1429166,-0.38964 -0.053375,-0.13477 -0.1012036,-0.27162 -0.1483124,-0.40867 -0.04858,-0.13488 -0.087775,-0.27276 -0.1285899,-0.4101 -0.042404,-0.13781 -0.086027,-0.27514 -0.1259644,-0.41368 -0.035705,-0.12911 -0.077676,-0.25629 -0.1257345,-0.3813 -0.040655,-0.10751 -0.073973,-0.21755 -0.1111062,-0.32627 -0.036971,-0.0985 -0.064316,-0.20026 -0.097892,-0.2999 -0.028384,-0.0887 -0.050194,-0.17934 -0.073372,-0.26949 -0.026693,-0.0881 -0.05185,-0.17641 -0.072718,-0.26607 0,0 0.3043418,-0.16369 0.3043418,-0.16369 v 0 c 0.019629,0.0897 0.048295,0.17647 0.073421,0.26467 0.022344,0.0896 0.044155,0.17943 0.071178,0.26771 0.033314,0.0997 0.060066,0.20161 0.097201,0.30009 0.036878,0.10849 0.069366,0.21843 0.1091332,0.32595 0.047803,0.12621 0.090221,0.25436 0.1261057,0.3845 0.039014,0.13869 0.082872,0.27577 0.1257615,0.41331 0.040936,0.13686 0.078754,0.27472 0.1273757,0.40915 0.04702,0.13651 0.094833,0.27279 0.1481098,0.40702 0.050885,0.12881 0.1016981,0.25766 0.1438968,0.38964 0.041997,0.11189 0.0923,0.22118 0.1535578,0.32387 0.04126,0.065 0.077485,0.13482 0.1342636,0.18807 0.028886,0.0247 0.060322,0.049 0.099788,0.0509 0.00982,-0.003 0.011824,-0.003 0.020839,-0.008 0.00308,-0.002 0.01189,-0.008 0.00885,-0.006 -0.5109723,0.30155 -0.3639815,0.22572 -0.2673551,0.15637 0.025125,-0.0415 0.039739,-0.0885 0.048877,-0.13606 0.019666,-0.0837 0.043609,-0.16698 0.04802,-0.25336 0.00628,-0.0873 0.00151,-0.17499 -0.00167,-0.26237 -0.00562,-0.0842 -0.013195,-0.16893 -0.036546,-0.25038 0,0 0.3080329,-0.1679 0.3080329,-0.1679 z"
       inkscape:connector-curvature="0"
       style="stroke-width:0.26458332" />
    <path
       id="path1502"
       d="m 8.3920432,284.47282 c -0.016041,-0.0912 -0.037798,-0.18098 -0.061788,-0.27035 -0.035414,-0.11464 -0.081222,-0.22585 -0.1208395,-0.33923 -0.045849,-0.12467 -0.079505,-0.2534 -0.117585,-0.38057 -0.041398,-0.13805 -0.077332,-0.2776 -0.117579,-0.416 -0.041587,-0.13612 -0.089738,-0.2701 -0.1325097,-0.40583 -0.035499,-0.12361 -0.075979,-0.24557 -0.1236522,-0.36501 -0.037604,-0.11051 -0.083234,-0.21775 -0.1358538,-0.32192 -0.050489,-0.11512 -0.1118502,-0.2249 -0.1727724,-0.33469 -0.058494,-0.10966 -0.1180205,-0.21875 -0.1762439,-0.32857 -0.061772,-0.1198 -0.126392,-0.23831 -0.1806766,-0.36175 -0.034403,-0.0896 -0.058524,-0.18276 -0.085248,-0.27486 0,0 0.2961412,-0.16146 0.2961412,-0.16146 v 0 c 0.025659,0.0905 0.051106,0.1813 0.086933,0.2685 0.055085,0.1221 0.1193004,0.23987 0.1805448,0.35895 0.059092,0.10918 0.1183579,0.21824 0.1764633,0.32794 0.060677,0.11038 0.1229098,0.22011 0.1735659,0.3356 0.053594,0.10482 0.100833,0.21266 0.1376254,0.32459 0.047477,0.12053 0.088208,0.24345 0.123476,0.36812 0.041513,0.13634 0.091273,0.27002 0.1322724,0.40654 0.040934,0.1381 0.075895,0.2778 0.1178054,0.41558 0.038491,0.12646 0.072784,0.25438 0.1177991,0.37871 0.040234,0.11397 0.086133,0.22578 0.1238758,0.34043 0.024283,0.0886 0.045874,0.17785 0.066279,0.26738 0,0 -0.308033,0.1679 -0.3080332,0.1679 z"
       inkscape:connector-curvature="0"
       style="stroke-width:0.26458332" />
    <path
       id="path1504"
       d="m 7.8250059,288.46175 c -0.023225,-0.13425 -0.047538,-0.26832 -0.072893,-0.40218 -0.03223,-0.18083 -0.060536,-0.36236 -0.09534,-0.54271 -0.031911,-0.1739 -0.06503,-0.3475 -0.092225,-0.52222 -0.029472,-0.18495 -0.051299,-0.37098 -0.078063,-0.55631 -0.022423,-0.19274 -0.058201,-0.38321 -0.099976,-0.57256 -0.0393,-0.16816 -0.086746,-0.33426 -0.1369796,-0.49944 -0.041584,-0.15129 -0.093931,-0.29916 -0.158673,-0.44204 -0.052296,-0.1235 -0.1251357,-0.23547 -0.2026944,-0.34416 -0.071143,-0.10719 -0.1586528,-0.20251 -0.2542587,-0.28822 -0.089486,-0.0823 -0.1909265,-0.14912 -0.2943355,-0.2123 -0.1030779,-0.0541 -0.211029,-0.0981 -0.3189099,-0.1415 -0.1123291,-0.0444 -0.2242196,-0.0896 -0.3345244,-0.1388 -0.1134986,-0.0566 -0.2211226,-0.12388 -0.3285508,-0.19107 -0.1292122,-0.0836 -0.2488814,-0.18019 -0.3626652,-0.2835 -0.1419579,-0.13274 -0.2721901,-0.27703 -0.3983342,-0.42463 -0.1302668,-0.15765 -0.2450856,-0.32668 -0.3509205,-0.5014 -0.107156,-0.17403 -0.2004555,-0.3559 -0.2968546,-0.53594 -0.1004887,-0.18931 -0.1905042,-0.38376 -0.2767653,-0.57987 -0.081904,-0.18366 -0.1515811,-0.37182 -0.2182651,-0.56138 -0.059763,-0.16715 -0.1155941,-0.338 -0.1409448,-0.51439 -0.00628,-0.0437 -0.00874,-0.0879 -0.013109,-0.13183 -0.00249,-0.04 -0.00497,-0.0799 -0.00745,-0.11991 0,0 0.2966233,-0.15309 0.2966233,-0.15309 v 0 c 0.00169,0.0398 0.00337,0.0796 0.00505,0.11937 0.00432,0.0428 0.00664,0.0858 0.012954,0.1284 0.025858,0.1744 0.0851,0.34219 0.1423043,0.50809 0.066603,0.18875 0.134661,0.37675 0.2155531,0.56001 0.085626,0.19545 0.1754651,0.38899 0.2764581,0.57708 0.09556,0.17979 0.1894885,0.3606 0.2955338,0.53455 0.1051488,0.17302 0.2194972,0.3402 0.3486835,0.49636 0.1255805,0.1464 0.2552078,0.28981 0.398367,0.41942 0.1136806,0.10109 0.2331336,0.19529 0.3616886,0.27699 0.1069506,0.0659 0.2142037,0.13172 0.3275785,0.18611 0.1099282,0.049 0.2214528,0.094 0.3334273,0.13802 0.1093828,0.044 0.2189856,0.0886 0.3219733,0.14642 0.1047877,0.0648 0.2069492,0.13365 0.297302,0.21795 0.096524,0.0884 0.18527,0.18561 0.2582863,0.29453 0.078218,0.11094 0.1515819,0.22513 0.2045168,0.35076 0.064735,0.14453 0.117098,0.29404 0.1595678,0.44662 0.049901,0.16631 0.09733,0.33348 0.1362559,0.50275 0.042112,0.1901 0.077555,0.38147 0.1006047,0.57492 0.028067,0.18494 0.049267,0.37084 0.0791,0.55552 0.026831,0.17439 0.061081,0.34737 0.09179,0.5211 0.03409,0.18038 0.062401,0.3618 0.095823,0.54231 0.026427,0.132 0.050113,0.26455 0.08147,0.39551 0,0 -0.308179,0.16666 -0.3081793,0.16666 z"
       inkscape:connector-curvature="0"
       style="stroke-width:0.26458332" />
    <path
       id="path1506"
       d="m 7.590665,289.25995 c -0.015409,-0.11296 -0.035426,-0.22504 -0.048685,-0.33832 -0.00815,-0.1218 -0.019958,-0.24299 -0.037639,-0.36377 -0.014809,-0.11513 -0.044785,-0.22672 -0.074639,-0.33854 -0.031441,-0.11528 -0.058808,-0.2316 -0.090026,-0.34697 -0.022521,-0.11476 -0.062528,-0.22427 -0.1134018,-0.32925 -0.042543,-0.10541 -0.1114451,-0.19473 -0.1768837,-0.28623 -0.071266,-0.0941 -0.1491292,-0.18292 -0.2213795,-0.27625 -0.085969,-0.0999 -0.1775482,-0.19426 -0.2766719,-0.28108 -0.093078,-0.0882 -0.2004772,-0.15668 -0.3087764,-0.22397 -0.1148025,-0.07 -0.2389418,-0.1216 -0.3639881,-0.16995 -0.123529,-0.0495 -0.244938,-0.10323 -0.3664572,-0.15747 -0.1182246,-0.0529 -0.237952,-0.10244 -0.3580662,-0.1509 -0.1344274,-0.0516 -0.2654969,-0.11165 -0.3949565,-0.17459 -0.1470641,-0.0738 -0.2859352,-0.16237 -0.4240561,-0.25143 -0.1472322,-0.0961 -0.2894211,-0.20002 -0.4260612,-0.31062 -0.1489006,-0.12444 -0.2873531,-0.26063 -0.42555,-0.39665 -0.1413571,-0.13921 -0.2826279,-0.27852 -0.4125108,-0.4286 -0.1334487,-0.14723 -0.2553423,-0.30426 -0.3804058,-0.45854 -0.1216745,-0.14696 -0.2338481,-0.3012 -0.3480166,-0.45395 -0.097427,-0.136 -0.1980757,-0.26967 -0.294629,-0.40631 -0.081879,-0.11589 -0.1575008,-0.23598 -0.2386715,-0.35235 -0.071562,-0.1045 -0.1419793,-0.20952 -0.2164316,-0.312 -0.066969,-0.0997 -0.1442015,-0.19177 -0.2137537,-0.28953 -0.040755,-0.0623 -0.077789,-0.12697 -0.1161358,-0.19078 0,0 0.2954615,-0.17111 0.2954615,-0.17111 v 0 c 0.037337,0.0633 0.075049,0.12645 0.1167033,0.18709 0.070128,0.0973 0.1470987,0.18952 0.2137616,0.28932 0.074266,0.10292 0.1444386,0.20837 0.2159949,0.31317 0.079838,0.11709 0.1565543,0.23622 0.2365794,0.35319 0.095989,0.13659 0.1962747,0.27004 0.2922317,0.40666 0.1135732,0.15259 0.2251951,0.30668 0.3465835,0.45326 0.124386,0.15432 0.2462983,0.31089 0.3798031,0.45753 0.1296934,0.14905 0.2698265,0.28821 0.4108833,0.42645 0.1377352,0.13514 0.2758647,0.27034 0.4249968,0.39303 0.1366589,0.10902 0.2781943,0.21215 0.4250989,0.30699 0.1374891,0.0881 0.2759088,0.17547 0.4228528,0.24721 0.1297858,0.0618 0.2609956,0.12071 0.3954844,0.1716 0.1203243,0.0487 0.2401594,0.0987 0.358544,0.15205 0.1209445,0.0539 0.2420943,0.10692 0.3649136,0.15649 0.1267322,0.0496 0.2522786,0.10283 0.3683955,0.17464 0.1098706,0.0682 0.2170922,0.14016 0.3118207,0.22893 0.099555,0.0893 0.1926307,0.18516 0.2802435,0.28622 0.07343,0.093 0.1513573,0.18232 0.2226088,0.27707 0.067419,0.0926 0.1365207,0.1841 0.1795727,0.2915 0.052172,0.10666 0.09453,0.21779 0.1169524,0.33478 0.030844,0.11549 0.058207,0.23187 0.089915,0.3471 0.030186,0.11304 0.061371,0.22561 0.076871,0.34193 0.017335,0.12134 0.029819,0.24295 0.036823,0.36536 0.012509,0.11271 0.031734,0.22425 0.054739,0.33527 0,0 -0.3100422,0.16232 -0.310042,0.16232 z"
       inkscape:connector-curvature="0"
       style="stroke-width:0.26458332" />
    <path
       id="path1508"
       d="m 3.5203587,284.35976 c -0.060955,-0.0958 -0.1130609,-0.19692 -0.1602062,-0.30014 -0.054781,-0.12135 -0.097093,-0.24763 -0.1349616,-0.37511 -0.03068,-0.10728 -0.052112,-0.21605 -0.063226,-0.32698 -0.00843,-0.11047 -0.00843,-0.22132 -0.00894,-0.33205 0.0023,-0.0938 -0.00235,-0.18696 -0.01026,-0.28033 -0.00553,-0.0985 -0.025097,-0.19533 -0.038729,-0.29283 -0.018238,-0.11387 -0.036706,-0.22771 -0.06147,-0.34037 -0.03395,-0.13355 -0.07073,-0.26641 -0.1008414,-0.40091 -0.031774,-0.13959 -0.059528,-0.28005 -0.09055,-0.41981 -0.031502,-0.12439 -0.057415,-0.25013 -0.089447,-0.37437 -0.028316,-0.11492 -0.053208,-0.23066 -0.087893,-0.34387 -0.0345,-0.10748 -0.076767,-0.21225 -0.1105084,-0.31997 -0.033998,-0.12113 -0.042945,-0.24572 -0.048907,-0.37068 0,0 0.302749,-0.15579 0.302749,-0.15579 v 0 c 0.00394,0.12198 0.014864,0.24278 0.048436,0.36074 0.033595,0.1078 0.075331,0.21288 0.1103669,0.32023 0.03501,0.11374 0.060238,0.22992 0.088055,0.34557 0.032196,0.12475 0.057465,0.25114 0.088875,0.37609 0.030438,0.13991 0.058644,0.28029 0.089712,0.42005 0.030443,0.13424 0.067384,0.2669 0.1027599,0.3999 0.026024,0.11317 0.044966,0.22771 0.063852,0.34226 0.013959,0.0979 0.035256,0.19491 0.040883,0.29386 0.00807,0.0945 0.014952,0.18862 0.010282,0.28353 2.32e-5,0.10972 -1.12e-5,0.21959 0.00768,0.32911 0.00986,0.10913 0.029985,0.2162 0.058669,0.32203 0.036141,0.12625 0.077759,0.2512 0.1321088,0.3709 0.046757,0.10082 0.096868,0.20125 0.1630762,0.29093 0,0 -0.3015604,0.17801 -0.3015604,0.17801 z"
       inkscape:connector-curvature="0"
       style="stroke-width:0.26458332" />
    <path
       id="path1510"
       d="m 8.51552,284.30593 c -0.017825,0.0585 -0.045243,0.11324 -0.069093,0.16937 -0.056991,0.1271 -0.2428074,0.29466 -0.365379,0.20564 -0.040276,-0.0229 -0.062202,-0.0668 -0.089175,-0.10304 -0.045819,-0.0661 -0.09451,-0.1302 -0.1446887,-0.19303 -0.061059,-0.0778 -0.1259081,-0.15274 -0.1922073,-0.22614 -0.068386,-0.0828 -0.1400406,-0.16276 -0.2134648,-0.24113 -0.076561,-0.0843 -0.1489684,-0.17228 -0.2159048,-0.26441 -0.06452,-0.0845 -0.1285478,-0.16878 -0.200407,-0.24729 -0.065164,-0.0791 -0.1373878,-0.1519 -0.2141691,-0.21972 -0.085297,-0.074 -0.1827588,-0.1313 -0.2810809,-0.18587 -0.092804,-0.0413 -0.1856753,-0.0819 -0.2766902,-0.12702 -0.087801,-0.0432 -0.1747131,-0.0881 -0.2589424,-0.13796 -0.081734,-0.0445 -0.1580853,-0.095 -0.2264814,-0.15812 -0.068245,-0.0627 -0.121697,-0.13923 -0.1713569,-0.21695 -0.05775,-0.0948 -0.094964,-0.19927 -0.1338183,-0.30264 -0.046426,-0.11866 -0.094622,-0.23654 -0.1446205,-0.35376 -0.048094,-0.1187 -0.099142,-0.236 -0.1541981,-0.3516 -0.054763,-0.10638 -0.1202375,-0.20644 -0.1770266,-0.31169 -0.056822,-0.0971 -0.1134816,-0.19413 -0.1672397,-0.29292 -0.04788,-0.0927 -0.098213,-0.18432 -0.1440122,-0.27809 -0.040789,-0.0815 -0.076128,-0.16527 -0.1133205,-0.24837 -0.049616,-0.10164 -0.065747,-0.20975 -0.070904,-0.32151 -3.44e-4,-0.0235 -7.144e-4,-0.047 -0.00106,-0.0704 0,0 0.3049289,-0.15565 0.3049289,-0.15565 v 0 c -2.28e-5,0.0231 -4.58e-5,0.0463 -6.86e-5,0.0694 0.00543,0.10715 0.022286,0.21031 0.069215,0.30793 0.03679,0.0829 0.072138,0.16634 0.1122265,0.24778 0.044593,0.0938 0.09474,0.18488 0.14224,0.2772 0.053548,0.0989 0.1098383,0.19628 0.1669404,0.29321 0.056907,0.10576 0.1216594,0.20697 0.1766914,0.31377 0.055737,0.11588 0.1067075,0.23373 0.1547746,0.35303 0.049882,0.1177 0.098947,0.23572 0.1468306,0.35422 0.037835,0.10115 0.07358,0.20354 0.1315712,0.29548 0.048449,0.075 0.1001397,0.1489 0.1668404,0.20904 0.067742,0.0604 0.1431814,0.10842 0.2225913,0.15223 0.083653,0.0492 0.169949,0.0935 0.257179,0.13602 0.09144,0.0449 0.185072,0.0847 0.2766475,0.12922 0.099913,0.0566 0.1983023,0.11667 0.2856529,0.19179 0.077198,0.0692 0.1500285,0.14293 0.2161233,0.22287 0.071926,0.08 0.1370539,0.1649 0.2015638,0.25096 0.066111,0.091 0.1380813,0.1775 0.2139614,0.26055 0.073696,0.0785 0.1450962,0.1591 0.21477,0.24122 0.066244,0.0743 0.1314643,0.14965 0.1934019,0.22757 0.051009,0.0628 0.1003501,0.12702 0.1479471,0.19244 0.024032,0.0316 0.043903,0.0709 0.082315,0.0864 0.00497,-8.5e-4 0.018479,-0.008 0.014126,-0.005 -0.6586858,0.38442 -0.3246247,0.22703 -0.2607302,0.14101 0.023744,-0.055 0.052874,-0.10769 0.070611,-0.16519 0,0 0.316897,-0.15051 0.316897,-0.15051 z"
       inkscape:connector-curvature="0"
       style="stroke-width:0.26458332" />
    <path
       id="path1512"
       d="m 6.9290355,280.45474 c -0.027414,-0.17589 -0.019756,-0.35433 -0.020077,-0.53165 0,0 0.2969689,-0.15127 0.2969689,-0.15127 v 0 c -6.615e-4,0.17316 -0.005,0.34925 0.033492,0.51919 0,0 -0.3103843,0.16373 -0.3103839,0.16373 z"
       inkscape:connector-curvature="0"
       style="stroke-width:0.26458332" />
    <path
       id="path1514"
       d="m 8.7569761,284.5828 c 0.00591,0.0759 0.015756,0.15117 0.027424,0.22637 0.010681,0.0742 0.016555,0.14901 0.013517,0.22393 -0.010411,0.1039 -0.047635,0.2024 -0.080447,0.3008 -0.025993,0.0771 -0.045661,0.15624 -0.063379,0.23561 -0.01138,0.0542 -0.014936,0.10937 -0.016671,0.16453 -7.144e-4,0.0324 -5.027e-4,0.0648 1.75e-5,0.0972 4.498e-4,0.0186 4.498e-4,0.0371 6.085e-4,0.0557 0.00378,0.0186 -0.00415,0.0306 -0.012782,0.046 -0.2002277,0.1261 -0.3025984,0.27087 -0.3478641,0.10184 -0.011277,-0.0442 -0.024744,-0.0876 -0.039191,-0.13082 -0.025604,-0.0718 -0.046199,-0.14518 -0.068768,-0.21794 -0.031237,-0.10436 -0.057978,-0.20998 -0.089181,-0.31434 -0.029121,-0.095 -0.054713,-0.19085 -0.079014,-0.28717 -0.016899,-0.0799 -0.056191,-0.15121 -0.092916,-0.22317 -0.022376,-0.0387 -0.034195,-0.082 -0.047469,-0.12433 0,0 0.3042465,-0.16651 0.3042465,-0.16651 v 0 c 0.011988,0.0407 0.0234,0.0819 0.045177,0.11876 0.037247,0.0746 0.078788,0.1478 0.096217,0.23038 0.022797,0.0963 0.047669,0.19194 0.076041,0.28675 0.031329,0.10397 0.058559,0.20911 0.090533,0.3129 0.023656,0.072 0.044671,0.14497 0.071257,0.216 0.014557,0.0432 0.030018,0.0861 0.041585,0.13019 0.00356,0.01 0.00466,0.0208 0.00865,0.0305 0.0013,0.003 0.010224,0.005 0.00731,0.007 -0.099015,0.0592 -0.1997726,0.11542 -0.2996589,0.17312 0.00319,-0.005 0.00979,-0.0214 0.01487,-0.0236 0.00204,-8.7e-4 0.00473,0.003 0.00645,0.002 0.00185,-0.002 6.11e-5,-0.005 9.18e-5,-0.007 7.25e-5,-0.0186 -4.58e-5,-0.0373 1.312e-4,-0.0559 1.542e-4,-0.033 -4.47e-5,-0.066 7.673e-4,-0.099 0.00185,-0.0573 0.00572,-0.11462 0.016065,-0.17107 0.016121,-0.0814 0.038903,-0.16174 0.064423,-0.24064 0.03254,-0.0954 0.068854,-0.19087 0.082608,-0.29125 0.00436,-0.0727 -0.00161,-0.14547 -0.01075,-0.21762 -0.010705,-0.075 -0.021185,-0.14991 -0.030252,-0.22511 0,0 0.3103843,-0.16374 0.3103843,-0.16374 z"
       inkscape:connector-curvature="0"
       style="stroke-width:0.26458332" />
    <path
       id="path1516"
       d="m 10.946913,287.51303 c -0.0019,-0.0882 0.02022,-0.17353 0.04721,-0.25673 0.03903,-0.11205 0.102453,-0.21213 0.171591,-0.30765 0.09706,-0.13071 0.207344,-0.25027 0.32528,-0.36219 0.147573,-0.13688 0.298243,-0.2702 0.455483,-0.39587 0.160729,-0.12588 0.320503,-0.25314 0.4841,-0.37532 0.216817,-0.16693 0.456307,-0.29716 0.692766,-0.43365 -0.0796,0.0456 -0.158905,0.0917 -0.238792,0.13686 -0.01764,0.01 0.03467,-0.021 0.05204,-0.0314 0.03611,-0.0217 0.06265,-0.0376 0.09906,-0.0586 0.354755,-0.20428 0.224074,-0.14191 0.391713,-0.21973 0.09499,-0.0447 0.194697,-0.0781 0.295234,-0.10782 0.10359,-0.032 0.209928,-0.0528 0.315701,-0.0758 0.102582,-0.0208 0.204425,-0.0465 0.305169,-0.075 0.121701,-0.0299 0.241713,-0.0659 0.361296,-0.10318 0.142719,-0.0497 0.28347,-0.10475 0.421251,-0.16679 0.02377,-0.0111 0.04771,-0.0219 0.07132,-0.0334 0.02359,-0.0115 0.04701,-0.0233 0.07025,-0.0355 0.02345,-0.0123 0.09267,-0.0513 0.06979,-0.0379 -0.451019,0.26278 -0.189367,0.10591 -0.09206,0.0455 0.130042,-0.0794 0.252117,-0.17084 0.371883,-0.26476 0.126458,-0.10087 0.251355,-0.20369 0.376003,-0.30678 0.10752,-0.0908 0.217825,-0.17871 0.331852,-0.26127 0.07152,-0.0522 0.139437,-0.10921 0.21401,-0.15703 0.150849,-0.10112 0.308946,-0.1908 0.47,-0.27488 0.04104,-0.0223 0.08472,-0.0394 0.125704,-0.0616 -0.02011,0.004 0.06689,-0.0348 0.04297,-0.0209 -0.09244,0.0539 -0.371786,0.21193 -0.279159,0.15839 0.103944,-0.0601 0.20809,-0.11981 0.312136,-0.17972 0.0043,-0.001 0.01692,-0.005 0.01305,-0.003 -0.518691,0.30268 -0.373651,0.21166 -0.272842,0.15331 0.103455,-0.0599 0.202898,-0.12762 0.311214,-0.17819 0.102372,-0.0478 -0.195543,0.11322 -0.293315,0.16983 0.0078,-0.004 0.01343,-0.0106 0.01946,-0.0167 0,0 0.322549,-0.14548 0.322549,-0.14548 v 0 c -0.0032,0.0109 -0.009,0.0206 -0.01503,0.0301 -0.102919,0.0609 -0.21887,0.10385 -0.308756,0.18273 -0.08467,0.0743 0.195488,-0.112 0.292808,-0.16873 0.0066,-0.004 -0.01267,0.008 -0.01924,0.0122 -0.398848,0.23128 -0.208275,0.11397 -0.323992,0.1853 0.609997,-0.35212 0.129967,-0.073 -0.07589,0.0401 -0.04181,0.019 -0.08273,0.0401 -0.123756,0.0608 -0.121838,0.0626 -0.03071,0.0164 0.241049,-0.14214 0.0096,-0.006 -0.01941,0.0108 -0.02896,0.0164 -0.03841,0.0227 -0.01748,0.011 -0.05569,0.037 -0.0098,0.007 -0.01989,0.013 -0.02983,0.0194 -0.07667,0.0468 -0.147735,0.10104 -0.218377,0.15659 -0.116415,0.0809 -0.227816,0.16934 -0.336433,0.26033 -0.124309,0.10317 -0.249015,0.20587 -0.374914,0.30709 -0.118779,0.0957 -0.241263,0.18742 -0.370502,0.26858 -0.229647,0.14072 -0.457365,0.28697 -0.704252,0.39606 -0.139119,0.0613 -0.281013,0.11635 -0.425157,0.16475 -0.120408,0.0373 -0.241366,0.0727 -0.363593,0.10357 -0.1017,0.0274 -0.203737,0.0543 -0.307245,0.074 -0.105492,0.0219 -0.210674,0.0456 -0.313574,0.0779 -0.09947,0.0316 -0.198326,0.0656 -0.291978,0.11208 -0.132604,0.0675 -0.05678,0.03 0.199852,-0.11918 0.01639,-0.01 -0.03295,0.0188 -0.04934,0.0283 -0.01694,0.01 -0.03381,0.0199 -0.05064,0.0299 -0.230625,0.13791 0.381224,-0.22039 -0.40065,0.2341 0.07833,-0.0455 0.156528,-0.0911 0.234984,-0.13635 0.02088,-0.012 -0.04167,0.0243 -0.06226,0.0368 -0.09814,0.0597 -0.191436,0.12629 -0.284897,0.19295 -0.165242,0.12061 -0.324366,0.24944 -0.485992,0.37478 -0.157096,0.12412 -0.307433,0.25599 -0.454082,0.39231 -0.117797,0.10927 -0.227733,0.22646 -0.324286,0.35518 -0.06963,0.0913 -0.131546,0.18896 -0.172839,0.29662 -0.0285,0.0779 -0.05217,0.16065 -0.04818,0.24435 0,0 -0.312275,0.15911 -0.312275,0.15911 z"
       inkscape:connector-curvature="0"
       style="stroke-width:0.26458332" />
    <path
       id="path1518"
       d="m 10.410295,288.2654 c 0.07137,-0.0997 0.14824,-0.19498 0.227892,-0.28808 0.122131,-0.13318 0.246485,-0.26439 0.374968,-0.39148 0.12957,-0.13366 0.265497,-0.26088 0.401084,-0.38836 0.13695,-0.12899 0.285313,-0.24452 0.435242,-0.3578 0.238929,-0.17276 0.49683,-0.31919 0.761191,-0.44939 0.142891,-0.0718 0.288256,-0.13856 0.434103,-0.2041 0.130266,-0.0566 0.257949,-0.11852 0.389571,-0.17206 0.127091,-0.0512 0.257288,-0.0949 0.382092,-0.15154 0.106988,-0.0513 0.211843,-0.1069 0.317308,-0.16124 0.140757,-0.0829 0.0064,-0.004 -0.199486,0.11406 -0.01594,0.009 0.03158,-0.0187 0.04741,-0.028 0.04421,-0.026 0.08828,-0.0519 0.131699,-0.0792 0.05479,-0.0361 0.107946,-0.0747 0.163332,-0.10991 0.02472,-0.0154 0.04723,-0.0329 0.07021,-0.0506 0.0025,-0.001 0.0055,-0.001 0.0076,-0.003 0.0069,-0.006 0.0107,-0.0157 0.0188,-0.0205 0.442926,-0.25956 0.203129,-0.11546 0.319083,-0.18517 0.02608,-0.0147 0.05838,-0.016 0.08777,-0.0166 0.06401,0.01 0.127296,0.0227 0.191371,0.0319 0.105575,0.0193 0.211236,0.038 0.315917,0.0618 0.141237,0.0307 0.285933,0.0403 0.429563,0.0537 0.161791,0.0179 0.324036,0.0138 0.486281,0.008 0.16476,-0.0125 0.329265,-0.0292 0.493387,-0.0483 0.135704,-0.0157 0.270754,-0.0366 0.405552,-0.0586 0.0865,-0.0121 0.172143,-0.03 0.256876,-0.051 0.03954,-0.0141 0.02064,-0.007 0.05676,-0.0213 0,0 -0.275472,0.21523 -0.275472,0.21523 v 0 c -0.03676,0.0121 -0.01739,0.006 -0.0582,0.0174 -0.08436,0.0195 -0.169779,0.0344 -0.255482,0.0466 -0.13386,0.0211 -0.268191,0.0396 -0.402866,0.0546 -0.16477,0.018 -0.329627,0.0368 -0.495147,0.0463 -0.163347,0.005 -0.326656,0.007 -0.489457,-0.0109 -0.14521,-0.0137 -0.291415,-0.0236 -0.434067,-0.0556 -0.105259,-0.0221 -0.211233,-0.0405 -0.317371,-0.0579 -0.06285,-0.009 -0.126074,-0.024 -0.189827,-0.0229 -0.02884,0.005 -0.0556,0.0122 -0.08027,0.0284 -0.11393,0.0526 -0.01968,0.01 0.283229,-0.16702 0.0022,-10e-4 -0.0042,0.003 -0.0063,0.004 -0.005,0.004 -0.01146,0.005 -0.01519,0.0104 -0.0024,0.003 -0.003,0.007 -0.0045,0.0109 -0.02523,0.0166 -0.04526,0.0375 -0.07223,0.0514 -0.05267,0.0412 -0.114384,0.071 -0.166821,0.11302 -0.184659,0.12063 -0.382845,0.22033 -0.571257,0.33444 -0.105043,0.0541 -0.209566,0.1094 -0.317129,0.15839 -0.125965,0.0535 -0.255174,0.0989 -0.381975,0.15045 -0.130767,0.0547 -0.258321,0.11639 -0.38846,0.17253 -0.145225,0.0652 -0.289542,0.13251 -0.43179,0.20401 -0.09772,0.0493 -0.376679,0.20806 0.05435,-0.0414 0.02686,-0.0156 -0.05373,0.0311 -0.08005,0.0475 -0.06552,0.0409 -0.09293,0.0616 -0.155857,0.10596 -0.149951,0.11266 -0.299077,0.22654 -0.436571,0.35445 -0.136075,0.12671 -0.271711,0.25411 -0.401293,0.3875 -0.128225,0.1259 -0.251646,0.25636 -0.374061,0.38789 -0.07691,0.0907 -0.152761,0.1821 -0.220097,0.2803 0,0 -0.321437,0.14064 -0.321436,0.14064 z"
       inkscape:connector-curvature="0"
       style="stroke-width:0.26458332" />
    <path
       id="path1520"
       d="m 14.379045,285.21797 c 0.06806,-0.10016 0.14266,-0.1955 0.218,-0.29021 0.09999,-0.12042 0.200015,-0.24073 0.298055,-0.36277 0.09737,-0.12023 0.193496,-0.24157 0.284263,-0.3669 0.08291,-0.11107 0.155159,-0.22891 0.223866,-0.34911 0.06275,-0.10767 0.114543,-0.22049 0.155369,-0.33812 0.03552,-0.10089 0.05327,-0.20654 0.07511,-0.31089 0.02124,-0.11535 0.04027,-0.23103 0.06727,-0.34523 0.0356,-0.14586 0.08462,-0.28736 0.141584,-0.42609 0.04609,-0.11759 0.09947,-0.23128 0.163691,-0.33998 0.05604,-0.0884 0.09889,-0.18421 0.13919,-0.28057 0.02435,-0.0634 0.04813,-0.12707 0.07163,-0.19082 0,0 0.31076,-0.14458 0.31076,-0.14458 v 0 c -0.02399,0.0634 -0.04791,0.12674 -0.06956,0.19094 -0.03875,0.0981 -0.08043,0.19585 -0.136707,0.28533 -0.06584,0.10747 -0.123285,0.2186 -0.168314,0.33662 -0.05849,0.13651 -0.108847,0.27589 -0.142988,0.42071 -0.02811,0.11321 -0.04558,0.22851 -0.06549,0.34337 -0.02319,0.10531 -0.03918,0.21247 -0.07416,0.31484 -0.03978,0.12009 -0.09109,0.23539 -0.154698,0.34489 -0.06779,0.12159 -0.139404,0.24077 -0.222498,0.35265 -0.0907,0.12633 -0.187451,0.24826 -0.285229,0.36916 -0.09717,0.12218 -0.196385,0.24261 -0.296827,0.36209 -0.07307,0.0925 -0.14803,0.18404 -0.210886,0.28403 0,0 -0.321436,0.14064 -0.321436,0.14064 z"
       inkscape:connector-curvature="0"
       style="stroke-width:0.26458332" />
    <path
       id="path1522"
       d="m 12.045119,281.93291 c -0.09892,-0.0792 -0.209187,-0.14201 -0.315358,-0.21052 -0.09699,-0.0667 -0.202655,-0.12029 -0.295253,-0.19321 -0.06209,-0.0505 -0.116939,-0.10697 -0.158431,-0.17547 -0.03696,-0.0552 -0.05402,-0.11769 -0.06291,-0.1827 -0.0069,-0.0627 -0.0067,-0.12592 -0.0061,-0.18893 -2.1e-5,-0.0111 -4.1e-5,-0.0223 -6.2e-5,-0.0335 0,0 0.310655,-0.15818 0.310655,-0.15818 v 0 c -8.4e-5,0.0112 -1.68e-4,0.0224 -2.52e-4,0.0335 5.29e-4,0.0616 -4.5e-4,0.12327 0.0047,0.18468 0.0071,0.0606 0.02085,0.11878 0.05553,0.17026 0.03866,0.065 0.09167,0.11779 0.149782,0.16581 0.09194,0.0712 0.194549,0.12674 0.290153,0.19275 0.108428,0.0697 0.219992,0.13463 0.324488,0.21033 0,0 -0.296912,0.1851 -0.296912,0.1851 z"
       inkscape:connector-curvature="0"
       style="stroke-width:0.26458332" />
    <path
       id="path1524"
       d="m 2.6379123,281.42345 c -0.1236887,-0.0646 -0.2394783,-0.14314 -0.3558938,-0.21975 -0.128556,-0.0836 -0.2454258,-0.18276 -0.3582763,-0.2861 -0.091749,-0.0892 -0.1791578,-0.18316 -0.2433503,-0.2943 -0.037472,-0.068 -0.052195,-0.14452 -0.070282,-0.2191 0,0 0.3001009,-0.16179 0.3001009,-0.16179 v 0 c 0.016465,0.0715 0.031056,0.14426 0.067896,0.20887 0.063135,0.1076 0.1476308,0.19929 0.2366749,0.28623 0.1112517,0.10215 0.2263655,0.2004 0.3535552,0.28249 0.1161671,0.0754 0.2317879,0.15475 0.3596312,0.20913 0,0 -0.2900555,0.19432 -0.2900558,0.19432 z"
       inkscape:connector-curvature="0"
       style="stroke-width:0.26458332" />
    <path
       id="path1526"
       d="m 4.1377327,285.74022 c -0.1003964,-0.003 -0.1999342,-0.0263 -0.2962296,-0.0535 -0.1472814,-0.0441 -0.2915208,-0.0973 -0.436671,-0.14777 -0.176897,-0.0654 -0.3517924,-0.13579 -0.5232297,-0.21439 -0.1855882,-0.0913 -0.3605579,-0.20236 -0.5329733,-0.31613 -0.176524,-0.12083 -0.3595227,-0.23176 -0.5435613,-0.34066 -0.1810039,-0.0991 -0.3573977,-0.20595 -0.5326268,-0.31486 -0.1549356,-0.0955 -0.29412506,-0.21177 -0.42380899,-0.33877 -0.11789603,-0.11564 -0.213604,-0.24908 -0.29702792,-0.39087 -0.0842281,-0.13899 -0.12225781,-0.28636 -0.14371095,-0.44562 -0.017758,-0.18031 -3.8893e-4,-0.36161 0.003358,-0.54228 0,0 0.29794411,-0.15087 0.29794411,-0.15087 v 0 c -0.005204,0.17799 -0.0166058,0.35703 -9.535e-5,0.53462 0.0200668,0.15294 0.056486,0.3001 0.13782426,0.43336 0.0815667,0.13927 0.17468804,0.27098 0.29101964,0.38386 0.1284033,0.12464 0.2652408,0.23987 0.4182856,0.33364 0.1745333,0.10918 0.3504611,0.2158 0.5308353,0.31514 0.1841081,0.10962 0.3676717,0.22042 0.5442006,0.34202 0.172061,0.11198 0.3463556,0.22194 0.5317359,0.3108 0.1713851,0.0775 0.3460398,0.14729 0.523155,0.21064 0.1453335,0.0503 0.2903826,0.10174 0.4385056,0.14345 0.097052,0.0242 0.1963111,0.0466 0.297003,0.0419 0,0 -0.283932,0.20629 -0.2839321,0.20629 z"
       inkscape:connector-curvature="0"
       style="stroke-width:0.26458332" />
    <path
       id="path1528"
       d="m 0.33807582,296.04626 c -0.004172,-0.0959 0.0188547,-0.19063 0.0417807,-0.28305 0.0285884,-0.1173 0.0835803,-0.22429 0.14127025,-0.32936 0.0667213,-0.1149 0.13825854,-0.22702 0.2216192,-0.33058 0.072538,-0.0877 0.15524612,-0.16449 0.25123698,-0.22547 0.27968005,-0.17297 0.34111535,-0.22458 0.61762915,-0.24293 0.1372637,-0.007 0.2745296,0.008 0.4110196,0.021 0.1482577,0.0108 0.2953666,-0.009 0.4404071,-0.0378 0.1543182,-0.0377 0.3033418,-0.093 0.4524827,-0.14698 0.1280329,-0.0491 0.2575534,-0.0931 0.3917103,-0.1219 0.1024525,-0.0282 0.207187,-0.0442 0.3134008,-0.0425 0.1333834,0.009 0.2672228,0.006 0.4005027,-0.003 0.15103,-0.0132 0.3015568,-0.0308 0.4528519,-0.0415 0.1079928,-0.008 0.2160219,-0.0127 0.3231086,0.006 0.088373,0.014 0.1717569,0.0483 0.2556888,0.078 0.095308,0.0442 0.1991897,0.054 0.3015515,0.0696 0.097688,0.011 0.1944026,0.0286 0.292051,0.0399 0.081776,0.0143 0.1635845,0.0279 0.2447023,0.0456 0.1032113,0.022 0.2085692,0.0287 0.3137307,0.0329 0.084521,0.003 0.169095,0.002 0.2536465,0.002 0.068272,0.003 0.1353889,-0.01 0.2031125,-0.016 0.067017,-0.003 0.133799,-0.012 0.1990352,-0.0279 0.070776,-0.0166 0.1353851,-0.0541 0.1996471,-0.0872 0,0 -0.2689825,0.21542 -0.2689825,0.21542 v 0 c -0.066897,0.0334 -0.1339189,0.0697 -0.2084298,0.0827 -0.06649,0.0124 -0.1334672,0.0203 -0.2009727,0.0246 -0.068193,0.008 -0.1362797,0.0167 -0.2051098,0.0131 -0.084167,-2.9e-4 -0.1683599,-10e-4 -0.2524477,-0.005 -0.1064908,-0.006 -0.2129723,-0.0144 -0.317496,-0.0368 -0.081003,-0.0157 -0.1623436,-0.0298 -0.2438143,-0.0429 -0.096992,-0.0133 -0.1934917,-0.0299 -0.2906694,-0.0418 -0.1044877,-0.0154 -0.2088671,-0.0309 -0.3063624,-0.0742 -0.082823,-0.0287 -0.1651971,-0.0608 -0.252649,-0.0723 -0.1046641,-0.014 -0.2098289,-0.009 -0.3149447,-0.002 -0.1510191,0.0105 -0.301163,0.0293 -0.4520874,0.0406 -0.1348409,0.008 -0.2697927,0.01 -0.4047561,0.004 -0.1043734,0.003 -0.2067404,0.0213 -0.3078269,0.0475 -0.1322514,0.0312 -0.2601976,0.0762 -0.3873259,0.12391 -0.1497937,0.0537 -0.3000215,0.1078 -0.4555973,0.14261 -0.1472045,0.0272 -0.2965451,0.0437 -0.4463699,0.0303 -0.1359709,-0.0123 -0.272947,-0.0247 -0.4094848,-0.0148 -0.057382,0.005 -0.11431,0.0108 -0.1702872,0.0254 -0.1201972,0.0313 -0.32169688,0.15897 0.1518545,-0.11103 -0.099676,0.0545 -0.1835316,0.12958 -0.2577761,0.21535 -0.0861222,0.1 -0.15647615,0.21132 -0.22408153,0.32443 -0.0564635,0.10309 -0.11436575,0.20605 -0.14375765,0.32096 -0.0228132,0.0872 -0.0453901,0.17752 -0.0424267,0.26813 0,0 -0.31038429,0.16374 -0.31038429,0.16374 z"
       inkscape:connector-curvature="0"
       style="stroke-width:0.26458332" />
    <path
       id="path1530"
       d="m 8.9013913,294.02879 c 0.2126017,-0.13207 0.4038602,-0.2452 0.6395108,-0.31561 0.1008047,-0.0254 0.2095286,-0.044 0.3130635,-0.0219 0.018309,0.004 0.035898,0.0106 0.053847,0.0159 0.1117524,0.0391 0.2133444,0.1 0.3183854,0.1534 0.146005,0.0758 0.307689,0.0895 0.469044,0.0948 0.187981,0.004 0.371074,-0.0405 0.553407,-0.0801 0.105283,-0.025 0.212244,-0.0404 0.320126,-0.0474 0.06832,-0.004 0.136771,-0.002 0.205146,-0.002 0.134931,0.006 0.265911,-0.0292 0.394389,-0.0659 0.167075,-0.0554 0.329319,-0.12303 0.489888,-0.1948 0.09973,-0.0533 0.205204,-0.0922 0.311634,-0.12902 0.08585,-0.0234 0.173643,-0.0386 0.260104,-0.0597 0.147128,-0.0421 0.287065,-0.10223 0.423608,-0.17065 0.137026,-0.0658 0.272365,-0.13566 0.410781,-0.19848 0.08225,-0.0381 0.166999,-0.0628 0.256836,-0.0729 0.107151,-0.005 0.213656,-0.0168 0.320341,-0.0273 0.162275,-0.019 0.324613,-0.0378 0.487265,-0.0533 0.147208,-0.0122 0.294908,-0.0159 0.442542,-0.0182 0.106961,0.005 0.212557,0.0194 0.319365,0.007 0.116902,-0.009 0.226348,-0.0486 0.331707,-0.0978 0.183444,-0.10468 -0.119966,0.0702 -0.180769,0.1039 -0.01873,0.0104 0.03638,-0.0226 0.05413,-0.0346 0.0538,-0.0363 0.103397,-0.0772 0.152908,-0.119 0.09251,-0.0813 0.170179,-0.17703 0.246674,-0.27303 0.07623,-0.0952 0.15332,-0.1897 0.230381,-0.28423 0.06762,-0.0839 0.136205,-0.16688 0.211046,-0.24447 0.07457,-0.0716 0.153543,-0.13842 0.231952,-0.20572 0,0 0.317678,-0.12865 0.317678,-0.12865 v 0 c -0.07797,0.0661 -0.154601,0.13367 -0.23073,0.20188 -0.07603,0.0765 -0.146044,0.15811 -0.213585,0.24219 -0.07726,0.0942 -0.153976,0.18888 -0.230431,0.28376 -0.07707,0.097 -0.153632,0.19498 -0.244958,0.27933 -0.183735,0.16087 -0.391574,0.2867 -0.613239,0.39182 -0.109057,0.0464 -0.22126,0.0831 -0.340548,0.0902 -0.106791,0.007 -0.21238,-0.008 -0.319154,-0.0108 -0.146334,0.002 -0.292777,0.005 -0.438575,0.0188 -0.16298,0.0159 -0.325734,0.0344 -0.488262,0.0544 -0.107855,0.012 -0.215749,0.0229 -0.323917,0.0313 -0.0865,0.014 -0.168516,0.0422 -0.248053,0.0791 -0.1362,0.0638 -0.271584,0.12949 -0.406429,0.19613 -0.139686,0.0676 -0.282847,0.12797 -0.433064,0.16841 -0.08659,0.0206 -0.174594,0.0361 -0.259457,0.0633 -0.104627,0.0352 -0.205485,0.0794 -0.304855,0.12752 -0.161037,0.0705 -0.323816,0.13721 -0.491653,0.18998 -0.132918,0.0363 -0.267568,0.0692 -0.406553,0.0632 -0.06805,3.2e-4 -0.136169,-10e-6 -0.204136,0.004 -0.104794,0.008 -0.208534,0.0239 -0.311111,0.0467 -0.183524,0.0384 -0.368202,0.0785 -0.556981,0.0723 -0.16614,-0.007 -0.331609,-0.0259 -0.4815093,-0.10408 -0.1034436,-0.0526 -0.2043734,-0.11153 -0.3157093,-0.14646 -0.1181615,-0.0276 -0.2371661,-0.0167 -0.3528456,0.0197 -0.065796,0.0216 -0.073053,0.0225 -0.1368425,0.0491 -0.1270733,0.0529 -0.4373513,0.23567 0.09434,-0.0705 0,0 -0.3267366,0.12784 -0.3267366,0.12784 z"
       inkscape:connector-curvature="0"
       style="stroke-width:0.26458332" />
  </g>
</svg>
