<?xml version="1.0" encoding="UTF-8" standalone="no"?>
<!-- Created with Inkscape (http://www.inkscape.org/) -->

<svg
   xmlns:dc="http://purl.org/dc/elements/1.1/"
   xmlns:cc="http://creativecommons.org/ns#"
   xmlns:rdf="http://www.w3.org/1999/02/22-rdf-syntax-ns#"
   xmlns:svg="http://www.w3.org/2000/svg"
   xmlns="http://www.w3.org/2000/svg"
   xmlns:sodipodi="http://sodipodi.sourceforge.net/DTD/sodipodi-0.dtd"
   xmlns:inkscape="http://www.inkscape.org/namespaces/inkscape"
   width="64"
   height="64"
   viewBox="0 0 16.933333 16.933334"
   version="1.1"
   id="svg8"
   inkscape:version="0.92.1 r15371"
   sodipodi:docname="0_wave.svg"
   inkscape:export-filename="/home/physt/undev/repos/deep_learning/workshop/tasks/commonlearningdata/cartooncats/0_wave.png"
   inkscape:export-xdpi="96.000008"
   inkscape:export-ydpi="96.000008">
  <defs
     id="defs2" />
  <sodipodi:namedview
     id="base"
     pagecolor="#ffffff"
     bordercolor="#666666"
     borderopacity="1.0"
     inkscape:pageopacity="0.0"
     inkscape:pageshadow="2"
     inkscape:zoom="11.2"
     inkscape:cx="50.237003"
     inkscape:cy="29.986148"
     inkscape:document-units="mm"
     inkscape:current-layer="layer1"
     showgrid="false"
     inkscape:window-width="1920"
     inkscape:window-height="1016"
     inkscape:window-x="0"
     inkscape:window-y="27"
     inkscape:window-maximized="1"
     units="px" />
  <metadata
     id="metadata5">
    <rdf:RDF>
      <cc:Work
         rdf:about="">
        <dc:format>image/svg+xml</dc:format>
        <dc:type
           rdf:resource="http://purl.org/dc/dcmitype/StillImage" />
        <dc:title></dc:title>
      </cc:Work>
    </rdf:RDF>
  </metadata>
  <g
     inkscape:label="Layer 1"
     inkscape:groupmode="layer"
     id="layer1"
     transform="translate(0,-280.06665)">
    <path
       id="path1414"
       d="m 0.47981689,292.40824 c -0.007871,-0.0759 -0.0162573,-0.15173 -0.0151387,-0.22806 0.003825,-0.0926 0.0246864,-0.18335 0.0452652,-0.27337 0.0239514,-0.12292 0.0689138,-0.24016 0.11554568,-0.35591 0.0560205,-0.14612 0.11967189,-0.289 0.18604989,-0.43066 0.0736719,-0.16464 0.15027529,-0.32798 0.23171634,-0.48893 0.090494,-0.17489 0.1864608,-0.34682 0.2875034,-0.51581 0.099297,-0.16999 0.1964177,-0.34123 0.29756,-0.51013 0.1123062,-0.19082 0.2262996,-0.38042 0.3467854,-0.56619 0.1296166,-0.1966 0.2657903,-0.38858 0.4061706,-0.57759 0.1389396,-0.18654 0.282229,-0.36975 0.4241522,-0.554 0.1396947,-0.1796 0.2816779,-0.35751 0.428099,-0.53169 0.1411689,-0.17328 0.292119,-0.33797 0.4434064,-0.50236 0.1517709,-0.16587 0.3149132,-0.32079 0.4757428,-0.47773 0.1512404,-0.14423 0.3090093,-0.28147 0.4661604,-0.41919 0.1487662,-0.12459 0.3015274,-0.24429 0.4520065,-0.3668 0.138861,-0.11543 0.2848512,-0.22175 0.4287655,-0.33068 0.1380797,-0.10137 0.2722152,-0.20789 0.4077385,-0.3126 0.131169,-0.10056 0.2625061,-0.20049 0.4006749,-0.29127 0.1586315,-0.10266 0.3249264,-0.19255 0.488015,-0.2878 0.075785,-0.0443 -0.3043523,0.17495 -0.2283198,0.13112 0.3285151,-0.18939 0.2456191,-0.14232 0.4203494,-0.2411 0.1215808,-0.0678 0.2469358,-0.12829 0.3688638,-0.19546 0.1195737,-0.0651 0.2430417,-0.12236 0.3689741,-0.17391 0.1300155,-0.0488 0.2598987,-0.0986 0.3920671,-0.14127 0.126937,-0.0366 0.2510287,-0.0821 0.3774525,-0.12026 0.1226783,-0.0398 0.2493655,-0.0659 0.3762235,-0.0884 0.143338,-0.0257 0.2853303,-0.0576 0.4296349,-0.0777 0.1459666,-0.0245 0.2936335,-0.0353 0.4407701,-0.05 0.1410192,-0.0139 0.2827315,-0.0172 0.4243215,-0.0193 0.138057,-10e-4 0.275726,-0.0134 0.413664,-0.019 0.136189,0.002 0.272068,0.009 0.407674,0.0216 0.114591,0.01 0.230132,0.0225 0.340755,0.0549 0.100265,0.0277 0.196222,0.068 0.29418,0.10256 0.100096,0.0394 0.201761,0.0744 0.302187,0.11291 0.0996,0.0379 0.198676,0.076 0.294851,0.12193 0.09714,0.0504 0.199858,0.0882 0.299752,0.13259 0.09757,0.0424 0.194373,0.0866 0.289218,0.13483 0.08575,0.0328 0.165554,0.0776 0.247313,0.11873 0.07305,0.0378 0.147604,0.0722 0.221488,0.10828 0.06518,0.0269 0.12718,0.0605 0.191138,0.0899 0.05992,0.0269 0.110531,0.069 0.164851,0.10479 0.05407,0.0376 0.108644,0.0745 0.16164,0.11356 0.05261,0.0391 0.0981,0.0865 0.147648,0.12923 0.05411,0.0458 0.109276,0.0907 0.158011,0.14236 0.04095,0.0483 0.0811,0.0976 0.117064,0.14978 0.03562,0.0518 0.0694,0.1049 0.103337,0.15784 0.03257,0.0486 0.06262,0.0987 0.09516,0.14743 0.02909,0.046 0.05743,0.0919 0.08254,0.14014 0.02754,0.0482 0.06004,0.0933 0.09025,0.13986 0.02825,0.0427 0.05403,0.087 0.07869,0.13189 0.01763,0.0321 0.03523,0.0645 0.04973,0.0982 0.01666,0.0279 0.02367,0.0594 0.0342,0.0896 0.01281,0.0304 0.01797,0.0631 0.02931,0.0939 0.01248,0.0328 0.0177,0.0672 0.02025,0.10193 0.0022,0.0335 0.0022,0.0671 0.0021,0.10063 -3.44e-4,0.0339 0.0022,0.0677 -0.005,0.10101 -0.0074,0.0262 -0.01302,0.0526 -0.01634,0.0795 -4.76e-4,0.0231 -0.01379,0.0424 -0.0198,0.0641 -0.0052,0.0178 -0.0029,0.0362 -0.01081,0.0532 -0.0131,0.006 -0.01421,0.0183 -0.01328,0.0311 -0.01288,0.002 -0.01995,0.016 -0.02589,0.0265 -0.01696,0.007 -0.0206,0.0202 -0.03091,0.0337 -0.09438,0.0906 -0.228793,0.14893 -0.337998,0.20458 -0.0978,0.0498 0.364389,-0.24021 0.285852,-0.16351 -0.0041,0.008 -0.01539,0.008 -0.02128,0.0129 -0.0052,0.004 -0.0081,0.0102 -0.01265,0.0148 -0.103251,0.0604 -0.206502,0.12086 -0.309753,0.18129 0.588154,-0.29737 0.3397,-0.2211 0.252663,-0.13842 -0.0042,0.006 -0.0061,0.0104 -0.01221,0.0147 -0.106459,0.0742 -0.224655,0.13002 -0.337165,0.19471 -0.0032,7.7e-4 -0.0066,9e-4 -0.0096,0.002 -0.03874,0.0188 0.02122,-0.005 -0.01826,0.0129 -0.01247,0.006 -0.02239,0.007 -0.03405,0.0148 -0.0035,0.002 -0.0068,0.005 -0.01062,0.007 -0.01207,0.006 -0.02652,0.006 -0.03827,0.0107 -0.0038,0.002 -0.01314,0.01 -0.0096,0.008 0.09786,-0.0553 0.195033,-0.11171 0.292549,-0.16756 -0.104062,0.0596 -0.208125,0.11922 -0.312187,0.17883 -0.0045,7.9e-4 -0.0094,5.6e-4 -0.01359,0.002 -0.004,0.002 -0.0065,0.006 -0.01018,0.008 -0.01194,0.007 -0.02591,0.0117 -0.03931,0.0149 -0.03166,0.006 -0.06062,0.0208 -0.09303,0.0259 -0.03298,0.002 -0.06323,0.0139 -0.09555,0.0209 -0.03006,0.005 -0.06057,0.006 -0.091,0.007 -0.02967,0.002 -0.04532,5.1e-4 -0.07237,-0.0118 -0.02164,-0.009 -0.04449,-0.0106 -0.0675,-0.0119 -0.02483,0.004 -0.04258,-0.0136 -0.06563,-0.0191 -0.0224,-0.0107 -0.03036,0.0105 -0.04946,0.0151 -0.01678,0.006 -0.03461,0.004 -0.05216,0.004 -0.0037,-4e-5 -0.0076,-0.001 -0.01106,-1.4e-4 -0.0062,0.002 -0.0094,0.009 -0.01516,0.0125 -0.0081,0.004 -0.01898,0.006 -0.02774,0.01 -0.004,0.005 -0.01075,-7.5e-4 -0.01509,0.002 -0.0025,0.002 -0.0018,0.006 -0.0039,0.008 -0.0069,0.006 -0.02128,0.009 -0.02988,0.0105 0.774451,-0.44104 -0.01285,0.01 -0.01992,0.0139 -0.0044,0.002 -0.01015,0.002 -0.01469,0.004 -0.01693,0.009 -0.02243,0.0152 -0.04266,0.0216 0.02744,-0.006 -0.07221,0.0414 -0.04281,0.0244 0.09555,-0.0552 0.382948,-0.2196 0.287148,-0.16481 -0.326291,0.18662 -0.205691,0.13052 -0.330996,0.18826 -0.110786,0.0363 -0.316082,0.17288 0.240287,-0.14416 0.01206,-0.007 -0.02358,0.0147 -0.035,0.0226 -0.0439,0.028 -0.08795,0.0553 -0.130354,0.0855 -0.04842,0.0328 -0.09485,0.0685 -0.142056,0.10302 -0.05133,0.0361 -0.09447,0.0814 -0.139031,0.1251 -0.04596,0.0456 -0.09545,0.0878 -0.136297,0.13823 -0.0306,0.0397 -0.06146,0.0789 -0.08821,0.12134 -0.02682,0.0443 -0.04597,0.0928 -0.06461,0.14091 -0.02409,0.0573 -0.0436,0.11625 -0.05897,0.17641 -0.01245,0.0695 -0.02478,0.13926 -0.03374,0.20937 -0.0091,0.0828 -0.0098,0.16625 -0.01082,0.24949 0.003,0.0789 0.01282,0.15716 0.03097,0.23395 0.01912,0.0783 0.05229,0.15117 0.08421,0.22471 0.03269,0.0729 0.0737,0.14175 0.114389,0.21041 0.04414,0.074 0.0924,0.14602 0.147561,0.21228 0.0554,0.0686 0.111788,0.13654 0.171098,0.20177 0.05768,0.0585 0.117388,0.11518 0.17952,0.16897 0.06094,0.0545 0.120645,0.11027 0.183414,0.16271 0.05515,0.0474 0.112324,0.0918 0.171868,0.13355 0.05331,0.0366 0.106891,0.0721 0.156844,0.11331 0.05195,0.0347 0.106762,0.0648 0.155619,0.10379 0.03674,0.0294 0.07394,0.0574 0.113059,0.0836 0.03795,0.0237 0.07774,0.0457 0.113957,0.072 0.03612,0.0246 0.07332,0.0471 0.112866,0.0657 0.03355,0.0211 0.06462,0.0457 0.09828,0.0669 0.03108,0.0162 0.06146,0.0332 0.09264,0.0494 0.02992,0.0147 0.06218,0.0241 0.09169,0.0397 0.03628,0.012 0.07163,0.0268 0.108365,0.0376 0.03728,0.016 0.07587,0.0283 0.11413,0.0416 0.03648,0.006 0.06815,0.0252 0.103837,0.0336 0.03095,0.018 0.06724,0.0199 0.09952,0.0334 0.02929,0.0115 0.05924,0.0191 0.08894,0.0295 0.03526,0.007 0.06878,0.018 0.103178,0.0281 0.03033,0.004 0.05727,0.0164 0.08656,0.0243 0.03118,0.005 0.05955,0.0185 0.08985,0.0271 0.0273,0.007 0.05533,0.002 0.08175,0.0116 0.03175,0.0105 0.06488,0.0143 0.09806,0.0167 0.03357,-0.002 0.06442,0.003 0.09677,0.0111 0.03875,0.0102 0.07944,0.008 0.117896,0.0179 0.03758,0.009 0.07421,0.0154 0.11042,0.0282 0.03145,0.0109 0.06426,0.0129 0.09718,0.0144 0.03521,0.0124 0.0721,0.0182 0.109134,0.0217 0.03977,0.003 0.07967,0.003 0.119514,0.003 0.0378,-0.005 0.07176,0.004 0.107776,0.0139 0.03247,0.007 0.0659,0.008 0.09903,0.009 0.03036,-0.004 0.05659,0.0117 0.08561,0.018 0.02759,9e-5 0.05014,0.0127 0.07556,0.0209 0.02307,0.01 0.04456,0.0218 0.06863,0.0299 0.02351,0.0135 0.04829,0.0231 0.07264,0.0349 0.02327,0.0153 0.04939,0.0258 0.07295,0.0405 0.01874,0.0152 0.03931,0.032 0.05454,0.0511 0.01589,0.0103 0.02846,0.0278 0.04708,0.032 0.01969,0.01 0.03932,0.0196 0.05911,0.0292 0,0 -0.292255,0.19293 -0.292255,0.19293 v 0 c -0.01999,-0.01 -0.04006,-0.019 -0.06038,-0.0278 -0.02008,-0.0126 -0.03896,-0.0271 -0.05552,-0.0441 -0.01487,-0.0147 -0.02894,-0.0311 -0.04748,-0.0411 -0.02453,-0.0121 -0.04732,-0.027 -0.07191,-0.0389 -0.02327,-0.0117 -0.04806,-0.0202 -0.07141,-0.0318 -0.0227,-0.01 -0.044,-0.0223 -0.06772,-0.0295 -0.02397,-0.009 -0.04873,-0.012 -0.07358,-0.0184 -0.02688,-0.008 -0.05267,-0.0139 -0.08098,-0.0124 -0.0348,-0.002 -0.06964,-0.006 -0.103364,-0.0149 -0.03387,-0.008 -0.06765,-0.008 -0.102404,-0.007 -0.04075,-6.3e-4 -0.08165,-5.5e-4 -0.12214,-0.006 -0.03637,-0.005 -0.07192,-0.015 -0.108262,-0.0201 -0.03491,-0.003 -0.06919,-0.009 -0.10218,-0.0217 -0.03502,-0.0112 -0.07183,-0.0158 -0.107451,-0.0248 -0.03963,-0.005 -0.07933,-0.009 -0.118293,-0.0182 -0.03142,-0.006 -0.06334,-0.004 -0.09502,-0.008 -0.03408,-0.004 -0.06746,-0.0116 -0.100721,-0.0202 -0.02822,-0.002 -0.05645,-0.004 -0.08335,-0.0138 -0.02962,-0.01 -0.05902,-0.0198 -0.08942,-0.0271 -0.02854,-0.009 -0.05758,-0.0156 -0.08633,-0.0244 -0.03453,-0.0106 -0.0698,-0.0181 -0.104162,-0.0293 -0.02949,-0.0103 -0.06032,-0.0165 -0.08892,-0.0294 -0.03352,-0.009 -0.06597,-0.0201 -0.09851,-0.032 -0.03484,-0.0119 -0.06867,-0.0265 -0.104472,-0.0357 -0.03789,-0.0137 -0.07626,-0.0261 -0.113799,-0.0408 -0.03722,-0.0133 -0.07511,-0.0249 -0.111103,-0.0412 -0.03113,-0.0131 -0.06304,-0.0247 -0.09265,-0.0411 -0.03144,-0.0174 -0.0637,-0.0331 -0.09427,-0.0521 -0.03154,-0.0217 -0.06213,-0.0451 -0.09557,-0.0636 -0.03991,-0.021 -0.07864,-0.0441 -0.115606,-0.07 -0.03719,-0.0247 -0.0754,-0.0479 -0.113214,-0.0716 -0.03988,-0.0264 -0.07639,-0.0567 -0.113908,-0.0862 -0.04966,-0.0381 -0.10461,-0.0682 -0.155423,-0.10469 -0.04978,-0.04 -0.103143,-0.0745 -0.155128,-0.11149 -0.0601,-0.0423 -0.116497,-0.0892 -0.172639,-0.13661 -0.06266,-0.0529 -0.121981,-0.10943 -0.183993,-0.16311 -0.06265,-0.055 -0.122541,-0.11326 -0.180537,-0.17312 -0.05949,-0.0658 -0.116812,-0.13372 -0.172497,-0.20282 -0.05566,-0.0682 -0.104683,-0.1416 -0.150178,-0.21685 -0.04184,-0.0697 -0.08404,-0.13964 -0.116911,-0.21415 -0.03249,-0.0754 -0.06683,-0.14984 -0.08739,-0.22976 -0.01951,-0.0793 -0.02987,-0.16025 -0.03438,-0.24182 5.82e-4,-0.0842 0.0017,-0.16848 0.0085,-0.25244 0.0074,-0.0714 0.02148,-0.14169 0.03115,-0.21279 0.01386,-0.0613 0.03114,-0.12222 0.05663,-0.17976 0.01744,-0.0502 0.03763,-0.0996 0.06098,-0.14732 0.02698,-0.043 0.05316,-0.0863 0.08787,-0.12383 0.03659,-0.0554 0.08724,-0.0979 0.134555,-0.14392 0.04525,-0.0435 0.08665,-0.0908 0.136869,-0.12897 0.04636,-0.0358 0.09441,-0.0693 0.141171,-0.10449 0.04342,-0.028 0.08362,-0.0609 0.129013,-0.0858 0.01182,-0.007 0.02191,-0.0169 0.03382,-0.0239 0.133683,-0.0781 0.233612,-0.14604 0.362322,-0.20141 0.0925,-0.0491 -0.363214,0.20864 -0.271654,0.15781 0.112929,-0.0627 0.235601,-0.14605 0.359469,-0.20384 0.332032,-0.17795 -0.925987,0.52838 0.07923,-0.0388 0.01655,-0.01 0.03136,-0.0156 0.04914,-0.0208 0.0203,-0.008 0.03758,-0.0163 0.06022,-0.0134 0.01624,-0.002 0.031,-0.006 0.04567,-0.013 0.02055,-0.0111 0.04255,-0.003 0.06327,0.005 0.02065,0.008 0.0386,0.0134 0.06121,0.0128 0.02486,0.004 0.04898,0.01 0.07239,0.0191 0.02084,0.005 0.04322,1.8e-4 0.06456,9.2e-4 0.02909,-0.001 0.0581,-0.004 0.08636,-0.0115 0.03192,-0.008 0.06327,-0.0163 0.09581,-0.021 0.03036,-0.009 0.06026,-0.0201 0.09055,-0.0295 0.11733,-0.0594 0.301786,-0.12502 -0.230909,0.13943 0.136696,-0.0786 0.240566,-0.1434 0.369306,-0.2052 0.02184,-0.008 0.0414,-0.0208 0.06291,-0.0296 -0.09764,0.0567 -0.195278,0.11341 -0.292917,0.17011 0.01317,-0.009 0.02466,-0.0209 0.04144,-0.0227 0.0059,-0.008 0.01275,-0.0204 0.02027,-0.0263 0.0028,-0.002 0.0069,-0.002 0.0098,-0.004 0.0029,-0.002 0.0048,-0.005 0.0072,-0.008 0.103316,-0.0607 0.206631,-0.1213 0.309947,-0.18194 -0.09739,0.0573 -0.194782,0.1146 -0.292174,0.1719 0.0048,-0.003 0.01133,-0.005 0.01477,-0.009 0.0022,-0.003 0.0014,-0.008 0.0036,-0.0108 0.0034,-0.005 0.01213,-0.004 0.01522,-0.009 0.104249,-0.0596 0.294548,-0.16835 0.316175,-0.18851 0.08263,-0.077 -0.195386,0.1134 -0.293079,0.1701 0.0033,-10e-4 0.0071,-0.002 0.01004,-0.004 0.02545,-0.0173 -0.01022,-8.7e-4 0.02049,-0.0135 0.0037,-0.003 0.01598,-0.01 0.01783,-0.0134 0.0044,-0.009 0.0011,-0.0185 0.01148,-0.0254 0.01423,-0.001 0.01941,-0.0148 0.0244,-0.0277 0.0027,0.003 0.0046,0.007 0.008,0.008 4.1e-5,2e-5 0.0081,-0.0296 0.0085,-0.0321 0.02406,-0.0107 0.01493,-0.0107 0.01908,-0.0366 0.0038,-0.0217 0.0082,-0.0423 0.02228,-0.0601 0.0016,-0.0287 0.0056,-0.0573 0.01447,-0.0847 0.0093,-0.0331 0.01075,-0.0586 0.0088,-0.0935 -7.4e-5,-0.0329 3.18e-4,-0.0658 -8.99e-4,-0.0987 -0.0017,-0.0315 -0.0046,-0.063 -0.01571,-0.0928 -0.01147,-0.0309 -0.01757,-0.063 -0.02935,-0.0938 -0.01143,-0.0294 -0.01602,-0.0615 -0.03376,-0.0885 -0.01276,-0.0331 -0.03054,-0.0638 -0.04662,-0.0953 -0.02433,-0.0441 -0.04818,-0.0885 -0.07659,-0.13022 -0.03069,-0.0475 -0.06397,-0.0934 -0.09216,-0.14255 -0.02462,-0.0471 -0.05197,-0.0921 -0.08043,-0.13705 -0.03246,-0.049 -0.06236,-0.0995 -0.09522,-0.14815 -0.03351,-0.0526 -0.06657,-0.1056 -0.102322,-0.15672 -0.0358,-0.0502 -0.07361,-0.0991 -0.114272,-0.14547 -0.0481,-0.0506 -0.102646,-0.0945 -0.155823,-0.1396 -0.0488,-0.0423 -0.0943,-0.0885 -0.146685,-0.12648 -0.05297,-0.0383 -0.106326,-0.0762 -0.160633,-0.11261 -0.05238,-0.036 -0.103553,-0.0744 -0.161947,-0.10039 -0.06326,-0.0306 -0.12616,-0.062 -0.190232,-0.0909 -0.07433,-0.0357 -0.148587,-0.0714 -0.22202,-0.10895 -0.08066,-0.0426 -0.161562,-0.0841 -0.245663,-0.11955 -0.09449,-0.0478 -0.190971,-0.0914 -0.288216,-0.13333 -0.100055,-0.0442 -0.202062,-0.084 -0.299697,-0.13355 -0.09605,-0.0444 -0.194958,-0.0818 -0.293794,-0.11952 -0.100324,-0.038 -0.201209,-0.0745 -0.30163,-0.11224 -0.09732,-0.0344 -0.192761,-0.0743 -0.29282,-0.10049 -0.109757,-0.0279 -0.22246,-0.0421 -0.335227,-0.0513 -0.134651,-0.0118 -0.269767,-0.019 -0.40498,-0.018 -0.137888,0.006 -0.27562,0.0172 -0.4136921,0.0179 -0.1409877,0.003 -0.2820514,0.007 -0.422407,0.0215 -0.146799,0.0147 -0.294024,0.0262 -0.4395869,0.0511 -0.1440622,0.022 -0.2863604,0.0535 -0.42975,0.0793 -0.1261891,0.0242 -0.251945,0.0516 -0.374151,0.0918 -0.1258549,0.0395 -0.2504827,0.0828 -0.3768495,0.12066 -0.1313479,0.0442 -0.2614941,0.0922 -0.3903128,0.14321 -0.1249675,0.0529 -0.2477032,0.11095 -0.3665641,0.17659 -0.1221396,0.066 -0.2471039,0.12669 -0.3678401,0.19529 -0.0215,0.0122 -0.085804,0.049 -0.064504,0.0365 0.076033,-0.0446 0.3050503,-0.17698 0.2287082,-0.13287 -0.1187328,0.0686 -0.2371709,0.13771 -0.3558802,0.20635 -0.075427,0.0436 0.1502847,-0.0882 0.226032,-0.13127 0.022207,-0.0126 -0.043613,0.0266 -0.065389,0.04 -0.022045,0.0135 -0.044052,0.0271 -0.066078,0.0407 -0.1390754,0.0896 -0.271457,0.18803 -0.4024564,0.28908 -0.136049,0.10436 -0.2694295,0.21219 -0.4081473,0.31307 -0.1441196,0.10899 -0.2904215,0.21521 -0.4301437,0.32987 -0.1501754,0.12316 -0.3032657,0.2427 -0.4532802,0.36607 -0.1575276,0.13792 -0.3159723,0.27496 -0.4686634,0.41825 -0.160792,0.15686 -0.3242958,0.31128 -0.476867,0.47625 -0.1509691,0.16415 -0.3027013,0.32764 -0.4433823,0.50084 -0.1474619,0.17327 -0.2892693,0.35133 -0.4293775,0.53058 -0.1422382,0.18414 -0.2853899,0.36756 -0.4249796,0.55373 -0.1404094,0.18836 -0.2768557,0.37946 -0.4065045,0.57542 -0.1203806,0.18484 -0.2344637,0.37336 -0.3451621,0.56415 -0.1012935,0.16872 -0.1980327,0.34011 -0.2973401,0.51 -0.100837,0.16825 -0.1973191,0.33895 -0.2874092,0.51324 -0.081854,0.15994 -0.1583029,0.32265 -0.230415,0.48722 -0.066672,0.14048 -0.12971296,0.28268 -0.18506276,0.42805 -0.0458759,0.11368 -0.091538,0.22858 -0.11467862,0.34946 -0.0200075,0.0879 -0.0410961,0.17634 -0.0466716,0.26654 -0.003405,0.0739 0.004344,0.14805 0.0154898,0.22113 0,0 -0.3103843,0.16374 -0.3103843,0.16374 z"
       inkscape:connector-curvature="0"
       style="stroke-width:0.26458332" />
    <path
       id="path1418"
       d="m 1.1985629,293.39136 c 0.1791084,-0.1937 0.3575678,-0.38804 0.5342433,-0.58398 0.3248448,-0.36061 0.6455348,-0.72492 0.9666579,-1.08884 0.3393445,-0.38558 0.682404,-0.76763 1.0350055,-1.14114 0.3327969,-0.35901 0.6869367,-0.69669 1.0525032,-1.02193 0.3469852,-0.30782 0.7113903,-0.59502 1.0796389,-0.87675 0.2720068,-0.20305 0.5448054,-0.40739 0.8375518,-0.58017 0.1423807,-0.084 0.286204,-0.1656 0.4293063,-0.2484 0.2187157,-0.1106 0.4365538,-0.23003 0.6699594,-0.3078 0.036592,-0.0122 0.073994,-0.0218 0.1109908,-0.0327 0.1606423,-0.0421 0.3215513,-0.0675 0.4868691,-0.0438 0.1454346,0.0249 0.244325,0.1119 0.3454855,0.21228 0.1516356,0.16333 0.2559346,0.36087 0.3561249,0.55794 0.1373135,0.27994 0.2699618,0.56212 0.4050975,0.84312 0.143696,0.29323 0.2805742,0.58975 0.4272605,0.8815 0.1425865,0.2794 0.3006195,0.55044 0.4608395,0.81999 0.152396,0.25214 0.324419,0.49203 0.512413,0.71872 0.168016,0.19707 0.361326,0.36849 0.567565,0.52411 0.182519,0.13955 0.380682,0.25554 0.586713,0.35632 0.204124,0.0978 0.421827,0.16059 0.640368,0.21658 0.215356,0.0505 0.435223,0.0755 0.654896,0.0981 0.185956,0.0209 0.371485,0.0462 0.55624,0.0759 0.139501,0.0204 0.278343,0.047 0.414598,0.0833 0.101694,0.0232 0.197951,0.063 0.292568,0.10594 0.09672,0.0526 0.19119,0.10919 0.286188,0.1648 0.12753,0.0783 0.255183,0.15658 0.381154,0.23741 0.113338,0.075 0.217477,0.16202 0.321478,0.24914 0,0 -0.286447,0.17873 -0.286447,0.17873 v 0 c -0.101792,-0.0879 -0.206311,-0.17234 -0.320271,-0.24426 -0.127359,-0.0793 -0.255743,-0.15701 -0.384713,-0.23365 -0.09439,-0.0549 -0.188301,-0.11093 -0.285398,-0.16092 -0.09328,-0.0413 -0.188355,-0.0782 -0.287703,-0.1024 -0.134966,-0.0351 -0.272035,-0.0618 -0.409911,-0.0826 -0.183373,-0.0299 -0.367409,-0.0566 -0.552155,-0.0765 -0.22022,-0.0242 -0.440603,-0.051 -0.656328,-0.10306 -0.220274,-0.0573 -0.439056,-0.12278 -0.644662,-0.22205 -0.206493,-0.10354 -0.405644,-0.22085 -0.58848,-0.36277 -0.206701,-0.15874 -0.400731,-0.33237 -0.568999,-0.53225 -0.187313,-0.22931 -0.360287,-0.47033 -0.512859,-0.72427 -0.160798,-0.2701 -0.3181825,-0.54244 -0.4605188,-0.82283 -0.1469252,-0.29182 -0.2839006,-0.5885 -0.4279466,-0.88175 -0.1354997,-0.28036 -0.2676332,-0.56239 -0.40836,-0.84018 -0.1014408,-0.19258 -0.2066449,-0.38566 -0.3590939,-0.54361 -0.099247,-0.0945 -0.1949823,-0.17331 -0.3355752,-0.19228 -0.1591699,-0.0166 -0.3175977,0.007 -0.471342,0.0499 -0.2683743,0.0828 -0.521227,0.20642 -0.7678647,0.33983 0.040933,-0.0239 0.1615572,-0.0991 0.1228002,-0.0718 -0.051532,0.0363 -0.107959,0.0651 -0.1612302,0.0988 -0.2354694,0.14899 -0.4606665,0.31361 -0.6834536,0.48074 -0.3694571,0.28087 -0.7341693,0.56838 -1.0824406,0.87537 -0.3669324,0.32449 -0.7224816,0.66149 -1.056114,1.02045 -0.3530658,0.37321 -0.6969697,0.75461 -1.0361777,1.14046 -0.3183292,0.36189 -0.6368173,0.72364 -0.9561308,1.08466 -0.1693581,0.19077 -0.343178,0.37804 -0.5061289,0.57426 0,0 -0.3242123,0.1343 -0.3242123,0.1343 z"
       inkscape:connector-curvature="0"
       style="stroke-width:0.26458332" />
    <path
       id="path1420"
       d="m 1.7686697,295.46727 c 0.1847547,-0.17577 0.3807025,-0.33874 0.5774028,-0.5008 0.3267277,-0.26942 0.6714522,-0.51565 1.0180045,-0.75861 0.4715317,-0.32793 0.9723237,-0.61027 1.4693665,-0.89687 0.3718118,-0.21772 0.7594615,-0.40412 1.1575986,-0.56788 0.2422573,-0.0879 0.4970851,-0.1634 0.7574388,-0.16288 0.043806,9e-5 0.087439,0.005 0.131159,0.008 0.2860993,0.0357 0.5134531,0.18522 0.7391434,0.35325 0.2653049,0.20755 0.5124913,0.43675 0.7685961,0.6553 0.2713106,0.24069 0.5693114,0.44694 0.8703911,0.64791 0.3149684,0.21229 0.6433526,0.40315 0.9795895,0.57941 0.332844,0.17147 0.668492,0.33781 1.008832,0.49391 0.31474,0.14141 0.628411,0.28561 0.947893,0.41609 0.31034,0.12152 0.62815,0.22281 0.949127,0.31202 0.336148,0.0895 0.680045,0.14219 1.024563,0.18631 0.202301,0.0229 0.404933,0.0421 0.607924,0.0576 0,0 -0.270525,0.19299 -0.270525,0.19299 v 0 c -0.200991,-0.0196 -0.401967,-0.0393 -0.602518,-0.0631 -0.345586,-0.0453 -0.690504,-0.0996 -1.027664,-0.18983 -0.321891,-0.0904 -0.641019,-0.19139 -0.95198,-0.3147 -0.318914,-0.13158 -0.631661,-0.27741 -0.946276,-0.41885 -0.339653,-0.15799 -0.675695,-0.32376 -1.0082032,-0.49629 -0.3369598,-0.17733 -0.6661988,-0.36893 -0.9822492,-0.58165 -0.3028603,-0.2009 -0.6009264,-0.40937 -0.8739161,-0.65021 -0.2563577,-0.21776 -0.5035592,-0.4466 -0.7709342,-0.65109 -0.2239195,-0.16279 -0.4493148,-0.30568 -0.7314943,-0.33529 -0.042716,-0.002 -0.085393,-0.006 -0.1281475,-0.006 -0.2560375,0.003 -0.5058193,0.0778 -0.7437339,0.16595 -0.3949674,0.1629 -0.7789667,0.34932 -1.147876,0.56546 0.019592,-0.0115 0.078367,-0.0459 0.058775,-0.0344 -0.2709545,0.15873 -0.5406953,0.31911 -0.8029339,0.49203 -0.062967,0.0415 -0.1251096,0.0843 -0.1876645,0.12641 -0.3446666,0.24145 -0.6881561,0.48534 -1.0126383,0.75373 -0.1892822,0.15706 -0.3790688,0.31377 -0.5534716,0.48758 0,0 -0.3235789,0.13403 -0.3235789,0.13403 z"
       inkscape:connector-curvature="0"
       style="stroke-width:0.26458332" />
    <path
       id="path1422"
       d="m 0.89001951,293.50982 c 0.15005749,-0.21729 0.30480619,-0.43123 0.46368929,-0.64214 0.2917115,-0.37607 0.5950775,-0.74276 0.9003634,-1.10782 0.339793,-0.40907 0.6939491,-0.80573 1.0494827,-1.20107 0.3725706,-0.41296 0.7553894,-0.81643 1.1453405,-1.21295 0.3892079,-0.39125 0.7970668,-0.76332 1.2100854,-1.12912 0.3816918,-0.34538 0.7708021,-0.6822 1.1646683,-1.01357 0.355088,-0.30215 0.7306553,-0.57713 1.116961,-0.83756 0.4367839,-0.28536 0.884129,-0.55647 1.3531037,-0.78577 0.2087605,-0.0949 0.4161317,-0.19414 0.6327579,-0.2703 0.1197193,-0.0421 0.1762793,-0.0568 0.2971443,-0.0919 0.263656,-0.0774 0.535151,-0.11623 0.807594,-0.14562 0.229613,-0.0233 0.45829,0.002 0.684066,0.0434 0.113164,0.0268 0.226634,0.0575 0.328652,0.11496 0.05583,0.0314 0.06457,0.0413 0.113836,0.08 0.149421,0.14605 0.148533,0.27757 0.137563,0.47612 -0.03266,0.29723 -0.115935,0.58656 -0.193996,0.87446 -0.07856,0.28176 -0.167771,0.56038 -0.246301,0.84213 -0.0458,0.17523 -0.09392,0.34996 -0.123557,0.52886 -0.01891,0.11417 -0.02093,0.15019 -0.03299,0.26538 -0.02379,0.259 -0.02689,0.5187 -0.0012,0.77746 0.02668,0.16486 0.05598,0.33061 0.105271,0.49053 0.02608,0.0846 0.05345,0.15054 0.08553,0.233 0.103648,0.25009 0.250598,0.46526 0.41491,0.67832 0.187619,0.23727 0.407773,0.44406 0.63727,0.63983 0.258877,0.21582 0.544962,0.39387 0.834824,0.56425 0.304788,0.18043 0.621285,0.33972 0.939812,0.49417 0.318536,0.15827 0.645845,0.29649 0.976143,0.4279 0.272882,0.1065 0.54421,0.2174 0.808547,0.34377 0.109882,0.0569 0.222054,0.11036 0.322984,0.1828 0.05936,0.0426 0.123285,0.0996 0.17889,0.14758 0,0 -0.285205,0.17737 -0.285205,0.17737 v 0 c -0.06664,-0.0593 -0.09979,-0.092 -0.174345,-0.14455 -0.100233,-0.0706 -0.210931,-0.12413 -0.319519,-0.18017 -0.26216,-0.12631 -0.530824,-0.23828 -0.801069,-0.34607 -0.330374,-0.1322 -0.657216,-0.27255 -0.976194,-0.43064 -0.319659,-0.15438 -0.63668,-0.31463 -0.942223,-0.49573 -0.291482,-0.17189 -0.579766,-0.35023 -0.840367,-0.56744 -0.231534,-0.19722 -0.45319,-0.40576 -0.643395,-0.64411 -0.05425,-0.0703 -0.118383,-0.15131 -0.168351,-0.22487 -0.09856,-0.14509 -0.18255,-0.30009 -0.253502,-0.46035 -0.03332,-0.0852 -0.05981,-0.1486 -0.08712,-0.23605 -0.05045,-0.16153 -0.07929,-0.32913 -0.107505,-0.49561 -0.0045,-0.0427 -0.01036,-0.0852 -0.0136,-0.12805 -0.01651,-0.21837 -0.0015,-0.43798 0.01278,-0.65596 0.01129,-0.11442 0.01345,-0.15432 0.03175,-0.2678 0.02901,-0.17999 0.07672,-0.35583 0.123174,-0.53189 0.07833,-0.28251 0.168845,-0.56142 0.249289,-0.84334 0.07748,-0.28454 0.159577,-0.57085 0.190399,-0.8649 0.0093,-0.1791 0.01027,-0.31434 -0.129028,-0.44357 -0.131685,-0.1023 -0.264922,-0.15093 -0.428007,-0.18478 -0.222941,-0.0395 -0.448554,-0.0634 -0.674935,-0.0382 -0.270286,0.0301 -0.539505,0.0702 -0.8008825,0.14783 -0.1231797,0.0364 -0.1720342,0.049 -0.2940923,0.0928 -0.2142099,0.0769 -0.4199814,0.17491 -0.6267334,0.26944 -0.057539,0.0285 -0.1156073,0.0559 -0.1726163,0.0854 -0.058973,0.0305 -0.1154438,0.0659 -0.1752721,0.0947 -0.032798,0.0158 0.1249243,-0.0748 0.094021,-0.0556 -0.1849609,0.11517 -0.3746542,0.22289 -0.5547699,0.34579 -0.1907664,0.12789 -0.3809275,0.25624 -0.5647293,0.3941 -0.1264451,0.0948 -0.2454023,0.19062 -0.3685719,0.28968 -0.062684,0.0504 -0.1250974,0.10117 -0.1876463,0.15175 -0.3951885,0.33179 -0.786807,0.6677 -1.1689963,1.01447 -0.4136356,0.36557 -0.8225631,0.73691 -1.2125277,1.12784 -0.3900358,0.39572 -0.7721333,0.79907 -1.144819,1.21122 -0.3544922,0.39469 -0.7078858,0.79042 -1.0467569,1.19872 -0.3029874,0.36272 -0.6037895,0.72729 -0.8916187,1.10225 -0.1524098,0.20457 -0.3020941,0.41191 -0.4369979,0.62853 0,0 -0.32143622,0.14064 -0.32143622,0.14064 z"
       inkscape:connector-curvature="0"
       style="stroke-width:0.26458332" />
    <path
       id="path1424"
       d="m 0.71130228,295.13244 c 0.23303719,-0.20597 0.44655942,-0.43284 0.66478432,-0.65413 0.37657,-0.38188 0.7582022,-0.75865 1.1438229,-1.13138 0.4167395,-0.40851 0.859725,-0.78823 1.3175545,-1.14961 0.3579024,-0.26766 0.7234361,-0.52827 1.1113904,-0.75118 0.158917,-0.0913 0.3193627,-0.17993 0.479044,-0.2699 0.3239418,-0.17107 0.6646656,-0.31032 1.0195555,-0.40252 0.065811,-0.0171 0.1324441,-0.0309 0.1986664,-0.0463 0.3281579,-0.0654 0.6634503,-0.0974 0.9981729,-0.0902 0.064289,10e-4 0.1284586,0.006 0.1926878,0.009 0.2503977,0.0183 0.4984385,0.065 0.7372765,0.14274 0.1500026,0.0488 0.2056032,0.0756 0.3510352,0.1364 0.3414625,0.15322 0.6437976,0.37518 0.9359389,0.60595 0.2902334,0.24087 0.5758274,0.48729 0.8626164,0.73224 0.293638,0.24955 0.597607,0.4862 0.906429,0.71653 0.293617,0.21896 0.59888,0.42142 0.907609,0.61825 0.262129,0.17367 0.547712,0.30355 0.843181,0.40836 0.313809,0.10175 0.639687,0.1561 0.966738,0.19225 0.419294,0.0443 0.841185,0.055 1.262506,0.0563 0.315117,-0.006 0.161234,-0.001 0.461659,-0.0124 0,0 -0.255799,0.18704 -0.255799,0.18704 v 0 c -0.297873,0.007 -0.14447,0.004 -0.460209,0.0101 -0.424648,-10e-4 -0.84996,-0.0103 -1.27273,-0.0532 -0.329531,-0.0372 -0.65799,-0.0923 -0.973747,-0.19661 -0.296604,-0.10707 -0.583073,-0.23898 -0.845344,-0.41585 -0.307127,-0.19944 -0.611899,-0.40278 -0.904947,-0.6226 -0.309413,-0.23079 -0.614311,-0.46755 -0.90836,-0.71778 -0.287161,-0.24412 -0.5713523,-0.4918 -0.8629895,-0.73059 -0.2899145,-0.22913 -0.5906743,-0.44859 -0.9303888,-0.59898 -0.1451848,-0.0598 -0.1994355,-0.0857 -0.3491439,-0.13329 -0.2374161,-0.0755 -0.4838342,-0.11996 -0.7322309,-0.13706 -0.063639,-0.003 -0.1272246,-0.007 -0.1909156,-0.008 -0.3332372,-0.006 -0.6667723,0.0285 -0.9930313,0.0954 -0.1758307,0.0422 -0.2201997,0.0496 -0.3926996,0.10425 -0.2821895,0.0894 -0.5539086,0.20853 -0.8152341,0.34724 0.1043683,-0.0724 0.1458134,-0.0992 -0.1577071,0.0877 -0.2311325,0.14237 -0.456671,0.2956 -0.6769634,0.45415 -0.077178,0.0555 -0.1529109,0.11308 -0.2293665,0.16962 -0.4582067,0.35996 -0.9018426,0.73815 -1.3180197,1.14646 -0.3831286,0.37031 -0.7617138,0.74525 -1.1340448,1.12644 -0.21029,0.21541 -0.4161131,0.43537 -0.6332958,0.64393 0,0 -0.32350072,0.13148 -0.32350072,0.13148 z"
       inkscape:connector-curvature="0"
       style="stroke-width:0.26458332" />
    <path
       id="path1426"
       d="m 0.58203504,290.83824 c 0.094174,-0.26682 0.20491032,-0.52677 0.32208446,-0.78423 0.2273852,-0.48992 0.5214732,-0.94291 0.8295834,-1.38487 0.3719809,-0.5188 0.7978544,-0.99507 1.2336777,-1.4603 0.3897172,-0.41574 0.7919945,-0.81997 1.2151646,-1.20182 0.086111,-0.0777 0.1741665,-0.15322 0.2612498,-0.22983 0.5341877,-0.46819 1.1095456,-0.88467 1.6932765,-1.28802 0.6525749,-0.44002 1.3393303,-0.8274 2.0372212,-1.19036 0.5784834,-0.29997 1.1766746,-0.55793 1.7831358,-0.7952 0.4643825,-0.17569 0.9386335,-0.32553 1.4223605,-0.4382 0.09109,-0.0212 0.182898,-0.0392 0.274346,-0.0588 0.346062,-0.0648 0.6956,-0.11305 1.047048,-0.13625 0.183946,-0.0121 0.312885,-0.0132 0.496863,-0.0175 0.45787,-0.007 0.914564,0.0278 1.368928,0.0809 0.307802,0.0475 0.616809,0.1048 0.911181,0.2093 0.05219,0.0185 0.103119,0.0404 0.154679,0.0607 0.29731,0.12117 0.558977,0.30652 0.808531,0.50521 0.222804,0.1778 0.429891,0.37351 0.627558,0.57856 0.152906,0.15774 0.28797,0.3308 0.420536,0.50557 0.09117,0.11448 0.158399,0.24455 0.231134,0.37075 0.05265,0.0873 0.09865,0.17868 0.135887,0.27364 0.02258,0.0665 0.03979,0.13497 0.05261,0.20404 0.01029,0.0635 0.01195,0.1272 0.0054,0.19103 -0.01018,0.0682 -0.03069,0.13428 -0.05651,0.19802 -0.03334,0.0749 -0.0749,0.14572 -0.112787,0.21835 -0.03074,0.0563 -0.06473,0.11087 -0.105979,0.16008 -0.101036,0.11314 -0.238771,0.21487 -0.390142,0.23595 -0.04359,0.002 -0.08581,-0.0183 -0.125355,-0.0348 -0.08665,-0.0374 -0.169933,-0.0824 -0.252088,-0.1288 -0.108827,-0.0596 -0.213943,-0.12553 -0.320193,-0.18952 -0.114121,-0.0732 -0.225625,-0.15052 -0.337023,-0.22785 -0.131061,-0.0845 -0.264105,-0.16581 -0.398818,-0.24438 -0.12713,-0.0805 -0.257893,-0.15458 -0.388818,-0.22859 -0.125096,-0.0645 -0.249225,-0.1307 -0.373006,-0.1977 -0.111402,-0.0609 -0.228159,-0.11101 -0.341622,-0.16778 -0.08422,-0.0408 -0.168447,-0.0816 -0.252539,-0.12276 -0.05585,-0.0296 -0.108679,-0.0644 -0.165274,-0.0926 -0.02976,-0.0165 -0.05806,-0.0348 -0.08719,-0.0518 -0.02016,-0.009 -0.03655,-0.0181 -0.05289,-0.0331 -0.06966,-0.14547 0.21739,-0.20262 0.350146,-0.23451 0.110793,-0.0352 0.225608,-0.0291 0.339372,-0.0165 0.179377,0.0265 0.335898,0.11715 0.488433,0.20951 0.17204,0.1139 0.333412,0.24294 0.496126,0.36956 0.153772,0.11671 0.314211,0.22415 0.471694,0.3357 0.123454,0.0856 0.242467,0.17743 0.366115,0.26275 0.08999,0.0627 0.178998,0.12673 0.266196,0.19325 0.07358,0.0593 0.142275,0.12324 0.207263,0.19176 0.05531,0.055 0.09989,0.11897 0.145881,0.18157 0.0381,0.0531 0.05745,0.1166 0.07325,0.17928 0.01653,0.0678 0.0148,0.13636 0.0081,0.20518 -0.0048,0.0757 -0.02084,0.14917 -0.04744,0.22002 -0.02891,0.0728 -0.07289,0.13722 -0.121847,0.19779 -0.0533,0.0663 -0.123532,0.11542 -0.192828,0.1635 -0.180002,0.1064 -0.359874,0.21591 -0.55084,0.30227 -0.09176,0.0413 -0.189944,0.0612 -0.287657,0.0821 -0.09085,0.021 -0.183882,0.0282 -0.276794,0.0322 -0.07872,0.003 -0.157506,0.002 -0.236258,0.002 -0.0749,-2.4e-4 -0.149798,-2.2e-4 -0.224696,-3e-5 -0.05915,-0.004 -0.115264,-0.0172 -0.164447,-0.0508 -0.04433,-0.0288 -0.07149,-0.0716 -0.09615,-0.11714 -0.03138,-0.0675 -0.04541,-0.13905 -0.05315,-0.21249 -0.0146,-0.1055 0.01177,-0.20706 0.03866,-0.30804 0.03368,-0.10513 0.07775,-0.20655 0.131131,-0.3031 0.06085,-0.1115 0.143059,-0.20811 0.230123,-0.29971 0.111234,-0.11359 0.238024,-0.20775 0.371668,-0.29287 0.241126,-0.15717 0.449863,-0.27553 0.722223,-0.33655 0.153749,-0.0243 0.295448,-7.2e-4 0.439414,0.0543 0.106811,0.0436 0.202306,0.11213 0.26621,0.20958 0.01247,0.019 0.02227,0.0397 0.03341,0.0595 0.04673,0.105 0.0699,0.22087 0.04911,0.33528 -0.0042,0.0232 -0.01157,0.0458 -0.01735,0.0687 -0.04869,0.13663 -0.138251,0.25088 -0.25834,0.33223 -0.02896,0.0196 -0.05996,0.036 -0.08994,0.0541 -0.206362,0.12919 -0.386367,0.23691 -0.620508,0.27287 -0.130994,0.0201 -0.2614,0.0163 -0.393174,0.0112 -0.207414,-0.016 -0.411531,-0.0675 -0.598775,-0.15915 -0.03378,-0.0165 -0.06604,-0.036 -0.09905,-0.0541 -0.150491,-0.0899 -0.277816,-0.21417 -0.368199,-0.36484 -0.01781,-0.0297 -0.03254,-0.0611 -0.04881,-0.0917 -0.08299,-0.19844 -0.106921,-0.41276 -0.09236,-0.62624 0.0035,-0.0513 0.01066,-0.10219 0.01599,-0.15328 0.02856,-0.20192 0.07368,-0.40215 0.143078,-0.59419 0.03991,-0.11043 0.06298,-0.15288 0.112853,-0.25845 0.07493,-0.14939 0.168494,-0.28893 0.288225,-0.40615 0.06631,-0.0649 0.0926,-0.0819 0.165274,-0.13816 0.202221,-0.12899 0.405355,-0.26879 0.636877,-0.33863 0.07249,-0.0219 0.09891,-0.0249 0.172409,-0.0389 0.131619,-0.0115 0.26897,8.5e-4 0.377475,0.0841 0.02286,0.0175 0.04222,0.0392 0.06333,0.0588 0.01875,0.0269 0.04024,0.0521 0.05625,0.0807 0.08557,0.15294 0.10334,0.33806 0.09455,0.51003 -0.0027,0.0523 -0.0107,0.10427 -0.01605,0.1564 -0.03874,0.28054 -0.129011,0.54906 -0.250481,0.80378 -0.07387,0.14682 -0.168863,0.28022 -0.291474,0.3897 -0.139834,0.0996 -0.089,0.0656 -0.380115,0.22184 -0.03321,0.0178 -0.08535,0.0202 -0.121388,0.0117 -0.0133,-0.003 -0.02564,-0.009 -0.03846,-0.0142 -0.111434,-0.0641 -0.139096,-0.19175 -0.165551,-0.3081 -0.02807,-0.20543 0.009,-0.41125 0.05353,-0.61146 0.04203,-0.18201 0.118285,-0.35141 0.22128,-0.50648 0.143001,-0.19683 0.328254,-0.31697 0.566952,-0.4014 0.117745,-0.0263 0.202849,-0.008 0.307642,0.0479 0.122238,0.0782 0.206548,0.20073 0.258933,0.33467 0.01442,0.0369 0.02465,0.0753 0.03698,0.11289 0.04616,0.18238 0.06554,0.37232 0.04846,0.56013 -0.0109,0.11979 -0.02723,0.17822 -0.0525,0.29521 -0.04916,0.18831 -0.133081,0.36389 -0.252405,0.51786 -0.0743,0.0959 -0.107546,0.12283 -0.193668,0.2074 -0.218013,0.19065 -0.469764,0.34984 -0.740204,0.45508 -0.103742,0.0404 -0.138607,0.0453 -0.245782,0.0718 -0.200345,0.0339 -0.407372,0.0342 -0.60716,-0.005 -0.03629,-0.007 -0.07196,-0.0171 -0.107946,-0.0257 -0.124602,-0.0396 -0.25125,-0.0787 -0.365911,-0.14298 -0.06607,-0.037 -0.0783,-0.0505 -0.137035,-0.097 -0.08585,-0.0759 -0.15443,-0.17222 -0.19697,-0.27906 -0.03053,-0.0767 -0.03721,-0.12182 -0.05544,-0.20273 -0.05128,-0.25253 -0.01164,-0.50644 0.04263,-0.75448 0.06378,-0.26339 0.180668,-0.50677 0.320209,-0.73741 0.110228,-0.1748 0.251015,-0.32408 0.415364,-0.44819 0.186336,-0.11567 0.37119,-0.25063 0.588853,-0.29662 0.07199,-0.0152 0.09005,-0.0129 0.163525,-0.0159 0.162747,10e-4 0.319133,0.0523 0.46102,0.13023 0.03472,0.0191 0.06777,0.041 0.101648,0.0615 0.17772,0.12037 0.341236,0.26525 0.46597,0.44112 0.0247,0.0348 0.0461,0.0719 0.06915,0.10779 0.114954,0.18738 0.168762,0.39736 0.189856,0.61397 0.0064,0.12396 0.0061,0.25151 -0.04008,0.36828 -0.08662,0.14459 -0.237598,0.18533 -0.395662,0.27077 -0.01773,0.01 -0.03844,0.0125 -0.05824,0.0163 -0.05963,0.0113 -0.09469,0.008 -0.15654,0.009 -0.241154,-0.002 -0.458252,-0.085 -0.673819,-0.18468 -0.157027,-0.0837 -0.296465,-0.1934 -0.411026,-0.32978 -0.07174,-0.0854 -0.09271,-0.12413 -0.153051,-0.21736 -0.09104,-0.16354 -0.155272,-0.34093 -0.185475,-0.52591 -0.02102,-0.12873 -0.0201,-0.18996 -0.02633,-0.32085 -0.0045,-0.3101 0.03786,-0.61895 0.100446,-0.92203 0.03262,-0.17056 0.09272,-0.33134 0.171379,-0.48532 0.100744,-0.17637 0.302629,-0.29795 0.506818,-0.30475 0.165603,0.009 0.316719,0.0849 0.462752,0.15701 0.156734,0.084 0.311556,0.18135 0.426285,0.31985 0.0215,0.026 0.03992,0.0543 0.05987,0.0815 0.09415,0.15152 0.124792,0.30795 0.08526,0.48317 -0.009,0.0398 -0.0232,0.0783 -0.0348,0.11748 -0.07885,0.21139 -0.200689,0.40731 -0.363644,0.56441 -0.03225,0.0311 -0.06753,0.0589 -0.101292,0.0883 -0.209748,0.15227 -0.136658,0.10479 -0.499738,0.30533 -0.05066,0.028 -0.156949,0.0701 -0.21352,0.0874 -0.084,0.0257 -0.103623,0.0249 -0.187765,0.0358 -0.133907,0.0166 -0.258178,-0.0112 -0.371845,-0.0817 -0.102368,-0.0812 -0.131721,-0.18494 -0.153644,-0.30829 -0.01629,-0.12216 -0.0011,-0.24257 0.03347,-0.35991 0.02469,-0.0775 0.067,-0.14718 0.116001,-0.21147 0.09938,-0.10635 0.248495,-0.25761 0.388465,-0.24174 0.03389,0.01 0.03796,0.0423 0.02966,0.0721 -0.01871,0.0367 -0.0495,0.0658 -0.08349,0.0883 -0.112331,0.0712 -0.230324,0.13375 -0.346225,0.19841 -0.01459,0.008 -0.0285,2.3e-4 -0.04276,-0.004 -0.04375,-0.0313 -0.03538,-0.0803 -0.02569,-0.12651 0.02339,-0.0872 0.08162,-0.15262 0.147693,-0.21084 0.158312,-0.0944 0.331021,-0.24085 0.531419,-0.23908 0.06401,5.7e-4 0.117815,0.0143 0.180617,0.0264 0.256042,0.0729 0.488249,0.20651 0.70657,0.35576 0.154353,0.12031 0.306552,0.25492 0.40557,0.42665 0.01701,0.0295 0.03011,0.0611 0.04516,0.0916 0.09029,0.23955 0.02516,0.4839 -0.04462,0.71925 -0.07659,0.23838 -0.171665,0.46958 -0.275282,0.69725 -0.07036,0.15062 -0.147961,0.29806 -0.240385,0.43635 -0.06183,0.0912 -0.144211,0.16364 -0.228865,0.23271 -0.11892,0.0923 -0.257099,0.15696 -0.388208,0.22937 -0.02339,0.0129 -0.04128,0.0124 -0.06449,0.003 -0.0603,-0.0554 -0.0098,-0.12172 0.028,-0.17402 0.04888,-0.055 0.105358,-0.10404 0.168913,-0.14156 0.266486,-0.1573 0.307595,-0.20559 0.543024,-0.26596 0.132059,-0.0278 0.271667,-0.0333 0.399543,0.0167 0.02065,0.008 0.03996,0.0192 0.05994,0.0289 0.09036,0.054 0.155892,0.13222 0.174964,0.23765 0.004,0.0222 0.0045,0.0449 0.0067,0.0673 0.0042,0.15678 -0.0372,0.30609 -0.08887,0.45231 -0.05365,0.14676 -0.12621,0.28399 -0.209631,0.41562 -0.06765,0.099 -0.149852,0.18777 -0.249967,0.25412 -0.103785,0.037 -0.277782,0.20429 -0.434015,0.20993 -0.01285,4.8e-4 -0.03704,-0.004 -0.04991,-0.006 -0.05674,-0.0216 -0.08124,-0.0812 -0.09965,-0.13467 -0.01875,-0.0726 -0.02037,-0.14798 -0.0304,-0.22201 -0.0054,-0.0521 -0.01489,-0.10213 -0.0493,-0.14261 -0.06026,-0.0394 -0.138781,-0.005 -0.198626,0.019 -0.100053,0.0624 -0.333082,0.16346 0.133433,-0.0753 0.01942,-0.01 -0.03539,0.0255 -0.05248,0.0391 -0.04612,0.0366 -0.05371,0.0457 -0.09576,0.086 -0.102727,0.10333 -0.15902,0.23422 -0.210033,0.36796 -0.07176,0.19592 -0.09997,0.40308 -0.119871,0.60962 -0.02203,0.20839 -0.01483,0.41645 0.01508,0.62337 0.02506,0.17293 0.07361,0.33924 0.145207,0.49825 0.06385,0.14098 0.149832,0.26896 0.248542,0.38751 0.09318,0.10525 0.200117,0.19574 0.31019,0.28246 0.09159,0.0724 0.188262,0.13716 0.286583,0.19987 0.07049,0.0437 0.141595,0.0865 0.212654,0.12938 0.04593,0.0281 0.09268,0.0541 0.132147,0.0911 0.02603,0.0251 0.05579,0.0462 0.08383,0.0691 0.02415,0.0132 0.0461,0.029 0.07186,0.0388 0.02378,0.0179 0.05413,0.0198 0.08004,0.0324 0.02308,0.0139 0.0487,0.0168 0.07488,0.0188 0.01411,0.004 0.0307,-0.003 0.04465,8.8e-4 0.009,0.002 0.01685,0.008 0.0255,0.0112 0.02129,0.009 0.04452,0.011 0.06739,0.0118 0.0211,6.9e-4 0.04222,4.5e-4 0.06333,2.2e-4 0.01996,0.0106 0.04123,0.02 0.06389,0.0224 0.01821,0.002 0.03661,0.001 0.0549,0.001 0.01823,-1.2e-4 0.03646,-1.3e-4 0.0547,-3.7e-4 0.142043,-0.0104 -0.186184,0.20669 -0.308372,0.20733 -0.03274,0.003 -0.05969,-0.0147 -0.08858,-0.0272 -0.04006,-0.0275 -0.07398,-0.0625 -0.111656,-0.0931 -0.0479,-0.038 -0.0892,-0.0835 -0.130489,-0.12844 -0.05122,-0.0581 -0.110413,-0.10839 -0.170505,-0.15698 -0.0698,-0.0513 -0.14144,-0.1008 -0.219232,-0.13914 -0.07819,-0.0376 -0.153616,-0.0805 -0.228476,-0.12422 -0.07706,-0.0514 -0.152088,-0.10588 -0.227556,-0.15961 -0.05898,-0.0438 -0.119544,-0.0836 -0.164377,-0.14249 -0.02553,-0.0349 -0.0284,-0.079 -0.03533,-0.12028 0,0 0.306115,-0.16224 0.306115,-0.16224 v 0 c 0.0056,0.0357 0.0077,0.0735 0.02927,0.10402 0.04273,0.0553 0.10222,0.0925 0.156941,0.13496 0.07448,0.0534 0.148234,0.1081 0.225878,0.15681 0.07455,0.0431 0.149923,0.0847 0.227144,0.12285 0.07872,0.0416 0.153032,0.0911 0.224011,0.14474 0.06108,0.0499 0.12078,0.10179 0.173695,0.16045 0.04145,0.0429 0.08163,0.0874 0.129203,0.12378 0.03528,0.0287 0.06706,0.063 0.107558,0.0842 0.02703,0.0115 0.05198,0.0181 0.08158,0.0147 0.148887,9e-4 -0.14252,0.21658 -0.262379,0.20748 -0.0183,-1.2e-4 -0.0366,7e-5 -0.0549,-3.2e-4 -0.01978,-7.7e-4 -0.03967,-0.002 -0.05886,-0.007 -0.0193,-0.006 -0.03929,-0.0173 -0.05956,-0.0161 -0.02161,-2.6e-4 -0.04326,-6.1e-4 -0.06476,-0.003 -0.02472,-0.003 -0.04875,-0.009 -0.07203,-0.0185 -0.02131,-0.006 -0.04433,-0.001 -0.06608,-0.007 -0.02802,-0.005 -0.0543,-0.0138 -0.07984,-0.0264 -0.02815,-0.008 -0.05505,-0.0196 -0.08108,-0.0333 -0.0267,-0.0135 -0.05206,-0.0299 -0.07639,-0.0472 -0.02817,-0.0234 -0.05851,-0.0444 -0.08395,-0.071 -0.03878,-0.034 -0.08368,-0.0591 -0.126969,-0.0868 -0.06978,-0.0445 -0.141438,-0.0858 -0.210279,-0.13166 -0.09827,-0.0642 -0.195011,-0.13036 -0.286766,-0.20373 -0.11113,-0.0888 -0.21777,-0.18294 -0.312358,-0.28954 -0.09974,-0.12145 -0.187659,-0.25206 -0.25194,-0.39607 -0.074,-0.16391 -0.121645,-0.32944 -0.147689,-0.50774 -0.02994,-0.20976 -0.03858,-0.42046 -0.0161,-0.63173 0.01848,-0.20786 0.04405,-0.41663 0.111241,-0.61527 0.04901,-0.13668 0.101372,-0.27134 0.201073,-0.38031 0.170037,-0.17346 0.384582,-0.29211 0.60434,-0.39334 0.07626,-0.024 0.161558,-0.0478 0.226957,0.0131 0.03724,0.0467 0.05197,0.10125 0.05686,0.16052 0.0097,0.072 0.01169,0.14488 0.02776,0.21581 0.01375,0.0413 0.03095,0.093 0.07997,0.10024 0.137479,0.007 0.373969,-0.16878 -0.124961,0.12391 0.105595,-0.0569 0.188873,-0.14551 0.259943,-0.24115 0.08468,-0.12947 0.16,-0.2634 0.213905,-0.40906 0.05181,-0.14155 0.09576,-0.28536 0.09326,-0.438 -0.0104,-0.14049 -0.04155,-0.19906 -0.163491,-0.27389 -0.01878,-0.008 -0.03697,-0.0182 -0.05635,-0.0251 -0.124741,-0.0443 -0.258853,-0.0336 -0.3853,-0.004 -0.02907,0.009 -0.05871,0.0157 -0.08721,0.026 -0.100209,0.0365 -0.27545,0.14148 0.129716,-0.0904 0.02318,-0.0133 -0.04579,0.0276 -0.06763,0.043 -0.01962,0.0138 -0.03837,0.0289 -0.05661,0.0444 -0.01539,0.0132 -0.02946,0.0278 -0.04419,0.0417 -0.0051,0.006 -0.09058,0.10008 -0.05707,0.10889 0.01198,-0.003 0.0125,-0.003 0.02607,-0.008 0.0077,-0.003 0.02985,-0.0145 0.02271,-0.0103 -0.492239,0.29334 -0.309241,0.18558 -0.206144,0.1175 0.08522,-0.068 0.171641,-0.13579 0.236091,-0.22506 0.09756,-0.13558 0.175709,-0.28381 0.248884,-0.43369 0.106377,-0.22683 0.205134,-0.45685 0.28266,-0.69544 0.06807,-0.2262 0.134122,-0.46257 0.04991,-0.694 -0.01421,-0.0294 -0.02656,-0.0597 -0.04263,-0.0881 -0.09542,-0.16847 -0.242509,-0.30145 -0.393617,-0.41867 -0.216688,-0.14665 -0.447287,-0.27924 -0.70427,-0.34005 -0.07127,-0.0104 -0.108018,-0.0199 -0.178603,-0.0158 -0.158108,0.009 -0.402653,0.17835 0.06376,-0.0948 -0.06553,0.0514 -0.124906,0.10822 -0.153808,0.18852 -0.0033,0.0141 -0.02835,0.0722 -9.26e-4,0.0753 0.01187,-10e-4 0.04438,-0.0201 0.0299,-0.0117 -0.50009,0.29078 -0.360637,0.20912 -0.255819,0.14755 0.03323,-0.0199 0.06498,-0.0393 0.08965,-0.07 0.0041,-0.005 0.0056,-0.0119 0.01112,-0.0146 0.01049,-0.005 0.0071,0.0139 -6.62e-4,0.0106 -0.08915,0.0805 -0.01299,0.0109 0.280299,-0.16117 0.0051,-0.003 -0.01082,0.005 -0.0157,0.008 -0.01872,0.0127 -0.03368,0.0308 -0.051,0.0451 -0.0543,0.0571 -0.09608,0.12781 -0.125291,0.20058 -0.03862,0.11191 -0.0555,0.22734 -0.04226,0.3458 0.01844,0.10962 0.04526,0.21337 0.140431,0.28174 0.10958,0.0634 0.227034,0.0841 0.353197,0.0662 0.101226,-0.0159 0.187055,-0.0372 0.281906,-0.0782 0.03616,-0.0156 0.137817,-0.0751 0.106616,-0.051 -0.05359,0.0413 -0.11244,0.0768 -0.174651,0.10346 -0.04044,0.0173 0.07231,-0.0501 0.108463,-0.0752 0.0343,-0.0285 0.07008,-0.0553 0.102917,-0.0854 0.164216,-0.15087 0.287123,-0.34175 0.36746,-0.54894 0.01165,-0.0375 0.02571,-0.0743 0.03494,-0.11245 0.04022,-0.16626 0.0153,-0.31393 -0.07398,-0.45903 -0.01917,-0.0261 -0.03682,-0.0534 -0.0575,-0.0783 -0.112266,-0.13531 -0.265015,-0.2295 -0.419239,-0.3095 -0.14485,-0.0682 -0.2959,-0.14114 -0.459858,-0.13666 -0.0161,0.002 -0.03247,0.003 -0.04829,0.007 -0.01407,0.003 -0.05314,0.022 -0.04099,0.0142 0.0855,-0.055 0.174598,-0.10428 0.261898,-0.15642 -0.01026,0.007 -0.02146,0.0129 -0.03079,0.0212 -0.02415,0.0214 -0.03814,0.0454 -0.0564,0.0718 -0.08371,0.15254 -0.151924,0.31073 -0.187058,0.48237 -0.06757,0.30064 -0.113514,0.60782 -0.108958,0.91671 0.0064,0.1327 0.0049,0.18456 0.02659,0.31469 0.03013,0.18079 0.09176,0.35465 0.181648,0.51427 0.05877,0.0908 0.07976,0.12963 0.149904,0.21255 0.112417,0.13288 0.25036,0.23821 0.404552,0.31833 0.219491,0.0985 0.426387,0.17291 0.671053,0.16769 0.06344,-0.004 0.09436,-0.002 0.154029,-0.0193 0.01912,-0.006 0.07216,-0.0329 0.0555,-0.022 -0.4614,0.30197 -0.261984,0.17869 -0.188717,0.0901 0.0067,-0.0126 0.01469,-0.0245 0.02005,-0.0377 0.04031,-0.0991 0.03331,-0.21396 0.03473,-0.3182 -0.0146,-0.21246 -0.06568,-0.41852 -0.176409,-0.60273 -0.02241,-0.0351 -0.04316,-0.0713 -0.06724,-0.10529 -0.122597,-0.17293 -0.284361,-0.31419 -0.461012,-0.42959 -0.03363,-0.0195 -0.06641,-0.0405 -0.100885,-0.0584 -0.140982,-0.0734 -0.295847,-0.11714 -0.455395,-0.11331 -0.08261,0.007 -0.158181,0.0178 -0.236747,0.0458 -0.02504,0.009 -0.09558,0.0454 -0.07383,0.0301 0.02571,-0.0181 0.364769,-0.2185 0.147816,-0.0901 -0.168951,0.11875 -0.312454,0.2662 -0.426776,0.43879 -0.142024,0.22675 -0.260504,0.46715 -0.326206,0.72797 -0.05431,0.24284 -0.0954,0.49147 -0.04488,0.73912 0.0078,0.0342 0.01404,0.0688 0.0235,0.10259 0.03862,0.13795 0.112133,0.26326 0.221113,0.35702 0.05767,0.0447 0.06768,0.056 0.132269,0.0918 0.112463,0.0624 0.235981,0.10144 0.358445,0.13853 0.0353,0.008 0.07031,0.0173 0.105895,0.0239 0.197195,0.0365 0.401042,0.034 0.597561,-0.005 0.106202,-0.0283 0.13884,-0.0334 0.24134,-0.0757 0.04061,-0.0168 0.151408,-0.0858 0.119485,-0.0556 -0.04662,0.0441 -0.105858,0.0743 -0.165162,0.0988 -0.08519,0.0351 0.320138,-0.19042 0.220849,-0.1663 0.08616,-0.0815 0.12141,-0.10936 0.19628,-0.20195 0.1209,-0.14952 0.207737,-0.32091 0.258794,-0.5062 0.02603,-0.1143 0.04311,-0.17294 0.05485,-0.29001 0.0184,-0.18346 -3.44e-4,-0.3691 -0.04741,-0.54693 -0.01227,-0.0361 -0.02246,-0.073 -0.03681,-0.10833 -0.05153,-0.12693 -0.133828,-0.24217 -0.254025,-0.31102 -0.09869,-0.0452 -0.186098,-0.0593 -0.291436,-0.024 -0.127643,0.0563 -0.09977,0.0462 0.199699,-0.12487 0.0164,-0.009 -0.03212,0.02 -0.04707,0.0316 -0.05286,0.0408 -0.0935,0.0939 -0.135411,0.14518 -0.107976,0.14985 -0.186702,0.31688 -0.230979,0.49675 -0.04587,0.19484 -0.08272,0.39516 -0.05667,0.59583 0.02447,0.10226 0.04794,0.22465 0.153068,0.27327 0.03732,0.008 0.06755,0.01 0.104708,-0.002 0.01318,-0.004 0.05025,-0.0227 0.03853,-0.0153 -0.06877,0.0429 -0.376198,0.22167 -0.209491,0.12351 0.129257,-0.10331 0.227584,-0.23518 0.305917,-0.38066 0.127039,-0.25071 0.221179,-0.51683 0.261491,-0.79605 0.0053,-0.0508 0.01323,-0.10146 0.016,-0.1525 0.0089,-0.16461 -0.007,-0.34259 -0.0921,-0.48778 -0.01537,-0.0262 -0.03608,-0.0489 -0.05412,-0.0734 -0.0202,-0.0175 -0.03879,-0.037 -0.0606,-0.0525 -0.105614,-0.0748 -0.238317,-0.0798 -0.361994,-0.0645 -0.08771,0.0186 -0.172248,0.0395 -0.255209,0.0745 -0.10121,0.0427 -0.250931,0.13375 0.116639,-0.0799 0.02959,-0.0172 -0.05839,0.0357 -0.08759,0.0535 -0.07531,0.0554 -0.09942,0.07 -0.168842,0.13411 -0.122735,0.11337 -0.219309,0.24984 -0.29613,0.39782 -0.04769,0.0978 -0.07737,0.15285 -0.115883,0.25511 -0.0714,0.1896 -0.118036,0.38809 -0.146994,0.58831 -0.0053,0.0502 -0.01235,0.10017 -0.01581,0.15049 -0.01425,0.20712 0.0092,0.4153 0.09053,0.60753 0.01576,0.0295 0.03005,0.0599 0.04729,0.0886 0.08776,0.14608 0.211804,0.26554 0.358136,0.35205 0.03219,0.0174 0.0636,0.0363 0.09656,0.0521 0.184545,0.0888 0.385699,0.13718 0.589605,0.15024 0.172056,0.004 0.341201,0.002 0.5078,-0.0472 0.03788,-0.0113 0.139399,-0.0682 0.111574,-0.0402 -0.05227,0.0527 -0.125907,0.0788 -0.18886,0.11815 0.06118,-0.0342 0.113398,-0.0598 0.167939,-0.10404 0.08325,-0.0676 0.144618,-0.15719 0.18525,-0.25559 0.0063,-0.0214 0.01411,-0.0425 0.01901,-0.0643 0.0241,-0.10724 0.0049,-0.2164 -0.03886,-0.31581 -0.01032,-0.0184 -0.0193,-0.0376 -0.03095,-0.0553 -0.06101,-0.0922 -0.153461,-0.15383 -0.254897,-0.19384 -0.139909,-0.0493 -0.280548,-0.0682 -0.427486,-0.0382 -0.07367,0.0185 -0.14449,0.0396 -0.214993,0.0682 -0.02394,0.01 -0.09251,0.0452 -0.07118,0.0306 0.02819,-0.0192 0.362413,-0.21648 0.15266,-0.0925 -0.133519,0.0829 -0.261276,0.17291 -0.372887,0.28457 -0.08727,0.0882 -0.169418,0.18233 -0.231035,0.29071 -0.0552,0.0935 -0.09808,0.19287 -0.13471,0.29498 -0.02611,0.0969 -0.05657,0.19416 -0.0427,0.29585 0.0074,0.0688 0.01957,0.13594 0.04903,0.19923 0.02198,0.0406 0.04726,0.0768 0.08744,0.10139 0.04651,0.0262 0.09897,0.0349 0.152037,0.0356 0.07459,3.5e-4 0.149188,6.4e-4 0.223781,6.9e-4 0.07829,-8e-5 0.156624,2.2e-4 0.234864,-0.003 0.09147,-0.005 0.182656,-0.0145 0.272013,-0.0356 0.09716,-0.021 0.193701,-0.0459 0.283871,-0.0889 0.125887,-0.06 0.480202,-0.25471 -0.04239,0.0396 0.06875,-0.0454 0.13869,-0.0924 0.194352,-0.1537 0.04984,-0.0573 0.09643,-0.1177 0.126608,-0.18803 0.02938,-0.0669 0.04696,-0.1375 0.05105,-0.21067 0.0066,-0.0653 0.01314,-0.12982 -0.003,-0.19457 -0.01368,-0.0585 -0.03145,-0.11787 -0.06612,-0.16764 -0.04463,-0.0617 -0.08788,-0.12469 -0.142349,-0.17848 -0.06354,-0.0672 -0.130639,-0.13019 -0.203032,-0.18787 -0.0865,-0.0663 -0.175253,-0.12943 -0.263606,-0.1932 -0.122056,-0.0869 -0.240054,-0.17934 -0.362952,-0.26508 -0.156907,-0.11244 -0.316269,-0.22152 -0.469844,-0.33855 -0.161898,-0.12592 -0.322758,-0.25395 -0.495237,-0.36531 -0.150521,-0.0895 -0.305868,-0.17525 -0.48314,-0.19477 -0.114402,-0.009 -0.228257,-0.008 -0.33761,0.032 -0.201395,0.0749 0.357127,-0.0838 0.226211,-0.16569 0.01474,0.0121 0.03373,0.017 0.04896,0.0287 0.02746,0.0179 0.05604,0.0341 0.08427,0.0508 0.05472,0.0303 0.10731,0.0644 0.162708,0.0935 0.08287,0.0426 0.167399,0.0817 0.250252,0.12433 0.113069,0.0573 0.229313,0.10838 0.340233,0.16994 0.123763,0.0673 0.248528,0.13255 0.373043,0.19839 0.130836,0.074 0.260395,0.1499 0.38775,0.22983 0.13556,0.079 0.269584,0.16066 0.401425,0.24576 0.111535,0.0763 0.222789,0.15318 0.337046,0.22536 0.106001,0.0639 0.211602,0.12854 0.320304,0.18789 0.08265,0.0446 0.165951,0.0889 0.254077,0.1219 0.037,0.0132 0.07472,0.0296 0.113926,0.0155 0.104095,-0.0454 0.290415,-0.16748 -0.257951,0.15398 -0.0052,0.003 0.01061,-0.006 0.01532,-0.009 0.0031,-0.002 0.02937,-0.0288 0.03108,-0.0305 0.04404,-0.0463 0.08024,-0.0978 0.111811,-0.15345 0.03852,-0.0713 0.07726,-0.14264 0.113297,-0.21517 0.02668,-0.0607 0.04738,-0.1236 0.06058,-0.18872 0.007,-0.0609 0.0083,-0.12128 -0.0015,-0.18213 -0.01079,-0.0674 -0.02769,-0.13379 -0.04748,-0.1991 -0.0353,-0.0939 -0.07907,-0.18451 -0.130446,-0.27066 -0.07121,-0.12539 -0.135325,-0.25544 -0.224284,-0.36985 -0.129877,-0.17473 -0.262107,-0.34782 -0.412717,-0.50553 -0.195759,-0.2045 -0.400885,-0.39985 -0.622285,-0.57669 -0.246731,-0.19701 -0.506739,-0.37935 -0.80145,-0.4981 -0.05087,-0.0199 -0.101133,-0.0414 -0.152611,-0.0596 -0.291648,-0.10324 -0.597437,-0.16132 -0.902446,-0.20787 -0.451614,-0.0545 -0.905732,-0.0882 -1.361014,-0.0811 -0.192827,0.005 -0.301968,0.005 -0.494835,0.0183 -0.349424,0.0235 -0.697004,0.0712 -1.04096,0.13662 -0.09113,0.0198 -0.182595,0.0381 -0.273399,0.0594 -0.481412,0.11271 -0.953445,0.26216 -1.4154862,0.43776 -0.6047644,0.23752 -1.2013631,0.49538 -1.7781883,0.79534 -0.4999866,0.26111 -0.099926,0.0497 -0.5955459,0.31849 -0.015253,0.008 -0.03137,0.0149 -0.046378,0.0236 -0.3027334,0.17562 -0.6018787,0.35781 -0.8909519,0.5553 -0.5837361,0.40216 -1.1593602,0.8172 -1.6935177,1.28443 -0.087238,0.0764 -0.175492,0.15166 -0.261715,0.2292 -0.4229277,0.38036 -0.8240424,0.78417 -1.2132669,1.19873 -0.4339572,0.46363 -0.8594168,0.93717 -1.2299478,1.45402 -0.3054425,0.43729 -0.5960562,0.88636 -0.8175615,1.37317 -0.1117936,0.25097 -0.22143511,0.50378 -0.29468996,0.76923 0,0 -0.3175423,0.14769 -0.3175423,0.14769 z"
       inkscape:connector-curvature="0"
       style="stroke-width:0.26458332" />
  </g>
</svg>
