<?xml version="1.0" encoding="UTF-8" standalone="no"?>
<!-- Created with Inkscape (http://www.inkscape.org/) -->

<svg
   xmlns:dc="http://purl.org/dc/elements/1.1/"
   xmlns:cc="http://creativecommons.org/ns#"
   xmlns:rdf="http://www.w3.org/1999/02/22-rdf-syntax-ns#"
   xmlns:svg="http://www.w3.org/2000/svg"
   xmlns="http://www.w3.org/2000/svg"
   xmlns:sodipodi="http://sodipodi.sourceforge.net/DTD/sodipodi-0.dtd"
   xmlns:inkscape="http://www.inkscape.org/namespaces/inkscape"
   width="64"
   height="64"
   viewBox="0 0 16.933333 16.933334"
   version="1.1"
   id="svg8"
   inkscape:version="0.92.1 r15371"
   sodipodi:docname="1_cat_2.svg"
   inkscape:export-filename="/home/physt/undev/repos/deep_learning/workshop/tasks/commonlearningdata/cartooncats/0_mountains_river_moon.png"
   inkscape:export-xdpi="96.000008"
   inkscape:export-ydpi="96.000008">
  <defs
     id="defs2" />
  <sodipodi:namedview
     id="base"
     pagecolor="#ffffff"
     bordercolor="#666666"
     borderopacity="1.0"
     inkscape:pageopacity="0.0"
     inkscape:pageshadow="2"
     inkscape:zoom="11.2"
     inkscape:cx="50.237003"
     inkscape:cy="32.732721"
     inkscape:document-units="mm"
     inkscape:current-layer="layer1"
     showgrid="false"
     inkscape:window-width="1920"
     inkscape:window-height="1016"
     inkscape:window-x="0"
     inkscape:window-y="27"
     inkscape:window-maximized="1"
     units="px" />
  <metadata
     id="metadata5">
    <rdf:RDF>
      <cc:Work
         rdf:about="">
        <dc:format>image/svg+xml</dc:format>
        <dc:type
           rdf:resource="http://purl.org/dc/dcmitype/StillImage" />
        <dc:title></dc:title>
      </cc:Work>
    </rdf:RDF>
  </metadata>
  <g
     inkscape:label="Layer 1"
     inkscape:groupmode="layer"
     id="layer1"
     transform="translate(0,-280.06665)">
    <path
       id="path250"
       d="m 2.7162484,288.89794 c 0.057405,0.0709 0.1246474,0.1355 0.1891261,0.20168 0.083257,0.0868 0.1777005,0.16515 0.2758328,0.2395 0.093664,0.074 0.1947469,0.14018 0.3000468,0.20142 0.1061225,0.0658 0.2163043,0.12646 0.3298529,0.18238 0.1136245,0.0552 0.2346632,0.0976 0.35223,0.14613 0.1091853,0.0471 0.2204942,0.0904 0.3312469,0.13464 0.1092941,0.0423 0.219719,0.0824 0.3302892,0.12213 0.114613,0.0402 0.2278546,0.0837 0.3450804,0.11811 0.1119013,0.0323 0.22601,0.0585 0.3401404,0.0842 0.1102109,0.0238 0.2228194,0.037 0.3347648,0.0528 0.1044136,0.0158 0.2101872,0.0216 0.315985,0.0247 0.1087446,-6.8e-4 0.2154402,-0.0185 0.3220935,-0.0345 0.1062738,-0.0164 0.2062834,-0.0512 0.3044179,-0.0886 0.096476,-0.0371 0.1920124,-0.0759 0.2844882,-0.11987 -0.5178652,0.2659 -0.1550212,0.0734 -0.042411,2.9e-4 0.071397,-0.0449 0.1353889,-0.0966 0.1964203,-0.15135 0.062096,-0.055 0.1239753,-0.11012 0.181991,-0.16827 0.065762,-0.0679 0.1254768,-0.13962 0.1830319,-0.21265 0.075441,-0.0931 0.1419569,-0.19083 0.2062683,-0.28973 0.073719,-0.10006 0.1333686,-0.20626 0.1877293,-0.31478 0.048062,-0.0922 0.083927,-0.1885 0.1164638,-0.2854 0.02603,-0.081 0.043001,-0.16318 0.052231,-0.24669 0.00804,-0.0902 0.00828,-0.18072 0.00865,-0.27112 0.00238,-0.0911 -0.00397,-0.18213 -0.016536,-0.27258 -0.011374,-0.0854 -0.028146,-0.17 -0.048006,-0.25421 -0.018531,-0.0811 -0.048594,-0.15949 -0.071682,-0.23952 -0.022611,-0.0718 -0.047532,-0.14319 -0.08317,-0.21115 -0.03893,-0.0663 -0.082831,-0.13075 -0.1272281,-0.19457 -0.054408,-0.0694 -0.1073425,-0.13975 -0.1628849,-0.20854 -0.057444,-0.071 -0.119919,-0.13949 -0.1897467,-0.20186 -0.067951,-0.0639 -0.1442686,-0.12066 -0.2207829,-0.17682 -0.081187,-0.0565 -0.1635982,-0.11135 -0.2487457,-0.16338 -0.079536,-0.0528 -0.1625147,-0.10182 -0.2477148,-0.1477 -0.078963,-0.0428 -0.1583457,-0.0857 -0.2419665,-0.12149 -0.086693,-0.0358 -0.1738074,-0.0702 -0.2641846,-0.0986 -0.1055632,-0.0301 -0.2149131,-0.0479 -0.3244709,-0.0634 -0.1159815,-0.0157 -0.2319965,-0.0288 -0.3492019,-0.0354 -0.1306904,0.003 -0.2616483,0.005 -0.3920326,0.0136 -0.1470673,0.0132 -0.2934036,0.0316 -0.4380738,0.0579 -0.1256336,0.0241 -0.2461008,0.0627 -0.3640153,0.10631 -0.063135,0.0229 -0.04669,0.0158 -0.1079468,0.0428 -0.017664,0.008 -0.069878,0.0324 -0.052715,0.0239 0.4649501,-0.23245 0.2421064,-0.12058 0.1424172,-0.0645 -0.089838,0.0496 -0.1740101,0.10593 -0.2590196,0.16127 -0.076371,0.0502 -0.1489155,0.10408 -0.2182098,0.16122 -0.073758,0.0642 -0.1460649,0.12962 -0.2159196,0.19696 -0.076909,0.0763 -0.1513935,0.15427 -0.2223823,0.23461 -0.08052,0.0867 -0.1423054,0.18362 -0.2000787,0.2822 -0.050483,0.086 -0.090431,0.17591 -0.1273601,0.26667 -0.029408,0.0688 -0.048203,0.14021 -0.072302,0.21035 -0.02432,0.0694 -0.044665,0.13976 -0.064595,0.21015 -0.027613,0.0913 -0.050256,0.1837 -0.070562,0.27641 -0.023823,0.10591 -0.049044,0.21154 -0.064669,0.3186 -0.015026,0.12688 -0.017277,0.25461 -0.015703,0.38203 -1.596e-4,0.106 0.019529,0.21066 0.038271,0.31505 0,0 -0.2938491,0.13299 -0.2938491,0.13299 v 0 c -0.018391,-0.10485 -0.040735,-0.20963 -0.045713,-0.3158 -0.00586,-0.12794 -0.00362,-0.25623 0.00911,-0.38385 0.014094,-0.10778 0.039494,-0.21381 0.063585,-0.32023 0.019381,-0.0927 0.039937,-0.18538 0.067176,-0.27664 0.018899,-0.071 0.03939,-0.14177 0.063167,-0.21165 0.025649,-0.0704 0.042691,-0.14271 0.072801,-0.21191 0.037546,-0.092 0.077705,-0.18318 0.1275868,-0.2709 0.0578,-0.0995 0.1171054,-0.19903 0.1977181,-0.28685 0.068869,-0.0819 0.1445117,-0.15938 0.2202426,-0.23662 0.06924,-0.0676 0.140561,-0.13354 0.2135672,-0.19824 0.067814,-0.0594 0.1413396,-0.11315 0.2168871,-0.16521 0.086539,-0.0545 0.1689592,-0.1137 0.2598735,-0.16315 0.1915184,-0.11311 0.394725,-0.21402 0.6088822,-0.29221 0.1187953,-0.0419 0.2402856,-0.0783 0.3664217,-0.10055 0.1457807,-0.0247 0.2930104,-0.0426 0.4409279,-0.0549 0.131804,-0.007 0.2640724,-0.0126 0.3961534,-0.0111 0.1178915,0.008 0.2346675,0.0215 0.3513492,0.0376 0.1112751,0.0164 0.2223821,0.0351 0.3291496,0.0674 0.091448,0.0292 0.1797984,0.0645 0.2674917,0.10111 0.08323,0.038 0.1640371,0.0799 0.2430994,0.12397 0.085304,0.0467 0.168043,0.0968 0.2486006,0.14929 0.085261,0.0531 0.1683862,0.10838 0.2499083,0.16561 0.077822,0.0565 0.1542216,0.11461 0.2229858,0.17929 0.070484,0.064 0.1339225,0.13356 0.1925285,0.2057 0.056428,0.0692 0.1091504,0.14045 0.1648757,0.21001 0.044857,0.0649 0.090433,0.12973 0.1297185,0.19726 0.036437,0.0697 0.062576,0.1426 0.085293,0.21636 0.022413,0.0806 0.053659,0.15918 0.072274,0.24063 0.019584,0.085 0.037839,0.1702 0.048626,0.25643 0.013573,0.0915 0.020606,0.18378 0.018193,0.27602 -2.191e-4,0.091 1.918e-4,0.1822 -0.00672,0.27311 -0.00823,0.0852 -0.022942,0.16916 -0.049441,0.25174 -0.032434,0.0985 -0.069392,0.19615 -0.1174369,0.28991 -0.054326,0.10908 -0.1101278,0.21781 -0.1861389,0.31747 -0.064106,0.0992 -0.1286819,0.19818 -0.204035,0.29161 -0.057115,0.073 -0.1134893,0.14657 -0.1790695,0.21442 -0.05626,0.0598 -0.1187624,0.11495 -0.180839,0.17027 -0.062249,0.0547 -0.1218607,0.11121 -0.1952214,0.15562 -0.1703018,0.11448 -0.3590616,0.20527 -0.5482381,0.29519 -0.093567,0.0423 -0.1890091,0.0812 -0.2859167,0.11758 -0.099676,0.0361 -0.2015543,0.0681 -0.3089918,0.0828 -0.1080334,0.0162 -0.216735,0.032 -0.3268824,0.0298 -0.1065281,-0.004 -0.2127814,-0.0115 -0.3177979,-0.028 -0.1127673,-0.0153 -0.2257822,-0.0303 -0.3363164,-0.0554 -0.1147556,-0.0258 -0.2292667,-0.0528 -0.3412876,-0.0865 -0.1171422,-0.0361 -0.2314424,-0.0787 -0.3464605,-0.11944 -0.1110139,-0.0399 -0.2218666,-0.0802 -0.3314795,-0.12289 -0.1104731,-0.0445 -0.2213859,-0.0883 -0.3303114,-0.13551 -0.1182821,-0.0486 -0.2403269,-0.091 -0.3535242,-0.14814 -0.1137618,-0.0571 -0.2249728,-0.11787 -0.3320232,-0.18387 -0.105497,-0.0629 -0.2075397,-0.12993 -0.3019647,-0.20479 -0.098527,-0.0762 -0.193607,-0.15569 -0.2794098,-0.24256 -0.065675,-0.0667 -0.1326342,-0.13246 -0.1954428,-0.20116 0,0 0.3015605,-0.15238 0.3015605,-0.15238 z"
       inkscape:connector-curvature="0"
       style="stroke-width:0.24479878" />
    <path
       id="path252"
       d="m 6.2422285,286.00487 c 0.034453,-0.0844 0.072705,-0.16712 0.1095758,-0.25045 0.029243,-0.0791 0.077199,-0.14735 0.1266455,-0.21475 0.052023,-0.0741 0.1135351,-0.14075 0.1745565,-0.20739 0.06229,-0.0756 0.1355172,-0.14022 0.2090626,-0.20444 0.090621,-0.0787 0.1869535,-0.15051 0.2811788,-0.22482 0.118382,-0.0909 0.2303137,-0.18952 0.34789,-0.28142 0.1076563,-0.0885 0.2222958,-0.1675 0.3417861,-0.23901 0.1939176,-0.10472 0.3775999,-0.2324 0.5832433,-0.31445 0.079918,-0.0285 0.1616384,-0.0457 0.2459164,-0.0537 0.08259,-0.009 0.1660025,-10e-4 0.2475474,0.0131 0.071475,0.0119 0.1416791,0.037 0.2044946,0.0731 0.06413,0.0393 0.1045628,0.0973 0.1374706,0.16323 0.046853,0.09 0.063963,0.18998 0.080569,0.28895 0.020402,0.13394 0.021508,0.2694 0.016695,0.40445 -0.00304,0.14123 -0.022294,0.28101 -0.0505,0.41918 -0.037461,0.15158 -0.072131,0.30386 -0.1108143,0.45515 -0.037392,0.13637 -0.079281,0.27152 -0.1207958,0.4067 -0.037669,0.1225 -0.083978,0.24205 -0.1290968,0.36192 -0.049188,0.13474 -0.1048909,0.26698 -0.1648013,0.39727 -0.062113,0.12805 -0.1245206,0.2557 -0.1808523,0.38645 -0.04871,0.10558 -0.082192,0.21735 -0.1086387,0.33035 -0.014893,0.0548 -0.027342,0.11019 -0.04064,0.16537 -0.00156,0.004 -0.00313,0.009 -0.00469,0.0135 0,0 -0.3207583,0.14521 -0.3207583,0.14521 v 0 c 0.00233,-0.003 0.00467,-0.007 0.00701,-0.0101 0.023551,-0.0457 0.024913,-0.11597 0.047024,-0.16392 0.026935,-0.11521 0.060527,-0.22978 0.1096809,-0.33759 0.056503,-0.13097 0.1164294,-0.26009 0.1808128,-0.38739 0.059944,-0.12932 0.1168591,-0.26008 0.1647613,-0.39442 0.044386,-0.11964 0.091482,-0.23837 0.1297697,-0.36017 0.042886,-0.13485 0.084271,-0.27028 0.1236559,-0.40617 0.039316,-0.15051 0.072662,-0.30244 0.1108216,-0.45323 0.02814,-0.13654 0.048805,-0.27444 0.052861,-0.41407 0.00525,-0.13256 0.00448,-0.26533 -0.016166,-0.3968 -0.016187,-0.0953 -0.031787,-0.19224 -0.077551,-0.27868 -0.030652,-0.0595 -0.068381,-0.11105 -0.1280382,-0.14457 -0.061287,-0.032 -0.1277909,-0.0542 -0.1963352,-0.0639 -0.080326,-0.0107 -0.1613323,-0.0168 -0.2420548,-0.006 -0.082121,0.0108 -0.1623518,0.0304 -0.2395403,0.061 -0.1251172,0.0537 -0.4959551,0.26201 0.00928,-0.0234 -0.1207611,0.0698 -0.2373659,0.14642 -0.3449632,0.23548 -0.117625,0.0911 -0.2299171,0.18842 -0.3465912,0.28067 -0.093459,0.0737 -0.1885394,0.14545 -0.2792558,0.22248 -0.073946,0.0625 -0.1480889,0.12535 -0.2100895,0.20016 -0.059695,0.0669 -0.1237332,0.13057 -0.1753171,0.20416 -0.04946,0.0653 -0.099818,0.13063 -0.1302324,0.20749 -0.034879,0.0828 -0.076305,0.16287 -0.1070356,0.24741 0,0 -0.3175424,0.14769 -0.3175424,0.14769 z"
       inkscape:connector-curvature="0"
       style="stroke-width:0.26458332" />
    <path
       id="path254"
       d="m 3.8043434,286.14502 c -0.049735,-0.0659 -0.1097089,-0.12273 -0.1662329,-0.1826 -0.062048,-0.0644 -0.1260621,-0.12708 -0.195004,-0.18417 -0.071682,-0.0542 -0.1462196,-0.10447 -0.2226056,-0.15173 -0.07823,-0.0474 -0.1543222,-0.0979 -0.2298639,-0.14935 -0.082479,-0.0551 -0.1679858,-0.10522 -0.2574169,-0.14808 -0.081407,-0.0397 -0.1672323,-0.069 -0.2558887,-0.087 -0.066583,-0.0171 -0.1346068,-0.0339 -0.2037081,-0.0298 -0.066342,0.002 -0.1292915,0.022 -0.1929825,0.0383 -0.1350484,0.0423 -0.4359661,0.22975 0.089038,-0.0705 -0.069171,0.0406 -0.1290978,0.0921 -0.1797124,0.15403 -0.049525,0.0667 -0.085594,0.14061 -0.113381,0.21847 -0.036399,0.11199 -0.056295,0.22828 -0.071964,0.34469 -0.021821,0.16717 -0.018729,0.33541 -0.012386,0.50336 0.00746,0.14726 0.025675,0.29369 0.061016,0.43688 0.028757,0.13008 0.075501,0.25492 0.130202,0.37609 0.055993,0.12455 0.1145228,0.24775 0.1767418,0.3693 0.060009,0.11312 0.1301775,0.21958 0.2094675,0.31995 0.080074,0.0929 0.1641962,0.18328 0.2572894,0.26338 0.067952,0.0552 0.1348519,0.11149 0.2049604,0.16388 0.040064,0.0285 0.084676,0.0495 0.1241047,0.0786 0.00998,0.006 0.0206,0.0111 0.031318,0.0158 0,0 -0.2947691,0.19362 -0.2947691,0.19362 v 0 c -0.011449,-0.007 -0.022847,-0.0133 -0.033466,-0.0213 -0.039278,-0.0288 -0.083305,-0.0507 -0.1217765,-0.0808 -0.069451,-0.0537 -0.1352813,-0.1119 -0.2028379,-0.16798 -0.093383,-0.0827 -0.1786288,-0.17454 -0.2593885,-0.26955 -0.080523,-0.10225 -0.1526085,-0.21025 -0.2129586,-0.32577 -0.061664,-0.12241 -0.1206684,-0.24596 -0.1771199,-0.37086 -0.055793,-0.12288 -0.1044061,-0.24932 -0.1333296,-0.38149 -0.036238,-0.14557 -0.054005,-0.29466 -0.061894,-0.44439 -0.00593,-0.1693 -0.010253,-0.33875 0.00865,-0.50755 0.013211,-0.11757 0.03085,-0.23503 0.063991,-0.34885 0.026934,-0.0808 0.05977,-0.15758 0.1081614,-0.2283 0.047382,-0.0663 0.1046484,-0.12321 0.1750987,-0.16514 0.1637115,-0.096 0.3254829,-0.21447 0.511347,-0.26751 0.065043,-0.0173 0.1309384,-0.0322 0.198692,-0.0316 0.070423,0.003 0.139033,0.0189 0.2070521,0.037 0.089629,0.0219 0.1766281,0.0535 0.2594525,0.0944 0.090065,0.0447 0.1759537,0.097 0.2598777,0.15233 0.075564,0.0508 0.1521735,0.1 0.2296216,0.1479 0.07744,0.0484 0.1530474,0.0998 0.2252207,0.15583 0.069322,0.0586 0.1345454,0.12188 0.1972961,0.18739 0.057682,0.0602 0.1162632,0.11938 0.1706441,0.18261 0,0 -0.3005553,0.18045 -0.3005553,0.18045 z"
       inkscape:connector-curvature="0"
       style="stroke-width:0.26458332" />
    <path
       id="path256"
       d="m 6.4572453,286.62834 c -0.1339201,0.0472 -0.4134223,0.22133 0.1235803,-0.0869 -0.039583,0.0252 -0.070616,0.0608 -0.094665,0.10063 -0.030894,0.0515 -0.047527,0.10859 -0.06222,0.16629 -0.017579,0.0604 -0.024358,0.12302 -0.035154,0.18482 -0.011986,0.0626 -0.016462,0.12612 -0.018907,0.18967 -0.00169,0.0577 0.00639,0.1158 0.016857,0.17249 0.0088,0.0527 0.025411,0.103 0.044575,0.15266 0.017365,0.0392 0.043222,0.0732 0.066323,0.10896 0.023998,0.036 0.05278,0.0685 0.084941,0.0975 0.034631,0.0291 0.071586,0.054 0.1082569,0.0802 0.033384,0.0249 0.075012,0.0241 0.1133678,0.0346 0.042275,0.0129 0.086886,0.0204 0.1308325,0.0143 0.048971,-0.006 0.096963,-0.0132 0.1448343,-0.0249 0.04296,-0.007 0.081178,-0.0266 0.1192326,-0.0458 0.017836,-0.004 0.030732,-0.0159 0.046668,-0.0241 0.00457,-0.002 0.018166,-0.01 0.013719,-0.007 -0.3216733,0.18587 -0.3802872,0.22165 -0.274809,0.15752 0.029447,-0.0167 0.051616,-0.0415 0.074465,-0.0658 0.030191,-0.0331 0.047748,-0.0745 0.069135,-0.11334 0.022976,-0.0466 0.049805,-0.0914 0.068294,-0.14002 0.01556,-0.0496 0.027365,-0.0998 0.034538,-0.15122 0.00681,-0.0573 0.00725,-0.11515 0.00771,-0.1728 0.00497,-0.0509 -0.010499,-0.0972 -0.025958,-0.14457 -0.012208,-0.039 -0.029573,-0.0762 -0.047898,-0.1126 -0.021056,-0.0438 -0.042785,-0.0873 -0.06787,-0.12892 -0.021169,-0.0387 -0.047573,-0.0754 -0.07928,-0.10621 -0.031802,-0.0337 -0.066828,-0.0624 -0.1046084,-0.089 -0.038907,-0.023 -0.077789,-0.0459 -0.1190476,-0.0644 -0.050636,-0.018 -0.1055135,-0.0182 -0.1586445,-0.0199 -0.1058677,-0.0102 -0.1935001,0.0193 -0.2908027,0.0579 -0.026583,0.0115 -0.053166,0.0229 -0.079749,0.0344 0,0 0.2663658,-0.21034 0.2663658,-0.21034 v 0 c 0.026902,-0.0112 0.053804,-0.0224 0.080705,-0.0336 0.1074828,-0.0396 0.1918116,-0.0626 0.306428,-0.0522 0.057069,0.003 0.1156211,0.006 0.1681819,0.0304 0.041939,0.021 0.082662,0.0441 0.1219705,0.0697 0.039315,0.0279 0.074419,0.0599 0.1081979,0.0942 0.032307,0.0341 0.061387,0.0719 0.083346,0.11353 0.025112,0.0425 0.047619,0.0864 0.069069,0.13084 0.019693,0.0378 0.038727,0.0765 0.050818,0.11749 0.016055,0.0507 0.034857,0.10052 0.02988,0.15504 -2.352e-4,0.0588 9.53e-5,0.1177 -0.00527,0.17628 -0.00615,0.0534 -0.016531,0.10555 -0.031094,0.15719 -0.015211,0.0518 -0.042492,0.097 -0.066062,0.14525 -0.02036,0.0404 -0.04017,0.0818 -0.065219,0.11918 -0.019809,0.0281 -0.04331,0.0534 -0.069944,0.0754 -0.1206484,0.0868 -0.2538558,0.15659 -0.3876328,0.22102 -0.0389,0.0188 -0.081291,0.0295 -0.123381,0.0386 -0.048838,0.0104 -0.098775,0.0155 -0.1484696,0.02 -0.046568,-10e-4 -0.09229,-0.008 -0.1368999,-0.0221 -0.043091,-0.008 -0.085335,-0.0179 -0.1208487,-0.0456 -0.038461,-0.0261 -0.074323,-0.0549 -0.1103355,-0.0842 -0.034012,-0.0313 -0.064114,-0.0666 -0.090015,-0.10493 -0.024564,-0.0377 -0.051059,-0.0742 -0.069153,-0.11576 -0.01973,-0.0516 -0.038206,-0.10337 -0.046921,-0.1582 -0.012359,-0.0588 -0.020341,-0.11984 -0.020188,-0.17983 0.00204,-0.0649 0.00513,-0.13007 0.016891,-0.19412 0.011195,-0.0625 0.016989,-0.12595 0.033775,-0.18734 0.01611,-0.0592 0.027636,-0.11954 0.057416,-0.17416 0.00819,-0.0151 0.014346,-0.0314 0.023656,-0.0458 0.017103,-0.0266 0.04381,-0.0475 0.064623,-0.0708 0.1587199,-0.0923 0.3068807,-0.1922 0.4775102,-0.257 0,0 -0.275115,0.21743 -0.275115,0.21743 z"
       inkscape:connector-curvature="0"
       style="stroke-width:0.26458332" />
    <path
       id="path258"
       d="m 4.5423113,286.97816 c -0.078081,0.0256 -0.1536999,0.0578 -0.2273837,0.0941 -0.0296,0.0135 -0.045152,0.0199 -0.073431,0.0354 -0.01093,0.006 -0.043023,0.0252 -0.032217,0.019 0.4832598,-0.27752 0.2961851,-0.17708 0.1942592,-0.10586 -0.08654,0.0614 -0.1571787,0.14041 -0.2257658,0.22046 -0.066938,0.0776 -0.1234427,0.16261 -0.1624251,0.25738 -0.02778,0.0664 -0.04722,0.13571 -0.050101,0.20779 0.0051,0.0541 0.022397,0.10598 0.043768,0.15564 0.019452,0.0522 0.050353,0.0975 0.088885,0.13719 0.063211,0.0557 0.1301242,0.10478 0.2039641,0.14527 0.095314,0.0503 0.1970765,0.0845 0.3019327,0.10804 0.098618,0.0214 0.1981039,0.0225 0.2975427,0.008 0.091164,-0.0173 0.1781977,-0.048 0.2615515,-0.0882 0.1527731,-0.087 -0.1467929,0.0851 -0.2212133,0.12582 -0.01289,0.007 0.024305,-0.0165 0.036085,-0.0253 0.036264,-0.027 0.069435,-0.0569 0.101912,-0.0883 0.048418,-0.0517 0.07798,-0.11303 0.093844,-0.18131 0.014769,-0.0635 0.0044,-0.12743 -0.0023,-0.19111 -0.00692,-0.0767 -0.042444,-0.1446 -0.07698,-0.21185 -0.047909,-0.0888 -0.1132948,-0.16616 -0.1811991,-0.24008 -0.094153,-0.0914 -0.1983235,-0.16891 -0.3113754,-0.23501 -0.1068057,-0.0501 -0.2259978,-0.0798 -0.3446396,-0.0779 -0.025776,4e-4 -0.051387,0.004 -0.077081,0.006 -0.026347,0.006 -0.053238,0.0108 -0.079041,0.0192 -0.027074,0.009 -0.053685,0.0192 -0.079179,0.0318 -0.026996,0.0134 -0.1050557,0.0588 -0.077845,0.0459 0.2120143,-0.10066 0.2793646,-0.16923 0.1425956,-0.0494 0,0 -0.3136397,0.12789 -0.3136397,0.12789 v 0 c 0.1691881,-0.15471 0.066249,-0.0681 0.4346556,-0.29115 0.076162,-0.0461 0.1586394,-0.0754 0.2470576,-0.0862 0.026566,-9.8e-4 0.053119,-0.003 0.079698,-0.003 0.1232707,0.002 0.2456318,0.0344 0.3551672,0.0902 0.1148199,0.0691 0.2214893,0.14906 0.3176862,0.24278 0.070474,0.0758 0.138852,0.15503 0.1883691,0.24654 0.037159,0.0706 0.074733,0.14209 0.084711,0.22245 0.00714,0.0667 0.019309,0.13368 0.00743,0.20066 -0.013798,0.0741 -0.039813,0.1407 -0.087405,0.20032 -0.1411973,0.14935 -0.3239828,0.24733 -0.5086776,0.33627 -0.085872,0.0371 -0.1746409,0.0666 -0.2676834,0.0794 -0.1020334,0.01 -0.2037197,0.006 -0.3037695,-0.0187 -0.1068385,-0.0269 -0.2108528,-0.0631 -0.3082547,-0.11524 -0.076044,-0.0431 -0.1462505,-0.0946 -0.2116685,-0.15264 -0.040839,-0.043 -0.075144,-0.0913 -0.095988,-0.14732 -0.023857,-0.0541 -0.041397,-0.11056 -0.049845,-0.16919 -8.467e-4,-0.0758 0.016939,-0.15013 0.046367,-0.21993 0.037004,-0.0989 0.091711,-0.188 0.159943,-0.26875 0.067942,-0.0808 0.1359213,-0.16251 0.2202363,-0.22713 0.155662,-0.11726 0.3291316,-0.2096 0.505229,-0.29241 0.076017,-0.0355 0.1541063,-0.0668 0.2341906,-0.0919 0,0 -0.2779741,0.21403 -0.2779741,0.21403 z"
       inkscape:connector-curvature="0"
       style="stroke-width:0.26458332" />
    <path
       id="path260"
       d="m 5.8352147,288.58208 c 0.067644,0.0545 0.1352971,0.10893 0.2039096,0.16219 0.04544,0.0364 0.086931,0.0806 0.1397225,0.10637 0.034667,0.0178 0.068016,0.0134 0.1042501,0.006 0.021675,-0.009 0.042555,-0.0201 0.063178,-0.0313 0.00765,-0.004 0.029957,-0.0177 0.022405,-0.0134 -0.2805798,0.16043 -0.3619815,0.22062 -0.2511261,0.14044 0.072075,-0.0626 0.1312476,-0.13793 0.1876695,-0.21444 0.05628,-0.0799 0.1094891,-0.16228 0.1557406,-0.24845 0.024262,-0.0446 0.048053,-0.0896 0.061267,-0.1388 0.00135,-0.014 0.014385,-0.0427 -5.292e-4,-0.0533 -0.033671,-0.006 -0.068009,-0.006 -0.1020458,-0.006 -0.100957,0.005 -0.1985497,0.0305 -0.295992,0.0553 -0.1587148,0.0451 -0.3040264,0.12362 -0.4488513,0.20066 -0.024625,0.0137 -0.049274,0.0273 -0.073872,0.041 -0.023445,0.0131 -0.046823,0.0263 -0.070252,0.0393 -0.2585683,0.14451 0.3400354,-0.20239 0.1195099,-0.0684 -0.014131,0.009 -0.028251,0.0172 -0.042377,0.0258 -0.1269741,0.0811 -0.2610241,0.15032 -0.3896085,0.22879 -0.091451,0.0558 0.1855058,-0.10724 0.2786298,-0.16021 0.011007,-0.006 -0.021116,0.014 -0.031787,0.0208 0,0 -0.327787,0.12665 -0.327787,0.12665 v 0 c 0.1173459,-0.0677 0.2436212,-0.13913 0.3524602,-0.20702 0.089172,-0.0556 -0.1814851,0.10605 -0.2726386,0.15836 -0.023294,0.0134 0.1017977,-0.0631 0.068179,-0.0429 0.2163501,-0.12799 0.4328888,-0.25585 0.6543164,-0.37498 0.146634,-0.0773 0.2952338,-0.15338 0.4563351,-0.19618 0.1007187,-0.0255 0.2024129,-0.0508 0.3069847,-0.0516 0.041678,10e-4 0.087679,-4.5e-4 0.1207317,0.029 0.019794,0.0263 0.022286,0.0514 0.015475,0.0834 -0.011851,0.0526 -0.032626,0.10207 -0.061482,0.14781 -0.043494,0.0897 -0.1018566,0.17143 -0.1562502,0.25469 -0.055661,0.077 -0.1120145,0.15367 -0.1802214,0.22026 -0.1108118,0.10873 -0.017997,0.0212 -0.3448349,0.21001 -0.028968,0.0167 -0.060725,0.0303 -0.09385,0.0355 -0.041554,0.004 -0.081028,-0.003 -0.1172549,-0.0248 -0.051183,-0.0315 -0.093685,-0.0744 -0.1394417,-0.113 -0.068986,-0.0541 -0.1365015,-0.11004 -0.2077897,-0.16109 0,0 0.2972342,-0.18588 0.2972342,-0.18588 z"
       inkscape:connector-curvature="0"
       style="stroke-width:0.26458332" />
    <path
       id="path262"
       d="m 6.4310511,289.19988 c -0.047153,0.0557 -0.092408,0.1129 -0.1386621,0.16934 -0.03593,0.0434 -0.075393,0.0837 -0.1137454,0.12499 -0.035299,0.0392 -0.079474,0.0679 -0.1226661,0.0973 -0.00632,0.004 -0.012316,0.009 -0.018963,0.0131 -0.10643,0.0615 -0.2133029,0.12214 -0.3202012,0.18277 -0.02712,0.0154 -0.057049,0.0217 -0.084293,0.0363 -0.036762,0.0123 -0.071685,0.0297 -0.1091705,0.0397 -0.042361,0.008 -0.082653,0.0234 -0.1225513,0.0395 -0.034437,0.008 -0.067606,0.0203 -0.1014842,0.0309 0,0 0.2774808,-0.21479 0.2774808,-0.21479 v 0 c 0.033423,-0.0106 0.067181,-0.0202 0.099921,-0.0327 0.040425,-0.0154 0.082808,-0.0249 0.1239825,-0.038 0.03564,-0.0138 0.071762,-0.0264 0.106472,-0.0426 0.021426,-0.008 0.042055,-0.0166 0.062579,-0.0268 0.00696,-0.003 0.027524,-0.0144 0.020831,-0.0104 -0.1978277,0.11626 -0.3805153,0.21972 -0.2604493,0.15166 0.041767,-0.0308 0.087761,-0.0556 0.1260264,-0.091 0.038536,-0.0411 0.076814,-0.0824 0.1153149,-0.12329 0.046222,-0.0559 0.092996,-0.11109 0.1369288,-0.16883 0,0 0.3226517,-0.13709 0.3226517,-0.13709 z"
       inkscape:connector-curvature="0"
       style="stroke-width:0.26458332" />
    <path
       id="path264"
       d="m 6.6620376,289.10179 c 0.067675,0.0644 0.1475801,0.1135 0.2276083,0.16078 0.091658,0.047 0.1870504,0.0859 0.28608,0.11411 0.1154752,0.0312 0.2342298,0.0283 0.3522405,0.0186 0.092505,-0.0129 0.047349,-0.006 0.1354969,-0.0209 0,0 -0.2743893,0.20607 -0.2743893,0.20607 v 0 c -0.088342,0.0131 -0.042779,0.007 -0.1367174,0.0182 -0.1215776,0.008 -0.2437625,0.008 -0.3617428,-0.0271 -0.1005496,-0.031 -0.1982079,-0.0708 -0.2906578,-0.12133 -0.081897,-0.049 -0.1621597,-0.10074 -0.2351526,-0.16251 0,0 0.2972342,-0.18588 0.2972342,-0.18588 z"
       inkscape:connector-curvature="0"
       style="stroke-width:0.26458332" />
    <path
       id="path266"
       d="m 7.0307953,286.97098 c -0.00175,0.0581 -7.673e-4,0.11616 -3.175e-4,0.17423 0.00188,0.0361 0.014933,0.0693 0.027567,0.10255 0.014653,0.0376 0.033145,0.0729 0.056894,0.10554 0.036527,0.0599 0.097671,0.0909 0.1594673,0.11906 0.017081,0.007 0.034162,0.0136 0.051242,0.0204 0,0 -0.286585,0.19171 -0.286585,0.19171 v 0 c -0.017306,-0.007 -0.034611,-0.0145 -0.051916,-0.0217 -0.067344,-0.031 -0.1335212,-0.066 -0.1738288,-0.13102 -0.02572,-0.0352 -0.045566,-0.0733 -0.062404,-0.11345 -0.013671,-0.0373 -0.0289,-0.0739 -0.032513,-0.1141 4.498e-4,-0.058 0.00143,-0.11596 -3.175e-4,-0.17391 0,0 0.3127071,-0.15933 0.3127071,-0.15933 z"
       inkscape:connector-curvature="0"
       style="stroke-width:0.26458332" />
    <path
       id="path268"
       d="m 5.1152128,287.34434 c -0.016277,0.10345 -0.029986,0.20709 -0.038379,0.31148 -0.00869,0.0948 -0.010398,0.18838 0.00744,0.28195 0.015068,0.0749 0.04459,0.11148 0.099441,0.16204 0,0 -0.295021,0.18195 -0.295021,0.18195 v 0 c -0.058218,-0.0562 -0.094444,-0.099 -0.1109633,-0.18046 -0.00446,-0.0235 -0.012224,-0.0617 -0.014499,-0.085 -0.00668,-0.0687 0.00388,-0.13785 0.00564,-0.20651 0.00768,-0.1038 0.021183,-0.2068 0.032139,-0.31021 0,0 0.3142025,-0.15521 0.3142025,-0.15521 z"
       inkscape:connector-curvature="0"
       style="stroke-width:0.26458332" />
    <path
       id="path270"
       d="m 7.487327,288.45122 c 0.2015842,-0.1283 0.4116416,-0.2442 0.618804,-0.36284 0.065217,-0.0373 -0.130211,0.0751 -0.1953164,0.11263 0.2977398,-0.17437 0.601568,-0.33792 0.9043159,-0.50332 0.1352081,-0.0777 0.2716183,-0.1532 0.4081539,-0.22852 0.03187,-0.0176 0.1267669,-0.0716 0.09545,-0.053 -0.064306,0.0381 -0.1296231,0.0744 -0.1944346,0.11164 0.2594118,-0.15679 0.5271955,-0.29912 0.7892926,-0.45119 -0.074525,0.0429 -0.1489837,0.0859 -0.2235748,0.12871 -0.020659,0.0118 0.041113,-0.0241 0.061775,-0.0359 0.160645,-0.0921 0.3193804,-0.18747 0.4849514,-0.27039 0.04761,-0.0126 0.08971,-0.0518 0.139878,-0.0517 0,0 -0.281872,0.21161 -0.281872,0.21161 v 0 c -0.04363,0.0168 -0.08566,0.0384 -0.1286211,0.0568 -0.012986,0.007 -0.026011,0.0133 -0.038957,0.0201 -0.014928,0.008 -0.029771,0.0158 -0.044668,0.0237 -0.2245325,0.11869 0.3768811,-0.22161 0.1257601,-0.0765 -0.1196175,0.0691 -0.239211,0.13826 -0.3588164,0.20738 -0.077558,0.0441 -0.1554636,0.0876 -0.2331606,0.13143 -0.028314,0.016 -0.1129536,0.0644 -0.085089,0.0477 0.035272,-0.0212 0.3550465,-0.20705 0.1066718,-0.0622 -0.2928877,0.16908 -0.5871821,0.3353 -0.8826283,0.49985 -0.1392819,0.0765 -0.2786774,0.1528 -0.4182901,0.22874 -0.033698,0.0183 -0.1334773,0.0756 -0.1010573,0.0551 0.061563,-0.0389 0.1257234,-0.0736 0.1885849,-0.11042 -0.1268613,0.0733 -0.2534885,0.14696 -0.3805843,0.21983 -0.067706,0.0388 0.1346456,-0.079 0.2024115,-0.11768 0.02568,-0.0147 -0.050644,0.0306 -0.076146,0.0455 -0.073097,0.0429 -0.053972,0.0297 -0.1199968,0.0705 -0.012501,0.008 -0.024762,0.0159 -0.037142,0.0238 0,0 -0.3256954,0.12865 -0.3256954,0.12865 z"
       inkscape:connector-curvature="0"
       style="stroke-width:0.26458332" />
    <path
       id="path272"
       d="m 8.2852555,288.64271 c 0.1362935,-0.0482 0.274904,-0.0897 0.4139539,-0.12905 0.2504808,-0.069 0.5032504,-0.12815 0.757211,-0.18264 0.275349,-0.0563 0.5503366,-0.11469 0.8272566,-0.16281 0.205063,-0.0345 0.410492,-0.0665 0.61502,-0.1041 0.146299,-0.0276 0.290857,-0.0628 0.436335,-0.0943 0.15934,-0.0345 0.314942,-0.0846 0.470391,-0.13338 0,0 -0.270037,0.20881 -0.270037,0.20881 v 0 c -0.156486,0.0474 -0.312482,0.0978 -0.472652,0.13148 -0.144799,0.0319 -0.289131,0.0658 -0.435169,0.0918 -0.2027,0.0353 -0.406124,0.0659 -0.6091,0.0994 -0.2758784,0.0481 -0.5501203,0.10526 -0.8242842,0.16225 -0.2556251,0.0559 -0.5099635,0.11718 -0.7616693,0.18898 -0.1427927,0.0426 -0.2848478,0.0875 -0.4252301,0.13753 0,0 0.2779741,-0.21403 0.2779741,-0.21403 z"
       inkscape:connector-curvature="0"
       style="stroke-width:0.26458332" />
    <path
       id="path274"
       d="m 7.9517617,288.61024 c -0.088409,0.0507 -0.1765792,0.10178 -0.265226,0.15204 -0.01723,0.01 0.033805,-0.0207 0.050964,-0.0305 0.2100566,-0.12112 0.4172249,-0.23799 0.6310368,-0.35054 0.2537425,-0.13387 0.5095348,-0.26376 0.7695051,-0.38512 0.2560016,-0.12494 0.5203902,-0.23103 0.7870299,-0.33075 0.2685505,-0.10203 0.5443515,-0.18275 0.8203545,-0.2617 0.254534,-0.0758 0.512611,-0.13862 0.769747,-0.20476 0.166899,-0.0444 0.333319,-0.0906 0.500643,-0.13334 0.107173,-0.0249 0.212993,-0.0543 0.318547,-0.0852 0.04714,-0.0123 0.02462,-0.007 0.06755,-0.0173 0,0 -0.277281,0.21203 -0.277281,0.21203 v 0 c -0.04135,0.0103 -0.0196,0.005 -0.06521,0.0171 -0.104458,0.03 -0.210003,0.0554 -0.315484,0.0815 -0.165042,0.0423 -0.329766,0.0859 -0.494678,0.12868 -0.255779,0.064 -0.511935,0.12683 -0.764692,0.20218 -0.27608,0.0794 -0.5515377,0.16185 -0.8199721,0.26474 -0.2654649,0.10022 -0.528538,0.20691 -0.7836892,0.33145 -0.2608887,0.12314 -0.5180399,0.25387 -0.7725989,0.38961 -0.046006,0.0244 -0.1538245,0.0815 -0.2017181,0.10772 -0.026104,0.0143 -0.1035047,0.0588 -0.07788,0.0437 0.076407,-0.0452 0.1535027,-0.0892 0.2302406,-0.13374 0.016158,-0.009 -0.032331,0.0188 -0.048498,0.0281 -0.1103794,0.0649 -0.2207588,0.1297 -0.3311379,0.19455 0,0 0.2724446,-0.22042 0.2724446,-0.22042 z"
       inkscape:connector-curvature="0"
       style="stroke-width:0.26458332" />
    <path
       id="path276"
       d="m 4.5781819,289.27031 c -0.1621313,-0.054 -0.3292805,-0.0926 -0.4969478,-0.12488 -0.2495754,-0.0508 -0.5030763,-0.069 -0.7570499,-0.0777 -0.2880167,-0.0119 -0.5755341,0.015 -0.861981,0.0417 -0.2780465,0.0269 -0.5564091,0.0498 -0.8349015,0.0716 -0.2350619,0.0182 -0.4692979,0.0442 -0.70298883,0.0752 -0.17802101,0.0233 -0.3563217,0.0459 -0.5316497,0.0851 -0.11426332,0.0241 -0.2280003,0.0508 -0.34034363,0.0826 -0.03091282,0.009 -0.05853955,0.0252 -0.0862586,0.041 0,0 0.27269143,-0.21881 0.27269143,-0.21881 v 0 c 0.0288471,-0.0136 0.0579988,-0.0264 0.0891521,-0.0339 0.11114016,-0.0294 0.22384195,-0.0528 0.33620371,-0.077 0.174947,-0.0357 0.35209612,-0.0581 0.52922982,-0.0799 0.2331067,-0.0294 0.466643,-0.0546 0.7010142,-0.0716 0.2776234,-0.0209 0.5550441,-0.0438 0.8322076,-0.0702 0.2880082,-0.026 0.5769208,-0.0522 0.8664379,-0.0397 0.2559177,0.009 0.5112446,0.0298 0.762875,0.0799 0.1721172,0.033 0.343009,0.0727 0.511733,0.12019 0,0 -0.2894238,0.19637 -0.2894238,0.19637 z"
       inkscape:connector-curvature="0"
       style="stroke-width:0.26458332" />
    <path
       id="path278"
       d="m 3.7792781,289.92567 c -0.1731782,0.0201 -0.347609,0.0283 -0.5215861,0.0389 -0.274371,0.0164 -0.547824,0.042 -0.8205829,0.0757 -0.3068011,0.0324 -0.6080674,0.0987 -0.9037328,0.18525 -0.239812,0.0745 -0.4742748,0.16576 -0.70185191,0.27173 -0.14095801,0.0639 -0.27389703,0.14361 -0.40906249,0.21862 0.47640744,-0.28544 0.20676909,-0.12608 0.1131407,-0.0325 0,0 -0.32180519,0.13404 -0.32180519,0.13404 v 0 c 0.13138451,-0.14202 0.30846836,-0.22336 0.47623509,-0.31742 0.13321448,-0.0739 0.26530184,-0.15052 0.4049563,-0.21192 0.2274499,-0.1018 0.4601808,-0.19221 0.69916,-0.26334 0.2972898,-0.0836 0.5995484,-0.14808 0.9069568,-0.18119 0.2744787,-0.0334 0.5496245,-0.059 0.8255521,-0.0771 0.1780984,-0.0125 0.3568951,-0.0219 0.5334529,-0.0496 0,0 -0.2808325,0.20882 -0.2808325,0.20882 z"
       inkscape:connector-curvature="0"
       style="stroke-width:0.26458332" />
    <path
       id="path280"
       d="m 4.3518359,289.97365 c -0.1501341,0.036 -0.2967103,0.083 -0.4427095,0.13295 -0.2991811,0.10802 -0.5795569,0.26071 -0.859763,0.40967 -0.051711,0.0287 -0.1024647,0.0591 -0.1551337,0.086 -0.041145,0.021 0.158569,-0.0946 0.1205344,-0.0684 -0.050575,0.0349 -0.1056783,0.0626 -0.1582632,0.0944 -0.1569418,0.0947 -0.3126391,0.19147 -0.4695426,0.28626 -0.2983526,0.1753 -0.090888,0.0541 -0.5806795,0.3353 -0.044252,0.0254 0.1769572,-0.1017 0.1328094,-0.0761 -0.14034,0.0811 -0.28068,0.1621 -0.42102,0.24315 0.045036,-0.0253 0.1660112,-0.11717 0.1351088,-0.0758 -0.033693,0.0451 -0.096131,0.0586 -0.1441972,0.0879 -0.3393061,0.20017 -0.65494447,0.43533 -0.95503475,0.68973 -0.13913453,0.11964 -0.26250704,0.25529 -0.3851194,0.39125 0,0 -0.30091603,0.12635 -0.30091603,0.12635 v 0 c 0.12526063,-0.13705 0.25002243,-0.27502 0.38985703,-0.39769 0.29791475,-0.25455 0.61029358,-0.49185 0.94772855,-0.69225 0.2991481,-0.18359 0.047518,-0.0306 0.5660477,-0.33481 0.045278,-0.0266 -0.1817927,0.10508 -0.1363362,0.0788 1.4314977,-0.82685 -0.1966614,0.11474 0.4502574,-0.25951 0.4034353,-0.24267 0.8009088,-0.49581 1.2164978,-0.71773 0.2837365,-0.15038 0.5678916,-0.30371 0.8710398,-0.41199 0.1513056,-0.0521 0.3035001,-0.10262 0.4597831,-0.13785 0,0 -0.2809489,0.21028 -0.2809489,0.21028 z"
       inkscape:connector-curvature="0"
       style="stroke-width:0.26458332" />
    <path
       id="path284"
       d="m 3.957113,289.69727 c -0.00819,0.11513 -0.011099,0.23165 -0.010193,0.34778 -9.7e-5,0.10865 0.010557,0.2145 0.025575,0.31861 0.015913,0.095 0.04355,0.17953 0.070172,0.26435 0.035618,0.10555 0.077842,0.20233 0.1184606,0.30084 0.045953,0.10783 0.09267,0.21421 0.1433282,0.31398 0.046213,0.0861 0.096594,0.16306 0.1483041,0.23642 0.052136,0.0699 0.1043304,0.1396 0.1580057,0.20502 0.054012,0.0616 0.1081008,0.1228 0.1634851,0.17979 0.050336,0.0508 0.1017324,0.0977 0.1500751,0.15541 0.042513,0.0533 0.086049,0.10431 0.126207,0.16412 0.040858,0.0604 0.078476,0.12841 0.1143537,0.19946 0.035504,0.0688 0.068264,0.14239 0.097416,0.22145 0.027595,0.0712 0.050886,0.14756 0.072747,0.22565 0.022624,0.0858 0.035024,0.17899 0.046906,0.27191 0.019175,0.13626 0.01705,0.27709 0.01559,0.41678 -0.00445,0.21267 -0.016798,0.42429 -0.031636,0.63508 -0.019308,0.27783 -0.045468,0.55358 -0.066116,0.83106 -0.024836,0.32895 -0.049208,0.65773 -0.064594,0.98886 -0.00564,0.27019 -0.00429,0.13796 -0.0044,0.39669 0,0 -0.1489997,0.14583 -0.1489997,0.14583 v 0 c 0.00164,-0.26079 3.851e-4,-0.12781 0.00385,-0.39894 0.013573,-0.33065 0.035309,-0.65922 0.060772,-0.98725 0.019957,-0.27674 0.045723,-0.55172 0.064075,-0.82886 0.014228,-0.20865 0.02548,-0.41828 0.029514,-0.62868 9.512e-4,-0.13622 0.0028,-0.27352 -0.015813,-0.40639 -0.011982,-0.0898 -0.023868,-0.18007 -0.045686,-0.26336 -0.021558,-0.0768 -0.043948,-0.15239 -0.07115,-0.22245 -0.028815,-0.0774 -0.0611,-0.14933 -0.095833,-0.21718 -0.035261,-0.07 -0.072953,-0.13552 -0.1132406,-0.19471 -0.040116,-0.0579 -0.082521,-0.10982 -0.1247998,-0.16158 -0.048452,-0.0558 -0.099053,-0.10383 -0.1489211,-0.15468 -0.055503,-0.058 -0.1100778,-0.11906 -0.1641003,-0.18198 -0.053846,-0.0662 -0.1063298,-0.13636 -0.1585887,-0.20709 -0.052463,-0.0743 -0.1031369,-0.15343 -0.1494612,-0.24173 -0.050682,-0.10115 -0.097679,-0.20859 -0.144063,-0.31706 -0.04127,-0.0995 -0.084657,-0.1965 -0.1208621,-0.30321 -0.027574,-0.0874 -0.056269,-0.17434 -0.073151,-0.27211 -0.015089,-0.10724 -0.026178,-0.21587 -0.026263,-0.32762 -0.00135,-0.11643 0.00212,-0.23279 0.00573,-0.34901 0,0 0.1633055,-0.1552 0.163305,-0.1552 z"
       inkscape:connector-curvature="0"
       style="stroke-width:0.19074711" />
    <path
       id="path286"
       d="m 7.9662865,289.28608 c -0.00153,0.0525 -4.762e-4,0.10512 -9.71e-5,0.15767 3.44e-4,0.0289 7.144e-4,0.0578 6.35e-4,0.0868 0.0035,0.0279 0.012163,0.0551 0.022601,0.0811 0.014108,0.039 0.042653,0.0678 0.06767,0.0997 0.032093,0.0383 0.065201,0.076 0.098555,0.11329 0.048782,0.0439 0.096205,0.0896 0.147788,0.1302 0.056065,0.0407 0.109954,0.0852 0.1707237,0.11872 0.069563,0.0397 0.1402813,0.0763 0.2149655,0.10547 0.069052,0.0284 0.1392108,0.0546 0.2104803,0.077 0.0741,0.0263 0.1494435,0.0493 0.2251882,0.0704 0.086157,0.0212 0.1732949,0.0374 0.2605796,0.0532 0.1010846,0.0225 0.2021376,0.0442 0.3049876,0.0568 0.115839,0.01 0.233341,0.003 0.3489797,-0.008 0.134257,-0.0118 0.267138,-0.0374 0.398595,-0.0666 0.147031,-0.032 0.284055,-0.0953 0.422103,-0.15317 0.142025,-0.0615 0.280085,-0.13135 0.418051,-0.20133 0.135197,-0.072 0.271817,-0.14122 0.407415,-0.21245 0.124193,-0.0605 0.247534,-0.12275 0.371737,-0.18326 0.123712,-0.0557 0.247087,-0.11223 0.371897,-0.16546 0.146471,-0.0574 0.291979,-0.11718 0.438595,-0.17415 0.170175,-0.0703 0.343585,-0.1323 0.517712,-0.19199 0.181657,-0.0567 0.368341,-0.0936 0.554474,-0.13185 0.188165,-0.0391 0.37863,-0.0596 0.57026,-0.0705 0.234684,-0.0155 0.468415,0.0127 0.700386,0.045 0.272579,0.0409 0.538805,0.11087 0.802602,0.18926 0.285183,0.0861 0.571353,0.16802 0.852554,0.26654 0.196536,0.0774 0.100813,0.0392 0.287215,0.11437 0,0 -0.273778,0.18304 -0.273778,0.18304 v 0 c -0.183341,-0.0768 -0.08849,-0.0387 -0.284755,-0.11379 -0.281909,-0.0965 -0.568265,-0.17839 -0.853661,-0.26392 -0.263532,-0.077 -0.529521,-0.14561 -0.801916,-0.1836 -0.232048,-0.0304 -0.465781,-0.0558 -0.700099,-0.0371 -0.191082,0.0128 -0.380954,0.0355 -0.568529,0.0751 -0.185379,0.0381 -0.371265,0.0758 -0.551368,0.13502 -0.174131,0.0608 -0.347587,0.12353 -0.518058,0.19403 -0.146896,0.0583 -0.293602,0.11712 -0.439987,0.17666 -0.124495,0.0543 -0.248432,0.10988 -0.371523,0.16723 -0.123603,0.0605 -0.246803,0.12175 -0.369968,0.18309 -0.13575,0.0709 -0.272042,0.14075 -0.407616,0.21198 -0.138261,0.0697 -0.276835,0.13888 -0.419465,0.19934 -0.139015,0.0583 -0.278138,0.11887 -0.426695,0.14881 -0.132981,0.0281 -0.2670327,0.0535 -0.4026977,0.0641 -0.117638,0.009 -0.236666,0.016 -0.3541843,0.002 -0.1032764,-0.0143 -0.2049611,-0.0367 -0.3070903,-0.0575 -0.088199,-0.0164 -0.1765765,-0.0322 -0.2633202,-0.0554 -0.075896,-0.0223 -0.1518626,-0.0446 -0.226401,-0.0711 -0.071346,-0.024 -0.14224,-0.0496 -0.2114285,-0.0793 -0.075082,-0.0315 -0.1472214,-0.0687 -0.2178347,-0.10927 -0.06113,-0.0364 -0.1179705,-0.0798 -0.1745586,-0.12285 -0.051834,-0.0432 -0.1018855,-0.0886 -0.1514517,-0.13439 -0.034089,-0.0376 -0.067826,-0.0757 -0.1001575,-0.11483 -0.02756,-0.0342 -0.057383,-0.0661 -0.07382,-0.10767 -0.012462,-0.0302 -0.021423,-0.0611 -0.029536,-0.0928 -8.81e-5,-0.0291 2.911e-4,-0.0583 6.35e-4,-0.0874 3.705e-4,-0.0525 0.00146,-0.10506 -9.71e-5,-0.15757 0,0 0.3127071,-0.15933 0.3127071,-0.15933 z"
       inkscape:connector-curvature="0"
       style="stroke-width:0.26458332" />
  </g>
</svg>
