<?xml version="1.0" encoding="UTF-8" standalone="no"?>
<!-- Created with Inkscape (http://www.inkscape.org/) -->

<svg
   xmlns:dc="http://purl.org/dc/elements/1.1/"
   xmlns:cc="http://creativecommons.org/ns#"
   xmlns:rdf="http://www.w3.org/1999/02/22-rdf-syntax-ns#"
   xmlns:svg="http://www.w3.org/2000/svg"
   xmlns="http://www.w3.org/2000/svg"
   xmlns:sodipodi="http://sodipodi.sourceforge.net/DTD/sodipodi-0.dtd"
   xmlns:inkscape="http://www.inkscape.org/namespaces/inkscape"
   width="64"
   height="64"
   viewBox="0 0 64.000001 64.000001"
   id="svg2"
   version="1.1"
   inkscape:version="0.91 r13725"
   inkscape:export-filename="/home/oserkin/zwork/DeepLearning/deep_learning_workshop_tasks/commonlearningdata/cartooncats/1_cat_18.png"
   inkscape:export-xdpi="90"
   inkscape:export-ydpi="90"
   sodipodi:docname="1_cat_18.svg">
  <defs
     id="defs4" />
  <sodipodi:namedview
     id="base"
     pagecolor="#ffffff"
     bordercolor="#666666"
     borderopacity="1.0"
     inkscape:pageopacity="0.0"
     inkscape:pageshadow="2"
     inkscape:zoom="11.2"
     inkscape:cx="30.481924"
     inkscape:cy="29.606808"
     inkscape:document-units="px"
     inkscape:current-layer="layer1"
     showgrid="false"
     units="px"
     inkscape:window-width="1855"
     inkscape:window-height="1056"
     inkscape:window-x="1985"
     inkscape:window-y="24"
     inkscape:window-maximized="1" />
  <metadata
     id="metadata7">
    <rdf:RDF>
      <cc:Work
         rdf:about="">
        <dc:format>image/svg+xml</dc:format>
        <dc:type
           rdf:resource="http://purl.org/dc/dcmitype/StillImage" />
        <dc:title></dc:title>
      </cc:Work>
    </rdf:RDF>
  </metadata>
  <g
     inkscape:label="Layer 1"
     inkscape:groupmode="layer"
     id="layer1"
     transform="translate(0,-988.36216)">
    <path
       style="fill:none;fill-rule:evenodd;stroke:#000000;stroke-width:1px;stroke-linecap:butt;stroke-linejoin:miter;stroke-opacity:1"
       d="m 21.696429,1011.38 c 0.03032,-0.5124 0.303076,-0.1069 0.446428,-0.1786 0.03765,-0.019 0.05952,-0.06 0.08929,-0.089 0.05952,-0.06 0.103279,-0.141 0.178571,-0.1786 0.05324,-0.027 0.122103,0.019 0.178572,0 0.03993,-0.013 0.05164,-0.07 0.08929,-0.089 0.08418,-0.042 0.180474,-0.054 0.267858,-0.089 0.06179,-0.025 0.113314,-0.076 0.178571,-0.089 0.08755,-0.018 0.183153,0.028 0.267857,0 0.101802,-0.034 0.169226,-0.1363 0.267857,-0.1786 0.11279,-0.048 0.238096,-0.06 0.357143,-0.089 0.119048,-0.03 0.238095,-0.06 0.357143,-0.089 0.119048,-0.03 0.242245,-0.046 0.357143,-0.089 0.124625,-0.047 0.229165,-0.142 0.357143,-0.1786 0.08585,-0.024 0.179469,0.013 0.267857,0 0.121478,-0.017 0.235379,-0.074 0.357143,-0.089 0.177192,-0.022 0.359572,0.029 0.535714,0 0.121042,-0.02 0.236814,-0.065 0.357143,-0.089 0.02918,-0.01 0.05952,0 0.08929,0 0.119047,0 0.238095,0 0.357142,0 0.386905,0 0.77381,0 1.160715,0 0.386905,0 0.773809,0 1.160714,0 0.10666,0 0.561929,-0.021 0.625,0 0.101801,0.034 0.171878,0.1306 0.267857,0.1786 0.431582,0.2158 0.105907,0.021 0.446429,0.089 0.09229,0.018 0.180473,0.054 0.267857,0.089 0.06179,0.025 0.119048,0.06 0.178571,0.089 0.05952,0.06 0.103279,0.1409 0.178572,0.1785 0.05324,0.027 0.122102,-0.019 0.178571,0 0.03993,0.013 0.04801,0.081 0.08929,0.089 0.116736,0.023 0.239292,-0.017 0.357143,0 0.09317,0.013 0.175569,0.071 0.267857,0.089 0.05837,0.012 0.120203,-0.012 0.178571,0 0.52803,0.1056 0.009,0.057 0.535715,0.2679 0.05527,0.022 0.120825,-0.014 0.178571,0 0.06456,0.016 0.115437,0.068 0.178572,0.089 0.0847,0.028 0.183153,-0.028 0.267857,0 0.03993,0.013 0.05427,0.066 0.08928,0.089 0.417281,0.2781 -0.106946,-0.1749 0.446429,0.2678 0.06573,0.053 0.106388,0.1353 0.178571,0.1786 0.512149,0.1707 0.05423,-0.026 0.446429,0.2678 0.252932,0.1897 0.09313,0.023 0.357143,0.089 0.06456,0.016 0.116781,0.065 0.178571,0.089 0.08738,0.035 0.183678,0.047 0.267857,0.089 0.09598,0.048 0.175842,0.1234 0.267858,0.1786 0.05706,0.034 0.119047,0.059 0.178571,0.089 0.05952,0.03 0.115437,0.068 0.178571,0.089 0.16493,0.055 0.04233,-0.1363 0.267858,0.089 0.04706,0.047 0.03605,0.1387 0.08928,0.1786 0.07529,0.057 0.183678,0.047 0.267857,0.089 0.04135,0.021 0.30463,0.3046 0.357143,0.3572"
       id="path4040"
       inkscape:connector-curvature="0" />
    <path
       style="fill:none;fill-rule:evenodd;stroke:#000000;stroke-width:1px;stroke-linecap:butt;stroke-linejoin:miter;stroke-opacity:1"
       d="m 22.232143,1010.8443 c -0.386016,0.096 -0.234431,0.089 -0.446429,0.089 -0.02976,0 -0.06267,-0.013 -0.08929,0 -0.03765,0.019 -0.05164,0.071 -0.08929,0.089 -0.05917,0.03 -0.28231,-0.025 -0.357143,0 -0.646734,0.2156 0.140769,-0.026 -0.267857,0.1786 -0.05324,0.027 -0.125332,-0.027 -0.178572,0 -0.03765,0.019 -0.05164,0.07 -0.08929,0.089 -0.02662,0.013 -0.05952,0 -0.08929,0 -0.05952,0 -0.122102,-0.019 -0.178571,0 -0.03993,0.013 -0.05164,0.071 -0.08929,0.089 -0.02662,0.013 -0.06105,-0.01 -0.08929,0 -0.06313,0.021 -0.115437,0.068 -0.178571,0.089 -0.117542,0.039 -0.189028,-0.068 -0.267857,0.089 -0.0119,0.024 0,0.4953 0,0.5357"
       id="path4042"
       inkscape:connector-curvature="0" />
    <path
       style="fill:none;fill-rule:evenodd;stroke:#000000;stroke-width:1px;stroke-linecap:butt;stroke-linejoin:miter;stroke-opacity:1"
       d="m 19.196429,1011.8264 c 0.119047,0.03 0.247386,0.034 0.357142,0.089 0.01474,0.01 0,0.2441 0,0.2679 0,0.4167 0,0.8333 0,1.25 0,0.1488 0,0.2976 0,0.4464 0,0.059 0.01167,0.1202 0,0.1786 -0.05922,0.2961 -0.08333,0.2083 -0.178571,0.4464 -0.102212,0.2556 -0.05294,0.2371 -0.178571,0.4465 -0.05521,0.092 -0.114187,0.182 -0.178572,0.2678 -0.02525,0.034 -0.07046,0.052 -0.08929,0.089 -0.04209,0.084 -0.05433,0.1805 -0.08929,0.2679 -0.02472,0.062 -0.05952,0.119 -0.08929,0.1785 -0.02976,0.059 -0.04936,0.1254 -0.08929,0.1786 -0.05051,0.067 -0.128063,0.1112 -0.178571,0.1786 -0.180687,0.2409 0.0015,0.1463 -0.178572,0.4464 -0.08662,0.1444 -0.263754,0.2171 -0.357142,0.3571 -0.01651,0.025 0,0.06 0,0.089 -0.05952,0.089 -0.102694,0.192 -0.178572,0.2679 -0.04706,0.047 -0.125332,0.049 -0.178571,0.089 -0.101015,0.076 -0.162795,0.1978 -0.267857,0.2678 -0.05537,0.037 -0.121506,0.055 -0.178572,0.089 -0.184032,0.1104 -0.343756,0.2612 -0.535714,0.3572 -0.514895,0.2574 -0.02395,-0.116 -0.535714,0.2678 -0.03367,0.025 -0.05561,0.064 -0.08929,0.089 -0.08585,0.064 -0.184064,0.1116 -0.267857,0.1786 -0.06573,0.053 -0.111228,0.1281 -0.178572,0.1786 -0.05324,0.04 -0.119047,0.059 -0.178571,0.089 -0.119048,0.06 -0.246398,0.1048 -0.357143,0.1786 -0.07004,0.047 -0.106388,0.1353 -0.178571,0.1786 -0.0807,0.048 -0.180474,0.054 -0.267858,0.089 -0.06179,0.025 -0.119047,0.059 -0.178571,0.089 -0.27487,0.1374 -0.516195,0.3314 -0.803571,0.4464 -0.174768,0.07 -0.360947,0.1087 -0.535715,0.1786 -0.123579,0.049 -0.238095,0.119 -0.357143,0.1785 -0.05952,0.03 -0.113314,0.076 -0.178571,0.089 -0.08929,0 -0.178571,0 -0.267857,0 -0.02976,0.03 -0.04845,0.079 -0.08929,0.089 -0.08662,0.022 -0.184957,-0.033 -0.267857,0 -0.07816,0.031 -0.103279,0.1409 -0.178571,0.1786 -0.178572,0.089 -0.133929,-0.045 -0.267858,0 -0.06313,0.021 -0.114008,0.073 -0.178571,0.089 -0.08662,0.022 -0.178571,0 -0.267857,0 -0.208333,0 -0.416667,0 -0.625,0 -0.05952,0 -0.136482,-0.042 -0.178572,0 -0.02976,0.03 0.04936,0.076 0.08929,0.089 0.05647,0.019 0.119048,0 0.178572,0 0.02976,0 0.08929,-0.03 0.08929,0 0,0.03 -0.11033,-0.021 -0.08929,0 0.216217,0.1081 0.131513,0.042 0.267857,0.1785 0.296123,0.2962 -0.04209,-0.084 0.08929,0.1786 0.03765,0.075 0.140926,0.1033 0.178572,0.1786 0.01331,0.027 -0.01331,0.063 0,0.089 0.03765,0.075 0.140925,0.1032 0.178571,0.1785 0.01331,0.027 0,0.06 0,0.089 0.02976,0.089 0.0472,0.1837 0.08929,0.2679 0.01882,0.038 0.05952,0.059 0.08929,0.089 0.02976,0.03 0.05952,0.06 0.08929,0.089 0.02976,0.03 0.07046,0.052 0.08929,0.089 0.01331,0.027 0,0.06 0,0.089 0.02976,0.06 0.05237,0.1232 0.08929,0.1786 0.02335,0.035 0.07598,0.049 0.08929,0.089 0.01882,0.057 -0.02662,0.1253 0,0.1786 0.05647,0.1129 0.211388,0.1549 0.267857,0.2678 0.04209,0.084 0.0472,0.1837 0.08929,0.2679 0.01882,0.038 0.07046,0.052 0.08929,0.089 0.01331,0.027 -0.01651,0.065 0,0.089 0.04669,0.07 0.119048,0.1191 0.178572,0.1786 0.02976,0.03 0.07597,0.049 0.08929,0.089 0.159791,0.4794 -0.321085,-0.2198 0.178572,0.4464 0.07243,0.097 0.182403,0.1824 0.267857,0.2679 0.267857,0.2678 0.535714,0.5357 0.803571,0.8036 0.178572,0.1785 0.357143,0.3571 0.535715,0.5357 0.08929,0.089 0.166841,0.1921 0.267857,0.2678 0.08585,0.064 0.184063,0.1116 0.267857,0.1786 0.06573,0.053 0.119048,0.1191 0.178571,0.1786 0.02976,0.03 0.05164,0.07 0.08929,0.089 0.02662,0.013 0.06267,-0.013 0.08929,0 0.03765,0.019 0.05319,0.068 0.08929,0.089 0.119048,0.059 0.238096,0.119 0.357143,0.1785 0.02976,0.03 0.05426,0.066 0.08929,0.089 0.110745,0.074 0.246398,0.1048 0.357143,0.1786 0.03502,0.023 0.05952,0.059 0.08929,0.089 0.119047,0.06 0.243011,0.1101 0.357142,0.1786 0.03609,0.022 0.05164,0.07 0.08929,0.089 0.08418,0.042 0.180473,0.054 0.267857,0.089 0.446429,0.1786 -0.178571,0 0.535715,0.2679 0.114898,0.043 0.240728,0.051 0.357142,0.089 0.06313,0.021 0.114009,0.073 0.178572,0.089 0.05775,0.014 0.122102,-0.019 0.178571,0 0.03993,0.013 0.04936,0.076 0.08929,0.089 0.05647,0.019 0.122102,-0.019 0.178571,0 0.766589,0.2556 8.77e-4,0.1119 0.625,0.2679 0.02887,0.01 0.06041,-0.01 0.08929,0 0.09131,0.023 0.17557,0.071 0.267857,0.089 0.05837,0.012 0.120825,-0.014 0.178572,0 0.06456,0.016 0.113314,0.076 0.178571,0.089 0.08755,0.017 0.179786,-0.015 0.267857,0 0.165496,0.028 0.300701,0.1057 0.446429,0.1786 0.05952,0.03 0.112927,0.078 0.178571,0.089 0.117428,0.02 0.239292,-0.017 0.357143,0 0.182982,-0.038 0.288337,0.1523 0.446429,0.1786 0.117428,0.02 0.244204,-0.038 0.357143,0 0.07986,0.027 0.106388,0.1353 0.178571,0.1786 0.27015,0.1621 0.313699,0.045 0.625,0.089 0.09317,0.013 0.178571,0.06 0.267857,0.089 0.08929,0.03 0.181352,0.052 0.267857,0.089 0.122338,0.053 0.230874,0.1365 0.357143,0.1786 0.05647,0.019 0.119048,0 0.178572,0 0.119047,0 0.238095,0 0.357142,0 0.556129,0 -0.222385,-0.027 0.357143,0.089 0.175104,0.035 0.362475,-0.043 0.535715,0 0.04083,0.01 0.04801,0.081 0.08929,0.089 0.171704,0.034 0.364011,-0.034 0.535715,0 0.09229,0.018 0.175569,0.071 0.267857,0.089 0.14592,0.029 0.299644,-0.024 0.446428,0 0.18567,0.031 0.350045,0.1476 0.535715,0.1786 0.176141,0.029 0.358937,-0.025 0.535714,0 0.121478,0.017 0.235665,0.072 0.357143,0.089 0.147314,0.021 0.300509,-0.029 0.446428,0 0.09229,0.018 0.175023,0.074 0.267858,0.089 0.08807,0.015 0.179468,-0.013 0.267857,0 0.121478,0.017 0.235664,0.072 0.357143,0.089 0.176776,0.025 0.364013,-0.049 0.535714,0 0.127978,0.037 0.228017,0.1463 0.357143,0.1786 0.140255,0.035 0.724237,-0.021 0.892857,0 0.121764,0.015 0.236101,0.069 0.357143,0.089 0.05871,0.01 0.120203,-0.012 0.178571,0 0.09229,0.018 0.174688,0.076 0.267857,0.089 0.117851,0.017 0.238095,0 0.357143,0 0.02976,0 0.06105,-0.01 0.08929,0 0.655202,0.2184 -0.550125,-0.047 0.535714,0.089 0.342887,-0.3221 0.289268,0.1472 0.446429,0.1786 0.175103,0.035 0.357143,0 0.535714,0 0.05952,0 0.120825,-0.014 0.178571,0 0.06456,0.016 0.112928,0.078 0.178572,0.089 0.176142,0.029 0.357143,0 0.535714,0 0.416667,0 0.833333,0 1.25,0 0.297619,0 0.595238,0 0.892857,0 0.08929,0 0.178572,0 0.267857,0 0.08929,0 0.179469,0.013 0.267858,0 0.121478,-0.017 0.235664,-0.072 0.357142,-0.089 0.147314,-0.021 0.300509,0.029 0.446429,0 0.09229,-0.018 0.175569,-0.071 0.267857,-0.089 0.171703,-0.034 0.364011,0.034 0.535714,0 0.09229,-0.018 0.17557,-0.071 0.267858,-0.089 0.05837,-0.012 0.120824,0.014 0.178571,0 0.06456,-0.016 0.115437,-0.068 0.178571,-0.089 0.116415,-0.039 0.243209,-0.044 0.357143,-0.089 0.03908,-0.016 0.04936,-0.076 0.08929,-0.089 0.05647,-0.019 0.120825,0.014 0.178571,0 0.161602,0.054 0.166056,-0.1447 0.267858,-0.1786 0.05647,-0.019 0.120824,0.014 0.178571,0 0.06456,-0.016 0.119048,-0.059 0.178571,-0.089 0.119048,-0.06 0.230874,-0.1365 0.357143,-0.1786 0.02824,-0.01 0.05952,0 0.08929,0 0.08929,-0.03 0.183678,-0.047 0.267857,-0.089 0.03765,-0.019 0.05164,-0.071 0.08929,-0.089 0.02662,-0.013 0.05952,0 0.08929,0 0.08928,-0.03 0.189548,-0.037 0.267857,-0.089 0.105062,-0.07 0.169257,-0.189 0.267857,-0.2679 0.05197,-0.042 0.125332,-0.049 0.178571,-0.089 0.06734,-0.05 0.119048,-0.119 0.178572,-0.1785 0.17849,-0.1787 0.357062,-0.3573 0.535633,-0.5358 0.296123,-0.2962 -0.08418,0.042 0.178571,-0.089 0.03765,-0.019 0.05952,-0.059 0.08929,-0.089 0.02976,-0.03 0.06594,-0.054 0.08929,-0.089 0.03692,-0.055 0.04223,-0.1315 0.08929,-0.1786 0.0057,-0.01 0.340511,-0.1675 0.357142,-0.1785 0.07004,-0.047 0.119048,-0.1191 0.178572,-0.1786 0.08929,-0.089 0.178571,-0.1786 0.267857,-0.2679 0.02976,-0.03 0.04936,-0.076 0.08929,-0.089 0.05647,-0.019 0.129044,0.033 0.178571,0 0.05537,-0.037 0.05237,-0.1232 0.08929,-0.1785 0.05418,-0.081 0.228288,-0.1887 0.267857,-0.2679 0.01331,-0.027 -0.01651,-0.065 0,-0.089 0.04402,-0.066 0.320419,-0.2837 0.357143,-0.3571 0.131375,-0.2628 -0.206838,0.1175 0.08929,-0.1786 0.05952,-0.06 0.119047,-0.119 0.178571,-0.1786 0.02976,-0.03 0.06594,-0.054 0.08929,-0.089 0.300702,-0.4511 6.89e-4,-0 0.08928,-0.2679 0.02105,-0.063 0.05952,-0.1191 0.08929,-0.1786 0.02976,-0.06 0.05237,-0.1232 0.08929,-0.1785 0.04669,-0.07 0.140925,-0.1033 0.178571,-0.1786 0.04209,-0.084 0.0472,-0.1837 0.08929,-0.2679 0.01882,-0.038 0.05952,-0.06 0.08929,-0.089 0.05952,-0.059 0.128063,-0.1112 0.178571,-0.1785 0.03993,-0.053 0.05237,-0.1232 0.08929,-0.1786 0.05136,-0.077 0.198117,-0.1981 0.267857,-0.2679 0.02976,-0.03 0.07046,-0.052 0.08929,-0.089 0.01331,-0.027 -0.01331,-0.063 0,-0.089 0.03765,-0.075 0.131877,-0.1086 0.178571,-0.1786 0.07383,-0.1108 0.104741,-0.2464 0.178572,-0.3571 0.04669,-0.07 0.119047,-0.1191 0.178571,-0.1786 0.119048,-0.1191 0.238095,-0.2381 0.357143,-0.3572 0.02976,-0.03 0.08929,-0.047 0.08929,-0.089 0,-0.06 -0.178572,0.06 -0.178572,0 0,-0.03 0.119048,0 0.08929,0 -0.119048,0 -0.238095,0 -0.357143,0 -0.505952,0 -1.011905,0 -1.517857,0 -0.267857,0 -0.535714,0 -0.803572,0 -0.10238,0 -0.264652,0.023 -0.357142,0 -0.144146,-0.036 -0.177097,-0.088 -0.267858,-0.1785 -0.02976,-0.03 -0.05164,-0.07 -0.08928,-0.089 -0.02662,-0.013 -0.05952,0 -0.08929,0 -0.05952,-0.059 -0.10853,-0.1319 -0.178571,-0.1786 -0.02476,-0.017 -0.06548,0.018 -0.08929,0 -0.150301,-0.1127 -0.305969,-0.3059 -0.446429,-0.4464 -0.05952,-0.059 -0.111228,-0.1281 -0.178571,-0.1786 -0.05324,-0.04 -0.119048,-0.06 -0.178572,-0.089 -0.08928,-0.06 -0.184063,-0.1115 -0.267857,-0.1785 -0.131466,-0.1052 -0.222456,-0.2562 -0.357143,-0.3572 -0.106479,-0.08 -0.246397,-0.1047 -0.357142,-0.1785 -0.03502,-0.023 -0.05952,-0.06 -0.08929,-0.089 -0.119048,-0.1191 -0.238095,-0.2381 -0.357143,-0.3572 -0.05952,-0.06 -0.111228,-0.128 -0.178571,-0.1785 -0.219568,-0.1647 -0.174895,0.01 -0.357143,-0.2679 -0.01651,-0.025 0.01651,-0.064 0,-0.089 -0.17862,-0.2678 -0.133977,-0.089 -0.267905,-0.2678 -0.06439,-0.086 -0.102694,-0.192 -0.178572,-0.2679 -0.108748,-0.1087 -0.199483,-0.042 -0.267857,-0.1786 -0.01331,-0.027 0,-0.06 0,-0.089 -0.02976,-0.06 -0.05237,-0.1232 -0.08929,-0.1785 -0.07004,-0.1051 -0.197811,-0.1628 -0.267853,-0.2679 -0.01651,-0.025 0.01331,-0.063 0,-0.089 -0.03765,-0.075 -0.151951,-0.099 -0.178571,-0.1785 -0.01882,-0.057 0.01882,-0.1221 0,-0.1786 -0.01331,-0.04 -0.05952,-0.059 -0.08929,-0.089 -0.08929,-0.089 -0.197816,-0.1628 -0.267857,-0.2679 -0.104412,-0.1566 -0.08173,-0.3743 -0.178572,-0.5357 -0.04331,-0.072 -0.128059,-0.1112 -0.178567,-0.1785 -0.03993,-0.053 -0.05952,-0.1191 -0.08929,-0.1786 -0.02976,-0.059 -0.06824,-0.1154 -0.08928,-0.1786 -0.0094,-0.028 0.0094,-0.061 0,-0.089 -0.02105,-0.063 -0.07624,-0.1133 -0.08929,-0.1785 -0.01751,-0.088 0.03316,-0.185 0,-0.2679 -0.178572,-0.4464 -0.133929,0 -0.267857,-0.2679 -0.01331,-0.027 0.0094,-0.061 0,-0.089 -0.184736,-0.5543 0.0072,0.2967 -0.178572,-0.4465 -0.0072,-0.029 0.0094,-0.061 0,-0.089 -0.215578,-0.6467 0.02574,0.1408 -0.178571,-0.2678 -0.01331,-0.027 0,-0.059 0,-0.089 0,-0.059 0.01444,-0.1208 0,-0.1786 -0.01614,-0.065 -0.06824,-0.1154 -0.08929,-0.1786 -0.02047,-0.061 0.02634,-0.2151 0,-0.2678 -0.01882,-0.038 -0.07046,-0.052 -0.08929,-0.089 -0.02634,-0.053 0.02047,-0.2064 0,-0.2679 -0.02104,-0.063 -0.06824,-0.1154 -0.08928,-0.1785 -0.01882,-0.056 0.02662,-0.1254 0,-0.1786 -0.03765,-0.075 -0.131877,-0.1085 -0.178572,-0.1786 -0.196711,-0.045 -0.0472,-0.1837 -0.08928,-0.2678 -0.01882,-0.038 -0.05952,-0.06 -0.08929,-0.089"
       id="path4044"
       inkscape:connector-curvature="0" />
    <path
       style="fill:none;fill-rule:evenodd;stroke:#000000;stroke-width:1px;stroke-linecap:butt;stroke-linejoin:miter;stroke-opacity:1"
       d="m 19.910714,1029.0586 c 0.312485,0.1394 -0.323039,0.5227 -0.357143,0.625 -0.01882,0.056 0,0.119 0,0.1786 0,0.03 0.01331,0.063 0,0.089 -0.01882,0.038 -0.07046,0.052 -0.08929,0.089 -0.01331,0.027 0.0072,0.06 0,0.089 -0.02283,0.091 -0.06646,0.1766 -0.08929,0.2679 -0.0072,0.029 0,0.06 0,0.089 0,0.089 0.01751,0.1803 0,0.2678 -0.02227,0.1114 -0.237806,0.3864 -0.267857,0.4465 -0.01331,0.027 0.0058,0.06 0,0.089 -0.02407,0.1204 -0.06522,0.2368 -0.08929,0.3572 -0.02843,0.1421 0.0351,0.306 0,0.4464 -0.01614,0.065 -0.05952,0.1191 -0.08929,0.1786 -0.02976,0.089 -0.07083,0.1755 -0.08929,0.2678 -0.01167,0.058 0,0.1191 0,0.1786 0,0.1488 0,0.2976 0,0.4464 0,0.089 0.02823,0.1832 0,0.2679 -0.03393,0.1018 -0.138718,0.1682 -0.178572,0.2678 -0.02211,0.055 0,0.1191 0,0.1786 0,0.1488 0,0.2976 0,0.4464 0,0.089 0.01468,0.1798 0,0.2679 -0.01547,0.093 -0.07083,0.1756 -0.08929,0.2679 -0.01167,0.058 0,0.119 0,0.1785 0,0.1488 0,0.2977 0,0.4465 0,0.089 0,0.1785 0,0.2678 0,0.03 0.0058,0.06 0,0.089 -0.02407,0.1203 -0.06911,0.2361 -0.08929,0.3572 -0.0098,0.059 0,0.119 0,0.1785 0,0.2084 0,0.4167 0,0.625 0,0.059 0.01167,0.1202 0,0.1786 -0.01846,0.092 -0.06646,0.1765 -0.08929,0.2679 -0.0072,0.029 0,0.06 0,0.089 0,0.1191 0.0327,0.2427 0,0.3572 -0.02948,0.1032 -0.138718,0.1682 -0.178571,0.2678 -0.02552,0.064 0.01349,0.5441 0,0.625 -0.01547,0.093 -0.07381,0.1751 -0.08929,0.2679 -0.01468,0.088 0,0.1786 0,0.2678 0,0.2977 0,0.5953 0,0.8929 0,1.1905 0,2.381 0,3.5714 0,0.2679 0,0.5357 0,0.8036 0,0.1488 -0.02446,0.2996 0,0.4464 0.01547,0.093 0.07083,0.1756 0.08929,0.2679 0.01167,0.058 -0.01444,0.1208 0,0.1786 0.01614,0.064 0.07623,0.1133 0.08929,0.1785 0.01751,0.088 -0.01751,0.1803 0,0.2679 0.05393,0.2696 0.0765,0.098 0.178572,0.2678 0.06848,0.1142 0.126141,0.2349 0.178571,0.3572 0.03707,0.086 0.04086,0.1871 0.08929,0.2678 0.0098,0.016 0.302271,0.3206 0.357143,0.3572 0.623193,0.4155 -0.438971,-0.3962 0.446428,0.2678 0.133334,0.1 0.22381,0.2572 0.357143,0.3572 0.05324,0.04 0.119048,0.059 0.178572,0.089 0.119047,0.06 0.246397,0.1047 0.357143,0.1785 0.07004,0.047 0.111228,0.1281 0.178571,0.1786 0.20602,0.1545 0.490011,0.1557 0.714286,0.2679 0.308511,0.1542 0.199081,0.2117 0.535714,0.2678 0.854489,0 -0.199649,-0.04 0.446429,0.089 0.08755,0.017 0.180305,-0.018 0.267857,0 0.06526,0.013 0.113314,0.076 0.178571,0.089 0.08755,0.017 0.183153,-0.028 0.267857,0 0.28805,0.096 0.193696,0.2047 0.446429,0.2679 0.05775,0.014 0.119857,-0.01 0.178571,0 0.121042,0.02 0.236815,0.065 0.357143,0.089 0.02918,0.01 0.06041,-0.01 0.08929,0 0.0913,0.023 0.175569,0.071 0.267857,0.089 0.05837,0.012 0.122102,-0.019 0.178571,0 0.12627,0.042 0.230874,0.1365 0.357143,0.1786 0.05647,0.019 0.120204,-0.012 0.178572,0 0.09229,0.019 0.176552,0.067 0.267857,0.089 0.02887,0.01 0.05952,0 0.08929,0 0.08929,0 0.178571,0 0.267857,0 0.208333,0 0.416666,0 0.625,0 0.625,0 1.25,0 1.875,0 0.505952,0 1.011905,0 1.517857,0 0.178571,0 0.357143,0 0.535714,0 0.02976,0 0.06041,0.01 0.08929,0 0.177345,0.013 0.292322,-0.1345 0.446429,-0.1786 0.145917,-0.042 0.299203,-0.053 0.446428,-0.089 0.0913,-0.023 0.175022,-0.074 0.267857,-0.089 0.08807,-0.015 0.183154,0.028 0.267857,0 0.101802,-0.034 0.175842,-0.1234 0.267858,-0.1786 0.05706,-0.034 0.116781,-0.065 0.178571,-0.089 0.181498,-0.073 0.289385,-0.074 0.446429,-0.1786 0.123817,-0.083 0.240942,-0.1749 0.357142,-0.2678 0.03287,-0.026 0.05427,-0.066 0.08929,-0.089 0.05537,-0.037 0.125332,-0.049 0.178572,-0.089 0.101015,-0.076 0.178571,-0.1786 0.267857,-0.2679 0.05952,-0.06 0.119047,-0.119 0.178571,-0.1785 0.05952,-0.06 0.131877,-0.1086 0.178572,-0.1786 0.07383,-0.1107 0.104741,-0.2464 0.178571,-0.3571 0.178581,-0.2679 0.133939,-0.089 0.267867,-0.2679 0.06439,-0.086 0.119048,-0.1786 0.178572,-0.2679 0.05952,-0.089 0.130581,-0.1718 0.178571,-0.2678 0.183528,-0.3671 0.02667,-0.16 0.08929,-0.5357 0.01547,-0.093 0.06343,-0.1774 0.08928,-0.2679 0.03371,-0.118 0.0462,-0.2422 0.08929,-0.3571 0.04673,-0.1247 0.136482,-0.2309 0.178572,-0.3572 0.01882,-0.057 0,-0.119 0,-0.1786 0.02976,-0.089 0.05221,-0.1813 0.08928,-0.2678 0.05243,-0.1223 0.142006,-0.2292 0.178572,-0.3572 0.02453,-0.086 -0.02453,-0.182 0,-0.2678 0.268033,-0.9381 0.114405,0.2064 0.267857,-0.7143 0.02936,-0.1761 -0.02215,-0.3585 0,-0.5357 0.01522,-0.1218 0.06911,-0.2361 0.08929,-0.3572 0.0098,-0.059 -0.0098,-0.1198 0,-0.1785 0.02017,-0.1211 0.07573,-0.2352 0.08928,-0.3572 0.01643,-0.1479 -0.02918,-0.3005 0,-0.4464 0.03143,-0.1572 0.134541,-0.2923 0.178572,-0.4464 0.01635,-0.057 0,-0.1191 0,-0.1786 0,-0.089 -0.01263,-0.1795 0,-0.2679 0.01735,-0.1214 0.06911,-0.2361 0.08928,-0.3571 0.0496,-0.2976 -0.0744,-0.074 0,-0.4464 0.01305,-0.065 0.07624,-0.1133 0.08929,-0.1786 0.02918,-0.1459 -0.02918,-0.3005 0,-0.4464 0.01846,-0.092 0.07083,-0.1756 0.08929,-0.2679 0.02335,-0.1167 -0.04421,-0.2466 0,-0.3571 0.210694,-0.5268 0.162251,-0.01 0.267857,-0.5357 0.01167,-0.058 0,-0.1191 0,-0.1786 0,-0.1191 -0.01684,-0.2393 0,-0.3572 0.01331,-0.093 0.07083,-0.1755 0.08929,-0.2678 0.01167,-0.058 -0.01167,-0.1202 0,-0.1786 0.105606,-0.528 0.05716,-0.01 0.267857,-0.5357 0.0043,-0.011 -0.0041,-0.3324 0,-0.3571 0.02017,-0.1211 0.06522,-0.2369 0.08929,-0.3572 0.0058,-0.029 0,-0.06 0,-0.089 0,-0.119 0,-0.2381 0,-0.3571 0,-0.1488 0,-0.2976 0,-0.4464 0,-0.5655 0,-1.131 0,-1.6965 0,-0.1785 0,-0.3571 0,-0.5357 0,-0.06 0.01167,-0.1202 0,-0.1786 -0.01846,-0.092 -0.07083,-0.1755 -0.08929,-0.2678 -0.02335,-0.1168 0,-0.2381 0,-0.3572 0,-0.03 0.0094,-0.061 0,-0.089 -0.02105,-0.063 -0.07315,-0.1141 -0.08929,-0.1786 -0.06225,-0.249 0.10797,-0.1599 -0.08929,-0.3572"
       id="path4046"
       inkscape:connector-curvature="0" />
    <path
       style="fill:none;fill-rule:evenodd;stroke:#000000;stroke-width:1px;stroke-linecap:butt;stroke-linejoin:miter;stroke-opacity:1"
       d="m 34.107143,1047.4514 c 0.148809,-0.03 0.295844,-0.07 0.446429,-0.089 0.14766,-0.019 0.297619,0 0.446428,0 0.327381,0 0.654762,0 0.982143,0 0.08929,0 0.178571,0 0.267857,0 0.119048,0 0.239292,0.017 0.357143,0 0.09317,-0.013 0.178571,-0.06 0.267857,-0.089 0.119048,0 0.239015,0.015 0.357143,0 0.329412,-0.041 0.563445,-0.2267 0.892857,-0.2679 0.236257,-0.03 0.478584,0.034 0.714286,0 0.09317,-0.013 0.174687,-0.076 0.267857,-0.089 0.581326,-0.083 0.148081,0.1292 0.803571,-0.089 0.126269,-0.042 0.232519,-0.1318 0.357143,-0.1785 0.114899,-0.043 0.240729,-0.05 0.357143,-0.089 0.06314,-0.021 0.115437,-0.068 0.178572,-0.089 0.116414,-0.039 0.244353,-0.041 0.357142,-0.089 0.09863,-0.042 0.175842,-0.1234 0.267858,-0.1786 0.05706,-0.034 0.123198,-0.052 0.178571,-0.089 0.03502,-0.023 0.05952,-0.06 0.08929,-0.089 0.05952,-0.06 0.131877,-0.1086 0.178571,-0.1786 0.01651,-0.025 -0.0072,-0.06 0,-0.089 0.02283,-0.091 0.0472,-0.1837 0.08929,-0.2679 0.04799,-0.096 0.130582,-0.1718 0.178571,-0.2678 0.01331,-0.027 -0.0072,-0.06 0,-0.089 0.02283,-0.091 0.05952,-0.1786 0.08929,-0.2679 0,-0.119 -0.01957,-0.2397 0,-0.3571 0.01094,-0.066 0.07834,-0.1129 0.08929,-0.1786 0.01957,-0.1174 -0.02887,-0.2416 0,-0.3571 0.03227,-0.1291 0.136465,-0.2309 0.178555,-0.3571 0.01882,-0.057 -0.0098,-0.1199 0,-0.1786 0.02017,-0.1211 0.07406,-0.2354 0.08929,-0.3572 0.02584,-0.2067 0,-0.4166 0,-0.625 0,-0.4166 0,-0.8333 0,-1.25 0,-0.119 0,-0.238 0,-0.3571 0,-0.1488 -0.01846,-0.2988 0,-0.4464 0.01167,-0.093 0.07598,-0.1747 0.08929,-0.2679 0.01684,-0.1178 -0.01477,-0.239 0,-0.3571 0.01522,-0.1218 0.07193,-0.2357 0.08928,-0.3572 0.01263,-0.088 -0.01263,-0.1794 0,-0.2678 0.09281,-0.6497 0.04125,-0.1238 0.178572,-0.5357 0.0388,-0.1165 0.05557,-0.2392 0.08928,-0.3572 0.02586,-0.091 0.06343,-0.1773 0.08929,-0.2678 0.0041,-0.014 0.177536,-0.7123 0.178572,-0.7143 0.03765,-0.075 0.135261,-0.1064 0.178571,-0.1786 0.131645,-0.2194 0.06182,-0.3915 0.178571,-0.625 0.02521,-0.05 0.371391,-0.3714 0.446429,-0.4464 0.148809,-0.1488 0.297619,-0.2976 0.446429,-0.4465 0.02976,-0.03 0.05952,-0.059 0.08928,-0.089 0.02976,-0.03 0.05164,-0.071 0.08929,-0.089 0.511059,-0.2556 0.05635,0.055 0.446429,-0.1786 0.20983,-0.1259 0.395417,-0.2653 0.625,-0.3571 0.08738,-0.035 0.183677,-0.047 0.267857,-0.089 0.09598,-0.048 0.168224,-0.1388 0.267857,-0.1786 0.05527,-0.022 0.120825,0.014 0.178571,0 0.06456,-0.016 0.116782,-0.065 0.178572,-0.089 0.08738,-0.035 0.180473,-0.054 0.267857,-0.089 0.06179,-0.025 0.121505,-0.055 0.178571,-0.089 0.09202,-0.055 0.168224,-0.1387 0.267857,-0.1785 0.05527,-0.022 0.120204,0.012 0.178572,0 1.061497,-0.2123 -0.706443,0.043 0.625,-0.1786 0.05871,-0.01 0.119047,0 0.178571,0 0.178572,0 0.357143,0 0.535715,0 0.02215,0 0.349798,-0 0.357142,0 0.105063,0.07 0.178572,0.1786 0.267858,0.2678 0.05952,0.06 0.140925,0.1033 0.178571,0.1786 0.0015,0 0.174101,0.6994 0.178571,0.7143 0.05409,0.1803 0.141657,0.3511 0.178572,0.5357 0.02335,0.1168 -0.02335,0.2404 0,0.3572 0.03692,0.1845 0.149949,0.3496 0.178571,0.5357 0.03168,0.2059 0,0.4166 0,0.625 0,0.1785 0,0.3571 0,0.5357 0,0.1488 0,0.2976 0,0.4464 0,0.1786 0.03194,0.36 0,0.5357 -0.04372,0.2405 -0.259934,0.5768 -0.357143,0.8036 -0.03707,0.086 -0.0472,0.1837 -0.08928,0.2679 -0.04799,0.096 -0.123362,0.1758 -0.178572,0.2678 -0.03424,0.057 -0.05505,0.1215 -0.08928,0.1786 -0.05521,0.092 -0.130582,0.1719 -0.178572,0.2678 -0.04209,0.084 -0.04086,0.1872 -0.08929,0.2679 -0.04331,0.072 -0.125985,0.1128 -0.178571,0.1786 -0.13407,0.1676 -0.238095,0.3571 -0.357143,0.5357 -0.05952,0.089 -0.130582,0.1719 -0.178571,0.2678 -0.04209,0.084 -0.03708,0.1896 -0.08929,0.2679 -0.07004,0.1051 -0.194465,0.1651 -0.267857,0.2679 -0.07736,0.1083 -0.110093,0.243 -0.178572,0.3571 -0.02165,0.036 -0.05952,0.059 -0.08928,0.089 -0.119048,0.119 -0.238096,0.2381 -0.357143,0.3571 -0.178572,0.1786 -0.357143,0.3572 -0.535714,0.5357 -0.05952,0.06 -0.112839,0.126 -0.178572,0.1786 -0.08379,0.067 -0.184063,0.1116 -0.267857,0.1786 -0.131466,0.1052 -0.238095,0.2381 -0.357143,0.3571 -0.02976,0.03 -0.05427,0.066 -0.08929,0.089 -0.05537,0.037 -0.123198,0.052 -0.178571,0.089 -0.03502,0.023 -0.05319,0.068 -0.08929,0.089 -0.114131,0.069 -0.246397,0.1047 -0.357143,0.1786 -0.07004,0.047 -0.111228,0.128 -0.178571,0.1785 -0.05324,0.04 -0.125332,0.049 -0.178571,0.089 -0.06734,0.051 -0.111228,0.1281 -0.178572,0.1786 -0.05324,0.04 -0.119048,0.06 -0.178571,0.089 -0.05952,0.03 -0.116782,0.065 -0.178572,0.089 -0.08738,0.035 -0.187154,0.041 -0.267857,0.089 -0.144366,0.087 -0.212776,0.2705 -0.357143,0.3571 -0.300111,0.1801 -0.205513,-0 -0.446428,0.1786 -0.134687,0.101 -0.21706,0.2637 -0.357143,0.3571 -0.863591,0.4318 0.0097,-0.052 -0.535714,0.3572 -0.05324,0.04 -0.121506,0.055 -0.178572,0.089 -0.209623,0.1258 -0.242334,0.1863 -0.446428,0.2679 -0.174768,0.07 -0.367356,0.094 -0.535715,0.1786 -0.09598,0.048 -0.175841,0.1233 -0.267857,0.1785 -0.05707,0.034 -0.123199,0.052 -0.178571,0.089 -0.03502,0.023 -0.05021,0.074 -0.08929,0.089 -0.113935,0.046 -0.236814,0.065 -0.357143,0.089 -0.02918,0.01 -0.06452,-0.016 -0.08929,0 -0.07004,0.047 -0.10853,0.1319 -0.178571,0.1786 -0.04953,0.033 -0.122102,-0.019 -0.178571,0 -0.06314,0.021 -0.114009,0.073 -0.178572,0.089 -0.303169,0.076 -0.08595,-0.045 -0.267857,0 -0.0913,0.023 -0.176552,0.066 -0.267857,0.089 -0.02887,0.01 -0.06105,-0.01 -0.08929,0 -0.06313,0.021 -0.114009,0.073 -0.178571,0.089 -0.113673,0.028 -0.330473,-0.029 -0.446429,0 -0.902108,0.2256 0.06448,-0.032 -0.357143,0.1786 -0.03113,0.016 -0.470171,0 -0.535714,0 -0.505952,0 -1.011905,0 -1.517857,0 -0.208334,0 -0.416667,0 -0.625,0 -0.08929,0 -0.178572,0 -0.267857,0 -0.02976,0 -0.06267,0.013 -0.08929,0 -0.03765,-0.019 -0.05164,-0.071 -0.08929,-0.089 -0.05045,-0.025 -0.371517,0.025 -0.446428,0 -0.06314,-0.021 -0.115437,-0.068 -0.178572,-0.089 -0.05038,-0.017 -0.209187,0 -0.267857,0 -0.148809,0 -0.297619,0 -0.446428,0"
       id="path4048"
       inkscape:connector-curvature="0" />
    <path
       style="fill:none;fill-rule:evenodd;stroke:#000000;stroke-width:1px;stroke-linecap:butt;stroke-linejoin:miter;stroke-opacity:1"
       d="m 18.839286,1013.6122 c -0.02976,-0.1191 -0.05048,-0.2408 -0.08929,-0.3572 -0.02105,-0.063 -0.05952,-0.119 -0.08929,-0.1786 -0.02976,-0.06 -0.05237,-0.1232 -0.08929,-0.1785 -0.251129,-0.3767 0.15323,0.485 -0.267858,-0.3572 -0.01331,-0.027 0.01331,-0.063 0,-0.089 -0.01882,-0.038 -0.07046,-0.052 -0.08929,-0.089 -0.04209,-0.084 -0.0472,-0.1837 -0.08929,-0.2679 -0.136141,-0.2723 -0.07078,0.1633 -0.178571,-0.2679 -0.01444,-0.058 0.01444,-0.1208 0,-0.1785 -0.01614,-0.065 -0.06824,-0.1155 -0.08929,-0.1786 -0.0094,-0.028 0,-0.059 0,-0.089 -0.02976,-0.089 -0.0472,-0.1837 -0.08929,-0.2679 -0.04799,-0.096 -0.138718,-0.1682 -0.178571,-0.2678 -0.02211,-0.055 0.0098,-0.1199 0,-0.1786 -0.02017,-0.121 -0.04371,-0.2432 -0.08929,-0.3571 -0.181521,-0.4538 9.7e-4,0.4503 -0.178571,-0.2679 -0.106316,-0.4252 0.264348,0.1287 -0.178572,-0.5357 -0.04669,-0.07 -0.135261,-0.1064 -0.178571,-0.1786 -0.04842,-0.081 -0.05433,-0.1804 -0.08929,-0.2678 -0.09852,-0.2463 -0.258621,-0.468 -0.357143,-0.7143 -0.02976,-0.089 -0.05952,-0.1786 -0.08929,-0.2679 0,-0.03 0.0094,-0.061 0,-0.089 -0.02104,-0.063 -0.05952,-0.119 -0.08929,-0.1785 -0.02976,-0.059 -0.05237,-0.1232 -0.08929,-0.1786 -0.02335,-0.035 -0.07908,-0.048 -0.08929,-0.089 -0.02165,-0.087 0,-0.1786 0,-0.2678 0,-0.3655 0.02105,0.2627 -0.08929,-0.1786 -0.02165,-0.087 0.01468,-0.1798 0,-0.2679 -0.01547,-0.093 -0.07381,-0.175 -0.08929,-0.2678 -0.01041,-0.062 0.02372,-0.5776 0,-0.625 -0.03765,-0.075 -0.131877,-0.1086 -0.178572,-0.1786 -0.01651,-0.025 0,-0.059 0,-0.089 0,-0.06 -0.05324,-0.1519 0,-0.1786 0.05952,-0.03 0.116782,0.065 0.178572,0.089 0.08738,0.035 0.192565,0.033 0.267857,0.089 0.217497,0.1631 -0.02696,0.1651 0.178571,0.2679 0.861437,0.4307 -0.04629,-0.124 0.357143,0.1785 0.397875,0.2985 0.852126,0.5052 1.25,0.8036 0.03367,0.025 0.05952,0.059 0.08929,0.089 0.102327,0.1023 0.57351,0.6017 0.714286,0.7143 0.103933,0.083 0.25321,0.095 0.357143,0.1786 0.0986,0.079 0.178571,0.1785 0.267857,0.2678 0.02976,0.03 0.05426,0.066 0.08929,0.089 0.141661,0.094 0.345889,0.1171 0.446429,0.2679 0.03692,0.055 0.04936,0.1253 0.08929,0.1785 0.100391,0.1339 0.252649,0.2266 0.357143,0.3572 0.09296,0.1162 0.172591,0.2428 0.267857,0.3571 0.05389,0.065 0.128064,0.1113 0.178571,0.1786 0.03993,0.053 0.04936,0.1253 0.08929,0.1786 0.07576,0.101 0.197816,0.1628 0.267857,0.2678 0.07383,0.1108 0.09871,0.2507 0.178571,0.3572 0.05051,0.067 0.131878,0.1085 0.178572,0.1785 0.01651,0.025 0,0.06 0,0.089 0,0.1314 -0.02105,0.068 0.08929,0.1786"
       id="path4050"
       inkscape:connector-curvature="0" />
    <path
       style="fill:none;fill-rule:evenodd;stroke:#000000;stroke-width:1px;stroke-linecap:butt;stroke-linejoin:miter;stroke-opacity:1"
       d="m 35.625,1012.2729 c 0.207774,-0.3119 0.317613,-0.4406 0.625,-0.625 0.278187,-0.1669 0.117336,-0 0.446429,-0.2679 0.06573,-0.053 0.10853,-0.1319 0.178571,-0.1786 0.110745,-0.074 0.243011,-0.11 0.357143,-0.1785 0.03609,-0.022 0.05952,-0.06 0.08929,-0.089 0.119047,-0.1191 0.238095,-0.2381 0.357143,-0.3572 0.08928,-0.089 0.169257,-0.1889 0.267857,-0.2678 0.05197,-0.042 0.119047,-0.059 0.178571,-0.089 0.119048,-0.059 0.238095,-0.1191 0.357143,-0.1786 0.119048,-0.06 0.238095,-0.119 0.357143,-0.1785 0.119047,-0.06 0.229165,-0.1421 0.357143,-0.1786 0.08585,-0.025 0.180305,0.018 0.267857,0 0.123014,-0.025 0.367544,-0.2341 0.446428,-0.2679 0.11279,-0.048 0.240729,-0.051 0.357143,-0.089 0.06314,-0.021 0.116782,-0.065 0.178572,-0.089 0.08738,-0.035 0.178571,-0.06 0.267857,-0.089 0.148809,-0.06 0.299114,-0.1155 0.446428,-0.1786 0.182832,-0.078 0.351063,-0.194 0.535715,-0.2679 0.08738,-0.035 0.189548,-0.037 0.267857,-0.089 0.02476,-0.017 -0.02105,-0.068 0,-0.089 0.04706,-0.047 0.119047,-0.059 0.178571,-0.089 0.05952,-0.03 0.119048,-0.06 0.178572,-0.089 0.05952,-0.03 0.125331,-0.049 0.178571,-0.089 0.06734,-0.05 0.09871,-0.152 0.178572,-0.1786 0.03993,-0.013 0.119047,0.059 0.08928,0.089 -0.02976,0.03 -0.05952,-0.1191 -0.08928,-0.089 -0.06655,0.067 -0.05433,0.1805 -0.08929,0.2679 -0.09867,0.2466 -0.309974,0.6125 -0.446429,0.8035 -0.393735,0.5513 0.06629,-0.3615 -0.446428,0.5357 -0.04669,0.082 -0.04086,0.1872 -0.08929,0.2679 -0.04331,0.072 -0.124681,0.1139 -0.178571,0.1786 -0.09527,0.1143 -0.185313,0.2333 -0.267858,0.3571 -0.03692,0.055 -0.05505,0.1215 -0.08928,0.1786 -0.05521,0.092 -0.125332,0.1747 -0.178572,0.2678 -0.06603,0.1156 -0.110092,0.2431 -0.178571,0.3572 -0.02166,0.036 -0.07046,0.052 -0.08929,0.089 -0.04209,0.084 -0.03049,0.1943 -0.08929,0.2678 -0.06703,0.084 -0.200822,0.095 -0.267857,0.1786 -0.05879,0.073 -0.0472,0.1837 -0.08928,0.2679 -0.01882,0.038 -0.05952,0.06 -0.08929,0.089 -0.05952,0.06 -0.119048,0.119 -0.178572,0.1785 -0.102156,0.1022 -0.124517,0.1057 -0.178571,0.2679 -0.0886,0.2658 0.211417,-0.1832 -0.08929,0.2678 -0.08189,0.1229 -0.137743,0.092 -0.267857,0.1786 -0.04776,0.032 -0.350538,0.3483 -0.357143,0.3572 -0.03993,0.053 -0.05237,0.1232 -0.08928,0.1785 -0.02335,0.035 -0.07046,0.052 -0.08929,0.089 -0.01331,0.027 0.01331,0.063 0,0.089 -0.01882,0.038 -0.06594,0.054 -0.08929,0.089 -0.03692,0.055 -0.05237,0.1232 -0.08929,0.1786 -0.02335,0.035 -0.05952,0.119 -0.08928,0.089 -0.02976,-0.03 0.05952,-0.06 0.08928,-0.089"
       id="path4052"
       inkscape:connector-curvature="0" />
    <path
       style="fill:none;fill-rule:evenodd;stroke:#000000;stroke-width:1px;stroke-linecap:butt;stroke-linejoin:miter;stroke-opacity:1"
       d="m 22.142857,1045.2193 c -0.08929,0.1191 -0.209238,0.2204 -0.267857,0.3571 -0.04689,0.1095 0,0.2381 0,0.3572 0,0.077 -0.01584,0.6668 0,0.7143 0.01331,0.04 0.05952,0.06 0.08929,0.089 0.02976,0.03 0.05164,0.07 0.08929,0.089 0.02662,0.013 0.06267,-0.013 0.08929,0 0.03765,0.019 0.04936,0.076 0.08929,0.089 0.04752,0.016 0.637653,0 0.714286,0 0.183736,0 0.483898,0.052 0.625,-0.089 0.02104,-0.021 -0.01331,-0.063 0,-0.089 0.01882,-0.038 0.07046,-0.052 0.08929,-0.089 0.01331,-0.027 0,-0.059 0,-0.089 0,-0.089 0,-0.1786 0,-0.2679 0,-0.1488 0,-0.2976 0,-0.4464 0,-0.06 -0.02211,-0.1233 0,-0.1786 0.191882,-0.4797 0.178572,-0.2026 0.178572,-0.4464 0,-0.06 -0.01882,-0.1221 0,-0.1786 0.02662,-0.08 0.140925,-0.1032 0.178571,-0.1785 0.01331,-0.027 -0.01331,-0.063 0,-0.089 0.05315,-0.1063 0.178572,-0.1246 0.178572,-0.089 0,0.03 -0.05952,0 -0.08929,0"
       id="path4054"
       inkscape:connector-curvature="0" />
    <path
       style="fill:none;fill-rule:evenodd;stroke:#000000;stroke-width:1px;stroke-linecap:butt;stroke-linejoin:miter;stroke-opacity:1"
       d="m 27.946429,1045.3979 c 0,0.4762 0,0.9524 0,1.4285 0,0.026 -0.0069,0.2587 0,0.2679 0.07576,0.101 0.188977,0.1693 0.267857,0.2679 0.0725,0.091 0.06475,0.2109 0.178571,0.2678 0.02662,0.013 0.05952,0 0.08929,0 0.02976,0 0.05952,0 0.08929,0 0.178571,0 0.357143,0 0.535714,0 0.252766,0 0.575435,0.048 0.803571,-0.089 0.07218,-0.043 0.119048,-0.119 0.178572,-0.1785 0.02976,-0.03 0.07046,-0.052 0.08929,-0.089 0.04209,-0.084 0.06646,-0.1766 0.08929,-0.2679 0.0072,-0.029 -0.01331,-0.063 0,-0.089 0.04799,-0.096 0.130582,-0.1719 0.178572,-0.2678 0.01331,-0.027 0,-0.06 0,-0.089 0,-0.06 -0.01167,-0.1202 0,-0.1786 0.01846,-0.092 0.07083,-0.1756 0.08929,-0.2678 0.01751,-0.088 -0.02823,-0.1832 0,-0.2679 0.02105,-0.063 0.06824,-0.1154 0.08929,-0.1786 0.0094,-0.028 0,-0.06 0,-0.089 0,-0.059 0,-0.119 0,-0.1785 0,-0.1488 0,-0.2976 0,-0.4465"
       id="path4056"
       inkscape:connector-curvature="0" />
    <path
       style="fill:none;fill-rule:evenodd;stroke:#000000;stroke-width:1px;stroke-linecap:butt;stroke-linejoin:miter;stroke-opacity:1"
       d="m 22.053571,1018.255 c 0.266199,0.086 -0.06655,0.3133 0,0.4464 0.01882,0.038 0.05952,0.06 0.08929,0.089 0.02976,0.03 0.05164,0.071 0.08929,0.089 0.05324,0.027 0.129045,-0.033 0.178571,0 0.07004,0.047 0.103279,0.141 0.178572,0.1786 0.01669,0.01 0.617095,0 0.625,0 0.04102,-0.014 0.242318,-0.102 0.267857,-0.1786 0.0025,-0.01 0.0112,-0.4128 0,-0.4464 -0.02105,-0.063 -0.05952,-0.119 -0.08929,-0.1786 -0.02976,-0.059 -0.04223,-0.1315 -0.08929,-0.1785 -0.02104,-0.021 -0.05952,0 -0.08929,0 -0.02976,0 -0.05952,0 -0.08929,0 -0.330878,0 -0.803806,-0.056 -1.071429,0.1785 -0.228227,0.1997 -0.178562,0.5456 -0.178562,0.8036"
       id="path4058"
       inkscape:connector-curvature="0" />
    <path
       style="fill:none;fill-rule:evenodd;stroke:#000000;stroke-width:1px;stroke-linecap:butt;stroke-linejoin:miter;stroke-opacity:1"
       d="m 33.839286,1018.7014 c -0.02976,0.1191 -0.05952,0.2381 -0.08929,0.3572 -0.02976,0.06 -0.06824,0.1154 -0.08929,0.1786 -0.0094,0.028 0,0.059 0,0.089 0,0.1488 0,0.2976 0,0.4464 0,0.021 -0.01,0.3371 0,0.3571 0.01882,0.038 0.05952,0.059 0.08929,0.089 0.02976,0.03 0.05164,0.071 0.08929,0.089 0.02662,0.013 0.06452,-0.016 0.08929,0 0.362554,0.2417 -0.0338,0.1786 0.446424,0.1786 0.0798,0 0.417976,0.014 0.446429,0 0.03765,-0.019 0.05952,-0.06 0.08928,-0.089 C 35.04209,1020.2665 35,1020.3507 35,1020.13 c 0,-0.03 0.01331,-0.063 0,-0.089 -0.01882,-0.038 -0.05952,-0.06 -0.08929,-0.089 -0.02976,-0.03 -0.05164,-0.07 -0.08928,-0.089 -0.02662,-0.013 -0.06267,0.013 -0.08929,0 -0.07529,-0.038 -0.10853,-0.1318 -0.178571,-0.1785 -0.04496,-0.1967 -0.183678,-0.047 -0.267858,-0.089 -0.03765,-0.019 -0.04936,-0.076 -0.08928,-0.089 -0.05647,-0.019 -0.122103,0.019 -0.178572,0 -0.03993,-0.013 -0.05164,-0.071 -0.08928,-0.089 -0.02662,-0.013 -0.06105,0.01 -0.08929,0 -0.06314,-0.021 -0.114009,-0.073 -0.178572,-0.089 -0.05775,-0.014 -0.122102,0.019 -0.178571,0 -0.03993,-0.013 -0.05952,-0.06 -0.08929,-0.089 -0.02976,-0.03 -0.05952,-0.06 -0.08928,-0.089"
       id="path4060"
       inkscape:connector-curvature="0" />
    <path
       style="fill:none;fill-rule:evenodd;stroke:#000000;stroke-width:1px;stroke-linecap:butt;stroke-linejoin:miter;stroke-opacity:1"
       d="m 26.696429,1021.2014 c 0.162664,0.4047 0.420835,0.038 0.625,0.089 0.09131,0.023 0.176551,0.067 0.267857,0.089 0.05775,0.014 0.119047,0 0.178571,0 0.119048,0 0.238095,0 0.357143,0 0.02976,0 0.05952,0 0.08929,0 0.02976,0 0.06267,-0.013 0.08929,0 0.03765,0.019 0.05164,0.071 0.08929,0.089 0.02662,0.013 0.05952,0 0.08929,0 0.02976,0 0.05952,0 0.08929,0 0.148192,0 0.219698,-0.014 0.357143,0.089 0.06734,0.051 0.119047,0.119 0.178571,0.1786 0.02976,0.03 0.07046,0.052 0.08929,0.089 0.01331,0.027 -0.01331,0.063 0,0.089 0.01882,0.038 0.07046,0.052 0.08929,0.089 0.0091,0.018 0.007,0.3291 0,0.3572 -0.02283,0.091 -0.03708,0.1895 -0.08929,0.2678 -0.0083,0.013 -0.239117,-0.014 -0.267857,0 -0.03765,0.019 -0.04845,0.079 -0.08929,0.089 -0.06622,0.017 -0.633706,0 -0.714286,0 -0.178571,0 -0.357143,0 -0.535714,0 -0.08929,0 -0.183153,0.028 -0.267857,0 -0.03993,-0.013 -0.05164,-0.07 -0.08929,-0.089 -0.02662,-0.013 -0.06267,0.013 -0.08929,0 -0.03765,-0.019 -0.05164,-0.07 -0.08929,-0.089 -0.08418,-0.042 -0.183677,-0.047 -0.267857,-0.089 -0.02371,-0.012 -0.256004,-0.2441 -0.267857,-0.2678 -0.01331,-0.027 0,-0.059 0,-0.089 0,-0.03 0,-0.059 0,-0.089 0,-0.059 0,-0.119 0,-0.1786 0,-0.03 -0.01331,-0.063 0,-0.089 0.04086,-0.082 0.202608,-0.1569 0.267857,-0.1786 0.05647,-0.019 0.119048,0 0.178572,0 0.119047,0 0.238095,0 0.357143,0 0.267857,0 0.535714,0 0.803571,0"
       id="path4062"
       inkscape:connector-curvature="0" />
    <path
       style="fill:none;fill-rule:evenodd;stroke:#000000;stroke-width:1px;stroke-linecap:butt;stroke-linejoin:miter;stroke-opacity:1"
       d="m 27.321429,1027.005 c 0.119047,0 0.240407,0.023 0.357143,0 0.04127,-0.01 0.05952,-0.06 0.08929,-0.089 0.119048,-0.03 0.236815,-0.065 0.357143,-0.089 0.140711,-0.028 0.313381,0.053 0.446429,0 0.592954,-0.2371 -0.187117,-0.1317 0.357143,-0.2678 0.05775,-0.014 0.119047,0 0.178571,0 0.05952,-0.03 0.115437,-0.068 0.178571,-0.089 0.09488,-0.032 0.262267,0.032 0.357143,0 0.03993,-0.013 0.05164,-0.071 0.08929,-0.089 0.262751,-0.1314 -0.117552,0.2068 0.178571,-0.089"
       id="path4064"
       inkscape:connector-curvature="0" />
    <path
       style="fill:none;fill-rule:evenodd;stroke:#000000;stroke-width:1px;stroke-linecap:butt;stroke-linejoin:miter;stroke-opacity:1"
       d="m 35.267857,1024.2372 c 0.119048,-0.03 0.235665,-0.072 0.357143,-0.089 0.233921,-0.033 0.915302,0.079 0.982143,0.089 0.328676,0.052 0.657669,0.1048 0.982143,0.1785 0.330899,0.075 0.645222,0.2275 0.982143,0.2679 0.413698,0.05 0.834772,-0.035 1.25,0 1.311477,0.1093 0.504031,0.2506 1.875,0.4464 0.294628,0.042 0.597276,-0.035 0.892857,0 0.215186,0.025 0.414799,0.126 0.625,0.1786 0.05775,0.014 0.119047,0 0.178571,0"
       id="path4066"
       inkscape:connector-curvature="0" />
    <path
       style="fill:none;fill-rule:evenodd;stroke:#000000;stroke-width:1px;stroke-linecap:butt;stroke-linejoin:miter;stroke-opacity:1"
       d="m 37.589286,1025.9336 c 0.08597,0.2662 0.313329,-0.067 0.446428,0 0.131931,0.066 0.290517,0.2233 0.446429,0.2678 0.145917,0.042 0.300511,0.048 0.446429,0.089 0.06399,0.018 0.113314,0.076 0.178571,0.089 0.08755,0.017 0.182007,-0.025 0.267857,0 0.455372,0.1301 0.220939,0.2005 0.625,0.2679 0.681128,0 -0.07043,-0.04 0.446429,0.089 0.248986,0.062 0.159887,-0.108 0.357143,0.089"
       id="path4068"
       inkscape:connector-curvature="0" />
    <path
       style="fill:none;fill-rule:evenodd;stroke:#000000;stroke-width:1px;stroke-linecap:butt;stroke-linejoin:miter;stroke-opacity:1"
       d="m 21.160714,1022.7193 c -0.119047,0 -0.240407,-0.023 -0.357143,0 -0.184575,0.037 -0.357142,0.119 -0.535714,0.1786 -0.267857,0.059 -0.532913,0.1334 -0.803571,0.1785 -0.265839,0.044 -0.537364,0.047 -0.803572,0.089 -0.299799,0.047 -0.595238,0.1191 -0.892857,0.1786 -0.297619,0.06 -0.597412,0.1091 -0.892857,0.1786 -0.21091,0.05 -0.412538,0.136 -0.625,0.1785 -0.402881,0.2038 -0.837955,0.021 -1.25,0.089 -0.291823,0.049 -0.698076,0.2625 -0.982143,0.3572 -0.02823,0.01 -0.06452,-0.016 -0.08929,0 -0.07004,0.047 -0.108529,0.1318 -0.178571,0.1785 -0.02476,0.017 -0.05952,0 -0.08929,0 -0.05952,0 -0.120825,-0.014 -0.178571,0 -0.06456,0.016 -0.115437,0.068 -0.178572,0.089 -0.02823,0.01 -0.06266,-0.013 -0.08929,0 -0.03765,0.019 -0.05164,0.071 -0.08929,0.089 -0.262751,0.1314 0.117552,-0.2068 -0.178571,0.089"
       id="path4070"
       inkscape:connector-curvature="0" />
    <path
       style="fill:none;fill-rule:evenodd;stroke:#000000;stroke-width:1px;stroke-linecap:butt;stroke-linejoin:miter;stroke-opacity:1"
       d="m 21.339286,1024.3264 c -1.636905,0 -3.27381,0 -4.910715,0 -0.416666,0 -0.833333,0 -1.25,0 -0.297619,0 -0.596578,-0.028 -0.892857,0 -0.331249,0.032 -0.651673,0.1397 -0.982143,0.1786 -0.177348,0.021 -0.357759,-0.015 -0.535714,0 -0.180409,0.015 -0.356499,0.064 -0.535714,0.089 -0.02946,0 -0.06041,-0.01 -0.08929,0 -0.09131,0.023 -0.183678,0.047 -0.267857,0.089 -0.09598,0.048 -0.178571,0.119 -0.267857,0.1786"
       id="path4072"
       inkscape:connector-curvature="0" />
    <path
       style="fill:none;fill-rule:evenodd;stroke:#000000;stroke-width:1px;stroke-linecap:butt;stroke-linejoin:miter;stroke-opacity:1"
       d="m 20.535714,1021.2014 c -0.416666,0 -0.833333,0 -1.25,0 -0.297619,0 -0.596266,-0.025 -0.892857,0 -0.419443,0.035 -0.83305,0.1211 -1.25,0.1786 -0.446155,0.062 -0.895034,0.1045 -1.339286,0.1786 -0.449075,0.075 -0.886133,0.224 -1.339285,0.2678 -0.473976,0.046 -0.95351,-0.033 -1.428572,0 -0.390529,0.027 -0.770609,0.1461 -1.160714,0.1786 -0.32625,0.027 -0.656237,-0.031 -0.982143,0 -1.1540346,0.1099 -0.581813,0.1994 -1.6071427,0.3572 -0.1470791,0.023 -0.297619,0 -0.4464286,0 -0.089286,0 -0.1785714,0 -0.2678571,0 -0.029762,0 -0.059524,0 -0.089286,0 -0.029762,0 -0.064522,-0.017 -0.089286,0 -0.070042,0.047 -0.1190477,0.119 -0.1785715,0.1785"
       id="path4074"
       inkscape:connector-curvature="0" />
    <path
       style="fill:none;fill-rule:evenodd;stroke:#000000;stroke-width:1px;stroke-linecap:butt;stroke-linejoin:miter;stroke-opacity:1"
       d="m 37.053572,1023.0764 c 1.073228,0 -0.02299,0.07 1.160714,-0.2678 0.915315,-0.2615 0.33132,0.052 1.25,-0.089 0.186042,-0.029 0.352304,-0.1362 0.535714,-0.1786 0.768668,-0.1773 0.536624,0.024 1.339286,-0.2678 0.100847,-0.037 0.168224,-0.1387 0.267857,-0.1786 0.05527,-0.022 0.120825,0.014 0.178571,0 0.06456,-0.016 0.113315,-0.076 0.178572,-0.089 0.08396,-0.017 0.505346,0 0.625,0"
       id="path4076"
       inkscape:connector-curvature="0" />
    <path
       style="fill:none;fill-rule:evenodd;stroke:#000000;stroke-width:1px;stroke-linecap:butt;stroke-linejoin:miter;stroke-opacity:1"
       d="m 19.375,1011.7372 c 0,-0.6787 0.05324,-0.1082 -0.08929,-0.5358 -0.0094,-0.028 0.01331,-0.063 0,-0.089 -0.01882,-0.038 -0.07046,-0.052 -0.08929,-0.089 -0.01331,-0.027 0,-0.06 0,-0.089 -0.02976,-0.059 -0.04936,-0.1254 -0.08929,-0.1786 -0.05051,-0.067 -0.131877,-0.1085 -0.178572,-0.1786 -0.01651,-0.025 0,-0.06 0,-0.089 0,-0.089 0.02165,-0.1812 0,-0.2678 -0.01021,-0.041 -0.07598,-0.049 -0.08929,-0.089 -0.01882,-0.057 0,-0.1191 0,-0.1786 0,-0.089 0,-0.1785 0,-0.2678 0,-0.03 0.0094,-0.061 0,-0.089 -0.02105,-0.063 -0.06824,-0.1155 -0.08929,-0.1786 -0.01882,-0.057 0.02662,-0.1253 0,-0.1786 -0.01882,-0.038 -0.119048,-0.06 -0.08929,-0.089 0.04209,-0.042 0.119048,0 0.178572,0 0.02976,0 0.06452,-0.016 0.08929,0 0.07004,0.047 0.119048,0.1191 0.178572,0.1786 0.02976,0.03 0.05164,0.07 0.08929,0.089 0.02662,0.013 0.05952,0 0.08929,0 0.05952,0.03 0.123199,0.052 0.178572,0.089 0.03502,0.023 0.05164,0.071 0.08929,0.089 0.08418,0.042 0.192565,0.033 0.267858,0.089 0.05324,0.04 0.05237,0.1232 0.08929,0.1785 0.136209,0.2044 0.07068,-0.056 0.178572,0.2679 0.0094,0.028 -0.01651,0.064 0,0.089 0.04669,0.07 0.128064,0.1112 0.178571,0.1786 0.03993,0.053 0.05237,0.1232 0.08929,0.1785 0.02335,0.035 0.06594,0.054 0.08929,0.089 0.253863,0.3808 -0.11833,-0.029 0.267857,0.3572"
       id="path4078"
       inkscape:connector-curvature="0" />
    <path
       style="fill:none;fill-rule:evenodd;stroke:#000000;stroke-width:1px;stroke-linecap:butt;stroke-linejoin:miter;stroke-opacity:1"
       d="m 37.232143,1012.7193 c 0.162803,-0.081 0.336388,-0.1211 0.446429,-0.2679 0.06438,-0.086 0.102693,-0.1919 0.178571,-0.2678 0.0057,-0.01 0.340511,-0.1675 0.357143,-0.1786 0.03502,-0.023 0.05319,-0.068 0.08929,-0.089 0.275826,-0.1655 0.347897,-0.1755 0.625,-0.2678 0.08928,-0.03 0.175569,-0.071 0.267857,-0.089 0.116735,-0.023 0.244204,0.038 0.357143,0 0.03993,-0.013 0.0472,-0.089 0.08928,-0.089 0.12679,0 0.08929,0.2044 0.08929,0.2678 0,0.03 0.0072,0.06 0,0.089 -0.02283,0.091 -0.06646,0.1766 -0.08929,0.2679 -0.0072,0.029 0.01651,0.065 0,0.089 -0.451258,0.6769 0.03745,-0.2535 -0.267857,0.3571 -0.05952,0.1191 -0.136482,0.2309 -0.178571,0.3572 -0.01882,0.056 0.03302,0.129 0,0.1785 -0.07004,0.1051 -0.178572,0.1786 -0.267857,0.2679 -0.04701,0.047 -0.220172,0.244 -0.267858,0.2679 -0.02662,0.013 -0.05952,0 -0.08928,0 -0.02976,0 -0.05952,0 -0.08929,0"
       id="path4080"
       inkscape:connector-curvature="0" />
  </g>
</svg>
