<?xml version="1.0" encoding="UTF-8" standalone="no"?>
<!-- Created with Inkscape (http://www.inkscape.org/) -->

<svg
   xmlns:dc="http://purl.org/dc/elements/1.1/"
   xmlns:cc="http://creativecommons.org/ns#"
   xmlns:rdf="http://www.w3.org/1999/02/22-rdf-syntax-ns#"
   xmlns:svg="http://www.w3.org/2000/svg"
   xmlns="http://www.w3.org/2000/svg"
   xmlns:sodipodi="http://sodipodi.sourceforge.net/DTD/sodipodi-0.dtd"
   xmlns:inkscape="http://www.inkscape.org/namespaces/inkscape"
   width="64"
   height="64"
   viewBox="0 0 64.000001 64.000001"
   id="svg2"
   version="1.1"
   inkscape:version="0.91 r13725"
   inkscape:export-filename="/home/oserkin/zwork/DeepLearning/deep_learning_workshop_tasks/commonlearningdata/cartooncats/1_cat_16.png"
   inkscape:export-xdpi="90"
   inkscape:export-ydpi="90"
   sodipodi:docname="1_cat_16.svg">
  <defs
     id="defs4" />
  <sodipodi:namedview
     id="base"
     pagecolor="#ffffff"
     bordercolor="#666666"
     borderopacity="1.0"
     inkscape:pageopacity="0.0"
     inkscape:pageshadow="2"
     inkscape:zoom="11.2"
     inkscape:cx="30.481924"
     inkscape:cy="29.606808"
     inkscape:document-units="px"
     inkscape:current-layer="layer1"
     showgrid="false"
     units="px"
     inkscape:window-width="1855"
     inkscape:window-height="1056"
     inkscape:window-x="1985"
     inkscape:window-y="24"
     inkscape:window-maximized="1" />
  <metadata
     id="metadata7">
    <rdf:RDF>
      <cc:Work
         rdf:about="">
        <dc:format>image/svg+xml</dc:format>
        <dc:type
           rdf:resource="http://purl.org/dc/dcmitype/StillImage" />
        <dc:title></dc:title>
      </cc:Work>
    </rdf:RDF>
  </metadata>
  <g
     inkscape:label="Layer 1"
     inkscape:groupmode="layer"
     id="layer1"
     transform="translate(0,-988.36216)">
    <path
       style="fill:none;fill-rule:evenodd;stroke:#000000;stroke-width:1px;stroke-linecap:butt;stroke-linejoin:miter;stroke-opacity:1"
       d="m 31.964286,998.61216 c -0.19019,-0.0746 -0.51135,0.0507 -0.714286,0 -0.04083,-0.0102 -0.04936,-0.076 -0.08929,-0.0893 -0.05647,-0.0188 -0.119047,0 -0.178571,0 -0.119048,0 -0.238095,0 -0.357143,0 -0.47619,0 -0.952381,0 -1.428571,0 -1.160715,0 -2.321429,0 -3.482143,0 -0.386905,0 -0.77381,0 -1.160715,0 -0.01165,0 -0.684453,-0.0149 -0.714285,0 -0.09598,0.048 -0.169226,0.1363 -0.267857,0.17857 -0.869555,0.37267 -0.01389,-0.0412 -0.535715,0.0893 -0.101159,0.0253 -0.402784,0.23294 -0.446428,0.26786 -0.131466,0.10517 -0.238095,0.2381 -0.357143,0.35714 -0.05952,0.0595 -0.119048,0.11905 -0.178572,0.17857 -0.05952,0.0595 -0.131877,0.10853 -0.178571,0.17857 -0.07383,0.11075 -0.112536,0.24163 -0.178571,0.35713 -0.05324,0.093 -0.138719,0.1682 -0.178572,0.2679 -0.217826,0.5445 0.363236,-0.3078 -0.08929,0.4464 -0.231943,0.3866 -0.166684,-0.059 -0.267857,0.4464 -0.125485,0.6275 0.273131,-0.5515 -0.08929,0.5357 -0.02104,0.063 -0.07314,0.1141 -0.08929,0.1786 -0.02887,0.1155 0.04421,0.2466 0,0.3572 -0.03985,0.1 -0.138718,0.1682 -0.178572,0.2678 -0.02211,0.055 0,0.1191 0,0.1786 0,0.089 0,0.1786 0,0.2678 0,0.06 0.0098,0.1199 0,0.1786 -0.02017,0.1211 -0.07407,0.2354 -0.08929,0.3572 -0.01477,0.1181 0,0.2381 0,0.3571 0,0.1786 0,0.3571 0,0.5357 0,0.059 0,0.1191 0,0.1786 0,0.089 -0.02166,0.1812 0,0.2678 0.01021,0.041 0.07046,0.052 0.08929,0.089 0.04209,0.084 0.0472,0.1837 0.08929,0.2679 0.01882,0.038 0.06594,0.054 0.08929,0.089 0.110745,0.1661 0.157112,0.3696 0.267857,0.5357 0.04669,0.07 0.119048,0.119 0.178571,0.1786 0.05952,0.059 0.119048,0.119 0.178572,0.1785 0.08929,0.089 0.169257,0.189 0.267857,0.2679 0.116201,0.093 0.240942,0.1749 0.357143,0.2679 0.03287,0.026 0.05164,0.07 0.08929,0.089 0.08418,0.042 0.186142,0.043 0.267857,0.089 0.129203,0.074 0.220365,0.2093 0.357143,0.2679 0.08207,0.035 0.179468,-0.013 0.267857,0 0.121478,0.017 0.237353,0.063 0.357143,0.089 0.148142,0.033 0.302459,0.041 0.446428,0.089 0.126269,0.042 0.230874,0.1365 0.357143,0.1785 0.09737,0.033 0.924904,0.1745 0.982143,0.1786 0.23749,0.017 0.478279,-0.031 0.714286,0 0.214769,0.029 0.410849,0.1456 0.625,0.1786 0.323574,0.05 0.660042,-0.059 0.982143,0 0.185194,0.034 0.355807,0.1232 0.535714,0.1786 0.207088,0.064 0.411825,0.1398 0.625,0.1785 0.117127,0.021 0.238095,0 0.357143,0 0.208333,0 0.416666,0 0.625,0 0.654762,0 1.309523,0 1.964285,0 0.863096,0 1.726191,0 2.589286,0 0.238095,0 0.476191,0 0.714286,0 0.208333,0 0.419089,0.032 0.625,0 0.186042,-0.029 0.349672,-0.1499 0.535714,-0.1785 0.167659,-0.026 0.961735,0.022 1.160714,0 0.09354,-0.01 0.174688,-0.076 0.267858,-0.089 0.117851,-0.017 0.240407,0.023 0.357142,0 0.04127,-0.01 0.04845,-0.079 0.08929,-0.089 0.08662,-0.022 0.181237,0.022 0.267857,0 0.04083,-0.01 0.04936,-0.076 0.08929,-0.089 0.143969,-0.048 0.30246,-0.041 0.446429,-0.089 0.03993,-0.013 0.05952,-0.059 0.08928,-0.089 0.14881,-0.1488 0.282096,-0.315 0.446429,-0.4464 0.05197,-0.042 0.125332,-0.049 0.178571,-0.089 0.353651,-0.2652 0.03972,-0.072 0.267857,-0.3572 0.591466,-0.5914 0.06563,-0.01 0.357143,-0.4464 0.02335,-0.035 0.07046,-0.052 0.08929,-0.089 0.04209,-0.084 0.04086,-0.1871 0.08929,-0.2678 0.218025,-0.3634 0.146936,0.01 0.267857,-0.3572 0.01611,-0.048 0,-0.3267 0,-0.3571 0,-0.1005 0.02155,-0.6496 0,-0.7143 -0.02105,-0.063 -0.06457,-0.1168 -0.08929,-0.1786 -0.03495,-0.087 -0.0472,-0.1836 -0.08929,-0.2678 -0.01882,-0.038 -0.05952,-0.06 -0.08928,-0.089 -0.119048,-0.1191 -0.25197,-0.2257 -0.357143,-0.3572 -0.01859,-0.023 0.02105,-0.068 0,-0.089 -0.07588,-0.076 -0.185421,-0.1098 -0.267857,-0.1785 -0.097,-0.081 -0.178572,-0.1786 -0.267857,-0.2679 -0.02976,-0.03 -0.05164,-0.07 -0.08929,-0.089 -0.853582,-0.4268 0.251152,0.2554 -0.446429,-0.2678 -0.05324,-0.04 -0.119047,-0.059 -0.178571,-0.089 -0.178572,-0.089 -0.369597,-0.1571 -0.535714,-0.2679 -0.07004,-0.047 -0.111228,-0.128 -0.178572,-0.1785 -0.05324,-0.04 -0.119048,-0.06 -0.178571,-0.089 -0.08929,-0.059 -0.184064,-0.1116 -0.267857,-0.1786 -0.06573,-0.053 -0.111228,-0.1281 -0.178572,-0.1786 -0.05324,-0.04 -0.123199,-0.052 -0.178571,-0.089 -0.03502,-0.023 -0.05427,-0.066 -0.08929,-0.089 -0.05537,-0.037 -0.125332,-0.049 -0.178571,-0.089 -0.101016,-0.076 -0.162795,-0.1979 -0.267858,-0.2679 -0.05537,-0.037 -0.115437,-0.068 -0.178571,-0.089 -0.02824,-0.01 -0.06452,0.016 -0.08929,0 -0.07004,-0.047 -0.10853,-0.1319 -0.178571,-0.1786 -0.02476,-0.016 -0.06105,0.01 -0.08929,0 -0.07205,-0.024 -0.47773,-0.2243 -0.535714,-0.2678 -0.06734,-0.05 -0.111228,-0.1281 -0.178572,-0.1786 -0.05324,-0.04 -0.123198,-0.052 -0.178571,-0.089 -0.105062,-0.07 -0.169258,-0.189 -0.267857,-0.2678 -0.08379,-0.067 -0.182011,-0.1142 -0.267857,-0.1786 -0.134687,-0.10102 -0.222456,-0.25613 -0.357143,-0.35715 -0.02381,-0.0179 -0.06105,0.009 -0.08929,0 -0.06313,-0.021 -0.116782,-0.0646 -0.178571,-0.0893 -0.08738,-0.035 -0.180474,-0.0543 -0.267857,-0.0893 -0.18473,-0.0739 -0.350986,-0.19396 -0.535715,-0.26786 -0.02763,-0.011 -0.05952,0 -0.08928,0 -0.08929,0 -0.180306,0.0175 -0.267858,0 -0.06526,-0.0131 -0.114008,-0.0731 -0.178571,-0.0893 -0.05775,-0.0144 -0.119048,0 -0.178571,0 -0.05952,-0.0298 -0.115437,-0.0682 -0.178572,-0.0893 -0.0847,-0.0282 -0.181237,0.0217 -0.267857,0 -0.800457,-0.20011 0.781888,0.0784 -0.267857,-0.44642 -0.135735,-0.0679 -0.294672,0.0893 -0.446429,0.0893 -0.06655,0 -0.115437,-0.0682 -0.178571,-0.0893 -0.02824,-0.009 -0.06267,0.0133 -0.08929,0 -0.03765,-0.0188 -0.05164,-0.0705 -0.08929,-0.0893 -0.02662,-0.0133 -0.05952,0 -0.08929,0 -0.05952,0 -0.119048,0 -0.178572,0"
       id="path3928"
       inkscape:connector-curvature="0" />
    <path
       style="fill:none;fill-rule:evenodd;stroke:#000000;stroke-width:1px;stroke-linecap:butt;stroke-linejoin:miter;stroke-opacity:1"
       d="m 21.339286,1000.755 c 0.0082,-0.033 0.135637,-0.4198 0.08929,-0.5357 -0.121196,-0.30299 -0.14666,-0.1434 -0.267857,-0.44643 -0.03495,-0.0874 -0.07083,-0.17557 -0.08929,-0.26785 -0.01167,-0.0584 0.03062,-0.12753 0,-0.17857 -0.06496,-0.10828 -0.188978,-0.16926 -0.267858,-0.26786 -0.10402,-0.13003 -0.106926,-0.30314 -0.178571,-0.44643 -0.04799,-0.096 -0.138718,-0.16822 -0.178571,-0.26786 -0.02211,-0.0553 0.01444,-0.12082 0,-0.17857 -0.01614,-0.0646 -0.06824,-0.11544 -0.08929,-0.17857 -0.362417,-1.08725 0.0362,0.0917 -0.08929,-0.53571 -0.01846,-0.0923 -0.07083,-0.17557 -0.08929,-0.26786 -0.04464,-0.22322 0.08929,-0.26786 0,-0.53572 -0.02661,-0.0799 -0.131865,-0.10853 -0.178559,-0.17857 -0.01651,-0.0248 0,-0.0595 0,-0.0893 -0.02976,-0.0595 -0.05237,-0.1232 -0.08929,-0.17857 -0.02335,-0.035 -0.119047,-0.0595 -0.08929,-0.0893 0.04209,-0.0421 0.125331,-0.0266 0.178571,0 0.02662,0.0133 -0.01651,0.0645 0,0.0893 0.09345,0.14018 0.31376,0.27754 0.446429,0.35714 0.05707,0.0342 0.125331,0.0494 0.178571,0.0893 0.134687,0.10102 0.222456,0.25613 0.357143,0.35715 0.05324,0.0399 0.123199,0.0524 0.178571,0.0893 0.03502,0.0234 0.05952,0.0595 0.08929,0.0893 0.05952,0.0298 0.123199,0.0524 0.178571,0.0893 0.07004,0.0467 0.119048,0.11905 0.178572,0.17858 0.208333,0.20833 0.416667,0.41666 0.625,0.625 0.04701,0.047 0.220171,0.24401 0.267857,0.26785 0.02662,0.0133 0.06267,-0.0133 0.08929,0 0.03765,0.0188 0.05952,0.0595 0.08929,0.0893 0.02976,0.0298 0.05952,0.0595 0.08929,0.0893"
       id="path3930"
       inkscape:connector-curvature="0" />
    <path
       style="fill:none;fill-rule:evenodd;stroke:#000000;stroke-width:1px;stroke-linecap:butt;stroke-linejoin:miter;stroke-opacity:1"
       d="m 37.946429,1001.6479 c 0.02976,-0.1191 0.04371,-0.2432 0.08928,-0.3572 0.01563,-0.039 0.06594,-0.054 0.08929,-0.089 0.03692,-0.055 0.04936,-0.1253 0.08929,-0.1785 0.05051,-0.067 0.119047,-0.1191 0.178571,-0.1786 0.119048,-0.1191 0.238095,-0.2381 0.357143,-0.3571 0.238095,-0.2381 0.476191,-0.4762 0.714286,-0.71433 0.08929,-0.0893 0.17283,-0.18471 0.267857,-0.26786 0.507165,-0.44377 0.300849,-0.2404 0.714286,-0.53571 0.121091,-0.0865 0.236051,-0.18137 0.357143,-0.26786 0.17464,-0.12474 0.364021,-0.22837 0.535714,-0.35714 0.06734,-0.0505 0.103279,-0.14093 0.178571,-0.17857 0.08418,-0.0421 0.187154,-0.0409 0.267857,-0.0893 0.07218,-0.0433 0.100413,-0.14731 0.178572,-0.17857 0.0829,-0.0332 0.181237,0.0217 0.267857,0 0.04083,-0.0102 0.05164,-0.0705 0.08929,-0.0893 0.05324,-0.0266 0.122102,0.0188 0.178571,0 0.139271,-0.0464 0.180179,-0.17535 0.267857,0 0.01331,0.0266 0,0.0595 0,0.0893 0,0.0298 0.01331,0.0627 0,0.0893 -0.01882,0.0376 -0.07046,0.0516 -0.08928,0.0893 -0.04209,0.0842 -0.0472,0.18368 -0.08929,0.26786 -0.09598,0.19196 -0.246724,0.35168 -0.357143,0.53571 -0.03424,0.0571 -0.05952,0.11905 -0.08929,0.17857 -0.02976,0.0893 -0.04259,0.18615 -0.08928,0.26786 -0.07383,0.1292 -0.185313,0.23333 -0.267858,0.35714 -0.03692,0.0554 -0.05237,0.1232 -0.08928,0.17858 -0.08255,0.12381 -0.194027,0.22794 -0.267857,0.35714 -0.04669,0.082 -0.0472,0.1837 -0.08929,0.2679 -0.01882,0.038 -0.06594,0.054 -0.08929,0.089 -0.110745,0.1662 -0.165139,0.3646 -0.267857,0.5358 -0.02166,0.036 -0.07046,0.052 -0.08929,0.089 -0.04209,0.084 -0.06646,0.1766 -0.08928,0.2679 -0.0072,0.029 0.01331,0.063 0,0.089 -0.01882,0.038 -0.07908,0.048 -0.08929,0.089 -0.02166,0.087 0.03316,0.1849 0,0.2678 -0.03126,0.078 -0.128064,0.1113 -0.178572,0.1786 -0.03993,0.053 -0.05237,0.1232 -0.08928,0.1786 -0.04669,0.07 -0.119048,0.119 -0.178572,0.1785 -0.08928,0.089 -0.178571,0.1786 -0.267857,0.2679 -0.02976,0.03 -0.06594,0.054 -0.08929,0.089 -0.03692,0.055 -0.05237,0.1232 -0.08928,0.1786 -0.04669,0.07 -0.119048,0.119 -0.178572,0.1785"
       id="path3932"
       inkscape:connector-curvature="0" />
    <path
       style="fill:none;fill-rule:evenodd;stroke:#000000;stroke-width:1px;stroke-linecap:butt;stroke-linejoin:miter;stroke-opacity:1"
       d="m 25,1001.38 c -0.02976,0.1488 -0.07046,0.2959 -0.08929,0.4464 -0.01846,0.1477 0,0.2977 0,0.4465 0,0.059 -0.01882,0.1221 0,0.1785 0.05406,0.1622 0.07642,0.1657 0.178572,0.2679 0.02976,0.03 0.05164,0.071 0.08929,0.089 0.02348,0.012 0.310454,0 0.357143,0 0.151472,0 0.323746,0.033 0.446429,-0.089 0.02105,-0.021 0,-0.059 0,-0.089 0,-0.059 0,-0.119 0,-0.1786 0,-0.1858 0.0293,-0.2185 -0.178572,-0.3571 -0.02476,-0.016 -0.06452,0.017 -0.08929,0 -0.07004,-0.047 -0.111228,-0.1281 -0.178572,-0.1786 -0.360843,-0.2706 -0.04241,-0.014 -0.267857,-0.089 -0.06313,-0.021 -0.115437,-0.068 -0.178571,-0.089 -0.05647,-0.019 -0.119048,0 -0.178572,0"
       id="path3934"
       inkscape:connector-curvature="0" />
    <path
       style="fill:none;fill-rule:evenodd;stroke:#000000;stroke-width:1px;stroke-linecap:butt;stroke-linejoin:miter;stroke-opacity:1"
       d="m 32.589286,1002.005 c -0.07518,0.287 -0.175098,0.5409 0,0.8036 0.02335,0.035 0.05164,0.07 0.08929,0.089 0.02662,0.013 0.06452,-0.017 0.08928,0 0.07004,0.047 0.119048,0.119 0.178572,0.1786 0.02976,0.03 0.05164,0.07 0.08928,0.089 0.05612,0.028 0.301025,-0.028 0.357143,0 0.03765,0.019 0.05164,0.071 0.08929,0.089 0.0047,0 0.263186,0 0.267857,0 0.123932,-0.062 0.08929,-0.1588 0.08929,-0.2678 0,-0.089 0.02165,-0.1813 0,-0.2679 -0.03983,-0.1593 -0.159488,-0.2488 -0.267859,-0.3571 -0.14881,-0.1489 -0.297619,-0.2977 -0.446429,-0.4465 -0.02976,-0.03 -0.05952,-0.06 -0.08929,-0.089 -0.02976,-0.03 -0.0472,-0.089 -0.08928,-0.089 -0.02976,0 0,0.059 0,0.089"
       id="path3936"
       inkscape:connector-curvature="0" />
    <path
       style="fill:none;fill-rule:evenodd;stroke:#000000;stroke-width:1px;stroke-linecap:butt;stroke-linejoin:miter;stroke-opacity:1"
       d="m 28.392857,1003.7014 c 0.16372,-0.2017 0.486635,0.3773 0.625,0.4465 0.02662,0.013 0.05952,0 0.08929,0 0.02976,0.03 0.05164,0.07 0.08929,0.089 0.02662,0.013 0.06452,-0.017 0.08929,0 0.07004,0.047 0.10853,0.1318 0.178572,0.1785 0.02476,0.016 0.06267,-0.013 0.08929,0 0.296123,0.2962 -0.08418,-0.042 0.178571,0.089 0.03765,0.019 0.04936,0.076 0.08929,0.089 0.05647,0.019 0.120825,-0.014 0.178571,0 0.04128,0.01 0.185324,0.1306 0.267857,0.089 0.03765,-0.019 0.07046,-0.052 0.08929,-0.089 0.01256,-0.025 0,-0.5567 0,-0.625 0,-0.2527 -0.06116,-0.1394 -0.178571,-0.1786 -0.06313,-0.021 -0.115437,-0.068 -0.178572,-0.089 -0.07924,-0.027 -0.387963,0.029 -0.446428,0 -0.04961,-0.025 -0.149782,-0.1786 -0.178572,-0.1786 -0.04209,0 -0.05164,0.07 -0.08929,0.089 -0.04734,0.024 -0.385687,-0.02 -0.446428,0 -0.03993,0.013 -0.07598,0.049 -0.08929,0.089 -0.01584,0.048 0,0.6376 0,0.7142 0,0.03 0,0.06 0,0.089 0,0.03 0.01331,0.063 0,0.089 -0.06797,0.136 -0.178571,0.052 -0.178571,0.2679 0,0.03 0.08929,-0.03 0.08929,0 0,0.03 -0.119047,0 -0.08929,0 0.08929,0 0.178571,0 0.267857,0 0.297619,0 0.595238,0 0.892857,0"
       id="path3938"
       inkscape:connector-curvature="0" />
    <path
       style="fill:none;fill-rule:evenodd;stroke:#000000;stroke-width:1px;stroke-linecap:butt;stroke-linejoin:miter;stroke-opacity:1"
       d="m 29.375,1005.0407 c 0.121532,0.2301 -0.283704,0.3889 -0.357143,0.5357 -0.04209,0.084 -0.0472,0.1837 -0.08929,0.2679 -0.01882,0.038 -0.05952,0.06 -0.08929,0.089 -0.02976,0.03 -0.05164,0.071 -0.08929,0.089 -0.02662,0.013 -0.06105,-0.01 -0.08929,0 -0.06313,0.021 -0.119047,0.059 -0.178571,0.089 -0.05952,0.03 -0.123199,0.052 -0.178571,0.089 -0.204313,0.1362 0.05583,0.071 -0.267858,0.1785 -0.02823,0.01 -0.06266,-0.013 -0.08929,0 -0.03765,0.019 -0.05164,0.071 -0.08929,0.089 -0.02662,0.013 -0.05952,0 -0.08929,0 -0.04989,0 -0.393739,-0.017 -0.446428,0 -0.06313,0.021 -0.115437,0.068 -0.178572,0.089 -0.05037,0.017 -0.209187,0 -0.267857,0 -0.208333,0 -0.416667,0 -0.625,0 -0.208333,0 -0.416667,0 -0.625,0 -0.05952,0 -0.119048,0 -0.178571,0 -0.02976,0 -0.06267,0.013 -0.08929,0 -0.03765,-0.019 -0.05427,-0.066 -0.08929,-0.089 -0.05537,-0.037 -0.131514,-0.042 -0.178571,-0.089 -0.04706,-0.047 -0.04223,-0.1315 -0.08929,-0.1785 -0.04706,-0.047 -0.131514,-0.042 -0.178571,-0.089 -0.02104,-0.021 0.05952,0 0.08929,0 0.08929,0 0.178572,0 0.267857,0"
       id="path3940"
       inkscape:connector-curvature="0" />
    <path
       style="fill:none;fill-rule:evenodd;stroke:#000000;stroke-width:1px;stroke-linecap:butt;stroke-linejoin:miter;stroke-opacity:1"
       d="m 29.375,1005.6657 c 0.119048,0.1191 0.238095,0.2381 0.357143,0.3572 0.214612,0.2146 -0.02824,-0.047 0.267857,0.4464 0.04331,0.072 0.119048,0.119 0.178572,0.1786 0.02976,0.03 0.05164,0.07 0.08929,0.089 0.02662,0.013 0.06267,-0.013 0.08929,0 0.186408,0.093 -0.0078,0.085 0.178571,0.1785 0.02845,0.014 0.366632,0 0.446429,0 0.08819,0 0.411228,0.018 0.446429,0 0.408625,-0.2043 -0.378877,0.037 0.267857,-0.1785 0.02823,-0.01 0.06267,0.013 0.08929,0 0.08786,-0.044 0.269284,-0.3132 0.357143,-0.3572 0.05324,-0.027 0.122102,0.019 0.178572,0 0.06313,-0.021 0.115437,-0.068 0.178571,-0.089 0.05324,-0.018 0.449208,0 0.535714,0"
       id="path3942"
       inkscape:connector-curvature="0" />
    <path
       style="fill:none;fill-rule:evenodd;stroke:#000000;stroke-width:1px;stroke-linecap:butt;stroke-linejoin:miter;stroke-opacity:1"
       d="m 22.232143,1007.1836 c -0.38585,0.095 -0.768171,0.2024 -1.160714,0.2678 -0.02936,0 -0.06105,-0.01 -0.08929,0 -0.866623,0.2889 -0.05635,0.031 -0.803572,0.4465 -0.762009,0.4233 -0.143627,-0.055 -0.803571,0.3571 -0.12619,0.079 -0.238095,0.1786 -0.357143,0.2679 -0.27147,0.2036 -0.532101,0.4214 -0.803571,0.625 -1.651245,1.2384 0.08121,-0.04 -0.982143,0.625 -0.12619,0.079 -0.23968,0.1765 -0.357143,0.2678 -0.333893,0.2597 -0.643746,0.5498 -0.982143,0.8036 -0.171693,0.1288 -0.357143,0.2381 -0.535714,0.3571 -0.357143,0.2381 -0.714286,0.4762 -1.071429,0.7143 -0.178571,0.1191 -0.376191,0.2136 -0.535714,0.3572 -0.141649,0.1275 -0.215494,0.3189 -0.357143,0.4464 -0.159523,0.1436 -0.368127,0.2231 -0.535714,0.3571 -0.131466,0.1052 -0.238095,0.2381 -0.357143,0.3572 -0.119048,0.119 -0.238095,0.2381 -0.357143,0.3571 -0.119047,0.1191 -0.25197,0.2257 -0.357143,0.3572 -0.134069,0.1676 -0.234068,0.3599 -0.357143,0.5357 -0.08534,0.1219 -0.188988,0.2309 -0.267857,0.3571 -0.07054,0.1129 -0.112535,0.2416 -0.178571,0.3572 -0.05324,0.093 -0.136301,0.1692 -0.178572,0.2678 -0.04834,0.1128 -0.03945,0.245 -0.08929,0.3572 -0.07048,0.1586 -0.190248,0.2912 -0.267857,0.4464 -0.04209,0.084 -0.05952,0.1786 -0.08929,0.2679 -0.02976,0.089 -0.05952,0.1785 -0.08929,0.2678 -0.02976,0.089 -0.05433,0.1805 -0.08929,0.2679 -0.02472,0.062 -0.07623,0.1133 -0.08929,0.1785 -0.01751,0.088 0.03316,0.185 0,0.2679 -0.03126,0.078 -0.1352618,0.1064 -0.1785717,0.1786 -0.098697,0.1645 -0.089286,0.2153 -0.089286,0.3571 0,0.03 0.00722,0.06 0,0.089 -0.022826,0.091 -0.066459,0.1766 -0.089286,0.2679 -0.014437,0.058 0,0.119 0,0.1785 0,0.06 -0.02662,0.1254 0,0.1786 0.01331,0.027 0.062666,0.013 0.089286,0 0.1345046,-0.067 0.1237578,-0.2475 0.1785977,-0.3571 0.06837,-0.1368 0.159109,-0.07 0.267857,-0.1786 0.07588,-0.076 0.111537,-0.1841 0.178572,-0.2679 0.273372,-0.3417 0.06554,-0.049 0.357142,-0.2678 0.134687,-0.101 0.212777,-0.2705 0.357143,-0.3572 0.0807,-0.048 0.187154,-0.041 0.267857,-0.089 0.07218,-0.043 0.112839,-0.1259 0.178572,-0.1785 0.30886,-0.2471 0.258382,-0.1372 0.625,-0.3572 0.03609,-0.022 0.05561,-0.064 0.08929,-0.089 0.08585,-0.064 0.18201,-0.1142 0.267857,-0.1785 0.1,-0.075 0.167857,-0.1929 0.267857,-0.2679 0.05324,-0.04 0.119048,-0.059 0.178571,-0.089 0.119048,-0.06 0.243011,-0.1101 0.357143,-0.1786 0.20983,-0.1259 0.395418,-0.2653 0.625,-0.3571 0.08738,-0.035 0.178572,-0.059 0.267857,-0.089 0.119048,-0.06 0.234806,-0.1261 0.357143,-0.1786 0.08929,-0.03 0.178572,-0.06 0.267857,-0.089 0.02976,0 0.06041,0.01 0.08929,0 0.743172,-0.1858 -0.107777,0.01 0.446429,-0.1786 0.116414,-0.039 0.239152,-0.056 0.357142,-0.089 0.0905,-0.026 0.180474,-0.054 0.267858,-0.089 0.06179,-0.025 0.113314,-0.076 0.178571,-0.089 0.205318,-0.041 0.504177,0.035 0.714286,0 0.09283,-0.016 0.174687,-0.076 0.267857,-0.089 0.117851,-0.017 0.238095,0 0.357143,0 0.119047,-0.03 0.236101,-0.069 0.357143,-0.089 0.123299,-0.02 0.323129,0.021 0.446428,0 0.18567,-0.031 0.350045,-0.1476 0.535714,-0.1785 0.08807,-0.015 0.178572,0 0.267858,0 0.178571,0 0.357142,0 0.535714,0 0.446428,0 0.892857,0 1.339286,0 0.148809,0 0.297619,0 0.446428,0 0.05952,0 0.120204,0.012 0.178572,0 0.120328,-0.024 0.235664,-0.072 0.357142,-0.089 0.09121,-0.013 0.436198,0.025 0.535715,0 0.06456,-0.016 0.115437,-0.068 0.178571,-0.089 0.05647,-0.019 0.119048,0 0.178572,0"
       id="path3944"
       inkscape:connector-curvature="0" />
    <path
       style="fill:none;fill-rule:evenodd;stroke:#000000;stroke-width:1px;stroke-linecap:butt;stroke-linejoin:miter;stroke-opacity:1"
       d="m 38.125,1008.255 c 0.14881,0.089 0.302034,0.1716 0.446429,0.2679 0.03502,0.023 0.05427,0.066 0.08928,0.089 0.110746,0.074 0.25321,0.095 0.357143,0.1785 0.0986,0.079 0.169258,0.189 0.267857,0.2679 0.103933,0.083 0.250664,0.099 0.357143,0.1786 0.06734,0.05 0.119048,0.119 0.178572,0.1785 0.178571,0.1786 0.357143,0.3572 0.535714,0.5358 0.119048,0.119 0.259286,0.2201 0.357143,0.3571 0.07736,0.1083 0.09871,0.2507 0.178571,0.3571 0.06945,0.093 0.520834,0.5035 0.625,0.625 0.250113,0.2918 0.244537,0.3424 0.446429,0.625 0.08649,0.1211 0.162633,0.252 0.267857,0.3572 0.591175,0.5912 0.13905,-0.048 0.625,0.5357 0.235066,0.2821 0.118439,0.1974 0.267857,0.4464 0.224172,0.3736 0.165596,0.1781 0.357143,0.625 0.03707,0.087 0.0472,0.1837 0.08929,0.2679 0.04799,0.096 0.119047,0.1786 0.178571,0.2678 0.05952,0.089 0.114187,0.182 0.178572,0.2679 0.02525,0.034 0.06299,0.056 0.08928,0.089 0.09296,0.1162 0.174897,0.2409 0.267857,0.3571 0.02629,0.033 0.07046,0.052 0.08929,0.089 0.04209,0.084 0.03708,0.1896 0.08929,0.2679 0.07004,0.105 0.187021,0.1708 0.267857,0.2678 0.0687,0.082 0.119048,0.1786 0.178571,0.2679 0.05952,0.089 0.123362,0.1758 0.178572,0.2678 0.102718,0.1712 0.170899,0.3612 0.267857,0.5358 0.08428,0.1517 0.171594,0.302 0.267857,0.4464 0.02335,0.035 0.07365,0.05 0.08929,0.089 0.04557,0.1139 0.03441,0.2474 0.08929,0.3571 0.05102,0.1021 0.3881,0.4792 0.446428,0.625 0.02211,0.055 -0.03571,0.131 0,0.1786 0.06439,0.086 0.191979,0.1027 0.267857,0.1786 0.105224,0.1052 0.162633,0.2519 0.267857,0.3571 0.105225,0.1052 0.251919,0.1626 0.357143,0.2679 0.04706,0.047 0.05952,0.119 0.08929,0.1785 0.05952,0.1191 0.119048,0.2381 0.178571,0.3572 0.02976,0.059 0.04936,0.1253 0.08929,0.1785 0.386187,0.3862 0.01399,-0.024 0.267857,0.3572 0.168547,0.2528 0.05731,-0.1692 0.267857,0.3571 0.02211,0.055 -0.01882,0.1221 0,0.1786 0.0025,0.01 0.164647,0.16 0.178572,0.1786 0.06439,0.086 0.114186,0.182 0.178571,0.2678 0.05608,0.075 0.231325,0.1948 0.267857,0.2679 0.01331,0.027 0,0.059 0,0.089 0,0.5922 -0.04209,-0.1263 0.08929,0.2678 0.01882,0.057 -0.01882,0.1221 0,0.1786 0.0177,0.053 0.267857,0.2314 0.267857,0.2679 0,0.042 -0.04936,0.076 -0.08928,0.089 -0.109891,0.037 -0.379507,-0.039 -0.446429,-0.089 -0.05324,-0.04 -0.04936,-0.1254 -0.08929,-0.1786 -0.126269,-0.1684 -0.314962,-0.2821 -0.446428,-0.4464 -0.281824,-0.3523 0.180706,0 -0.267857,-0.4465 -0.151757,-0.1517 -0.368128,-0.223 -0.535715,-0.3571 -0.06573,-0.053 -0.119047,-0.1191 -0.178571,-0.1786 -0.232306,-0.2323 0.121637,0.095 -0.357143,-0.1785 -0.129226,-0.074 -0.240965,-0.175 -0.357166,-0.2679 -0.131466,-0.1052 -0.227806,-0.2494 -0.357143,-0.3572 -0.08244,-0.069 -0.180537,-0.1162 -0.267857,-0.1785 -0.121091,-0.087 -0.242824,-0.1726 -0.357143,-0.2679 -0.06467,-0.054 -0.111228,-0.1281 -0.178571,-0.1786 -0.05324,-0.04 -0.125332,-0.049 -0.178572,-0.089 -0.06734,-0.051 -0.119047,-0.119 -0.178571,-0.1785 -0.08929,-0.089 -0.178571,-0.1786 -0.267857,-0.2679 -0.591466,-0.5915 -0.0092,-0.066 -0.446429,-0.3571 -0.03502,-0.023 -0.05952,-0.06 -0.08928,-0.089 -0.05952,-0.059 -0.119048,-0.1191 -0.178572,-0.1786 -0.05952,-0.059 -0.111228,-0.1281 -0.178571,-0.1786 -0.05324,-0.04 -0.119048,-0.06 -0.178572,-0.089 -0.05952,-0.06 -0.111228,-0.128 -0.178571,-0.1785 -0.05324,-0.04 -0.121506,-0.055 -0.178572,-0.089 -0.09202,-0.055 -0.175841,-0.1234 -0.267857,-0.1786 -0.05707,-0.034 -0.125331,-0.049 -0.178571,-0.089 -0.101015,-0.076 -0.162795,-0.1978 -0.267857,-0.2678 -0.110746,-0.074 -0.250664,-0.099 -0.357143,-0.1786 -0.06734,-0.05 -0.111228,-0.1281 -0.178572,-0.1786 -0.191129,-0.1433 -0.293233,-0.075 -0.535714,-0.1785 -0.197263,-0.085 -0.338451,-0.2726 -0.535714,-0.3572 -0.11279,-0.048 -0.240729,-0.051 -0.357143,-0.089 -0.186766,-0.062 -0.352791,-0.1947 -0.535714,-0.2678 -0.08929,-0.03 -0.178572,-0.06 -0.267857,-0.089 -0.02976,0 -0.06105,0.01 -0.08929,0 -0.06314,-0.021 -0.115437,-0.068 -0.178572,-0.089 -0.02823,-0.01 -0.06105,0.01 -0.08928,0 -0.535127,-0.1784 0.224258,0.023 -0.357143,-0.2679 -0.07043,-0.08 -0.187998,0.04 -0.267857,0 -0.03765,-0.019 -0.04936,-0.076 -0.08929,-0.089 -0.112939,-0.038 -0.244204,0.038 -0.357143,0 -0.03993,-0.013 -0.04936,-0.076 -0.08929,-0.089 -0.0847,-0.028 -0.178571,0 -0.267857,0 -0.07559,0 -0.309142,0.016 -0.357143,0 -0.144464,-0.048 -0.02784,-0.1785 -0.267857,-0.1785"
       id="path3946"
       inkscape:connector-curvature="0" />
    <path
       style="fill:none;fill-rule:evenodd;stroke:#000000;stroke-width:1px;stroke-linecap:butt;stroke-linejoin:miter;stroke-opacity:1"
       d="m 22.232143,1014.4157 c 0.08382,0.2446 -0.386165,0.1764 -0.446429,0.3572 -0.01882,0.056 0.01444,0.1208 0,0.1785 -0.01614,0.065 -0.06457,0.1168 -0.08929,0.1786 -0.03495,0.087 -0.0472,0.1837 -0.08929,0.2679 -0.04799,0.096 -0.138718,0.1682 -0.178572,0.2678 -0.02211,0.055 0.01444,0.1209 0,0.1786 -0.03228,0.1291 -0.14629,0.228 -0.178571,0.3571 -0.130457,0.5219 0.283381,-0.3338 -0.08929,0.5358 -0.04227,0.099 -0.149091,0.1646 -0.178571,0.2678 -0.0327,0.1145 0.01477,0.239 0,0.3572 -0.01522,0.1217 -0.07407,0.2353 -0.08929,0.3571 -0.01477,0.1181 0.02583,0.2409 0,0.3571 -0.06954,0.313 -0.265035,0.5859 -0.357143,0.8929 -0.04361,0.1454 -0.05952,0.2976 -0.08929,0.4464 -0.02976,0.1488 -0.05952,0.2976 -0.08929,0.4465 -0.02976,0.1488 -0.03293,0.3055 -0.08929,0.4464 -0.06445,0.1611 -0.212979,0.2818 -0.267857,0.4464 -0.03765,0.113 0.02335,0.2404 0,0.3572 -0.03692,0.1845 -0.1449,0.3505 -0.178571,0.5357 -0.02662,0.1464 0.03346,0.3014 0,0.4464 -0.471468,1.2572 -0.124541,0.1763 -0.357143,1.3393 -0.101952,0.5097 -0.225185,0.8444 -0.357143,1.3393 -0.06324,0.2371 -0.119048,0.4762 -0.178572,0.7143 -0.05952,0.2381 -0.14813,0.4707 -0.178571,0.7142 -0.02953,0.2363 0.02953,0.4781 0,0.7143 -0.06088,0.4871 -0.292271,0.9421 -0.357143,1.4286 -0.02753,0.2065 0,0.4167 0,0.625 -0.02976,0.3571 -0.03612,0.717 -0.08929,1.0714 -0.03641,0.2427 -0.122359,0.4754 -0.178571,0.7143 -0.07424,0.3155 -0.312991,1.4021 -0.357143,1.6964 -0.04437,0.2958 -0.0244,0.6009 -0.08929,0.8929 -0.05516,0.2482 -0.196106,0.4703 -0.267857,0.7143 -0.07742,0.2632 -0.115725,0.5365 -0.178571,0.8036 -0.05621,0.2389 -0.148131,0.4707 -0.178572,0.7142 -0.02953,0.2363 0,0.4762 0,0.7143 0,0.2381 0,0.4762 0,0.7143 0,1.1905 0,2.381 0,3.5714 0,1.4881 0,2.9762 0,4.4643 0,0.506 0,1.0119 0,1.5179 0,0.119 0,0.2381 0,0.3571 0,0.089 -0.02823,0.1832 0,0.2679 0.03393,0.1018 0.138719,0.1682 0.178572,0.2678 0.02211,0.055 -0.01444,0.1209 0,0.1786 0.06474,0.259 0.06966,0.1045 0.178571,0.2679 0.03692,0.055 0.06824,0.1154 0.08929,0.1785 0.0094,0.028 -0.01651,0.065 0,0.089 0.01758,0.026 0.420521,0.4309 0.446429,0.4465 0.0807,0.048 0.175022,0.074 0.267857,0.089 0.08807,0.015 0.181237,-0.022 0.267857,0 0.04083,0.01 0.04936,0.076 0.08929,0.089 0.05647,0.019 0.120824,-0.014 0.178571,0 0.06456,0.016 0.115437,0.068 0.178571,0.089 0.02823,0.01 0.06452,-0.017 0.08929,0 0.07004,0.047 0.103279,0.1409 0.178572,0.1786 0.05324,0.027 0.122102,-0.019 0.178571,0 0.03993,0.013 0.05164,0.07 0.08929,0.089 0.0909,0.045 0.424919,-0.079 0.446428,-0.089 0.0288,-0.014 0.433828,-0.4275 0.446429,-0.4464 0.01651,-0.025 -0.0072,-0.061 0,-0.089 0.02283,-0.091 0.0472,-0.1837 0.08929,-0.2679 0.01882,-0.038 0.06594,-0.054 0.08929,-0.089 0.03692,-0.055 0.04936,-0.1253 0.08929,-0.1785 0.05051,-0.067 0.128064,-0.1113 0.178571,-0.1786 0.117024,-0.1561 0.08854,-0.2664 0.178572,-0.4464 0.218497,-0.437 0.108003,-0.1143 0.357143,-0.4465 0.117023,-0.156 0.08854,-0.2663 0.178571,-0.4464 0.04799,-0.096 0.130582,-0.1719 0.178572,-0.2679 0.04209,-0.084 0.05433,-0.1804 0.08929,-0.2678 0.02472,-0.062 0.06457,-0.1168 0.08929,-0.1786 0.03495,-0.087 0.04086,-0.1871 0.08929,-0.2678 0.04331,-0.072 0.128064,-0.1113 0.178571,-0.1786 0.270633,-0.3609 0.01414,-0.042 0.08929,-0.2679 0.02105,-0.063 0.06457,-0.1168 0.08929,-0.1785 0.03495,-0.087 0.05433,-0.1805 0.08929,-0.2679 0.04943,-0.1236 0.119048,-0.2381 0.178572,-0.3571 0.02976,-0.06 0.05237,-0.1232 0.08929,-0.1786 0.02335,-0.035 0.07046,-0.052 0.08929,-0.089 0.04209,-0.084 0.07083,-0.1756 0.08929,-0.2679 0.01167,-0.058 -0.02662,-0.1253 0,-0.1785 0.03765,-0.075 0.119048,-0.1191 0.178571,-0.1786 0.02976,-0.03 0.07598,-0.049 0.08929,-0.089 0.01882,-0.057 -0.01444,-0.1208 0,-0.1786 0.03228,-0.1291 0.136482,-0.2308 0.178571,-0.3571 0.106341,-0.319 -0.345688,0.3678 0.08929,-0.3572 0.04331,-0.072 0.140925,-0.1032 0.178572,-0.1785 0.02662,-0.053 -0.01444,-0.1209 0,-0.1786 0.01614,-0.065 0.06457,-0.1168 0.08929,-0.1786 0.03495,-0.087 0.03708,-0.1895 0.08929,-0.2678 0.07004,-0.1051 0.202892,-0.1596 0.267857,-0.2679 0.03063,-0.051 -0.01444,-0.1208 0,-0.1786 0.01614,-0.064 0.06457,-0.1167 0.08929,-0.1785 0.03495,-0.087 0.04086,-0.1872 0.08929,-0.2679 0.04331,-0.072 0.119047,-0.119 0.178571,-0.1786 0.02976,-0.03 0.07046,-0.052 0.08929,-0.089 0.04209,-0.084 0.0472,-0.1837 0.08929,-0.2679 0.01882,-0.038 0.06594,-0.054 0.08929,-0.089 0.03692,-0.055 0.05237,-0.1232 0.08929,-0.1786 0.04669,-0.07 0.131877,-0.1085 0.178571,-0.1785 0.03692,-0.055 0.05237,-0.1232 0.08929,-0.1786 0.02335,-0.035 0.06403,-0.056 0.08929,-0.089 0.06438,-0.086 0.114186,-0.182 0.178571,-0.2679 0.02525,-0.034 0.06594,-0.054 0.08929,-0.089 0.03692,-0.055 0.05237,-0.1232 0.08929,-0.1786 0.02335,-0.035 0.05952,-0.06 0.08929,-0.089 0.05952,-0.06 0.119048,-0.119 0.178572,-0.1786 0.148809,-0.1488 0.297619,-0.2976 0.446428,-0.4464 0.04701,-0.047 0.244014,-0.2202 0.267857,-0.2679 0.01331,-0.027 0,-0.06 0,-0.089 0.02976,-0.06 0.04936,-0.1254 0.08929,-0.1786 0.05051,-0.067 0.119048,-0.1191 0.178572,-0.1786 0.119047,-0.119 0.238095,-0.2381 0.357142,-0.3571 0.02976,-0.03 0.06594,-0.054 0.08929,-0.089 0.03692,-0.055 0.04223,-0.1315 0.08929,-0.1786 0.04706,-0.047 0.125332,-0.049 0.178571,-0.089 0.124392,-0.093 0.2445,-0.2445 0.357143,-0.3571 0.02976,-0.03 0.05427,-0.066 0.08929,-0.089 0.05537,-0.037 0.123199,-0.052 0.178571,-0.089 0.03502,-0.023 0.05952,-0.059 0.08929,-0.089 0.119048,-0.119 0.238095,-0.2381 0.357143,-0.3571 0.05952,-0.06 0.10853,-0.1319 0.178571,-0.1786 0.05537,-0.037 0.123199,-0.052 0.178572,-0.089 0.03666,-0.024 0.249582,-0.2678 0.267857,-0.2678 0.02976,0 0,0.06 0,0.089 0,0.094 0,0.2053 0,0.2678 0,0.2381 0,0.4762 0,0.7143 0,0.5059 0,1.0119 0,1.5179 0,0.059 0,0.119 0,0.1785 0,0.1191 -0.0327,0.2427 0,0.3572 0.02948,0.1031 0.138718,0.1682 0.178571,0.2678 0.02211,0.055 -0.01444,0.1209 0,0.1786 0.183098,0.7324 0.0014,-0.7048 0.178572,0.5357 0.04,0.28 -0.0704,0.2696 0.08929,0.5357 0.04331,0.072 0.140925,0.1033 0.178571,0.1786 0.02662,0.053 -0.01167,0.1202 0,0.1786 0.03692,0.1845 0.12686,0.3547 0.178571,0.5357 0.03371,0.118 0.04095,0.2443 0.08929,0.3571 0.15282,0.3566 0.169446,0.1512 0.267857,0.4465 0.0388,0.1164 0.04371,0.2432 0.08929,0.3571 0.01563,0.039 0.06594,0.054 0.08929,0.089 0.03692,0.055 0.05505,0.1215 0.08929,0.1786 0.05521,0.092 0.144638,0.166 0.178572,0.2678 0.02823,0.085 -0.01751,0.1803 0,0.2679 0.01305,0.065 0.06457,0.1168 0.08929,0.1785 0.03495,0.087 0.0472,0.1837 0.08929,0.2679 0.04799,0.096 0.123362,0.1758 0.178572,0.2679 0.06848,0.1141 0.104741,0.2464 0.178571,0.3571 0.03911,0.059 0.251749,0.2195 0.267857,0.2679 0.01882,0.056 -0.01882,0.1221 0,0.1785 0.02662,0.08 0.131877,0.1086 0.178572,0.1786 0.03692,0.055 0.05237,0.1232 0.08929,0.1786 0.02335,0.035 0.05952,0.06 0.08929,0.089 0.02976,0.03 0.05164,0.07 0.08929,0.089 0.123157,0.062 0.07986,-0.1081 0.178571,0.089 0.109953,0.2199 -0.259173,-0.081 0.08929,0.2679 0.04706,0.047 0.123199,0.052 0.178571,0.089 0.03502,0.023 0.05427,0.066 0.08929,0.089 0.05537,0.037 0.131514,0.042 0.178572,0.089 0.04706,0.047 0.04223,0.1316 0.08928,0.1786 0.02105,0.021 0.06105,-0.01 0.08929,0 0.646734,0.2156 -0.140769,-0.026 0.267857,0.1786 0.02662,0.013 0.06452,-0.017 0.08929,0 0.105062,0.07 0.162795,0.1978 0.267857,0.2678 0.110745,0.074 0.250663,0.099 0.357143,0.1786 0.06734,0.051 0.119047,0.1191 0.178571,0.1786 0.02976,0.03 0.05164,0.07 0.08929,0.089 0.02662,0.013 0.06452,-0.016 0.08929,0 0.07004,0.047 0.119047,0.119 0.178571,0.1786 0.119048,0.06 0.243011,0.11 0.357143,0.1785 0.07218,0.043 0.103279,0.141 0.178571,0.1786 0.02662,0.013 0.06105,-0.01 0.08929,0 0.06314,0.021 0.119048,0.059 0.178572,0.089 0.05952,0.03 0.123198,0.052 0.178571,0.089 0.204313,0.1362 -0.05583,0.071 0.267857,0.1785 0.02824,0.01 0.06267,-0.013 0.08929,0 0.03765,0.019 0.04936,0.076 0.08929,0.089 0.05647,0.019 0.123304,-0.022 0.178571,0 0.5094,0.2038 0.05642,0.1379 0.446429,0.2679 0.02823,0.01 0.05952,0 0.08928,0 0.08929,0 0.179786,-0.015 0.267857,0 0.09284,0.015 0.183678,0.047 0.267858,0.089 0.272282,0.1361 -0.163299,0.071 0.267857,0.1786 0.05775,0.014 0.119047,0 0.178571,0 0.119048,0.06 0.233563,0.1291 0.357143,0.1785 0.02763,0.011 0.05952,0 0.08929,0 0.05952,0 0.120203,-0.012 0.178571,0 0.09229,0.018 0.175022,0.074 0.267857,0.089 0.120944,0.02 0.477153,0 0.625,0 0.08771,0 0.476661,0.02 0.535715,0 0.196215,-0.065 0.486186,-0.3376 0.535714,-0.5357 0.01444,-0.058 -0.01167,-0.1202 0,-0.1786 0.251827,-0.7555 -0.0016,0.099 0.08929,-0.4464 0.112265,-0.6736 0.0445,-0.044 0.267857,-0.7143 0.01882,-0.057 0,-0.119 0,-0.1786 0,-0.2678 0,-0.5357 0,-0.8035 0,-0.2381 0,-0.4762 0,-0.7143 0,-0.1488 0.02918,-0.3005 0,-0.4464 -0.01305,-0.065 -0.06457,-0.1168 -0.08929,-0.1786 -0.03495,-0.087 -0.07083,-0.1756 -0.08929,-0.2679 -0.01167,-0.058 0.01167,-0.1202 0,-0.1785 -0.02074,-0.1038 -0.110544,-0.3444 -0.178571,-0.4465 -0.02335,-0.035 -0.06594,-0.054 -0.08929,-0.089 -0.03692,-0.055 -0.04936,-0.1254 -0.08929,-0.1786 -0.386186,-0.3862 -0.01399,0.024 -0.267857,-0.3572 -0.04776,-0.072 -0.344301,-0.3057 -0.357143,-0.3571 -0.02165,-0.087 0.03316,-0.185 0,-0.2679 -0.04464,-0.1116 -0.200892,-0.1674 -0.267857,-0.2678 -0.03692,-0.055 -0.04936,-0.1254 -0.08928,-0.1786 -0.101016,-0.1347 -0.263755,-0.2171 -0.357143,-0.3571 -0.01651,-0.025 0.01651,-0.065 0,-0.089 -0.09339,-0.1401 -0.256128,-0.2225 -0.357143,-0.3572 -0.08974,-0.1196 -0.127124,-0.3178 -0.178572,-0.4464 -0.08164,-0.2041 -0.142083,-0.2368 -0.267857,-0.4464 -0.03424,-0.057 -0.05237,-0.1232 -0.08928,-0.1786 -0.02335,-0.035 -0.07908,-0.048 -0.08929,-0.089 -0.02166,-0.087 0.01751,-0.1803 0,-0.2678 -0.01305,-0.065 -0.05952,-0.1191 -0.08929,-0.1786 -0.05952,-0.1191 -0.110092,-0.243 -0.178571,-0.3572 -0.02166,-0.036 -0.07908,-0.048 -0.08929,-0.089 -0.02166,-0.087 0.01751,-0.1804 0,-0.2679 -0.01305,-0.065 -0.06457,-0.1168 -0.08929,-0.1786 -0.03495,-0.087 -0.07083,-0.1755 -0.08928,-0.2678 -0.01984,-0.099 0.02976,-0.3721 0,-0.4465 -0.03126,-0.078 -0.131878,-0.1085 -0.178572,-0.1785 -0.01651,-0.025 0,-0.06 0,-0.089 0,-0.06 0.01444,-0.1208 0,-0.1786 -0.01614,-0.065 -0.05952,-0.119 -0.08929,-0.1786 -0.02976,-0.089 -0.07083,-0.1755 -0.08928,-0.2678 -0.01167,-0.058 0,-0.1191 0,-0.1786 0,-0.089 0,-0.1786 0,-0.2678 0,-0.1786 0,-0.3572 0,-0.5358 0,-0.625 0,-1.25 0,-1.875 0,-2.1428 0,-4.2857 0,-6.4285 0,-0.5357 0,-1.0715 0,-1.6072 0,-0.2083 0,-0.4166 0,-0.625 0,-0.06 0.01167,-0.1202 0,-0.1785 -0.01846,-0.092 -0.07083,-0.1756 -0.08929,-0.2679 -0.01167,-0.058 0.02211,-0.1233 0,-0.1786 -0.03985,-0.1 -0.130582,-0.1718 -0.178571,-0.2678 -0.01331,-0.027 0,-0.059 0,-0.089 0,-0.1191 0.01957,-0.2397 0,-0.3572 -0.01094,-0.066 -0.06824,-0.1154 -0.08929,-0.1785 -0.0094,-0.028 0,-0.06 0,-0.089 0,-0.1488 0,-0.2976 0,-0.4465 0,-0.2976 0,-0.5952 0,-0.8928 0,-1.131 0,-2.2619 0,-3.3929 0,-0.5654 0,-1.1309 0,-1.6964 0,-0.1488 0,-0.2976 0,-0.4464 0,-0.03 0,-0.059 0,-0.089 0,-0.03 -0.01331,-0.063 0,-0.089 0.03765,-0.075 0.140925,-0.1033 0.178571,-0.1786 0.02662,-0.053 -0.02662,-0.1253 0,-0.1785 0.01882,-0.038 0.05952,-0.06 0.08929,-0.089"
       id="path3948"
       inkscape:connector-curvature="0" />
    <path
       style="fill:none;fill-rule:evenodd;stroke:#000000;stroke-width:1px;stroke-linecap:butt;stroke-linejoin:miter;stroke-opacity:1"
       d="m 36.160714,1029.0586 c 0.119048,-0.03 0.239153,-0.056 0.357143,-0.089 0.09049,-0.026 0.174688,-0.076 0.267857,-0.089 0.176777,-0.025 0.357143,0 0.535715,0 0.119047,0 0.242675,0.033 0.357143,0 0.103179,-0.03 0.166055,-0.1446 0.267857,-0.1786 0.0847,-0.028 0.178571,0 0.267857,0 0.08929,0 0.178571,0 0.267857,0 0.208333,0 0.416667,0 0.625,0 0.08929,0 0.180305,-0.017 0.267857,0 0.06526,0.013 0.115437,0.068 0.178572,0.089 0.02823,0.01 0.06041,-0.01 0.08928,0 0.09131,0.023 0.176552,0.066 0.267857,0.089 0.330372,0.083 -0.427658,-0.3477 0.446429,0.089 0.07529,0.038 0.103279,0.1409 0.178571,0.1786 0.379334,0.1896 0.281311,0.032 0.625,0.089 0.09284,0.015 0.178572,0.06 0.267858,0.089 0.08928,0.03 0.181351,0.052 0.267857,0.089 0.183506,0.079 0.350345,0.1937 0.535714,0.2679 0.06652,0.1659 0.336792,0.053 0.446429,0.089 0.03993,0.013 0.05319,0.068 0.08928,0.089 0.114132,0.068 0.243011,0.11 0.357143,0.1785 0.03609,0.022 0.04845,0.079 0.08929,0.089 0.08662,0.022 0.181237,-0.022 0.267857,0 0.04083,0.01 0.05164,0.07 0.08929,0.089 0.08418,0.042 0.187154,0.041 0.267857,0.089 0.07218,0.043 0.106388,0.1353 0.178571,0.1786 0.0807,0.048 0.183678,0.047 0.267857,0.089 0.03765,0.019 0.05427,0.066 0.08929,0.089 0.166118,0.1108 0.364517,0.1652 0.535714,0.2679 0.03609,0.022 0.05427,0.066 0.08929,0.089 0.164443,0.1096 0.366152,0.1661 0.535714,0.2678 0.09202,0.055 0.171878,0.1306 0.267858,0.1786 0.511058,0.2555 0.05635,-0.055 0.446428,0.1786 0.209623,0.1258 0.242334,0.1862 0.446429,0.2678 0.181498,0.073 0.289385,0.074 0.446428,0.1786 0.557024,0.3714 0.06798,0.075 0.625,0.4464 0.08929,0.06 0.171878,0.1306 0.267857,0.1786 0.08418,0.042 0.183678,0.047 0.267858,0.089 0.03765,0.019 0.05427,0.066 0.08928,0.089 0.05537,0.037 0.123199,0.052 0.178572,0.089 0.105062,0.07 0.166842,0.1921 0.267857,0.2678 0.106479,0.08 0.25321,0.095 0.357143,0.1786 0.0986,0.079 0.178571,0.1786 0.267857,0.2679 0.02976,0.03 0.05164,0.07 0.08929,0.089 0.08418,0.042 0.187153,0.041 0.267857,0.089 0.07218,0.043 0.111228,0.1281 0.178571,0.1786 0.05324,0.04 0.125332,0.049 0.178572,0.089 0.134687,0.101 0.222455,0.2561 0.357142,0.3571 0.05324,0.04 0.125332,0.049 0.178572,0.089 0.06734,0.051 0.106388,0.1353 0.178571,0.1786 0.0807,0.048 0.192565,0.033 0.267857,0.089 0.05324,0.04 0.04223,0.1315 0.08929,0.1785 0.07588,0.076 0.182011,0.1142 0.267857,0.1786 0.06734,0.051 0.10853,0.1319 0.178572,0.1786 0.05537,0.037 0.123198,0.052 0.178571,0.089 0.03502,0.023 0.05427,0.066 0.08929,0.089 0.05537,0.037 0.125332,0.049 0.178571,0.089 0.06734,0.051 0.10853,0.1319 0.178572,0.1786 0.02476,0.016 0.06267,-0.013 0.08928,0 0.03765,0.019 0.05164,0.071 0.08929,0.089 0.08418,0.042 0.180473,0.054 0.267857,0.089 0.06179,0.025 0.115437,0.068 0.178572,0.089 0.02823,0.01 0.06267,-0.013 0.08928,0 0.09598,0.048 0.175842,0.1233 0.267858,0.1785 0.20939,0.1257 0.190899,0.076 0.446428,0.1786 0.06179,0.025 0.114009,0.073 0.178572,0.089 0.144366,0.036 0.299643,-0.024 0.446428,0 0.676581,0.1128 0.03638,0.018 0.357143,0.1786 0.02662,0.013 0.06105,-0.01 0.08929,0 0.06313,0.021 0.113314,0.076 0.178571,0.089 0.681129,0 -0.07043,-0.04 0.446429,0.089 0.08403,0.021 0.183823,-0.021 0.267857,0 0.0913,0.023 0.176552,0.066 0.267857,0.089 0.02887,0.01 0.06452,-0.017 0.08929,0 0.07004,0.047 0.10853,0.1319 0.178571,0.1786 0.02476,0.016 0.05952,0 0.08929,0 0.05952,0 0.119047,0 0.178571,0 0.178572,0 0.357143,0 0.535715,0 0.208333,0 0.416666,0 0.625,0 0.05952,0 0.122102,0.019 0.178571,0 0.06314,-0.021 0.115437,-0.068 0.178571,-0.089 0.02824,-0.01 0.06105,0.01 0.08929,0 0.06314,-0.021 0.115437,-0.068 0.178572,-0.089 0.02823,-0.01 0.06105,0.01 0.08928,0 0.06314,-0.021 0.119048,-0.06 0.178572,-0.089 0.05952,-0.03 0.123199,-0.052 0.178571,-0.089 0.04776,-0.032 0.350538,-0.3484 0.357143,-0.3572 0.03993,-0.053 0.05237,-0.1232 0.08929,-0.1786 0.02335,-0.035 0.07046,-0.052 0.08928,-0.089 0.01331,-0.027 -0.0094,-0.061 0,-0.089 0.02105,-0.063 0.06457,-0.1168 0.08929,-0.1786 0.03495,-0.087 0.0472,-0.1837 0.08929,-0.2679 0.01882,-0.038 0.07046,-0.052 0.08929,-0.089 0.01331,-0.027 0,-0.06 0,-0.089 0,-0.03 0,-0.06 0,-0.089 0,-0.1488 0,-0.2976 0,-0.4464 0,-0.1489 0,-0.2977 0,-0.4465 0,-0.03 0,-0.06 0,-0.089 0,-0.03 0.01331,-0.063 0,-0.089 -0.01882,-0.038 -0.07046,-0.052 -0.08929,-0.089 -0.01331,-0.027 0.01331,-0.063 0,-0.089 -0.01882,-0.038 -0.05952,-0.059 -0.08929,-0.089 -0.02976,-0.03 -0.05164,-0.071 -0.08929,-0.089 -0.05282,-0.026 -0.457032,0.02 -0.535714,0 -0.06456,-0.016 -0.115437,-0.068 -0.178571,-0.089 -0.02824,-0.01 -0.05952,0 -0.08929,0 -0.08929,0 -0.178571,0 -0.267857,0 -0.05952,0 -0.120204,0.012 -0.178572,0 -0.09229,-0.018 -0.175569,-0.071 -0.267857,-0.089 -0.05837,-0.012 -0.119047,0 -0.178571,0 -0.119048,0 -0.238095,0 -0.357143,0 -0.08929,0 -0.184957,0.033 -0.267857,0 -0.07816,-0.031 -0.10853,-0.1318 -0.178572,-0.1785 -0.02476,-0.017 -0.05952,0 -0.08928,0 -0.08929,0 -0.178572,0 -0.267857,0 -0.05952,0 -0.120204,0.012 -0.178572,0 -0.09229,-0.019 -0.176552,-0.067 -0.267857,-0.089 -0.02887,-0.01 -0.05952,0 -0.08929,0 -0.119047,0 -0.240407,0.023 -0.357143,0 -0.04127,-0.01 -0.04801,-0.081 -0.08928,-0.089 -0.417654,-0.083 -0.305765,0.115 -0.714286,-0.089 -0.07529,-0.038 -0.119048,-0.119 -0.178571,-0.1786 -0.02976,-0.03 -0.05021,-0.074 -0.08929,-0.089 -0.286073,-0.1144 -0.365265,-0.049 -0.625,-0.1785 -0.09598,-0.048 -0.175841,-0.1234 -0.267857,-0.1786 -0.170694,-0.1024 -0.365021,-0.1654 -0.535715,-0.2679 -0.09201,-0.055 -0.18201,-0.1141 -0.267857,-0.1785 -0.03367,-0.025 -0.05164,-0.071 -0.08928,-0.089 -0.08418,-0.042 -0.183678,-0.047 -0.267858,-0.089 -0.05413,-0.027 -0.318904,-0.3285 -0.357142,-0.3571 -0.05324,-0.04 -0.119048,-0.06 -0.178572,-0.089 -0.119047,-0.059 -0.246397,-0.1048 -0.357143,-0.1786 -0.07004,-0.047 -0.119047,-0.119 -0.178571,-0.1786 -0.119048,-0.119 -0.238095,-0.2381 -0.357143,-0.3571 -0.02976,-0.03 -0.05561,-0.064 -0.08929,-0.089 -0.08585,-0.064 -0.18201,-0.1142 -0.267857,-0.1786 -0.101015,-0.076 -0.169257,-0.189 -0.267857,-0.2678 -0.08379,-0.067 -0.184064,-0.1116 -0.267857,-0.1786 -0.06573,-0.053 -0.111228,-0.1281 -0.178572,-0.1786 -0.05324,-0.04 -0.123198,-0.052 -0.178571,-0.089 -0.07004,-0.047 -0.106388,-0.1352 -0.178571,-0.1785 -0.119048,-0.059 -0.238096,-0.1191 -0.357143,-0.1786 -0.02976,-0.03 -0.05427,-0.066 -0.08929,-0.089 -0.110745,-0.074 -0.243011,-0.1101 -0.357143,-0.1786 -0.209623,-0.1257 -0.242334,-0.1862 -0.446428,-0.2678 -0.174768,-0.07 -0.367356,-0.094 -0.535715,-0.1786 -0.09598,-0.048 -0.169225,-0.1363 -0.267857,-0.1786 -0.11279,-0.048 -0.242244,-0.046 -0.357143,-0.089 -0.124624,-0.047 -0.235515,-0.1246 -0.357143,-0.1786 -0.169823,-0.076 -0.508122,-0.209 -0.714285,-0.2679 -0.11799,-0.034 -0.237354,-0.063 -0.357143,-0.089 -0.148143,-0.033 -0.301072,-0.046 -0.446429,-0.089 -0.153513,-0.046 -0.29438,-0.1279 -0.446428,-0.1786 -0.232841,-0.078 -0.476203,-0.1191 -0.714298,-0.1786 -0.119048,-0.03 -0.242245,-0.046 -0.357143,-0.089 -0.124625,-0.047 -0.227213,-0.1497 -0.357143,-0.1785 -0.145266,-0.032 -0.297619,0 -0.446428,0 -0.178572,-0.03 -0.360085,-0.045 -0.535715,-0.089 -0.18261,-0.046 -0.353103,-0.1329 -0.535714,-0.1786 -0.05775,-0.014 -0.120203,0.012 -0.178571,0 -0.09229,-0.018 -0.176552,-0.066 -0.267857,-0.089 -0.05775,-0.014 -0.119048,0 -0.178572,0 -0.119048,0 -0.238095,0 -0.357143,0 -0.297619,0 -0.595238,0 -0.892857,0 -0.178571,0 -0.357143,0 -0.535714,0 -0.05824,0 -0.286794,-0.018 -0.357143,0 -0.0913,0.023 -0.187154,0.041 -0.267857,0.089 -0.446429,0.2679 0,0.089 -0.267857,0.2679 -0.04496,0.1967 -0.183678,0.047 -0.267857,0.089 -0.03765,0.019 -0.05164,0.071 -0.08929,0.089 -0.02662,0.013 -0.05952,0 -0.08929,0 -0.05952,0.06 -0.10853,0.1319 -0.178571,0.1786 -0.04953,0.033 -0.122103,-0.019 -0.178572,0 -0.06313,0.021 -0.115437,0.068 -0.178571,0.089 -0.05199,0.017 -0.47428,0 -0.535714,0"
       id="path3950"
       inkscape:connector-curvature="0" />
  </g>
</svg>
