<?xml version="1.0" encoding="UTF-8" standalone="no"?>
<!-- Created with Inkscape (http://www.inkscape.org/) -->

<svg
   xmlns:dc="http://purl.org/dc/elements/1.1/"
   xmlns:cc="http://creativecommons.org/ns#"
   xmlns:rdf="http://www.w3.org/1999/02/22-rdf-syntax-ns#"
   xmlns:svg="http://www.w3.org/2000/svg"
   xmlns="http://www.w3.org/2000/svg"
   xmlns:sodipodi="http://sodipodi.sourceforge.net/DTD/sodipodi-0.dtd"
   xmlns:inkscape="http://www.inkscape.org/namespaces/inkscape"
   width="64"
   height="64"
   viewBox="0 0 16.933333 16.933334"
   version="1.1"
   id="svg8"
   inkscape:version="0.92.1 r15371"
   sodipodi:docname="1_cat_7.svg"
   inkscape:export-filename="/home/physt/undev/repos/deep_learning/workshop/tasks/commonlearningdata/cartooncats/1_cat_6.png"
   inkscape:export-xdpi="96.000008"
   inkscape:export-ydpi="96.000008">
  <defs
     id="defs2" />
  <sodipodi:namedview
     id="base"
     pagecolor="#ffffff"
     bordercolor="#666666"
     borderopacity="1.0"
     inkscape:pageopacity="0.0"
     inkscape:pageshadow="2"
     inkscape:zoom="11.2"
     inkscape:cx="50.237003"
     inkscape:cy="29.986148"
     inkscape:document-units="mm"
     inkscape:current-layer="layer1"
     showgrid="false"
     inkscape:window-width="1920"
     inkscape:window-height="1016"
     inkscape:window-x="0"
     inkscape:window-y="27"
     inkscape:window-maximized="1"
     units="px" />
  <metadata
     id="metadata5">
    <rdf:RDF>
      <cc:Work
         rdf:about="">
        <dc:format>image/svg+xml</dc:format>
        <dc:type
           rdf:resource="http://purl.org/dc/dcmitype/StillImage" />
        <dc:title></dc:title>
      </cc:Work>
    </rdf:RDF>
  </metadata>
  <g
     inkscape:label="Layer 1"
     inkscape:groupmode="layer"
     id="layer1"
     transform="translate(0,-280.06665)">
    <path
       id="path985"
       d="m 11.004744,284.03024 c -0.12217,-0.0357 -0.248399,-0.053 -0.373572,-0.0741 -0.123918,-0.0219 -0.249401,-0.0305 -0.374972,-0.0349 -0.116058,-0.001 -0.23238,-0.006 -0.3482761,10e-4 -0.1167442,0.004 -0.2288529,0.0369 -0.3388169,0.0735 -0.124264,0.0405 -0.244425,0.0914 -0.3610814,0.15012 -0.021034,0.0104 -0.04231,0.0202 -0.063102,0.0311 -0.020802,0.0109 -0.041026,0.0228 -0.061651,0.0339 -0.020767,0.0113 -0.082909,0.0453 -0.062523,0.0333 0.4582356,-0.26821 0.1962073,-0.1116 0.096835,-0.0525 -0.139183,0.0845 -0.2692453,0.18295 -0.3990692,0.28095 -0.121816,0.092 -0.2336104,0.19596 -0.3436557,0.30144 -0.1021648,0.0926 -0.1916136,0.19712 -0.2807917,0.30189 -0.088737,0.10368 -0.1734886,0.21047 -0.2537549,0.3208 -0.071148,0.0988 -0.1410301,0.19832 -0.2043729,0.30234 -0.05591,0.0958 -0.1128978,0.1908 -0.162038,0.29033 -0.048611,0.0992 -0.093528,0.20021 -0.1340551,0.30301 -0.051166,0.13778 -0.086797,0.28083 -0.1249656,0.42262 -0.048348,0.17702 -0.08226,0.35756 -0.1134941,0.53825 -0.033968,0.19227 -0.05192,0.3864 -0.069218,0.58067 -0.016595,0.1685 -0.025363,0.33728 -0.020944,0.50652 0.00344,0.14507 0.014354,0.28984 0.0302,0.43405 0.010859,0.11605 0.029167,0.23074 0.057091,0.34387 0.023694,0.0919 0.065682,0.17712 0.1117399,0.25955 0.044471,0.0849 0.1056061,0.15862 0.168828,0.22996 0.076877,0.0906 0.1745083,0.15833 0.2738683,0.22176 0.1281893,0.0788 0.2749704,0.11765 0.4199131,0.15277 0.1484196,0.0367 0.300342,0.0578 0.452288,0.0734 0.1524886,0.0136 0.3056639,0.0152 0.4586428,0.0166 0.1609005,9e-4 0.3220114,-0.008 0.4816549,-0.0279 0.1685782,-0.0235 0.3351884,-0.0571 0.5010078,-0.0952 0.1759478,-0.0416 0.3516768,-0.0846 0.5243258,-0.13842 0.165159,-0.0513 0.326247,-0.11444 0.486786,-0.17854 0.160525,-0.0593 0.32056,-0.11938 0.47833,-0.18574 0.02579,-0.0119 0.05158,-0.0238 0.07738,-0.0357 0.07295,-0.0336 0.07934,-0.0352 0.149416,-0.0727 0.02364,-0.0127 0.09344,-0.0526 0.07025,-0.0392 -0.07377,0.0428 -0.295751,0.17024 -0.222027,0.12731 0.11986,-0.0698 0.24029,-0.13861 0.360436,-0.20791 -0.0741,0.0427 -0.147744,0.0863 -0.222294,0.1282 -0.02265,0.0127 0.04462,-0.0267 0.06656,-0.0406 0.08292,-0.0526 0.163906,-0.10868 0.24482,-0.16434 0.119089,-0.084 0.233887,-0.17383 0.338257,-0.27561 0.113756,-0.11408 0.217745,-0.23713 0.316351,-0.36437 0.101611,-0.13389 0.186737,-0.27918 0.26264,-0.42886 0.07405,-0.15126 0.126804,-0.31175 0.171041,-0.47389 0.04107,-0.16122 0.06073,-0.326 0.07188,-0.49161 0.0094,-0.19262 0.0099,-0.38555 0.01037,-0.57836 -0.0026,-0.19998 -0.01703,-0.39967 -0.04343,-0.59787 -0.02253,-0.16306 -0.0668,-0.32133 -0.118306,-0.47724 -0.04216,-0.12979 -0.100083,-0.25319 -0.163828,-0.37356 -0.07108,-0.1298 -0.153073,-0.25249 -0.243895,-0.36914 -0.09403,-0.11705 -0.199026,-0.22507 -0.306168,-0.33011 -0.105064,-0.10435 -0.222167,-0.19567 -0.343456,-0.28025 -0.113327,-0.0793 -0.234381,-0.14678 -0.362427,-0.19901 -0.122235,-0.0477 -0.248388,-0.0835 -0.375892,-0.11391 -0.107537,-0.0203 -0.215813,-0.0375 -0.324712,-0.0487 0,0 0.282583,-0.20038 0.282583,-0.20038 v 0 c 0.108838,0.014 0.217597,0.0305 0.324805,0.054 0.128262,0.0327 0.255902,0.0687 0.378758,0.11851 0.128507,0.0561 0.250756,0.12483 0.365322,0.20588 0.121894,0.0867 0.239935,0.1793 0.345715,0.28539 0.108094,0.10635 0.214311,0.21534 0.309396,0.33361 0.09114,0.11878 0.173824,0.24317 0.246693,0.37412 0.06562,0.12166 0.125041,0.24664 0.166626,0.37881 0.05153,0.15835 0.0948,0.31938 0.117849,0.48463 0.02632,0.19987 0.0412,0.40101 0.04395,0.60264 1.13e-4,0.19292 0.0022,0.38594 -0.0065,0.57872 -0.0097,0.16759 -0.02797,0.3343 -0.06866,0.49759 -0.04329,0.16399 -0.0952,0.32656 -0.168021,0.48007 -0.07497,0.15141 -0.159078,0.29857 -0.259776,0.43455 -0.09682,0.12902 -0.201312,0.25208 -0.313472,0.36809 -0.10221,0.10496 -0.216692,0.19574 -0.335582,0.28121 -0.216788,0.15028 -0.436686,0.29528 -0.672032,0.41614 0.07408,-0.0429 0.296393,-0.17141 0.222242,-0.12865 -0.216467,0.12482 -0.427972,0.25788 -0.659705,0.3529 -0.158082,0.0655 -0.318644,0.12422 -0.478529,0.18512 -0.160867,0.0634 -0.32223,0.12599 -0.487909,0.17593 -0.173624,0.052 -0.3496844,0.0954 -0.5261326,0.13669 -0.1667378,0.0377 -0.3344664,0.0703 -0.50399,0.093 -0.1609288,0.0182 -0.3230652,0.0261 -0.4850286,0.0249 -0.1535271,-10e-4 -0.3072235,-0.005 -0.460136,-0.0196 -0.1530239,-0.0167 -0.3059031,-0.0385 -0.4551088,-0.0772 -0.1478486,-0.0379 -0.2974448,-0.0787 -0.4277799,-0.16094 -0.1018042,-0.0657 -0.2019334,-0.13537 -0.2812177,-0.22829 -0.065034,-0.0731 -0.1271868,-0.14933 -0.1733587,-0.23611 -0.047097,-0.0854 -0.090741,-0.17323 -0.1152297,-0.26816 -0.027849,-0.11489 -0.047213,-0.23116 -0.05682,-0.34906 -0.016301,-0.14528 -0.026207,-0.29133 -0.029824,-0.43749 -0.00452,-0.17092 0.00334,-0.34128 0.021767,-0.51135 0.017756,-0.19504 0.034603,-0.39009 0.068386,-0.58324 0.03052,-0.18101 0.062553,-0.36206 0.1094438,-0.53968 0.03706,-0.14234 0.072615,-0.28557 0.1208207,-0.4246 0.038029,-0.104 0.082428,-0.20545 0.13087,-0.30503 0.048781,-0.10072 0.1052722,-0.19673 0.1615385,-0.29341 0.062912,-0.10555 0.1327996,-0.20621 0.2047962,-0.30574 0.080382,-0.11089 0.1637652,-0.21921 0.2528718,-0.32334 0.089829,-0.10519 0.1771423,-0.21268 0.2804099,-0.30539 0.1103006,-0.10642 0.221656,-0.2122 0.3434019,-0.30564 0.1293953,-0.0987 0.2594687,-0.19715 0.3970494,-0.28423 0.2221987,-0.13296 0.4436581,-0.2682 0.676275,-0.3823 0.1183531,-0.0571 0.2398755,-0.10709 0.3652107,-0.14698 0.1123386,-0.035 0.2263361,-0.065 0.3448761,-0.0668 0.116506,-0.004 0.23319,-10e-4 0.349703,0.002 0.12604,0.006 0.251684,0.0168 0.375917,0.0396 0.127392,0.0215 0.254877,0.0423 0.380888,0.0712 0,0 -0.28749,0.19942 -0.28749,0.19942 z"
       inkscape:connector-curvature="0"
       style="stroke-width:0.26458332" />
    <path
       id="path991"
       d="m 9.5546364,284.0647 c 0.02001,-0.0973 0.037415,-0.19492 0.057437,-0.2922 0.024503,-0.12602 0.063119,-0.24841 0.1051444,-0.36949 0.03963,-0.11988 0.090481,-0.23471 0.1482555,-0.34676 0.054593,-0.098 0.1146239,-0.19272 0.1789237,-0.2846 0.06617,-0.094 0.143394,-0.17984 0.220527,-0.26489 0.09486,-0.10765 0.198671,-0.2067 0.298169,-0.30994 0.08793,-0.0912 0.173073,-0.18497 0.261957,-0.27528 0.06321,-0.0634 0.121132,-0.13188 0.185037,-0.19455 0.03656,-0.0364 0.0763,-0.0692 0.11548,-0.10266 0.102148,-0.0675 0.256131,-0.22444 0.405195,-0.19627 0.06189,0.0103 0.115977,0.0447 0.169305,0.0758 0.07306,0.0437 0.139364,0.0971 0.20716,0.14832 0.07373,0.053 0.143642,0.11106 0.209921,0.17314 0.06896,0.0676 0.135122,0.13832 0.196125,0.21319 0.06291,0.0775 0.11266,0.16295 0.159587,0.25057 0.03821,0.0917 0.09001,0.17627 0.139813,0.26196 0.05748,0.0972 0.101563,0.20141 0.147588,0.30431 0.05084,0.10388 0.0933,0.2111 0.132191,0.31992 0.03131,0.10111 0.06671,0.20083 0.09787,0.30199 0.02951,0.0929 0.05412,0.18719 0.07578,0.28217 0.0201,0.0853 0.02802,0.17263 0.03312,0.25988 0.0019,0.0303 0.0027,0.0607 0.0036,0.0911 0,0 -0.313269,0.15977 -0.313269,0.15977 v 0 c 7.14e-4,-0.0305 7.67e-4,-0.0609 7.3e-5,-0.0914 -0.0029,-0.0858 -0.0091,-0.1717 -0.0278,-0.25573 -0.02134,-0.0942 -0.04667,-0.18748 -0.07519,-0.27973 -0.02992,-0.10105 -0.06499,-0.20041 -0.09548,-0.30128 -0.03901,-0.10788 -0.0802,-0.21463 -0.130824,-0.31772 -0.04541,-0.10181 -0.08975,-0.20447 -0.147004,-0.30038 -0.05017,-0.0859 -0.102348,-0.17068 -0.140509,-0.26287 -0.04634,-0.0853 -0.09426,-0.1694 -0.156115,-0.2449 -0.06054,-0.0733 -0.126051,-0.14258 -0.194379,-0.2087 -0.06619,-0.0606 -0.135123,-0.11784 -0.207991,-0.17023 -0.06685,-0.0504 -0.133293,-0.10168 -0.205843,-0.14381 -0.05103,-0.0282 -0.103144,-0.0586 -0.162946,-0.061 -0.01786,0.002 -0.03487,0.004 -0.05144,0.0112 -0.0048,0.002 -0.01843,0.0104 -0.01386,0.008 0.296422,-0.17363 0.37759,-0.22778 0.271037,-0.15721 -0.04245,0.0298 -0.08021,0.0658 -0.118968,0.10032 -0.06682,0.0613 -0.126068,0.12991 -0.18902,0.19508 -0.09016,0.0899 -0.176299,0.18339 -0.26411,0.27556 -0.09906,0.10328 -0.203516,0.20124 -0.297821,0.30901 -0.07756,0.0829 -0.151878,0.16945 -0.220367,0.25986 -0.06428,0.0913 -0.126136,0.18399 -0.181769,0.28094 -0.05862,0.1107 -0.112076,0.22325 -0.151172,0.34259 -0.041988,0.1196 -0.082362,0.24004 -0.1061549,0.36485 -0.019299,0.0956 -0.036884,0.1912 -0.052376,0.28744 0,0 -0.3149055,0.15486 -0.3149055,0.15486 z"
       inkscape:connector-curvature="0"
       style="stroke-width:0.26458332" />
    <path
       id="path993"
       d="m 7.0438231,286.81346 c -0.036588,-0.0841 -0.07215,-0.16876 -0.1088189,-0.25288 -0.044252,-0.088 -0.088812,-0.17531 -0.1231167,-0.26773 -0.030156,-0.096 -0.052117,-0.19434 -0.069576,-0.29337 -0.015727,-0.0995 -0.039652,-0.19707 -0.066586,-0.29401 -0.028577,-0.0956 -0.059895,-0.18991 -0.078777,-0.28796 -0.016645,-0.10002 -0.018457,-0.20139 -0.012393,-0.30234 0.00651,-0.0818 0.011946,-0.16358 0.014491,-0.24556 0.00282,-0.0533 -0.00103,-0.10686 0.0029,-0.16007 0.00604,-0.0363 0.014121,-0.0721 0.017952,-0.10876 0.00188,-0.0259 0.013189,-0.0493 0.020262,-0.0739 0.00513,-0.021 0.018076,-0.0377 0.023487,-0.0586 0.066174,-0.13381 0.2221148,-0.19029 0.3573904,-0.18748 0.025675,1.6e-4 0.051347,5.5e-4 0.077021,8.2e-4 0.033538,1.4e-4 0.067075,1.7e-4 0.1006129,1.9e-4 0.03823,-0.005 0.072899,0.006 0.1096774,0.0138 0.042609,0.008 0.086002,0.009 0.1291791,0.01 0.047521,0.002 0.095429,-0.003 0.1423504,0.005 0.052406,0.0125 0.1067546,0.0109 0.1592759,0.0217 0.055959,0.0109 0.112254,0.0221 0.1665116,0.0399 0.051787,0.0161 0.101886,0.0381 0.1500743,0.063 0.039617,0.0169 0.075421,0.0406 0.112848,0.0615 0.031643,0.0259 0.069728,0.0405 0.102372,0.0651 0.03902,0.0268 0.019,0.0134 0.060093,0.04 0,0 -0.2927022,0.18808 -0.2927022,0.18808 v 0 c -0.041985,-0.0269 -0.021079,-0.0137 -0.062713,-0.0397 -0.033669,-0.0211 -0.06959,-0.0384 -0.1013748,-0.0624 -0.036062,-0.0217 -0.072906,-0.0415 -0.1106519,-0.0601 -0.047542,-0.0225 -0.095819,-0.044 -0.1466109,-0.0582 -0.054111,-0.0147 -0.1087351,-0.0274 -0.1641589,-0.0361 -0.052909,-0.007 -0.1061204,-0.011 -0.1587455,-0.02 -0.046853,-0.002 -0.093808,-4.8e-4 -0.1406872,-0.003 -0.044685,-0.002 -0.089481,-0.005 -0.1332669,-0.0145 -0.035124,-0.007 -0.069844,-0.01 -0.1058055,-0.008 -0.033595,-3e-5 -0.067191,-5e-5 -0.1007851,-2.2e-4 -0.025548,4e-5 -0.05113,-3.4e-4 -0.076647,0.001 -0.010149,10e-4 -0.019799,0.002 -0.029098,0.007 -0.00235,10e-4 -0.00899,0.006 -0.00672,0.004 0.2969191,-0.17411 0.4027244,-0.20505 0.2870277,-0.17056 -0.0185,0.004 -0.01162,0.0359 -0.029396,0.0457 -0.0062,0.0239 -0.014211,0.0465 -0.023977,0.0692 -0.00358,0.0372 -0.00875,0.074 -0.018095,0.11029 -0.011147,0.0515 -0.00103,0.10573 -0.00669,0.15795 -0.00323,0.0827 -0.00821,0.16531 -0.016309,0.2477 -0.00716,0.0983 -0.00696,0.19677 0.00884,0.29444 0.017404,0.0974 0.047722,0.19109 0.076938,0.28544 0.0276,0.098 0.051979,0.19667 0.067957,0.29729 0.016346,0.0972 0.039085,0.19311 0.067127,0.28758 0.03334,0.0921 0.078223,0.17849 0.1215978,0.26614 0.037019,0.0839 0.071381,0.16903 0.1134443,0.25061 0,0 -0.3057411,0.17171 -0.3057411,0.17171 z"
       inkscape:connector-curvature="0"
       style="stroke-width:0.26458332" />
    <path
       id="path995"
       d="m 9.1946557,286.45374 c -0.065837,0.008 -0.1318998,0.0131 -0.1981076,0.0163 -0.052648,0.008 -0.1044032,0.0186 -0.1533173,0.0402 0.075226,-0.044 -0.1437772,0.0815 -0.06939,0.0391 0.4584616,-0.26129 0.3397311,-0.20518 0.2386587,-0.13016 -0.042382,0.0301 -0.067303,0.0719 -0.086749,0.1189 -0.0259,0.081 -0.027328,0.16705 -0.029956,0.25132 0.00225,0.0851 0.00897,0.1703 0.024358,0.25411 0.011742,0.0554 0.035542,0.10662 0.058945,0.15778 0.021069,0.0464 0.045779,0.0904 0.076017,0.13137 0.025366,0.0335 0.059422,0.059 0.096168,0.0788 0.036814,0.0251 0.082488,0.0297 0.1257623,0.0337 0.056495,0.003 0.1131408,0.003 0.1697185,0.003 0.052803,0.001 0.098443,0.002 0.1498386,-0.0101 0.013584,-0.005 0.028517,-0.003 0.0423,-0.007 0.016163,-0.004 0.031287,-0.0147 0.047121,-0.0205 -0.096666,0.0548 -0.193331,0.10952 -0.2899968,0.16428 0.028374,-0.0144 0.051733,-0.0348 0.072888,-0.0583 0.029453,-0.0303 0.050896,-0.066 0.068781,-0.10397 0.023659,-0.0487 0.029817,-0.1029 0.041832,-0.15509 0.013875,-0.0548 0.017674,-0.1112 0.020047,-0.16744 0.00544,-0.0599 -0.00388,-0.11894 -0.011761,-0.1781 -0.0074,-0.0512 -0.027335,-0.0985 -0.047448,-0.14566 -0.020466,-0.0469 -0.049052,-0.0882 -0.083101,-0.12601 -0.050709,-0.0486 -0.1034741,-0.0604 -0.1717853,-0.0628 -0.017648,7e-5 -0.035293,1.4e-4 -0.05294,2.1e-4 0,0 0.2794101,-0.2026 0.2794101,-0.2026 v 0 c 0.018182,4e-4 0.036364,8.2e-4 0.054546,10e-4 0.080746,0.008 0.1317477,0.0245 0.1900769,0.0828 0.036319,0.0409 0.066123,0.086 0.088929,0.13589 0.02119,0.0501 0.042856,0.10013 0.051708,0.15428 0.00742,0.0609 0.018947,0.1217 0.013986,0.18336 -0.00175,0.058 -0.00368,0.1164 -0.016431,0.17321 -0.012851,0.0539 -0.020315,0.10903 -0.038238,0.16165 -0.01864,0.0389 -0.033636,0.0802 -0.063927,0.11211 -0.020709,0.0251 -0.040182,0.052 -0.068289,0.0686 -0.174434,0.0992 -0.2454709,0.17594 -0.4075422,0.20151 -0.050496,0.007 -0.1016701,0.003 -0.152549,0.004 -0.05767,-1.8e-4 -0.1154993,1e-5 -0.172921,-0.006 -0.047376,-0.007 -0.094398,-0.0176 -0.1346833,-0.045 -0.039074,-0.0247 -0.075192,-0.0541 -0.1029033,-0.0915 -0.031169,-0.0432 -0.056926,-0.0894 -0.079253,-0.13776 -0.024262,-0.054 -0.049357,-0.10778 -0.061814,-0.16609 -0.015134,-0.0865 -0.021413,-0.17388 -0.025392,-0.26154 0.0019,-0.0868 0.00217,-0.17473 0.022257,-0.25972 0.015698,-0.052 0.037217,-0.0994 0.077804,-0.13692 0.1307716,-0.104 0.2796603,-0.18521 0.4314306,-0.25441 0.051734,-0.0163 0.1048483,-0.0276 0.1591231,-0.0311 0.066158,-0.004 0.1322916,-0.009 0.1977345,-0.0199 0,0 -0.2809489,0.21028 -0.2809489,0.21028 z"
       inkscape:connector-curvature="0"
       style="stroke-width:0.26458332" />
    <path
       id="path1003"
       d="m 7.4720272,286.9793 c -0.05943,0.0913 -0.110794,0.18689 -0.1529019,0.2873 -0.041968,0.0939 -0.061624,0.19356 -0.072063,0.29514 -0.00765,0.10842 -0.011028,0.21727 0.00135,0.32537 0.01143,0.11042 0.044039,0.21506 0.089868,0.31555 0.040106,0.0965 0.094425,0.18629 0.149534,0.27484 0.046643,0.0709 0.090646,0.14281 0.126837,0.21962 0.033919,0.0695 0.044106,0.14522 0.049494,0.22134 -1.709e-4,0.0862 0.00857,0.17141 0.022852,0.25631 0.011213,0.0753 0.030173,0.14915 0.053918,0.22143 0.023532,0.0691 0.048921,0.13778 0.078633,0.20449 0.030113,0.0592 0.06191,0.11744 0.093224,0.17598 0.022704,0.0414 0.048978,0.0812 0.079305,0.11744 0.038704,0.0412 0.08466,0.0753 0.1324867,0.10524 0.058271,0.0372 0.1221875,0.0656 0.186758,0.09 0.076377,0.0324 0.15743,0.0494 0.2380477,0.0673 0.097461,0.0209 0.1970106,0.0271 0.2963408,0.0308 0.082463,0.007 0.163989,-0.006 0.2458489,-0.0139 0.078532,-0.007 0.1563415,-0.0211 0.2341211,-0.034 0.086869,-0.0132 0.1730751,-0.0307 0.2595809,-0.0463 0.098498,-0.0146 0.19666,-0.0319 0.2936882,-0.0544 0.086244,-0.0248 0.1712784,-0.0534 0.2568394,-0.0804 0.0777,-0.0266 0.156939,-0.0482 0.234352,-0.0757 0.07967,-0.0235 0.156485,-0.0562 0.231782,-0.091 0.13159,-0.0516 0.413854,-0.22399 -0.117191,0.0805 0.185944,-0.12342 0.791717,-0.46208 0.171233,-0.10691 0.05745,-0.035 0.113299,-0.0725 0.170458,-0.10791 0.04856,-0.0334 0.09964,-0.0628 0.148686,-0.0954 0.115624,-0.0762 0.237522,-0.13998 0.358499,-0.20901 0.09442,-0.0539 -0.377877,0.21518 -0.282668,0.1627 0.39804,-0.21942 0.203522,-0.1299 0.335115,-0.19005 0.309977,-0.17142 -0.929581,0.5345 0.08781,-0.0483 0.02829,-0.006 0.05041,-0.0231 0.07867,-0.0295 0.01969,-0.009 0.04632,0.002 0.06219,-0.0125 0.01444,-0.013 0.03465,-0.015 0.05319,-0.0167 0.01852,-2.4e-4 0.03703,-1.5e-4 0.05555,-1.6e-4 4.48e-4,-0.003 -1.93e-4,-0.006 0.0014,-0.009 4.5e-4,-7.4e-4 0.01294,-0.008 0.01357,-0.009 0.002,-0.001 0.0081,-0.005 0.0061,-0.004 -0.295299,0.17338 -0.351255,0.2678 -0.285931,0.16165 0.07863,-0.0985 0.224579,-0.13332 0.325811,-0.18863 0.0028,-0.002 0.01246,-0.003 0.0096,-0.001 -0.387796,0.22183 -0.385852,0.22081 -0.28464,0.15819 0.106591,-0.0673 0.185924,-0.0813 0.340709,-0.14592 0.001,0.01 0.0035,0.0193 0.0058,0.0291 0,0 -0.328426,0.13139 -0.328426,0.13139 v 0 c 0.01368,0.0181 0.0095,0.0153 0.01017,0.003 0.546404,-0.26602 0.40875,-0.20894 0.300551,-0.14444 -0.111625,0.0666 -0.04636,0.0278 -0.324844,0.1827 -0.0024,0.001 -0.01026,0.004 -0.0079,0.003 0.0971,-0.0569 0.194838,-0.11263 0.292092,-0.16923 0.0044,-0.003 -0.02065,0.01 -0.01363,0.007 -0.104754,0.0652 -0.209269,0.13087 -0.314029,0.19611 -0.0048,0.003 -0.01575,0.0103 -0.02139,0.0103 -0.0037,0 -0.007,-0.002 -0.01057,-0.003 -0.01728,2.2e-4 -0.03485,6.9e-4 -0.05162,0.005 -0.01732,0.005 -0.03248,0.0164 -0.05025,0.02 -0.02142,-4e-4 -0.04157,0.005 -0.06142,0.0127 -0.02501,0.0119 -0.05067,0.0209 -0.07546,0.033 0.607948,-0.35266 0.118101,-0.0645 -0.08769,0.0479 -0.0052,0.003 -0.02071,0.0111 -0.01563,0.008 0.094,-0.0547 0.376907,-0.21729 0.2824,-0.16346 -1.035852,0.59004 0.222975,-0.1245 -0.07685,0.0456 -0.05065,0.0309 -0.100544,0.0633 -0.150033,0.0961 -0.05676,0.0364 -0.113536,0.0724 -0.170909,0.10774 -0.79963,0.46803 -0.123556,0.0721 -0.05896,0.0351 0.0095,-0.005 -0.01798,0.0126 -0.02717,0.0186 -0.0627,0.0409 0.0069,-0.006 -0.05679,0.034 -0.0095,0.006 -0.0185,0.0125 -0.02775,0.0187 -0.159305,0.0934 -0.309713,0.19357 -0.480163,0.26237 -0.07616,0.0334 -0.15362,0.064 -0.233255,0.0882 -0.07811,0.0261 -0.1572045,0.0492 -0.2352944,0.0754 -0.085227,0.0273 -0.1704303,0.055 -0.2572811,0.0768 -0.09792,0.0207 -0.1964788,0.038 -0.2952694,0.054 -0.086505,0.0163 -0.1730836,0.0324 -0.2600587,0.046 -0.078409,0.0134 -0.1571281,0.0262 -0.2364626,0.0326 -0.082211,0.008 -0.1644365,0.0163 -0.2471283,0.009 -0.1006326,-0.005 -0.2012354,-0.0136 -0.2998192,-0.0355 -0.08271,-0.0175 -0.1648648,-0.038 -0.2431507,-0.0706 -0.065767,-0.027 -0.131009,-0.0564 -0.1906501,-0.0954 -0.05041,-0.0326 -0.099348,-0.0694 -0.1399479,-0.11384 -0.030774,-0.0389 -0.059216,-0.0797 -0.081976,-0.12391 -0.030823,-0.0596 -0.062348,-0.11892 -0.092766,-0.17878 -0.030376,-0.0676 -0.057095,-0.13709 -0.080773,-0.20733 -0.024649,-0.0739 -0.044043,-0.14957 -0.055197,-0.22672 -0.014711,-0.0858 -0.026138,-0.17177 -0.025117,-0.25907 -0.00459,-0.0719 -0.012242,-0.14385 -0.043499,-0.20984 -0.035618,-0.0756 -0.07752,-0.14728 -0.1234093,-0.21713 -0.055025,-0.0903 -0.1101151,-0.18122 -0.1503368,-0.27926 -0.047513,-0.10341 -0.083242,-0.2108 -0.095215,-0.32468 -0.014467,-0.11017 -0.011324,-0.22076 -0.00537,-0.33158 0.00825,-0.10462 0.026151,-0.20787 0.06848,-0.30474 0.039766,-0.10078 0.089602,-0.19647 0.1457378,-0.28912 0,0 0.3200834,-0.14268 0.3200834,-0.14268 z"
       inkscape:connector-curvature="0"
       style="stroke-width:0.26458332" />
    <path
       id="path1005"
       d="m 7.41311,289.39858 c 0.128025,-0.0803 0.086451,-0.0547 0.3560326,-0.20445 0.035318,-0.0196 0.080511,-0.0318 0.1204606,-0.0341 0.056277,-0.002 0.085007,0.008 0.1336754,0.0327 0.048145,0.0267 0.084028,0.0686 0.1172297,0.11154 0.038812,0.0511 0.073836,0.10503 0.1087732,0.15884 0.027681,0.044 0.045609,0.0931 0.067542,0.14001 0.015031,0.0384 0.034287,0.0749 0.046438,0.11435 0.0156,0.0376 0.021513,0.0782 0.03382,0.11668 0.01133,0.0293 0.017404,0.06 0.029039,0.0892 0.00762,0.0186 0.010544,0.0385 0.014118,0.0581 0,0 -0.3099832,0.16453 -0.3099832,0.16453 v 0 c -0.00265,-0.0172 -0.00466,-0.0347 -0.011213,-0.051 -0.012237,-0.0299 -0.018904,-0.0608 -0.029716,-0.0912 -0.013488,-0.0386 -0.01647,-0.0806 -0.034111,-0.1181 -0.010552,-0.0382 -0.029835,-0.0728 -0.043514,-0.10985 -0.021315,-0.0455 -0.037189,-0.0937 -0.06393,-0.13659 -0.034135,-0.0529 -0.068034,-0.10631 -0.1069099,-0.15593 -0.031533,-0.0383 -0.064434,-0.0762 -0.1103985,-0.0975 -0.038528,-0.018 -0.078696,-0.0222 -0.1210016,-0.0159 -0.027873,0.007 -0.054482,0.0157 -0.080838,0.0274 -0.010568,0.005 -0.04117,0.0209 -0.031241,0.015 0.1662906,-0.0989 0.3688932,-0.21244 0.2424621,-0.14148 0,0 -0.3267366,0.12784 -0.3267366,0.12784 z"
       inkscape:connector-curvature="0"
       style="stroke-width:0.26458332" />
    <path
       id="path1007"
       d="m 9.3512925,288.416 c 0.074226,0.005 0.124901,0.0306 0.183611,0.0743 0.055632,0.0415 0.1112748,0.0822 0.161998,0.12962 0.031932,0.0336 0.0694,0.0612 0.1021863,0.0938 0.026722,0.0275 0.051855,0.0559 0.07329,0.0876 0.023035,0.0325 0.038963,0.0689 0.050025,0.10697 0.014322,0.0418 0.02686,0.0837 0.032339,0.12766 0.00748,0.0458 0.00379,0.0908 -0.00395,0.13624 -0.00468,0.0441 -0.015579,0.0868 -0.026003,0.12976 -0.00613,0.0306 -0.00884,0.0613 -0.019518,0.0908 -0.010157,0.0327 -0.029106,0.061 -0.050187,0.0876 -0.016029,0.0221 -0.036229,0.0395 -0.056536,0.0572 -0.018198,0.0155 -0.035083,0.032 -0.051006,0.0501 -0.012623,0.0112 -0.018952,0.0263 -0.03024,0.0391 -0.012811,0.002 -0.012539,0.0259 -0.028824,0.0248 -0.013359,0.0145 -0.00793,-0.007 -0.00612,-0.0151 0.00492,-0.009 0.01012,-0.0119 0.018894,-0.0168 -0.097361,0.0565 -0.1946635,0.11309 -0.2920828,0.16949 -0.00521,0.003 0.00954,-0.007 0.01342,-0.0121 0.1150308,-0.0771 0.702801,-0.39406 0.026154,-0.0118 -0.018807,0.0106 0.013057,-0.0152 0.017119,-0.0199 0.012327,-0.0145 0.013287,-0.034 0.022953,-0.0504 0.010022,-0.0232 0.016155,-0.0476 0.0245,-0.0715 0.0065,-0.0336 0.017071,-0.0658 0.027367,-0.0983 0.00466,-0.03 0.015203,-0.0581 0.023794,-0.087 0.00564,-0.0313 0.015465,-0.0614 0.023805,-0.092 0.00864,-0.0307 0.010221,-0.0627 0.011083,-0.0944 0.00101,-0.029 5.027e-4,-0.058 5.027e-4,-0.087 0.00185,-0.0254 -0.0013,-0.0488 -0.00846,-0.073 -0.00611,-0.0343 -0.024252,-0.0618 -0.045491,-0.0886 -0.034981,-0.0414 -0.073841,-0.0792 -0.1120034,-0.11761 -0.035731,-0.0344 -0.072179,-0.069 -0.1140958,-0.0959 -0.035544,-0.0297 -0.075081,-0.053 -0.1175028,-0.0713 -0.065325,-0.0196 -0.132095,-0.0326 -0.1997464,-0.0409 -0.067513,-0.001 -0.1341614,0.006 -0.1978866,0.0285 -0.048633,0.0123 -0.092574,0.0371 -0.1410454,0.0494 -0.022622,0.0149 -0.047257,0.0249 -0.072659,0.034 -0.00177,5.8e-4 -0.00356,10e-4 -0.00534,0.002 0,0 0.2783745,-0.21777 0.2783745,-0.21777 v 0 c 0.00156,-6.6e-4 0.00314,-10e-4 0.00471,-0.002 0.024183,-0.0102 0.046818,-0.024 0.072433,-0.0306 0.046388,-0.0168 0.092083,-0.0356 0.1399519,-0.0482 0.067283,-0.0162 0.1363668,-0.0231 0.2054905,-0.0158 0.070121,0.0103 0.1406224,0.023 0.207118,0.0482 0.043329,0.0207 0.084017,0.0454 0.1213045,0.0759 0.042101,0.0302 0.080246,0.0655 0.1170962,0.10183 0.039143,0.0392 0.078034,0.0788 0.1145794,0.12049 0.024008,0.0298 0.046062,0.0613 0.053564,0.0996 0.0081,0.0273 0.016872,0.0529 0.013184,0.0819 1.502e-4,0.0294 -2.84e-5,0.0587 -1.31e-4,0.0881 -0.00106,0.0339 -0.00164,0.0681 -0.00769,0.10162 -0.00791,0.0313 -0.020436,0.0604 -0.023392,0.0925 -0.00787,0.0295 -0.020492,0.0563 -0.024403,0.0865 -0.00724,0.0339 -0.024416,0.0642 -0.026946,0.0992 -0.00617,0.0258 -0.017344,0.049 -0.02173,0.0752 -0.00623,0.0196 -0.021259,0.0333 -0.020013,0.0559 -0.00309,0.006 -0.00461,0.0129 -0.00911,0.0179 -0.017817,0.0197 -0.7850944,0.46792 -0.029041,0.0264 -0.027656,0.008 0.011033,-0.005 -0.014459,0.0103 -0.043508,0.0263 -0.2164379,0.17286 -0.3366323,0.18997 -0.021307,-0.0108 -0.041578,-0.0282 -0.034689,-0.0543 0.00188,-0.024 0.02364,-0.012 0.024842,-0.034 0.015232,-0.0104 0.025374,-0.0187 0.032741,-0.0353 0.015687,-0.018 0.029723,-0.041 0.050221,-0.0525 0.018256,-0.0203 0.040895,-0.033 0.058347,-0.0546 0.021034,-0.0231 0.041943,-0.0465 0.055323,-0.0752 0.00905,-0.0293 0.021291,-0.0562 0.022069,-0.0879 0.00858,-0.0431 0.024855,-0.0842 0.027154,-0.12852 0.00741,-0.0426 0.016013,-0.0838 0.00849,-0.12728 -0.00453,-0.0422 -0.014967,-0.083 -0.030067,-0.12276 -0.00909,-0.0348 -0.024175,-0.067 -0.044737,-0.0966 -0.020608,-0.0295 -0.044061,-0.0564 -0.069551,-0.0818 -0.033177,-0.0316 -0.068557,-0.0608 -0.1001594,-0.0941 -0.049874,-0.046 -0.1038913,-0.0867 -0.1589714,-0.12632 -0.053125,-0.0366 -0.1078222,-0.0575 -0.1735468,-0.0548 0,0 0.283932,-0.20629 0.283932,-0.20629 z"
       inkscape:connector-curvature="0"
       style="stroke-width:0.26458332" />
    <path
       id="path1009"
       d="m 9.1986422,286.67033 c -0.022966,0.0513 -0.045502,0.1042 -0.053967,0.16014 -0.00391,0.0336 0.015526,0.057 0.034374,0.0822 0.033375,0.0386 0.080889,0.0636 0.123788,0.0907 0.052447,0.0244 0.1067056,0.0452 0.1633444,0.0574 0.058094,0.008 0.1155013,0.019 0.1738882,0.0255 0,0 -0.2846192,0.20156 -0.2846192,0.20156 v 0 c -0.059255,-0.008 -0.1185653,-0.0163 -0.1770959,-0.0284 -0.058471,-0.0162 -0.1157499,-0.0381 -0.1691696,-0.067 -0.046648,-0.0292 -0.096627,-0.0577 -0.1320895,-0.10051 -0.023945,-0.0314 -0.047033,-0.0639 -0.046304,-0.10528 0.00295,-0.0593 0.02825,-0.11517 0.049221,-0.16996 0,0 0.318629,-0.14642 0.318629,-0.14642 z"
       inkscape:connector-curvature="0"
       style="stroke-width:0.26458332" />
    <path
       id="path1011"
       d="m 8.193211,289.53567 c 0.093075,-0.14601 0.210671,-0.27395 0.3272538,-0.40117 0.175596,-0.1949 0.3699341,-0.37109 0.5672844,-0.54342 0.2313059,-0.20605 0.4720677,-0.40074 0.7185451,-0.58824 0.2470307,-0.18736 0.4955267,-0.3728 0.7471347,-0.55397 0.160019,-0.11815 0.327967,-0.22468 0.49648,-0.3301 0,0 0.314837,-0.12199 0.314837,-0.12199 v 0 c -0.171391,0.10527 -0.342179,0.21182 -0.504493,0.33085 -0.253303,0.1804 -0.502578,0.36641 -0.750365,0.5543 -0.2460619,0.18574 -0.4861086,0.37911 -0.7159056,0.58476 -0.1963872,0.17074 -0.3905718,0.34468 -0.5648867,0.53838 -0.1127299,0.12308 -0.2287415,0.24625 -0.3158495,0.38946 0,0 -0.3200352,0.14114 -0.3200352,0.14114 z"
       inkscape:connector-curvature="0"
       style="stroke-width:0.26458332" />
    <path
       id="path1013"
       d="m 9.4342309,289.01021 c 0.1814364,-0.14846 0.3720086,-0.28429 0.5677711,-0.41304 0.374489,-0.23606 0.76428,-0.44643 1.151095,-0.66127 0.04724,-0.0266 0.09448,-0.0532 0.141727,-0.0799 0,0 -0.254138,0.20528 -0.254138,0.20528 v 0 c -0.04652,0.026 -0.09304,0.052 -0.13956,0.0779 -0.101396,0.0563 -0.203388,0.11156 -0.304756,0.16792 -0.05025,0.0279 -0.09706,0.0628 -0.150148,0.0849 -0.0479,0.0199 0.177296,-0.1077 0.134478,-0.0784 -0.08756,0.0599 -0.187595,0.10016 -0.272775,0.16405 -0.190533,0.12454 -0.3775758,0.25443 -0.5505958,0.40281 0,0 -0.3230983,0.12966 -0.3230983,0.12966 z"
       inkscape:connector-curvature="0"
       style="stroke-width:0.26458332" />
    <path
       id="path1015"
       d="m 9.377669,289.55359 c 0.1875343,-0.0851 0.3783598,-0.16275 0.5695818,-0.23909 0.2974072,-0.11678 0.5949572,-0.23285 0.8908892,-0.35333 0.22953,-0.0932 0.451648,-0.20256 0.671305,-0.31669 0,0 -0.259159,0.20779 -0.259159,0.20779 v 0 c -0.219275,0.11161 -0.44054,0.2194 -0.66903,0.31115 -0.296828,0.12068 -0.5957565,0.23582 -0.8931744,0.355 -0.1961067,0.08 -0.3926639,0.15984 -0.5828958,0.25313 0,0 0.2724832,-0.21796 0.2724832,-0.21796 z"
       inkscape:connector-curvature="0"
       style="stroke-width:0.26458332" />
    <path
       id="path1017"
       d="m 12.207119,289.23362 c 0.06328,-0.0656 0.124798,-0.1329 0.188013,-0.19861 0.07725,-0.0806 0.155504,-0.16036 0.236493,-0.23727 0.104952,-0.10332 0.209625,-0.20689 0.315617,-0.30916 0.114648,-0.11042 0.228654,-0.22159 0.347061,-0.328 0.119876,-0.11102 0.250728,-0.20852 0.38,-0.30798 0.125284,-0.10298 0.259001,-0.19469 0.394529,-0.28349 0.210618,-0.13897 0.427122,-0.27121 0.657278,-0.37534 0.124818,-0.0606 0.258383,-0.0936 0.392915,-0.12393 0.151904,-0.0332 0.305942,-0.0507 0.46092,-0.0602 0.158759,-0.0132 0.317201,-0.002 0.475239,0.0136 0.143965,0.0106 0.286359,0.0348 0.429489,0.0526 0.105986,0.0153 0.211442,0.0334 0.317151,0.0504 0.06646,0.005 0.130954,0.0213 0.19677,0.0307 0.04358,0.006 0.08752,0.007 0.131403,0.007 0.01147,-0.003 0.02728,0.004 0.0384,-2.4e-4 0.0056,-0.002 0.01682,-0.017 0.01157,-0.014 -0.09855,0.056 -0.195951,0.11409 -0.293927,0.17114 0,0 0.326773,-0.13295 0.326773,-0.13295 v 0 c -0.249809,0.14879 -0.206977,0.19055 -0.367792,0.18198 -0.04428,-0.002 -0.08859,-0.005 -0.132385,-0.0122 -0.06494,-0.0112 -0.129384,-0.025 -0.194929,-0.0325 -0.104129,-0.0188 -0.208497,-0.0358 -0.313134,-0.0515 -0.142159,-0.0194 -0.284032,-0.0417 -0.427191,-0.0527 -0.156832,-0.0145 -0.314111,-0.0231 -0.471462,-0.01 -0.154394,0.0114 -0.307836,0.0308 -0.458925,0.0655 -0.133785,0.0313 -0.26539,0.0693 -0.389285,0.1301 -0.11453,0.0541 -0.322848,0.17811 0.112369,-0.0773 0.02002,-0.0118 -0.04031,0.023 -0.06008,0.0352 -0.02654,0.0163 -0.09819,0.0637 -0.123405,0.0803 -0.13663,0.087 -0.270896,0.17831 -0.396338,0.28098 -0.127924,0.10071 -0.261374,0.19447 -0.380712,0.30586 -0.119162,0.10492 -0.232396,0.21629 -0.346733,0.32641 -0.105667,0.10161 -0.210535,0.20398 -0.313282,0.30853 -0.08065,0.076 -0.158493,0.15483 -0.235227,0.23476 -0.06141,0.0654 -0.125225,0.12878 -0.182962,0.19747 0,0 -0.324212,0.13429 -0.324212,0.13429 z"
       inkscape:connector-curvature="0"
       style="stroke-width:0.26458332" />
    <path
       id="path1019"
       d="m 9.8960685,290.28712 c 0.051918,0.009 0.1028353,0.017 0.1549715,0.008 0.02855,-0.0112 0.06305,-0.004 0.08969,-0.0181 0.02833,-0.0109 0.05861,-0.0158 0.0888,-0.0178 0.03983,-0.004 0.07771,6.4e-4 0.116573,0.009 0.05141,0.0188 0.104603,0.0311 0.155519,0.0514 0.04793,0.0154 0.08855,0.0461 0.135004,0.0648 0.03852,0.019 0.07529,0.0379 0.111403,0.0611 0.03502,0.0202 0.06955,0.0417 0.104118,0.0629 0.03521,0.0204 0.0648,0.0489 0.09536,0.0756 0.02578,0.0242 0.05517,0.0438 0.0805,0.0684 0.02706,0.0185 0.04557,0.0468 0.07071,0.0672 0.01631,0.0218 0.0363,0.0397 0.05485,0.0592 0.02217,0.0247 0.04452,0.0492 0.06759,0.0731 0.02285,0.0245 0.04326,0.0513 0.0671,0.0748 0.01561,0.0213 0.03314,0.0415 0.0464,0.0643 0.01353,0.0205 0.02932,0.0386 0.04408,0.0582 0.01188,0.0124 0.0237,0.0252 0.03459,0.0391 0.01209,0.0127 0.02222,0.0248 0.02902,0.0411 0.0093,0.0106 0.01535,0.0242 0.02387,0.0356 0.01088,0.0105 0.01808,0.0238 0.02507,0.0364 0.01066,0.0173 0.02453,0.0316 0.03731,0.0476 0.01359,0.0181 0.0289,0.0348 0.04143,0.0536 0.01515,0.0141 0.02801,0.0303 0.04059,0.0466 0.01143,0.0185 0.02139,0.0375 0.03253,0.0563 0.0075,0.0177 0.01936,0.0324 0.02838,0.0494 0.0099,0.0177 0.01177,0.0379 0.01346,0.0578 0.0012,0.0163 6.35e-4,0.0326 7.67e-4,0.0489 -5.82e-4,0.0137 0.0089,0.025 0.01396,0.0377 0.0032,0.0168 0.01262,0.0301 0.01992,0.0453 0.0072,0.0135 0.009,0.0287 0.01218,0.0434 0.0093,0.0129 0.01485,0.0276 0.01989,0.0426 0.0038,0.0138 0.0046,0.028 0.0049,0.0423 3.17e-4,0.0114 -2.7e-5,0.0229 1.2e-4,0.0343 -2.08e-4,0.0135 -3.71e-4,0.0271 -2.28e-4,0.0406 -1.29e-4,0.0122 2.36e-4,0.0245 2e-6,0.0367 1.72e-4,0.012 -6.1e-5,0.024 5.7e-5,0.036 2.7e-5,0.0111 4.7e-5,0.0222 -3.17e-4,0.0333 0.0087,0.0102 0.01439,0.0214 0.01886,0.0341 0.002,0.015 0.0042,0.0183 0.01107,0.0298 0.0093,0.0142 0.01393,0.0295 0.01601,0.0462 0.002,0.024 0.0013,0.048 0.001,0.0721 0.0026,0.0446 -0.0071,0.0881 -0.01409,0.13191 -0.0074,0.0592 -0.01973,0.1175 -0.02689,0.17675 -0.01011,0.0745 -0.02664,0.14795 -0.04295,0.22128 -0.01911,0.0728 -0.02596,0.1478 -0.03856,0.22181 -0.01176,0.059 -0.01369,0.11913 -0.02067,0.17866 -0.0105,0.0521 -0.01691,0.10453 -0.02033,0.15747 -0.0065,0.0527 -0.01695,0.10462 -0.02186,0.15752 -0.0066,0.0588 -0.02019,0.11635 -0.03328,0.17392 -0.0091,0.061 -0.02828,0.11964 -0.04421,0.17904 -0.01805,0.0589 -0.0326,0.11876 -0.05157,0.17737 -0.02664,0.0694 -0.06508,0.13344 -0.09931,0.19925 -0.03128,0.0617 -0.06005,0.12475 -0.09379,0.18521 -0.02948,0.0513 -0.05802,0.10304 -0.09009,0.15277 -0.03044,0.0516 -0.05613,0.10587 -0.08457,0.15865 -0.02671,0.0427 -0.05743,0.0826 -0.08427,0.12522 -0.02749,0.0446 -0.04979,0.0921 -0.07566,0.13762 -0.02526,0.0471 -0.05981,0.0878 -0.08938,0.1321 -0.0312,0.0436 -0.0605,0.0884 -0.0902,0.13303 -0.02563,0.0423 -0.05836,0.0795 -0.0862,0.12025 -0.02841,0.0342 -0.05185,0.0716 -0.07573,0.10891 -0.02147,0.0339 -0.0444,0.0668 -0.06819,0.0991 -0.0208,0.0305 -0.04474,0.0585 -0.06762,0.0873 -0.0209,0.0245 -0.0359,0.0529 -0.05325,0.0798 -0.01512,0.0261 -0.03117,0.0518 -0.0488,0.0763 -0.01732,0.0206 -0.03287,0.044 -0.05492,0.0598 -0.01567,0.0141 -0.03073,0.0287 -0.04715,0.042 -0.0095,0.0181 -0.02168,0.0351 -0.03572,0.0501 -0.01453,0.0147 -0.03034,0.0259 -0.0467,0.0376 -0.0172,0.017 -0.03749,0.031 -0.0572,0.0455 -0.02032,0.0147 -0.04124,0.0284 -0.06043,0.0446 -0.088254,0.0963 -0.2820022,0.17273 -0.3483462,0.21414 -0.094891,0.0592 0.1939457,-0.11152 0.2909182,-0.16728 -0.01988,0.0111 -0.035569,0.0264 -0.052859,0.0408 -0.013208,0.011 -0.030445,0.0197 -0.04356,0.0307 -0.00316,0.006 -0.010073,0.0229 -0.018238,0.0242 -0.015261,0.002 0.00103,-0.006 -0.00979,4e-4 -0.00222,0.0187 -0.018066,0.0245 -0.031381,0.0349 -0.01773,0.0121 -0.031089,0.0293 -0.048816,0.0413 -0.051647,0.0464 -0.759869,0.4345 -0.034069,0.0228 0.00559,-0.003 -0.00946,0.009 -0.014295,0.0129 -0.014319,0.0102 -0.028061,0.0214 -0.041077,0.0333 -0.016412,0.0124 -0.030595,0.0314 -0.049937,0.0396 -0.088987,0.0877 -0.2830414,0.16934 -0.3341724,0.19793 -0.00273,0.002 -0.01197,0.003 -0.00927,0.001 0.098315,-0.0569 0.1977522,-0.11186 0.2966283,-0.16779 -0.018034,0.0124 -0.037255,0.0227 -0.055,0.0356 -0.014698,0.007 -0.020913,0.0237 -0.035113,0.0294 -0.013163,0.009 -0.02255,0.0216 -0.032913,0.0333 -0.013047,0.009 -0.013655,0.0181 -0.02376,0.0306 -0.016047,0.005 -0.01156,0.0143 -0.018735,0.0289 -0.016801,0.002 -0.018555,0.0196 -0.024977,0.0322 -0.00138,0.002 -0.00238,0.005 -0.00414,0.006 -0.011165,0.0115 -0.010591,0.022 -0.019563,0.0301 -0.0096,0.01 -0.014944,0.0225 -0.023138,0.0332 -0.01402,0.008 -0.014817,0.0223 -0.024627,0.0331 -0.011348,0.0124 -0.015354,0.0269 -0.02281,0.041 -0.011745,0.0101 -0.017912,0.0241 -0.021318,0.0389 0.00146,0.0219 -0.01048,0.0392 -0.017383,0.059 -0.00546,0.0154 -0.00735,0.0315 -0.00811,0.0477 -6.615e-4,0.0177 -6.085e-4,0.0354 -3.175e-4,0.0531 3.89e-5,0.016 -6.43e-5,0.0321 1.545e-4,0.0481 -4.15e-5,0.0157 -1.783e-4,0.0315 1.56e-5,0.0472 0.00161,0.003 0.01288,0.0227 0.016642,0.032 0.00572,0.01 0.00193,0.0232 0.00864,0.0317 0.00974,0.0115 0.013716,0.0266 0.022125,0.0392 0.010779,0.009 0.010597,0.0257 0.021918,0.0334 0.00868,0.0161 0.022331,0.0246 0.032748,0.0396 0.01569,1.4e-4 0.018566,0.0292 0.030623,0.0305 0.01021,0.0155 0.023096,0.0251 0.03472,0.0389 0.00899,0.0118 0.018783,0.023 0.02899,0.0338 0.010321,0.004 0.026448,0.0202 0.034959,0.0294 0.010298,0.0125 0.012692,0.0198 0.028482,0.017 0.019965,4e-5 0.039936,-1.9e-4 0.059905,-2.4e-4 0.031595,10e-4 0.06015,-0.012 0.091646,-0.0167 0.05518,-0.012 0.1118656,-0.0169 0.1672212,-0.0282 0.07426,-0.0132 0.1488523,-0.0255 0.2224003,-0.0423 0.07764,-0.0248 0.156378,-0.0452 0.234817,-0.0672 0.08357,-0.0199 0.166772,-0.0412 0.249227,-0.0653 0.08863,-0.0188 0.17636,-0.0403 0.262809,-0.0677 0.0803,-0.024 0.159041,-0.0533 0.236599,-0.085 0.140856,-0.0824 -0.07335,0.0431 -0.220634,0.12603 -0.01287,0.007 0.02507,-0.0157 0.03747,-0.0237 0.03789,-0.0245 0.07463,-0.0503 0.110994,-0.077 0.07151,-0.0543 0.13635,-0.11645 0.200779,-0.17875 0.06263,-0.0584 0.110836,-0.12854 0.158851,-0.19875 0.04537,-0.0588 0.08329,-0.12231 0.118976,-0.18725 0.03321,-0.057 0.06374,-0.11535 0.09269,-0.17464 0.02186,-0.0458 0.04033,-0.0931 0.05977,-0.13992 0.01559,-0.0388 0.0308,-0.0773 0.05055,-0.11422 0.01587,-0.0325 0.03755,-0.0615 0.0552,-0.093 0.0174,-0.0323 0.03753,-0.0632 0.05986,-0.0922 0.01768,-0.0266 0.03654,-0.0522 0.05732,-0.0764 0.01652,-0.0253 0.03782,-0.0468 0.05537,-0.0713 0.01808,-0.0189 0.03649,-0.0372 0.05658,-0.0539 0.02087,-0.022 0.04366,-0.0418 0.06547,-0.0629 0.02247,-0.0275 0.04062,-0.0583 0.06085,-0.0874 0.02098,-0.0211 0.03606,-0.0476 0.05893,-0.0666 0.02056,-0.0177 0.03573,-0.0399 0.05304,-0.0604 0.01529,-0.0163 0.02016,-0.0386 0.03455,-0.0552 0.0083,-0.0167 0.01903,-0.0317 0.03163,-0.0457 0.0065,-0.0186 0.02018,-0.0316 0.02822,-0.0497 0.0055,-0.0142 0.0186,-0.0226 0.02428,-0.0362 6.2e-5,-0.0171 0.01179,-0.027 0.01924,-0.0405 0.0078,-0.0139 0.0052,-0.0295 0.01607,-0.0417 0.0085,-0.0137 0.01269,-0.0287 0.0217,-0.0421 0.01178,-0.0105 0.0154,-0.0242 0.02452,-0.0374 0.0069,-0.01 0.01309,-0.018 0.01569,-0.03 0.0025,-0.0114 -1.31e-4,-0.0356 0.01548,-0.0383 0.0078,-0.0131 0.01021,-0.0275 0.02106,-0.0392 0.0079,-0.0131 0.01109,-0.0262 0.01148,-0.0413 0.0051,-0.0132 0.01548,-0.0242 0.02047,-0.037 8.73e-4,-0.0199 0.01121,-0.0353 0.01875,-0.0529 0.0073,-0.0132 0.0084,-0.0271 0.0092,-0.0419 0.0049,-0.0152 0.01522,-0.0278 0.01966,-0.0434 0.0022,-0.0155 0.01048,-0.0331 0.02111,-0.0452 6.2e-5,-0.0184 0.01534,-0.0245 0.02299,-0.038 0.0081,-0.0128 0.0071,-0.0278 0.0074,-0.0425 0.0046,-0.0124 0.01085,-0.0262 0.01896,-0.0371 0.0013,-0.017 0.01321,-0.0291 0.02193,-0.0432 0.0071,-0.0161 0.0029,-0.034 0.0098,-0.0498 0.0066,-0.0133 0.01343,-0.0258 0.01689,-0.0403 0.0032,-0.0165 0.0027,-0.0321 0.0099,-0.0477 0.009,-0.0113 0.01327,-0.0256 0.01522,-0.0398 -0.0017,-0.0202 0.0082,-0.0345 0.01589,-0.0518 0.0077,-0.0166 0.006,-0.0298 0.01592,-0.0459 0.01131,-0.0138 0.01431,-0.0316 0.01582,-0.0489 0.0092,-0.0173 0.0176,-0.0343 0.02139,-0.0537 0.0027,-0.0217 0.01528,-0.0401 0.02174,-0.0609 0.0044,-0.0195 0.0052,-0.0395 0.0055,-0.0595 -0.0028,-0.0221 0.0077,-0.0401 0.01533,-0.0599 0.0039,-0.0237 0.01106,-0.0457 0.01955,-0.068 0.0093,-0.0193 0.0088,-0.0407 0.01959,-0.0594 0.01022,-0.0194 0.01386,-0.0409 0.02281,-0.0609 0.0089,-0.0203 0.01889,-0.0401 0.02802,-0.0603 0.0084,-0.0202 0.01033,-0.0417 0.01941,-0.0616 0.0094,-0.0131 0.01351,-0.0285 0.01582,-0.0442 4.7e-5,-0.0214 0.0018,-0.041 0.0092,-0.0611 0.0051,-0.0128 0.01088,-0.0246 0.01339,-0.0382 0.0025,-0.0127 0.0023,-0.0258 0.0022,-0.0387 -2.65e-4,-0.0103 -8.9e-5,-0.0205 -2.91e-4,-0.0308 1.12e-4,-0.012 1.09e-4,-0.024 1.21e-4,-0.036 -0.0012,-0.0166 -10e-4,-0.0315 0.01103,-0.044 0.0058,-0.0106 0.01023,-0.0217 0.01163,-0.0337 0.0014,-0.0113 9.26e-4,-0.0226 0.0011,-0.0339 -8.7e-5,-0.0132 4.7e-5,-0.0263 -2.16e-4,-0.0395 1.46e-4,-0.0174 3.97e-4,-0.0349 3.44e-4,-0.0523 -0.0024,-0.0191 0.0086,-0.0331 0.0159,-0.0495 0.0071,-0.01 0.007,-0.0233 0.0074,-0.035 4.76e-4,-0.012 1.3e-5,-0.0241 1.71e-4,-0.0362 -2.26e-4,-0.012 -2.2e-5,-0.024 -1.52e-4,-0.0361 1.4e-4,-0.0137 8e-5,-0.0273 7.2e-5,-0.041 -1.92e-4,-0.0115 4.1e-5,-0.0231 -1.61e-4,-0.0346 -0.0043,-0.0194 0.0091,-0.0281 0.01697,-0.0419 0.0052,-0.0101 0.0059,-0.0212 0.0064,-0.0323 7.94e-4,-0.0134 4.77e-4,-0.0268 1.07e-4,-0.0402 -10e-6,-0.0157 0.01333,-0.0176 0.01879,-0.0285 0.0059,-0.0113 0.0029,-0.007 -0.0048,-0.0212 -0.0041,-0.0102 -0.01295,-0.0276 -0.0065,-0.0389 0.0017,-0.003 0.0054,-0.004 0.0072,-0.007 0.0051,-0.009 0.0075,-0.0171 0.0084,-0.027 0.0011,-0.0118 9.26e-4,-0.0238 9.26e-4,-0.0357 -2.08e-4,-0.0114 -1.4e-5,-0.0228 -2.29e-4,-0.0342 1.18e-4,-0.0123 1.08e-4,-0.0245 1.19e-4,-0.0368 -1.7e-4,-0.0114 5.9e-5,-0.0227 -1.38e-4,-0.0341 -0.0066,-0.0192 0.01,-0.0245 0.01724,-0.0393 0.0043,-0.0103 0.0058,-0.0209 0.0063,-0.0319 6.09e-4,-0.0101 1.79e-4,-0.0202 3.44e-4,-0.0302 0.0022,-0.0105 -0.006,-0.0242 5.03e-4,-0.0336 0.0022,-0.003 0.0069,-0.004 0.0095,-0.007 0.008,-0.008 0.01037,-0.0173 0.01213,-0.0282 -0.02814,-0.13787 0.251747,-0.26974 0.347537,-0.17026 0.0075,0.006 0.01356,0.0332 0.0157,0.0307 0.0072,0.01 0.01277,0.017 0.02424,0.0221 0.0082,0.0114 0.01923,0.0201 0.02745,0.0316 0.0091,0.0127 0.01404,0.0273 0.02112,0.041 0.0092,0.0161 0.01364,0.0337 0.02259,0.0498 0.01293,0.0207 0.01603,0.0452 0.02463,0.0677 0.0069,0.0252 0.01588,0.0487 0.02714,0.0722 0.01077,0.021 0.01425,0.0443 0.01693,0.0674 -9.79e-4,0.0165 0.0093,0.0282 0.01548,0.0428 0.0022,0.0156 0.01225,0.0255 0.01947,0.0386 0.0076,0.0134 0.01739,0.026 0.02598,0.0394 0.0069,0.0145 0.01007,0.03 0.01117,0.0459 8.2e-4,0.008 -4e-5,0.0164 0.0011,0.0246 0.05305,0.10988 0.0029,0.003 -0.316307,0.15902 0,0 0.304787,-0.17706 0.304787,-0.17706 v 0 c -0.307772,0.1746 -0.362044,0.0703 -0.304851,0.17736 0.0011,-0.007 9.79e-4,-0.0149 0.0011,-0.0224 1.8e-5,-0.01 1.44e-4,-0.02 -0.0025,-0.0299 -0.0083,-0.0141 -0.01898,-0.0268 -0.02666,-0.0411 -0.0076,-0.014 -0.02018,-0.0255 -0.02158,-0.0422 -0.0065,-0.0176 -0.02108,-0.0326 -0.02029,-0.0522 -8.73e-4,-0.0192 -0.002,-0.0388 -0.01042,-0.0564 -0.01145,-0.0244 -0.02215,-0.048 -0.02807,-0.0745 -0.0083,-0.021 -0.01263,-0.0428 -0.02264,-0.0629 -0.0097,-0.0165 -0.01508,-0.0333 -0.02314,-0.0506 -0.0067,-0.012 -0.01152,-0.0235 -0.01821,-0.0353 -0.0089,-0.008 -0.01494,-0.0192 -0.02134,-0.0212 -0.01083,-0.008 -0.01816,-0.019 -0.02764,-0.0274 -0.0078,-0.009 -0.01448,-0.0206 -0.01521,-0.0301 -0.0068,-0.003 -0.03094,0.0161 -0.01609,0.007 0.296527,-0.17484 0.373304,-0.0917 0.285401,-0.18077 -0.0011,0.0141 -0.0016,0.0292 -0.006,0.0423 -0.0022,0.005 -0.0014,0.0119 -0.0055,0.0156 -0.0049,0.005 -0.01598,-0.0136 -0.01283,0.007 2.56e-4,0.0104 9.7e-5,0.0208 3.97e-4,0.0312 -2.58e-4,0.0136 6.08e-4,0.0273 -0.0025,0.0407 -6.88e-4,0.004 -0.0081,0.0369 -0.01367,0.0365 -0.0035,-2.4e-4 -0.0052,-0.005 -0.0078,-0.007 -1.94e-4,0.0114 3e-5,0.0228 -1.39e-4,0.0343 1.2e-5,0.0122 10e-7,0.0244 1.38e-4,0.0366 -1.85e-4,0.0114 3.4e-5,0.0229 -7.5e-5,0.0343 6.2e-5,0.0125 7.7e-5,0.0251 4.23e-4,0.0376 -5.29e-4,0.0127 7.67e-4,0.0257 -0.0035,0.0377 -0.0014,0.005 -3.18e-4,0.011 -0.0032,0.0154 -0.002,0.003 -0.01377,-0.003 -0.01422,-0.003 -0.0013,10e-4 0.0015,0.004 0.0022,0.005 0.0078,0.0146 0.0228,0.0279 0.01807,0.046 -0.0028,0.0151 -7.67e-4,0.0266 -0.01735,0.0322 -0.0111,-5.9e-4 -0.0046,0.0188 -0.0055,0.0279 -3.44e-4,0.0139 -3.71e-4,0.0281 -0.0023,0.0418 -0.0024,0.0125 -0.0049,0.0319 -0.02171,0.0314 -2e-4,0.0116 2.7e-5,0.0232 -1.64e-4,0.0348 -8e-6,0.0136 -7e-5,0.0273 8.1e-5,0.0409 -1.13e-4,0.012 1.13e-4,0.024 -1.3e-5,0.036 2.65e-4,0.0123 3.5e-5,0.0247 2.23e-4,0.037 -2.17e-4,0.0157 -1.79e-4,0.0314 -0.0014,0.0471 -0.0058,0.014 -0.0087,0.0295 -0.02279,0.0371 -5.1e-5,0.0173 1.84e-4,0.0346 3.71e-4,0.0519 -2.16e-4,0.0132 -4e-5,0.0263 1.2e-5,0.0395 3.17e-4,0.0121 1.9e-4,0.0243 2.38e-4,0.0364 -6.88e-4,0.0155 -6.09e-4,0.0305 -0.0065,0.0452 -0.0055,0.0247 -0.01809,0.0115 -0.01743,0.03 1.5e-5,0.0119 1.4e-5,0.0239 1.67e-4,0.0358 -1.48e-4,0.0103 1.01e-4,0.0206 -3.7e-5,0.031 -5.8e-5,0.0144 1.41e-4,0.0288 3.44e-4,0.0431 -0.0017,0.0159 -0.0024,0.032 -0.01061,0.0462 -0.0096,0.0222 -0.01596,0.025 -0.0138,0.0512 -1.89e-4,0.02 -0.0022,0.0392 -0.009,0.0582 -0.01283,0.0185 -0.02065,0.0342 -0.02172,0.0576 -0.0079,0.0222 -0.0209,0.0405 -0.02635,0.0634 -0.01167,0.0193 -0.01975,0.0369 -0.02358,0.0593 -0.0034,0.009 -0.01219,0.0154 -0.01511,0.0238 -0.0036,0.0102 -5.8e-5,0.0239 -0.0051,0.034 -0.0091,0.0215 -0.02051,0.0406 -0.02169,0.064 -0.0018,0.0109 -0.004,0.0233 -0.0088,0.0334 -0.0021,0.004 -0.008,0.006 -0.0098,0.0107 -10e-4,0.002 -6.6e-5,0.005 -9.9e-5,0.008 -2.02e-4,0.0218 -3.18e-4,0.0438 -0.003,0.0655 -0.0023,0.0204 -0.0059,0.0455 -0.0223,0.0594 -0.0025,0.0219 -0.0044,0.0439 -0.01657,0.0629 -0.01311,0.005 -0.0074,0.0391 -0.01436,0.0521 -0.01192,0.0199 -0.0098,0.009 -0.01497,0.0134 -0.0049,0.004 6.35e-4,0.022 -0.0032,0.0274 -0.003,0.008 -0.0052,0.0187 -0.0095,0.0258 -0.0023,0.004 -0.0089,0.004 -0.01068,0.008 -0.0012,0.003 3.1e-5,0.006 4.7e-5,0.009 -0.0014,0.0183 -0.0028,0.0361 -0.0088,0.0537 -0.01267,0.0162 -0.01697,0.0131 -0.01473,0.0365 -0.0027,0.0168 -0.0041,0.0341 -0.0137,0.0486 -0.0014,0.003 -0.0027,0.005 -0.0041,0.008 -0.002,4.5e-4 -0.0048,-3.7e-4 -0.0058,10e-4 -0.0052,0.009 0.0037,0.0257 -0.0022,0.0349 -0.0015,0.0153 -0.0055,0.0376 -0.02224,0.0419 -2.91e-4,0.0134 -0.0062,0.034 -0.01713,0.0414 -0.01335,0.005 -0.0014,0.0307 -0.0069,0.0428 -0.0047,0.0163 -0.0058,0.0302 -0.02423,0.0358 -0.0012,0.0138 -0.01018,0.0363 -0.02302,0.0415 -0.0021,0.0164 -0.0038,0.038 -0.0168,0.0494 -0.01255,0.006 -0.0021,0.0302 -0.0092,0.0418 -0.0032,0.009 -0.0055,0.0195 -0.0099,0.0273 -0.0024,0.004 -0.0091,0.006 -0.01083,0.0102 -0.0012,0.003 -10e-5,0.007 -1.5e-4,0.0104 -0.0021,0.0173 -0.0066,0.0307 -0.0165,0.0455 -0.0021,-4e-5 -0.0049,-0.002 -0.0062,-1.3e-4 -0.0061,0.007 0.0038,0.0326 -0.0064,0.0399 -0.004,0.017 -0.01903,0.0231 -0.02002,0.0403 -0.0018,0.0237 -0.01958,0.01 -0.02032,0.0275 -0.0014,0.0151 -8.99e-4,0.0307 -0.01019,0.0434 -0.0031,0.006 -0.0041,0.0126 -0.0089,0.0167 -0.0017,10e-4 -0.0052,-9e-4 -0.0067,7.4e-4 -0.0043,0.005 -7.41e-4,0.0127 -0.003,0.0186 -7.4e-4,0.002 -0.0028,0.003 -0.0042,0.005 -0.0108,0.012 -0.02074,0.0202 -0.02416,0.037 -0.0055,0.0165 -0.01108,0.009 -0.01453,0.015 -0.0025,0.005 0.0019,0.018 -0.0034,0.0224 -0.0031,0.0114 -0.0038,0.0221 -0.01409,0.0296 -0.0016,0.001 -0.0041,6.9e-4 -0.0053,0.002 -0.0012,0.001 -6.09e-4,0.004 -9e-4,0.006 -0.0035,0.0183 -0.0062,0.0324 -0.0207,0.0455 -0.01268,0.0139 -0.01193,0.0356 -0.03036,0.0446 -0.0044,0.0223 -0.01894,0.0333 -0.02992,0.05 -0.0047,0.0115 -0.01294,0.0141 -0.01821,0.024 -0.0056,0.0107 -0.0059,0.025 -0.01581,0.0341 -0.01422,0.0238 -0.03231,0.0447 -0.05061,0.066 -0.02603,0.0303 0.0072,-0.006 -0.02123,0.0176 -0.01563,0.0129 -0.02494,0.0331 -0.03889,0.0475 -0.02714,0.0224 -0.04308,0.0573 -0.06114,0.0867 -0.01793,0.0245 -0.0392,0.0463 -0.0647,0.0632 -0.01536,0.0225 -0.03822,0.0355 -0.05577,0.0558 -0.02431,0.0162 -0.03594,0.0464 -0.05832,0.0651 -0.0154,0.0283 -0.04187,0.0488 -0.0575,0.0774 -0.01975,0.0299 -0.04355,0.0568 -0.06162,0.0881 -0.01662,0.0327 -0.03731,0.0623 -0.05491,0.094 -0.02175,0.0353 -0.04003,0.0716 -0.05245,0.11125 -0.02251,0.0462 -0.03934,0.0951 -0.06063,0.14194 -0.03039,0.059 -0.05689,0.11989 -0.09296,0.17578 -0.0346,0.0664 -0.07133,0.13224 -0.117879,0.19112 -0.04963,0.0707 -0.09489,0.14458 -0.157307,0.20532 -0.06418,0.0633 -0.12887,0.12632 -0.199248,0.18277 -0.160343,0.12575 -0.341559,0.22572 -0.522437,0.31729 -0.07829,0.0306 -0.15735,0.0595 -0.238212,0.0825 -0.08708,0.0254 -0.175374,0.0453 -0.263315,0.0673 -0.08299,0.0229 -0.16639,0.0442 -0.249857,0.0653 -0.078994,0.0211 -0.156899,0.0457 -0.2361687,0.0658 -0.074389,0.0149 -0.1489257,0.029 -0.223693,0.0419 -0.056624,0.009 -0.1129035,0.0192 -0.1692079,0.0299 -0.032146,0.007 -0.06321,0.0156 -0.096557,0.0122 -0.021738,-1.2e-4 -0.043949,2.3e-4 -0.065017,-0.006 -0.016274,-0.008 -0.027362,-0.0189 -0.038575,-0.0327 -0.013266,-0.009 -0.02349,-0.0223 -0.036827,-0.0317 -0.00987,-0.0114 -0.019984,-0.0226 -0.029041,-0.0346 -0.010536,-0.0117 -0.022333,-0.0222 -0.03226,-0.0344 -0.011554,-0.0129 -0.021214,-0.0268 -0.034931,-0.0378 -0.00885,-0.0121 -0.022384,-0.0204 -0.029566,-0.034 -0.011041,-0.0125 -0.015901,-0.0268 -0.025522,-0.0401 -0.00828,-0.0126 -0.013465,-0.0261 -0.022016,-0.0383 -0.00872,-0.0133 -0.012922,-0.0246 -0.01357,-0.0403 -0.00241,-0.0154 -0.018113,-0.0272 -0.022043,-0.0422 1.919e-4,-0.0157 6.09e-5,-0.0315 8e-7,-0.0472 1.897e-4,-0.016 4.9e-5,-0.032 -2.88e-5,-0.048 1.593e-4,-0.0181 -1.99e-5,-0.0362 -9.98e-5,-0.0542 2.646e-4,-0.0187 1.778e-4,-0.0377 0.00448,-0.0559 0.00313,-0.013 0.00509,-0.0292 0.013848,-0.0401 0.00138,-0.002 0.00473,-10e-4 0.00562,-0.003 0.00138,-0.003 2.91e-4,-0.007 4.498e-4,-0.0101 5.556e-4,-0.0203 0.0036,-0.0388 0.012475,-0.0573 0.0038,-0.003 0.0099,-0.003 0.012123,-0.007 0.00461,-0.009 0.00269,-0.0235 0.012314,-0.0308 0.00146,-0.003 0.00289,-0.006 0.00434,-0.009 0.00225,-1.9e-4 0.00519,10e-4 0.00672,-5.8e-4 0.00622,-0.007 -0.00201,-0.0243 0.011565,-0.0279 0.00959,-0.01 0.018309,-0.0182 0.024135,-0.0311 0.01379,-0.0256 -0.00537,0.004 0.011417,-0.007 0.00428,-0.003 0.0047,-0.0214 0.00693,-0.0256 0.00106,-0.002 0.00348,-0.003 0.00523,-0.004 0.00373,-0.003 0.00988,-0.004 0.011946,-0.008 0.0043,-0.009 0.00198,-0.0246 0.00879,-0.0334 0.00443,-2e-5 0.00895,0.005 0.012991,0.003 0.00696,-0.003 -0.0045,-0.028 0.00742,-0.0278 0.00201,-10e-4 0.016716,-0.008 0.017121,-0.009 0.0045,-0.009 -0.00235,-0.0129 0.0081,-0.0191 0.011168,-0.0119 0.022241,-0.0238 0.031493,-0.0373 0.012618,-0.0189 -0.00183,-0.002 0.014317,-0.009 0.00853,-0.003 0.011957,-0.0172 0.02013,-0.0215 0.016634,-0.0146 0.03359,-0.0295 0.053941,-0.0386 1.0106086,-0.57626 -0.2070362,0.11832 0.049236,-0.0263 0.00845,-0.014 0.013316,-0.01 0.025204,-0.0185 0.00949,-0.007 0.010364,-0.021 0.024707,-0.0208 0.012787,-0.0128 0.025691,-0.0253 0.039403,-0.0371 0.1806493,-0.116 0.6561566,-0.39174 0.039859,-0.0296 -0.00307,0.002 0.00656,-0.003 0.00984,-0.004 0.014444,-0.0153 0.035199,-0.0241 0.04789,-0.0421 0.011353,-0.01 0.020828,-0.0227 0.03719,-0.0203 0.00368,-0.0246 0.00228,-0.0208 0.026573,-0.0288 0.00243,-0.007 0.00309,-0.014 0.00723,-0.0196 0.00789,-0.0107 0.028441,-0.009 0.03083,-0.0254 0.022183,-0.0104 0.03384,-0.0265 0.053622,-0.0401 0.1039632,-0.0605 0.206715,-0.12308 0.3118896,-0.18143 0.09793,-0.0543 -0.1933701,0.11301 -0.2901401,0.16937 -0.0034,0.002 0.00669,-0.004 0.01003,-0.006 0.00355,-0.002 0.00759,-0.004 0.010639,-0.006 0.019505,-0.018 -0.0045,-0.005 0.017568,-0.0152 0.015896,-0.0198 0.036134,-0.0384 0.058707,-0.0497 0.012742,-0.01 0.029691,-0.0181 0.041433,-0.0287 0.00302,-0.003 0.00397,-0.007 0.00715,-0.01 0.00259,-0.002 0.00627,-0.002 0.0094,-0.003 0.00465,-0.006 0.0076,-0.0129 0.01369,-0.0168 0.00274,-0.002 0.00666,-3.2e-4 0.00959,-0.002 0.0088,-0.004 0.014338,-0.0153 0.022781,-0.0201 0.00631,-0.004 0.018354,-0.0102 0.022934,-0.0162 0.00623,-0.008 0.00675,-0.0176 0.017965,-0.0223 0.00604,-0.0247 0.025514,-0.0376 0.042967,-0.0534 0.01662,-0.0186 0.04339,-0.0314 0.05753,-0.0547 0.01948,-0.0221 0.03363,-0.0473 0.05133,-0.0704 0.01307,-0.03 0.0336,-0.0575 0.05104,-0.085 0.02184,-0.0303 0.0486,-0.0561 0.06804,-0.0881 0.0253,-0.0307 0.04847,-0.0635 0.06927,-0.0971 0.02609,-0.0361 0.04403,-0.0779 0.07637,-0.10914 0.02756,-0.041 0.05688,-0.0801 0.0868,-0.1192 0.02752,-0.0463 0.05908,-0.0904 0.09048,-0.13416 0.02935,-0.0442 0.06106,-0.0862 0.08965,-0.13054 0.02828,-0.044 0.04857,-0.0921 0.07549,-0.13689 0.0239,-0.0445 0.05324,-0.0858 0.08515,-0.12495 0.03032,-0.0524 0.05687,-0.10672 0.08417,-0.16073 0.0315,-0.0499 0.06265,-0.0997 0.09069,-0.15168 0.03659,-0.0588 0.06495,-0.12206 0.09537,-0.18417 0.03452,-0.064 0.06933,-0.12819 0.100193,-0.19397 0.02184,-0.0571 0.03305,-0.117 0.05305,-0.17466 0.01446,-0.0595 0.03679,-0.11689 0.04433,-0.17792 0.01239,-0.0564 0.0267,-0.11225 0.03528,-0.16949 0.0037,-0.0528 0.01058,-0.10501 0.02206,-0.15677 0.0029,-0.0538 0.0065,-0.10769 0.01875,-0.16029 0.01136,-0.0593 0.0086,-0.12079 0.02197,-0.17996 0.01267,-0.0747 0.02043,-0.15012 0.03814,-0.22385 0.01708,-0.0717 0.03166,-0.1442 0.04365,-0.21694 0.0055,-0.0596 0.01773,-0.11806 0.02555,-0.17726 0.0048,-0.0425 0.01744,-0.0839 0.01464,-0.12691 -2.08e-4,-0.0229 -2.65e-4,-0.0459 -7.67e-4,-0.0688 -3.18e-4,-0.0117 -0.0011,-0.0214 -0.0081,-0.0314 -0.0082,-0.0121 -0.01721,-0.0224 -0.01596,-0.0377 -0.003,-0.0126 -0.01098,-0.0212 -0.01742,-0.0324 -0.0066,-0.0147 -0.0068,-0.0282 -0.006,-0.0442 1.17e-4,-0.012 -1.14e-4,-0.024 5.6e-5,-0.0361 -2.4e-4,-0.0122 1.31e-4,-0.0245 5e-6,-0.0367 1.44e-4,-0.0135 -3e-6,-0.0271 -1.29e-4,-0.0406 2.46e-4,-0.0113 5.5e-5,-0.0227 3.44e-4,-0.0341 7.5e-5,-0.0111 1.02e-4,-0.0223 -4.5e-4,-0.0334 -0.0034,-0.014 -0.0085,-0.0266 -0.01708,-0.0383 -0.0072,-0.0141 -0.0067,-0.0285 -0.01191,-0.0433 -0.0072,-0.0161 -0.01919,-0.0299 -0.02143,-0.0477 -0.0057,-0.0167 -0.01911,-0.0312 -0.02001,-0.0489 2.91e-4,-0.0157 1.21e-4,-0.0314 2.2e-4,-0.0471 -2.57e-4,-0.0149 3.44e-4,-0.0308 -0.0061,-0.0446 -0.0083,-0.0165 -0.02086,-0.0305 -0.02732,-0.0479 -0.01001,-0.0174 -0.01976,-0.0345 -0.02969,-0.0517 -0.0142,-0.0163 -0.02688,-0.0335 -0.04203,-0.049 -0.01271,-0.0175 -0.0264,-0.0342 -0.03968,-0.0513 -0.01319,-0.0157 -0.02733,-0.0307 -0.03851,-0.0479 -0.0086,-0.0125 -0.01383,-0.0265 -0.02533,-0.0372 -0.01048,-0.0141 -0.01806,-0.0302 -0.02906,-0.0441 -0.0039,-0.0132 -0.01613,-0.0213 -0.02401,-0.0322 -0.01038,-0.0142 -0.02359,-0.0256 -0.03388,-0.0397 -0.01535,-0.0206 -0.03188,-0.0402 -0.04602,-0.0617 -0.01201,-0.0203 -0.02764,-0.0386 -0.04179,-0.0575 -0.02259,-0.0248 -0.04389,-0.0507 -0.06694,-0.075 -0.02249,-0.024 -0.04477,-0.0483 -0.06753,-0.0721 -0.01928,-0.0182 -0.03625,-0.0381 -0.05391,-0.0578 -0.02317,-0.0229 -0.04454,-0.0477 -0.0704,-0.0679 -0.02605,-0.0231 -0.05429,-0.0435 -0.07973,-0.0673 -0.02939,-0.0251 -0.05699,-0.0526 -0.09142,-0.0709 -0.03547,-0.0206 -0.06981,-0.0429 -0.105114,-0.0637 -0.03434,-0.0223 -0.07192,-0.0376 -0.107995,-0.0568 -0.04435,-0.0212 -0.08591,-0.0485 -0.133034,-0.0637 -0.05017,-0.0175 -0.10138,-0.0322 -0.152807,-0.0454 -0.03708,-0.005 -0.07459,-0.004 -0.1117367,5.9e-4 -0.029078,0.005 -0.057296,0.0132 -0.085426,0.0221 -0.030997,0.003 -0.061332,0.01 -0.092298,0.0127 -0.053888,0.003 -0.1068607,-0.009 -0.1602734,-0.0149 0,0 0.2868025,-0.20222 0.2868025,-0.20222 z"
       inkscape:connector-curvature="0"
       style="stroke-width:0.26458332" />
    <path
       id="path1021"
       d="m 13.815738,292.37457 c 0.0243,0.0674 0.05294,0.13324 0.08381,0.19787 0.03389,0.062 0.05164,0.12871 0.06664,0.19714 0.01701,0.0838 0.03503,0.16736 0.05182,0.2512 0.01823,0.0769 0.03714,0.15372 0.05485,0.23077 0.01352,0.0634 0.0281,0.12629 0.03628,0.19064 0.0046,0.0551 0.01732,0.10894 0.02466,0.16367 0.0046,0.0471 0.01582,0.0932 0.02359,0.13985 0.0057,0.0379 0.0072,0.0763 0.0078,0.11464 0,0.0353 4.24e-4,0.0706 3.71e-4,0.10593 -2.36e-4,0.0341 -1.68e-4,0.0682 -3.44e-4,0.10233 -8.21e-4,0.0435 0.0101,0.086 0.01574,0.12896 0.0028,0.0474 0.0082,0.094 0.01667,0.14077 0.0089,0.0476 0.01179,0.0959 0.01351,0.14417 7.8e-5,0.0473 0.01119,0.0936 0.01722,0.14035 0.01034,0.0471 0.02029,0.094 0.0258,0.14199 10e-4,0.0477 0.01081,0.0941 0.01832,0.141 0.005,0.0398 0.0099,0.0791 0.01937,0.11814 0.0073,0.04 0.0145,0.0799 0.02314,0.11969 0.0096,0.0394 0.01148,0.0799 0.01971,0.11956 0.01118,0.0377 0.02177,0.0761 0.03509,0.11311 0.01224,0.0365 0.025,0.0727 0.03722,0.10915 0.0065,0.03 0.01968,0.0575 0.02956,0.0864 0.0049,0.025 0.01596,0.0479 0.02411,0.0719 0.0082,0.0195 0.0083,0.0406 0.01232,0.0609 0.0085,0.0172 0.01539,0.0349 0.01965,0.0536 0.004,0.0185 0.0136,0.0349 0.01898,0.0532 0.0034,0.021 0.007,0.0402 0.01574,0.0596 0.0085,0.0205 0.01316,0.0418 0.01519,0.0638 0.006,0.0205 0.01341,0.0406 0.0189,0.0614 0.0043,0.0249 0.01488,0.0478 0.02111,0.0722 0.0023,0.0217 0.01197,0.0407 0.01975,0.0607 0.0078,0.0182 0.0074,0.0384 0.01181,0.0573 0.0084,0.0164 0.01531,0.0331 0.02006,0.0509 0.01036,0.0115 0.01634,0.0285 0.02143,0.0439 0.005,0.0149 0.01457,0.0272 0.02065,0.0418 0.006,0.0142 0.0056,0.0292 0.01172,0.0402 0.0084,0.0151 0.01251,0.0311 0.02163,0.0454 0.0086,0.0139 0.02002,0.0235 0.03052,0.0366 0.0094,0.003 0.01654,0.0239 0.02786,0.0247 0.01361,0.009 0.03091,0.0199 0.04134,0.0334 0.01393,0.0113 0.02742,0.0172 0.04059,0.0295 0.0091,0.0107 0.02241,0.01 0.03521,0.01 0.01419,0.0148 0.03229,0.0186 0.05146,0.0225 0.02314,-0.002 0.04058,0.003 0.0613,0.0125 0.01763,0.01 0.03789,0.0109 0.05764,0.0115 0.02272,6.6e-4 0.04546,2.9e-4 0.06819,2.9e-4 0.02276,-1.9e-4 0.04552,-5e-5 0.06827,-3.2e-4 0.01766,0.0109 0.03536,0.0186 0.05536,0.0236 0.01856,-0.001 0.0327,0.013 0.04901,0.0213 0.02065,-4.5e-4 0.03021,0.0107 0.04115,0.0269 0.0074,0.0115 0.0089,0.0253 0.01014,0.0386 2.91e-4,0.0103 2.7e-5,0.0222 -9e-4,0.0315 0.0046,0.003 0.01589,0.0335 0.01678,0.0265 0.01002,0.012 0.01989,0.0236 0.026,0.038 0.0049,0.0213 2.24e-4,0.01 0.01059,0.0245 0.0073,0.009 0.01371,0.0246 0.02554,0.0268 0.01643,0.002 0.02121,0.018 0.03496,0.0248 0.01604,-0.002 0.02319,0.0198 0.03776,0.0226 0.0169,0.006 0.02264,-0.001 0.03671,0.0119 0.01255,0.008 0.0237,0.0134 0.03817,0.0144 0.01956,-0.002 0.03523,0.0119 0.05261,0.0202 0.02146,0.002 0.03159,0.004 0.04903,0.0172 0.01539,0.007 0.03236,0.009 0.04921,0.009 0.01967,4.2e-4 0.03737,-0.003 0.0549,0.007 0.01675,0.0119 0.03653,0.0149 0.05654,0.016 0.02673,0.005 0.03862,-0.003 0.06084,-0.0155 0.006,-0.003 0.02492,-0.0117 0.03202,-0.008 0.0072,0.003 0.01219,0.0103 0.01887,0.0146 0.01295,0.0101 0.02738,0.009 0.043,0.01 0.0113,-0.003 0.02817,0.005 0.03896,2.3e-4 0.0055,-0.002 0.0079,-0.009 0.01203,-0.0134 0.01597,-0.0118 0.03173,-0.0131 0.05028,-0.0122 0.01121,-0.0165 0.02886,-0.0181 0.04672,-0.0221 0.0032,10e-6 0.0068,10e-4 0.0097,3e-5 0.0028,-10e-4 0.003,-0.006 0.0054,-0.008 0.01155,-0.009 0.02906,-0.0106 0.04277,-0.0135 0.0021,-0.003 0.0037,-0.006 0.0064,-0.008 0.0032,-0.003 0.06084,-0.0302 0.03123,-0.0129 -0.199853,0.11656 -0.394573,0.22099 -0.28373,0.16149 0.01922,-0.0129 0.03681,-0.028 0.0569,-0.04 0.02632,-0.0177 0.04552,-0.0447 0.06521,-0.0694 0.02799,-0.0312 0.05185,-0.0656 0.07377,-0.10118 0.02005,-0.034 0.0399,-0.0681 0.06131,-0.10127 0.01604,-0.0242 0.02953,-0.0501 0.04123,-0.0767 0.01033,-0.026 0.01172,-0.0538 0.01297,-0.0813 0.0016,-0.0375 -0.0096,-0.074 -0.01527,-0.11093 -0.01114,-0.0418 -0.02,-0.0839 -0.02615,-0.12673 -0.0019,-0.0338 -0.0052,-0.0663 -0.01437,-0.0988 -0.0044,-0.029 -0.01601,-0.0556 -0.02591,-0.083 -0.0076,-0.0284 -0.02012,-0.055 -0.02775,-0.0835 -0.0067,-0.0252 -0.01504,-0.0505 -0.02517,-0.0746 -0.01383,-0.0285 -0.03115,-0.0554 -0.04726,-0.0829 -0.02084,-0.0275 -0.04101,-0.0554 -0.06349,-0.0817 -0.01937,-0.0316 -0.03575,-0.0653 -0.05312,-0.0981 -0.01577,-0.0305 -0.03384,-0.0603 -0.05545,-0.087 -0.01838,-0.0272 -0.03775,-0.0535 -0.05931,-0.0782 -0.02311,-0.0146 -0.0357,-0.039 -0.05413,-0.0582 -0.01757,-0.0182 -0.03769,-0.0334 -0.05933,-0.0466 -0.0234,-0.0208 -0.05213,-0.0346 -0.07533,-0.0553 -0.02466,-0.0196 -0.05131,-0.0356 -0.07493,-0.0564 -0.02463,-0.0251 -0.0448,-0.0541 -0.06596,-0.0822 -0.02904,-0.034 -0.04844,-0.0739 -0.06721,-0.11408 -0.01843,-0.0466 -0.03577,-0.0935 -0.0547,-0.13991 -0.01866,-0.0475 -0.03606,-0.0949 -0.04623,-0.14505 -0.01373,-0.0463 -0.02047,-0.0941 -0.03014,-0.1413 -0.01356,-0.0514 -0.01829,-0.10435 -0.02894,-0.15635 -0.01145,-0.0503 -0.01669,-0.10165 -0.01956,-0.15309 -0.0018,-0.0396 -0.0024,-0.0792 -0.0025,-0.11881 1.62e-4,-0.0352 1.23e-4,-0.0704 3.17e-4,-0.10565 -0.002,-0.0367 6.62e-4,-0.0725 0.0089,-0.10828 0.0061,-0.0377 0.01671,-0.0743 0.02649,-0.11112 0.0066,-0.0382 0.0116,-0.0761 0.02081,-0.11383 0.0086,-0.0367 0.0121,-0.0743 0.01364,-0.1119 0.0013,-0.0331 0.0011,-0.0663 0.0012,-0.0994 0.0021,-0.0344 0.01254,-0.0675 0.01809,-0.10152 0.0029,-0.0391 0.006,-0.0774 0.01457,-0.11574 0.0098,-0.0414 0.01217,-0.0838 0.01383,-0.12612 0.0015,-0.0432 8.99e-4,-0.0865 8.73e-4,-0.12969 -6.6e-5,-0.0375 4e-6,-0.0751 -3.71e-4,-0.11258 1.51e-4,-0.0308 -2.55e-4,-0.0617 -2.12e-4,-0.0926 -2e-4,-0.0271 1.33e-4,-0.0542 -8.6e-5,-0.0813 5e-6,-0.0258 -1.37e-4,-0.0516 1.01e-4,-0.0774 3e-5,-0.0265 -2.12e-4,-0.0529 -1.02e-4,-0.0794 1.96e-4,-0.0295 9.7e-5,-0.059 1.69e-4,-0.0884 -1.1e-4,-0.0307 2.7e-5,-0.0614 7.5e-5,-0.0921 -0.0035,-0.0263 -0.01306,-0.0513 -0.01819,-0.0774 -0.0038,-0.0263 -0.0053,-0.0529 -0.0058,-0.0794 -3.7e-4,-0.0197 -2.1e-4,-0.0393 -2.64e-4,-0.059 1.05e-4,-0.0182 2.19e-4,-0.0364 -2.1e-5,-0.0546 -0.003,-0.0137 -0.01196,-0.0257 -0.0168,-0.0392 -0.0054,-0.0166 -0.0061,-0.0343 -0.0087,-0.0515 0.02335,-0.13981 0.227405,-0.18648 0.359061,-0.18346 0.0065,3.5e-4 0.004,-8.2e-4 0.008,0.002 0,0 -0.28957,0.20402 -0.28957,0.20402 v 0 c 3.17e-4,5.5e-4 6.35e-4,10e-4 9.79e-4,0.002 -0.0016,6e-5 -0.0032,1.3e-4 -0.0047,2e-4 -0.206695,0.0123 0.549201,0.0194 0.250082,-0.16653 -0.0025,-0.002 -0.0043,-0.006 -0.0075,-0.006 -0.0046,-5e-4 0.0051,0.0185 0.002,0.0294 0.0046,0.0174 0.01687,0.0314 0.02188,0.0489 -2.56e-4,0.0183 -1.78e-4,0.0365 -1.6e-4,0.0548 -1.67e-4,0.0195 -2.26e-4,0.0391 -3.18e-4,0.0587 1.64e-4,0.0249 5.5e-5,0.0498 0.0029,0.0745 0.0042,0.0284 0.01379,0.0552 0.0205,0.083 4.8e-5,0.0307 1.85e-4,0.0613 7.6e-5,0.092 7.2e-5,0.0294 -2.8e-5,0.0588 1.69e-4,0.0883 1.1e-4,0.0265 -1.33e-4,0.053 -1.02e-4,0.0795 2.4e-4,0.0258 9.4e-5,0.0515 10e-5,0.0773 -2.18e-4,0.0271 1.1e-4,0.0542 -8.8e-5,0.0813 4.6e-5,0.0309 -3.44e-4,0.0618 -1.68e-4,0.0927 -3.18e-4,0.0376 -1.58e-4,0.0752 -1.08e-4,0.11281 5.3e-5,0.0437 -3.43e-4,0.0873 -8.46e-4,0.13096 -0.0011,0.044 -0.0024,0.0882 -0.01041,0.13162 -0.008,0.0377 -0.01763,0.0738 -0.01554,0.11288 -0.0033,0.0331 -0.01002,0.0658 -0.0203,0.0975 2.51e-4,0.0335 3.97e-4,0.0671 -3.7e-4,0.10065 -0.0017,0.0395 -0.0039,0.079 -0.01127,0.11788 -0.0081,0.038 -0.01928,0.0746 -0.02061,0.11387 -0.0076,0.0375 -0.02305,0.0727 -0.02626,0.11104 -0.008,0.0338 -0.01672,0.0659 -0.0126,0.1012 1.34e-4,0.0352 -5.6e-5,0.0703 -4.4e-5,0.10549 -1.58e-4,0.0393 -6.35e-4,0.0786 5.56e-4,0.11786 0.002,0.0498 0.0057,0.0997 0.01648,0.14855 0.01079,0.0518 0.0164,0.10423 0.02921,0.15559 0.01129,0.0472 0.01497,0.0961 0.03071,0.1423 0.0084,0.0483 0.02482,0.0935 0.04267,0.13905 0.01852,0.0458 0.03667,0.0917 0.05397,0.13804 0.01821,0.0379 0.03629,0.0758 0.06461,0.10756 0.01933,0.0262 0.03864,0.0531 0.0626,0.0752 0.02365,0.02 0.05065,0.0357 0.07432,0.0558 0.02417,0.0178 0.04927,0.0343 0.07356,0.0519 0.02295,0.0161 0.04537,0.0332 0.06428,0.054 0.01759,0.0204 0.03248,0.0428 0.05409,0.0595 0.0213,0.0255 0.04113,0.052 0.05965,0.0797 0.02212,0.029 0.04261,0.0596 0.0584,0.0925 0.01635,0.0307 0.03214,0.0618 0.04972,0.0916 0.02309,0.0282 0.04509,0.0571 0.06646,0.0866 0.01691,0.0285 0.03491,0.0566 0.04964,0.0862 0.01164,0.0254 0.02054,0.0532 0.02826,0.08 0.0061,0.0279 0.0189,0.0532 0.02635,0.0806 0.0093,0.0283 0.02292,0.0551 0.0266,0.0849 0.0096,0.0344 0.01692,0.0677 0.01609,0.10383 0.0046,0.0429 0.01273,0.085 0.02577,0.12619 0.0052,0.0389 0.0173,0.0767 0.01869,0.11585 -2.09e-4,0.0304 -2.56e-4,0.0614 -0.0081,0.0909 -0.0081,0.0306 -0.02418,0.0569 -0.03754,0.0854 -0.02322,0.0319 -0.04409,0.0657 -0.06286,0.10017 -0.0224,0.0359 -0.04271,0.0737 -0.07137,0.10523 -0.02122,0.0251 -0.04103,0.0516 -0.06074,0.0772 -0.01173,0.0103 -0.02727,0.0153 -0.03874,0.0254 -0.0032,0.003 -0.0045,0.008 -0.0079,0.0101 -0.0029,0.002 -0.0068,0.003 -0.01022,0.004 -0.09383,0.092 -0.0032,0.005 -0.32087,0.18653 -0.009,0.005 -0.01856,0.0134 -0.02839,0.0168 -0.0037,0.001 -0.0077,0.001 -0.01152,0.002 -0.01973,0.007 -0.03736,0.0195 -0.05827,0.0215 -0.01711,0.006 -0.03129,0.0198 -0.05076,0.0171 -0.01501,0.005 -0.02719,0.017 -0.04226,0.022 -0.0207,0.003 -0.04246,-0.002 -0.0633,-0.003 -0.01788,-0.003 -0.03367,-0.0101 -0.04951,-0.0188 -0.0019,-4e-4 -0.0043,-0.003 -0.0056,-0.001 -0.0015,0.001 0.0018,0.004 6.09e-4,0.006 -0.004,0.006 -0.02294,0.007 -0.02836,0.0122 -0.02385,0.007 -0.04768,0.005 -0.07193,3.2e-4 -0.02076,-0.005 -0.03995,-0.0125 -0.05965,-0.02 -0.01697,0.003 -0.03459,4e-5 -0.05155,-0.002 -0.02047,-0.004 -0.04041,-0.0103 -0.058,-0.0221 -0.01464,-0.006 -0.03333,-0.004 -0.04706,-0.0142 -0.01656,-0.008 -0.03024,-0.0116 -0.04837,-0.0136 -0.01549,-0.006 -0.029,-0.0154 -0.04377,-0.0226 -0.006,0.008 -0.02969,-0.009 -0.0368,-0.0125 -0.01271,-0.01 -0.02502,-0.0169 -0.03912,-0.0245 -0.01206,-0.01 -0.02021,-0.019 -0.0347,-0.0248 -0.01245,-0.0111 -0.02365,-0.0235 -0.03255,-0.0377 -0.0077,-0.0106 -0.01803,-0.0197 -0.01623,-0.0339 -0.0021,-0.006 -0.0094,-0.0155 -0.0159,-0.0209 -0.01026,-0.0127 -0.01552,-0.0274 -0.02496,-0.0407 -0.007,-0.0145 -0.007,-0.0273 -0.006,-0.0432 4.24e-4,-0.007 0.0012,-0.0147 2.7e-5,-0.0207 -0.0057,-0.008 -0.02402,-0.002 -0.03179,-0.0126 -0.01557,-0.008 -0.02829,-0.0127 -0.04546,-0.0159 -0.01585,-0.006 -0.0317,-0.0176 -0.04896,-0.0151 -0.02265,-1.8e-4 -0.04529,8e-5 -0.06794,-4e-5 -0.02345,-2e-5 -0.04698,-1.3e-4 -0.07029,-0.003 -0.02194,-0.003 -0.04279,-0.01 -0.06295,-0.0191 -0.01936,-0.005 -0.04064,-10e-4 -0.05975,-0.009 -0.01638,-0.005 -0.03375,-0.0172 -0.04931,-0.0192 -0.01761,-0.005 -0.03317,-0.0134 -0.04599,-0.0265 -0.01442,-0.0111 -0.0317,-0.0187 -0.04327,-0.0336 -0.01245,-0.009 -0.02402,-0.0182 -0.03688,-0.026 -0.01145,-0.0109 -0.0227,-0.0219 -0.0333,-0.0335 -0.0105,-0.0134 -0.02413,-0.024 -0.03187,-0.0394 -0.01034,-0.0151 -0.01532,-0.0305 -0.0227,-0.0469 -0.0092,-0.0151 -0.01259,-0.0278 -0.0145,-0.0451 -0.0056,-0.0159 -0.01775,-0.0281 -0.02211,-0.0444 -0.0044,-0.0172 -0.01194,-0.0316 -0.02264,-0.0459 -0.0029,-0.0164 -0.0086,-0.0311 -0.01691,-0.0456 -0.0086,-0.0187 -0.0064,-0.0389 -0.01215,-0.0588 -0.0077,-0.0217 -0.02038,-0.0414 -0.02154,-0.0649 -0.0051,-0.0247 -0.0165,-0.0474 -0.02162,-0.0718 -0.0047,-0.023 -0.01207,-0.045 -0.02146,-0.0665 -7.4e-4,-0.018 -0.0027,-0.0358 -0.0093,-0.0528 -0.0095,-0.0213 -0.01772,-0.041 -0.01834,-0.0646 -0.0045,-0.0196 -0.01584,-0.0361 -0.02063,-0.0552 -0.0025,-0.0177 -0.0087,-0.0341 -0.01723,-0.0499 -0.0076,-0.0198 -0.0054,-0.0408 -0.012,-0.0611 -0.0073,-0.0243 -0.02056,-0.0464 -0.02392,-0.0718 -0.0089,-0.0293 -0.02375,-0.0563 -0.02879,-0.0868 -0.01157,-0.0363 -0.02509,-0.0717 -0.03646,-0.10806 -0.01446,-0.0383 -0.02467,-0.0787 -0.03712,-0.11763 -0.0089,-0.0397 -0.01282,-0.0795 -0.01967,-0.11965 -0.0084,-0.0396 -0.01817,-0.0786 -0.02327,-0.11876 -0.0093,-0.0401 -0.01769,-0.0798 -0.01996,-0.121 -0.007,-0.0475 -0.01911,-0.0942 -0.01914,-0.14249 -0.0045,-0.0479 -0.01323,-0.0949 -0.02553,-0.14149 -0.0054,-0.0479 -0.01727,-0.095 -0.0187,-0.14315 -0.0012,-0.0467 -0.0031,-0.0935 -0.01107,-0.13964 -0.0084,-0.0473 -0.01685,-0.0941 -0.01765,-0.14237 -0.0052,-0.0444 -0.01663,-0.088 -0.01848,-0.13245 -1.66e-4,-0.034 -5.9e-5,-0.0681 -1.57e-4,-0.10215 1.07e-4,-0.0352 7.94e-4,-0.0704 2.91e-4,-0.10564 -3.97e-4,-0.0369 -6.35e-4,-0.074 -0.0052,-0.11066 -0.0063,-0.0473 -0.01848,-0.0935 -0.02337,-0.14096 -0.0063,-0.0551 -0.01924,-0.10911 -0.02376,-0.16434 -0.007,-0.0636 -0.0214,-0.12536 -0.03412,-0.18791 -0.01635,-0.0777 -0.03568,-0.15477 -0.05384,-0.23206 -0.01671,-0.0835 -0.03468,-0.1667 -0.05222,-0.25002 -0.01533,-0.0657 -0.03082,-0.13026 -0.06363,-0.19004 -0.03067,-0.0651 -0.05772,-0.1319 -0.08632,-0.19797 0,0 0.305741,-0.17171 0.305741,-0.17171 z"
       inkscape:connector-curvature="0"
       style="stroke-width:0.26458332" />
    <path
       id="path1025"
       d="m 15.898831,292.83431 c 0.05293,0.0415 0.113615,0.0733 0.176246,0.0974 0.05132,0.0285 0.10889,0.0335 0.164972,0.0455 0.0673,0.0148 0.136191,0.0185 0.204833,0.0211 0.07319,0.006 0.145572,-0.007 0.21819,-0.0139 0.0727,-0.005 0.144932,-0.006 0.217117,-0.0164 0.06821,-0.005 0.135122,-0.0161 0.20248,-0.0273 0.04589,-0.002 0.08835,-0.0148 0.132138,-0.0265 0.0302,-0.007 0.06101,-0.009 0.0919,-0.0103 0.03084,0.005 0.03437,-0.008 0.05972,-0.0154 0.02096,-0.007 0.04321,-0.008 0.06505,-0.009 0.0065,-2.6e-4 0.01291,-3.7e-4 0.01938,-4.3e-4 0,0 -0.285419,0.20869 -0.285419,0.20869 v 0 c -0.0059,3.4e-4 -0.01181,6.8e-4 -0.01769,0.001 -0.02037,0.003 -0.04019,0.008 -0.05923,0.0155 -0.02138,0.009 -0.04287,0.006 -0.06555,0.008 -0.02936,0.002 -0.05845,0.007 -0.08674,0.0156 -0.04341,0.012 -0.08814,0.0151 -0.132501,0.0223 -0.06731,0.0111 -0.134935,0.0183 -0.202723,0.0258 -0.07236,0.008 -0.14517,0.008 -0.217605,0.0156 -0.07351,0.007 -0.146973,0.0162 -0.220989,0.01 -0.07003,-0.004 -0.139999,-0.009 -0.208594,-0.0248 -0.05849,-0.0105 -0.1156,-0.0237 -0.168886,-0.0513 -0.06447,-0.0287 -0.12682,-0.0629 -0.183316,-0.10538 0,0 0.297234,-0.18587 0.297234,-0.18587 z"
       inkscape:connector-curvature="0"
       style="stroke-width:0.26458332" />
  </g>
</svg>
