<?xml version="1.0" encoding="UTF-8" standalone="no"?>
<!-- Created with Inkscape (http://www.inkscape.org/) -->

<svg
   xmlns:dc="http://purl.org/dc/elements/1.1/"
   xmlns:cc="http://creativecommons.org/ns#"
   xmlns:rdf="http://www.w3.org/1999/02/22-rdf-syntax-ns#"
   xmlns:svg="http://www.w3.org/2000/svg"
   xmlns="http://www.w3.org/2000/svg"
   xmlns:sodipodi="http://sodipodi.sourceforge.net/DTD/sodipodi-0.dtd"
   xmlns:inkscape="http://www.inkscape.org/namespaces/inkscape"
   width="64"
   height="64"
   viewBox="0 0 16.933333 16.933334"
   version="1.1"
   id="svg8"
   inkscape:version="0.92.1 r15371"
   sodipodi:docname="1_cat_10.svg"
   inkscape:export-filename="/home/physt/undev/repos/deep_learning/workshop/tasks/commonlearningdata/cartooncats/1_cat_10.png"
   inkscape:export-xdpi="96.000008"
   inkscape:export-ydpi="96.000008">
  <defs
     id="defs2" />
  <sodipodi:namedview
     id="base"
     pagecolor="#ffffff"
     bordercolor="#666666"
     borderopacity="1.0"
     inkscape:pageopacity="0.0"
     inkscape:pageshadow="2"
     inkscape:zoom="11.2"
     inkscape:cx="50.237003"
     inkscape:cy="29.986148"
     inkscape:document-units="mm"
     inkscape:current-layer="layer1"
     showgrid="false"
     inkscape:window-width="1920"
     inkscape:window-height="1016"
     inkscape:window-x="0"
     inkscape:window-y="27"
     inkscape:window-maximized="1"
     units="px" />
  <metadata
     id="metadata5">
    <rdf:RDF>
      <cc:Work
         rdf:about="">
        <dc:format>image/svg+xml</dc:format>
        <dc:type
           rdf:resource="http://purl.org/dc/dcmitype/StillImage" />
        <dc:title></dc:title>
      </cc:Work>
    </rdf:RDF>
  </metadata>
  <g
     inkscape:label="Layer 1"
     inkscape:groupmode="layer"
     id="layer1"
     transform="translate(0,-280.06665)">
    <path
       id="path1290"
       d="m 13.580815,288.66002 c 0.01486,0.0195 0.04304,0.0927 0.07668,0.0657 0.06199,-0.1089 0.0072,-0.008 -0.280047,0.15273 -0.0052,0.003 0.0092,-0.008 0.01302,-0.0122 0.0051,-0.006 0.0093,-0.0128 0.01362,-0.0194 0.0043,-0.007 0.02823,-0.0479 0.03115,-0.0529 0.03675,-0.0705 0.06895,-0.14301 0.110283,-0.21102 0.04746,-0.0731 0.09693,-0.14451 0.15151,-0.21243 0.04146,-0.0526 0.09136,-0.0973 0.144881,-0.13717 0.140856,-0.0904 0.276977,-0.20581 0.443584,-0.23661 0.04744,-0.002 0.09313,-0.01 0.139471,-0.0199 0.04032,-0.0113 0.0718,-0.005 0.111074,0.004 0.03349,0.0138 0.06551,0.0283 0.09458,0.0502 0.02975,0.028 0.04984,0.0611 0.063,0.0994 0.01764,0.044 0.02737,0.0901 0.0332,0.13697 0.0015,0.0467 0.0098,0.0924 0.01829,0.13821 0.0077,0.0406 0.0088,0.082 0.01022,0.12315 0.0063,0.04 0.01451,0.0794 0.01886,0.1197 0.0025,0.0444 0.01383,0.0876 0.02112,0.1314 0.0059,0.0359 0.0068,0.0723 0.0078,0.10861 5.7e-5,0.0301 0.0028,0.0603 -0.0038,0.0899 -0.0078,0.0209 -0.01294,0.0424 -0.01685,0.0643 -0.0019,0.0173 -0.0029,0.0349 -0.0022,0.0523 0.0054,0.11962 -0.0016,0.0103 -0.31358,0.14801 -0.0025,10e-4 0.0073,-0.009 0.0146,-0.0212 0.0122,-0.0258 0.02135,-0.0519 0.02857,-0.0797 0.01492,-0.0374 0.0211,-0.0767 0.02482,-0.11646 0.0059,-0.0462 0.0016,-0.0913 -0.006,-0.13681 -0.0067,-0.0436 -0.01808,-0.0867 -0.03124,-0.12881 -0.01181,-0.0348 -0.02048,-0.0704 -0.03778,-0.10299 -0.01834,-0.0308 -0.04375,-0.0566 -0.06876,-0.082 -0.02724,-0.0169 -0.05903,-0.0291 -0.09011,-0.038 -0.03146,0.002 -0.06127,0.0176 -0.08833,0.0333 0.518417,-0.3058 0.294423,-0.18432 0.191912,-0.0909 -0.03635,0.0275 -0.05495,0.0646 -0.07218,0.10546 -0.01515,0.0374 -0.0212,0.0769 -0.02414,0.11684 9e-4,0.0377 0.01111,0.0743 0.01697,0.11133 0.0031,0.0339 0.01433,0.0662 0.02137,0.0994 0.0098,0.0309 0.01818,0.0624 0.03078,0.0923 0.01109,0.0248 0.01498,0.0516 0.02646,0.076 0.0069,0.0191 0.01206,0.0196 0.02988,0.0205 0.0023,9e-5 0.005,0.002 0.007,2.9e-4 0.0025,-0.002 0.0028,-0.005 0.0048,-0.008 0.002,-0.002 0.0095,-0.007 0.0069,-0.006 -0.508094,0.28584 -0.37278,0.21783 -0.272272,0.15385 0.02441,-0.0252 0.04015,-0.0565 0.05576,-0.0875 0.02185,-0.0411 0.03479,-0.0862 0.04795,-0.13068 0.01179,-0.0534 0.0233,-0.10707 0.03136,-0.16122 0.0069,-0.0604 0.01952,-0.11978 0.02678,-0.18012 0.002,-0.0518 0.01185,-0.10246 0.02026,-0.15343 0.0043,-0.0454 0.01193,-0.09 0.02451,-0.13392 0.0087,-0.0326 0.02353,-0.0619 0.03966,-0.0912 0.07069,-0.11754 0.226449,-0.15006 0.343045,-0.21455 0.02142,0.008 0.03096,0.0259 0.03478,0.0476 0.0041,0.0224 -0.01218,0.0374 -0.01774,0.0575 -0.0053,0.0229 -0.006,0.0466 -0.0063,0.0701 -2.51e-4,0.0203 -2.09e-4,0.0406 1.63e-4,0.0609 5.9e-5,0.0161 -5.3e-5,0.0322 1.64e-4,0.0483 0.03161,0.13122 -0.219532,0.27037 -0.323606,0.18263 -0.0096,-0.0181 -0.01988,-0.036 -0.02709,-0.0554 -0.01173,-0.0227 -0.02858,-0.0416 -0.04024,-0.0645 -0.01743,-0.0262 -0.03371,-0.0531 -0.04925,-0.0805 -0.01568,-0.0278 -0.03143,-0.0555 -0.04871,-0.0824 -0.0187,-0.0268 -0.03898,-0.0523 -0.0578,-0.0791 -0.01323,-0.027 -0.03244,-0.05 -0.04954,-0.0745 -0.01786,-0.0174 -0.03242,-0.038 -0.04878,-0.0569 -0.01558,-0.0195 -0.03339,-0.0374 -0.04786,-0.0577 -0.01248,-0.0161 -0.02459,-0.0326 -0.03702,-0.049 -0.01613,-0.0163 -0.02424,-0.0362 -0.02938,-0.0582 -0.0013,-0.0167 -0.01199,-0.0296 -0.0184,-0.0444 -0.0055,-0.0126 -0.01538,-0.0227 -0.02244,-0.0353 -0.0033,-0.018 -0.01594,-0.0208 -0.02669,-0.0312 -0.01099,-0.0149 -0.02111,-0.0147 -0.03802,-0.0159 -0.02399,0.002 -0.03631,-0.0145 -0.04439,-0.0353 -0.04237,-0.14484 0.222355,-0.19658 0.352912,-0.19623 0.01145,-0.003 0.0292,0.006 0.03993,7.7e-4 0.0027,-0.001 0.0078,-0.009 0.0052,-0.007 -0.09933,0.0568 -0.197388,0.11584 -0.296081,0.17376 0.01317,0.0184 -0.01574,0.0156 -0.02673,0.016 -0.02218,0.003 -0.041,-0.0114 -0.05383,-0.0284 -0.0076,-0.0132 -0.01361,-0.0267 -0.0228,-0.0389 -0.0094,-0.007 -0.0086,-0.0219 -0.01732,-0.0267 -0.0061,-0.0172 -0.01783,-0.0211 -0.02738,-0.0331 -0.0093,-0.0124 -0.01356,-0.0261 -0.02458,-0.0372 -0.0099,-0.009 -0.01409,-0.0239 -0.01777,-0.0367 -0.0027,-0.0119 -0.0023,-0.0241 -0.0023,-0.0362 4.5e-4,-0.008 0.0041,6.4e-4 -0.01098,10e-4 -0.03906,0.002 -0.02919,0.01 -0.05003,-0.0337 0.0061,-0.0113 0.0027,-0.006 0.01037,-0.0165 0,0 0.323818,-0.13973 0.323818,-0.13973 v 0 c -0.0072,0.009 -0.0035,0.005 -0.01086,0.0125 -0.02953,-0.0433 -0.02249,-0.0297 0.01611,-0.025 0.01667,0.006 0.03622,0.0217 0.03641,0.0408 -5.8e-5,0.01 2.91e-4,0.0196 -7.67e-4,0.0293 8.2e-4,0.008 0.0019,0.0155 0.0081,0.021 0.0097,0.0116 0.0165,0.0242 0.02421,0.0368 0.01218,0.008 0.01852,0.0195 0.02628,0.0309 0.0093,0.0105 0.013,0.0216 0.0206,0.0325 0.0082,0.0117 0.0157,0.0233 0.02115,0.0364 0.013,0.006 0.02272,0.004 0.03692,0.004 0.03024,0.002 0.05155,0.0105 0.06119,0.0422 -0.323595,0.2045 -0.190612,0.18645 -0.353657,0.18987 -0.0098,6.6e-4 -0.0193,10e-4 -0.02885,0.004 -0.003,8.4e-4 -0.01154,0.005 -0.0089,0.003 0.296391,-0.17567 0.364444,-0.0836 0.282547,-0.18411 -0.01245,-0.008 0.01772,-0.005 0.02083,-0.002 0.01911,0.006 0.03397,0.0161 0.04766,0.0305 0.01474,0.009 0.02992,0.0256 0.03409,0.0427 0.0071,0.0138 0.02,0.0239 0.02427,0.039 0.0055,0.0172 0.0206,0.0315 0.0213,0.0503 0.0025,0.0177 0.0082,0.031 0.02118,0.044 0.01269,0.0163 0.02481,0.0332 0.03723,0.0497 0.01485,0.0192 0.03102,0.0374 0.04684,0.0557 0.01644,0.0202 0.03269,0.0406 0.05009,0.0601 0.01667,0.0247 0.0363,0.0475 0.04921,0.0746 0.01855,0.0273 0.03996,0.0525 0.05834,0.08 0.01778,0.0272 0.03336,0.0558 0.04921,0.0841 0.01641,0.0277 0.03311,0.0551 0.05099,0.082 0.01193,0.0243 0.03138,0.0437 0.04299,0.0682 0.0036,0.0116 0.01399,0.0268 0.01591,0.0355 0.122497,0.0376 -0.386766,0.08 -0.288785,0.18106 0.003,0.003 -0.0027,-0.0161 2.91e-4,-0.013 1.95e-4,-0.0161 5.6e-5,-0.0322 1.5e-5,-0.0483 2.33e-4,-0.0206 9.1e-5,-0.0411 1.42e-4,-0.0617 3.44e-4,-0.0254 4.23e-4,-0.0509 0.0031,-0.0763 0.0025,-0.0158 0.0014,-0.0442 0.02164,-0.0476 6.08e-4,-0.0124 0.0059,-0.004 -0.0023,0.002 0.09816,-0.0566 0.196933,-0.11211 0.294482,-0.16973 0.0024,-10e-4 -0.0059,-6.6e-4 -0.0083,6.8e-4 -0.01086,0.006 -0.01073,0.0269 -0.02633,0.0271 -0.01674,0.0279 -0.03585,0.0538 -0.04391,0.0859 -0.01699,0.0408 -0.02443,0.0847 -0.02777,0.12855 -0.0075,0.0509 -0.02072,0.10079 -0.02159,0.1525 -0.0067,0.0608 -0.01885,0.12053 -0.02681,0.181 -0.007,0.0554 -0.01843,0.10985 -0.02829,0.16479 -0.01173,0.0466 -0.02654,0.0928 -0.04436,0.13733 -0.01714,0.0315 -0.0294,0.0655 -0.05111,0.0944 -0.0051,0.01 -0.0067,0.016 -0.01636,0.0217 -0.07877,0.046 -0.218201,0.2131 -0.344809,0.1749 -0.02248,-0.009 -0.03733,-0.0245 -0.04591,-0.0471 -0.01223,-0.0252 -0.01714,-0.0515 -0.02662,-0.0779 -0.01346,-0.0322 -0.02264,-0.0656 -0.0343,-0.0986 -0.006,-0.0341 -0.01806,-0.0667 -0.02217,-0.10094 -0.005,-0.0395 -0.01417,-0.0784 -0.01944,-0.11787 0.0017,-0.0431 0.0056,-0.0858 0.01974,-0.1269 0.01533,-0.0433 0.02981,-0.089 0.0657,-0.11997 0.121638,-0.11513 0.235824,-0.18576 0.407094,-0.26085 0.03438,-0.0131 0.06767,-0.0258 0.104304,-0.0117 0.03501,0.0132 0.0719,0.0257 0.09925,0.0523 0.02656,0.0282 0.05439,0.0562 0.07362,0.0902 0.01877,0.0343 0.02883,0.0714 0.04045,0.10858 0.01493,0.0433 0.02482,0.0889 0.0333,0.13381 0.0081,0.048 0.01608,0.0953 0.01006,0.14423 -0.0026,0.0418 -0.0058,0.0841 -0.0201,0.1238 -0.01103,0.0256 -0.0079,0.058 -0.0278,0.0788 -0.019,0.12279 -0.336175,0.32145 -0.334844,0.18376 7.14e-4,-0.0187 -2.04e-4,-0.0374 0.0012,-0.0561 0.0013,-0.0242 0.0064,-0.048 0.01408,-0.071 0.01197,-0.0258 0.01037,-0.0515 0.0095,-0.0798 -8.9e-5,-0.0349 -9e-4,-0.0699 -0.0051,-0.10456 -0.0062,-0.0446 -0.01803,-0.0884 -0.02165,-0.1332 -0.0038,-0.0412 -0.011,-0.0816 -0.02054,-0.12188 -3.7e-4,-0.0396 -0.0015,-0.0794 -0.0075,-0.11869 -0.0075,-0.0467 -0.01874,-0.0927 -0.01888,-0.14023 -0.0045,-0.0447 -0.01234,-0.0888 -0.03036,-0.13037 -0.0097,-0.0314 -0.02611,-0.0587 -0.05186,-0.0797 -0.02684,-0.0171 -0.0559,-0.0308 -0.08693,-0.0383 -0.03465,-0.006 -0.06779,-0.002 -0.101999,0.007 -0.04596,0.008 -0.09253,0.011 -0.138216,0.0207 -0.02055,0.006 -0.02548,0.007 -0.04524,0.0159 -0.0077,0.003 -0.02993,0.0157 -0.02265,0.0114 0.488651,-0.28713 0.332899,-0.19262 0.227426,-0.13171 -0.05405,0.0382 -0.107445,0.0784 -0.149988,0.12973 -0.05599,0.0662 -0.106532,0.13613 -0.153557,0.20897 -0.04484,0.0649 -0.07599,0.13715 -0.109451,0.20838 -0.07958,0.14516 -0.141539,0.28547 -0.380088,0.2821 -0.04735,-0.0157 -0.06896,-0.0567 -0.09549,-0.0965 0,0 0.302715,-0.17738 0.302715,-0.17738 z"
       inkscape:connector-curvature="0"
       style="stroke-width:0.26458332" />
    <path
       id="path1294"
       d="m 13.940576,287.62231 c -0.03615,-0.0577 -0.07925,-0.11035 -0.124143,-0.16132 -0.04531,-0.0502 -0.09311,-0.0981 -0.14083,-0.14594 -0.04592,-0.0446 -0.08899,-0.0922 -0.137675,-0.13381 -0.04962,-0.042 -0.09996,-0.0832 -0.148257,-0.12663 -0.04303,-0.0423 -0.09069,-0.0793 -0.139524,-0.11447 -0.04347,-0.0345 -0.08293,-0.0738 -0.124494,-0.11071 -0.04275,-0.0401 -0.08973,-0.0757 -0.137805,-0.10931 -0.04196,-0.0341 -0.08796,-0.061 -0.137036,-0.0834 -0.04547,-0.0228 -0.093,-0.0435 -0.142418,-0.056 -0.05598,-0.0179 -0.112598,-0.0344 -0.169974,-0.0473 -0.0611,-0.007 -0.120737,-0.0221 -0.181786,-0.03 -0.05704,-0.007 -0.114513,-0.007 -0.171865,-0.008 -0.06833,-0.003 -0.135773,-1.9e-4 -0.203568,0.008 -0.06814,0.007 -0.135767,0.0121 -0.203298,0.0231 -0.0599,0.006 -0.11752,0.0232 -0.177013,0.0316 -0.05851,0.015 -0.117817,0.0285 -0.174673,0.0491 -0.05468,0.0202 -0.110158,0.0391 -0.163149,0.0638 -0.130087,0.0499 -0.392032,0.21009 0.131901,-0.0902 -0.166481,0.10613 -0.712456,0.40815 -0.111599,0.0675 0.01924,-0.0109 -0.03688,0.0244 -0.0549,0.0373 -0.05512,0.0445 -0.110913,0.0884 -0.163626,0.13572 -0.0519,0.0515 -0.100719,0.106 -0.150926,0.15915 -0.04829,0.0546 -0.09553,0.11019 -0.142755,0.16574 -0.04962,0.0541 -0.09803,0.10922 -0.146234,0.16459 -0.04228,0.0461 -0.07941,0.0965 -0.119772,0.14424 -0.04051,0.0491 -0.07783,0.10067 -0.116144,0.15146 -0.03158,0.0465 -0.07015,0.0875 -0.100423,0.13486 -0.02676,0.0406 -0.05776,0.0781 -0.08579,0.11776 -0.0301,0.0374 -0.05964,0.0748 -0.08657,0.11456 -0.02317,0.0346 -0.04908,0.0673 -0.06947,0.10363 -0.01816,0.0321 -0.0379,0.063 -0.052796,0.0969 -0.017605,0.0255 -0.023043,0.0561 -0.034855,0.084 -0.013613,0.0239 -0.014653,0.0519 -0.024551,0.0769 -0.01003,0.02 -0.015835,0.0408 -0.019066,0.0628 -0.00204,0.0206 -0.00212,0.0413 -0.00204,0.062 0.00246,0.02 -0.010581,0.0356 -0.017039,0.0533 -0.00477,0.0126 -0.00519,0.026 -0.00614,0.0393 0.00429,0.0202 -0.00487,0.0283 -0.013711,0.0438 -0.011483,0.01 -0.00421,0.0259 -0.012385,0.0367 -0.00796,0.0108 -0.014631,0.0205 -0.018076,0.0335 -0.00323,0.009 -0.00288,0.019 -0.00324,0.0286 0.00348,0.0186 -0.00518,0.0311 -0.013229,0.0469 -0.00991,0.0108 -0.00918,0.0272 -0.010165,0.041 -4.233e-4,0.0151 -5.027e-4,0.0303 -1.611e-4,0.0454 -2.466e-4,0.0162 3.76e-5,0.0325 -1.294e-4,0.0487 2.424e-4,0.0191 1.527e-4,0.0382 -6.614e-4,0.0573 -0.00307,0.0157 -0.011991,0.0287 -0.01864,0.0431 9.26e-4,0.0188 -0.01343,0.0276 -0.020807,0.0423 -0.00353,0.0174 -0.017283,0.0288 -0.023966,0.0446 -0.00272,0.0174 -0.017677,0.0279 -0.023934,0.0445 -0.00697,0.0169 -0.00444,0.0355 -0.00942,0.0528 -0.010306,0.0142 -0.014729,0.0306 -0.018333,0.0475 8.732e-4,0.0195 -0.00778,0.035 -0.015835,0.052 -0.00699,0.008 -0.00877,0.0205 -0.00963,0.0313 -5.821e-4,0.0121 -3.704e-4,0.0242 -5.292e-4,0.0363 0.00442,0.0204 -0.00481,0.0304 -0.013512,0.0465 -0.00602,0.008 -0.00792,0.0164 -0.00905,0.0263 -0.00269,0.0119 0.00607,0.0355 -0.010737,0.0376 -0.010067,0.007 -0.00467,0.0138 -0.00856,0.0229 -0.00172,0.004 -0.00751,0.005 -0.010618,0.008 -0.00905,0.0116 -0.015822,0.022 -0.027376,0.0312 -0.00832,0.0106 -0.017423,0.018 -0.02769,0.0268 -2.545e-4,0.005 -0.00554,-3.2e-4 -0.00666,0.002 -0.00506,0.009 -0.00243,0.015 -0.011996,0.0268 -0.1041667,0.0855 -0.2195854,0.18369 -0.3559805,0.20041 -0.00563,0.004 -0.012822,-0.002 -0.018449,7.4e-4 -0.00282,10e-4 -0.00332,0.005 -0.0058,0.007 -0.00856,0.006 -0.021712,0.009 -0.0318,0.0109 -0.024146,8.2e-4 -0.0394,0.0164 -0.061494,0.0245 -0.097547,0.0766 -0.011943,0.009 0.2818712,-0.16069 0.00289,-0.002 -0.00574,0.003 -0.0086,0.005 -0.010835,0.007 -0.019698,0.0134 -0.029041,0.022 -0.012644,0.005 -0.020407,0.0164 -0.03188,0.023 -1.0393931,0.59995 0.7035551,-0.4085 -0.3358123,0.19446 0.00963,-0.005 -0.028259,0.0146 -0.021373,0.0106 0.9705121,-0.56123 -0.7117796,0.41324 0.2606525,-0.14884 -0.1015818,0.0776 -0.2411577,0.14385 -0.335415,0.19408 -0.098583,0.0525 0.3834485,-0.22892 0.2909996,-0.16622 -0.1399826,0.0949 -0.2115722,0.13045 -0.3246749,0.187 0.6327174,-0.46601 0.3697345,-0.21279 0.2774852,-0.15927 -0.1211964,0.0703 -0.2181762,0.16715 -0.3509767,0.19058 -0.0151,0.018 -0.03953,0.0221 -0.061861,0.0236 -0.025159,0.007 -0.040684,0.0179 -0.068661,0.0218 -0.00496,3.4e-4 -0.01011,-3.7e-4 -0.014883,0.001 -0.00317,9.3e-4 -0.01882,0.0115 -0.022167,0.0131 -0.012361,0.006 -0.02672,0.007 -0.039932,0.009 -0.031135,6.1e-4 -0.058748,0.0136 -0.089073,0.0207 -0.028134,0.0154 -0.059495,0.0241 -0.091257,0.0277 -0.033881,0.002 -0.067836,0.002 -0.101768,0.002 -0.032466,1.1e-4 -0.064931,-2e-5 -0.097397,-2e-4 -0.032711,-1e-5 -0.065422,7e-5 -0.098133,-3e-5 -0.030459,1.8e-4 -0.060918,1.4e-4 -0.091378,-1e-5 -0.034541,-10e-4 -0.069699,0.004 -0.1031785,-0.005 -0.031081,-0.0133 -0.065442,-0.0111 -0.096761,-0.0224 -0.034797,-0.0118 -0.071451,-0.0162 -0.1079553,-0.0185 -0.03838,-0.0116 -0.077813,-0.0189 -0.1176866,-0.0225 -0.033081,-0.0134 -0.06785,-0.0201 -0.1031825,-0.0237 -0.033842,-0.0151 -0.072086,-0.0153 -0.1059133,-0.029 -0.037357,-0.0109 -0.074221,-0.0234 -0.1120917,-0.0326 -0.036401,-0.0116 -0.074641,-0.0211 -0.1099016,-0.036 -0.039669,-0.0109 -0.078554,-0.0238 -0.1181015,-0.0353 -0.03573,-0.0151 -0.070503,-0.032 -0.1066025,-0.0462 -0.034203,-0.012 -0.067036,-0.026 -0.1031208,-0.0317 -0.035864,-0.0133 -0.072663,-0.0216 -0.1083014,-0.0354 -0.035517,-0.0115 -0.068334,-0.0299 -0.1026753,-0.0445 -0.033548,-0.0105 -0.064375,-0.0276 -0.09872,-0.0356 -0.031515,-0.0105 -0.065018,-0.0185 -0.095669,-0.0317 -0.035534,-0.0156 -0.070776,-0.0327 -0.1055378,-0.0504 -0.033481,-0.018 -0.070312,-0.0281 -0.1048975,-0.0433 -0.032607,-0.0111 -0.06357,-0.026 -0.096494,-0.0362 -0.029188,-0.0219 -0.065883,-0.0237 -0.098431,-0.037 -0.035424,-0.0107 -0.071049,-0.0187 -0.1064446,-0.0294 -0.038072,-0.006 -0.074304,-0.0179 -0.1113303,-0.0285 -0.039471,-0.008 -0.079026,-0.0174 -0.1168889,-0.0314 -0.042408,-0.0102 -0.082667,-0.0267 -0.1246174,-0.0382 -0.038131,-0.008 -0.074147,-0.0214 -0.1126067,-0.0282 -0.045502,-0.009 -0.089946,-0.0206 -0.1361863,-0.0261 -0.047491,-0.008 -0.096541,-0.0147 -0.1428999,-0.0282 -0.042012,-0.0128 -0.085113,-0.0197 -0.1288545,-0.0222 -0.046524,-0.0123 -0.094329,-0.0184 -0.1421823,-0.0225 -0.046999,-7.2e-4 -0.092544,-0.0126 -0.1390094,-0.0192 -0.052936,-0.001 -0.1040977,-0.012 -0.156173,-0.02 -0.055569,-0.008 -0.1117163,-0.01 -0.167754,-0.0107 -0.053314,-6.6e-4 -0.1066329,-3.7e-4 -0.1599491,-2.3e-4 -0.049944,2.6e-4 -0.099888,8e-5 -0.1498325,0 -0.055848,1.3e-4 -0.1116957,-8e-5 -0.1675439,-4e-5 -0.059501,0.011 -0.1205593,0.0124 -0.1797593,0.0244 -0.057677,0.0152 -0.1175692,0.015 -0.1759505,0.025 -0.067228,0.009 -0.1337382,0.0219 -0.2008569,0.0315 -0.069657,0.0155 -0.1391713,0.0317 -0.2091859,0.0456 -0.070666,0.0188 -0.1426668,0.031 -0.2131177,0.0507 -0.079321,0.0261 -0.1581986,0.0536 -0.236089,0.0836 -0.083655,0.0303 -0.1703901,0.0505 -0.2552728,0.0768 -0.088626,0.0269 -0.174393,0.0619 -0.2618777,0.0921 -0.092675,0.0298 -0.1846957,0.059 -0.2735118,0.0992 -0.083669,0.0346 -0.1688886,0.0658 -0.2515306,0.10279 -0.082943,0.0381 -0.1690722,0.0684 -0.2512108,0.10846 -0.084461,0.0356 -0.1695817,0.0702 -0.251448,0.11144 -0.088944,0.0368 -0.17631721,0.0766 -0.26168987,0.12109 -0.074073,0.0383 -0.15154997,0.0695 -0.22485894,0.10916 -0.0650355,0.0357 -0.13261602,0.0664 -0.19777678,0.10181 0.0899663,-0.0516 0.17969192,-0.10365 0.26989904,-0.15485 0.00941,-0.005 -0.0183105,0.0115 -0.0274812,0.0173 -0.009483,0.006 -0.0188058,0.0122 -0.0284809,0.0178 -0.13750481,0.0799 -0.25332918,0.14673 -0.38393584,0.21817 -0.0610553,0.0265 -0.12262432,0.0529 -0.180868,0.0854 -0.05609009,0.0273 -0.10923432,0.0601 -0.16559691,0.0868 -0.04711124,0.0213 -0.0909997,0.0487 -0.1399627,0.0657 -0.037682,0.0148 -0.0719156,0.0343 -0.10772694,0.0527 -0.0220004,0.0109 -0.0110606,0.005 -0.0328196,0.0164 0,0 0.27422337,-0.21949 0.27422337,-0.21949 v 0 c 0.02173965,-0.011 0.01075783,-0.005 0.03294104,-0.0169 0.0352981,-0.0184 0.07170974,-0.0342 0.10867562,-0.0491 0.04631085,-0.0211 0.09099065,-0.0456 0.13713091,-0.0671 0.0549564,-0.029 0.10936448,-0.0591 0.1648453,-0.0871 0.0598738,-0.0296 0.12100626,-0.0566 0.18104543,-0.0859 0.018656,-0.01 0.0739374,-0.0405 0.0557151,-0.0299 -0.0895791,0.052 -0.17964293,0.10325 -0.26914573,0.15542 -0.009534,0.006 0.0198358,-0.01 0.0292206,-0.0156 0.009348,-0.006 0.0173805,-0.0136 0.0268592,-0.0191 0.10855526,-0.0637 0.2180822,-0.1258 0.32712331,-0.1887 0.0658883,-0.0336 0.13226857,-0.0663 0.19748267,-0.10118 0.0742846,-0.0365 0.14988312,-0.0703 0.22359322,-0.10801 0.086059,-0.0433 0.1746549,-0.0809 0.2624093,-0.12063 0.083227,-0.0385 0.1675238,-0.0745 0.2515977,-0.11111 0.083389,-0.0378 0.1692102,-0.0697 0.2523713,-0.10794 0.083451,-0.0346 0.1675277,-0.0677 0.2509081,-0.10249 0.089799,-0.0378 0.1830183,-0.0649 0.2748492,-0.0972 0.087287,-0.032 0.1744885,-0.0641 0.2635344,-0.0911 0.085287,-0.0243 0.1708555,-0.0479 0.2540367,-0.0789 0.079063,-0.0286 0.1577057,-0.0587 0.2387775,-0.0813 0.071327,-0.0178 0.1433595,-0.0325 0.2148351,-0.0496 0.069942,-0.0148 0.1395883,-0.0312 0.2099259,-0.0441 0.067154,-0.0112 0.1343253,-0.022 0.2017133,-0.0317 0.058806,-0.007 0.1176306,-0.0134 0.1756778,-0.0257 0.060966,-0.008 0.1220954,-0.0163 0.1834692,-0.02 0.0559,4e-5 0.1118,-1.7e-4 0.1677004,-8e-5 0.050066,-1.3e-4 0.1001323,-4e-4 0.1501994,-3e-4 0.053287,4e-5 0.1065813,1e-4 0.159856,0.001 0.05709,0.002 0.1141785,0.005 0.1706059,0.0143 0.052054,0.009 0.1041467,0.0141 0.1566143,0.0194 0.045971,0.007 0.091768,0.0155 0.1383901,0.0176 0.047428,0.006 0.094286,0.015 0.1415267,0.0219 0.044869,0.005 0.088538,0.015 0.131986,0.0271 0.046678,0.01 0.093439,0.0198 0.1408615,0.0251 0.046315,0.008 0.091496,0.0199 0.1377702,0.0277 0.038475,0.009 0.076266,0.0206 0.1144508,0.0307 0.041477,0.0135 0.083001,0.0266 0.1247955,0.0391 0.038794,0.0109 0.077864,0.0204 0.1169659,0.03 0.036766,0.011 0.074235,0.0186 0.1112076,0.0288 0.035786,0.0105 0.072749,0.0169 0.1076401,0.0305 0.034002,0.01 0.066889,0.021 0.098444,0.037 0.032416,0.0125 0.065121,0.0242 0.097158,0.0376 0.036465,0.0131 0.071783,0.0288 0.1065996,0.0458 0.033815,0.017 0.068042,0.0338 0.1035311,0.0469 0.031524,0.01 0.062316,0.0214 0.094244,0.0296 0.034204,0.0117 0.067393,0.0264 0.1009875,0.0396 0.033464,0.0152 0.066794,0.031 0.1017389,0.0426 0.034518,0.0121 0.070269,0.0211 0.1054063,0.0311 0.036574,0.009 0.071387,0.024 0.1067723,0.037 0.034649,0.015 0.068869,0.0313 0.1045628,0.0437 0.039641,0.013 0.08022,0.0225 0.1193933,0.0368 0.035788,0.0113 0.070894,0.0248 0.1074393,0.0336 0.038087,0.0108 0.076335,0.0211 0.1139137,0.0336 0.034267,0.008 0.068028,0.0172 0.1024316,0.024 0.034661,0.006 0.068114,0.0164 0.1024853,0.0234 0.03938,0.006 0.077821,0.0162 0.1172072,0.0216 0.037892,0.005 0.075198,0.0122 0.1117111,0.0234 0.031844,0.005 0.063346,0.0118 0.094691,0.0195 0.033268,9.8e-4 0.066546,1.8e-4 0.099823,4.5e-4 0.030469,-1.4e-4 0.060937,-1.9e-4 0.091406,0 0.032696,-8e-5 0.065393,2e-5 0.09809,1.4e-4 0.032363,-6e-5 0.064725,1.2e-4 0.097088,9e-5 0.032923,-5.3e-4 0.066229,-5.9e-4 0.098569,-0.007 0.030509,-0.008 0.059367,-0.021 0.089817,-0.0293 0.029812,-0.008 0.059029,-0.0159 0.089507,-0.0208 0.025876,-0.008 0.049633,-0.0211 0.077089,-0.0235 0.022966,-0.008 0.044926,-0.0187 0.06961,-0.0208 0.020762,-0.008 0.038902,-0.0215 0.060648,-0.0252 0.013163,-0.005 0.00867,-0.003 0.021563,-0.01 0.00358,-0.002 0.01419,-0.008 0.01066,-0.006 -0.096182,0.056 -0.1921587,0.11239 -0.2886175,0.16792 -0.004,0.002 0.00745,-0.005 0.011171,-0.008 0.1044837,-0.0606 0.2089674,-0.12118 0.3134513,-0.18177 0.1190178,-0.0686 -0.2960092,0.17059 -0.2779514,0.16118 0.026776,-0.0139 0.7729418,-0.44621 0.022828,-0.0124 -0.00748,0.004 0.031048,-0.0176 0.022611,-0.0127 0.6266448,-0.3693 0.2104642,-0.12337 0.020466,-0.0139 -0.00339,0.002 0.00582,-0.005 0.0092,-0.007 0.103673,-0.0607 0.2078654,-0.12058 0.3118527,-0.18077 0.003,-0.002 0.00608,-0.003 0.00912,-0.005 0.00363,-0.002 0.00725,-0.004 0.01088,-0.006 -0.9668002,0.56131 0.7041223,-0.40725 -0.2657899,0.1551 -0.00713,0.004 0.034588,-0.0181 0.031637,-0.0235 0.015745,-0.006 0.023124,-0.0191 0.037409,-0.0275 0.3091616,-0.18043 0.1994482,-0.13794 0.3233933,-0.1851 0.020743,-0.01 0.040795,-0.0162 0.06322,-0.0218 0.019264,-0.009 0.03713,-0.0137 0.057819,-0.0172 0.00567,-0.002 0.02137,-0.0118 0.016076,-0.009 -0.5349328,0.30713 -0.3715205,0.2072 -0.2676901,0.15603 0.00422,-0.003 0.00927,-0.007 0.014041,-0.009 0.00191,-5.6e-4 0.00515,0.002 0.00595,-2.9e-4 0.00143,-0.003 -7.937e-4,-0.007 -0.00119,-0.0106 6.615e-4,-10e-4 0.00135,-0.003 0.00201,-0.004 0.00297,-0.005 0.00794,-0.0158 0.012758,-0.0187 0.00881,-0.005 0.00991,6.9e-4 0.014351,-0.0102 0.00106,-0.001 0.00933,-0.0133 0.010213,-0.0138 0.011372,-0.006 0.010295,0.002 0.018293,-0.0148 0.00283,-0.005 0.00233,-0.0129 0.00753,-0.0142 0.00291,-7.2e-4 0.00449,0.005 0.00749,0.005 0.00116,-10e-6 0.00419,-0.0179 0.00517,-0.0187 0.00411,-0.0276 0.022167,0.006 0.018008,-0.021 5.292e-4,-0.0127 2.911e-4,-0.0264 0.00386,-0.0383 0.00257,-0.006 0.00506,-0.0179 0.00908,-0.0228 0.00249,-0.003 0.00913,10e-4 0.011488,-0.002 0.00153,-0.002 -1.43e-5,-0.005 -2.14e-5,-0.008 -2.614e-4,-0.0125 -3.704e-4,-0.0251 -3.175e-4,-0.0376 3.86e-5,-0.0151 7.673e-4,-0.03 0.00303,-0.045 0.00465,-0.009 0.00872,-0.0222 0.01533,-0.0292 0.00146,-0.002 0.00484,-5.1e-4 0.00583,-0.002 0.00148,-0.003 3.175e-4,-0.006 5.027e-4,-0.009 8.467e-4,-0.0205 0.00443,-0.041 0.012208,-0.06 0.00334,-0.003 0.00891,-0.004 0.010607,-0.008 0.00435,-0.0106 -0.00257,-0.0268 0.00198,-0.0377 0.00353,-0.0144 0.00557,-0.0448 0.023357,-0.0455 0.00471,-0.0176 0.0076,-0.0342 0.023267,-0.0457 0.00464,-0.0162 0.00629,-0.03 0.023508,-0.0372 8.996e-4,-0.017 0.00502,-0.034 0.017642,-0.046 0.011068,-0.0111 0.00271,-0.0332 0.00497,-0.0481 -1.892e-4,-0.0161 6.99e-5,-0.0322 -3.175e-4,-0.0483 1.955e-4,-0.0156 -8.6e-5,-0.0312 1.215e-4,-0.0467 -1.477e-4,-0.0185 8.202e-4,-0.0371 0.00269,-0.0555 0.00317,-0.006 0.00916,-0.0236 0.014467,-0.0265 0.00191,-10e-4 0.00459,0.003 0.00632,0.002 0.00169,-10e-4 -4.08e-5,-0.004 -6.09e-5,-0.006 -3.969e-4,-0.0116 -5.291e-4,-0.0234 -3.12e-5,-0.0349 0.00249,-0.0158 0.00308,-0.0324 0.012935,-0.0455 0.011639,-0.0214 -0.00494,0.004 0.010639,-0.004 0.00551,-0.003 -0.00404,-0.0253 0.00321,-0.0289 0.00241,-0.006 0.00498,-0.0181 0.00877,-0.0224 0.00196,-0.002 0.00985,-5.8e-4 0.01174,-3.4e-4 0.00164,-0.002 -1.62e-5,-0.005 -2.41e-5,-0.007 -4.233e-4,-0.0157 3.44e-4,-0.0317 0.00257,-0.0471 0.00296,-0.0152 0.00631,-0.0374 0.021309,-0.045 4.95e-5,-0.0217 -1.177e-4,-0.0434 9.79e-4,-0.0651 0.00114,-0.0247 0.00359,-0.0502 0.014539,-0.0726 0.00313,-0.007 0.0087,-0.0128 0.011295,-0.0199 0.00655,-0.0181 0.00164,-0.0403 0.013576,-0.0571 0.00355,-0.009 0.00929,-0.016 0.012443,-0.0247 0.00746,-0.0205 0.00778,-0.0443 0.021005,-0.063 0.021061,-0.0298 0.029528,-0.0686 0.053535,-0.0973 0.020751,-0.0372 0.041619,-0.0732 0.068428,-0.10654 0.027218,-0.0397 0.052154,-0.0815 0.086912,-0.11528 0.027666,-0.0395 0.055357,-0.0791 0.086473,-0.11598 0.00901,-0.0147 0.016954,-0.0302 0.026559,-0.0445 0.022246,-0.0333 0.054989,-0.0583 0.074014,-0.094 0.03919,-0.0503 0.0758,-0.10257 0.1148,-0.15308 0.04149,-0.0471 0.07861,-0.0976 0.120045,-0.14471 0.04876,-0.0549 0.09509,-0.11192 0.147231,-0.16373 0.04546,-0.0573 0.09634,-0.11021 0.14141,-0.16794 0.05083,-0.0531 0.100599,-0.10715 0.15079,-0.16083 0.04986,-0.0509 0.108301,-0.0919 0.161278,-0.13943 0.119116,-0.0929 0.237811,-0.14735 0.380177,-0.23023 0.105746,-0.0616 0.161772,-0.0882 -0.241092,0.14054 -0.0092,0.005 0.01712,-0.0123 0.02568,-0.0185 0.154775,-0.089 0.302107,-0.18617 0.467744,-0.25169 0.0545,-0.0219 0.10931,-0.0433 0.165258,-0.0613 0.05875,-0.0171 0.117614,-0.0343 0.177951,-0.045 0.05878,-0.011 0.117163,-0.0241 0.176658,-0.031 0.06759,-0.0102 0.13595,-0.0125 0.203739,-0.0214 0.06891,-0.007 0.13796,-0.006 0.207153,-0.005 0.0582,10e-4 0.116509,0.003 0.174166,0.0117 0.06147,0.01 0.122445,0.0222 0.183769,0.0326 0.05749,0.0146 0.114634,0.0306 0.171232,0.0484 0.05023,0.0161 0.09906,0.0365 0.145918,0.0607 0.04962,0.0251 0.09648,0.0541 0.140062,0.0888 0.04794,0.0357 0.09617,0.0712 0.139732,0.11216 0.04094,0.036 0.07887,0.0754 0.122564,0.10798 0.04945,0.0361 0.09667,0.0752 0.140651,0.11792 0.04861,0.043 0.09908,0.084 0.148608,0.12595 0.04836,0.043 0.09189,0.0912 0.138433,0.13622 0.04815,0.0485 0.09633,0.0969 0.141797,0.14795 0.04572,0.0525 0.08836,0.10723 0.128622,0.164 0,0 -0.302715,0.17738 -0.302715,0.17738 z"
       inkscape:connector-curvature="0"
       style="stroke-width:0.26458332" />
    <path
       id="path1296"
       d="m 12.969979,287.63387 c -0.04156,-0.0302 -0.0873,-0.0549 -0.136913,-0.0687 -0.03631,-0.009 -0.06718,0.0154 -0.100739,0.0258 -0.226999,0.13393 0.373533,-0.23473 0.201206,-0.11331 -0.02784,0.0202 -0.05272,0.0441 -0.07719,0.0681 -0.02627,0.0205 -0.04099,0.049 -0.05838,0.0763 -0.01476,0.0289 -0.02782,0.0591 -0.03748,0.0901 -0.0097,0.0328 -0.01007,0.0672 -0.01761,0.10047 -0.0095,0.0331 -0.01405,0.067 -0.01674,0.10123 -4.24e-4,0.0287 -0.0042,0.058 -6.88e-4,0.0866 0.0076,0.0244 0.01472,0.0487 0.01902,0.0739 0.0058,0.0148 0.01205,0.03 0.02123,0.0431 0.0096,0.0123 0.02052,0.0234 0.03161,0.0344 0.01498,0.007 0.02189,0.0219 0.03808,0.0272 0.01112,0.0143 0.02532,0.021 0.04246,0.0238 0.01504,0.004 0.02396,0.0216 0.04109,0.0225 0.02292,-2.4e-4 0.03325,0.003 0.05325,0.0141 0.01964,0.008 0.04064,0.009 0.06165,0.0106 0.02076,5.9e-4 0.04152,1.7e-4 0.06229,1.8e-4 0.02234,-9e-5 0.04467,-1.9e-4 0.06701,-1e-4 0.0168,-0.0159 0.03701,-0.0192 0.05892,-0.0225 0.07119,-0.10103 0.006,-0.006 -0.289024,0.16237 -0.0028,0.002 0.0045,-0.005 0.0073,-0.006 0.102883,-0.0599 0.205386,-0.12047 0.309579,-0.17805 0.09532,-0.0527 -0.375771,0.22031 -0.283246,0.16286 0.01726,-0.0103 0.03206,-0.0239 0.04709,-0.0371 0.01165,-0.015 0.02718,-0.0234 0.04089,-0.0358 0.01264,-0.0124 0.02601,-0.0242 0.03815,-0.0384 0.01417,-0.0125 0.02095,-0.0287 0.03167,-0.0439 0.0114,-0.0144 0.01521,-0.031 0.02464,-0.0466 0.01299,-0.0224 0.0285,-0.043 0.04291,-0.0645 0.01281,-0.0231 0.02755,-0.0455 0.03749,-0.0701 0.01465,-0.0217 0.02344,-0.0454 0.02983,-0.0706 0.0095,-0.0249 0.01751,-0.05 0.02221,-0.0762 0.005,-0.0231 0.0024,-0.0431 -0.0046,-0.0651 -0.0117,-0.0233 -0.02558,-0.045 -0.04179,-0.0654 -0.01415,-0.0209 -0.03564,-0.0238 -0.05869,-0.028 0,0 0.289658,-0.19945 0.289658,-0.19945 v 0 c 0.02827,0.009 0.05351,0.0219 0.07092,0.0471 0.01892,0.0237 0.03454,0.0493 0.04856,0.0762 0.0085,0.0264 0.01751,0.0505 0.01164,0.0788 -0.0023,0.0283 -0.0076,0.0566 -0.01954,0.0825 -0.01065,0.0249 -0.0099,0.0541 -0.02653,0.077 -0.01184,0.014 -0.01408,0.0324 -0.02433,0.0479 -0.0022,0.003 -0.0061,0.006 -0.008,0.009 -0.0024,0.004 -0.0031,0.009 -0.0046,0.0142 -0.01312,0.0224 -0.02696,0.0427 -0.04289,0.063 -0.0032,0.006 -0.0047,0.0127 -0.0093,0.0174 -0.0017,0.002 -0.0053,5.8e-4 -0.0066,0.003 -0.0054,0.008 8.2e-4,0.0217 -0.0081,0.0281 -0.0035,0.006 -0.0053,0.0132 -0.01016,0.0182 -0.0018,0.002 -0.0056,10e-4 -0.0072,0.003 -0.0062,0.008 -0.0013,0.0224 -0.01226,0.0276 -0.0074,0.008 -0.02189,0.0329 -0.02909,0.038 -0.0023,0.002 -0.0056,7.1e-4 -0.0084,0.001 -0.0048,0.006 -0.01176,0.0192 -0.01805,0.0234 -0.0067,0.004 -0.01741,0.003 -0.02234,0.0146 -0.01422,0.0149 -0.02944,0.0291 -0.04517,0.0423 -0.108106,0.0836 0.140226,-0.10787 -0.319743,0.18736 -0.09541,0.0612 0.196655,-0.11289 0.29457,-0.17005 0.0026,-0.002 -0.0059,0.002 -0.0085,0.003 -0.315227,0.18272 -0.189338,0.17256 -0.319623,0.18132 -0.02121,0.006 -0.04008,0.0201 -0.06321,0.0162 -0.02241,1.5e-4 -0.04483,1.8e-4 -0.06725,1.9e-4 -0.02145,-2e-5 -0.04293,-5.6e-4 -0.06425,-0.003 -0.02382,-0.003 -0.04699,-0.009 -0.0686,-0.0203 -0.01662,-0.006 -0.03626,-0.002 -0.05211,-0.012 -0.01348,-0.008 -0.02529,-0.0184 -0.03965,-0.0204 -0.01708,-0.007 -0.03124,-0.0188 -0.04624,-0.0292 -0.01589,-0.0107 -0.028,-0.0256 -0.04383,-0.0365 -0.01216,-0.0127 -0.02459,-0.0251 -0.03461,-0.0396 -0.01223,-0.0177 -0.01952,-0.0382 -0.02881,-0.0575 -0.0029,-0.0247 -0.0088,-0.0485 -0.01755,-0.0718 -0.0087,-0.0311 -0.0029,-0.0637 -0.0033,-0.0957 0.0018,-0.0358 0.0042,-0.0721 0.01438,-0.1067 0.0084,-0.0338 0.01219,-0.0673 0.0166,-0.10189 0.0091,-0.0337 0.02194,-0.0649 0.03378,-0.0976 0.0025,-0.005 0.0049,-0.01 0.0074,-0.0144 0.003,-0.004 0.0066,-0.007 0.009,-0.0115 0.01137,-0.0206 0.01853,-0.0441 0.03832,-0.0592 0.02477,-0.0247 0.04931,-0.0497 0.07568,-0.0727 0.121015,-0.0967 0.259348,-0.17268 0.402098,-0.23196 0.03869,-0.0144 0.07399,-0.024 0.114175,-0.007 0.05038,0.0195 0.09698,0.0468 0.142053,0.0764 0,0 -0.295478,0.18919 -0.295478,0.18919 z"
       inkscape:connector-curvature="0"
       style="stroke-width:0.26458332" />
    <path
       id="path1298"
       d="m 11.015972,287.2551 c -0.0091,-0.0843 -0.0152,-0.16837 -0.01112,-0.25311 0.0037,-0.0841 0.0096,-0.1677 0.02457,-0.25057 0.01258,-0.0766 0.0411,-0.14896 0.06873,-0.22109 0.02504,-0.0627 0.04879,-0.12601 0.07672,-0.18748 0.02646,-0.0657 0.0618,-0.12685 0.09741,-0.18787 0.03141,-0.0525 0.0627,-0.10517 0.09983,-0.15382 0.03201,-0.0417 0.06489,-0.0827 0.09783,-0.12367 0.04036,-0.0506 0.08462,-0.0979 0.129363,-0.14466 0.04454,-0.0414 0.07981,-0.0905 0.114439,-0.14006 0.03162,-0.0469 0.06182,-0.0947 0.09333,-0.1416 0.0315,-0.0454 0.0648,-0.0892 0.09952,-0.13212 0.02819,-0.0329 0.05437,-0.0682 0.08713,-0.0968 0.01864,-0.0186 0.0375,-0.0369 0.05852,-0.0528 0.102474,-0.0739 0.02839,-0.0208 0.317648,-0.18026 0.0025,-0.001 0.0059,-0.002 0.0086,-6.4e-4 0.01191,0.004 0.02238,0.0127 0.03461,0.0168 0.03128,0.0189 0.05417,0.0471 0.07859,0.0738 0.03724,0.0428 0.06382,0.092 0.08849,0.14263 0.03201,0.0619 0.06109,0.12535 0.0889,0.18923 0.03404,0.0687 0.06033,0.14072 0.09019,0.21123 0.03065,0.0727 0.0574,0.147 0.08778,0.21985 0.03097,0.0807 0.06817,0.15864 0.101405,0.23838 0.03888,0.0783 0.07086,0.15952 0.101294,0.24141 0.02534,0.077 0.0466,0.15527 0.06113,0.235 0.01516,0.0679 0.02637,0.13626 0.03283,0.20551 0.0098,0.0567 0.01794,0.11361 0.02409,0.17086 0.002,0.0185 0.0074,0.0361 0.01309,0.0537 0,0 -0.308376,0.169 -0.308376,0.169 v 0 c -0.006,-0.0201 -0.01168,-0.0402 -0.01513,-0.0609 -0.0043,-0.0577 -0.01243,-0.11478 -0.02325,-0.1716 -0.005,-0.0685 -0.01487,-0.13632 -0.03062,-0.20325 -0.01258,-0.0781 -0.03327,-0.15448 -0.05712,-0.22983 -0.0303,-0.0815 -0.06137,-0.1625 -0.100475,-0.24027 -0.03345,-0.0796 -0.07056,-0.15752 -0.101422,-0.23818 -0.03122,-0.0725 -0.05846,-0.14639 -0.08834,-0.21939 -0.03041,-0.0702 -0.05588,-0.14241 -0.09024,-0.21082 -0.02807,-0.0632 -0.05685,-0.12622 -0.08924,-0.18731 -0.02351,-0.0473 -0.04842,-0.0937 -0.08426,-0.13316 -0.021,-0.0219 -0.04139,-0.0478 -0.07098,-0.058 -0.0022,-7.6e-4 -0.01404,-0.006 -0.01815,-0.004 -0.0044,0.001 -0.01515,0.0103 -0.01117,0.008 0.289702,-0.16658 0.395655,-0.22398 0.288507,-0.16586 -0.02308,0.0134 -0.04374,0.0284 -0.06201,0.0474 -0.03641,0.0384 0.01286,-0.0118 -0.02743,0.0234 -0.02348,0.0205 -0.0409,0.0478 -0.0626,0.07 -0.03489,0.0426 -0.06986,0.0845 -0.101103,0.12993 -0.03309,0.0459 -0.0627,0.0943 -0.09322,0.14195 -0.03597,0.0497 -0.06735,0.10328 -0.113071,0.14517 -0.04465,0.0459 -0.08916,0.092 -0.129859,0.14143 -0.03284,0.0408 -0.06503,0.0817 -0.09777,0.12256 -0.03662,0.0487 -0.07271,0.0973 -0.103079,0.15042 -0.03452,0.0608 -0.07421,0.1192 -0.09809,0.18544 -0.03071,0.0596 -0.05161,0.12342 -0.07868,0.18471 -0.02564,0.0715 -0.05923,0.14081 -0.0716,0.21641 -0.018,0.0811 -0.02298,0.16361 -0.02759,0.24636 -0.0044,0.0824 -0.0024,0.16437 0.01171,0.24595 0,0 -0.310246,0.16297 -0.310246,0.16297 z"
       inkscape:connector-curvature="0"
       style="stroke-width:0.26458332" />
    <path
       id="path1316"
       d="m 14.773791,289.03268 c -0.02333,0.0531 -0.04426,0.10723 -0.06548,0.16121 -0.01184,0.0369 -0.02694,0.0721 -0.047,0.10521 -0.01588,0.0313 -0.03582,0.0599 -0.05796,0.087 -0.02326,0.0261 -0.04583,0.0528 -0.06654,0.0809 -0.02183,0.031 -0.04414,0.0616 -0.06448,0.0936 -0.02568,0.0368 -0.05751,0.0684 -0.08656,0.10232 -0.03237,0.0353 -0.06344,0.0718 -0.09776,0.10524 -0.03124,0.03 -0.064,0.0583 -0.09408,0.0896 -0.02987,0.029 -0.06201,0.055 -0.09633,0.0785 -0.01294,0.006 -0.02309,0.016 -0.03523,0.0231 -0.971138,0.56365 0.07291,-0.0472 -0.03443,0.0199 -0.181389,0.1134 -0.214662,0.1304 -0.331254,0.19095 -0.0052,0.002 -0.01077,0.002 -0.01562,0.005 -0.0044,0.002 -0.0074,0.006 -0.01154,0.009 -0.01713,0.0107 -0.03937,0.015 -0.05902,0.0181 -0.02326,0.0156 -0.05263,0.0228 -0.08031,0.0257 -0.02742,0.002 -0.05488,0.002 -0.08234,0.001 -0.02938,-6e-5 -0.05876,-3.2e-4 -0.08814,-2.1e-4 -0.0318,-2.1e-4 -0.06361,-1.3e-4 -0.09541,-2.3e-4 -0.03977,-2.6e-4 -0.07954,-1.5e-4 -0.119306,-8e-5 -0.04096,3e-5 -0.08193,-2.7e-4 -0.122896,-4e-5 -0.03511,1.4e-4 -0.07023,10e-6 -0.105339,2e-4 -0.02848,1.5e-4 -0.05697,-8e-5 -0.08545,1.9e-4 -0.02269,9e-5 -0.04539,-4e-5 -0.06808,5e-5 -0.02649,-2.5e-4 -0.05298,-6e-5 -0.07947,-1.3e-4 -0.0232,2e-5 -0.04641,2.4e-4 -0.06961,6e-5 -0.02716,0 -0.05432,-1.9e-4 -0.08149,-5e-5 -0.02791,-0.004 -0.04956,0.0104 -0.07511,0.0188 -0.02889,-0.002 -0.0514,0.0121 -0.07781,0.0197 -0.02686,0.004 -0.04659,0.021 -0.07311,0.027 -0.148516,0.10384 0.928843,-0.54146 -0.02925,0.0208 -0.09674,0.0568 0.193713,-0.11317 0.291144,-0.16875 0.0074,-0.004 -0.01325,0.0107 -0.02012,0.0157 -0.104378,0.0598 -0.208737,0.11953 -0.313135,0.17925 -0.23235,0.1329 0.935072,-0.54222 -0.0655,0.0401 0.477086,-0.35529 0.337485,-0.19506 0.228662,-0.12216 -0.09024,0.0935 -0.218633,0.12352 -0.330051,0.2006 -0.09206,0.0637 0.1935,-0.11265 0.290687,-0.16822 0.0075,-0.004 -0.01401,0.0103 -0.02129,0.015 -0.186745,0.10839 -0.682758,0.39444 -0.06997,0.0409 -0.201209,0.11549 -0.627214,0.35878 -0.02941,0.0163 0.0069,-0.004 -0.01339,0.009 -0.01953,0.0138 -0.0018,5.3e-4 -0.0042,1.3e-4 -0.0054,0.002 -0.0088,0.0108 -0.01066,0.0216 -0.02249,0.0321 -0.0131,0.014 -0.0291,0.0247 -0.04274,0.0379 -0.995441,0.59617 0.187884,-0.13389 -0.04849,0.0332 -0.09975,0.0838 -0.20226,0.1112 -0.331765,0.19578 -0.09245,0.0604 0.387638,-0.21104 0.287332,-0.16487 -0.01229,0.01 -0.02097,0.0222 -0.03274,0.0337 -0.01314,0.005 -0.02069,0.0174 -0.03241,0.0241 -0.103256,0.0595 -0.206859,0.11842 -0.310302,0.17761 -0.09836,0.0563 0.196703,-0.11259 0.295054,-0.16889 -0.0035,0.006 -0.01833,0.008 -0.02175,0.012 -0.0039,0.005 -0.0045,0.0116 -0.0078,0.0169 -0.01196,0.0128 -0.02168,0.0276 -0.03218,0.0423 -0.01215,0.0114 -0.01111,0.0286 -0.01744,0.0429 -0.0086,0.0101 -0.01315,0.0219 -0.01854,0.0339 0.0022,0.0194 -0.0077,0.0269 -0.01634,0.0416 -0.0069,0.008 -0.008,0.0177 -0.0095,0.0281 2.51e-4,0.018 -0.0035,0.0361 -0.01487,0.0504 -0.0065,0.0167 -0.0093,0.033 -0.01676,0.0494 -0.01105,0.0202 -0.01326,0.0432 -0.01612,0.0656 -0.0093,0.0245 -0.01668,0.0489 -0.02066,0.0748 -0.0016,0.0295 -0.0042,0.058 -0.01193,0.0865 -0.0077,0.0231 -0.01181,0.047 -0.01363,0.0712 -0.0031,0.0273 -0.01423,0.0524 -0.01973,0.0793 -0.0049,0.0255 -0.0027,0.0517 -0.0089,0.0769 -0.01099,0.0217 -0.01485,0.0455 -0.01831,0.0693 -0.0089,0.0206 -0.01768,0.0407 -0.02191,0.0628 -2.63e-4,0.0264 -0.0061,0.0504 -0.01499,0.075 -0.0085,0.0251 -0.01085,0.0512 -0.02005,0.0762 -0.01041,0.0287 -0.01339,0.059 -0.01484,0.0892 0.0017,0.0325 -0.0053,0.0634 -0.01353,0.0945 -0.0067,0.0273 -0.0092,0.0554 -0.01022,0.0835 9.53e-4,0.0294 -0.009,0.0571 -0.01631,0.0852 -0.0026,0.0222 -0.01092,0.0425 -0.02217,0.0617 -0.0072,0.0178 -0.0068,0.0375 -0.01988,0.0525 -0.0059,0.0164 -0.01149,0.0277 -0.02361,0.0406 -0.0083,0.0177 -0.01424,0.0369 -0.02676,0.0522 -0.0054,0.0104 -0.0084,0.0215 -0.0092,0.0331 0.0021,0.0136 -0.006,0.0305 -0.01722,0.0393 -0.0089,0.015 -0.0025,0.0329 -0.0099,0.0479 -0.0069,0.0122 -0.01379,0.0232 -0.01727,0.0369 -0.0014,0.0182 -0.0053,0.0316 -0.01502,0.0473 -0.0082,0.0175 -0.01022,0.0363 -0.01207,0.0552 -0.0047,0.0172 -0.0148,0.0324 -0.0194,0.0497 -0.0042,0.019 -0.0037,0.0386 -0.0051,0.0579 -0.0046,0.0192 -0.01472,0.036 -0.01881,0.0554 -0.0035,0.0192 -0.0036,0.0389 -0.004,0.0583 -9.4e-5,0.0178 3.18e-4,0.0356 1.82e-4,0.0533 -0.0011,0.0191 -0.0014,0.0365 0.007,0.0538 0.008,0.0174 0.01245,0.0358 0.0152,0.0547 0.0018,0.0162 0.0016,0.0326 0.0018,0.0489 -9.1e-5,0.0157 -2.91e-4,0.0315 -1.35e-4,0.0472 -3.7e-4,0.0179 -4.4e-5,0.0358 -2.19e-4,0.0537 -4.5e-4,0.021 0.002,0.0422 -0.0036,0.0627 -0.0078,0.0156 -0.01447,0.0308 -0.01734,0.0482 -0.0025,0.0158 -0.0028,0.032 -0.0027,0.048 0.0017,0.0144 -0.0053,0.0326 -0.01668,0.0424 -3.97e-4,0.0176 -0.0097,-0.0151 -0.01107,-0.0191 0,0 -0.291092,0.20109 -0.291092,0.20109 v 0 c -0.0059,-0.006 -0.02703,-0.0236 -0.01757,-0.032 6.62e-4,-0.011 0.0091,-0.0351 0.02174,-0.0321 1.41e-4,-0.0174 -3.8e-5,-0.0349 7.14e-4,-0.0523 0.0022,-0.0192 0.0022,-0.0408 0.0134,-0.0571 0.0029,-0.004 0.008,-0.007 0.0098,-0.012 0.0042,-0.0111 -0.0028,-0.0262 7.2e-5,-0.0376 -1.74e-4,-0.0179 1.56e-4,-0.0357 -1.73e-4,-0.0535 2.13e-4,-0.0157 1.07e-4,-0.0315 1.27e-4,-0.0472 2.64e-4,-0.0152 2.45e-4,-0.0303 -5.5e-5,-0.0455 -9.27e-4,-0.0153 -0.0028,-0.0301 -0.0091,-0.0442 -0.01055,-0.0222 -0.01726,-0.0427 -0.0145,-0.0676 -2.2e-4,-0.0179 5e-6,-0.0358 -3.2e-5,-0.0537 -2.42e-4,-0.0211 1.78e-4,-0.0421 0.0015,-0.0632 0.0025,-0.0208 0.0045,-0.0414 0.01724,-0.0589 0.01087,-0.0144 0.0025,-0.0378 0.006,-0.0551 0.0024,-0.0186 0.0054,-0.0391 0.01769,-0.054 0.01246,-0.0142 0.0023,-0.0392 0.01147,-0.0564 0.0013,-0.006 0.0044,-0.0223 0.01048,-0.0265 0.0017,-10e-4 0.0048,0.002 0.0062,4.7e-4 0.0036,-0.004 -0.0036,-0.0122 2e-5,-0.0159 0.0026,-0.0161 0.0036,-0.0328 0.01341,-0.0463 0.0014,-0.002 0.0027,-0.005 0.0041,-0.007 0.0021,7e-5 0.0049,0.002 0.0062,2e-4 0.0062,-0.007 -0.0037,-0.027 0.0017,-0.0357 5.03e-4,-0.01 0.0094,-0.0382 0.0215,-0.0302 2.38e-4,-0.015 -3.44e-4,-0.0299 0.0043,-0.0445 0.0041,-0.0203 0.02171,-0.0334 0.02632,-0.0535 0.0013,-0.006 0.005,-0.0228 0.01139,-0.0266 0.008,-0.005 0.0069,0.008 0.01173,-0.0147 0.005,-0.0185 0.02492,-0.0268 0.02176,-0.0488 0.0043,-0.0217 0.02045,-0.0373 0.02477,-0.0579 0.0045,-0.0272 0.01666,-0.0526 0.01877,-0.0797 10e-4,-0.0301 0.0025,-0.0601 0.0077,-0.0898 0.0062,-0.0299 0.0196,-0.0576 0.01656,-0.0887 0.0013,-0.0328 0.0019,-0.0658 0.01023,-0.0978 0.0077,-0.0258 0.0198,-0.0487 0.01923,-0.0766 0.0081,-0.0233 0.02132,-0.0425 0.01883,-0.0682 0.0015,-0.0248 0.0049,-0.0488 0.01763,-0.0706 0.01603,-0.0172 0.005,-0.0494 0.01799,-0.0698 0.01506,-0.0223 0.0096,-0.0436 0.01306,-0.0696 0.003,-0.0264 0.0068,-0.0531 0.02072,-0.0762 0.0014,-0.0265 0.0032,-0.053 0.01041,-0.0788 0.0091,-0.0271 0.01665,-0.0516 0.01481,-0.0808 0.0021,-0.0277 0.0052,-0.0554 0.01731,-0.0808 0.01284,-0.0194 0.004,-0.0478 0.01409,-0.0694 0.0029,-0.006 0.0042,-0.0135 0.0084,-0.0189 0.0013,-0.002 0.0048,-10e-4 0.0057,-0.003 0.003,-0.006 -0.0017,-0.0188 0.0032,-0.0252 0.0027,-0.0162 0.01628,-0.026 0.01958,-0.0401 -5.82e-4,-0.0136 -2.64e-4,-0.0286 0.0031,-0.0415 0.0025,-0.006 0.005,-0.0183 0.0088,-0.0229 0.0019,-0.002 0.0098,-10e-4 0.01188,-10e-4 0.0017,-0.002 2.01e-4,-0.005 2.91e-4,-0.008 -4e-5,-0.0153 0.004,-0.0347 0.01273,-0.0469 0.003,-0.003 0.0078,-0.005 0.01031,-0.008 0.0061,-0.009 0.001,-0.026 0.0068,-0.0353 0.0044,-0.007 0.0094,-0.02 0.01545,-0.0256 0.002,-0.002 0.0057,-7.2e-4 0.0076,-0.003 0.0011,-0.001 0.0067,-0.0185 0.0068,-0.019 0.0038,-0.003 0.01001,-0.003 0.01198,-0.007 0.0016,-0.003 -4.76e-4,-0.008 4.5e-4,-0.0112 0.0018,-0.007 0.01184,-0.0116 0.0144,-0.0181 0.103329,-0.0598 0.205578,-0.12143 0.309988,-0.17928 0.09936,-0.0551 -0.196497,0.11403 -0.29484,0.17089 -0.0023,10e-4 0.0045,-0.003 0.0067,-0.004 0.0094,-0.006 0.01925,-0.0112 0.02526,-0.0212 0.02881,-0.0108 0.01239,-0.0118 0.02448,-0.0211 0.01601,-0.0122 -6.35e-4,0.0156 0.01063,-0.007 0.0679,-0.10753 0.04211,-0.0695 0.315707,-0.18755 0.103328,-0.0446 -0.193836,0.11441 -0.291101,0.17102 -0.02327,0.0136 0.04042,-0.026 0.01916,-0.0169 0.1124,-0.10432 0.726286,-0.41245 0.0472,-0.0366 0.0168,-0.007 0.03093,-0.02 0.04456,-0.0323 0.01091,-0.0106 0.02852,-0.0156 0.02844,-0.0317 0.08083,-0.10281 0.208777,-0.12657 0.328873,-0.20141 0.09213,-0.0574 -0.398222,0.2392 -0.282301,0.16235 0.104127,-0.0603 0.208044,-0.12097 0.312379,-0.18092 0.0077,-0.004 0.03127,-0.0166 0.02362,-0.0121 -0.09622,0.0561 -0.192206,0.1126 -0.288696,0.16823 -0.008,0.005 0.03118,-0.0216 0.02224,-0.0167 0.115685,-0.0591 0.20641,-0.11865 0.333441,-0.19438 0.09623,-0.0574 -0.192972,0.11389 -0.289747,0.17034 -0.0073,0.004 0.02941,-0.02 0.02054,-0.0149 0.01012,-0.0141 0.02081,-0.0177 0.03342,-0.029 0.09951,-0.0885 0.182803,-0.12661 0.336581,-0.20476 -0.956993,0.55786 0.738058,-0.43157 -0.222877,0.13009 0.01564,-0.009 0.0051,-0.003 0.0213,-0.0127 0.103314,-0.0613 0.206627,-0.12253 0.30994,-0.1838 -0.09696,0.0564 -0.387144,0.2268 -0.290892,0.1692 0.102849,-0.0616 0.206597,-0.12162 0.310689,-0.18105 0.004,-0.002 0.0088,-0.003 0.01316,-0.004 0.02384,-0.0114 0.0478,-0.0195 0.07319,-0.0266 0.02565,-0.01 0.05271,-0.0101 0.07831,-0.0198 0.02696,-0.009 0.05296,-0.0121 0.08149,-0.01 0.02721,1.5e-4 0.05442,-5e-5 0.08162,-5e-5 0.02315,-1.8e-4 0.0463,4e-5 0.06944,6e-5 0.02661,-6e-5 0.05323,1.2e-4 0.07984,-1.3e-4 0.02265,9e-5 0.0453,-4e-5 0.06794,5e-5 0.02831,2.9e-4 0.05662,4e-5 0.08493,1.9e-4 0.03492,2e-4 0.06985,6e-5 0.104773,2e-4 0.041,2.5e-4 0.082,-7e-5 0.123,-3e-5 0.03985,6e-5 0.0797,1.7e-4 0.119554,-9e-5 0.03198,-9e-5 0.06397,10e-6 0.09595,-7e-5 0.02926,2.4e-4 0.05853,2.3e-4 0.08779,7e-5 0.02631,-5.8e-4 0.05297,-8.2e-4 0.07867,-0.007 0.02667,-0.008 0.05213,-0.0193 0.07881,-0.027 0.02811,-0.0104 0.05384,-0.0254 0.08061,-0.0386 0.108864,-0.0623 0.01862,-0.0107 -0.269785,0.15651 0.105955,-0.0606 0.210297,-0.12398 0.316878,-0.18345 0.09496,-0.053 -0.187944,0.10942 -0.281996,0.16399 -0.006,0.003 0.01214,-0.007 0.01783,-0.0107 0.006,-0.004 0.01146,-0.009 0.01719,-0.0136 0.03648,-0.0189 0.06844,-0.0436 0.09865,-0.0714 0.03328,-0.0278 0.05921,-0.0635 0.09538,-0.0883 0.03221,-0.0348 0.06671,-0.0678 0.09882,-0.10269 0.02793,-0.0346 0.05879,-0.0657 0.0869,-0.1 0.02408,-0.0289 0.04167,-0.0637 0.06373,-0.094 0.02174,-0.028 0.04127,-0.0573 0.0655,-0.083 0.0227,-0.0248 0.04488,-0.0502 0.06108,-0.0799 0.01636,-0.0342 0.04266,-0.0635 0.04981,-0.10212 0.02187,-0.0539 0.04455,-0.10729 0.06476,-0.16183 0,0 0.318629,-0.14642 0.318629,-0.14642 z"
       inkscape:connector-curvature="0"
       style="stroke-width:0.26458332" />
    <path
       id="path1324"
       d="m 11.399419,293.06808 c -0.01217,0.0641 -0.0082,0.12959 0.0024,0.19354 0.0093,0.0623 0.02719,0.12295 0.04203,0.18409 0.02158,0.0732 0.04134,0.14672 0.05961,0.22076 0.02041,0.0785 0.03961,0.15724 0.0573,0.23639 0.02085,0.0863 0.03904,0.17323 0.05504,0.26052 0.01465,0.0746 0.03383,0.14816 0.04841,0.22271 0.01063,0.0689 0.01848,0.13808 0.02846,0.20708 0.01418,0.073 0.02493,0.14656 0.03828,0.21971 0.0096,0.0655 0.02456,0.13007 0.03543,0.19538 0.0065,0.0662 0.01253,0.13227 0.02124,0.19828 0.0093,0.0674 0.01184,0.13546 0.01318,0.20341 0.0011,0.0601 0.0015,0.12024 0.0016,0.18037 0.0032,0.0563 -0.0062,0.11171 -0.01369,0.16723 -0.0049,0.0559 -0.01801,0.11051 -0.02584,0.16598 -0.0027,0.049 -0.01257,0.0968 -0.02079,0.14499 -0.0029,0.0417 -0.01352,0.0817 -0.02244,0.12232 -0.0035,0.0305 -0.01688,0.0581 -0.02569,0.087 -0.0052,0.0153 -0.0067,0.0312 -0.0082,0.0471 -0.01301,0.13929 -0.208025,0.20025 -0.339913,0.21303 -0.02783,0.002 -0.05354,-0.0111 -0.07745,-0.0244 -0.04183,-0.0192 -0.07471,-0.0545 -0.109929,-0.0837 -0.05977,-0.0485 -0.111983,-0.10522 -0.163639,-0.16202 -0.07053,-0.0877 -0.140878,-0.17589 -0.205334,-0.26817 -0.06794,-0.11372 -0.139825,-0.22493 -0.210594,-0.33688 -0.06929,-0.10596 -0.117166,-0.22354 -0.164373,-0.34044 -0.0501,-0.12135 -0.09152,-0.24568 -0.132423,-0.37031 -0.04052,-0.12147 -0.08489,-0.24149 -0.122613,-0.36389 -0.03349,-0.12338 -0.063,-0.24787 -0.0835,-0.37409 -0.02379,-0.12995 -0.03527,-0.26151 -0.04249,-0.39327 -0.0019,-0.11876 -0.0077,-0.23714 -0.01575,-0.35561 -0.0077,-0.10664 -0.01108,-0.2135 -0.0129,-0.32038 0.0022,-0.0787 -0.00613,-0.15666 -0.015642,-0.23461 -0.00579,-0.0456 -0.00865,-0.0915 -0.010798,-0.13743 -6.35e-4,-0.0251 -0.00127,-0.0502 -0.00114,-0.0753 -6.879e-4,-0.0231 0.0038,-0.0158 -0.00585,-0.0303 0.00473,-0.003 -0.00525,-0.007 -0.00612,-0.004 -0.0013,0.004 6.88e-4,0.0109 -0.00265,0.0142 -0.00175,0.002 -0.00911,0.004 -0.00695,0.003 0.098565,-0.0561 0.197483,-0.11155 0.296224,-0.16732 -0.0203,0.0105 -0.03543,0.0271 -0.05452,0.0392 -0.01667,0.0206 -0.03779,0.0369 -0.05529,0.0566 -0.02111,0.0226 -0.03259,0.0513 -0.04538,0.079 -0.01866,0.052 -0.02982,0.10616 -0.04171,0.15995 -0.02421,0.0859 -0.04811,0.17158 -0.066847,0.25894 -0.027416,0.12539 -0.045065,0.25279 -0.059862,0.38022 -0.016518,0.17088 -0.021193,0.3428 -0.018116,0.51438 0.00403,0.18791 0.02037,0.37518 0.031634,0.56272 0.010451,0.15477 0.027209,0.30888 0.043727,0.46306 0.00883,0.12587 0.021764,0.25139 0.032017,0.37715 0.0049,0.10545 0.01212,0.21078 0.02716,0.31531 0.01581,0.0916 0.02389,0.18409 0.02834,0.27681 0.0034,0.0773 0.0039,0.15464 0.0043,0.23197 2.91e-4,0.0561 4.5e-4,0.11214 5.03e-4,0.1682 -3.97e-4,0.0452 0.0028,0.0903 -0.0049,0.13504 -0.01088,0.0473 -0.02229,0.0945 -0.03473,0.14144 -0.01185,0.0418 -0.02646,0.0825 -0.042355,0.12283 -0.013814,0.0292 -0.02471,0.0596 -0.040144,0.0879 -0.00776,0.0223 -0.020254,0.0409 -0.035695,0.0585 -0.061357,-0.45597 -0.2077942,0.2068 -0.332977,0.18505 -0.014706,-0.003 -0.030055,-0.0101 -0.044673,-0.0139 -0.034602,-0.006 -0.063094,-0.0286 -0.094517,-0.0429 -0.033819,-0.0276 -0.067158,-0.0558 -0.1007748,-0.0837 -0.048361,-0.0316 -0.09273,-0.0684 -0.1357836,-0.10679 -0.054683,-0.0446 -0.1086546,-0.0905 -0.1580002,-0.14101 -0.058972,-0.057 -0.1100325,-0.12092 -0.1595204,-0.18617 -0.06308,-0.0797 -0.1171179,-0.16366 -0.1624825,-0.2545 -0.060237,-0.10343 -0.1093407,-0.21212 -0.1563121,-0.32202 -0.046224,-0.1102 -0.095806,-0.21893 -0.1432254,-0.32859 -0.040689,-0.0953 -0.070357,-0.19467 -0.1067681,-0.29159 -0.035783,-0.11378 -0.073709,-0.22683 -0.1064043,-0.34155 -0.02884,-0.11356 -0.061388,-0.22608 -0.089869,-0.33974 -0.019854,-0.0914 -0.051978,-0.17901 -0.079664,-0.26807 -0.022757,-0.0633 -0.037478,-0.12893 -0.060449,-0.19212 -0.014129,-0.0411 -0.03476,-0.0787 -0.05589,-0.11642 -0.01824,-0.0264 -0.03858,-0.0515 -0.062142,-0.0733 -0.013279,-0.0132 -0.023159,-0.018 -0.041145,-0.0164 -0.00274,3e-5 -0.00596,-0.001 -0.00822,10e-5 -0.00241,0.002 -0.00164,0.006 -0.00361,0.008 -0.00733,0.008 -0.023159,0.0132 -0.033417,0.0145 -0.024302,0.007 -0.039987,-0.002 -0.057735,-0.0177 -0.01664,-0.003 -0.026326,-0.008 -0.039244,-0.0186 -9.261e-4,-0.004 -0.02572,-0.0131 -0.027069,-0.0107 -0.00161,0.003 -2.91e-4,0.007 -4.233e-4,0.01 -0.073016,0.0956 -0.00644,0.007 0.2894584,-0.16285 0.0019,-10e-4 -0.00379,0.002 -0.0057,0.003 -0.00717,0.004 -0.012899,0.008 -0.019061,0.0139 -0.013864,0.0121 -0.023971,0.0302 -0.037755,0.044 -0.019293,0.0264 -0.043758,0.0482 -0.068491,0.0695 -0.027944,0.0296 -0.058926,0.0556 -0.089987,0.0818 -0.030035,0.027 -0.063574,0.0495 -0.095157,0.0745 -0.043712,0.0347 -0.092777,0.062 -0.1397836,0.0919 -0.048512,0.031 -0.096929,0.0621 -0.144785,0.0941 -0.048648,0.0353 -0.096611,0.0716 -0.1483812,0.1022 -0.058531,0.0336 -0.1115015,0.0755 -0.1682232,0.11189 -0.7156513,0.41486 -0.1855139,0.10723 -0.054387,0.0323 0.0081,-0.005 -0.015888,0.01 -0.023646,0.015 -0.023336,0.0156 -0.046203,0.0318 -0.069775,0.0471 -0.1218858,0.0769 -0.2495925,0.14549 -0.3740562,0.21706 -0.0082,0.005 -0.032788,0.0189 -0.024583,0.0142 0.2798427,-0.16081 0.3645207,-0.21278 0.2502779,-0.14306 -0.1265224,0.13378 -0.2968601,0.1601 -0.4465365,0.24105 -0.0525,0.0218 -0.1053695,0.0423 -0.1589651,0.0613 -0.058441,0.0147 -0.1183048,0.024 -0.1761784,0.0408 -0.063902,0.0142 -0.1282893,0.0276 -0.1929984,0.0381 -0.070924,0.0206 -0.1444514,0.0283 -0.2178767,0.0328 -0.081776,0.005 -0.1630305,0.0164 -0.2448978,0.0221 -0.082471,0.006 -0.1653739,10e-4 -0.2476577,0.009 -0.089244,0.0103 -0.178956,0.0147 -0.268704,0.0174 -0.09108,-0.006 -0.1819732,-0.0135 -0.2731479,-0.0177 -0.087039,-0.002 -0.1733338,-0.0164 -0.2592223,-0.0299 -0.090643,-0.0166 -0.1822503,-0.0272 -0.2731836,-0.0419 -0.089047,-0.0117 -0.175373,-0.0371 -0.2632853,-0.0548 -0.082974,-0.0215 -0.1656011,-0.0451 -0.2467107,-0.0729 -0.075407,-0.0246 -0.1517338,-0.0457 -0.2287204,-0.0646 -0.075044,-0.0205 -0.1504715,-0.0407 -0.2270469,-0.0547 -0.076749,-0.0162 -0.1518364,-0.0386 -0.2274387,-0.0593 -0.069383,-0.0168 -0.1383246,-0.0358 -0.2052223,-0.0609 -0.060318,-0.0227 -0.121397,-0.0439 -0.1803669,-0.07 -0.051102,-0.0237 -0.1034303,-0.0438 -0.1563055,-0.0632 -0.049445,-0.0155 -0.101082,-0.0194 -0.1517509,-0.0297 -0.043242,-0.0109 -0.086409,-0.008 -0.1282435,0.007 -0.035949,0.0119 -0.071027,0.0231 -0.105537,0.039 -0.1003333,0.0638 -0.2464201,0.13864 0.2590389,-0.14833 0.00496,-0.003 -0.00927,0.007 -0.013985,0.01 -0.020744,0.0141 -0.00686,0.003 -0.026559,0.0201 -0.029126,0.0228 -0.053296,0.0519 -0.074913,0.0817 -0.02596,0.0376 -0.043996,0.0802 -0.057166,0.12378 -0.013249,0.0516 -0.01352,0.10517 -0.014827,0.15806 -8.969e-4,0.0657 -5.318e-4,0.13143 -6.085e-4,0.19715 8.96e-5,0.0755 -6.48e-5,0.15101 -1.217e-4,0.22652 0.00402,0.0812 0.01208,0.16204 0.024873,0.24229 0.010692,0.0784 0.019894,0.15685 0.030566,0.23522 0.00651,0.0829 0.025939,0.16365 0.04107,0.24512 0.015554,0.0771 0.033489,0.1539 0.055489,0.22944 0.01718,0.0566 0.031808,0.11397 0.055424,0.16827 0.02435,0.0509 0.048226,0.10184 0.069973,0.1539 0.021441,0.0476 0.045156,0.0939 0.060967,0.14379 0.00876,0.0412 0.023801,0.0806 0.033327,0.12163 0.00604,0.0252 0.00742,0.0511 0.00863,0.0768 4.418e-4,0.0193 2.077e-4,0.0387 3.413e-4,0.058 -0.00493,0.0156 -0.016264,0.0269 -0.020079,0.0433 -0.00133,0.003 -0.0083,0.0173 -0.00974,0.0189 -0.00622,0.007 -0.019249,0.0162 -0.0274,0.021 -0.1031195,0.0601 -0.2066364,0.11957 -0.3099547,0.17935 -0.0134,0.006 -0.030451,-4.2e-4 -0.043779,0.004 -0.00709,0.002 -0.012661,0.008 -0.019189,0.0115 -0.024525,0.009 -0.050146,0.0106 -0.075982,0.0111 -0.033575,9e-4 -0.067179,3.2e-4 -0.1007641,1.4e-4 -0.039105,1.2e-4 -0.078211,-1e-4 -0.1173162,-2e-4 -0.044051,10e-4 -0.085852,-0.0143 -0.126764,-0.0286 -0.046802,-0.0221 -0.090213,-0.0503 -0.1324537,-0.0801 -0.055175,-0.0452 -0.1024227,-0.0999 -0.1452022,-0.15676 -0.013123,-0.0183 -0.027345,-0.036 -0.039368,-0.055 -0.06437,-0.1022 -0.085989,-0.153 -0.1418239,-0.27104 -0.10365105,-0.21912 -0.19883268,-0.44149 -0.29295952,-0.66482 -0.15557651,-0.37245 -0.29030501,-0.75289 -0.42782005,-1.13219 -0.0572669,-0.16532 -0.12379991,-0.327 -0.19659331,-0.486 -0.01451294,-0.0331 -0.02799987,-0.0667 -0.04065206,-0.10054 0,0 0.30818849,-0.16951 0.30818849,-0.16951 v 0 c 0.009581,0.0341 0.0209513,0.0676 0.0340526,0.10053 0.0666967,0.16339 0.12761915,0.32898 0.18202341,0.49691 0.12865552,0.38262 0.25819113,0.76509 0.41242993,1.13842 0.11753431,0.27712 0.23348701,0.55815 0.39068761,0.81592 0.039686,0.0651 0.065711,0.0955 0.1091929,0.15027 0.042504,0.0532 0.088962,0.10434 0.1431744,0.14589 0.039736,0.0281 0.081805,0.054 0.1274652,0.0713 0.038908,0.0129 0.078869,0.0216 0.120154,0.0192 0.039143,-4e-5 0.078286,-1.4e-4 0.117428,9e-5 0.033358,-1.7e-4 0.066783,-3e-5 0.1000436,-0.003 0.024193,-0.003 0.047598,-0.01 0.069761,-0.02 0.020576,-0.006 0.043228,-0.004 0.060258,-0.0193 -0.097623,0.0565 -0.195246,0.11307 -0.292869,0.16961 0.00686,-0.003 0.014636,-0.005 0.020768,-0.0101 0.00295,-0.002 0.00387,-0.007 0.00714,-0.009 0.034237,-0.0183 -0.010613,0.0158 0.015422,-0.005 0.012929,-0.007 0.00589,-0.0329 0.022068,-0.0385 0.012412,-0.002 0.00416,-0.0342 0.00616,-0.0454 1.718e-4,-0.0239 -3.361e-4,-0.0479 -0.00448,-0.0715 -0.00769,-0.0406 -0.022531,-0.0792 -0.030667,-0.11965 -0.01423,-0.0493 -0.038105,-0.0944 -0.059101,-0.14098 -0.021147,-0.052 -0.044758,-0.10282 -0.068867,-0.15352 -0.024877,-0.0555 -0.041167,-0.11401 -0.057149,-0.17262 -0.022256,-0.0768 -0.038815,-0.15516 -0.055981,-0.23318 -0.014848,-0.082 -0.035576,-0.16314 -0.042195,-0.24649 -0.00999,-0.0781 -0.021169,-0.15603 -0.030323,-0.23426 -0.013219,-0.082 -0.020622,-0.16448 -0.02729,-0.24726 -9.95e-5,-0.0754 -3.069e-4,-0.15076 -5.08e-4,-0.22614 -3.334e-4,-0.0657 -6.138e-4,-0.13147 -5.45e-4,-0.19721 2.884e-4,-0.0552 7.911e-4,-0.11082 0.010231,-0.1653 0.010879,-0.0473 0.028995,-0.092 0.051598,-0.13492 0.021763,-0.0317 0.044101,-0.0624 0.070263,-0.0909 0.049448,-0.0353 -0.022957,0.0178 0.025523,-0.0227 0.1047603,-0.0876 0.2340218,-0.14875 0.3582884,-0.20739 0.035255,-0.0136 0.071693,-0.0239 0.1080326,-0.0341 0.046411,-0.007 0.090945,-0.007 0.136607,0.006 0.052016,0.01 0.1056398,0.0136 0.1550103,0.0344 0.052869,0.0202 0.1051702,0.0414 0.1566108,0.065 0.05897,0.0245 0.1189085,0.0466 0.1788623,0.0685 0.066683,0.0231 0.134612,0.0418 0.2029756,0.0593 0.074747,0.0211 0.1497084,0.0415 0.2258335,0.0571 0.076756,0.0159 0.1526202,0.0358 0.2282838,0.0562 0.077262,0.0202 0.1541624,0.0415 0.229896,0.067 0.080422,0.0264 0.1615993,0.051 0.2441762,0.0697 0.086897,0.0191 0.1731294,0.0422 0.2615266,0.0536 0.091316,0.0131 0.1824662,0.0268 0.2734945,0.0418 0.085245,0.0131 0.1711071,0.0241 0.2573883,0.0268 0.090355,0.005 0.1804755,0.0146 0.2709966,0.0156 0.089733,-0.003 0.1792393,-0.01 0.268579,-0.019 0.082535,-0.004 0.165317,-0.002 0.2477678,-0.009 0.081821,-0.006 0.1630881,-0.018 0.2450637,-0.0223 0.073103,-0.007 0.1451263,-0.0187 0.2164728,-0.0361 0.064161,-0.0125 0.1287052,-0.0235 0.1918359,-0.0406 0.058468,-0.0133 0.1175829,-0.0251 0.1745792,-0.0439 0.052785,-0.0201 0.1059929,-0.0392 0.1566698,-0.0644 0.1255176,-0.0572 0.3787759,-0.18074 -0.1529318,0.10283 0.1735863,-0.0969 0.7020333,-0.4048 0.098711,-0.0569 -0.016931,0.01 0.066319,-0.0407 0.050589,-0.0296 0.023143,-0.0155 0.047587,-0.0293 0.07003,-0.0459 0.00783,-0.006 0.01456,-0.0131 0.022937,-0.0181 0.018222,-0.0108 0.763995,-0.44157 0.055372,-0.0311 0.056918,-0.0363 0.1115729,-0.0751 0.1673275,-0.11313 0.051995,-0.0297 0.1023882,-0.0614 0.1489824,-0.0993 0.046571,-0.034 0.095706,-0.0644 0.1446022,-0.0948 0.04511,-0.0315 0.092744,-0.0594 0.1401736,-0.0872 0.029659,-0.0283 0.065268,-0.0474 0.094085,-0.0765 0.032886,-0.0224 0.066025,-0.0479 0.090586,-0.0794 0.023569,-0.021 0.048747,-0.0401 0.070246,-0.0625 0.0022,-0.004 0.00439,-0.008 0.00659,-0.0113 0.00276,-0.002 0.00625,-0.003 0.00828,-0.005 0.00235,-0.003 0.00206,-0.008 0.00425,-0.0107 0.00316,-0.005 0.010821,-0.005 0.013639,-0.01 0.00193,-0.003 0.00151,-0.008 0.00228,-0.0113 0.089525,-0.0968 0.2059816,-0.19998 0.3419869,-0.20409 0.015563,0.008 0.031939,0.0145 0.04514,0.0264 0.012449,0.007 0.028877,0.007 0.039663,0.0187 0.011327,0.005 0.026228,-0.007 0.037765,-0.01 0.018135,-0.0115 0.034376,-0.016 0.055252,-0.009 0.021143,0.007 0.037387,0.0197 0.052686,0.0356 0.024291,0.0256 0.047418,0.0523 0.06626,0.0822 0.022071,0.0394 0.043416,0.0788 0.057183,0.12212 0.023521,0.0639 0.037326,0.13055 0.05992,0.19474 0.026218,0.0903 0.059062,0.17856 0.078092,0.27092 0.027441,0.11357 0.060599,0.22558 0.088306,0.33908 0.0329,0.11361 0.07012,0.22581 0.1062776,0.33842 0.036623,0.0964 0.067301,0.19487 0.1061656,0.29035 0.045921,0.11032 0.095728,0.21904 0.141533,0.32943 0.046703,0.10924 0.096902,0.21659 0.1571043,0.31918 0.044637,0.0888 0.097718,0.1708 0.1602836,0.24814 0.049432,0.0635 0.1000289,0.12598 0.1583036,0.18166 0.050004,0.049 0.1031224,0.0948 0.1576835,0.13856 0.043351,0.0376 0.088792,0.0724 0.1358947,0.1052 0.032216,0.0258 0.063059,0.054 0.097744,0.0763 0.028897,0.0153 0.057421,0.0316 0.090447,0.036 0.00588,10e-4 0.018571,0.005 0.025215,0.004 0.010036,-10e-4 0.019095,-0.009 0.02747,-0.0137 -0.097058,0.0573 -0.1941158,0.1145 -0.2911737,0.17175 0.015653,-0.01 0.035659,-0.0277 0.042332,-0.0451 0.01171,-0.03 0.030351,-0.0573 0.041339,-0.0878 0.01873,-0.0382 0.032197,-0.0788 0.044349,-0.1195 0.016351,-0.0445 0.023066,-0.0923 0.035896,-0.13784 0.00987,-0.0428 0.010078,-0.0853 0.0087,-0.12928 2.056e-4,-0.0563 6.086e-4,-0.11259 9.79e-4,-0.16888 2.646e-4,-0.0772 4.762e-4,-0.15434 -0.00191,-0.23147 -0.00386,-0.0917 -0.010544,-0.18333 -0.026548,-0.27383 -0.01569,-0.1054 -0.021622,-0.21196 -0.026594,-0.31832 -0.00883,-0.12582 -0.022238,-0.25124 -0.03021,-0.37712 -0.014719,-0.15537 -0.030935,-0.31054 -0.040636,-0.46635 -0.010112,-0.18802 -0.027433,-0.3756 -0.031962,-0.5639 -0.0043,-0.17221 -7.408e-4,-0.34477 0.012412,-0.51657 0.013719,-0.1278 0.030625,-0.25559 0.055918,-0.38164 0.016521,-0.0873 0.037114,-0.1734 0.064427,-0.25796 0.010557,-0.0549 0.021984,-0.1095 0.036244,-0.16351 0.00524,-0.0169 0.013428,-0.0295 0.020264,-0.0452 0.00651,-0.0149 0.00696,-0.032 0.020275,-0.0437 0.015968,-0.022 0.033604,-0.0407 0.053968,-0.0581 0.00768,-0.0137 0.015415,-0.0138 0.025323,-0.0245 0.00857,-0.009 0.012137,-0.018 0.025768,-0.0221 0.1037664,-0.0593 0.2071564,-0.11922 0.3112984,-0.17784 0.01582,-0.009 0.03362,0.0143 0.04117,0.025 0.01063,0.0161 0.01898,0.0287 0.01532,0.0488 1.8e-5,0.025 -7.41e-4,0.0499 -2.91e-4,0.0749 3.97e-4,0.0455 0.0025,0.0909 0.0071,0.1361 0.0079,0.0795 0.01851,0.15881 0.01449,0.23894 0.0012,0.10653 0.0034,0.21308 0.0107,0.3194 0.0083,0.11881 0.01486,0.23741 0.01532,0.35657 0.0059,0.13069 0.01621,0.26126 0.04073,0.38997 0.01969,0.1248 0.04852,0.24788 0.08107,0.36993 0.03765,0.12223 0.08166,0.24211 0.122535,0.36328 0.04027,0.12405 0.08056,0.24796 0.130907,0.36843 0.04668,0.11498 0.0942,0.23031 0.161928,0.33489 0.06968,0.11188 0.140454,0.22304 0.209186,0.33551 0.06471,0.0904 0.135127,0.17687 0.205759,0.26263 0.05175,0.0549 0.103977,0.10972 0.163373,0.15646 0.03409,0.0273 0.06616,0.059 0.107456,0.0751 0.02274,0.008 0.04134,0.0143 0.06534,0.006 0.135151,-0.039 -0.388219,0.17358 -0.27219,0.16618 0.005,-3.2e-4 0.0096,-0.01 0.01575,-0.008 -3.97e-4,-0.0184 0.0014,-0.0371 0.0053,-0.055 0.0074,-0.0295 0.02119,-0.0564 0.02738,-0.0858 0.009,-0.0403 0.02199,-0.0795 0.02423,-0.12087 0.0072,-0.0482 0.02019,-0.0953 0.02148,-0.14425 0.0068,-0.0558 0.02083,-0.11016 0.0266,-0.16595 0.0059,-0.0544 0.01865,-0.10816 0.01506,-0.16324 2.91e-4,-0.0601 7.94e-4,-0.12027 5.6e-5,-0.1804 -0.0013,-0.0668 -0.0031,-0.13366 -0.01154,-0.19999 -0.0084,-0.0657 -0.0169,-0.13106 -0.02134,-0.19715 -0.0097,-0.0654 -0.02567,-0.12954 -0.03394,-0.19516 -0.01358,-0.0735 -0.02382,-0.14756 -0.03948,-0.22071 -0.0094,-0.0686 -0.01911,-0.137 -0.02721,-0.20576 -0.01423,-0.0749 -0.03332,-0.14876 -0.04772,-0.22364 -0.01503,-0.0869 -0.03306,-0.17351 -0.05463,-0.25904 -0.01754,-0.0789 -0.03671,-0.1573 -0.05691,-0.23551 -0.01902,-0.0738 -0.03759,-0.14769 -0.06073,-0.22039 -0.0154,-0.0618 -0.03384,-0.12311 -0.04369,-0.18614 -0.0114,-0.0667 -0.01674,-0.13473 -0.009,-0.20229 0,0 0.314906,-0.15487 0.314906,-0.15487 z"
       inkscape:connector-curvature="0"
       style="stroke-width:0.26458332" />
    <path
       id="path1326"
       d="m 13.291026,287.67968 c 7.14e-4,0.0493 -0.0041,0.0993 0.0017,0.14837 0.0036,0.007 0.0071,0.007 0.01385,0.006 0,0 -0.293926,0.19539 -0.293926,0.19539 v 0 c -0.01345,-0.0101 -0.02406,-0.0204 -0.03035,-0.0367 -0.0092,-0.0503 5.3e-4,-0.10237 -0.004,-0.15329 0,0 0.312707,-0.15933 0.312707,-0.15933 z"
       inkscape:connector-curvature="0"
       style="stroke-width:0.26458332" />
    <path
       id="path1328"
       d="m 13.466306,287.61777 c 0.03423,0.0363 0.01662,0.0181 0.05285,0.0546 0,0 -0.296399,0.18163 -0.296399,0.18163 v 0 c -0.03673,-0.0364 -0.01836,-0.0187 -0.05507,-0.0533 0,0 0.298628,-0.183 0.298628,-0.183 z"
       inkscape:connector-curvature="0"
       style="stroke-width:0.26458332" />
    <path
       id="path1330"
       d="m 13.13563,287.9782 c -0.04894,-0.061 -0.10121,-0.11963 -0.144374,-0.18497 -0.03548,-0.0555 -0.06601,-0.11401 -0.09467,-0.17324 -0.01836,-0.0397 -0.02832,-0.0823 -0.03492,-0.12534 -0.01743,-0.16298 0.05946,-0.092 0.311804,-0.23813 0.0495,7.4e-4 0.09401,0.0448 0.128207,0.0761 0.01024,0.01 0.02048,0.0195 0.03071,0.0292 0,0 -0.295495,0.18232 -0.295495,0.18232 v 0 c -0.01,-0.009 -0.01993,-0.0185 -0.02989,-0.0278 -0.03071,-0.0243 -0.06976,-0.0631 -0.111358,-0.0434 0.09656,-0.0577 0.19367,-0.11457 0.289685,-0.17321 0.0035,-0.002 -0.0099,-0.003 -0.01231,6e-5 -0.0049,0.007 0.0034,0.024 4.23e-4,0.0313 0.0032,0.04 0.0109,0.0795 0.02717,0.11649 0.02721,0.0581 0.05657,0.11553 0.09078,0.16985 0.04257,0.0643 0.09289,0.12332 0.144796,0.18024 0,0 -0.300555,0.18045 -0.300555,0.18045 z"
       inkscape:connector-curvature="0"
       style="stroke-width:0.26458332" />
    <path
       id="path1332"
       d="m 13.130656,287.55537 c 0.02868,0.076 0.07152,0.14545 0.109961,0.21669 0.02307,0.0498 0.06135,0.088 0.09663,0.1287 0.03041,0.0278 0.06106,0.0585 0.09968,0.0741 0.02458,0.008 0.0126,0.005 0.03588,0.0111 0,0 -0.290597,0.19732 -0.290597,0.19732 v 0 c -0.02442,-0.009 -0.01175,-0.004 -0.03794,-0.0156 -0.03993,-0.0226 -0.07537,-0.0528 -0.107039,-0.0859 -0.03724,-0.0425 -0.07438,-0.085 -0.09861,-0.13687 -0.03768,-0.0727 -0.07907,-0.14355 -0.113714,-0.21783 0,0 0.305741,-0.17172 0.305741,-0.17172 z"
       inkscape:connector-curvature="0"
       style="stroke-width:0.26458332" />
    <path
       id="path1334"
       d="m 13.353378,289.70282 c -0.106339,0.0516 -0.585198,0.32686 -0.11572,0.0582 -0.185798,0.11082 -0.370692,0.2231 -0.557695,0.33191 -0.258807,0.1604 -0.522293,0.31316 -0.78905,0.45997 -0.133991,0.0706 -0.266156,0.14455 -0.402804,0.21 -0.05691,0.0267 -0.111801,0.0575 -0.166755,0.0879 0,0 0.268587,-0.21642 0.268587,-0.21642 v 0 c 0.05489,-0.0294 0.10988,-0.0587 0.166154,-0.0854 0.134726,-0.0664 0.266359,-0.13856 0.398911,-0.20911 0.152205,-0.0838 0.09014,-0.0505 -0.133232,0.0807 -0.02749,0.0161 0.05511,-0.0321 0.08264,-0.0481 0.107713,-0.0629 0.06538,-0.0375 0.17331,-0.10427 0.02946,-0.0182 0.0589,-0.0365 0.08835,-0.0547 0.187184,-0.10813 0.372131,-0.21993 0.557267,-0.33149 0.232947,-0.13522 0.464483,-0.27315 0.703367,-0.39778 0,0 -0.273329,0.21864 -0.273329,0.21864 z"
       inkscape:connector-curvature="0"
       style="stroke-width:0.26458332" />
    <path
       id="path1336"
       d="m 12.946368,289.57563 c -0.160335,0.0401 -0.322903,0.0716 -0.484761,0.1051 -0.216502,0.0476 -0.434449,0.0876 -0.652172,0.12911 -0.212149,0.04 -0.423558,0.0837 -0.634336,0.13037 -0.178077,0.0379 -0.351034,0.0964 -0.52335,0.15442 -0.09145,0.0283 -0.177459,0.0685 -0.263225,0.11025 0,0 0.273016,-0.21759 0.273016,-0.21759 v 0 c 0.08463,-0.0397 0.170879,-0.0747 0.260309,-0.10233 0.171855,-0.0551 0.343528,-0.11245 0.520773,-0.14809 0.211082,-0.046 0.422672,-0.0897 0.634992,-0.12962 0.217746,-0.0408 0.435402,-0.0817 0.651713,-0.12962 0.165743,-0.0352 0.332137,-0.0687 0.495539,-0.11379 0,0 -0.278498,0.21179 -0.278498,0.21179 z"
       inkscape:connector-curvature="0"
       style="stroke-width:0.26458332" />
    <path
       id="path1338"
       d="m 13.298396,289.33071 c -0.157705,-0.004 -0.314522,-0.0195 -0.469888,-0.0463 -0.211915,-0.033 -0.422031,-0.0759 -0.631275,-0.12269 -0.185591,-0.0458 -0.371652,-0.0886 -0.561028,-0.11521 -0.170469,-0.0283 -0.342085,-0.0408 -0.514668,-0.0384 -0.07341,0.002 -0.145846,0.0145 -0.218159,0.0263 0,0 0.27428,-0.20559 0.27428,-0.20559 v 0 c 0.07273,-0.01 0.145575,-0.0206 0.219177,-0.021 0.173158,-1.7e-4 0.345034,0.016 0.516014,0.0438 0.189286,0.0286 0.375251,0.0725 0.561033,0.1183 0.208778,0.0467 0.418436,0.0897 0.630155,0.12101 0.157966,0.0238 0.317535,0.039 0.477507,0.0341 0,0 -0.283148,0.20572 -0.283148,0.20572 z"
       inkscape:connector-curvature="0"
       style="stroke-width:0.26458332" />
    <path
       id="path1350"
       d="m 14.260964,288.164 c 0.05124,-0.17588 0.107162,-0.35014 0.1666,-0.52343 0.07349,-0.22776 0.157697,-0.45176 0.243714,-0.67502 0.06329,-0.16575 0.138722,-0.32645 0.207875,-0.48979 0.04934,-0.11596 0.09456,-0.23371 0.134227,-0.35332 0.0046,-0.0159 0.0091,-0.0317 0.0137,-0.0475 0,0 0.312374,-0.14818 0.312374,-0.14818 v 0 c -0.0048,0.0163 -0.0096,0.0326 -0.01437,0.0489 -0.03782,0.12177 -0.08663,0.23994 -0.135717,0.35754 -0.07088,0.1641 -0.147422,0.32572 -0.214187,0.49152 -0.08787,0.22243 -0.17242,0.44631 -0.245423,0.67413 -0.05685,0.17017 -0.1135,0.34053 -0.153083,0.51575 0,0 -0.31571,0.14943 -0.31571,0.14943 z"
       inkscape:connector-curvature="0"
       style="stroke-width:0.26458332" />
    <path
       id="path1354"
       d="m 14.576934,288.51521 c 0.136841,-0.17925 0.28451,-0.34971 0.42718,-0.52424 0.168015,-0.21414 0.344707,-0.42114 0.52341,-0.62636 0.131664,-0.15194 0.258587,-0.30791 0.385787,-0.46359 0.110528,-0.13912 0.233063,-0.26789 0.350628,-0.40093 0,0 0.313792,-0.1321 0.313792,-0.1321 v 0 c -0.118888,0.13234 -0.240853,0.26208 -0.352982,0.40032 -0.127956,0.15723 -0.257196,0.31348 -0.389986,0.46666 -0.180449,0.20484 -0.359666,0.41094 -0.527184,0.62661 -0.137967,0.17096 -0.283737,0.33616 -0.410057,0.51614 0,0 -0.320588,0.13749 -0.320588,0.13749 z"
       inkscape:connector-curvature="0"
       style="stroke-width:0.26458332" />
    <path
       id="path1356"
       d="m 14.686827,288.21635 c 0.07449,-0.12901 0.151749,-0.25639 0.227057,-0.38492 0.120175,-0.19784 0.225795,-0.40356 0.329363,-0.61039 0.128898,-0.25508 0.271553,-0.50295 0.418903,-0.74772 0.141417,-0.23089 0.286393,-0.45972 0.446016,-0.6785 0.08398,-0.11601 0.04412,-0.0603 0.119722,-0.16689 0,0 0.310263,-0.13439 0.310263,-0.13439 v 0 c -0.07918,0.108 -0.03787,0.0516 -0.123932,0.16913 -0.162651,0.21742 -0.308723,0.44631 -0.451131,0.67739 -0.147715,0.24312 -0.288714,0.49043 -0.417591,0.74411 -0.101491,0.20665 -0.204058,0.41279 -0.323306,0.60997 -0.07173,0.12651 -0.148517,0.25027 -0.215281,0.37953 0,0 -0.320083,0.14268 -0.320083,0.14268 z"
       inkscape:connector-curvature="0"
       style="stroke-width:0.26458332" />
    <path
       id="path1362"
       d="m 13.959321,289.92187 c -0.07413,-0.0547 -0.156218,-0.0967 -0.232732,-0.14782 -0.06015,-0.0381 -0.124251,-0.0675 -0.191545,-0.0904 -0.06376,-0.0185 -0.128554,-0.0219 -0.193941,-0.0139 -0.02998,8.8e-4 -0.05845,0.0101 -0.087,0.0182 0,0 0.277755,-0.21232 0.277755,-0.21232 v 0 c 0.02971,-0.006 0.05954,-0.012 0.08996,-0.0136 0.06846,-0.004 0.136951,0.005 0.202269,0.0264 0.06845,0.0258 0.133656,0.0579 0.194716,0.0985 0.07713,0.0515 0.158535,0.096 0.236033,0.147 0,0 -0.295517,0.18788 -0.295517,0.18788 z"
       inkscape:connector-curvature="0"
       style="stroke-width:0.26458332" />
  </g>
</svg>
