<?xml version="1.0" encoding="UTF-8" standalone="no"?>
<!-- Created with Inkscape (http://www.inkscape.org/) -->

<svg
   xmlns:dc="http://purl.org/dc/elements/1.1/"
   xmlns:cc="http://creativecommons.org/ns#"
   xmlns:rdf="http://www.w3.org/1999/02/22-rdf-syntax-ns#"
   xmlns:svg="http://www.w3.org/2000/svg"
   xmlns="http://www.w3.org/2000/svg"
   xmlns:sodipodi="http://sodipodi.sourceforge.net/DTD/sodipodi-0.dtd"
   xmlns:inkscape="http://www.inkscape.org/namespaces/inkscape"
   width="64"
   height="64"
   viewBox="0 0 64.000001 64.000001"
   id="svg2"
   version="1.1"
   inkscape:version="0.91 r13725"
   inkscape:export-filename="/home/oserkin/zwork/DeepLearning/deep_learning_workshop_tasks/commonlearningdata/cartooncats/1_cat_17.png"
   inkscape:export-xdpi="90"
   inkscape:export-ydpi="90"
   sodipodi:docname="1_cat_17.svg">
  <defs
     id="defs4" />
  <sodipodi:namedview
     id="base"
     pagecolor="#ffffff"
     bordercolor="#666666"
     borderopacity="1.0"
     inkscape:pageopacity="0.0"
     inkscape:pageshadow="2"
     inkscape:zoom="11.2"
     inkscape:cx="30.481924"
     inkscape:cy="29.606808"
     inkscape:document-units="px"
     inkscape:current-layer="layer1"
     showgrid="false"
     units="px"
     inkscape:window-width="1855"
     inkscape:window-height="1056"
     inkscape:window-x="1985"
     inkscape:window-y="24"
     inkscape:window-maximized="1" />
  <metadata
     id="metadata7">
    <rdf:RDF>
      <cc:Work
         rdf:about="">
        <dc:format>image/svg+xml</dc:format>
        <dc:type
           rdf:resource="http://purl.org/dc/dcmitype/StillImage" />
        <dc:title></dc:title>
      </cc:Work>
    </rdf:RDF>
  </metadata>
  <g
     inkscape:label="Layer 1"
     inkscape:groupmode="layer"
     id="layer1"
     transform="translate(0,-988.36216)">
    <path
       style="fill:none;fill-rule:evenodd;stroke:#000000;stroke-width:1px;stroke-linecap:butt;stroke-linejoin:miter;stroke-opacity:1"
       d="m 27.232114,1044.6712 c 0.02977,0.03 0.05953,0.119 0.08929,0.089 0.02976,-0.03 -0.05164,-0.07 -0.08929,-0.089 -0.07143,-0.036 -0.196427,0.036 -0.267857,0 -0.03765,-0.018 -0.05164,-0.07 -0.08929,-0.089 -0.02717,-0.014 -0.227647,0 -0.267857,0 -0.208333,0 -0.416667,0 -0.625,0 -0.05952,0 -0.120202,0.012 -0.178572,0 -0.120328,-0.024 -0.236814,-0.065 -0.357142,-0.089 -0.116736,-0.023 -0.240407,0.023 -0.357143,0 -0.06526,-0.013 -0.113312,-0.076 -0.178572,-0.089 -0.08755,-0.017 -0.178567,0 -0.267857,0 -0.02977,0 -0.06453,0.016 -0.08929,0 -0.07004,-0.047 -0.103281,-0.1405 -0.178571,-0.1785 -0.05324,-0.027 -0.119051,0 -0.178571,0 -0.123813,0 -0.5858,0.02 -0.625,0 -0.03765,-0.019 -0.04936,-0.076 -0.08929,-0.089 -0.048,-0.016 -0.281553,0 -0.357143,0 -0.297619,0 -0.595238,0 -0.892857,0 -0.625,0 -1.25,0 -1.875,0 -0.178572,0 -0.357143,0 -0.535714,0 -0.05952,0 -0.119052,0 -0.178572,0 -0.02977,0 -0.06042,0.01 -0.08929,0 -0.09131,-0.023 -0.176547,-0.066 -0.267857,-0.089 -0.02888,-0.01 -0.06106,0.01 -0.08929,0 -0.06313,-0.021 -0.114012,-0.073 -0.178572,-0.089 -0.05775,-0.014 -0.125331,0.027 -0.178571,0 -0.07529,-0.038 -0.108532,-0.1316 -0.178572,-0.1786 -0.02477,-0.016 -0.06106,0.01 -0.08929,0 -0.06313,-0.021 -0.115442,-0.068 -0.178572,-0.089 -0.02824,-0.01 -0.06267,0.013 -0.08929,0 -0.03765,-0.019 -0.04846,-0.079 -0.08929,-0.089 -0.08662,-0.022 -0.181237,0.022 -0.267857,0 -0.08166,-0.021 -0.103282,-0.1406 -0.178572,-0.1786 -0.08418,-0.042 -0.183677,-0.047 -0.267857,-0.089 -0.03765,-0.019 -0.04936,-0.076 -0.08929,-0.089 -0.386573,-0.129 0.03282,0.171 -0.357143,-0.089 -0.105062,-0.07 -0.166841,-0.1918 -0.267857,-0.2678 -0.106479,-0.08 -0.246397,-0.1046 -0.357143,-0.1786 -0.08128,-0.054 -0.188717,-0.2279 -0.267857,-0.2679 -0.02662,-0.013 -0.06453,0.017 -0.08929,0 -0.07736,-0.052 -0.374729,-0.3744 -0.446429,-0.4464 -0.02977,-0.029 -0.05427,-0.066 -0.08929,-0.089 -0.05537,-0.037 -0.123201,-0.052 -0.178571,-0.089 -0.03502,-0.023 -0.05953,-0.059 -0.08929,-0.089 -0.08929,-0.089 -0.178567,-0.1789 -0.267857,-0.2679 -0.119048,-0.119 -0.238095,-0.2381 -0.357143,-0.3571 -0.02977,-0.029 -0.06594,-0.054 -0.08929,-0.089 -0.03692,-0.055 -0.05237,-0.1236 -0.08929,-0.1786 -0.02335,-0.035 -0.06594,-0.054 -0.08929,-0.089 -0.03692,-0.055 -0.05953,-0.1186 -0.08929,-0.1786 0,-0.029 0.01331,-0.062 0,-0.089 -0.01883,-0.037 -0.07047,-0.051 -0.08929,-0.089 -0.01331,-0.026 0.01651,-0.064 0,-0.089 -0.04669,-0.07 -0.131882,-0.1086 -0.178572,-0.1786 -0.01651,-0.024 0.0094,-0.061 0,-0.089 -0.02105,-0.063 -0.06457,-0.1165 -0.08929,-0.1785 -0.03496,-0.087 -0.0472,-0.1839 -0.08929,-0.2679 -0.01883,-0.037 -0.07908,-0.048 -0.08929,-0.089 -0.02166,-0.087 0,-0.1788 0,-0.2678 0,-0.7441 0,-1.4881 0,-2.2322 0,-0.1786 0,-0.3571 0,-0.5357 0,-0.06 0,-0.1186 0,-0.1786 0,-0.06 -0.01882,-0.1225 0,-0.1785 0.01331,-0.04 0.07047,-0.051 0.08929,-0.089 0.43116,-0.8623 -0.115022,0.1665 0.08929,-0.4465 0.01331,-0.04 0.07598,-0.049 0.08929,-0.089 0.03655,-0.1097 -0.0766,-0.3795 0.08929,-0.4465 0.133639,-0.3341 0.05823,-0.027 0.267857,-0.4464 0.04209,-0.084 0.0472,-0.1839 0.08929,-0.2679 0.01883,-0.037 0.07047,-0.051 0.08929,-0.089 0.04209,-0.084 0.04087,-0.1869 0.08929,-0.2679 0.04331,-0.072 0.131882,-0.1086 0.178572,-0.1786 0.01651,-0.024 -0.0072,-0.06 0,-0.089 0.021,-0.084 0.197027,-0.554 0.267857,-0.625 0.04706,-0.047 0.125331,-0.049 0.178571,-0.089 0.06734,-0.051 0.119052,-0.1196 0.178572,-0.1786 0.148809,-0.1488 0.297619,-0.2976 0.446428,-0.4464 0.05952,-0.06 0.112842,-0.1256 0.178572,-0.1786 0.08379,-0.067 0.178567,-0.1196 0.267857,-0.1786 0.02977,0 0.06548,0.018 0.08929,0 0.101016,-0.076 0.178568,-0.1788 0.267858,-0.2678 0.119047,-0.1191 0.238095,-0.2381 0.357142,-0.3572 0.02977,-0.029 0.05562,-0.064 0.08929,-0.089 0.08585,-0.064 0.185417,-0.1095 0.267857,-0.1785 0.097,-0.081 0.178567,-0.1789 0.267857,-0.2679 0.02977,-0.03 0.05427,-0.066 0.08929,-0.089 0.05537,-0.037 0.123202,-0.052 0.178572,-0.089 0.03503,-0.023 0.05562,-0.064 0.08929,-0.089 0.8854,-0.664 -0.176765,0.1477 0.446429,-0.2678 0.03503,-0.023 0.05642,-0.063 0.08929,-0.089 0.1162,-0.093 0.240942,-0.1749 0.357142,-0.2679 0.09761,-0.078 0.226999,-0.253 0.357143,-0.3571 0.05197,-0.041 0.125332,-0.049 0.178572,-0.089 0.134687,-0.101 0.225677,-0.252 0.357143,-0.3571 0.08379,-0.067 0.182007,-0.1146 0.267857,-0.1786 0.133333,-0.1 0.223809,-0.2571 0.357143,-0.3571 0.02381,-0.018 0.06267,0.013 0.08929,0 0.05413,-0.027 0.318903,-0.3282 0.357143,-0.3572 0.05324,-0.04 0.121502,-0.055 0.178572,-0.089 0.09202,-0.055 0.182007,-0.1145 0.267857,-0.1785 0.101015,-0.076 0.178567,-0.1789 0.267857,-0.2679 0.148809,-0.1488 0.297619,-0.2976 0.446428,-0.4464 0.02977,-0.03 0.05953,-0.059 0.08929,-0.089 0.02977,-0.029 0.05164,-0.07 0.08929,-0.089 0.02662,-0.013 0.06453,0.016 0.08929,0 0.07004,-0.047 0.119051,-0.1186 0.178571,-0.1786 0.05952,-0.029 0.123201,-0.052 0.178571,-0.089 0.03668,-0.024 0.243408,-0.2308 0.267858,-0.2678 0.03692,-0.055 0.04223,-0.1316 0.08929,-0.1786 0.04706,-0.047 0.123202,-0.052 0.178572,-0.089 0.113666,-0.076 0.247125,-0.2751 0.357143,-0.3571 0.05324,-0.04 0.123201,-0.052 0.178571,-0.089 0.03502,-0.023 0.05953,-0.059 0.08929,-0.089 0.148809,-0.1488 0.297619,-0.2976 0.446428,-0.4464 0.08929,-0.089 0.178567,-0.1789 0.267857,-0.2679 0.02977,-0.029 0.06594,-0.054 0.08929,-0.089 0.07383,-0.1107 0.104742,-0.2464 0.178572,-0.3571 0.07004,-0.1051 0.192097,-0.1668 0.267857,-0.2679 0.03993,-0.053 0.04936,-0.1255 0.08929,-0.1785 0.05051,-0.067 0.119052,-0.1186 0.178572,-0.1786 0.05082,-0.051 0.469374,-0.4477 0.535714,-0.5357 0.03993,-0.053 0.05505,-0.1216 0.08929,-0.1786 0.05521,-0.092 0.123361,-0.1758 0.178571,-0.2678 0.03424,-0.057 0.05505,-0.1216 0.08929,-0.1786 0.05521,-0.092 0.123361,-0.1759 0.178571,-0.2679 0.101357,-0.1689 0.179728,-0.3594 0.267858,-0.5357 0.05952,-0.119 0.129141,-0.2335 0.178571,-0.3571 0.220661,-0.5517 -0.03082,-0.028 0.178571,-0.4465 0.02977,-0.059 0.04936,-0.1255 0.08929,-0.1785 0.05051,-0.067 0.131882,-0.1086 0.178572,-0.1786 0.01651,-0.025 -0.0049,-0.06 0,-0.089 0.02495,-0.1497 0.06783,-0.2962 0.08929,-0.4464 0.0084,-0.059 -0.01444,-0.1206 0,-0.1786 0.01614,-0.064 0.05237,-0.1236 0.08929,-0.1786 0.02335,-0.035 0.07908,-0.048 0.08929,-0.089 0.150071,-0.6008 -0.229884,0.077 0.178571,-0.5358 0.01569,-0.039 0,-0.589 0,-0.625 0,-0.03 -0.0094,-0.061 0,-0.089 0.02105,-0.063 0.07624,-0.1136 0.08929,-0.1786 0.01751,-0.088 0,-0.1789 0,-0.2679 0,-0.119 0,-0.2381 0,-0.3571 0,-0.2381 0,-0.4762 0,-0.7143 0,-0.744 0,-1.4881 0,-2.2321 0,-0.2084 0,-0.4167 0,-0.625 0,-0.06 0,-0.1186 0,-0.1786 0,-0.029 0.01331,-0.062 0,-0.089 -0.04799,-0.096 -0.119051,-0.1789 -0.178571,-0.2679 -0.14881,-0.03 -0.29762,-0.06 -0.446429,-0.089 -0.05952,-0.03 -0.114012,-0.073 -0.178572,-0.089 -0.05775,-0.014 -0.122101,0.019 -0.178571,0 -0.03993,-0.013 -0.05952,-0.06 -0.08929,-0.089 -0.05952,-0.059 -0.111231,-0.1286 -0.178571,-0.1786 -0.05324,-0.04 -0.119052,-0.059 -0.178572,-0.089 -0.119047,-0.06 -0.238095,-0.1186 -0.357142,-0.1786 -0.05952,-0.03 -0.123202,-0.052 -0.178572,-0.089 -0.07004,-0.047 -0.119047,-0.1196 -0.178567,-0.1786 -0.119048,-0.119 -0.238095,-0.2381 -0.357143,-0.3571 -0.05952,-0.06 -0.131882,-0.1086 -0.178572,-0.1786 -0.03692,-0.055 -0.05237,-0.1236 -0.08929,-0.1786 -0.01729,-0.026 -0.175472,-0.1656 -0.178572,-0.1786 -0.02165,-0.087 0.02166,-0.1808 0,-0.2678 -0.01021,-0.041 -0.05952,-0.059 -0.08929,-0.089 -0.05952,-0.059 -0.140922,-0.1036 -0.178572,-0.1786 -0.02662,-0.053 0.01444,-0.1205 0,-0.1785 -0.01614,-0.065 -0.05952,-0.1196 -0.08929,-0.1786 -0.02976,-0.089 -0.07083,-0.1759 -0.08929,-0.2679 -0.02918,-0.1459 0.02918,-0.3005 0,-0.4464 -0.026,-0.13 -0.231797,-0.3564 -0.267857,-0.4464 -0.02211,-0.055 0,-0.1196 0,-0.1786 0,-0.1191 0.01684,-0.2393 0,-0.3571 -0.01331,-0.093 -0.07381,-0.1749 -0.08929,-0.2679 -0.01468,-0.088 0,-0.1789 0,-0.2679 0,-0.1785 0,-0.3571 0,-0.5357 0,-0.3869 0,-0.7738 0,-1.1607 0,-0.051 -0.01627,-0.4134 0,-0.4464 0.01882,-0.038 0.07046,-0.052 0.08929,-0.089 0.01331,-0.027 0,-0.059 0,-0.089 0,-0.059 -0.01882,-0.1226 0,-0.1786 0.01331,-0.04 0.05952,-0.06 0.08929,-0.089 0.02976,-0.03 0.05952,-0.06 0.08929,-0.089 0.119048,-0.1191 0.238095,-0.2381 0.357143,-0.3572 0.02976,-0.03 0.05952,-0.06 0.08929,-0.089 0.02976,-0.03 0.07046,-0.052 0.08929,-0.089 0.04209,-0.084 0.0472,-0.1838 0.08929,-0.2678 0.01915,-0.038 0.434389,-0.4365 0.446429,-0.4465 0.360847,-0.2706 0.04241,-0.014 0.267857,-0.089 0.07882,-0.026 0.465064,-0.2209 0.535714,-0.2679 0.03502,-0.023 0.05427,-0.066 0.08929,-0.089 0.05537,-0.037 0.123201,-0.052 0.178571,-0.089 0.03502,-0.023 0.05164,-0.07 0.08929,-0.089 0.08418,-0.042 0.176547,-0.066 0.267857,-0.089 0.02887,-0.01 0.06452,0.017 0.08929,0 0.406453,-0.4064 -0.03698,-0.047 0.357143,-0.1785 0.03993,-0.013 0.05427,-0.066 0.08929,-0.089 0.05537,-0.037 0.115442,-0.068 0.178572,-0.089 0.02823,-0.01 0.06105,0.01 0.08929,0 0.06313,-0.021 0.113311,-0.076 0.178571,-0.089 0.08755,-0.018 0.184957,0.033 0.267857,0 0.07816,-0.031 0.119052,-0.1196 0.178572,-0.1786 0.119047,-0.059 0.228733,-0.1435 0.357142,-0.1785 0.203033,-0.055 0.418639,-0.048 0.625,-0.089 0.463052,-0.093 0.885681,-0.2335 1.339286,-0.3572 0.118388,-0.032 0.236411,-0.067 0.357143,-0.089 0.207054,-0.038 0.416667,-0.059 0.625,-0.089 0.208333,-0.06 0.412538,-0.1355 0.625,-0.1785 0.08755,-0.018 0.181237,0.022 0.267857,0 0.155488,-0.039 0.303076,-0.1066 0.446429,-0.1786 0.03765,-0.019 0.04845,-0.079 0.08928,-0.089 0.08662,-0.022 0.178568,0 0.267858,0 0.148809,0 0.297619,0 0.446428,0 0.02976,0 0.0601,0.01 0.08929,0 0.120328,-0.024 0.236101,-0.069 0.357143,-0.089 0.05871,-0.01 0.119051,0 0.178571,0 0.14881,0 0.297619,0 0.446429,0 0.535714,0 1.071428,0 1.607143,0 0.357142,0 0.714285,0 1.071428,0 0.119654,0 0.54104,-0.017 0.625,0 0.130515,0.026 0.230874,0.1366 0.357143,0.1786 0.02824,0.01 0.06105,-0.01 0.08929,0 0.07882,0.026 0.465064,0.2209 0.535714,0.2679 0.03502,0.023 0.05952,0.059 0.08929,0.089 0.08928,0.089 0.178567,0.1788 0.267857,0.2678 0.05952,0.06 0.119051,0.1186 0.178571,0.1786 0.02976,0.03 0.07046,0.052 0.08929,0.089 0.04209,0.084 0.03708,0.1898 0.08929,0.2678 0.07004,0.1051 0.188977,0.1689 0.267857,0.2679 0.104021,0.13 0.106921,0.3031 0.178571,0.4464 0.04799,0.096 0.123362,0.1759 0.178572,0.2679 0.125631,0.2094 0.07636,0.1909 0.178571,0.4464 0.07389,0.1847 0.193967,0.351 0.267857,0.5357 0.01105,0.028 -0.0072,0.06 0,0.089 0.02283,0.091 0.07083,0.1759 0.08929,0.2679 0.02335,0.1167 0,0.2381 0,0.3571 0,0.2083 0,0.4167 0,0.625 0,0.089 0,0.1789 0,0.2679 0,0.059 -0.01167,0.1205 0,0.1785 0.01846,0.092 0.07083,0.1759 0.08929,0.2679 0.01167,0.058 0,0.1186 0,0.1786 0,0.2678 0,0.5357 0,0.8035 0,0.5953 0,1.1905 0,1.7857 0,0.3572 0,0.7143 0,1.0715 0,0.021 0.01,0.3371 0,0.3571 -0.03765,0.075 -0.140922,0.1036 -0.178572,0.1786 -0.01331,0.027 0.01331,0.063 0,0.089 -0.01882,0.038 -0.07046,0.052 -0.08928,0.089 -0.01331,0.027 0.01331,0.063 0,0.089 -0.01882,0.038 -0.06594,0.054 -0.08929,0.089 -0.03696,0.055 -0.0494,0.1256 -0.08933,0.1786 -0.07576,0.101 -0.178567,0.1788 -0.267857,0.2678 -0.05952,0.059 -0.119051,0.1196 -0.178571,0.1786 -0.05952,0.06 -0.108532,0.1316 -0.178572,0.1786 -0.02476,0.016 -0.06267,-0.013 -0.08929,0 -0.03765,0.019 -0.05952,0.059 -0.08928,0.089 -0.08929,0.03 -0.180477,0.054 -0.267857,0.089 -0.116207,-0.05 -0.194768,0.1426 -0.267858,0.1786 -0.02662,0.013 -0.06266,-0.013 -0.08928,0 -0.03765,0.019 -0.05164,0.071 -0.08929,0.089 -0.05324,0.027 -0.122101,-0.019 -0.178571,0 -0.06314,0.021 -0.115432,0.068 -0.178572,0.089 -0.05647,0.019 -0.122101,-0.019 -0.178571,0 -0.06314,0.021 -0.115432,0.068 -0.178572,0.089 -0.06141,0.02 -0.215177,-0.026 -0.267857,0 -0.148852,0.074 -0.04034,0.1786 -0.267857,0.1786 -0.08929,0.1178 -0.178575,0.2356 -0.267863,0.3535 0,0.03 0.01331,0.063 0,0.089 -0.01882,0.038 -0.07598,0.049 -0.08929,0.089 -0.03162,0.095 0.03162,0.2623 0,0.3572 -0.06682,0.2004 -0.165977,0.2427 -0.267857,0.4464 -0.01331,0.027 0.0094,0.061 0,0.089 -0.02105,0.063 -0.06824,0.1154 -0.08929,0.1786 -0.0094,0.028 0.01331,0.063 0,0.089 -0.204313,0.4086 0.03701,-0.3789 -0.178571,0.2678 -0.01882,0.057 0.01882,0.1221 0,0.1786 -0.107896,0.3237 -0.04236,0.064 -0.178572,0.2678 -0.03692,0.055 -0.05952,0.1191 -0.08928,0.1786 -0.02976,0.059 -0.07315,0.114 -0.08929,0.1786 -0.01444,0.058 0,0.119 0,0.1786 -0.02976,0.059 -0.06824,0.1154 -0.08929,0.1785 -0.03151,0.095 0.03655,0.3734 0,0.4465 -0.03765,0.075 -0.140925,0.1032 -0.178571,0.1785 -0.01679,0.034 0.0032,0.5227 0,0.5357 -0.01021,0.041 -0.07046,0.052 -0.08929,0.089 -0.01331,0.027 0,0.06 0,0.089 0,0.089 0.02166,0.1813 0,0.2679 -0.01021,0.041 -0.05952,0.059 -0.08929,0.089 -0.02976,0.089 -0.07083,0.1755 -0.08928,0.2678 -0.01167,0.058 0,0.1191 0,0.1786 0,0.1769 0.0072,0.2052 -0.08929,0.4464 -0.181522,0.4538 9.7e-4,-0.4503 -0.178571,0.2679 -0.01444,0.058 0,0.119 0,0.1785 0,0.1489 0,0.2977 0,0.4465 0,0.059 0.01444,0.1208 0,0.1785 -0.01614,0.065 -0.07315,0.1141 -0.08929,0.1786 -0.08929,0.3572 0.04464,0.045 0,0.2679 -0.02407,0.1203 -0.07193,0.2356 -0.08929,0.3571 -0.02872,0.2011 0.03821,0.5233 0,0.7143 -0.01305,0.065 -0.05237,0.1232 -0.08929,0.1786 -0.02335,0.035 -0.08103,0.048 -0.08928,0.089 0,0.119 0,0.2381 0,0.3571 -0.02976,0.03 -0.07908,0.048 -0.08929,0.089 -0.02166,0.087 0,0.1786 0,0.2678 0,0.1786 0,0.3572 0,0.5358 0,0.089 0.01751,0.1803 0,0.2678 -0.01305,0.065 -0.07834,0.1129 -0.08929,0.1786 -0.01957,0.1174 0.01477,0.239 0,0.3571 -0.01522,0.1218 -0.06911,0.2361 -0.08928,0.3572 -0.0098,0.059 0.01882,0.1221 0,0.1785 -0.04209,0.1263 -0.136482,0.2309 -0.178572,0.3572 -0.01882,0.056 0,0.119 0,0.1786 0,0.119 0.01684,0.2393 0,0.3571 -0.01331,0.093 -0.07083,0.1756 -0.08929,0.2679 -0.01167,0.058 0,0.119 0,0.1785 0,0.1191 0.01957,0.2397 0,0.3572 -0.01094,0.066 -0.07834,0.1129 -0.08928,0.1785 -0.01957,0.1175 0,0.2381 0,0.3572 0,0.089 0,0.1786 0,0.2678 0,0.06 0.01167,0.1202 0,0.1786 -0.01846,0.092 -0.07381,0.175 -0.08929,0.2679 -0.0048,0.029 0.0049,0.521 0,0.5357 -0.03393,0.1018 -0.138718,0.1682 -0.178571,0.2678 -0.0043,0.011 0.0041,0.3325 0,0.3572 -0.02017,0.121 -0.06522,0.2368 -0.08929,0.3571 -0.0058,0.029 0,0.06 0,0.089 0,0.1191 0.01684,0.2393 0,0.3572 -0.01331,0.093 -0.07381,0.175 -0.08929,0.2678 -0.01468,0.088 0,0.1786 0,0.2679 0,0.119 0,0.2381 0,0.3571 0,0.059 0.01167,0.1202 0,0.1786 -0.01846,0.092 -0.07381,0.175 -0.08929,0.2678 -0.0367,0.1458 0.02446,0.2997 0,0.4465 -0.02976,0.119 -0.05952,0.2381 -0.08928,0.3571 -0.02976,0.03 -0.07908,0.048 -0.08929,0.089 -0.02166,0.087 0,0.1786 0,0.2679 0,0.2678 0,0.5357 0,0.8035 0,0.089 0.01263,0.1795 0,0.2679 -0.01735,0.1215 -0.06911,0.2361 -0.08929,0.3571 -0.0098,0.059 0,0.1191 0,0.1786 0,0.1488 0,0.2976 0,0.4464 0,0.5357 0,1.0715 0,1.6072 0,1.4583 0,2.9166 0,4.375 0,0.4464 0,0.8928 0,1.3393 0,0.1488 0,0.2976 0,0.4464 0,0.059 -0.01882,0.1221 0,0.1786 0.02105,0.063 0.06824,0.1154 0.08929,0.1785 0.01882,0.056 -0.02662,0.1254 0,0.1786 0.01882,0.038 0.07046,0.052 0.08929,0.089 0.01331,0.027 0,0.059 0,0.089 0.02976,0.06 0.05237,0.1232 0.08928,0.1785 0.06868,0.1031 0.199176,0.1649 0.267858,0.2679 0.102595,0.1539 0.08928,0.135 0.08928,0.2679 0,0.03 0,0.06 0,0.089 0,0.03 -0.01331,0.063 0,0.089 0.01882,0.038 0.07046,0.052 0.08929,0.089 0.01331,0.027 0,0.059 0,0.089 0,0.03 0,0.06 0,0.089"
       id="path3971"
       inkscape:connector-curvature="0" />
    <path
       style="fill:none;fill-rule:evenodd;stroke:#000000;stroke-width:1px;stroke-linecap:butt;stroke-linejoin:miter;stroke-opacity:1"
       d="m 24.196429,1005.9336 c -0.119048,-0.1191 -0.25197,-0.2257 -0.357143,-0.3572 -0.03718,-0.046 0.02662,-0.1253 0,-0.1785 -0.01882,-0.038 -0.05952,-0.06 -0.08929,-0.089 0,-0.059 0.01882,-0.1221 0,-0.1786 -0.01331,-0.04 -0.07046,-0.052 -0.08929,-0.089 -0.01331,-0.027 0.0094,-0.061 0,-0.089 -0.05102,-0.153 -0.191447,-0.319 -0.267857,-0.4464 -0.33829,-0.5638 0.01612,0.048 -0.08929,-0.2679 -0.04209,-0.1262 -0.136481,-0.2308 -0.178571,-0.3571 -0.01882,-0.057 0.03302,-0.129 0,-0.1786 -0.406454,-0.4064 -0.0472,0.037 -0.178571,-0.3571 -0.01331,-0.04 -0.07598,-0.049 -0.08929,-0.089 -0.01882,-0.057 0,-0.119 0,-0.1786 0,-0.089 0.02165,-0.1812 0,-0.2678 -0.01021,-0.041 -0.08103,-0.048 -0.08929,-0.089 -0.02335,-0.1167 0.02335,-0.2404 0,-0.3572 -0.0083,-0.041 -0.07908,-0.048 -0.08929,-0.089 -0.02165,-0.087 0.01751,-0.1803 0,-0.2679 -0.07183,-0.3593 -0.06513,-0.041 -0.178547,-0.2678 -0.04209,-0.084 -0.06646,-0.1766 -0.08929,-0.2679 -0.0072,-0.029 0,-0.059 0,-0.089 -0.02976,-0.089 -0.06646,-0.1765 -0.08929,-0.2678 -0.0072,-0.029 0.0094,-0.061 0,-0.089 -0.02104,-0.063 -0.06824,-0.1155 -0.08929,-0.1786 -0.04464,-0.1339 0.08929,-0.089 0,-0.2679 -0.03765,-0.075 -0.147308,-0.1004 -0.178572,-0.1785 -0.03316,-0.083 0.02165,-0.1813 0,-0.2679 -0.01021,-0.041 -0.07046,-0.052 -0.08929,-0.089 -0.01331,-0.027 0.01331,-0.0626 0,-0.0893 -0.01882,-0.0376 -0.07598,-0.0494 -0.08929,-0.0893 -0.01361,-0.0408 0.01986,-0.31741 0,-0.35714 -0.01882,-0.0376 -0.07046,-0.0516 -0.08929,-0.0893 -0.02356,-0.0471 0.02592,-0.22898 0,-0.26786 -0.04669,-0.07 -0.131877,-0.10853 -0.178571,-0.17857 -0.03302,-0.0495 0.02662,-0.12533 0,-0.17857 -0.01882,-0.0376 -0.07046,-0.0516 -0.08929,-0.0893 -0.01331,-0.0266 0,-0.0595 0,-0.0893 0,-0.12777 -0.04209,-0.20217 0.08929,-0.26786 0.02662,-0.0133 0.05952,0 0.08929,0 0.02976,0 0.06267,-0.0133 0.08929,0 0.03765,0.0188 0.05164,0.0705 0.08929,0.0893 0.09505,0.0475 0.08352,-0.0475 0.178571,0 0.03765,0.0188 0.05426,0.0659 0.08929,0.0893 0.153894,0.1026 0.134963,0.0893 0.267857,0.0893 0.02976,0 0.06267,-0.0133 0.08929,0 0.09598,0.048 0.171878,0.13059 0.267857,0.17857 0.08418,0.0421 0.183678,0.0472 0.267857,0.0893 0.03765,0.0188 0.04845,0.0791 0.08929,0.0893 0.08662,0.0217 0.178571,0 0.267857,0 0.02976,0 0.06267,-0.0133 0.08929,0 0.03606,0.018 0.354466,0.35447 0.357143,0.35715 0.05952,0.0595 0.111228,0.12806 0.178571,0.17857 0.08585,0.0644 0.182011,0.11419 0.267857,0.17857 0.06734,0.0505 0.10853,0.13188 0.178572,0.17857 0.05537,0.0369 0.125331,0.0494 0.178571,0.0893 0.134687,0.10097 0.222456,0.25617 0.357143,0.35717 0.05324,0.04 0.123199,0.052 0.178571,0.089 0.07004,0.047 0.119048,0.119 0.178572,0.1785 0.148809,0.1488 0.297619,0.2977 0.446428,0.4465 0.02976,0.03 0.05164,0.07 0.08929,0.089 0.02662,0.013 0.06267,-0.013 0.08929,0 0.03765,0.019 0.05427,0.066 0.08929,0.089 0.05537,0.037 0.131513,0.042 0.178571,0.089 0.04706,0.047 0.04223,0.1315 0.08929,0.1786 0.02104,0.021 0.06105,-0.01 0.08929,0 0.162164,0.054 0.165701,0.076 0.267858,0.1786 0.02976,0.03 0.07046,0.052 0.08929,0.089 0.01331,0.027 -0.01651,0.064 0,0.089 0.06868,0.103 0.199176,0.1648 0.267857,0.2678 0.07383,0.1108 0.09871,0.2507 0.178572,0.3572 0.07576,0.101 0.178571,0.1785 0.267857,0.2678 0.178572,0.1786 0.357143,0.3572 0.535714,0.5357"
       id="path3973"
       inkscape:connector-curvature="0" />
    <path
       style="fill:none;fill-rule:evenodd;stroke:#000000;stroke-width:1px;stroke-linecap:butt;stroke-linejoin:miter;stroke-opacity:1"
       d="m 39.017857,1002.3622 c 0.119048,-0.089 0.251919,-0.1627 0.357143,-0.2679 0.07588,-0.076 0.111537,-0.1841 0.178572,-0.2679 0.05259,-0.066 0.125985,-0.1128 0.178571,-0.1785 0.06703,-0.084 0.102693,-0.192 0.178571,-0.2679 0.04706,-0.047 0.125332,-0.049 0.178572,-0.089 0.06734,-0.051 0.112838,-0.126 0.178571,-0.1785 0.08379,-0.067 0.184064,-0.1116 0.267857,-0.1786 0.06573,-0.053 0.112839,-0.126 0.178572,-0.1786 0.08379,-0.067 0.184063,-0.1115 0.267857,-0.1786 0.06573,-0.053 0.106388,-0.1352 0.178571,-0.1785 0.0807,-0.048 0.183678,-0.047 0.267858,-0.089 1.072178,-0.53611 -0.384038,0.1411 0.446428,-0.35716 0.0807,-0.0484 0.176552,-0.0665 0.267857,-0.0893 0.02887,-0.007 0.06377,0.0153 0.08929,0 0.127603,-0.0766 0.22794,-0.19403 0.357143,-0.26786 0.332012,-0.18972 0.193236,-0.0208 0.535714,-0.0893 0.06526,-0.0131 0.119048,-0.0595 0.178572,-0.0893 0.119047,-0.0595 0.243011,-0.11009 0.357142,-0.17857 0.03609,-0.0217 0.05164,-0.0705 0.08929,-0.0893 0.08418,-0.0421 0.180473,-0.0543 0.267857,-0.0893 0.06179,-0.0247 0.113314,-0.0762 0.178572,-0.0893 0.08755,-0.0175 0.184957,0.0332 0.267857,0 0.07816,-0.0313 0.103279,-0.14093 0.178571,-0.17857 0.05324,-0.0266 0.122102,0.0188 0.178572,0 0.03993,-0.0133 0.05164,-0.0705 0.08928,-0.0893 0.02662,-0.0133 0.05952,0 0.08929,0 0.08929,0 0.181237,0.0217 0.267857,0 0.04083,-0.0102 0.05164,-0.0705 0.08929,-0.0893 0.03973,-0.0199 0.316305,0.0136 0.357143,0 0.03993,-0.0133 0.05164,-0.0705 0.08929,-0.0893 0.05324,-0.0266 0.123305,0.0221 0.178571,0 0.522724,-0.20909 0.198814,-0.17857 0.625,-0.17857 0.14881,0 0.297619,0 0.446429,0 0.02976,0 0.08928,-0.0298 0.08928,0 0,0.0143 -0.243735,0.23569 -0.267857,0.26785 -0.06439,0.0859 -0.114186,0.18201 -0.178571,0.26786 -0.07576,0.10102 -0.178572,0.17857 -0.267857,0.26786 -0.08929,0.0893 -0.178572,0.17857 -0.267858,0.26786 -0.02976,0.0298 -0.06403,0.0556 -0.08928,0.0893 -0.06439,0.0858 -0.111537,0.18406 -0.178572,0.26785 -0.05259,0.0657 -0.128064,0.11123 -0.178571,0.17857 -0.03993,0.0533 -0.05237,0.12319 -0.08929,0.17859 -0.251129,0.3767 0.15323,-0.48505 -0.267857,0.3571 -0.01331,0.027 0.0094,0.061 0,0.089 -0.02105,0.063 -0.05952,0.1191 -0.08929,0.1786 -0.05952,0.119 -0.104741,0.2464 -0.178571,0.3571 -0.04669,0.07 -0.135262,0.1064 -0.178572,0.1786 -0.04842,0.081 -0.0472,0.1837 -0.08928,0.2679 -0.01882,0.038 -0.07046,0.052 -0.08929,0.089 -0.04209,0.084 -0.0472,0.1836 -0.08929,0.2678 -0.01882,0.038 -0.05952,0.059 -0.08928,0.089 -0.05952,0.059 -0.128064,0.1112 -0.178572,0.1786 -0.03993,0.053 -0.05237,0.1232 -0.08929,0.1785 -0.02335,0.035 -0.06403,0.056 -0.08928,0.089 -0.08984,0.1198 -0.208506,0.2981 -0.267857,0.4465 -0.03495,0.087 -0.0472,0.1836 -0.08929,0.2678 -0.01882,0.038 -0.06403,0.056 -0.08929,0.089 -0.664049,0.8854 0.147605,-0.1768 -0.267857,0.4464 -0.02335,0.035 -0.07046,0.052 -0.08929,0.089 -0.01331,0.027 0.0072,0.06 0,0.089 -0.02283,0.091 -0.06646,0.1766 -0.08928,0.2679 -0.0072,0.029 0.01651,0.064 0,0.089 -0.04669,0.07 -0.131878,0.1085 -0.178572,0.1785 -0.01651,0.025 0.01331,0.063 0,0.089 -0.01882,0.038 -0.07046,0.052 -0.08929,0.089 -0.01331,0.027 0.01331,0.063 0,0.089 -0.01882,0.038 -0.07597,0.049 -0.08928,0.089 -0.01882,0.056 0,0.119 0,0.1786 0,0.03 0.01331,0.063 0,0.089 -0.01882,0.038 -0.07046,0.052 -0.08929,0.089 -0.01331,0.027 0.0072,0.061 0,0.089 -0.02283,0.091 -0.0472,0.1837 -0.08929,0.2679 -0.03765,0.075 -0.151951,0.099 -0.178571,0.1786 -0.01882,0.056 0,0.119 0,0.1785 0,0.03 0.01331,0.063 0,0.089 -0.01882,0.038 -0.07046,0.052 -0.08929,0.089 -0.01331,0.027 0.01331,0.063 0,0.089 -0.01882,0.038 -0.07046,0.052 -0.08929,0.089 -0.01331,0.027 0.01331,0.063 0,0.089 -0.04393,0.088 -0.313213,0.2693 -0.357142,0.3571 -0.06158,0.1232 0.108129,0.08 -0.08929,0.1786 -0.02662,0.013 -0.08929,0.03 -0.08929,0 0,-0.03 0.119048,0 0.08929,0 -0.05952,0 -0.120825,-0.014 -0.178572,0 -0.06456,0.016 -0.119047,0.059 -0.178571,0.089"
       id="path3975"
       inkscape:connector-curvature="0" />
    <path
       style="fill:none;fill-rule:evenodd;stroke:#000000;stroke-width:1px;stroke-linecap:butt;stroke-linejoin:miter;stroke-opacity:1"
       d="m 22.410714,999.23716 c 0.02976,0.11905 0.03441,0.24739 0.08929,0.35714 0.03765,0.0753 0.131877,0.10853 0.178571,0.17857 0.01651,0.0248 -0.01331,0.0627 0,0.0893 0.03765,0.0753 0.140926,0.10328 0.178572,0.17854 0.04209,0.084 0.0472,0.1837 0.08929,0.2679 0.03765,0.075 0.140925,0.1033 0.178571,0.1786 0.04209,0.084 0.0472,0.1836 0.08929,0.2678 0.01882,0.038 0.07046,0.052 0.08929,0.089 0.04209,0.084 0.06646,0.1766 0.08929,0.2679 0.0072,0.029 -0.01786,0.065 0,0.089 0.08929,0.089 0.178572,0.1785 0.267857,0.2678 0,0.03 -0.01331,0.063 0,0.089 0.136141,0.2723 0.07078,-0.1633 0.178572,0.2679 0.01444,0.058 -0.02662,0.1253 0,0.1785 0.03765,0.075 0.119047,0.1191 0.178571,0.1786 0.02976,0.03 0.07598,0.049 0.08929,0.089 0.01882,0.056 0,0.119 0,0.1786 0,0.03 -0.01331,0.063 0,0.089 0.01882,0.038 0.07046,0.052 0.08929,0.089 0.257447,0.5149 -0.115964,0.024 0.267857,0.5358 0.02525,0.034 0.05952,0.059 0.08929,0.089 0.02976,0.06 0.05237,0.1232 0.08929,0.1786 0.02335,0.035 0.07908,0.048 0.08929,0.089 0.02165,0.087 -0.02165,0.1812 0,0.2679 0.01021,0.041 0.05952,0.059 0.08929,0.089 0.05952,0.06 0.119047,0.1191 0.178571,0.1786 0.02976,0.03 0.06594,0.054 0.08929,0.089 0.03691,0.055 0.04223,0.1315 0.08929,0.1786 0.04706,0.047 0.123199,0.052 0.178572,0.089 0.07004,0.047 0.119048,0.119 0.178571,0.1785 0.08929,0.089 0.178572,0.1786 0.267857,0.2679"
       id="path3977"
       inkscape:connector-curvature="0" />
    <path
       style="fill:none;fill-rule:evenodd;stroke:#000000;stroke-width:1px;stroke-linecap:butt;stroke-linejoin:miter;stroke-opacity:1"
       d="m 45.446429,999.5943 c -0.250781,-0.0117 -0.409972,0.19618 -0.625,0.26786 -0.187057,0.0624 -0.374643,0.0578 -0.535715,0.17854 -0.06734,0.05 -0.106388,0.1353 -0.178571,0.1786 -0.161407,0.097 -0.367356,0.094 -0.535714,0.1786 -0.09598,0.048 -0.171878,0.1306 -0.267857,0.1785 -0.511059,0.2556 -0.05635,-0.055 -0.446429,0.1786 -0.09202,0.055 -0.182011,0.1142 -0.267857,0.1786 -0.03367,0.025 -0.05319,0.068 -0.08929,0.089 -0.171197,0.1027 -0.357143,0.1786 -0.535714,0.2678 -0.05952,0.03 -0.125332,0.049 -0.178572,0.089 -0.06734,0.051 -0.119047,0.1191 -0.178571,0.1786 -0.178571,0.1786 -0.357143,0.3571 -0.535714,0.5357 -0.14881,0.1488 -0.297619,0.2976 -0.446429,0.4464 -0.05952,0.06 -0.119048,0.1191 -0.178571,0.1786 -0.02976,0.03 -0.06594,0.054 -0.08929,0.089 -0.03692,0.055 -0.05237,0.1232 -0.08929,0.1786 -0.02335,0.035 -0.07046,0.052 -0.08928,0.089 -0.01331,0.027 0.01651,0.064 0,0.089 -0.13802,0.2071 -0.273474,0.1955 -0.357143,0.4465 -0.01882,0.056 0.02662,0.1253 0,0.1785 -0.01882,0.038 -0.07598,0.049 -0.08929,0.089 -0.01882,0.057 0,0.1191 0,0.1786 0,0.1735 0.02105,0.068 -0.178571,0.2679"
       id="path3979"
       inkscape:connector-curvature="0" />
    <path
       style="fill:none;fill-rule:evenodd;stroke:#000000;stroke-width:1px;stroke-linecap:butt;stroke-linejoin:miter;stroke-opacity:1"
       d="m 27.589286,1005.9336 c -0.14881,0.1488 -0.297619,0.2976 -0.446429,0.4464 -0.02976,0.03 -0.07598,0.049 -0.08929,0.089 -0.01882,0.057 0.01882,0.1221 0,0.1786 -0.01331,0.04 -0.07046,0.052 -0.08929,0.089 -0.01174,0.023 0,0.3104 0,0.3571 0,0.2976 0,0.5952 0,0.8929 0,0.2678 0,0.5357 0,0.8035 0,0.062 -0.01357,0.33 0,0.3572 0.01882,0.038 0.07046,0.052 0.08929,0.089 0.01331,0.027 0,0.059 0,0.089 0,0.059 -0.01882,0.1221 0,0.1785 0.0038,0.011 0.345726,0.3534 0.357143,0.3572 0.05647,0.019 0.122103,-0.019 0.178572,0 0.07986,0.027 0.103279,0.1409 0.178571,0.1785 0.02662,0.013 0.05952,0 0.08929,0 0.05952,0 0.122102,-0.019 0.178571,0 0.03993,0.013 0.05952,0.06 0.08929,0.089 0.05952,0.03 0.113314,0.076 0.178572,0.089 0.08755,0.018 0.178571,0 0.267857,0 0.05952,0 0.120824,0.014 0.178571,0 0.0913,-0.023 0.183678,-0.047 0.267857,-0.089 0.03765,-0.019 0.05952,-0.059 0.08929,-0.089 0.02976,-0.03 0.05952,-0.06 0.08929,-0.089 0.05952,-0.06 0.119047,-0.1191 0.178571,-0.1786 0.02976,-0.03 0.07046,-0.052 0.08929,-0.089 0.01331,-0.027 0,-0.059 0,-0.089 0,-0.03 0,-0.059 0,-0.089 0,-0.119 0,-0.2381 0,-0.3571 0,-0.06 -0.01444,-0.1209 0,-0.1786 0.02283,-0.091 0.07083,-0.1756 0.08929,-0.2679 0.02335,-0.1167 0,-0.2381 0,-0.3571 0,-0.03 -0.0094,-0.061 0,-0.089 0.02104,-0.063 0.07623,-0.1133 0.08929,-0.1786 0.02366,-0.1183 0,-0.3123 0,-0.4464 0,-0.2678 0,-0.5357 0,-0.8036 0,-0.2527 -0.06116,-0.1394 -0.178571,-0.1785 -0.06314,-0.021 -0.123199,-0.052 -0.178572,-0.089 -0.296123,-0.2961 0.08418,0.042 -0.178571,-0.089 -0.03765,-0.019 -0.05164,-0.07 -0.08929,-0.089 -0.05324,-0.027 -0.125331,0.027 -0.178571,0 -0.03765,-0.019 -0.05164,-0.071 -0.08929,-0.089 -0.07143,-0.036 -0.196428,0.036 -0.267857,0 -0.03765,-0.019 -0.04936,-0.076 -0.08929,-0.089 -0.05647,-0.019 -0.120825,0.014 -0.178571,0 -0.144145,-0.036 -0.177097,-0.088 -0.267857,-0.1786"
       id="path3981"
       inkscape:connector-curvature="0" />
    <path
       style="fill:none;fill-rule:evenodd;stroke:#000000;stroke-width:1px;stroke-linecap:butt;stroke-linejoin:miter;stroke-opacity:1"
       d="m 35.803572,1005.6657 c -0.368256,0.372 -0.532614,0.4387 -0.714286,0.8929 -0.01105,0.028 0.0094,0.061 0,0.089 -0.02105,0.063 -0.07315,0.114 -0.08929,0.1786 -0.01444,0.058 0.01882,0.1221 0,0.1785 -0.04209,0.1263 -0.129136,0.2336 -0.178567,0.3572 -0.01105,0.028 0,0.059 0,0.089 0,0.059 0,0.119 0,0.1785 0,0.2381 0,0.4762 0,0.7143 0,0.08 -0.01423,0.418 0,0.4464 0.03765,0.075 0.151951,0.099 0.178571,0.1786 0.01882,0.057 -0.01882,0.1221 0,0.1786 0.01359,0.041 0.227647,0.2276 0.267857,0.2678 0.05251,0.053 0.315797,0.3365 0.357143,0.3572 0.02662,0.013 0.06267,-0.013 0.08929,0 0.07529,0.038 0.09871,0.1519 0.178571,0.1786 0.05647,0.019 0.125332,-0.027 0.178572,0 0.07529,0.038 0.119047,0.119 0.178571,0.1785 0.02976,0.03 0.04936,0.076 0.08929,0.089 0.04752,0.016 0.637652,0 0.714286,0 0.148809,0 0.297619,0 0.446428,0 0.02976,0 0.05952,0 0.08929,0 0.02976,0 0.06267,0.013 0.08929,0 0.03765,-0.019 0.05164,-0.07 0.08928,-0.089 0.02662,-0.013 0.06267,0.013 0.08929,0 0.02371,-0.012 0.256004,-0.2441 0.267857,-0.2678 0.01331,-0.027 -0.0094,-0.061 0,-0.089 0.02105,-0.063 0.06824,-0.1155 0.08929,-0.1786 0.0094,-0.028 -0.01651,-0.064 0,-0.089 0.04669,-0.07 0.131877,-0.1085 0.178571,-0.1786 0.03302,-0.05 -0.01882,-0.1221 0,-0.1785 0.02105,-0.063 0.06824,-0.1155 0.08929,-0.1786 0.01733,-0.052 0,-0.4743 0,-0.5357 0,-0.03 0,-0.059 0,-0.089 0,-0.03 -0.01331,-0.063 0,-0.089 0.01882,-0.038 0.07598,-0.049 0.08929,-0.089 0.01882,-0.057 0,-0.119 0,-0.1786 0,-0.2083 0,-0.4166 0,-0.625 0,-0.1785 0,-0.3571 0,-0.5357 0,-0.06 0,-0.119 0,-0.1785 0,-0.03 0.01331,-0.063 0,-0.089 -0.01882,-0.038 -0.05952,-0.06 -0.08929,-0.089 -0.08929,-0.089 -0.178571,-0.1786 -0.267857,-0.2679 -0.02976,-0.03 -0.05427,-0.066 -0.08929,-0.089 -0.05537,-0.037 -0.123199,-0.052 -0.178571,-0.089 -0.204313,-0.1362 0.05583,-0.071 -0.267857,-0.1785 -0.02824,-0.01 -0.06548,0.018 -0.08929,0 -0.101015,-0.076 -0.178572,-0.1786 -0.267857,-0.2679 -0.02976,-0.03 -0.05164,-0.07 -0.08929,-0.089 -0.05324,-0.027 -0.125332,0.027 -0.178571,0 -0.03765,-0.019 -0.05164,-0.07 -0.08929,-0.089 -0.02662,-0.013 -0.08929,0.03 -0.08929,0 0,-0.03 0.05952,0 0.08929,0 0.119045,0.2075 0.249854,0.4086 0.357136,0.6224 0.05244,0.1045 -0.05312,0.1062 -0.08929,0.1785 -0.01331,0.027 0,0.06 0,0.089 -0.02976,0.089 -0.0472,0.1837 -0.08929,0.2679 -0.03765,0.075 -0.131877,0.1085 -0.178571,0.1786 -0.196711,0.045 -0.0472,0.1836 -0.08929,0.2678 -0.02067,0.041 -0.30463,0.3046 -0.357143,0.3572 -0.05251,0.053 -0.315796,0.3364 -0.357143,0.3571 -0.02662,0.013 -0.06266,-0.013 -0.08928,0 -0.07529,0.038 -0.103279,0.1409 -0.178572,0.1786 -0.02717,0.014 -0.227646,0 -0.267857,0 -0.238095,0 -0.47619,0 -0.714286,0"
       id="path3983"
       inkscape:connector-curvature="0" />
    <path
       style="fill:none;fill-rule:evenodd;stroke:#000000;stroke-width:1px;stroke-linecap:butt;stroke-linejoin:miter;stroke-opacity:1"
       d="m 36.607143,1006.0229 c -0.119048,0.03 -0.243208,0.044 -0.357143,0.089 -0.03983,0.016 -0.422718,0.4227 -0.446428,0.4464 -0.14881,0.1488 -0.29762,0.2976 -0.446429,0.4464 -0.04701,0.047 -0.244014,0.2202 -0.267857,0.2679 -0.01331,0.027 0.0094,0.061 0,0.089 -0.02105,0.063 -0.05952,0.119 -0.08929,0.1785"
       id="path3985"
       inkscape:connector-curvature="0" />
    <path
       style="fill:none;fill-rule:evenodd;stroke:#000000;stroke-width:1px;stroke-linecap:butt;stroke-linejoin:miter;stroke-opacity:1"
       d="m 28.571429,1006.7372 c -0.119048,0.089 -0.238096,0.1785 -0.357143,0.2678 -0.05952,0.03 -0.123199,0.052 -0.178572,0.089 -0.03502,0.023 -0.05164,0.071 -0.08929,0.089 -0.08418,0.042 -0.183678,0.047 -0.267857,0.089 -0.107143,0.054 -0.160715,0.2143 -0.267858,0.2678 -0.02662,0.013 -0.06266,-0.013 -0.08929,0 -0.07345,0.037 -0.291109,0.3132 -0.357143,0.3572 -0.02476,0.016 -0.06267,-0.013 -0.08929,0 -0.220661,0.1103 0.03082,0.089 -0.178571,0.089"
       id="path3987"
       inkscape:connector-curvature="0" />
    <path
       style="fill:none;fill-rule:evenodd;stroke:#000000;stroke-width:1px;stroke-linecap:butt;stroke-linejoin:miter;stroke-opacity:1"
       d="m 27.767857,1006.4693 c 0.09819,0.3975 0.168025,0.457 -0.08929,0.7143 -0.02976,0.03 -0.05952,0.06 -0.08929,0.089 -0.02976,0.03 -0.07046,0.052 -0.08929,0.089 -0.01331,0.027 0,0.059 0,0.089"
       id="path3989"
       inkscape:connector-curvature="0" />
    <path
       style="fill:none;fill-rule:evenodd;stroke:#000000;stroke-width:1px;stroke-linecap:butt;stroke-linejoin:miter;stroke-opacity:1"
       d="m 27.589286,1005.9336 c 0.238095,0 0.47619,0 0.714286,0 0.05952,0 0.122102,-0.019 0.178571,0 0.03993,0.013 0.05952,0.06 0.08929,0.089 0.02976,0.03 0.07046,0.052 0.08929,0.089 0.01331,0.027 0,0.059 0,0.089"
       id="path3991"
       inkscape:connector-curvature="0" />
    <path
       style="fill:none;fill-rule:evenodd;stroke:#000000;stroke-width:1px;stroke-linecap:butt;stroke-linejoin:miter;stroke-opacity:1"
       d="m 31.607143,1009.505 c 0.119048,0.089 0.240942,0.1749 0.357143,0.2679 0.06573,0.053 0.103279,0.1409 0.178571,0.1785 0.02662,0.013 0.05952,0 0.08929,0 0.02976,0 0.05952,0 0.08929,0 0.05952,0 0.136481,0.042 0.178571,0 0.02976,-0.03 -0.119048,-0.06 -0.08929,-0.089 0.02976,-0.03 0.131376,0.089 0.08929,0.089 -0.09412,0 -0.176552,-0.066 -0.267857,-0.089 -0.02887,-0.01 -0.06105,0.01 -0.08929,0 -0.120784,-0.04 -0.552166,-0.3078 -0.535714,-0.3572 0.004,-0.012 0.57271,0 0.714286,0 0.05952,0 0.119047,0 0.178571,0 0.02976,0 0.06267,-0.013 0.08929,0 0.03765,0.019 0.131375,0.089 0.08929,0.089 -0.06655,0 -0.178572,-0.1558 -0.178572,-0.089 0,0.084 0.131877,0.1085 0.178572,0.1786 0.01651,0.025 0,0.06 0,0.089 0,0.031 0.01204,0.6781 0,0.7143 -0.01331,0.04 -0.05952,0.059 -0.08929,0.089 -0.02976,0.03 -0.0472,0.089 -0.08929,0.089 -0.01722,0 -0.135219,-0.1496 -0.178571,-0.1785 -0.08156,-0.054 -0.216678,-0.076 -0.267857,-0.1786 -0.01001,-0.02 0,-0.3359 0,-0.3571 0,-0.2381 0,-0.4762 0,-0.7143"
       id="path3993"
       inkscape:connector-curvature="0" />
    <path
       style="fill:none;fill-rule:evenodd;stroke:#000000;stroke-width:1px;stroke-linecap:butt;stroke-linejoin:miter;stroke-opacity:1"
       d="m 31.339286,1012.3622 c 0.119047,-0.03 0.236101,-0.069 0.357143,-0.089 0.05871,-0.01 0.119047,0 0.178571,0 0.08929,0 0.178572,0 0.267857,0 0.386905,0 0.77381,0 1.160715,0 0.297619,0 0.595238,0 0.892857,0 0.08928,0 0.178571,0 0.267857,0 0.05952,0 0.122102,0.019 0.178571,0 0.06314,-0.021 0.115437,-0.068 0.178572,-0.089 0.05037,-0.017 0.209186,0 0.267857,0 0.05952,0 0.125332,-0.027 0.178571,0 0.09267,0.046 -0.04789,0.1165 -0.08928,0.1786 -0.156031,0.234 -0.03337,0.156 -0.178572,0.4464 -0.01882,0.038 -0.05952,0.06 -0.08929,0.089 -0.06974,0.07 -0.216494,0.1908 -0.267857,0.2678 -0.03692,0.055 -0.05237,0.1232 -0.08928,0.1786 -0.0557,0.084 -0.299961,0.3 -0.357143,0.3571 -0.02976,0.03 -0.05952,0.06 -0.08929,0.089 -0.02976,0.03 -0.05164,0.071 -0.08929,0.089 -0.02662,0.013 -0.06267,-0.013 -0.08928,0 -0.03765,0.019 -0.05164,0.071 -0.08929,0.089 -0.08418,0.042 -0.183678,0.047 -0.267857,0.089 -0.07529,0.038 -0.10853,0.1319 -0.178572,0.1786 -0.05537,0.037 -0.115437,0.068 -0.178571,0.089 -0.02824,0.01 -0.06824,-0.021 -0.08929,0 -0.04706,0.047 -0.05237,0.1232 -0.08929,0.1785 -0.02523,0.038 -0.230915,0.2494 -0.267857,0.2679 -0.02662,0.013 -0.05952,0 -0.08928,0 -0.02976,0 -0.06267,0.013 -0.08929,0 -0.03765,-0.019 -0.05561,-0.064 -0.08929,-0.089 -0.05581,-0.042 -0.288888,-0.1655 -0.357143,-0.2679 -0.03692,-0.055 -0.04936,-0.1253 -0.08928,-0.1785 -0.02868,-0.038 -0.330076,-0.303 -0.357143,-0.3572 -0.01331,-0.027 0.01331,-0.063 0,-0.089 -0.01882,-0.038 -0.07046,-0.052 -0.08929,-0.089 -0.02662,-0.053 0.02662,-0.1254 0,-0.1786 -0.01882,-0.038 -0.07046,-0.052 -0.08929,-0.089 -0.02434,-0.049 0.02444,-0.3205 0,-0.3572 -0.04669,-0.07 -0.131877,-0.1085 -0.178571,-0.1785 -0.01651,-0.025 0,-0.06 0,-0.089 0,-0.03 0,-0.059 0,-0.089 0,-0.1191 0,-0.2381 0,-0.3571 z"
       id="path3995"
       inkscape:connector-curvature="0" />
    <path
       style="fill:none;fill-rule:evenodd;stroke:#000000;stroke-width:1px;stroke-linecap:butt;stroke-linejoin:miter;stroke-opacity:1"
       d="m 39.553572,1011.1122 c 1.011904,0 2.023809,0 3.035714,0 0.0365,0 0.585784,-0.016 0.625,0 0.160028,0.064 0.273091,0.2245 0.446428,0.2678 0.05775,0.014 0.119858,-0.01 0.178572,0 0.121042,0.02 0.238095,0.059 0.357143,0.089 0.119047,0.03 0.247386,0.034 0.357143,0.089 0.562933,0.2815 0.133435,0.2479 0.625,0.3571 0.176723,0.039 0.356077,0.067 0.535714,0.089 0.05906,0.01 0.123305,-0.022 0.178571,0 0.727419,0.291 -0.168325,0.092 0.535715,0.2679 0.02887,0.01 0.06105,-0.01 0.08928,0 0.06314,0.021 0.115437,0.068 0.178572,0.089 0.02823,0.01 0.06267,-0.013 0.08928,0 0.03765,0.019 0.05952,0.059 0.08929,0.089"
       id="path3997"
       inkscape:connector-curvature="0" />
    <path
       style="fill:none;fill-rule:evenodd;stroke:#000000;stroke-width:1px;stroke-linecap:butt;stroke-linejoin:miter;stroke-opacity:1"
       d="m 28.214286,1011.6479 c -0.341764,-0.108 -0.561144,-0.1422 -0.892857,0 -0.122338,0.052 -0.232518,0.1318 -0.357143,0.1785 -0.111088,0.042 -0.723182,0.1697 -0.803572,0.1786 -0.118319,0.013 -0.239291,-0.017 -0.357143,0 -0.11124,0.016 -0.70611,0.2656 -0.714285,0.2679 -0.174656,0.048 -0.355081,0.077 -0.535715,0.089 -0.267263,0.018 -0.538063,-0.035 -0.803571,0 -0.205688,0.027 -0.771417,0.2805 -0.982143,0.3571 -0.176898,0.064 -0.354726,0.1269 -0.535714,0.1786 -0.02862,0.01 -0.06267,-0.013 -0.08929,0 -0.03765,0.019 -0.04845,0.079 -0.08929,0.089 -0.08662,0.022 -0.179786,-0.015 -0.267857,0 -0.09283,0.015 -0.176551,0.066 -0.267857,0.089 -0.02887,0.01 -0.06267,-0.013 -0.08929,0 -0.03765,0.019 -0.04936,0.076 -0.08929,0.089 -0.05647,0.019 -0.125332,-0.027 -0.178572,0 -0.07529,0.038 -0.119047,0.1191 -0.178571,0.1786 -0.02976,0.03 -0.07046,0.052 -0.08929,0.089 -0.0176,0.035 0,0.3583 0,0.4464"
       id="path3999"
       inkscape:connector-curvature="0" />
    <path
       style="fill:none;fill-rule:evenodd;stroke:#000000;stroke-width:1px;stroke-linecap:butt;stroke-linejoin:miter;stroke-opacity:1"
       d="m 13.035714,1037.8979 c -0.331632,-0.1645 -0.443045,0 -0.714285,-0.1786 -0.03502,-0.023 -0.05561,-0.064 -0.08929,-0.089 -0.08585,-0.064 -0.191979,-0.1027 -0.267857,-0.1786 -0.04706,-0.047 -0.05237,-0.1232 -0.08929,-0.1785 -0.08759,-0.1314 -0.269555,-0.2258 -0.357143,-0.3572 -0.03691,-0.055 -0.04936,-0.1253 -0.08929,-0.1785 -0.133414,-0.1779 -0.213827,-0.1411 -0.267857,-0.3572 -0.01444,-0.058 0.01882,-0.1221 0,-0.1786 -0.01331,-0.04 -0.05952,-0.059 -0.08929,-0.089 -0.05952,-0.06 -0.140926,-0.1033 -0.178572,-0.1786 -0.02662,-0.053 0.01444,-0.1208 0,-0.1786 -0.03228,-0.1291 -0.129139,-0.2336 -0.178571,-0.3571 -0.03495,-0.087 -0.0472,-0.1837 -0.08929,-0.2679 -0.04799,-0.096 -0.138718,-0.1682 -0.178571,-0.2678 -0.02211,-0.055 0.0098,-0.1199 0,-0.1786 -0.02017,-0.1211 -0.06522,-0.2368 -0.08929,-0.3572 -0.0058,-0.029 0.0072,-0.06 0,-0.089 -0.07106,-0.2843 -0.227484,-0.5442 -0.357118,-0.8035 -0.029762,-0.06 -0.073145,-0.114 -0.089286,-0.1786 -0.014437,-0.058 0.00979,-0.1198 0,-0.1786 -0.020174,-0.121 -0.055574,-0.2391 -0.089286,-0.3571 -0.025856,-0.091 -0.073813,-0.175 -0.089286,-0.2679 -0.069827,-0.4189 0.1176233,-0.1422 -0.089286,-0.625 -0.042271,-0.099 -0.1446377,-0.166 -0.1785715,-0.2678 -0.028235,-0.085 0.014679,-0.1798 0,-0.2679 -0.015472,-0.093 -0.073813,-0.175 -0.089286,-0.2678 -0.03425,-0.2055 0.029463,-0.4188 0,-0.625 -0.01331,-0.093 -0.073813,-0.175 -0.089286,-0.2679 -0.014679,-0.088 0,-0.1786 0,-0.2678 0,-0.1191 0,-0.2381 0,-0.3572 0,-0.5357 0,-1.0714 0,-1.6071 0,-1.5774 0,-3.1548 0,-4.7322 0,-0.6547 0,-1.3095 0,-1.9643 0,-0.2083 0,-0.4166 0,-0.625 0,-0.06 0.00842,-0.1196 0,-0.1785 -0.021462,-0.1503 -0.056365,-0.2983 -0.089286,-0.4465 -0.02662,-0.1197 -0.074065,-0.2353 -0.089286,-0.3571 -0.014766,-0.1181 0.014766,-0.239 0,-0.3571 -0.01522,-0.1218 -0.062666,-0.2374 -0.089286,-0.3572 -0.032921,-0.1481 -0.070463,-0.2958 -0.089286,-0.4464 -0.011075,-0.089 0.011074,-0.1793 0,-0.2679 -0.018823,-0.1506 -0.074185,-0.2954 -0.089286,-0.4464 -0.014807,-0.1481 0.029184,-0.3005 0,-0.4464 -0.031432,-0.1572 -0.1449896,-0.2897 -0.1785714,-0.4465 -0.1362192,-0.6356 -0.089286,-1.3197 -0.089286,-1.9642 0,-0.1489 0.024464,-0.2997 0,-0.4465 -0.03562,-0.2137 -0.1499355,-0.4102 -0.1785714,-0.625 -0.031468,-0.236 0,-0.4762 0,-0.7143 0,-0.5654 0,-1.1309 0,-1.6964 0,-0.2083 0.027534,-0.4185 0,-0.625 -0.032436,-0.2433 -0.1461355,-0.471 -0.1785715,-0.7143 -0.027534,-0.2065 0.027534,-0.4185 0,-0.625 -0.032436,-0.2432 -0.1481304,-0.4707 -0.1785714,-0.7143 -0.029532,-0.2362 0,-0.4761 0,-0.7142 0,-0.4465 0,-0.8929 0,-1.3393 0,-1.131 0,-2.2619 0,-3.3929 0,-0.3274 0,-0.6547 0,-0.9821 0,-0.1191 0,-0.2381 0,-0.3572 0,-0.06 -0.011674,-0.1202 0,-0.1785 0.018458,-0.092 0.054332,-0.1805 0.089286,-0.2679 0.024716,-0.062 0.078345,-0.1129 0.089286,-0.1786 0.019571,-0.1174 -0.016836,-0.2393 0,-0.3571 0.044884,-0.3142 0.1263957,-0.2528 0.2678572,-0.5357 0.04209,-0.084 0.070828,-0.1756 0.089286,-0.2679 0.048607,-0.24302 -0.095678,-0.16897 0.089286,-0.44641 0.070042,-0.10506 0.2028923,-0.15958 0.2678572,-0.26786 0.030625,-0.051 -0.018823,-0.1221 0,-0.17857 0.02662,-0.0799 0.1581549,-0.0969 0.1785714,-0.17857 0.021655,-0.0866 0,-0.17857 0,-0.26786 0,-0.0298 -0.01331,-0.0627 0,-0.0893 0.023843,-0.0477 0.2208514,-0.22085 0.2678571,-0.26786 0.029762,-0.0298 0.059524,-0.0595 0.089286,-0.0893 0.029762,-0.0298 0.047196,-0.0893 0.089286,-0.0893 0.04209,0 0.059524,0.0595 0.089286,0.0893 0.059524,0.0595 0.147308,0.10041 0.1785714,0.17857 0.03316,0.0829 0,0.17857 0,0.26786 0,0.26785 0,0.53571 0,0.80357 0,0.32738 0,0.6548 0,0.9821 0,0.1786 0.022149,0.3586 0,0.5358 -0.015221,0.1217 -0.074065,0.2353 -0.089286,0.3571 -0.014766,0.1181 0,0.2381 0,0.3571 0,0.06 0.011674,0.1202 0,0.1786 -0.018458,0.092 -0.070828,0.1756 -0.089286,0.2679 -0.029184,0.1459 0.024464,0.2996 0,0.4464 -0.015472,0.093 -0.073813,0.175 -0.089286,0.2679 -0.017361,0.1041 0.023148,0.5555 0,0.625 -0.02662,0.08 -0.1519516,0.099 -0.1785715,0.1785 -0.037646,0.113 0,0.2381 0,0.3572 0,0.119 0,0.2381 0,0.3571 0,0.059 0.00979,0.1199 0,0.1786 -0.020174,0.121 -0.06522,0.2368 -0.089286,0.3571 -0.00584,0.029 0,0.059 0,0.089 0,0.1191 0,0.2381 0,0.3572 0,0.2678 0,0.5357 0,0.8035 0,0.8036 0,1.6072 0,2.4107 0,0.3274 0,0.6548 0,0.9822 0,0.119 -0.014766,0.239 0,0.3571 0.01522,0.1218 0.059524,0.2381 0.089286,0.3572 0.029762,0.1488 0.072527,0.2956 0.089286,0.4464 0.013147,0.1183 -0.016836,0.2393 0,0.3571 0.01331,0.093 0.077612,0.1745 0.089286,0.2679 0.018458,0.1477 -0.014807,0.2984 0,0.4464 0.0151,0.151 0.072527,0.2956 0.089286,0.4465 0.013147,0.1183 -0.032705,0.2426 0,0.3571 0.02948,0.1032 0.1363007,0.1692 0.1785714,0.2679 0.2718127,0.6342 0.00775,0.128 0.089286,0.5357 0.018458,0.092 0.054332,0.1804 0.089286,0.2678 0.1702377,0.4256 0.4692067,0.7845 0.5357137,1.25 0.0381,0.2667 -0.06349,0.4286 0,0.7143 0.02887,0.1299 0.14629,0.228 0.178572,0.3572 0.02887,0.1155 -0.01477,0.239 0,0.3571 0.01522,0.1218 0.07573,0.2352 0.08929,0.3571 0.0964,0.8677 -0.127496,0.026 0.08929,0.8929 0.07859,0.3144 0.121841,0.2965 0.267857,0.625 0.140797,0.3168 0.236273,0.5454 0.267857,0.8929 0.01617,0.1778 0,0.3571 0,0.5357 0,0.1785 0,0.3571 0,0.5357 0,0.7738 0,1.5476 0,2.3214 0,0.2083 0,0.4167 0,0.625 0,0.2083 -0.02946,0.4188 0,0.625 0.01672,0.4133 0.29559,0.7606 0.357143,1.1607 0.06336,0.4119 -0.05893,0.8376 0,1.25 0.250805,1.7557 0.133925,-0.4911 0.267857,1.25 0.0137,0.1781 0,0.3572 0,0.5357 0,0.1489 -0.02662,0.3001 0,0.4465 0.03046,0.1675 0.277935,0.8039 0.357143,0.9821 0.05406,0.1216 0.131837,0.2325 0.178572,0.3572 0.2276,0.6069 0.0044,0.1157 0.08929,0.625 0.01547,0.093 0.07083,0.1755 0.08929,0.2678 0.01167,0.058 -0.01882,0.1221 0,0.1786 0.223361,0.6701 0.155592,0.041 0.267857,0.7143 0.02896,0.1737 -0.02896,0.3619 0,0.5357 0.01094,0.066 0.07623,0.1133 0.08929,0.1786 0.03502,0.1751 -0.02936,0.3595 0,0.5357 0.01547,0.093 0.07381,0.175 0.08929,0.2678 0.01468,0.088 -0.03316,0.185 0,0.2679 0.03126,0.078 0.147308,0.1004 0.178571,0.1786 0.03316,0.083 -0.02165,0.1812 0,0.2678 0.01021,0.041 0.07908,0.048 0.08929,0.089 0.03609,0.1444 -0.03609,0.3021 0,0.4464 0.01614,0.065 0.06824,0.1155 0.08929,0.1786 0.0094,0.028 -0.0094,0.061 0,0.089 0.02104,0.063 0.06824,0.1154 0.08929,0.1786 0.0094,0.028 0,0.06 0,0.089 0,0.089 -0.01751,0.1803 0,0.2678 0.02703,0.1352 0.09351,0.1828 0.178572,0.2679 0.02976,0.03 0.07046,0.052 0.08929,0.089 0.01331,0.027 -0.01331,0.063 0,0.089 0.110331,0.2207 0.08929,-0.031 0.08929,0.1786"
       id="path4001"
       inkscape:connector-curvature="0" />
    <path
       style="fill:none;fill-rule:evenodd;stroke:#000000;stroke-width:1px;stroke-linecap:butt;stroke-linejoin:miter;stroke-opacity:1"
       d="m 22.142857,1034.2372 c 0.293651,-0.1167 0.586967,-0.089 0.892857,-0.089 0.03042,0 0.308821,-0.016 0.357143,0 0.323687,0.1079 0.06355,0.042 0.267857,0.1785 0.05537,0.037 0.123199,0.052 0.178572,0.089 0.03502,0.023 0.05426,0.066 0.08929,0.089 0.05537,0.037 0.115437,0.068 0.178572,0.089 0.02823,0.01 0.06452,-0.016 0.08929,0 0.08822,0.059 0.346869,0.3469 0.446428,0.4464 0.141316,0.1413 0.486382,0.4277 0.535714,0.625 0.02887,0.1155 -0.02887,0.2417 0,0.3572 0.01614,0.064 0.06824,0.1154 0.08929,0.1785 0.0094,0.028 -0.0072,0.061 0,0.089 0.02283,0.091 0.06646,0.1766 0.08929,0.2679 0.05291,0.2116 -0.15873,-0.04 0,0.3571 0.03126,0.078 0.131877,0.1086 0.178571,0.1786 0.01651,0.025 0,0.06 0,0.089 0,0.2083 0,0.4167 0,0.625 0,0.2083 0,0.4167 0,0.625 0,0.119 0.02887,0.2416 0,0.3571 -0.01021,0.041 -0.07046,0.052 -0.08929,0.089 -0.01331,0.027 0.0094,0.061 0,0.089 -0.02104,0.063 -0.06824,0.1154 -0.08929,0.1786 -0.01679,0.05 0,0.2092 0,0.2678 0,0.2381 0,0.4762 0,0.7143 0,0.046 -0.01473,0.3351 0,0.3572 0.08759,0.1313 0.269555,0.2257 0.357143,0.3571 0.02976,0.06 0.05952,0.1191 0.08929,0.1786 0,0.03 -0.01331,0.063 0,0.089 0.01882,0.038 0.05952,0.06 0.08929,0.089 0.05952,0.06 0.131877,0.1085 0.178572,0.1785 0.01651,0.025 -0.01331,0.063 0,0.089 0.136141,0.2723 0.07078,-0.1633 0.178571,0.2679 0.01444,0.058 -0.02662,0.1253 0,0.1785 0.05357,0.1072 0.214286,0.1608 0.267857,0.2679 0.01331,0.027 -0.01331,0.063 0,0.089 0.01882,0.038 0.05952,0.06 0.08929,0.089 0.02976,0.06 0.06457,0.1168 0.08929,0.1785 0.03495,0.087 0.0472,0.1837 0.08929,0.2679 0.03765,0.075 0.151952,0.099 0.178572,0.1786 0.01882,0.056 -0.01882,0.1221 0,0.1785 0.01331,0.04 0.07046,0.052 0.08929,0.089 0.01331,0.027 -0.01331,0.063 0,0.089 0.01882,0.038 0.07598,0.049 0.08929,0.089 0.01882,0.056 -0.02662,0.1253 0,0.1786 0.05647,0.1129 0.178572,0.1786 0.267857,0.2678 0.04701,0.047 0.220171,0.2441 0.267858,0.2679 0.05268,0.026 0.206443,-0.02 0.267857,0 0.06313,0.021 0.115437,0.068 0.178571,0.089 0.156681,0.052 0.08478,-0.094 0.267857,0.089"
       id="path4003"
       inkscape:connector-curvature="0" />
    <path
       style="fill:none;fill-rule:evenodd;stroke:#000000;stroke-width:1px;stroke-linecap:butt;stroke-linejoin:miter;stroke-opacity:1"
       d="m 26.25,1045.13 c 0.267857,0 0.535714,0 0.803571,0 0.05952,0 0.120825,-0.014 0.178572,0 0.06456,0.016 0.115437,0.068 0.178571,0.089 0.02824,0.01 0.05952,0 0.08929,0 0.08929,0 0.181237,-0.022 0.267857,0 0.04083,0.01 0.05164,0.071 0.08929,0.089 0.02662,0.013 0.05952,0 0.08929,0 0.05952,0 0.120824,-0.014 0.178571,0 0.258949,0.065 0.104488,0.07 0.267857,0.1786 0.303519,0.2023 0.04789,0.012 0.357143,0.089 0.06456,0.016 0.114009,0.073 0.178572,0.089 0.08662,0.022 0.183153,-0.028 0.267857,0 0.06313,0.021 0.115437,0.068 0.178571,0.089 0.05037,0.017 0.209187,0 0.267857,0 0.238095,0 0.476191,0 0.714286,0 0.148809,0 0.297619,0 0.446429,0 0.02976,0 0.05952,0 0.08929,0 0.02976,0 0.06267,0.013 0.08929,0 0.03765,-0.019 0.07046,-0.052 0.08929,-0.089 0.01331,-0.027 0.0094,-0.061 0,-0.089 -0.05952,-0.1786 -0.08929,-0.2084 -0.267857,-0.2679 -0.02823,-0.01 -0.06105,0.01 -0.08929,0 -0.307787,-0.1026 -0.06614,-0.089 -0.267857,-0.089 -0.02976,0 -0.06267,0.013 -0.08929,0 -0.03765,-0.019 -0.05952,-0.06 -0.08929,-0.089 -0.02976,-0.03 -0.05952,-0.06 -0.08929,-0.089 -0.09956,-0.1 -0.358212,-0.3876 -0.446429,-0.4464 -0.02476,-0.016 -0.06105,0.01 -0.08929,0 -0.126269,-0.042 -0.230874,-0.1365 -0.357143,-0.1786 -0.05037,-0.017 -0.209186,0 -0.267857,0 -0.07737,0 -0.305422,0.017 -0.357143,0 -0.06313,-0.021 -0.114008,-0.073 -0.178571,-0.089 -0.06804,-0.017 -0.532621,0 -0.625,0"
       id="path4005"
       inkscape:connector-curvature="0" />
    <path
       style="fill:none;fill-rule:evenodd;stroke:#000000;stroke-width:1px;stroke-linecap:butt;stroke-linejoin:miter;stroke-opacity:1"
       d="m 30,1030.13 c 0.14881,0.03 0.297619,0.059 0.446429,0.089 0.02976,0.03 0.05021,0.074 0.08929,0.089 0.113935,0.046 0.247387,0.034 0.357143,0.089 0.07529,0.038 0.106388,0.1352 0.178572,0.1785 0.724956,0.435 0.03812,-0.017 0.357143,0.089 0.06313,0.021 0.114008,0.073 0.178571,0.089 0.118471,0.03 0.4306,-0.035 0.535714,0 0.07986,0.027 0.103279,0.1409 0.178572,0.1786 0.06969,0.035 0.332926,-0.084 0.357143,-0.089 0.593911,-0.1188 -0.264628,0.1594 0.357142,-0.089 0.898775,-0.3595 -0.189571,0.07 0.446429,-0.089 0.159315,-0.04 0.248772,-0.1595 0.357143,-0.2678"
       id="path4007"
       inkscape:connector-curvature="0" />
    <path
       style="fill:none;fill-rule:evenodd;stroke:#000000;stroke-width:1px;stroke-linecap:butt;stroke-linejoin:miter;stroke-opacity:1"
       d="m 27.767857,1032.1836 c -0.273602,0.084 -0.362316,0.1837 -0.535714,0.3571 -0.02976,0.03 -0.05164,0.071 -0.08929,0.089 -0.08418,0.042 -0.192565,0.033 -0.267857,0.089 -0.05324,0.04 -0.05237,0.1232 -0.08929,0.1786 -0.02335,0.035 -0.06594,0.054 -0.08929,0.089 -0.07383,0.1107 -0.104742,0.2464 -0.178572,0.3571 -0.03656,0.055 -0.142014,0.1238 -0.178571,0.1786 -0.02976,0.06 -0.05952,0.119 -0.08929,0.1786 0,0.03 0.01331,0.063 0,0.089 -0.01882,0.038 -0.07598,0.049 -0.08929,0.089 -0.03765,0.113 0.05324,0.2507 0,0.3572 -0.03765,0.075 -0.131877,0.1085 -0.178571,0.1785 -0.01651,0.025 0.0094,0.061 0,0.089 -0.02976,0.06 -0.05952,0.1191 -0.08929,0.1786 0,0.03 0.0094,0.061 0,0.089 -0.04209,0.1263 -0.136482,0.2309 -0.178571,0.3571 -0.0017,0 -0.0086,0.4293 0,0.4465 0.01882,0.038 0.05952,0.06 0.08929,0.089"
       id="path4011"
       inkscape:connector-curvature="0" />
    <path
       style="fill:none;fill-rule:evenodd;stroke:#000000;stroke-width:1px;stroke-linecap:butt;stroke-linejoin:miter;stroke-opacity:1"
       d="m 34.107143,1043.6122 c 0.119048,0.089 0.238095,0.1785 0.357143,0.2678 0.05952,0.03 0.123199,0.052 0.178571,0.089 0.03502,0.023 0.05164,0.071 0.08929,0.089 0.02662,0.013 0.06267,-0.013 0.08929,0 0.03765,0.019 0.05164,0.071 0.08928,0.089 0.02662,0.013 0.06105,-0.01 0.08929,0 0.06314,0.021 0.115437,0.068 0.178572,0.089 0.02823,0.01 0.06266,-0.013 0.08928,0 0.03765,0.019 0.05164,0.07 0.08929,0.089 0.05324,0.027 0.120825,-0.014 0.178571,0 0.09131,0.023 0.183678,0.047 0.267858,0.089 0.408625,0.2044 -0.378877,-0.037 0.267857,0.1786 0.07187,0.024 0.300087,-0.028 0.357143,0 0.03765,0.019 0.05164,0.071 0.08928,0.089 0.05324,0.027 0.125332,-0.027 0.178572,0 0.197415,0.099 0.02771,0.055 0.08928,0.1786 0.01882,0.038 0.07046,0.052 0.08929,0.089 0.01331,0.027 0,0.06 0,0.089 0,0.03 0.0072,0.061 0,0.089 -0.02283,0.091 -0.03708,0.1896 -0.08929,0.2679 -0.01651,0.025 -0.06105,-0.01 -0.08928,0 -0.06314,0.021 -0.115437,0.068 -0.178572,0.089 -0.05647,0.019 -0.125331,-0.027 -0.178571,0 -0.03765,0.019 -0.05164,0.07 -0.08929,0.089 -0.02555,0.013 -0.398731,0 -0.446428,0 -0.29762,0 -0.595239,0 -0.892858,0 -0.09749,0 -0.388687,0.019 -0.446428,0 -0.646734,-0.2156 0.140768,0.026 -0.267857,-0.1786 -0.05324,-0.027 -0.125332,0.027 -0.178572,0 -0.03765,-0.019 -0.05164,-0.071 -0.08928,-0.089 -0.05612,-0.028 -0.301025,0.028 -0.357143,0 -0.03765,-0.019 -0.05164,-0.07 -0.08929,-0.089 -0.02662,-0.013 -0.06041,0.01 -0.08929,0 -0.0913,-0.023 -0.183678,-0.047 -0.267857,-0.089 -0.107143,-0.054 -0.160714,-0.2143 -0.267857,-0.2678 -0.02662,-0.013 -0.06267,0.013 -0.08929,0 -0.03765,-0.019 -0.05952,-0.06 -0.08928,-0.089 -0.02976,-0.03 -0.07046,-0.052 -0.08929,-0.089 -0.02662,-0.053 0.01882,-0.1221 0,-0.1786 -0.02105,-0.063 -0.07315,-0.114 -0.08929,-0.1785 -0.01444,-0.058 0.01882,-0.1221 0,-0.1786 -0.01331,-0.04 -0.05952,-0.059 -0.08929,-0.089 -0.08928,-0.089 -0.178571,-0.1786 -0.267857,-0.2678 -0.02976,-0.03 -0.06594,-0.054 -0.08928,-0.089 -0.03692,-0.055 -0.05237,-0.1232 -0.08929,-0.1786 -0.04669,-0.07 -0.140925,-0.1033 -0.178572,-0.1786 -0.01331,-0.027 0.01331,-0.063 0,-0.089 -0.01882,-0.038 -0.07046,-0.052 -0.08929,-0.089 -0.02361,-0.047 0.01087,-0.3137 0,-0.3572 -0.01614,-0.065 -0.06824,-0.1154 -0.08929,-0.1786 -0.0094,-0.028 0,-0.06 0,-0.089 0,-0.1488 0,-0.2976 0,-0.4464 0,-0.06 0.01167,-0.1202 0,-0.1786 -0.01846,-0.092 -0.07083,-0.1755 -0.08929,-0.2678 -0.01167,-0.058 0,-0.1191 0,-0.1786 0,-0.1786 0,-0.3571 0,-0.5357 0,-0.5059 0,-1.0119 0,-1.5179 0,-0.2083 0,-0.4166 0,-0.625 0,-0.089 0.03993,-0.1879 0,-0.2678 -0.03765,-0.075 -0.140925,-0.1033 -0.178571,-0.1786 -0.0046,-0.01 0,-0.5269 0,-0.5357 0,-0.1488 0,-0.2976 0,-0.4464 0,-0.06 0.01167,-0.1202 0,-0.1786 -0.02407,-0.1203 -0.06522,-0.2368 -0.08929,-0.3571 -0.0196,-0.098 0,-0.3387 0,-0.4465 0,-0.03 0.0072,-0.06 0,-0.089 -0.02283,-0.091 -0.06646,-0.1765 -0.08929,-0.2678 -0.02887,-0.1155 0.02887,-0.2417 0,-0.3572 -0.01021,-0.041 -0.07597,-0.049 -0.08929,-0.089 -0.01882,-0.056 0,-0.1191 0,-0.1786 0,-0.2083 0,-0.4167 0,-0.625 0,-0.03 0,-0.059 0,-0.089 0,-0.03 0.01651,-0.065 0,-0.089 -0.04669,-0.07 -0.140926,-0.1033 -0.178572,-0.1785 -0.04464,-0.089 0.02232,-0.1786 0,-0.2679 -0.02283,-0.091 -0.06646,-0.1766 -0.08929,-0.2679 -0.0072,-0.029 0.01331,-0.063 0,-0.089 -0.01882,-0.038 -0.07908,-0.048 -0.08929,-0.089 0,-0.6333 0.06313,-0.052 -0.08929,-0.3572 -0.02662,-0.053 0.03302,-0.129 0,-0.1785 -0.04669,-0.07 -0.131877,-0.1086 -0.178571,-0.1786 -0.01651,-0.025 0,-0.06 0,-0.089 0,-0.1191 0.02887,-0.2417 0,-0.3572 -0.01021,-0.041 -0.07046,-0.052 -0.08929,-0.089 -0.02662,-0.053 0.01882,-0.1221 0,-0.1786 -0.02105,-0.063 -0.07315,-0.114 -0.08929,-0.1786 -0.01444,-0.058 0.01882,-0.1221 0,-0.1785 -0.01331,-0.04 -0.07598,-0.049 -0.08929,-0.089 -0.01882,-0.056 0,-0.1191 0,-0.1786 0,-0.03 0.01651,-0.064 0,-0.089 -0.04669,-0.07 -0.140926,-0.1033 -0.178572,-0.1786 -0.01096,-0.022 0,-0.5717 0,-0.625"
       id="path4015"
       inkscape:connector-curvature="0" />
    <path
       style="fill:none;fill-rule:evenodd;stroke:#000000;stroke-width:1px;stroke-linecap:butt;stroke-linejoin:miter;stroke-opacity:1"
       d="m 31.964286,1045.4872 c -0.238095,0 -0.476191,0 -0.714286,0 -0.02976,0 -0.06267,0.013 -0.08929,0 -0.03765,-0.019 -0.05426,-0.066 -0.08929,-0.089 -0.451054,-0.3007 -0.0021,-7e-4 -0.267857,-0.089 -0.646734,-0.2156 0.140768,0.026 -0.267858,-0.1786 -0.08418,-0.042 -0.192564,-0.033 -0.267857,-0.089 -0.05324,-0.04 -0.05237,-0.1232 -0.08929,-0.1785 -0.0557,-0.084 -0.299961,-0.3 -0.357143,-0.3572 -0.02976,-0.03 -0.07046,-0.052 -0.08929,-0.089 -0.04209,-0.084 -0.0472,-0.1837 -0.08929,-0.2678 -0.01882,-0.038 -0.05952,-0.06 -0.08929,-0.089 -0.05952,-0.06 -0.128064,-0.1112 -0.178572,-0.1786 -0.03993,-0.053 -0.05237,-0.1232 -0.08929,-0.1786 -0.02335,-0.035 -0.06594,-0.054 -0.08929,-0.089 -0.03691,-0.055 -0.05952,-0.1191 -0.08929,-0.1786 -0.05952,-0.1191 -0.12914,-0.2336 -0.178571,-0.3572 -0.01105,-0.028 0.0072,-0.06 0,-0.089 -0.02283,-0.091 -0.05433,-0.1805 -0.08929,-0.2679 -0.02472,-0.062 -0.07315,-0.114 -0.08929,-0.1786 -0.01444,-0.058 0,-0.119 0,-0.1785 0,-0.1489 0.02918,-0.3006 0,-0.4465 -0.01305,-0.065 -0.07623,-0.1133 -0.08929,-0.1785 -0.01751,-0.088 0,-0.1786 0,-0.2679 0,-0.2381 0,-0.4762 0,-0.7143 0,-0.1786 0,-0.3571 0,-0.5357 0,-0.06 0.02662,-0.1253 0,-0.1786 -0.03765,-0.075 -0.147308,-0.1004 -0.178571,-0.1785 -0.03316,-0.083 0.01751,-0.1804 0,-0.2679 -0.01305,-0.065 -0.07315,-0.114 -0.08929,-0.1786 -0.01444,-0.058 0,-0.119 0,-0.1785 0,-0.06 0,-0.1191 0,-0.1786 0,-0.089 0,-0.1786 0,-0.2679 0,-0.03 0.01331,-0.063 0,-0.089 -0.01882,-0.038 -0.07908,-0.048 -0.08929,-0.089 0,-0.5078 0.03993,-0.059 -0.08929,-0.4465 -0.02155,-0.065 0,-0.6137 0,-0.7143 0,-0.03 0.0094,-0.061 0,-0.089 -0.02105,-0.063 -0.05952,-0.119 -0.08929,-0.1785 -0.02976,-0.06 -0.05237,-0.1232 -0.08929,-0.1786 -0.02335,-0.035 -0.07597,-0.049 -0.08929,-0.089 -0.01882,-0.056 0.01167,-0.1202 0,-0.1786 -0.01846,-0.092 -0.06646,-0.1765 -0.08929,-0.2678 -0.0072,-0.029 0,-0.06 0,-0.089 0,-0.1786 0,-0.3571 0,-0.5357 0,-0.06 0.01444,-0.1208 0,-0.1786 -0.01614,-0.064 -0.06824,-0.1154 -0.08929,-0.1786 -0.0094,-0.028 0,-0.06 0,-0.089 0,-0.087 0.01636,-0.5431 0,-0.625 0.05382,-0.1616 -0.144637,-0.166 -0.178571,-0.2678 -0.01693,-0.051 0,-0.3623 0,-0.4464 0,-0.1488 0,-0.2977 0,-0.4465 0,-0.06 0,-0.119 0,-0.1785 0,-0.03 0.01331,-0.063 0,-0.089 -0.01882,-0.038 -0.07046,-0.052 -0.08929,-0.089 -0.02959,-0.059 0.02494,-0.2823 0,-0.3572 -0.02105,-0.063 -0.05952,-0.119 -0.08929,-0.1785"
       id="path4017"
       inkscape:connector-curvature="0" />
    <path
       style="fill:none;fill-rule:evenodd;stroke:#000000;stroke-width:1px;stroke-linecap:butt;stroke-linejoin:miter;stroke-opacity:1"
       d="m 30.535714,1045.13 c 0.14881,-0.03 0.296737,-0.064 0.446429,-0.089 0.05871,-0.01 0.119048,0 0.178571,0 0.119048,0 0.238096,0 0.357143,0 0.327381,0 0.654762,0 0.982143,0 0.0353,0 0.408296,0.019 0.446429,0 0.03765,-0.019 0.05952,-0.06 0.08928,-0.089"
       id="path4019"
       inkscape:connector-curvature="0" />
  </g>
</svg>
