<?xml version="1.0" encoding="UTF-8" standalone="no"?>
<!-- Created with Inkscape (http://www.inkscape.org/) -->

<svg
   xmlns:dc="http://purl.org/dc/elements/1.1/"
   xmlns:cc="http://creativecommons.org/ns#"
   xmlns:rdf="http://www.w3.org/1999/02/22-rdf-syntax-ns#"
   xmlns:svg="http://www.w3.org/2000/svg"
   xmlns="http://www.w3.org/2000/svg"
   xmlns:sodipodi="http://sodipodi.sourceforge.net/DTD/sodipodi-0.dtd"
   xmlns:inkscape="http://www.inkscape.org/namespaces/inkscape"
   width="64"
   height="64"
   viewBox="0 0 64.000001 64.000001"
   id="svg2"
   version="1.1"
   inkscape:version="0.91 r13725"
   inkscape:export-filename="/home/oserkin/zwork/DeepLearning/deep_learning_workshop_tasks/commonlearningdata/cartooncats/1_cat_12.png"
   inkscape:export-xdpi="90"
   inkscape:export-ydpi="90"
   sodipodi:docname="1_cat_12.svg">
  <defs
     id="defs4" />
  <sodipodi:namedview
     id="base"
     pagecolor="#ffffff"
     bordercolor="#666666"
     borderopacity="1.0"
     inkscape:pageopacity="0.0"
     inkscape:pageshadow="2"
     inkscape:zoom="11.2"
     inkscape:cx="30.481924"
     inkscape:cy="29.606808"
     inkscape:document-units="px"
     inkscape:current-layer="layer1"
     showgrid="false"
     units="px"
     inkscape:window-width="1855"
     inkscape:window-height="1056"
     inkscape:window-x="1985"
     inkscape:window-y="24"
     inkscape:window-maximized="1" />
  <metadata
     id="metadata7">
    <rdf:RDF>
      <cc:Work
         rdf:about="">
        <dc:format>image/svg+xml</dc:format>
        <dc:type
           rdf:resource="http://purl.org/dc/dcmitype/StillImage" />
        <dc:title></dc:title>
      </cc:Work>
    </rdf:RDF>
  </metadata>
  <g
     inkscape:label="Layer 1"
     inkscape:groupmode="layer"
     id="layer1"
     transform="translate(0,-988.36216)">
    <ellipse
       style="fill:#ffffff;fill-rule:evenodd;stroke:#000000;stroke-width:1px;stroke-linecap:butt;stroke-linejoin:miter;stroke-opacity:1"
       id="path3340"
       cx="30.580359"
       cy="1019.5943"
       rx="14.508928"
       ry="14.732142" />
    <path
       style="fill:none;fill-rule:evenodd;stroke:#000000;stroke-width:1px;stroke-linecap:butt;stroke-linejoin:miter;stroke-opacity:1"
       d="m 18.571429,1010.6657 c 0.05952,-0.1488 0.134541,-0.2923 0.178571,-0.4464 0.02453,-0.086 0,-0.1786 0,-0.2679 0,-0.2976 0,-0.5952 0,-0.8928 0,-0.1931 0.02096,-0.6359 0,-0.8036 -0.01522,-0.1217 -0.06911,-0.2361 -0.08929,-0.3571 -0.02936,-0.1762 0.02215,-0.3585 0,-0.5357 -0.01522,-0.1218 -0.07406,-0.2354 -0.08929,-0.3572 -0.01477,-0.1181 0.01684,-0.2393 0,-0.3571 -0.01331,-0.093 -0.05624,-0.1798 -0.08929,-0.2679 -0.02447,-0.065 -0.238906,-0.5695 -0.267857,-0.7143 -0.01167,-0.058 0.0098,-0.1198 0,-0.1785 -0.221907,-1.3315 0.03373,0.4365 -0.178572,-0.625 -0.01167,-0.058 0,-0.1191 0,-0.1786 0,-0.03 0.01331,-0.063 0,-0.089 -0.04801,-0.096 -0.234447,-0.3128 -0.267857,-0.4464 -0.01444,-0.058 0,-0.1191 0,-0.1786 0,-0.03 0.01331,-0.063 0,-0.089 -0.04657,-0.093 -0.215943,-0.1412 -0.178571,-0.1786 0.02976,-0.03 0.08929,0.1314 0.08929,0.089 0,-0.1227 -0.06522,-0.2368 -0.08929,-0.3571 -0.0058,-0.029 0,-0.059 0,-0.089 0,-0.089 0,-0.1786 0,-0.2679 0,-0.5059 0,-1.0119 0,-1.5178 0,-0.2381 0,-0.4762 0,-0.7143 0,-0.03 0,-0.059 0,-0.089 0,-0.03 -0.02976,-0.089 0,-0.089 0.02976,0 -0.0094,0.061 0,0.089 0.02104,0.063 0.05505,0.1215 0.08929,0.1786 0.353098,0.5885 0.03081,-0.086 0.267858,0.625 0.02104,0.063 0.05952,0.119 0.08929,0.1786 0.08929,0.1785 0.178572,0.3571 0.267857,0.5357 0.05952,0.119 0.136482,0.2308 0.178572,0.3571 0.0388,0.1164 0.04095,0.2444 0.08929,0.3572 0.001,0 0.352005,0.5271 0.357142,0.5357 0.03424,0.057 0.06457,0.1168 0.08929,0.1785 0.03495,0.087 0.04086,0.1872 0.08929,0.2679 0.04331,0.072 0.128064,0.1112 0.178571,0.1786 0.03993,0.053 0.05952,0.119 0.08929,0.1785 0.08929,0.1786 0.165139,0.3646 0.267857,0.5358 0.02165,0.036 0.07046,0.052 0.08929,0.089 0.09003,0.1801 0.06155,0.2904 0.178571,0.4465 0.05051,0.067 0.128064,0.1112 0.178572,0.1785 0.03993,0.053 0.05952,0.1191 0.08929,0.1786 0.02976,0.059 0.07315,0.114 0.08929,0.1786 0.01444,0.058 -0.01882,0.1221 0,0.1786 0.01331,0.04 0.05952,0.059 0.08929,0.089 0.05952,0.059 0.128064,0.1112 0.178571,0.1785 0.03993,0.053 0.05237,0.1232 0.08929,0.1786 0.02335,0.035 0.06594,0.054 0.08929,0.089 0.03691,0.055 0.04223,0.1315 0.08929,0.1786 0.04706,0.047 0.123199,0.052 0.178572,0.089 0.07004,0.047 0.119048,0.1191 0.178571,0.1786 0.14881,0.1488 0.297619,0.2976 0.446429,0.4464"
       id="path3342"
       inkscape:connector-curvature="0" />
    <path
       style="fill:none;fill-rule:evenodd;stroke:#000000;stroke-width:1px;stroke-linecap:butt;stroke-linejoin:miter;stroke-opacity:1"
       d="m 39.910714,1008.255 c 0.398271,-0.052 0.379844,-0.112 0.625,-0.3571 0.416667,-0.4167 0.833334,-0.8334 1.25,-1.25 0.235295,-0.2353 0.121849,-0.1219 0.357143,-0.3572 0.08929,-0.089 0.169258,-0.1889 0.267857,-0.2678 0.05197,-0.042 0.125332,-0.049 0.178572,-0.089 0.168359,-0.1263 0.284757,-0.3117 0.446428,-0.4464 0.08244,-0.069 0.182011,-0.1142 0.267858,-0.1786 0.166666,-0.125 0.279761,-0.3214 0.446428,-0.4464 0.05324,-0.04 0.123199,-0.052 0.178572,-0.089 0.07004,-0.047 0.09871,-0.152 0.178571,-0.1786 0.05647,-0.019 0.122102,0.019 0.178571,0 0.03522,-0.012 0.310454,-0.3105 0.357143,-0.3571 0.02976,-0.03 0.05952,-0.06 0.08929,-0.089 0.02976,0 0.06452,0.016 0.08929,0 0.07003,-0.047 0.11122,-0.1281 0.178563,-0.1786 0.04496,-0.1967 0.183678,-0.047 0.267857,-0.089 0.07529,-0.038 0.09871,-0.1519 0.178572,-0.1786 0.05647,-0.019 0.120825,0.014 0.178571,0 0.161602,0.054 0.166056,-0.1446 0.267857,-0.1785 0.05647,-0.019 0.122102,0.019 0.178572,0 0.03993,-0.013 0.05164,-0.071 0.08928,-0.089 0.02662,-0.013 0.06267,0.013 0.08929,0 0.03765,-0.019 0.04936,-0.076 0.08929,-0.089 0.05647,-0.019 0.122102,0.019 0.178571,0 0.03993,-0.013 0.05164,-0.07 0.08929,-0.089 0.02662,-0.013 0.06267,0.013 0.08929,0 0.107143,-0.054 0.160714,-0.2143 0.267857,-0.2678 0.02662,-0.013 0.06267,0.013 0.08929,0 0.03765,-0.019 0.05164,-0.071 0.08928,-0.089 0.05612,-0.028 0.301025,0.028 0.357143,0 0.03765,-0.019 0.05164,-0.071 0.08929,-0.089 0.02662,-0.013 0.06452,0.017 0.08929,0 0.07004,-0.047 0.103279,-0.141 0.178571,-0.1786 0.05324,-0.027 0.122102,0.019 0.178571,0 0.03993,-0.013 0.04936,-0.076 0.08929,-0.089 0.05647,-0.019 0.120825,0.014 0.178572,0 0.06456,-0.016 0.115436,-0.068 0.178571,-0.089 0.07483,-0.025 0.297971,0.03 0.357143,0 0.03765,-0.019 0.0472,-0.089 0.08929,-0.089 0.02976,0 0.01651,0.065 0,0.089 -0.451259,0.6769 0.03745,-0.2535 -0.267858,0.3572 -0.05952,0.119 -0.09336,0.2549 -0.178571,0.3571 -0.0687,0.082 -0.185421,0.1099 -0.267857,0.1786 -0.240504,0.2004 -0.366541,0.3712 -0.535714,0.625 -0.132545,0.1988 -0.267685,0.4013 -0.357143,0.625 -0.03495,0.087 -0.04086,0.1871 -0.08929,0.2678 -0.267857,0.4465 -0.08929,0 -0.267857,0.2679 -0.07383,0.1107 -0.09871,0.2507 -0.178572,0.3571 -0.05051,0.067 -0.119047,0.1191 -0.178571,0.1786 -0.02976,0.03 -0.07046,0.052 -0.08929,0.089 -0.258431,0.5169 0.150625,0.028 -0.357143,0.5357 -0.02976,0.03 -0.07046,0.052 -0.08928,0.089 -0.173749,0.3475 -0.0069,0.2245 -0.178572,0.625 -0.05761,0.1344 -0.228492,0.289 -0.267857,0.4464 -0.01444,0.058 0.01167,0.1202 0,0.1786 -0.0929,0.4645 -0.05952,0.089 -0.178571,0.4464 -0.0094,0.028 0,0.059 0,0.089 -0.05952,0.1191 -0.119048,0.2381 -0.178572,0.3572 -0.05952,0.119 -0.136481,0.2308 -0.178571,0.3571 -0.0094,0.028 0.0072,0.06 0,0.089 -0.02283,0.091 -0.06646,0.1765 -0.08929,0.2679 -0.0072,0.029 0.01651,0.064 0,0.089 -0.142309,0.2135 -0.206796,0.1129 -0.267857,0.3572 -0.03876,0.155 0.03876,0.3807 0,0.5357 -0.01021,0.041 -0.07046,0.052 -0.08929,0.089 -0.04209,0.084 -0.06646,0.1765 -0.08928,0.2678 -0.02101,0.084 0.02101,0.1839 0,0.2679 -0.225528,0.9021 0.03224,-0.064 -0.178572,0.3571 -0.02662,0.053 0.01882,0.1221 0,0.1786 -0.02105,0.063 -0.06824,0.1155 -0.08929,0.1786 -0.0094,0.028 0,0.06 0,0.089 -0.02976,0.089 -0.0472,0.1837 -0.08928,0.2678 -0.01882,0.038 -0.07046,0.052 -0.08929,0.089 -0.01331,0.027 0,0.059 0,0.089 -0.05952,0.06 -0.119048,0.1191 -0.178571,0.1786"
       id="path3344"
       inkscape:connector-curvature="0" />
    <path
       style="fill:none;fill-rule:evenodd;stroke:#000000;stroke-width:1px;stroke-linecap:butt;stroke-linejoin:miter;stroke-opacity:1"
       d="m 24.375,1016.0229 c -0.05952,0.1488 -0.127889,0.2944 -0.178571,0.4464 -0.01882,0.057 0,0.119 0,0.1786 0,0.1488 0,0.2976 0,0.4464 0,0.021 -0.01001,0.3371 0,0.3571 0.01882,0.038 0.05952,0.06 0.08929,0.089 0.05251,0.053 0.315797,0.3365 0.357143,0.3572 0.02662,0.013 0.06267,-0.013 0.08929,0 0.03765,0.019 0.05164,0.07 0.08929,0.089 0.02662,0.013 0.05952,0 0.08929,0 0.08929,0 0.178572,0 0.267857,0 0.208334,0 0.416667,0 0.625,0 0.178572,0 0.357143,0 0.535715,0 0.05952,0 0.119047,0 0.178571,0 0.02976,0 0.06267,0.013 0.08929,0 0.03694,-0.019 0.242627,-0.23 0.267857,-0.2679 0.03692,-0.055 0.05237,-0.1232 0.08929,-0.1786 0.04669,-0.07 0.140925,-0.1032 0.178571,-0.1785 0.01001,-0.02 0,-0.336 0,-0.3572 0,-0.1488 0,-0.2976 0,-0.4464 0,-0.03 0,-0.059 0,-0.089 0,-0.03 0.01331,-0.063 0,-0.089 -0.01882,-0.038 -0.06594,-0.054 -0.08929,-0.089 -0.02976,-0.06 -0.05952,-0.119 -0.08929,-0.1785 0,-0.03 0.01331,-0.063 0,-0.089 -0.02067,-0.041 -0.30463,-0.3047 -0.357143,-0.3572 -0.04021,-0.04 -0.227098,-0.2542 -0.267857,-0.2678 -0.03274,-0.011 -0.520396,0 -0.535715,0 -0.386904,0 -0.773809,0 -1.160714,0 -0.251786,0 -0.170832,-0.01 -0.357143,0.1785 -0.02976,0.03 -0.09754,0.048 -0.08929,0.089 0.0261,0.1305 0.119047,0.2381 0.178571,0.3572 z"
       id="path3346"
       inkscape:connector-curvature="0" />
    <path
       style="fill:none;fill-rule:evenodd;stroke:#000000;stroke-width:1px;stroke-linecap:butt;stroke-linejoin:miter;stroke-opacity:1"
       d="m 25.625,1016.8264 c -0.302797,-0.1216 -0.426731,-0.2481 -0.625,-0.4464 -0.02976,-0.03 -0.05427,-0.066 -0.08929,-0.089 -0.05537,-0.037 -0.123198,-0.052 -0.178571,-0.089 -0.03502,-0.023 -0.05952,-0.06 -0.08929,-0.089 -0.02976,-0.03 -0.07046,-0.052 -0.08929,-0.089 -0.01331,-0.027 0,-0.06 0,-0.089 0,-0.089 -0.02165,-0.1813 0,-0.2679 0.01614,-0.065 0.04223,-0.1315 0.08929,-0.1786 0.04209,-0.042 0.125332,0.027 0.178572,0 0.03765,-0.019 0.04936,-0.076 0.08929,-0.089 0.05647,-0.019 0.119048,0 0.178572,0 0.02976,0 0.05952,0 0.08929,0 0.02976,0 0.06824,-0.021 0.08929,0 0.04706,0.047 0.05237,0.1232 0.08929,0.1786 0.02335,0.035 0.05952,0.059 0.08929,0.089 0.140459,0.1405 0.333703,0.2961 0.446428,0.4464 0.01786,0.024 -0.0072,0.06 0,0.089 0.02283,0.091 0.0472,0.1837 0.08929,0.2679 0.204313,0.4086 -0.03701,-0.3789 0.178571,0.2678 0.01733,0.052 0,0.4743 0,0.5358 0,0.1847 0.02268,0.3677 -0.08929,0.5357 -0.01651,0.025 -0.05952,0 -0.08929,0 -0.02976,0 -0.05952,0 -0.08929,0 -0.04989,0 -0.393739,0.018 -0.446428,0 -0.06313,-0.021 -0.119048,-0.059 -0.178572,-0.089 -0.0725,-0.036 -0.222409,-0.088 -0.267857,-0.1786 -0.01331,-0.027 0,-0.06 0,-0.089 0,-0.1488 0,-0.2976 0,-0.4464 0,-0.03 0,-0.059 0,-0.089 0,-0.03 -0.02976,-0.089 0,-0.089 0.02976,0 0,0.059 0,0.089"
       id="path3348"
       inkscape:connector-curvature="0" />
    <path
       style="fill:none;fill-rule:evenodd;stroke:#000000;stroke-width:1px;stroke-linecap:butt;stroke-linejoin:miter;stroke-opacity:1"
       d="m 34.017857,1015.8443 c -0.119047,0.03 -0.258973,0.016 -0.357143,0.089 -0.04762,0.036 0,0.119 0,0.1786 0,0.089 0,0.1785 0,0.2678 0,0.1786 0,0.3572 0,0.5357 0,0.059 -0.01679,0.2175 0,0.2679 0.107896,0.3237 0.04236,0.064 0.178572,0.2679 0.07383,0.1107 0.104741,0.2463 0.178571,0.3571 0.02886,0.043 0.40314,0.4176 0.446429,0.4464 0.05537,0.037 0.115437,0.068 0.178571,0.089 0.02824,0.01 0.05952,0 0.08929,0 0.08929,0 0.180305,-0.017 0.267857,0 0.06526,0.013 0.114009,0.073 0.178572,0.089 0.05775,0.014 0.119047,0 0.178571,0 0.05952,0 0.119048,0 0.178571,0 0.267858,0 0.535715,0 0.803572,0 0.178571,0 0.357143,0 0.535714,0 0.08929,0 0.187998,0.04 0.267857,0 0.07529,-0.038 0.128064,-0.1112 0.178572,-0.1786 0.233975,-0.3119 -0.01632,-0.04 0.08928,-0.3571 0.01331,-0.04 0.07598,-0.049 0.08929,-0.089 0.01882,-0.056 -0.02662,-0.1253 0,-0.1786 0.03765,-0.075 0.131877,-0.1085 0.178572,-0.1785 0.0089,-0.013 0,-0.2386 0,-0.2679 0,-0.2552 0.03071,-0.4743 -0.08929,-0.7143 -0.02384,-0.048 -0.220852,-0.2208 -0.267857,-0.2678 -0.05952,-0.06 -0.119048,-0.1191 -0.178572,-0.1786 -0.02976,-0.03 -0.05021,-0.074 -0.08928,-0.089 -0.118956,-0.2483 -0.299204,-0.053 -0.446429,-0.089 -0.0913,-0.023 -0.175569,-0.071 -0.267857,-0.089 -0.116736,-0.023 -0.238095,0 -0.357143,0 -0.178571,0 -0.357143,0 -0.535714,0 -0.267857,0 -0.535715,0 -0.803572,0 -0.08214,0 -0.1875,-0.016 -0.267857,0 -0.120328,0.024 -0.238095,0.059 -0.357143,0.089 z"
       id="path3350"
       inkscape:connector-curvature="0" />
    <path
       style="fill:none;fill-rule:evenodd;stroke:#000000;stroke-width:1px;stroke-linecap:butt;stroke-linejoin:miter;stroke-opacity:1"
       d="m 35.535714,1017.4514 c -0.399297,-0.084 0.07986,-0.3759 0,-0.5357 -0.03765,-0.075 -0.151951,-0.099 -0.178571,-0.1785 -0.05315,-0.1595 0.05398,-0.3032 0.08929,-0.2679 0.02976,0.03 -0.131376,0.089 -0.08929,0.089 0.06655,0 0.112022,-0.089 0.178571,-0.089 0.06655,0 0.119048,0.06 0.178572,0.089 0.05952,0.03 0.123199,0.052 0.178571,0.089 0.03502,0.023 0.07046,0.052 0.08929,0.089 0.01174,0.024 0,0.3104 0,0.3571 0,0.021 0.01001,0.3371 0,0.3572 -0.01882,0.038 -0.05164,0.07 -0.08929,0.089 -0.109756,0.055 -0.234431,-0.089 -0.357143,-0.089 -0.151756,0 -0.296736,0.064 -0.446428,0.089 -0.02936,0 -0.06267,0.013 -0.08929,0 -0.03765,-0.019 -0.07046,-0.052 -0.08929,-0.089 -0.01331,-0.027 0,-0.06 0,-0.089 0,-0.03 0,-0.06 0,-0.089 0,-0.1488 0,-0.2976 0,-0.4464 0,-0.1296 -0.05713,-0.284 0.08929,-0.3572 0.03212,-0.016 0.44384,5e-4 0.446429,0 0.06526,-0.013 0.113314,-0.076 0.178571,-0.089 0.08755,-0.018 0.178572,0 0.267857,0 0.178572,0 0.357143,0 0.535715,0 0.06165,0 0.329996,-0.014 0.357142,0 0.03765,0.019 0.05952,0.059 0.08929,0.089 0.02976,0.03 0.07046,0.052 0.08929,0.089 0.01331,0.027 -0.0094,0.061 0,0.089 0.02105,0.063 0.06824,0.1154 0.08929,0.1786 0.01882,0.056 0,0.119 0,0.1785 0,0.1488 0,0.2976 0,0.4465 0,0.062 0.01357,0.33 0,0.3571 -0.01882,0.038 -0.05427,0.066 -0.08929,0.089 -0.05537,0.037 -0.115437,0.068 -0.178572,0.089 -0.05647,0.019 -0.119047,0 -0.178571,0 -0.14881,0 -0.297619,0 -0.446429,0 -0.238095,0 -0.47619,0 -0.714285,0 -0.08929,0 -0.178572,0 -0.267857,0 -0.05952,0 -0.123305,0.022 -0.178572,0 -0.09963,-0.04 -0.178571,-0.1191 -0.267857,-0.1786"
       id="path3352"
       inkscape:connector-curvature="0" />
    <path
       style="fill:none;fill-rule:evenodd;stroke:#000000;stroke-width:1px;stroke-linecap:butt;stroke-linejoin:miter;stroke-opacity:1"
       d="m 34.553572,1017.2729 c -0.101441,-0.2981 -0.08929,-0.4199 -0.08929,-0.7143 0,-0.1225 -0.04687,-0.2891 0.08929,-0.3572 0.02662,-0.013 0.05952,0 0.08928,0 0.02976,0 0.06267,-0.013 0.08929,0 0.146417,0.073 0.08929,0.2277 0.08929,0.3572 0,0.089 0.03135,0.1842 0,0.2678 -0.06093,0.1625 -0.267857,0.2729 -0.267857,0.4465 0,0.3704 0.461315,0.3422 0.178571,0.625 -0.01259,0.013 -0.249542,0.01 -0.267857,0 -0.03765,-0.019 -0.05164,-0.071 -0.08929,-0.089 -0.04954,-0.025 -0.316799,-0.058 -0.357143,-0.1786 -0.01882,-0.057 0.01882,-0.1221 0,-0.1786 -0.01331,-0.04 -0.07598,-0.049 -0.08928,-0.089 -0.01882,-0.057 0,-0.1191 0,-0.1786 0,-0.2084 0,-0.4167 0,-0.625"
       id="path3354"
       inkscape:connector-curvature="0" />
    <path
       style="fill:none;fill-rule:evenodd;stroke:#000000;stroke-width:1px;stroke-linecap:butt;stroke-linejoin:miter;stroke-opacity:1"
       d="m 27.678572,1020.8443 c 0.119047,-0.03 0.236101,-0.069 0.357142,-0.089 0.08807,-0.015 0.178572,0 0.267858,0 0.208333,0 0.416666,0 0.625,0 0.297619,0 0.595238,0 0.892857,0 0.06369,0 0.380516,-0.016 0.446428,0 0.09131,0.023 0.176552,0.067 0.267857,0.089 0.05775,0.014 0.119048,0 0.178572,0 0.148809,0 0.297619,0 0.446428,0 0.05952,0 0.120825,-0.014 0.178572,0 0.410382,0.1026 0.02026,0.089 0.267857,0.089 0.01311,0 0.374186,-0.018 0.446429,0 0.0913,0.023 0.176551,0.066 0.267857,0.089 0.08669,0.022 0.395074,-0.026 0.446428,0 0.07529,0.038 0.10853,0.1319 0.178572,0.1785 0.05537,0.037 0.123198,0.052 0.178571,0.089 0.03502,0.023 0.05952,0.059 0.08929,0.089 0.02976,0.03 0.119047,0.059 0.08929,0.089 -0.02976,0.03 -0.08929,-0.1314 -0.08929,-0.089 0,0.067 0.08929,0.112 0.08929,0.1786 0,0.029 -0.153767,0.1289 -0.178572,0.1786 -0.01331,0.027 0.0094,0.061 0,0.089 -0.02105,0.063 -0.06824,0.1155 -0.08929,0.1786 -0.0038,0.011 -0.0037,0.2605 0,0.2679 0.01882,0.038 0.119048,0.059 0.08929,0.089 -0.02976,0.03 -0.05952,-0.1191 -0.08929,-0.089 -0.04209,0.042 0.01444,0.1208 0,0.1785 -0.02168,0.087 -0.09689,0.2134 -0.178571,0.2679 -0.47079,0.3139 0.172887,-0.1584 -0.446429,0.089 -0.111607,0.045 -0.16741,0.2009 -0.267857,0.2678 -0.05537,0.037 -0.123199,0.052 -0.178571,0.089 -0.03502,0.023 -0.05952,0.059 -0.08929,0.089 -0.05718,0.057 -0.273588,0.3015 -0.357143,0.3572 -0.05537,0.037 -0.123199,0.052 -0.178571,0.089 -0.07004,0.047 -0.119048,0.1191 -0.178572,0.1786 -0.08929,0.089 -0.178571,0.1786 -0.267857,0.2679 -0.05952,0.06 -0.119047,0.119 -0.178571,0.1785 -0.02976,0.03 -0.05164,0.071 -0.08929,0.089 -0.02662,0.013 -0.06267,-0.013 -0.08929,0 -0.03606,0.018 -0.354466,0.3545 -0.357142,0.3572 -0.02976,0.03 -0.05952,0.06 -0.08929,0.089 -0.02976,0.03 -0.07046,0.052 -0.08929,0.089 -0.04209,0.084 -0.0472,0.1837 -0.08929,0.2679 -0.01331,0.027 0,-0.06 0,-0.089 0,-0.089 0.02824,-0.1831 0,-0.2678 -0.01331,-0.04 -0.07597,-0.049 -0.08929,-0.089 -0.01882,-0.056 0,-0.1191 0,-0.1786 0,-0.013 0.01806,-0.3742 0,-0.4464 -0.131249,-0.525 -0.0099,-0.1042 -0.178572,-0.3572 -0.196711,-0.045 -0.0472,-0.1837 -0.08929,-0.2678 -0.01882,-0.038 -0.06594,-0.054 -0.08929,-0.089 -0.03692,-0.055 -0.04936,-0.1254 -0.08929,-0.1786 -0.05051,-0.067 -0.119048,-0.119 -0.178571,-0.1786 -0.02976,-0.03 -0.07046,-0.052 -0.08929,-0.089 -0.01331,-0.027 0.01331,-0.063 0,-0.089 -0.01882,-0.038 -0.05952,-0.06 -0.08929,-0.089 -0.02976,-0.03 -0.05164,-0.07 -0.08929,-0.089 -0.02662,-0.013 -0.06824,0.021 -0.08929,0 -0.04706,-0.047 -0.05237,-0.1232 -0.08929,-0.1786 -0.02523,-0.038 -0.230915,-0.2494 -0.267857,-0.2678 -0.02662,-0.013 -0.06267,0.013 -0.08929,0 -0.107143,-0.054 -0.160714,-0.2143 -0.267857,-0.2679 -0.02662,-0.013 -0.05952,0 -0.08929,0 -0.05952,-0.03 -0.123198,-0.052 -0.178571,-0.089 -0.07705,-0.051 -0.198117,-0.1981 -0.267857,-0.2678 -0.02976,-0.03 -0.05164,-0.071 -0.08929,-0.089 -0.02662,-0.013 -0.06267,0.013 -0.08929,0 -0.03765,-0.019 -0.05164,-0.07 -0.08929,-0.089 -0.02662,-0.013 -0.05952,0 -0.08929,0 -0.02976,-0.03 -0.05164,-0.07 -0.08929,-0.089 -0.02662,-0.013 -0.06105,0.01 -0.08929,0 -0.162163,-0.054 -0.1657,-0.076 -0.267857,-0.1786 -0.02976,-0.03 -0.07046,-0.052 -0.08929,-0.089 -0.0026,-0.01 -0.01474,-0.4169 0,-0.4464 0.09871,-0.1974 0.05541,-0.028 0.178571,-0.089 0.03765,-0.019 0.05164,-0.07 0.08929,-0.089 0.02662,-0.013 0.05952,0 0.08929,0 0.02976,0 0.05952,0 0.08929,0 0.04989,0 0.393739,-0.018 0.446429,0 0.06313,0.021 0.115437,0.068 0.178571,0.089 0.05647,0.019 0.119048,0 0.178572,0"
       id="path3356"
       inkscape:connector-curvature="0" />
    <path
       style="fill:none;fill-rule:evenodd;stroke:#000000;stroke-width:1px;stroke-linecap:butt;stroke-linejoin:miter;stroke-opacity:1"
       d="m 29.196429,1021.9157 c 0.119047,0 0.244204,-0.038 0.357143,0 0.803571,0.2679 -0.178572,0.089 0.267857,0.2679 0.113934,0.046 0.240728,0.051 0.357143,0.089 0.06313,0.021 0.114008,0.073 0.178571,0.089 0.05775,0.014 0.123305,-0.022 0.178571,0 0.09963,0.04 0.175842,0.1233 0.267858,0.1785 0.05707,0.034 0.123198,0.052 0.178571,0.089 0.03502,0.023 0.05164,0.071 0.08929,0.089 0.02662,0.013 0.05952,0 0.08929,0 0.05952,0 0.122103,-0.019 0.178572,0 0.03993,0.013 0.05164,0.071 0.08929,0.089 0.02662,0.013 0.05952,0 0.08929,0 0.178572,0 0.357143,0 0.535715,0 0.05952,0 0.119047,0 0.178571,0 0.02976,0 0.06267,0.013 0.08929,0 0.162581,-0.081 0.05234,-0.068 0.08928,-0.1786 0.02105,-0.063 0.06824,-0.1154 0.08929,-0.1785 0.0094,-0.028 0,-0.06 0,-0.089 0,-0.2174 0.04065,-0.5194 -0.08929,-0.7143 -0.01651,-0.025 -0.05952,0 -0.08928,0 -0.201718,0 0.03993,-0.013 -0.267857,0.089 -0.05647,0.019 -0.122103,-0.019 -0.178572,0 -0.06313,0.021 -0.113314,0.076 -0.178571,0.089 -0.08755,0.018 -0.179787,-0.015 -0.267857,0 -0.09283,0.015 -0.17557,0.071 -0.267858,0.089 -0.05837,0.012 -0.119047,0 -0.178571,0 -0.178571,0 -0.357143,0 -0.535714,0 -0.08929,0 -0.183154,-0.028 -0.267857,0 -0.261871,0.1746 -0.239988,0.194 -0.535715,0.2679 -0.02887,0.01 -0.06377,0.015 -0.08929,0 -0.127604,-0.077 -0.224044,-0.3344 -0.357143,-0.2679 -0.767526,0.3838 0.5262,0.3572 0.08929,0.3572"
       id="path3358"
       inkscape:connector-curvature="0" />
    <path
       style="fill:none;fill-rule:evenodd;stroke:#000000;stroke-width:1px;stroke-linecap:butt;stroke-linejoin:miter;stroke-opacity:1"
       d="m 30.625,1023.5229 c 0.0965,0.386 0.08929,0.2344 0.08929,0.4464 0,0.03 0.01331,0.063 0,0.089 -0.05517,0.1103 -0.0862,0.089 -0.178572,0.089 -0.02976,0 -0.05952,0 -0.08929,0 -0.02976,0 -0.06267,0.013 -0.08929,0 -0.03765,-0.019 -0.05952,-0.059 -0.08929,-0.089 -0.08928,-0.089 -0.211379,-0.1549 -0.267848,-0.2679 -0.0248,-0.05 0.01653,-0.3637 0,-0.4464 -0.01846,-0.092 -0.06646,-0.1765 -0.08929,-0.2679 -0.0072,-0.029 0,-0.06 0,-0.089 0,-0.06 0,-0.1191 0,-0.1786 0,-0.2679 0,-0.5357 0,-0.8036"
       id="path3360"
       inkscape:connector-curvature="0" />
    <path
       style="fill:none;fill-rule:evenodd;stroke:#000000;stroke-width:1px;stroke-linecap:butt;stroke-linejoin:miter;stroke-opacity:1"
       d="m 31.785714,1021.6479 c -0.119047,-0.03 -0.238095,-0.06 -0.357142,-0.089 -0.05952,-0.03 -0.114009,-0.073 -0.178572,-0.089 -0.140056,-0.035 -0.306372,0.035 -0.446428,0 -0.06456,-0.016 -0.115437,-0.068 -0.178572,-0.089 -0.05037,-0.017 -0.209187,0 -0.267857,0 -0.208333,0 -0.416667,0 -0.625,0 -0.625,0 -1.25,0 -1.875,0"
       id="path3362"
       inkscape:connector-curvature="0" />
    <path
       style="fill:none;fill-rule:evenodd;stroke:#000000;stroke-width:1px;stroke-linecap:butt;stroke-linejoin:miter;stroke-opacity:1"
       d="m 30.178572,1024.0586 c 0.277262,-0.07 0.486867,-0.4544 0.714285,-0.625 0.200821,-0.1506 0.299512,-0.1613 0.446429,-0.3572 0.03993,-0.053 0.04936,-0.1253 0.08929,-0.1785 0.05051,-0.067 0.131877,-0.1086 0.178571,-0.1786 0.01651,-0.025 -0.0094,-0.061 0,-0.089 0.05405,-0.1622 0.07642,-0.1657 0.178571,-0.2678"
       id="path3364"
       inkscape:connector-curvature="0" />
    <path
       style="fill:none;fill-rule:evenodd;stroke:#000000;stroke-width:1px;stroke-linecap:butt;stroke-linejoin:miter;stroke-opacity:1"
       d="m 29.910714,1025.2193 c 0.103819,0.3054 0.08929,0.5834 0.08929,0.8929 0,0.03 0,0.06 0,0.089 0,0.03 0.01651,0.065 0,0.089 -0.0037,0.01 -0.415262,0.4361 -0.446428,0.4465 -0.05647,0.019 -0.122103,-0.019 -0.178572,0 -0.03993,0.013 -0.04936,0.076 -0.08929,0.089 -0.05647,0.019 -0.120824,-0.014 -0.178571,0 -0.368838,0.1845 0.01054,0.028 -0.357143,0.089 -0.119048,0.03 -0.238095,0.06 -0.357143,0.089 -0.02976,0.03 -0.04936,0.076 -0.08929,0.089 -0.05647,0.019 -0.119048,0 -0.178572,0 -0.10372,0 -0.365487,-0.02 -0.446428,0 -0.06456,0.016 -0.115437,0.068 -0.178572,0.089 -0.05172,0.017 -0.279769,0 -0.357143,0 -0.327381,0 -0.654762,0 -0.982143,0 -0.386904,0 -0.773809,0 -1.160714,0 -0.148809,0 -0.297619,0 -0.446429,0 -0.02976,0 -0.06041,0.01 -0.08929,0 -0.09131,-0.023 -0.176552,-0.067 -0.267857,-0.089 -0.02887,-0.01 -0.06267,0.013 -0.08929,0 -0.07529,-0.038 -0.103279,-0.1409 -0.178572,-0.1786 -0.02662,-0.013 -0.06041,0.01 -0.08929,0 -0.09131,-0.023 -0.183678,-0.047 -0.267857,-0.089 -0.02371,-0.012 -0.256004,-0.2442 -0.267858,-0.2679 -0.01331,-0.027 0.0072,-0.06 0,-0.089 -0.225527,-0.9021 0.03224,0.064 -0.178571,-0.3571 -0.01331,-0.027 0,-0.06 0,-0.089 0,-0.059 0,-0.1191 0,-0.1786 0,-0.2381 0,-0.4762 0,-0.7143 0,-0.06 -0.01333,-0.5717 0,-0.625 0.02042,-0.082 0.140925,-0.1033 0.178571,-0.1786 0.01331,-0.027 0,-0.059 0,-0.089"
       id="path3366"
       inkscape:connector-curvature="0" />
    <path
       style="fill:none;fill-rule:evenodd;stroke:#000000;stroke-width:1px;stroke-linecap:butt;stroke-linejoin:miter;stroke-opacity:1"
       d="m 29.464286,1025.2193 c 0.0986,0.058 -0.03202,0.4649 0,0.625 0.02407,0.1203 0.06911,0.2361 0.08929,0.3571 0.0098,0.059 -0.02662,0.1254 0,0.1786 0.03765,0.075 0.140925,0.1033 0.178571,0.1786 0.02662,0.053 -0.01882,0.1221 0,0.1786 0.01331,0.04 0.06594,0.054 0.08929,0.089 0.196711,0.045 0.0472,0.1836 0.08929,0.2678 0.02384,0.048 0.220852,0.2209 0.267858,0.2679 0.02976,0.03 0.06594,0.054 0.08929,0.089 0.03692,0.055 0.04223,0.1315 0.08929,0.1785 0.04706,0.047 0.125332,0.049 0.178571,0.089 0.03824,0.029 0.303009,0.3301 0.357143,0.3572 0.04883,0.024 0.207094,-0.015 0.267857,0 0.09131,0.023 0.17557,0.071 0.267858,0.089 0.0886,0.018 0.35262,0 0.446428,0 0.297619,0 0.595238,0 0.892857,0 0.297619,0 0.595238,0 0.892857,0 0.05952,0 0.119048,0 0.178572,0 0.02976,0 0.06452,0.016 0.08929,0 0.07004,-0.047 0.111227,-0.128 0.178571,-0.1785 0.05324,-0.04 0.123199,-0.052 0.178571,-0.089 0.03502,-0.023 0.05427,-0.066 0.08929,-0.089 0.05537,-0.037 0.125332,-0.049 0.178572,-0.089 0.111145,-0.083 0.344554,-0.3445 0.446428,-0.4464 0.02122,-0.021 0.347137,-0.3271 0.357143,-0.3572 0.01882,-0.056 -0.01444,-0.1208 0,-0.1785 0.05397,-0.2159 0.07647,-0.1318 0.178571,-0.2679 0.06439,-0.086 0.114187,-0.182 0.178572,-0.2678 0.177674,-0.2369 -4.23e-4,2e-4 0.178571,-0.089 0.03765,-0.019 0.05952,-0.06 0.08929,-0.089 0.02976,-0.03 0.06594,-0.054 0.08929,-0.089 0.03125,-0.047 0.09083,-0.2386 0.178571,-0.2679 0.05647,-0.019 0.122102,0.019 0.178572,0 0.03993,-0.013 0.05952,-0.06 0.08928,-0.089 0.02976,-0.03 0.06594,-0.054 0.08929,-0.089 0.03692,-0.055 0.04936,-0.1254 0.08929,-0.1786 0.05051,-0.067 0.140925,-0.1033 0.178571,-0.1786 0.03993,-0.08 0,-0.1786 0,-0.2678 0,-0.03 0.01331,-0.063 0,-0.089 -0.01882,-0.038 -0.05952,-0.059 -0.08929,-0.089"
       id="path3368"
       inkscape:connector-curvature="0" />
    <path
       style="fill:none;fill-rule:evenodd;stroke:#000000;stroke-width:1px;stroke-linecap:butt;stroke-linejoin:miter;stroke-opacity:1"
       d="m 33.928572,1021.5586 c 0.08928,-0.1488 0.156759,-0.3131 0.267857,-0.4464 0.05163,-0.062 0.414005,-0.1665 0.446428,-0.1786 0.239751,-0.018 0.414552,-0.1837 0.625,-0.2679 0.42993,-0.1719 0.11702,-0.01 0.625,-0.1785 0.152048,-0.051 0.290941,-0.1397 0.446429,-0.1786 0.08662,-0.022 0.180305,0.018 0.267857,0 0.06526,-0.013 0.115437,-0.068 0.178571,-0.089 1.08725,-0.3624 -0.09171,0.036 0.535715,-0.089 0.09229,-0.019 0.174687,-0.076 0.267857,-0.089 0.117851,-0.017 0.244204,0.038 0.357143,0 0.07986,-0.027 0.09871,-0.1519 0.178571,-0.1786 0.06945,-0.023 0.520833,0.017 0.625,0 0.09284,-0.015 0.174688,-0.076 0.267857,-0.089 0.117851,-0.017 0.238095,0 0.357143,0 0.386905,0 0.77381,0 1.160714,0 0.863096,0 1.726191,0 2.589286,0 0.654762,0 1.309524,0 1.964286,0 0.208333,0 0.416667,0 0.625,0 0.148809,0 0.29823,-0.014 0.446428,0 0.880935,0.08 0.198078,0.074 1.071429,0.2678 0.08716,0.019 0.179786,-0.015 0.267857,0 0.09284,0.015 0.177363,0.063 0.267857,0.089 0.11799,0.034 0.244353,0.041 0.357143,0.089 0.09863,0.042 0.168224,0.1387 0.267857,0.1786 0.05527,0.022 0.120825,-0.014 0.178572,0 0.06456,0.016 0.119047,0.059 0.178571,0.089 0.119048,0.059 0.230874,0.1364 0.357143,0.1785 0.02824,0.01 0.06548,-0.018 0.08929,0 0.101015,0.076 0.169257,0.189 0.267857,0.2679 0.05197,0.042 0.123199,0.052 0.178571,0.089 0.03502,0.023 0.05952,0.059 0.08929,0.089 0.14881,0.1488 0.297619,0.2976 0.446429,0.4464 0.08928,0.089 0.178571,0.1786 0.267857,0.2678 0.05952,0.06 0.128064,0.1113 0.178571,0.1786 0.03993,0.053 0.05952,0.1191 0.08929,0.1786 0.05952,0.089 0.111536,0.1841 0.178571,0.2678 0.05259,0.066 0.131877,0.1086 0.178572,0.1786 0.01651,0.025 -0.01331,0.063 0,0.089 0.08928,0.1488 0.178571,0.2976 0.267857,0.4464 0.02976,0.089 0.0472,0.1837 0.08929,0.2679 0.01882,0.038 0.07046,0.052 0.08928,0.089 0.01987,0.04 -0.01361,0.3163 0,0.3571 0.110331,0.331 0.08929,-0.1088 0.08929,0.1786"
       id="path3370"
       inkscape:connector-curvature="0" />
    <path
       style="fill:none;fill-rule:evenodd;stroke:#000000;stroke-width:1px;stroke-linecap:butt;stroke-linejoin:miter;stroke-opacity:1"
       d="m 33.125,1022.8979 c 0.389349,-0.1064 0.767049,-0.089 1.160714,-0.089 0.14881,0 0.298769,0.018 0.446429,0 0.09339,-0.012 0.174468,-0.078 0.267857,-0.089 0.14766,-0.019 0.297619,0 0.446429,0 0.357143,0 0.714285,0 1.071428,0 0.238095,0 0.476191,0 0.714286,0 0.148809,0 0.299644,-0.024 0.446429,0 0.361266,0.06 0.268086,0.1532 0.625,0.3571 0.210293,0.1202 0.50053,0.098 0.714285,0.1786 0.100476,0.038 0.167382,0.1409 0.267857,0.1786 0.142094,0.053 0.301073,0.046 0.446429,0.089 0.153513,0.046 0.289972,0.1438 0.446429,0.1786 0.116212,0.026 0.244204,-0.038 0.357142,0 0.164635,0.055 0.287846,0.1973 0.446429,0.2678 0.607062,0.2698 0.146863,-0.055 0.535714,0.1786 0.09202,0.055 0.184064,0.1115 0.267857,0.1786 0.06573,0.053 0.106389,0.1352 0.178572,0.1785 0.161406,0.097 0.374308,0.082 0.535714,0.1786 0.07218,0.043 0.119048,0.119 0.178572,0.1786 0.02976,0.03 0.06594,0.054 0.08928,0.089 0.03692,0.055 0.05237,0.1232 0.08929,0.1785 0.02335,0.035 0.05952,0.059 0.08929,0.089 0.08928,0.089 0.178571,0.1786 0.267857,0.2679 0.146816,0.1468 0.287198,0.3137 0.446428,0.4464 0.114319,0.095 0.240943,0.1749 0.357143,0.2679 0.03287,0.026 0.05427,0.066 0.08929,0.089 0.05537,0.037 0.121506,0.055 0.178571,0.089 0.09202,0.055 0.171878,0.1306 0.267858,0.1786 0.02662,0.013 0.05952,0 0.08928,0 0.08929,0.059 0.182011,0.1142 0.267857,0.1786 0.03367,0.025 0.05952,0.06 0.08929,0.089 0.119048,0.119 0.238095,0.2381 0.357143,0.3571 0.178571,0.1786 0.357143,0.3571 0.535714,0.5357 0.119048,0.1191 0.25197,0.2257 0.357143,0.3572 0.06703,0.084 0.114187,0.182 0.178572,0.2678 0.02525,0.034 0.05952,0.06 0.08928,0.089 0.08929,0.089 0.178572,0.1786 0.267857,0.2679 0.112644,0.1126 0.232752,0.2638 0.357143,0.3571 0.05324,0.04 0.123199,0.052 0.178572,0.089 0.07004,0.047 0.103279,0.1409 0.178571,0.1786 0.05324,0.027 0.125332,-0.027 0.178572,0 0.03765,0.019 0.05952,0.06 0.08928,0.089 0.02976,0.03 0.07046,0.052 0.08929,0.089 0.01331,0.027 0,0.06 0,0.089"
       id="path3372"
       inkscape:connector-curvature="0" />
    <path
       style="fill:none;fill-rule:evenodd;stroke:#000000;stroke-width:1px;stroke-linecap:butt;stroke-linejoin:miter;stroke-opacity:1"
       d="m 25.803571,1020.755 c -0.682527,-0.273 -0.29636,-0.1223 -1.160714,-0.4464 -0.238095,-0.089 -0.471575,-0.192 -0.714286,-0.2679 -0.234251,-0.073 -0.480034,-0.1053 -0.714285,-0.1785 -0.242711,-0.076 -0.468586,-0.2024 -0.714286,-0.2679 -0.203343,-0.054 -0.418638,-0.048 -0.625,-0.089 -0.240657,-0.048 -0.47619,-0.119 -0.714286,-0.1786 -0.238095,-0.06 -0.477149,-0.1153 -0.714285,-0.1785 -0.777064,-0.2072 -0.555036,-0.1908 -1.428572,-0.3572 -0.355674,-0.068 -0.714714,-0.1165 -1.071428,-0.1785 -0.327828,-0.057 -0.651765,-0.139 -0.982143,-0.1786 -0.414753,-0.05 -0.835025,-0.041 -1.25,-0.089 -0.359683,-0.041 -0.7152,-0.1138 -1.071429,-0.1786 -0.298617,-0.054 -0.59085,-0.1483 -0.892857,-0.1785 -0.296142,-0.03 -0.596579,0.028 -0.892857,0 -0.331249,-0.032 -0.651674,-0.1397 -0.982143,-0.1786 -0.177348,-0.021 -0.357143,0 -0.535714,0 -0.178572,0 -0.357143,0 -0.535715,0 -0.08929,0 -0.180305,-0.017 -0.267857,0 -0.06526,0.013 -0.115437,0.068 -0.178571,0.089 -0.02824,0.01 -0.05952,0 -0.08929,0 -0.08929,0.03 -0.183678,0.047 -0.267857,0.089 -0.037646,0.019 -0.05164,0.07 -0.089286,0.089 -0.180067,0.09 -0.2903976,0.062 -0.4464286,0.1785 -0.067343,0.051 -0.1190476,0.1191 -0.1785714,0.1786 -0.059524,0.06 -0.1190476,0.119 -0.1785714,0.1786 -0.023843,0.024 -0.4908203,0.4683 -0.5357143,0.5357 -0.07383,0.1107 -0.1125357,0.2416 -0.1785714,0.3571 -0.05324,0.093 -0.1233619,0.1759 -0.1785715,0.2679 -0.1256345,0.2094 -0.07636,0.1909 -0.1785714,0.4464 -0.074148,0.1854 -0.1892116,0.3522 -0.2678571,0.5357 -0.0579,0.1351 -0.1579768,0.5015 -0.1785715,0.625 -0.049603,0.2976 0.074405,0.074 0,0.4465 -0.013051,0.065 -0.068241,0.1154 -0.089286,0.1785 -0.00941,0.028 0,0.059 0,0.089 0,0.06 0,0.1191 0,0.1786"
       id="path3374"
       inkscape:connector-curvature="0" />
    <path
       style="fill:none;fill-rule:evenodd;stroke:#000000;stroke-width:1px;stroke-linecap:butt;stroke-linejoin:miter;stroke-opacity:1"
       d="m 27.142857,1022.63 c -0.119047,-0.03 -0.234855,-0.079 -0.357143,-0.089 -0.237272,-0.02 -0.47619,0 -0.714285,0 -1.333334,0 -0.630953,0 -1.964286,0 -0.357143,0 -0.715519,0.03 -1.071429,0 -0.730553,-0.061 -1.501589,-0.2962 -2.232143,-0.3571 -0.32625,-0.027 -0.654761,0 -0.982142,0 -0.982143,0 -1.964286,0 -2.946429,0 -0.625,0 -1.25,0 -1.875,0 -0.208333,0 -0.416667,0 -0.625,0 -0.02976,0 -0.05952,0 -0.08929,0 -0.02976,0 -0.06452,-0.016 -0.08929,0 -0.05952,0.06 -0.119048,0.119 -0.178572,0.1786 -0.02976,0 -0.06267,-0.013 -0.08929,0 -0.03765,0.019 -0.04936,0.076 -0.08929,0.089 -0.05647,0.019 -0.120204,-0.012 -0.178572,0 -0.09229,0.019 -0.178571,0.06 -0.267857,0.089 -0.08929,0.03 -0.183678,0.047 -0.267857,0.089 -0.419246,0.2096 -0.112331,0.1342 -0.446429,0.2679 -0.08929,0.03 -0.178571,0.059 -0.267857,0.089 -0.02976,0.03 -0.05164,0.07 -0.08929,0.089 -0.08418,0.042 -0.187154,0.041 -0.267858,0.089 -0.446428,0.2679 0,0.089 -0.267857,0.2679 -0.05537,0.037 -0.131513,0.042 -0.178571,0.089 -0.04706,0.047 -0.05237,0.1232 -0.08929,0.1786 -0.04669,0.07 -0.140925,0.1032 -0.178571,0.1785 -0.04209,0.084 -0.03282,0.1926 -0.08929,0.2679 -0.03993,0.053 -0.131514,0.042 -0.178571,0.089 -0.02105,0.021 0.0072,0.06 0,0.089 -0.02283,0.091 -0.06343,0.1773 -0.08929,0.2678 -0.03371,0.118 -0.03441,0.2474 -0.08929,0.3572 -0.03765,0.075 -0.140925,0.1032 -0.178571,0.1785 -0.241611,0.4833 -0.0224,0.2013 -0.08929,0.5357 -0.01846,0.092 -0.06646,0.1766 -0.08929,0.2679 -0.01759,0.07 0,0.2989 0,0.3571"
       id="path3376"
       inkscape:connector-curvature="0" />
  </g>
</svg>
