<?xml version="1.0" encoding="UTF-8" standalone="no"?>
<!-- Created with Inkscape (http://www.inkscape.org/) -->

<svg
   xmlns:dc="http://purl.org/dc/elements/1.1/"
   xmlns:cc="http://creativecommons.org/ns#"
   xmlns:rdf="http://www.w3.org/1999/02/22-rdf-syntax-ns#"
   xmlns:svg="http://www.w3.org/2000/svg"
   xmlns="http://www.w3.org/2000/svg"
   xmlns:sodipodi="http://sodipodi.sourceforge.net/DTD/sodipodi-0.dtd"
   xmlns:inkscape="http://www.inkscape.org/namespaces/inkscape"
   width="64"
   height="64"
   viewBox="0 0 16.933333 16.933334"
   version="1.1"
   id="svg8"
   inkscape:version="0.92.1 r15371"
   sodipodi:docname="1_cat_4.svg"
   inkscape:export-filename="/home/physt/undev/repos/deep_learning/workshop/tasks/commonlearningdata/cartooncats/1_cat_4.png"
   inkscape:export-xdpi="96.000008"
   inkscape:export-ydpi="96.000008">
  <defs
     id="defs2" />
  <sodipodi:namedview
     id="base"
     pagecolor="#ffffff"
     bordercolor="#666666"
     borderopacity="1.0"
     inkscape:pageopacity="0.0"
     inkscape:pageshadow="2"
     inkscape:zoom="11.2"
     inkscape:cx="50.237003"
     inkscape:cy="32.732721"
     inkscape:document-units="mm"
     inkscape:current-layer="layer1"
     showgrid="false"
     inkscape:window-width="1920"
     inkscape:window-height="1016"
     inkscape:window-x="0"
     inkscape:window-y="27"
     inkscape:window-maximized="1"
     units="px" />
  <metadata
     id="metadata5">
    <rdf:RDF>
      <cc:Work
         rdf:about="">
        <dc:format>image/svg+xml</dc:format>
        <dc:type
           rdf:resource="http://purl.org/dc/dcmitype/StillImage" />
        <dc:title></dc:title>
      </cc:Work>
    </rdf:RDF>
  </metadata>
  <g
     inkscape:label="Layer 1"
     inkscape:groupmode="layer"
     id="layer1"
     transform="translate(0,-280.06665)">
    <path
       id="path595"
       d="m 7.9863764,284.9823 c -0.066793,-0.0652 -0.1345991,-0.12928 -0.2056495,-0.18981 -0.083014,-0.0788 -0.1795471,-0.1366 -0.2823221,-0.18521 -0.1227434,-0.0594 -0.2537828,-0.0937 -0.3860541,-0.12382 -0.1454557,-0.0301 -0.2940915,-0.042 -0.4424298,-0.0401 -0.1627209,0.003 -0.3242509,0.0291 -0.4841632,0.0579 -0.1681345,0.0275 -0.3279714,0.084 -0.4853821,0.14718 -0.156261,0.0579 -0.3068566,0.13019 -0.4538996,0.20833 -0.209183,0.11907 0.097394,-0.0572 0.1467485,-0.0846 0.024442,-0.0136 -0.047893,0.0289 -0.071681,0.0436 -0.072456,0.0448 -0.1434997,0.0913 -0.2137812,0.13936 -0.1611172,0.11336 -0.3119527,0.2408 -0.4573963,0.37345 -0.1549567,0.1415 -0.2948112,0.29777 -0.4316669,0.45646 -0.1326798,0.15588 -0.2561828,0.31937 -0.3734324,0.48709 -0.1023533,0.14873 -0.2007598,0.29978 -0.2834031,0.4604 -0.068254,0.13399 -0.1220918,0.27491 -0.1602989,0.42025 -0.036701,0.13426 -0.048839,0.27276 -0.055949,0.4112 -0.0061,0.14926 0.015878,0.29619 0.046957,0.44159 0.034144,0.15933 0.093597,0.31053 0.1655159,0.45615 0.081728,0.1621 0.1969719,0.30344 0.3139223,0.44104 0.145415,0.16029 0.307916,0.30425 0.4766879,0.43932 0.1827138,0.14512 0.3756517,0.27643 0.5748797,0.39764 0.1951681,0.11722 0.4022916,0.21163 0.6095937,0.30476 0.2149533,0.0885 0.4339285,0.16769 0.6551816,0.23899 0.2307172,0.0769 0.4671851,0.13389 0.7042044,0.1873 0.2467435,0.0564 0.4966557,0.0963 0.7483692,0.12174 0.2539111,0.0249 0.5085609,0.0428 0.7632941,0.057 0.2410602,0.017 0.4822904,0.008 0.7231676,-0.006 0.2381636,-0.0106 0.4715354,-0.0556 0.7033373,-0.10815 0.2158066,-0.0512 0.4247726,-0.12532 0.6292366,-0.21046 0.0321,-0.0142 0.06452,-0.0277 0.09629,-0.0426 0.0367,-0.0172 0.154298,-0.077 0.18965,-0.0965 0.03087,-0.017 0.122407,-0.07 0.09131,-0.0534 -0.191523,0.10232 -0.275959,0.1637 -0.109101,0.05 0.172735,-0.12362 0.32633,-0.2715 0.476542,-0.42103 0.156158,-0.15265 0.289976,-0.32553 0.415442,-0.50366 0.130295,-0.18846 0.243846,-0.38797 0.344246,-0.59376 0.07643,-0.15925 0.131241,-0.32702 0.172762,-0.49835 0.03636,-0.1371 0.03088,-0.27546 0.01501,-0.41468 -0.02371,-0.16109 -0.06636,-0.31848 -0.10718,-0.47584 -0.0544,-0.19058 -0.104819,-0.38236 -0.171021,-0.56925 -0.07416,-0.22059 -0.174552,-0.43047 -0.284576,-0.63504 -0.120733,-0.22612 -0.259236,-0.44123 -0.409685,-0.64849 -0.146677,-0.19805 -0.308887,-0.38308 -0.481079,-0.55908 -0.160543,-0.15236 -0.331465,-0.29331 -0.508997,-0.42531 -0.170563,-0.12824 -0.3564702,-0.2349 -0.5531307,-0.31728 -0.1166072,-0.0436 -0.2360602,-0.0827 -0.3596476,-0.10096 -0.062599,-0.009 -0.1105911,-0.0101 -0.1735233,-0.0132 -0.1744078,-0.003 -0.3441409,0.0362 -0.5104744,0.0842 -0.1756399,0.0511 -0.3481231,0.11213 -0.521767,0.16947 -0.1605865,0.056 -0.3229891,0.10502 -0.4879362,0.14617 -0.1386781,0.0379 -0.2782964,0.0716 -0.4156662,0.11413 -0.1176319,0.035 -0.2370206,0.0644 -0.3493209,0.11443 -0.019145,0.009 -0.038289,0.0186 -0.057433,0.0279 0,0 0.2686804,-0.21391 0.2686804,-0.21391 v 0 c 0.019238,-0.009 0.038475,-0.0176 0.057712,-0.0264 0.1143733,-0.0461 0.2338401,-0.0768 0.3519368,-0.11187 0.1370285,-0.0409 0.2761755,-0.0738 0.4142399,-0.11096 0.1640083,-0.0417 0.3250761,-0.0929 0.4853464,-0.14726 0.1738809,-0.0574 0.3466002,-0.11855 0.5228592,-0.16842 0.1689309,-0.0464 0.3412974,-0.0832 0.5177025,-0.0755 0.069396,0.005 0.1065665,0.006 0.175667,0.0175 0.124519,0.0213 0.2450877,0.0615 0.3623191,0.10759 0.196814,0.0871 0.384063,0.19474 0.555755,0.32498 0.178297,0.1336 0.351156,0.27478 0.510891,0.43037 0.172048,0.17816 0.334596,0.3649 0.482188,0.56404 0.150808,0.20878 0.289482,0.42544 0.412314,0.65201 0.111643,0.20547 0.213692,0.41631 0.289851,0.63784 0.0683,0.18703 0.11771,0.37989 0.175001,0.57049 0.04196,0.15832 0.08559,0.31667 0.111874,0.47854 0.01861,0.14285 0.02586,0.28497 -0.01072,0.42615 -0.04117,0.17425 -0.09663,0.34484 -0.17362,0.50685 -0.100134,0.20749 -0.215194,0.40786 -0.343569,0.59922 -0.123788,0.17973 -0.256386,0.35423 -0.411512,0.50841 -0.149839,0.15101 -0.303797,0.29964 -0.474695,0.42686 -0.202659,0.14216 -0.07458,0.0557 -0.465004,0.28455 -0.122128,0.0716 -0.249373,0.13448 -0.379998,0.18901 -0.2053602,0.0833 -0.415277,0.15528 -0.6315548,0.20502 -0.232655,0.0511 -0.4670803,0.0931 -0.7056961,0.10305 -0.2414117,0.0131 -0.4831739,0.0209 -0.72463,0.002 -0.2548305,-0.0149 -0.5095901,-0.0326 -0.7635406,-0.0587 -0.25297,-0.0263 -0.5038725,-0.0677 -0.7519551,-0.12413 -0.2378782,-0.0542 -0.4749427,-0.11273 -0.7068238,-0.18919 -0.2218338,-0.0726 -0.4418208,-0.15186 -0.6572001,-0.24193 -0.2087592,-0.093 -0.4160769,-0.19002 -0.6119956,-0.30832 -0.1997434,-0.12279 -0.3932507,-0.25549 -0.5770099,-0.4013 -0.170462,-0.13673 -0.3356753,-0.28097 -0.4825913,-0.44318 -0.1190553,-0.13953 -0.237323,-0.2822 -0.3203538,-0.44692 -0.073378,-0.14784 -0.1345625,-0.30135 -0.1704541,-0.46298 -0.032679,-0.14786 -0.056611,-0.29706 -0.051693,-0.44917 0.00597,-0.14023 0.01561,-0.28081 0.052098,-0.41704 0.036678,-0.14818 0.091594,-0.29128 0.1592876,-0.42809 0.081993,-0.16299 0.1808731,-0.31564 0.2842919,-0.46583 0.1164473,-0.16923 0.2408076,-0.33304 0.3727336,-0.49055 0.1363702,-0.15984 0.2759747,-0.31713 0.4302792,-0.46011 0.1434086,-0.13406 0.2938081,-0.26123 0.4527139,-0.37661 0.2294052,-0.16175 0.4746382,-0.29964 0.7198781,-0.43563 0.1482082,-0.0767 0.2995811,-0.14753 0.4561837,-0.20554 0.158622,-0.0619 0.3204599,-0.11446 0.4891575,-0.1414 0.1616215,-0.0279 0.3246905,-0.0531 0.4890603,-0.0542 0.1501428,10e-4 0.3003902,0.0136 0.4472527,0.0462 0.1345586,0.0309 0.2669778,0.0686 0.3916913,0.12916 0.1051245,0.0507 0.203169,0.11157 0.2887329,0.19186 0.07165,0.0619 0.1402956,0.12714 0.2118246,0.18912 0,0 -0.2992125,0.18336 -0.2992125,0.18336 z"
       inkscape:connector-curvature="0"
       style="stroke-width:0.26458332" />
    <path
       id="path597"
       d="m 8.7679243,286.07986 c -0.041127,0.0122 -0.083064,0.0249 -0.1219224,0.0434 -0.015004,0.007 -0.029193,0.0159 -0.043611,0.0241 -0.01479,0.008 -0.05886,0.0344 -0.044003,0.026 0.08361,-0.047 0.1668478,-0.0947 0.2502717,-0.14204 -0.094442,0.065 -0.1706427,0.15039 -0.2425993,0.23857 -0.059255,0.0775 -0.110145,0.16002 -0.1420636,0.25233 -0.024045,0.075 -0.021365,0.15015 -0.00382,0.22575 0.025008,0.0949 0.0783,0.17732 0.131151,0.25867 0.066102,0.1032 0.1581407,0.18359 0.2571988,0.25379 0.1107469,0.0802 0.2393302,0.12072 0.3707307,0.15178 0.1527895,0.0337 0.3076552,0.023 0.460529,-0.002 0.1335474,-0.0204 0.2540228,-0.0771 0.3707288,-0.14208 -0.4935394,0.2704 -0.237083,0.15487 -0.1479062,0.0686 0.021892,-0.0212 0.027391,-0.03 0.045456,-0.0536 0.038928,-0.0545 0.044169,-0.11696 0.041602,-0.18163 -0.00782,-0.0995 -0.055052,-0.18851 -0.095317,-0.27788 -0.050772,-0.10725 -0.1193924,-0.20431 -0.1805363,-0.30568 -0.05581,-0.0988 -0.1186138,-0.19336 -0.1838492,-0.28612 -0.058196,-0.0841 -0.1232685,-0.16164 -0.2019638,-0.22704 -0.064443,-0.0466 -0.1388348,-0.09 -0.2192288,-0.10114 -0.019023,-0.003 -0.038375,-0.002 -0.057563,-0.002 -0.087951,0.009 -0.1732261,0.0336 -0.2584772,0.056 0,0 0.2682957,-0.20537 0.2682957,-0.20537 v 0 c 0.088865,-0.0221 0.1778703,-0.0481 0.2700906,-0.0507 0.020675,0.002 0.041596,0.003 0.062025,0.007 0.084371,0.0162 0.161122,0.062 0.2283802,0.11336 0.079623,0.0686 0.1458573,0.149 0.2057609,0.23526 0.064684,0.0941 0.1287571,0.18868 0.1844542,0.28842 0.061526,0.10267 0.1306259,0.20089 0.1824579,0.30908 0.04275,0.0926 0.09226,0.18476 0.104472,0.28749 0.0053,0.0701 0.0054,0.13956 -0.03103,0.20249 -0.02071,0.0319 -0.04313,0.0643 -0.07164,0.09 -0.113025,0.10183 -0.3538184,0.14943 -0.4139487,0.24996 -0.1182177,0.0624 -0.2414434,0.11231 -0.3749979,0.13039 -0.1561402,0.0223 -0.3138628,0.0277 -0.4687282,-0.009 -0.1348536,-0.034 -0.266823,-0.0773 -0.3797096,-0.1616 -0.1013971,-0.074 -0.1960248,-0.15776 -0.2650226,-0.26391 -0.055218,-0.0843 -0.1109916,-0.16955 -0.1390747,-0.2675 -0.021225,-0.0807 -0.026844,-0.16152 -0.00446,-0.24306 0.028769,-0.0974 0.07969,-0.18317 0.1393137,-0.26512 0.0718,-0.0898 0.1456925,-0.17801 0.237758,-0.24817 0.1805509,-0.10668 0.3539789,-0.23526 0.5591053,-0.28992 0,0 -0.2783139,0.21282 -0.2783139,0.21282 z"
       inkscape:connector-curvature="0"
       style="stroke-width:0.26458332" />
    <path
       id="path599"
       d="m 5.7234867,286.24583 c -0.1307872,0.0291 -0.4933955,0.24911 -0.014467,-0.0239 -0.1695868,0.1079 -0.3186467,0.2438 -0.4585872,0.38717 -0.1194665,0.12181 -0.2128496,0.26296 -0.276683,0.42073 -0.042687,0.11715 -0.048236,0.22571 -0.014912,0.34517 0.043349,0.11954 0.1166534,0.22277 0.1981001,0.31897 0.092824,0.10449 0.1887022,0.1655 0.3199736,0.21082 0.1243912,0.0334 0.2569708,0.0314 0.3822147,0.002 0.030185,-0.007 0.059503,-0.0175 0.089255,-0.0262 0.030668,-0.0113 0.061683,-0.0218 0.092005,-0.034 0.04723,-0.019 0.1363869,-0.0601 0.1816044,-0.083 0.02887,-0.0147 0.1133467,-0.0626 0.085471,-0.0461 -0.3270324,0.19318 -0.2337131,0.13519 -0.1263312,0.0662 0.1253355,-0.085 0.2341391,-0.18921 0.3224655,-0.31186 0.056861,-0.0816 0.068906,-0.17106 0.062577,-0.26767 -0.019047,-0.11279 -0.075368,-0.21223 -0.1384541,-0.30576 -0.070932,-0.10354 -0.1613281,-0.18777 -0.2685264,-0.25218 -0.1232575,-0.0631 -0.2623619,-0.0888 -0.4004162,-0.0841 -0.032079,0.001 -0.063951,0.006 -0.095926,0.008 -0.1656181,0.0127 -0.3097911,0.0867 -0.4502301,0.169 0,0 0.2635962,-0.21321 0.2635962,-0.21321 v 0 c 0.1454377,-0.0805 0.2894118,-0.14582 0.4583501,-0.15622 0.032782,-0.002 0.06551,-0.005 0.098347,-0.006 0.1436153,-0.001 0.287366,0.0281 0.4144041,0.096 0.109759,0.0694 0.2038255,0.15599 0.2768905,0.26414 0.066409,0.0982 0.125014,0.2027 0.1487749,0.32021 0.010073,0.10276 0.00331,0.20021 -0.053656,0.28998 -0.087682,0.12761 -0.1964782,0.23651 -0.3231239,0.32614 -0.2554537,0.1695 -0.5242402,0.32784 -0.8159705,0.42599 -0.030771,0.008 -0.061174,0.0175 -0.092313,0.0239 -0.1307975,0.0268 -0.2671527,0.0251 -0.3950993,-0.014 -0.129857,-0.0495 -0.2391445,-0.1188 -0.3298386,-0.22585 -0.083569,-0.10071 -0.1603783,-0.20689 -0.2066883,-0.33057 -0.038137,-0.12857 -0.035636,-0.23833 0.00679,-0.36633 0.062738,-0.16256 0.1551607,-0.30929 0.2764724,-0.43517 0.1381059,-0.14452 0.2855219,-0.28104 0.4511926,-0.39378 0.1982619,-0.11523 0.3887224,-0.24839 0.6107134,-0.31294 0,0 -0.2779744,0.21403 -0.2779744,0.21403 z"
       inkscape:connector-curvature="0"
       style="stroke-width:0.26458332" />
    <path
       id="path601"
       d="m 7.5804434,288.56552 c 0.045376,0.0715 0.095983,0.13953 0.1393036,0.21228 0.039913,0.0696 0.081306,0.13822 0.1293096,0.20256 0.032365,0.0431 0.064808,0.0859 0.094059,0.13129 0.015997,0.0245 0.027199,0.0552 0.046844,0.0771 0.01243,0.0114 0.023535,0.0318 0.030277,0.005 -0.098478,0.0559 -0.197023,0.11158 -0.295434,0.16754 -0.00357,0.002 0.00753,-0.003 0.010901,-0.006 0.00496,-0.003 0.00969,-0.007 0.013954,-0.0115 0.018873,-0.0189 0.033872,-0.0424 0.0492,-0.0641 0.05016,-0.0687 0.1103794,-0.12921 0.1663734,-0.19305 0.062948,-0.0695 0.1326388,-0.13257 0.2003206,-0.19741 0.056901,-0.0494 0.1170625,-0.095 0.1773626,-0.14013 0.06471,-0.0483 0.1246045,-0.10264 0.1847945,-0.15637 0.059132,-0.0536 0.1183408,-0.10714 0.1825924,-0.15462 0.033455,-0.0256 0.06899,-0.0482 0.1032629,-0.0726 0.00599,-0.002 0.014788,-0.0126 0.020876,-0.0135 0.00701,-0.001 0.00674,0.01 -1.098e-4,0.0124 -0.00474,-1e-5 -0.00954,7.4e-4 -0.014219,-3e-5 -0.00722,-10e-4 -0.014129,-0.004 -0.021193,-0.006 -0.00851,-0.002 -0.016968,-0.004 -0.025532,-0.005 -0.038028,-0.006 -0.076497,-0.008 -0.1148561,-0.0108 -0.1009163,-0.005 -0.2020083,-0.006 -0.3030334,-0.006 -0.1350293,7.1e-4 -0.2698374,0.0117 -0.4047834,0.0171 -0.1267269,0.003 -0.2530049,0.0149 -0.3784594,0.0325 -0.080453,0.006 -0.1580936,0.0222 -0.2347201,0.0463 -0.048797,0.0136 -0.095706,0.032 -0.1420088,0.0521 -0.00942,0.006 -0.020685,0.008 -0.030198,0.0134 -0.1649907,0.096 0.9229725,-0.53129 -0.041191,0.0263 0.097526,-0.0563 0.1950522,-0.11267 0.2925784,-0.169 -0.00724,0.005 -0.017418,0.0122 -0.02394,0.0147 0.010747,0.023 0.026552,0.0448 0.039992,0.0668 0.034433,0.048 0.068766,0.096 0.10179,0.14507 0.029694,0.0535 0.061962,0.10538 0.1010327,0.15263 0.04574,0.0542 0.1002059,0.0987 0.157162,0.14051 0,0 -0.2934457,0.18578 -0.2934457,0.18578 v 0 c -0.058718,-0.0442 -0.116174,-0.0897 -0.1631852,-0.14682 -0.039347,-0.0483 -0.072332,-0.10108 -0.102412,-0.15563 -0.033254,-0.0495 -0.068504,-0.0973 -0.1041493,-0.14501 -0.015777,-0.0245 -0.034127,-0.0481 -0.0468,-0.0742 -0.00663,-0.0173 -0.013795,-0.0413 0.00648,-0.0535 0.1026819,-0.0617 0.2065605,-0.12139 0.3098406,-0.18208 -0.097359,0.0567 -0.1944566,0.11378 -0.292076,0.16999 -0.00318,0.002 0.0055,-0.005 0.00866,-0.007 0.1036971,-0.0609 0.207568,-0.12148 0.3118318,-0.1814 0.013422,-0.008 0.029733,-0.0105 0.043219,-0.0181 0.046403,-0.0194 0.095052,-0.0335 0.143157,-0.048 0.076829,-0.0217 0.1556742,-0.0311 0.2349148,-0.0396 0.1254162,-0.0157 0.2516595,-0.0246 0.378007,-0.0283 0.1357649,-0.006 0.2713789,-0.0173 0.4073152,-0.017 0.10219,1.4e-4 0.2044676,6e-5 0.3065018,0.007 0.06246,0.005 0.1253705,0.0101 0.1860595,0.0263 0.023887,0.0161 0.044169,0.0476 0.014174,0.0687 -0.034893,0.0256 -0.071855,0.048 -0.1060153,0.0745 -0.067521,0.0432 -0.1261899,0.0976 -0.186023,0.15063 -0.058275,0.0557 -0.1201671,0.10812 -0.1825022,0.15928 -0.060313,0.0453 -0.1202415,0.0911 -0.1800111,0.13716 -0.069042,0.0629 -0.1354426,0.12895 -0.2022406,0.19406 -0.053742,0.0641 -0.1130364,0.12359 -0.1651146,0.18896 -0.1182991,0.16756 -0.058371,0.10989 -0.3764224,0.27047 -0.024077,-0.007 -0.040056,-0.0222 -0.055241,-0.0419 -0.018172,-0.0251 -0.031876,-0.0539 -0.047223,-0.0808 -0.028276,-0.0449 -0.05904,-0.0878 -0.090311,-0.13072 -0.048021,-0.0657 -0.090187,-0.13523 -0.1299625,-0.20621 -0.04283,-0.0724 -0.092563,-0.14059 -0.1420474,-0.20857 0,0 0.3027151,-0.17738 0.3027151,-0.17738 z"
       inkscape:connector-curvature="0"
       style="stroke-width:0.26458332" />
    <path
       id="path603"
       d="m 8.2723769,289.36887 c -0.056935,0.0952 -0.1170757,0.18786 -0.1842637,0.27614 -0.055477,0.0769 -0.1158812,0.14907 -0.1835182,0.21544 -0.1481214,0.12653 -0.3234029,0.21978 -0.507578,0.28068 -0.100172,0.0297 -0.2052442,0.0328 -0.3088822,0.0366 -0.1151573,0.006 -0.2295835,-0.0122 -0.3404807,-0.0418 -0.089535,-0.0204 -0.1730261,-0.0574 -0.25136,-0.10459 -0.055448,-0.0343 -0.1065903,-0.0738 -0.156936,-0.11505 -0.027832,-0.0245 -0.057617,-0.0463 -0.085555,-0.0705 -0.089939,-0.0894 -0.021669,-0.0185 0.3089275,-0.18392 0.00699,-0.004 0.013491,0.008 0.020095,0.0121 0.029065,0.0184 0.055838,0.04 0.084369,0.0592 0.091439,0.0575 0.1897128,0.10408 0.2892248,0.14579 0.1007903,0.0397 0.2045432,0.0727 0.3128428,0.0813 0.1103624,0.002 0.2151922,-0.0245 0.3178042,-0.0622 0.1076082,-0.0545 0.3222022,-0.17384 -0.1573845,0.0942 -0.015317,0.009 0.029748,-0.0186 0.044285,-0.0285 0.036301,-0.0245 0.047564,-0.0343 0.082267,-0.0614 0.07429,-0.0576 0.1350992,-0.12901 0.1916081,-0.20347 0.03761,-0.0508 0.062172,-0.10918 0.082028,-0.16878 0,0 0.315382,-0.14839 0.315382,-0.14839 v 0 c -0.019891,0.0625 -0.042238,0.12492 -0.079134,0.17969 -0.055265,0.0773 -0.1156941,0.15158 -0.1893485,0.21222 -0.1684518,0.13963 -0.3618093,0.249 -0.5619832,0.33645 -0.1059008,0.0348 -0.2145718,0.0577 -0.3268613,0.05 -0.1100428,-0.0145 -0.2160344,-0.0477 -0.3185242,-0.09 -0.1006488,-0.0446 -0.2011034,-0.0912 -0.2945823,-0.14968 -0.1818042,-0.11878 -0.1526074,-0.041 0.175845,-0.26349 0.00127,-8.4e-4 0.00204,0.002 0.00307,0.003 0.025397,0.0254 0.056231,0.0452 0.082057,0.0702 0.048771,0.04 0.0979,0.0791 0.1520614,0.11187 0.07638,0.0444 0.1578263,0.0775 0.244058,0.0976 0.1093383,0.0266 0.2212054,0.0423 0.3340063,0.034 0.1028779,-0.005 0.2068518,-0.0117 0.3049262,-0.046 0.029437,-0.0104 0.049916,-0.0169 0.078219,-0.0297 0.011927,-0.005 0.046363,-0.0243 0.035133,-0.0176 -0.4798369,0.28754 -0.3004772,0.18215 -0.2007446,0.11192 0.069144,-0.065 0.1336363,-0.13361 0.1879576,-0.21189 0.067721,-0.0853 0.1302102,-0.17421 0.1809316,-0.27081 0,0 0.3200355,-0.14115 0.3200355,-0.14115 z"
       inkscape:connector-curvature="0"
       style="stroke-width:0.26458332" />
    <path
       id="path605"
       d="m 8.5206717,289.31071 c 0.00539,0.0892 0.023696,0.1765 0.05198,0.26105 0.027352,0.074 0.070816,0.13956 0.1256215,0.19581 0.04874,0.0509 0.1090438,0.0835 0.1738107,0.10906 0.066912,0.0332 0.1406114,0.0425 0.2140645,0.0486 0.079919,0.005 0.1600335,0.005 0.2400634,0.004 0.053681,-0.004 0.1097446,0.007 0.1624025,-0.006 0.035101,-0.0125 0.073716,-0.0106 0.1085099,-0.0227 0.120891,-0.0523 0.3217691,-0.17935 -0.2068965,0.12504 1.0022603,-0.59866 -0.2282484,0.1581 0.076401,-0.047 0.1892911,-0.12082 0.6332683,-0.36437 0.029137,-0.0193 -0.029137,0.0166 0.024633,-0.0169 0.029726,-0.0193 0.02082,-0.0176 0.040656,-0.0359 0.057978,-0.0571 0.01515,-0.0211 0.03493,-0.0376 0.051748,-0.0573 0.00818,-0.0135 0.023294,-0.0208 0.030115,-0.0346 0.011615,0.0152 -0.012118,0.0122 -0.021384,0.0121 -0.026986,8.2e-4 -0.053868,-0.003 -0.079889,0.005 -0.04385,0.01 -0.088022,0.021 -0.1299567,0.0375 -0.060208,0.0154 -0.121022,0.0289 -0.1825405,0.0378 -0.087534,0.0112 -0.1746665,0.0256 -0.2620603,0.0382 -0.1047321,0.0169 -0.2098378,0.0183 -0.3149359,0.005 -0.1008954,-0.0143 -0.1926164,-0.0509 -0.2818566,-0.0984 -0.064371,-0.0358 -0.1168996,-0.0869 -0.1696443,-0.1374 0,0 0.2939841,-0.18092 0.2939841,-0.18092 v 0 c 0.050361,0.0488 0.102362,0.0958 0.1649773,0.12872 0.086679,0.0445 0.1770356,0.0762 0.2743626,0.0879 0.1036269,0.01 0.2069816,0.005 0.30969,-0.0126 0.087792,-0.0138 0.1756854,-0.0269 0.2635819,-0.0401 0.060867,-0.0115 0.121957,-0.024 0.1807609,-0.0437 0.044343,-0.013 0.088513,-0.0271 0.1344912,-0.0333 0.028619,-10e-4 0.057368,-0.002 0.085941,6.6e-4 0.026882,0.004 0.045112,0.015 0.053937,0.0422 -0.00393,0.0205 -0.00811,0.0346 -0.025003,0.0485 -0.017439,0.0195 -0.03292,0.0399 -0.052747,0.0563 -0.017553,0.0218 -0.032827,0.0455 -0.055346,0.0618 -0.00867,0.013 -0.015481,0.0145 -0.028583,0.0222 -0.1034891,0.0608 -0.20994,0.11685 -0.3101803,0.18286 -0.090373,0.0595 0.3932881,-0.24688 0.2809944,-0.16255 -0.1841042,0.14022 -0.6988805,0.38998 -0.075747,0.0498 -0.1027734,0.0594 -0.2592155,0.17623 -0.4001156,0.21465 -0.036957,0.006 -0.07339,0.0139 -0.1103413,0.0194 -0.054394,0.002 -0.1088723,3.9e-4 -0.163295,7.4e-4 -0.080533,-5.6e-4 -0.1612101,-6.1e-4 -0.2415278,-0.007 -0.076029,-0.009 -0.1511152,-0.0226 -0.220349,-0.0568 -0.067773,-0.0297 -0.130411,-0.0665 -0.181311,-0.12133 -0.057285,-0.0609 -0.1027419,-0.13098 -0.1317741,-0.20975 -0.029556,-0.0861 -0.04819,-0.17483 -0.059039,-0.26526 0,0 0.3102457,-0.16297 0.3102457,-0.16297 z"
       inkscape:connector-curvature="0"
       style="stroke-width:0.26458332" />
    <path
       id="path611"
       d="m 9.7960835,283.82418 c 0.059414,-0.0897 0.1165402,-0.18078 0.1773272,-0.26956 0.069221,-0.11108 0.1586303,-0.20608 0.2495953,-0.29926 0.111153,-0.112 0.223807,-0.22243 0.339195,-0.33006 0.126329,-0.11732 0.261774,-0.22402 0.39927,-0.3278 0.144621,-0.1051 0.297027,-0.19882 0.449,-0.29277 0.218471,-0.14731 0.458081,-0.25557 0.688804,-0.38022 0.116171,-0.0656 0.239035,-0.11675 0.362293,-0.16705 0.103396,-0.0374 0.207434,-0.0735 0.314141,-0.10028 0.06098,-0.0211 0.123401,-0.0357 0.187561,-0.042 0.03717,-0.004 0.07459,-0.003 0.111899,-0.004 0.05045,-3.1e-4 0.08628,0.0423 0.11592,0.0777 0.07344,0.10641 0.123809,0.22642 0.170228,0.34646 0.05516,0.15574 0.08454,0.31874 0.121312,0.47939 0.04597,0.18868 0.06392,0.38213 0.08008,0.57515 0.01839,0.27369 0.01521,0.54858 -5.56e-4,0.82229 -0.01307,0.25609 -0.03692,0.51107 -0.07182,0.76505 -0.03857,0.2799 -0.135525,0.54578 -0.236288,0.80811 -0.102409,0.24892 -0.227349,0.48708 -0.355596,0.72334 -0.07488,0.13553 -0.157643,0.26684 -0.249688,0.39136 -0.04185,0.0539 -0.08325,0.10802 -0.128617,0.15906 -0.10223,0.10554 -0.232211,0.14854 -0.365118,0.22869 -0.09514,0.0574 0.192565,-0.11086 0.288848,-0.16629 -0.109027,0.0638 -0.15573,0.0912 -0.324185,0.18149 -0.0048,0.003 -0.02545,-0.007 -0.0313,-0.009 -0.0019,-4.5e-4 -0.0039,-8.8e-4 -0.0058,-0.001 0,0 0.289888,-0.20208 0.289888,-0.20208 v 0 c 0.0018,2.9e-4 0.0036,6e-4 0.0053,9e-4 0.01407,0.002 0.02106,-0.006 0.02039,-0.005 -0.28726,0.16394 -0.389269,0.23022 -0.282694,0.16127 0.104575,-0.0603 0.207179,-0.12421 0.313725,-0.18098 0.09839,-0.0524 -0.193087,0.11153 -0.289251,0.16794 -0.0044,0.003 0.0096,-0.004 0.01393,-0.006 0.01552,-0.01 0.02749,-0.025 0.04275,-0.0352 0.05139,-0.0465 0.08985,-0.10463 0.135003,-0.15689 0.09703,-0.1233 0.183106,-0.25496 0.261329,-0.39092 0.130795,-0.23555 0.258905,-0.47263 0.362725,-0.72171 0.100603,-0.25933 0.196956,-0.52268 0.236009,-0.79955 0.03585,-0.25344 0.06015,-0.50797 0.07463,-0.76356 0.01738,-0.27162 0.02188,-0.54479 -1.65e-4,-0.81631 -0.01824,-0.19075 -0.03843,-0.38162 -0.08312,-0.56836 -0.03647,-0.15901 -0.06518,-0.3204 -0.119441,-0.47467 -0.04587,-0.11566 -0.09531,-0.23198 -0.17044,-0.33213 -0.0299,-0.0311 -0.05723,-0.0558 -0.102663,-0.0511 -0.03602,4e-5 -0.07208,0.001 -0.107848,0.006 -0.06204,0.009 -0.122075,0.0264 -0.182235,0.0438 -0.104478,0.0282 -0.207254,0.0627 -0.308227,0.10156 -0.122842,0.0505 -0.243909,0.10485 -0.360067,0.16959 -0.112397,0.0584 -0.616801,0.32637 -0.104667,0.0429 -0.152665,0.0926 -0.304408,0.18706 -0.450418,0.28989 -0.137792,0.10262 -0.273481,0.20822 -0.400271,0.32434 -0.115043,0.10649 -0.226983,0.21608 -0.337203,0.32757 -0.09072,0.0916 -0.182427,0.18343 -0.251109,0.29351 -0.06049,0.0864 -0.117684,0.17506 -0.170961,0.26612 0,0 -0.3214365,0.14064 -0.3214365,0.14064 z"
       inkscape:connector-curvature="0"
       style="stroke-width:0.26458332" />
    <path
       id="path613"
       d="m 10.304524,283.52921 c -0.0732,0.0456 -0.143618,0.0955 -0.214747,0.14418 -0.0682,0.0443 -0.1307774,0.0963 -0.1946655,0.14641 -0.047,0.0393 -0.097617,0.0738 -0.1461363,0.11103 -0.1169159,0.0918 -0.2459405,0.14328 -0.3829753,0.21593 -0.034111,-0.0287 -0.028653,-0.062 -0.010792,-0.0986 0.038704,-0.0828 0.1008467,-0.15022 0.1616652,-0.21718 0.1557488,-0.16749 0.3297893,-0.31638 0.5018329,-0.46659 0.119156,-0.10483 0.241951,-0.20539 0.364191,-0.30656 0,0 0.304419,-0.12264 0.304419,-0.12264 v 0 c -0.122507,0.10005 -0.245195,0.19995 -0.36338,0.30512 -0.168059,0.14768 -0.338502,0.29365 -0.4908036,0.45794 -0.05819,0.0637 -0.1212633,0.12725 -0.158366,0.2062 -0.00696,0.0121 -0.027804,0.0477 -0.024098,0.0342 -0.5368144,0.30322 -0.3370858,0.20007 -0.2271234,0.12219 0.048835,-0.0384 0.1005946,-0.0727 0.1487681,-0.11187 0.064292,-0.0506 0.1270169,-0.10335 0.1949273,-0.14914 0.070425,-0.0473 0.1387663,-0.0976 0.210548,-0.14283 0,0 0.3267366,-0.12784 0.3267366,-0.12784 z"
       inkscape:connector-curvature="0"
       style="stroke-width:0.26458332" />
    <path
       id="path615"
       d="m 5.0091424,285.02526 c -0.062203,-0.0761 -0.1324972,-0.14543 -0.2055926,-0.21102 -0.1113629,-0.0949 -0.2304471,-0.17989 -0.352896,-0.25975 -0.1488151,-0.095 -0.3052328,-0.1769 -0.4611954,-0.2593 -0.1408354,-0.0739 -0.2842162,-0.14253 -0.4276585,-0.21121 -0.1428798,-0.0651 -0.2851036,-0.13109 -0.4347165,-0.17932 -0.1601981,-0.0444 -0.3207679,-0.088 -0.4822364,-0.12751 -0.1382945,-0.0354 -0.2795076,-0.0593 -0.421042,-0.0774 -0.099589,-0.0172 -0.1997725,-0.0298 -0.3006201,-0.0361 -0.053633,-0.003 -0.1073586,-0.003 -0.1610546,-0.003 -0.030509,-0.004 -0.055757,0.009 -0.083288,0.0198 -0.00582,0.004 -0.015423,-3.7e-4 -0.021383,0.004 -0.00267,0.002 -0.00766,0.0101 -0.00483,0.008 0.097293,-0.0567 0.1945849,-0.11338 0.2918774,-0.17007 -0.00695,0.006 -0.00325,0.004 -0.010838,0.006 -0.015052,0.0279 -0.031572,0.0559 -0.046422,0.0844 -0.036784,0.0723 -0.061328,0.15025 -0.084308,0.22782 -0.04225,0.13627 -0.053715,0.27857 -0.062137,0.42015 -0.00175,0.18238 0.00358,0.36495 0.020153,0.54659 0.016884,0.18205 0.046191,0.3628 0.078987,0.5426 0.028317,0.17862 0.0896,0.34802 0.1574926,0.51468 0.077143,0.17023 0.1690289,0.33369 0.2665093,0.49301 0.1090286,0.17969 0.2279333,0.35303 0.3469916,0.52614 0.120793,0.17612 0.2581945,0.33922 0.4008566,0.49772 0.1043836,0.11108 0.2039075,0.2269 0.3161278,0.33027 0.059284,0.053 0.1212721,0.10292 0.185129,0.15028 0,0 -0.2954211,0.18641 -0.2954211,0.18641 v 0 c -0.062803,-0.0497 -0.1246168,-0.10077 -0.1827699,-0.15593 -0.1100304,-0.10628 -0.2077527,-0.22423 -0.3115148,-0.33649 -0.1423069,-0.16051 -0.2800511,-0.32509 -0.4013629,-0.50234 -0.119779,-0.17339 -0.2402902,-0.34643 -0.350188,-0.52636 -0.098648,-0.16078 -0.1914643,-0.32576 -0.2702651,-0.49725 -0.068464,-0.16884 -0.131296,-0.34007 -0.1608218,-0.52078 -0.033296,-0.18074 -0.062094,-0.36262 -0.079558,-0.54563 -0.017816,-0.18281 -0.022979,-0.36649 -0.024164,-0.55013 0.00658,-0.14263 0.014961,-0.2864 0.054159,-0.42453 0.020423,-0.0792 0.045558,-0.15736 0.076853,-0.23295 0.014715,-0.0264 0.024644,-0.0594 0.044467,-0.0812 5.636e-4,-0.007 -7.911e-4,-0.0147 0.00613,-0.0189 0.3654332,-0.22476 0.1950131,-0.14752 0.3382871,-0.19283 0.029427,-0.009 0.058344,-0.0118 0.089123,-0.009 0.053387,4.8e-4 0.1067842,0.002 0.1600091,0.007 0.099992,0.009 0.1991627,0.024 0.2981975,0.0404 0.1415523,0.0204 0.2827815,0.0452 0.421094,0.082 0.1616398,0.0415 0.3232534,0.0836 0.4836589,0.12958 0.150023,0.0509 0.2937941,0.11659 0.437643,0.18268 0.1432227,0.0694 0.2867033,0.13808 0.4271214,0.21312 0.1565878,0.0832 0.3126962,0.16743 0.4629827,0.26172 0.124582,0.0805 0.2459043,0.16613 0.3591616,0.26214 0.074574,0.0672 0.1465418,0.13729 0.2138249,0.21184 0,0 -0.3005556,0.18045 -0.3005556,0.18045 z"
       inkscape:connector-curvature="0"
       style="stroke-width:0.26458332" />
    <path
       id="path617"
       d="m 9.7083053,286.91034 c 0.042437,0.0566 0.099024,0.10005 0.1470189,0.15152 0.028322,0.0292 0.063128,0.0513 0.092796,0.0788 0.017209,0.0137 0.038379,0.0193 0.049675,0.0382 0.05001,0.13193 0.019695,0.0308 -0.313123,0.1795 -0.00482,0.002 -0.046434,-0.0426 -0.049763,-0.0466 -0.040587,-0.051 -0.082536,-0.10076 -0.1244217,-0.15068 -0.053757,-0.0619 -0.107905,-0.12323 -0.157013,-0.18893 -0.050067,-0.0801 -0.098866,-0.16125 -0.142109,-0.24526 -0.040462,-0.0789 -0.077404,-0.15874 -0.1074579,-0.2422 -0.02948,-0.091 -0.036838,-0.18654 -0.042559,-0.28139 -0.00684,-0.069 -7.409e-4,-0.13749 0.00851,-0.20582 0.00604,-0.0346 0.00451,-0.0702 0.015624,-0.10367 0.00243,-0.005 0.00489,-0.009 0.00734,-0.0135 0,0 0.3226223,-0.1405 0.3226223,-0.1405 v 0 c -0.003,0.003 -0.006,0.007 -0.009,0.0101 -0.023154,0.0253 -0.014819,0.0612 -0.022564,0.0931 -0.00994,0.0669 -0.021812,0.13331 -0.014549,0.20134 0.00396,0.0917 0.010128,0.18416 0.038307,0.27214 0.029416,0.0822 0.064437,0.16117 0.1046885,0.2387 0.041733,0.0825 0.089492,0.16207 0.1397468,0.23965 0.049198,0.0647 0.1027092,0.12574 0.1559949,0.18709 0.042662,0.0492 0.084827,0.0987 0.1270252,0.14826 0.013264,0.0135 0.010247,0.0116 0.024019,0.0219 0.00623,0.005 0.026563,0.008 0.019868,0.0123 -0.3027775,0.18003 -0.3603625,0.0684 -0.2904789,0.18665 0.018066,0.0257 -0.034585,-0.0246 -0.039228,-0.0248 -0.031586,-0.0267 -0.063622,-0.0532 -0.092308,-0.083 -0.048335,-0.0521 -0.1030046,-0.0982 -0.1492162,-0.15241 0,0 0.3005555,-0.18046 0.3005555,-0.18046 z"
       inkscape:connector-curvature="0"
       style="stroke-width:0.26458332" />
    <path
       id="path619"
       d="m 6.3237546,286.75616 c 0.00993,0.0855 0.021741,0.17101 0.03606,0.2559 0.01107,0.0642 0.030274,0.12683 0.051211,0.18847 0.017036,0.0377 0.03495,0.0748 0.0562,0.11032 0.014541,0.0275 0.035067,0.0508 0.051184,0.0773 0.00801,0.0127 0.0108,0.0265 0.021767,0.037 0.011607,0.0127 0.022119,0.0261 0.028364,0.0426 0.038079,0.13412 0.017306,0.0269 -0.3129094,0.1828 -0.00578,0.003 -0.027736,-0.0212 -0.032504,-0.0247 -0.035759,-0.0282 -0.059642,-0.068 -0.083058,-0.10635 -0.030884,-0.0536 -0.057081,-0.10944 -0.082108,-0.16594 -0.030346,-0.0584 -0.062474,-0.11586 -0.094448,-0.17342 -0.03053,-0.0477 -0.05304,-0.0997 -0.079049,-0.14977 -0.020849,-0.0417 -0.044452,-0.082 -0.062452,-0.12511 -0.019868,-0.0457 -0.037181,-0.0927 -0.052091,-0.14024 -0.00928,-0.0328 -0.014264,-0.0667 -0.018907,-0.10045 0,0 0.3120781,-0.16308 0.3120781,-0.16308 v 0 c 0.0022,0.0321 0.00577,0.0642 0.013957,0.0954 0.013816,0.0468 0.031227,0.0926 0.050651,0.13731 0.017031,0.0425 0.041345,0.0813 0.061009,0.1226 0.025112,0.0502 0.047079,0.10195 0.077234,0.14956 0.031906,0.0587 0.065051,0.11669 0.095938,0.1759 0.024635,0.0548 0.049774,0.10934 0.080202,0.1613 0.022331,0.0343 0.044057,0.0706 0.078572,0.0942 0.00719,0.005 0.010943,0.009 0.018642,0.0128 0.00306,10e-4 0.012335,0.002 0.00942,0.004 -0.061806,0.0363 -0.3880866,0.0916 -0.2916735,0.17983 0.00337,-9e-4 -0.014512,-0.0204 -0.018915,-0.0258 -0.011136,-0.0135 -0.018156,-0.0277 -0.024664,-0.0436 -0.01529,-0.0267 -0.03593,-0.05 -0.049782,-0.0777 -0.022921,-0.0376 -0.041107,-0.0774 -0.058894,-0.11766 -0.020976,-0.0637 -0.04051,-0.12823 -0.051313,-0.19454 -0.014457,-0.0847 -0.023768,-0.17034 -0.04011,-0.25479 0,0 0.3103843,-0.16374 0.3103843,-0.16374 z"
       inkscape:connector-curvature="0"
       style="stroke-width:0.26458332" />
    <path
       id="path621"
       d="m 10.812971,287.79227 c 0.233663,-0.0787 0.46969,-0.14976 0.706115,-0.21958 0.419764,-0.13035 0.846848,-0.2348 1.272637,-0.34317 0.436763,-0.10712 0.871813,-0.221 1.305564,-0.33968 0.413285,-0.10909 0.82229,-0.23342 1.23219,-0.3544 0.283789,-0.0793 0.563374,-0.17308 0.84955,-0.24361 0.07965,-0.0214 0.159163,-0.0427 0.240881,-0.0543 0,0 -0.278956,0.20888 -0.278956,0.20888 v 0 c -0.07752,0.0114 -0.153257,0.031 -0.229295,0.0497 -0.281304,0.0683 -0.556679,0.15806 -0.835685,0.23487 -0.409138,0.11971 -0.817394,0.24271 -1.229594,0.35162 -0.433584,0.11809 -0.868486,0.23121 -1.304882,0.33848 -0.42772,0.109 -0.856468,0.21515 -1.277437,0.34854 -0.244515,0.0744 -0.48824,0.15106 -0.729062,0.23672 0,0 0.277974,-0.21402 0.277974,-0.21402 z"
       inkscape:connector-curvature="0"
       style="stroke-width:0.26458332" />
    <path
       id="path623"
       d="m 11.453802,288.1236 c 0.249628,-0.0437 0.497305,-0.0983 0.745499,-0.14951 0.435144,-0.092 0.870102,-0.18518 1.306903,-0.26906 0.46912,-0.0914 0.941959,-0.16131 1.414601,-0.23144 0.443355,-0.0632 0.887047,-0.12457 1.332145,-0.17428 0.285576,-0.0349 0.572537,-0.0549 0.859576,-0.0727 0,0 -0.267039,0.19622 -0.267039,0.19622 v 0 c -0.283454,0.0128 -0.56645,0.0337 -0.848333,0.0667 -0.443431,0.0489 -0.885601,0.10871 -1.327183,0.17203 -0.472626,0.07 -0.945316,0.14066 -1.414255,0.23289 -0.438676,0.0853 -0.87558,0.17936 -1.312359,0.27385 -0.256177,0.055 -0.512244,0.11064 -0.767869,0.16814 0,0 0.278314,-0.21282 0.278314,-0.21282 z"
       inkscape:connector-curvature="0"
       style="stroke-width:0.26458332" />
    <path
       id="path625"
       d="m 12.002385,288.79426 c 0.298926,0.0264 0.599641,0.0203 0.899335,0.016 0.552864,-0.0124 1.104245,-0.0565 1.655945,-0.0915 0.579434,-0.0308 1.159319,-0.0554 1.739564,-0.0623 0.44692,-7.4e-4 0.893729,0.004 1.340592,-0.005 0,0 -0.255022,0.18569 -0.255022,0.18569 v 0 c -0.444097,7.7e-4 -0.888166,-0.002 -1.332262,-0.001 -0.579659,0.007 -1.159017,0.0312 -1.737835,0.063 -0.554778,0.0361 -1.10925,0.08 -1.665101,0.0965 -0.309429,0.008 -0.618887,0.0121 -0.928363,0.004 0,0 0.283147,-0.20572 0.283147,-0.20572 z"
       inkscape:connector-curvature="0"
       style="stroke-width:0.26458332" />
    <path
       id="path629"
       d="m 11.104692,288.936 c 0.193376,0.005 0.386846,0.005 0.580269,0.005 0.30693,0.005 0.613715,-0.003 0.919984,-0.0232 0.159399,-0.009 0.318504,-0.0223 0.477558,-0.0361 0,0 -0.264458,0.1954 -0.264458,0.1954 v 0 c -0.158708,0.0118 -0.317348,0.0247 -0.476203,0.0344 -0.308003,0.0193 -0.616422,0.0267 -0.925041,0.0243 -0.19842,8.8e-4 -0.396881,8e-4 -0.595257,0.005 0,0 0.283148,-0.20572 0.283148,-0.20572 z"
       inkscape:connector-curvature="0"
       style="stroke-width:0.26458332" />
    <path
       id="path631"
       d="m 5.007701,288.98073 c -0.1857632,0.0103 -0.3700989,0.0392 -0.5542669,0.0646 -0.3258812,0.0444 -0.6497958,0.10198 -0.9727361,0.164 -0.3388265,0.0742 -0.6802761,0.1353 -1.0192137,0.20885 -0.3201327,0.0643 -0.6359738,0.1469 -0.9498109,0.23653 -0.3059783,0.0886 -0.61089159,0.1807 -0.91609632,0.27186 -0.25562105,0.0741 -0.51245569,0.14388 -0.77115651,0.20638 -0.12357767,0.0333 -0.24962609,0.0544 -0.37595042,0.0738 0,0 0.2724668,-0.20426 0.2724668,-0.20426 v 0 c 0.12434608,-0.0184 0.24790439,-0.0411 0.36969314,-0.0727 0.25675121,-0.0609 0.51132286,-0.13058 0.76484095,-0.20378 0.30511876,-0.0902 0.60956296,-0.18265 0.91529816,-0.27076 0.3139206,-0.0888 0.6300555,-0.16962 0.9500049,-0.23401 0.3387921,-0.0724 0.6798033,-0.13379 1.0183789,-0.2073 0.3253796,-0.0622 0.6516714,-0.12025 0.9796478,-0.16719 0.1895515,-0.0276 0.3790453,-0.0562 0.5697323,-0.0749 0,0 -0.2808321,0.20882 -0.2808321,0.20882 z"
       inkscape:connector-curvature="0"
       style="stroke-width:0.26458332" />
    <path
       id="path633"
       d="m 4.3870655,289.50749 c -0.2361264,0.0722 -0.467895,0.15826 -0.6978828,0.24794 -0.3233308,0.13327 -0.6376913,0.28728 -0.9455605,0.45287 -0.4151227,0.2386 -0.01578,0.007 -0.021818,0.0124 -0.040324,0.0386 -0.095766,0.0575 -0.1434721,0.0865 -0.1342624,0.0817 -0.2675804,0.16493 -0.401193,0.24767 -0.2221953,0.14044 -0.4473582,0.27591 -0.6742073,0.40868 -0.2295856,0.14204 -0.4701138,0.26416 -0.70638016,0.39416 0,0 0.26887206,-0.21664 0.26887206,-0.21664 v 0 c 0.1008586,-0.0544 0.5912357,-0.32058 0.1249446,-0.0574 0.2289856,-0.13334 0.4569279,-0.26833 0.6807203,-0.41029 0.3710929,-0.22925 0.741696,-0.45952 1.1250173,-0.66816 0.309484,-0.16471 0.6249115,-0.31888 0.9497417,-0.45121 0.2369966,-0.0921 0.4753314,-0.18178 0.7179429,-0.25809 0,0 -0.2767261,0.2116 -0.2767261,0.2116 z"
       inkscape:connector-curvature="0"
       style="stroke-width:0.26458332" />
    <path
       id="path635"
       d="m 5.5760138,289.70531 c -0.2271504,0.0958 -0.4473514,0.20601 -0.6642307,0.32298 0.034451,-0.0197 0.1371656,-0.0799 0.1033526,-0.0591 -0.061448,0.0378 -0.1244102,0.073 -0.1862785,0.11011 -0.2759538,0.16539 -0.5496256,0.33484 -0.8227319,0.50487 -0.4104066,0.25989 -0.8131146,0.53158 -1.2192405,0.79801 -0.3556969,0.23153 -0.7206017,0.44858 -1.084529,0.66684 -0.3531176,0.20783 -0.7058537,0.41641 -1.06849087,0.60725 -0.12367524,0.0662 -0.0644817,0.0343 -0.17762244,0.0956 0,0 0.26395241,-0.2124 0.26395241,-0.2124 v 0 c 0.11043949,-0.0588 0.0524316,-0.028 0.17404204,-0.0924 0.0664139,-0.0348 0.15373336,-0.0802 0.21873236,-0.11607 0.041735,-0.023 0.1628982,-0.0986 0.1244544,-0.0704 -0.043935,0.0322 -0.1876421,0.11076 -0.1410295,0.0826 0.047112,-0.0285 0.2621073,-0.15304 0.3059366,-0.17849 0.3664466,-0.21852 0.7334816,-0.43651 1.091761,-0.66826 0.4073951,-0.26609 0.8105921,-0.53864 1.2213617,-0.79958 0.4779867,-0.2985 0.9576887,-0.59472 1.4486265,-0.87161 0.2244101,-0.12041 0.4528407,-0.23202 0.6844173,-0.33789 0,0 -0.2724835,0.21796 -0.2724835,0.21796 z"
       inkscape:connector-curvature="0"
       style="stroke-width:0.26458332" />
    <path
       id="path637"
       d="m 3.5943653,291.40258 c -0.094963,0.15746 -0.1801725,0.32033 -0.2637385,0.48404 -0.114981,0.22119 -0.2075288,0.45247 -0.2931311,0.68627 -0.092317,0.2432 -0.1530207,0.4964 -0.2156891,0.74838 -0.065805,0.26982 -0.1136682,0.54339 -0.1569048,0.81758 -0.02803,0.17613 -0.045033,0.35371 -0.052003,0.53187 -0.00197,0.0753 -0.00217,0.15074 -0.00137,0.2261 0,0 -0.3109042,0.15858 -0.3109042,0.15858 v 0 c 1.772e-4,-0.0768 -4.41e-5,-0.15351 0.00515,-0.23014 0.011112,-0.18109 0.030574,-0.36153 0.060969,-0.54047 0.045467,-0.27461 0.092444,-0.54912 0.1561256,-0.82022 0.062055,-0.25268 0.1218785,-0.50676 0.2128112,-0.751 0.085638,-0.23446 0.1762636,-0.46714 0.2906355,-0.6894 0.080335,-0.16109 0.162623,-0.32115 0.2491193,-0.47897 0,0 0.3189229,-0.14262 0.3189226,-0.14262 z"
       inkscape:connector-curvature="0"
       style="stroke-width:0.26458332" />
    <path
       id="path639"
       d="m 3.1037762,293.85187 c -0.054213,0.11123 -0.1007543,0.22614 -0.1461775,0.3412 -0.061108,0.1504 -0.1014801,0.30737 -0.1301771,0.4668 -0.024979,0.143 -0.043225,0.28717 -0.058457,0.43151 -0.011893,0.11657 -0.017037,0.23346 -0.01003,0.35042 0.00805,0.0956 0.012528,0.19148 0.015753,0.28738 0.00533,0.0923 -0.00428,0.18416 -0.011496,0.27603 -0.00554,0.0842 -0.010687,0.16859 -0.00732,0.25294 0.00508,0.0858 0.021235,0.17024 0.031288,0.25548 0.014663,0.0854 0.022828,0.17169 0.034354,0.25752 0.012203,0.0705 0.027285,0.14066 0.042617,0.21059 0.014229,0.0524 0.019931,0.10649 0.034459,0.15876 0.010168,0.0358 0.016801,0.0725 0.020249,0.10947 0.00119,0.0141 0.00204,0.0282 0.00287,0.0424 0,0 -0.3150325,0.16072 -0.3150325,0.16072 v 0 c 7.197e-4,-0.0137 4.815e-4,-0.0274 -5.61e-5,-0.041 -0.00199,-0.0351 -0.00646,-0.0701 -0.016019,-0.10399 -0.014609,-0.0531 -0.019965,-0.10777 -0.033442,-0.16126 -0.016205,-0.0707 -0.029566,-0.14233 -0.043011,-0.21357 -0.012615,-0.086 -0.017099,-0.17319 -0.033999,-0.25867 -0.00976,-0.086 -0.027091,-0.17082 -0.032497,-0.25725 -0.00575,-0.0857 -7.65e-5,-0.17152 0.00541,-0.25712 0.00717,-0.0908 0.018589,-0.18151 0.013111,-0.27274 -0.00194,-0.0958 -0.00645,-0.19145 -0.014052,-0.28694 -0.00737,-0.11916 -0.00234,-0.23801 0.00989,-0.3568 0.015727,-0.14533 0.033514,-0.29066 0.059511,-0.43454 0.027154,-0.16113 0.066826,-0.31991 0.1261779,-0.47244 0.043803,-0.11358 0.089176,-0.22677 0.1374506,-0.33842 0,0 0.3186292,-0.14642 0.3186292,-0.14642 z"
       inkscape:connector-curvature="0"
       style="stroke-width:0.26458332" />
    <path
       id="path641"
       d="m 4.7221055,289.89059 c -0.1426636,0.12133 -0.2664198,0.26239 -0.3879316,0.4043 -0.1227172,0.14293 -0.2267897,0.30004 -0.3179638,0.46452 -0.1065863,0.20346 -0.1979634,0.41462 -0.2897097,0.62508 -0.1172687,0.27216 -0.208488,0.55414 -0.2969549,0.83664 0,0 -0.2987034,0.14069 -0.2987034,0.14069 v 0 c 0.092628,-0.28163 0.1786532,-0.56572 0.2945585,-0.83905 0.089599,-0.21007 0.1788715,-0.42084 0.2816579,-0.62484 0.090094,-0.16746 0.1941216,-0.32697 0.3177133,-0.47198 0.1186751,-0.13996 0.239242,-0.2788 0.3738329,-0.40388 0,0 0.3235008,-0.13148 0.3235008,-0.13148 z"
       inkscape:connector-curvature="0"
       style="stroke-width:0.26458332" />
    <path
       id="path643"
       d="m 11.882943,289.49345 c 0.08653,0.0426 0.169236,0.0917 0.251007,0.14276 0.113894,0.0773 0.225657,0.15739 0.340103,0.23393 0.127562,0.0893 0.261262,0.16921 0.390487,0.25599 0.132191,0.0854 0.24581,0.19246 0.351622,0.30804 0.107189,0.12429 0.202303,0.25858 0.290949,0.39654 0.08882,0.1432 0.17791,0.2862 0.268341,0.4284 0.09685,0.15319 0.185008,0.31148 0.264305,0.4744 0.0778,0.16857 0.152383,0.33877 0.216328,0.51312 0.05893,0.17281 0.108188,0.34876 0.157514,0.5245 0.04552,0.17762 0.104434,0.35129 0.155209,0.52739 0.06086,0.21555 0.08428,0.43842 0.109427,0.66018 0.02669,0.26639 0.04803,0.53326 0.07267,0.79983 0.02365,0.23877 0.05441,0.47672 0.08167,0.71507 0.01849,0.19185 0.03879,0.38355 0.06447,0.57458 0.01913,0.15455 0.04498,0.30801 0.0736,0.46103 0.02476,0.12678 0.05304,0.25274 0.08507,0.37788 0.02769,0.0954 0.05838,0.18985 0.08727,0.28489 0.02339,0.0678 0.04638,0.13595 0.06383,0.20554 0.0113,0.0449 0.0055,0.023 0.01727,0.0657 0,0 -0.306497,0.1664 -0.306497,0.1664 v 0 c -0.01128,-0.0433 -0.0054,-0.0212 -0.01754,-0.0664 -0.0165,-0.0694 -0.03913,-0.13725 -0.06137,-0.20497 -0.02771,-0.096 -0.05882,-0.19104 -0.08559,-0.28735 -0.03176,-0.12619 -0.06004,-0.25312 -0.08406,-0.38101 -0.02795,-0.15394 -0.05481,-0.30806 -0.07239,-0.46362 -0.02505,-0.19181 -0.04356,-0.38438 -0.06131,-0.57699 -0.02637,-0.23914 -0.05433,-0.47811 -0.07843,-0.7175 -0.0245,-0.2662 -0.04499,-0.53276 -0.07342,-0.79858 -0.02581,-0.21936 -0.05172,-0.43945 -0.111136,-0.65286 -0.05176,-0.17584 -0.111084,-0.3494 -0.156504,-0.52708 -0.049,-0.17496 -0.09703,-0.3504 -0.15598,-0.52234 -0.06338,-0.17333 -0.136328,-0.34304 -0.214545,-0.51017 -0.0787,-0.16181 -0.166216,-0.31899 -0.263511,-0.47043 -0.09016,-0.14232 -0.179576,-0.28505 -0.2685,-0.42813 -0.08743,-0.13646 -0.182063,-0.26876 -0.288612,-0.39106 -0.104617,-0.11322 -0.217127,-0.2174 -0.347203,-0.30129 -0.129407,-0.0865 -0.263344,-0.16616 -0.3908,-0.25564 -0.114786,-0.0759 -0.226828,-0.15574 -0.341853,-0.23128 -0.08217,-0.0494 -0.164786,-0.0985 -0.253685,-0.135 0,0 0.291801,-0.19446 0.291801,-0.19446 z"
       inkscape:connector-curvature="0"
       style="stroke-width:0.26458332" />
    <path
       id="path645"
       d="m 14.657315,293.53773 c 0.01207,-0.0897 0.02536,-0.17935 0.035,-0.2694 0.01021,-0.1078 0.01195,-0.21618 0.0132,-0.32438 0.0013,-0.12659 9e-4,-0.25319 9.53e-4,-0.37979 -7.94e-4,-0.13331 0.01138,-0.26627 0.01717,-0.3994 0.01212,-0.14992 -0.0018,-0.29892 -0.01736,-0.44788 -0.01568,-0.13148 -0.03566,-0.2624 -0.05171,-0.39382 -0.01059,-0.11621 -0.02369,-0.23218 -0.03295,-0.34852 -0.0078,-0.11825 -0.0092,-0.2368 -0.01027,-0.35526 -0.0011,-0.0936 -0.0015,-0.18722 -0.0014,-0.28083 -0.0032,-0.0803 0.0018,-0.16002 0.0099,-0.23984 0.0095,-0.0839 0.02928,-0.16591 0.05122,-0.24728 0.02077,-0.0676 0.03869,-0.13603 0.06745,-0.20078 0.03392,-0.0692 0.07868,-0.13233 0.124979,-0.19367 0.06369,-0.0831 0.127813,-0.16585 0.195055,-0.24613 0.07414,-0.0891 0.157067,-0.16983 0.242212,-0.24821 0.06889,-0.0668 0.144931,-0.12518 0.220832,-0.18359 0.06245,-0.0512 0.128227,-0.098 0.197312,-0.13978 0.141427,-0.0779 0.310578,-0.22702 0.493604,-0.21727 0.0668,0.006 0.13237,0.0308 0.188864,0.0664 0.07312,0.049 0.136399,0.11132 0.194108,0.17741 0.07546,0.0883 0.126891,0.19128 0.170416,0.29804 0.05465,0.13142 0.08677,0.26931 0.107366,0.40966 0.02588,0.18423 0.02373,0.37005 0.01304,0.55524 -0.01667,0.19886 -0.04427,0.39654 -0.06933,0.59445 -0.02613,0.177 -0.04318,0.35515 -0.06503,0.53269 -0.02472,0.16435 -0.0607,0.32689 -0.09604,0.48924 -0.03471,0.17123 -0.08832,0.33745 -0.135655,0.50533 -0.04534,0.16528 -0.09013,0.33061 -0.128532,0.49764 -0.0286,0.14468 -0.05843,0.28923 -0.08074,0.43504 -0.02121,0.13918 -0.04146,0.27849 -0.06264,0.41767 -0.02369,0.14182 -0.05555,0.28202 -0.07686,0.42425 -0.02316,0.13745 -0.03456,0.27638 -0.05007,0.41479 -0.01059,0.11256 -0.02055,0.22516 -0.03087,0.33776 -0.0089,0.11144 -0.02213,0.22254 -0.03696,0.33334 -0.01268,0.10143 -0.02857,0.20246 -0.0456,0.30325 -0.01848,0.0841 -0.03975,0.16825 -0.06747,0.24989 -0.02603,0.0715 -0.06066,0.13892 -0.09577,0.20623 -0.02963,0.0566 -0.06301,0.11104 -0.09435,0.16666 -0.0267,0.0491 -0.05163,0.099 -0.08106,0.14651 -0.0351,0.053 -0.05852,0.11144 -0.08071,0.1706 -0.01898,0.0542 -0.04285,0.10632 -0.06276,0.16012 -0.02007,0.043 -0.02832,0.0896 -0.04035,0.13511 -0.0076,0.0264 -0.0129,0.0533 -0.01636,0.0805 0,0 -0.314311,0.15562 -0.314311,0.15562 v 0 c 0.003,-0.0287 0.0051,-0.0577 0.01457,-0.0852 0.01228,-0.0467 0.02012,-0.0946 0.03889,-0.13935 0.02597,-0.0585 -0.0049,0.0138 0.01886,-0.0517 0.01324,-0.0365 0.03512,-0.0697 0.04506,-0.10761 0.0217,-0.0609 0.04368,-0.12177 0.07785,-0.17704 0.0291,-0.0474 0.05722,-0.0951 0.08113,-0.14542 0.03245,-0.055 0.06374,-0.1107 0.09629,-0.16566 0.03379,-0.067 0.07128,-0.13191 0.0981,-0.20225 0.0298,-0.0798 0.05003,-0.16282 0.07156,-0.24513 0.01706,-0.1007 0.03419,-0.20144 0.04715,-0.30276 0.01524,-0.11035 0.02859,-0.22099 0.03768,-0.33203 0.01046,-0.11302 0.02024,-0.22605 0.03143,-0.33898 0.01693,-0.13892 0.02886,-0.27843 0.05162,-0.4166 0.01989,-0.14241 0.05066,-0.28266 0.07603,-0.42413 0.02118,-0.13906 0.04175,-0.27818 0.06222,-0.41736 0.02151,-0.14729 0.05426,-0.29256 0.08236,-0.43869 0.03784,-0.16778 0.08254,-0.33372 0.128471,-0.49946 0.04656,-0.16734 0.100679,-0.33266 0.13549,-0.50312 0.03585,-0.16148 0.07059,-0.32348 0.09759,-0.48667 0.02406,-0.17759 0.0391,-0.35633 0.06664,-0.53348 0.02595,-0.1973 0.05367,-0.39444 0.0712,-0.59272 0.01059,-0.18265 0.01277,-0.36591 -0.01247,-0.54765 -0.02109,-0.13725 -0.0532,-0.27214 -0.106976,-0.40066 -0.04181,-0.10339 -0.09158,-0.20289 -0.166666,-0.28676 -0.05614,-0.0631 -0.11729,-0.12291 -0.18977,-0.16706 -0.05517,-0.0295 -0.115688,-0.0512 -0.179011,-0.0504 -0.153962,0.0123 -0.369332,0.16447 0.11331,-0.11299 -0.07033,0.0393 -0.137559,0.0842 -0.199523,0.13576 -0.07603,0.0589 -0.154688,0.11477 -0.224068,0.18173 -0.08505,0.0777 -0.169871,0.15554 -0.243849,0.2442 -0.06762,0.0788 -0.131305,0.16065 -0.193504,0.24377 -0.04661,0.0589 -0.0906,0.12049 -0.126582,0.18647 -0.03252,0.062 -0.04882,0.12927 -0.07125,0.1953 -0.02119,0.08 -0.04426,0.15962 -0.05369,0.24222 -0.0077,0.079 -0.01552,0.15745 -0.01177,0.23697 -1.41e-4,0.0939 -9.26e-4,0.18784 -10e-4,0.28177 5.82e-4,0.11774 0.0015,0.23558 0.0092,0.35311 0.0085,0.11607 0.0227,0.23158 0.03149,0.34763 0.01546,0.13189 0.03476,0.2633 0.05053,0.39517 0.01451,0.15039 0.03123,0.30076 0.01961,0.45211 -0.0049,0.1326 -0.01562,0.26496 -0.01674,0.39762 2.44e-4,0.12651 3.17e-4,0.25302 2.91e-4,0.37953 -7.15e-4,0.10896 -0.0016,0.21801 -0.01059,0.32668 -0.0089,0.0896 -0.02373,0.17846 -0.02973,0.26833 0,0 -0.314906,0.15486 -0.314906,0.15486 z"
       inkscape:connector-curvature="0"
       style="stroke-width:0.26458332" />
    <path
       id="path647"
       d="m 14.8711,293.31245 c -0.02796,0.15531 -0.05639,0.31053 -0.08357,0.46601 -0.03909,0.24464 -0.09174,0.48657 -0.143603,0.72871 0,0 -0.298946,0.14426 -0.298946,0.14426 v 0 c 0.05423,-0.24022 0.101543,-0.48181 0.139968,-0.7251 0.02468,-0.15273 0.05147,-0.30521 0.0732,-0.45834 0,0 0.312956,-0.15554 0.312956,-0.15554 z"
       inkscape:connector-curvature="0"
       style="stroke-width:0.26458332" />
  </g>
</svg>
