<?xml version="1.0" encoding="UTF-8" standalone="no"?>
<!-- Created with Inkscape (http://www.inkscape.org/) -->

<svg
   xmlns:dc="http://purl.org/dc/elements/1.1/"
   xmlns:cc="http://creativecommons.org/ns#"
   xmlns:rdf="http://www.w3.org/1999/02/22-rdf-syntax-ns#"
   xmlns:svg="http://www.w3.org/2000/svg"
   xmlns="http://www.w3.org/2000/svg"
   xmlns:sodipodi="http://sodipodi.sourceforge.net/DTD/sodipodi-0.dtd"
   xmlns:inkscape="http://www.inkscape.org/namespaces/inkscape"
   width="64"
   height="64"
   viewBox="0 0 16.933333 16.933334"
   version="1.1"
   id="svg8"
   inkscape:version="0.92.1 r15371"
   sodipodi:docname="1_cat_3.svg"
   inkscape:export-filename="/home/physt/undev/repos/deep_learning/workshop/tasks/commonlearningdata/cartooncats/1_cat_3.png"
   inkscape:export-xdpi="96.000008"
   inkscape:export-ydpi="96.000008">
  <defs
     id="defs2" />
  <sodipodi:namedview
     id="base"
     pagecolor="#ffffff"
     bordercolor="#666666"
     borderopacity="1.0"
     inkscape:pageopacity="0.0"
     inkscape:pageshadow="2"
     inkscape:zoom="11.2"
     inkscape:cx="50.237003"
     inkscape:cy="32.732721"
     inkscape:document-units="mm"
     inkscape:current-layer="layer1"
     showgrid="false"
     inkscape:window-width="1920"
     inkscape:window-height="1016"
     inkscape:window-x="0"
     inkscape:window-y="27"
     inkscape:window-maximized="1"
     units="px" />
  <metadata
     id="metadata5">
    <rdf:RDF>
      <cc:Work
         rdf:about="">
        <dc:format>image/svg+xml</dc:format>
        <dc:type
           rdf:resource="http://purl.org/dc/dcmitype/StillImage" />
        <dc:title></dc:title>
      </cc:Work>
    </rdf:RDF>
  </metadata>
  <g
     inkscape:label="Layer 1"
     inkscape:groupmode="layer"
     id="layer1"
     transform="translate(0,-280.06665)">
    <path
       id="path393"
       d="m 2.9876183,286.21943 c -0.028443,0.0857 -0.053884,0.17233 -0.078731,0.25909 -0.027772,0.0825 -0.053364,0.16508 -0.073583,0.24974 -0.018161,0.0814 -0.03509,0.16313 -0.046144,0.24585 -0.013698,0.0827 -0.02495,0.16571 -0.031065,0.24937 -0.00459,0.0815 -0.00491,0.16325 -0.00528,0.24491 0.00291,0.0926 0.018624,0.18437 0.034839,0.27547 0.012396,0.0909 0.033852,0.17971 0.058806,0.2679 0.026527,0.0807 0.061993,0.15782 0.095828,0.23556 0.029055,0.0728 0.074182,0.1359 0.1215898,0.19754 0.046695,0.0605 0.09915,0.11546 0.1563161,0.16593 0.069119,0.0685 0.1527939,0.11656 0.2389735,0.15991 0.1124193,0.0606 0.2355699,0.0923 0.3587311,0.12214 0.1192789,0.0279 0.24165,0.0366 0.3630194,0.0507 0.110816,0.014 0.2217936,0.0157 0.3330805,0.009 0.1112036,-0.003 0.2195423,-0.0266 0.3274785,-0.0512 0.092798,-0.0246 0.1843614,-0.0568 0.2703341,-0.0998 0.064766,-0.0291 0.1282001,-0.0593 0.189634,-0.0949 -0.4917104,0.27778 -0.302962,0.18555 -0.2062602,0.11115 0.031591,-0.0243 0.061104,-0.051 0.090613,-0.0778 0.061012,-0.0554 0.1137955,-0.119 0.1654781,-0.18293 0.063042,-0.0708 0.1173647,-0.1481 0.1706663,-0.22625 0.061532,-0.0909 0.1104236,-0.18884 0.1583526,-0.28729 0.058345,-0.11811 0.1089366,-0.23971 0.1581637,-0.36182 0.048626,-0.11277 0.087183,-0.22918 0.1227166,-0.3466 0.028629,-0.0941 0.051168,-0.18936 0.064018,-0.28687 0.012057,-0.0896 0.00865,-0.17924 3.68e-5,-0.26888 -0.0091,-0.071 -0.029332,-0.13955 -0.051551,-0.20735 -0.022452,-0.069 -0.055832,-0.1334 -0.094354,-0.19462 -0.046189,-0.0709 -0.092692,-0.14201 -0.1434544,-0.20972 -0.051996,-0.0693 -0.1125046,-0.13086 -0.1742919,-0.19131 -0.058907,-0.0606 -0.1227556,-0.11602 -0.1890342,-0.16831 -0.060831,-0.0493 -0.1264886,-0.092 -0.1928879,-0.13329 -0.058852,-0.0322 -0.1187124,-0.0626 -0.1793883,-0.0912 -0.06088,-0.0302 -0.1177917,-0.0674 -0.1748271,-0.10414 -0.050373,-0.0305 -0.1048967,-0.0532 -0.1602494,-0.0729 -0.052006,-0.0133 -0.1032828,-0.029 -0.1564614,-0.0373 -0.057318,-0.007 -0.1152144,-0.008 -0.1729007,-0.008 -0.05648,-4.3e-4 -0.1129617,-2e-5 -0.1694418,1.9e-4 -0.055476,-0.004 -0.1094401,0.009 -0.1640914,0.0163 -0.047993,0.009 -0.098077,0.016 -0.1448199,0.0308 -0.041498,0.0117 -0.083135,0.0205 -0.1245439,0.0322 -0.037433,0.009 -0.074034,0.0139 -0.1075735,0.0341 -0.1742279,0.1002 0.4180583,-0.25702 0.2129644,-0.11954 -0.1687988,0.10501 -0.6883138,0.3893 -0.079225,0.0462 8.731e-4,-4.8e-4 -0.010798,0.008 -0.037822,0.0273 -0.031104,0.0251 -0.065731,0.0451 -0.098481,0.0678 -0.033403,0.0178 -0.056807,0.0469 -0.081781,0.0742 -0.028124,0.0274 -0.053681,0.0571 -0.081882,0.0844 -0.033896,0.0327 -0.060943,0.0716 -0.088145,0.10982 -0.025792,0.0382 -0.048344,0.0785 -0.072812,0.11758 -0.026236,0.0412 -0.049065,0.0844 -0.071582,0.1277 -0.023368,0.0452 -0.041378,0.0929 -0.061781,0.13951 -0.015473,0.0401 -0.034921,0.0784 -0.054917,0.11635 -0.01352,0.0313 -0.026596,0.0629 -0.043099,0.0928 -0.01673,0.0267 -0.0295,0.0558 -0.046568,0.0822 -0.017674,0.0232 -0.021884,0.0514 -0.031109,0.0782 -0.00996,0.028 -0.02513,0.0532 -0.035774,0.081 -0.013825,0.0205 -0.023794,0.0416 -0.028556,0.0658 -0.00394,0.0222 -0.013901,0.0427 -0.021627,0.0638 -0.00359,0.0196 -0.00594,0.0379 -0.013523,0.0564 -0.01052,0.0206 -0.012851,0.0436 -0.015719,0.0661 -0.00885,0.0216 -0.015793,0.0433 -0.021238,0.0661 -0.00951,0.0203 -0.018008,0.0403 -0.022714,0.0622 -0.00343,0.0219 -0.00315,0.044 -0.00414,0.066 -0.00494,0.0169 -0.013435,0.0325 -0.018772,0.0495 -0.00949,0.014 -0.01705,0.0263 -0.026159,0.0401 -0.012565,0.0145 -0.027806,0.0265 -0.04184,0.0395 -0.017058,0.0161 -0.036266,0.0297 -0.053847,0.0454 -0.013499,0.0157 -0.030134,0.0291 -0.039866,0.0476 -0.00801,0.0186 -0.017908,0.0366 -0.028798,0.0536 -0.014859,0.0142 -0.022481,0.0337 -0.035589,0.0495 -0.0099,0.019 -0.022355,0.039 -0.039345,0.0524 -0.011215,0.0154 -0.023203,0.0309 -0.032608,0.0474 -0.0101,0.0167 -0.011687,0.0351 -0.01303,0.0541 -0.010018,0.0214 -0.016453,0.0435 -0.020527,0.0667 -0.00365,0.0293 -0.00538,0.0586 9.075e-4,0.0875 0.00887,0.0339 0.022364,0.0664 0.034147,0.0994 0.00968,0.0318 0.026785,0.0588 0.045392,0.0859 0.014373,0.0276 0.032504,0.0526 0.050948,0.0775 0.012341,0.0156 0.019554,0.0333 0.033925,0.0472 0.015302,0.012 0.024856,0.0285 0.039159,0.0412 0.012682,0.0144 0.029961,0.0227 0.043389,0.0353 0.011906,0.0138 0.023865,0.0208 0.035483,0.034 0.0089,0.0113 0.018354,0.022 0.028216,0.0325 0.00852,0.0152 0.020963,0.0251 0.029202,0.0408 0.00524,0.0107 0.013848,0.0205 0.02586,0.0266 0.01319,0.0156 0.026916,0.0293 0.039226,0.0457 0.00783,0.0145 0.01801,0.0301 0.029879,0.0415 0.012285,0.0104 0.020973,0.0225 0.034142,0.0322 0.011094,0.0111 0.017126,0.0245 0.023834,0.0341 0.010398,0.0127 0.016428,0.0268 0.020251,0.0426 4.233e-4,0.004 0.00713,0.0369 9.789e-4,0.023 0.00882,2e-4 0.011941,0.0142 0.021214,0.0186 0.0136,0.003 0.014258,0.0186 0.025263,0.0241 0.011194,0.0142 0.019449,0.0292 0.0235,0.0468 0.00271,0.0121 0.00271,0.0246 0.00305,0.0369 -1.336e-4,0.0123 -2.397e-4,0.0245 -2.91e-4,0.0368 -2.646e-4,0.0133 1.476e-4,0.0266 -8.36e-5,0.0399 -0.00164,0.009 0.00778,0.0189 0.013303,0.0297 0.00668,0.0127 0.017013,0.0222 0.023577,0.0349 0.00702,0.0144 0.00876,0.0301 0.010181,0.0458 0.00209,0.0283 -0.0091,0.0358 -0.02608,0.0539 -0.1026981,0.0805 -0.021834,0.0178 -0.3218659,0.18485 -0.014462,0.008 -0.031395,0.002 -0.046433,0.0108 -0.026281,0.0142 -0.058159,0.0147 -0.087474,0.0164 -0.031143,0.006 -0.058362,-0.009 -0.087647,-0.0169 -0.029087,-0.013 -0.056407,-0.0297 -0.085911,-0.0416 -0.032069,-0.0205 -0.057466,-0.0481 -0.079353,-0.0789 -0.023582,-0.0301 -0.036326,-0.066 -0.045315,-0.10266 -0.00638,-0.0322 -0.00646,-0.0652 -0.00648,-0.0979 -0.00277,-0.0503 0.00645,-0.0987 0.022182,-0.14612 0.022137,-0.0585 0.05251,-0.11348 0.080284,-0.16945 0.022059,-0.0464 0.0502,-0.0892 0.069544,-0.13682 0.016787,-0.0433 0.031929,-0.0872 0.04598,-0.13145 0.013734,-0.0412 0.031385,-0.081 0.046199,-0.1218 0.015421,-0.0412 0.032342,-0.0818 0.052904,-0.12068 0.02147,-0.0459 0.040154,-0.0929 0.0628,-0.13827 0.016777,-0.0326 0.036013,-0.0636 0.054557,-0.0952 0.078952,-0.10861 0.1538232,-0.0988 0.327175,-0.20099 0.097161,-0.0573 -0.194959,0.11346 -0.2929191,0.16935 -0.00638,0.004 0.011536,-0.009 0.017576,-0.0133 -0.03486,0.20668 0.2456059,-0.24524 0.3583874,-0.17397 0.021196,0.0119 0.029471,0.0291 0.034572,0.0521 -0.00629,0.0236 -0.017158,0.046 -0.028629,0.0675 -0.020725,0.0307 -0.042304,0.0608 -0.063794,0.0909 -0.035829,0.0427 -0.068266,0.0874 -0.095588,0.136 -0.030248,0.0523 -0.065185,0.1016 -0.095786,0.15366 -0.028525,0.0471 -0.04986,0.098 -0.071524,0.14847 -0.011213,0.0292 -0.02104,0.0595 -0.016116,0.0908 0.010327,0.0315 0.031693,0.0513 0.060824,0.0654 0.036698,0.0222 0.075401,0.0396 0.1139174,0.0581 0.045804,0.0172 0.092629,0.0307 0.1339053,0.0576 0.041439,0.0281 0.075124,0.0644 0.1092671,0.10059 0.032142,0.0325 0.054409,0.0735 0.073933,0.11445 0.011864,0.0306 0.023749,0.0614 0.034327,0.0926 0.00684,0.0223 0.010178,0.0453 0.012113,0.0685 6.35e-4,0.0139 1.368e-4,0.003 -9e-5,9.7e-4 0,0 -0.2995297,0.18771 -0.2995297,0.18771 v 0 c -0.00644,-0.008 -0.015669,-0.016 -0.01411,-0.0269 -2.27e-4,-0.0205 -0.00175,-0.0409 -0.00685,-0.0609 -0.00907,-0.0303 -0.02173,-0.0592 -0.031341,-0.0892 -0.017209,-0.0381 -0.037902,-0.0755 -0.067867,-0.10519 -0.031537,-0.0343 -0.064261,-0.0673 -0.1039122,-0.0924 -0.042013,-0.0229 -0.088617,-0.0345 -0.1320514,-0.0543 -0.039883,-0.0178 -0.07774,-0.0391 -0.1158821,-0.0604 -0.035285,-0.0227 -0.062054,-0.0509 -0.076745,-0.0909 -0.00972,-0.0415 -0.00548,-0.0689 0.00804,-0.10957 0.019977,-0.0525 0.044187,-0.10392 0.071202,-0.15306 0.028084,-0.0535 0.062566,-0.1029 0.095311,-0.15352 0.027177,-0.049 0.053895,-0.0982 0.092307,-0.13973 0.022685,-0.0286 0.040818,-0.0601 0.064226,-0.088 0.013734,-0.0181 0.021378,-0.0374 0.031603,-0.0569 0.013489,0.008 0.00196,-0.006 -0.00651,-0.004 -0.00982,0.008 -0.024148,0.007 -0.03277,0.0172 0.098023,-0.0567 0.196047,-0.11345 0.2940704,-0.17018 -0.2030185,0.10621 -0.6372815,0.37858 -0.036695,0.0218 0.00677,-0.004 -0.030975,0.01 -0.020667,0.0114 -0.026051,0.0248 -0.039847,0.0608 -0.057805,0.0915 -0.028236,0.0417 -0.044486,0.0903 -0.063658,0.13667 -0.019161,0.0384 -0.038288,0.076 -0.05501,0.11553 -0.012192,0.0415 -0.029156,0.0815 -0.046883,0.12091 -0.012187,0.0453 -0.028196,0.0896 -0.044867,0.1333 -0.016206,0.0507 -0.043072,0.0948 -0.069325,0.14077 -0.026411,0.0558 -0.057263,0.10958 -0.081244,0.1665 -0.018547,0.0426 -0.028905,0.0871 -0.026058,0.13375 1.586e-4,0.0304 -3.36e-4,0.0609 0.00345,0.0912 0.00606,0.0329 0.016366,0.0643 0.038097,0.0905 0.018161,0.0259 0.040776,0.0489 0.069516,0.0629 0.02727,0.0134 0.054415,0.0279 0.083506,0.037 0.026555,0.008 0.051723,0.0119 0.079521,0.006 0.028952,-0.004 0.056237,-0.0116 0.083225,-0.0229 0.01265,-0.002 0.023296,-0.004 0.035,-0.009 0.00323,-0.001 0.012589,-0.006 0.00953,-0.005 -0.2814794,0.16358 -0.3917405,0.22009 -0.2820138,0.16366 0.00327,-10e-4 0.00654,-0.003 0.00981,-0.004 0.00198,-0.003 0.00295,-0.007 0.00597,-0.008 0.00254,-10e-4 0.00587,10e-4 0.0086,5.8e-4 0.00612,-0.002 0.00626,-0.013 0.015176,-0.01 5.66e-5,-0.0111 5.556e-4,-0.0226 -0.00303,-0.0333 -0.00501,-0.0129 -0.019682,-0.021 -0.023588,-0.0347 -0.00688,-0.0146 -0.020426,-0.0276 -0.020936,-0.044 -2.317e-4,-0.0133 1.974e-4,-0.0266 -1.5e-5,-0.0399 7.6e-6,-0.0122 5.66e-5,-0.0244 3.91e-5,-0.0366 3.44e-4,-0.0106 6.086e-4,-0.0211 2.38e-5,-0.0317 -7.408e-4,-0.009 -0.00269,-0.0179 -0.010419,-0.0241 -0.011999,-0.0113 -0.012266,-0.0172 -0.024492,-0.023 -0.011573,-0.0102 -0.017489,-0.0196 -0.028207,-0.0295 -0.00766,-0.0131 -0.00807,-0.0208 -0.00769,-0.0353 -0.0013,-0.0113 -0.00397,-0.0196 -0.01193,-0.0284 -0.00769,-0.009 -0.010946,-0.0195 -0.01951,-0.0269 -0.013104,-0.0117 -0.024324,-0.025 -0.036875,-0.0373 -0.011324,-0.0139 -0.023874,-0.0279 -0.031636,-0.0441 -0.00949,-0.0131 -0.020951,-0.0248 -0.032907,-0.0356 -0.013771,-0.0111 -0.027676,-0.0258 -0.035291,-0.0419 -0.00589,-0.0125 -0.018927,-0.0197 -0.024539,-0.0325 -0.00931,-0.0107 -0.018817,-0.0212 -0.027759,-0.0322 -0.010431,-0.0103 -0.022551,-0.0192 -0.032575,-0.0301 -0.01658,-0.0106 -0.030649,-0.0245 -0.045118,-0.0378 -0.0136,-0.0141 -0.025313,-0.0298 -0.04033,-0.0426 -0.013685,-0.0159 -0.023177,-0.0338 -0.034938,-0.051 -0.019039,-0.025 -0.035855,-0.0515 -0.051291,-0.0789 -0.02041,-0.0293 -0.038554,-0.0592 -0.049214,-0.0936 -0.013323,-0.0339 -0.025844,-0.0685 -0.036717,-0.10314 -0.00824,-0.0328 -0.010857,-0.0645 -0.0072,-0.0983 0.00193,-0.0251 0.00536,-0.0512 0.016205,-0.0742 0.015047,-0.0103 0.00124,-0.0409 0.012295,-0.0563 0.00761,-0.0204 0.018841,-0.036 0.029372,-0.0549 0.00668,-0.0131 0.014042,-0.0125 0.022312,-0.0228 0.00668,-0.008 0.0083,-0.0184 0.019733,-0.0234 0.00671,-0.0215 0.02564,-0.0355 0.031831,-0.0576 0.00461,-0.004 0.011017,-0.006 0.014154,-0.0106 0.00635,-0.0101 0.00788,-0.0242 0.019239,-0.0321 0.00743,-0.0235 0.016631,-0.0424 0.035171,-0.0595 0.00512,-0.007 0.00889,-0.0143 0.015301,-0.0196 0.00292,-0.002 0.0073,-0.002 0.01032,-0.005 0.010105,-0.008 0.012565,-0.022 0.027354,-0.023 0.01351,-0.0131 0.026695,-0.0268 0.042006,-0.0378 0.00409,-0.003 0.010367,-0.003 0.01292,-0.007 0.00179,-0.003 1.591e-4,-0.007 0.0014,-0.0103 0.00237,-0.006 0.011971,-0.01 0.01478,-0.0158 0.013661,-0.01 0.010156,-0.0304 0.022848,-0.0411 0.013568,-0.0131 0.00142,-0.0437 0.00689,-0.0612 0.00187,-0.0241 0.0055,-0.0495 0.018928,-0.07 0.013028,-0.0191 0.00711,-0.0453 0.022418,-0.0636 0.012851,-0.0192 0.00398,-0.0477 0.014055,-0.0691 0.0028,-0.006 0.0043,-0.0134 0.00835,-0.019 0.0013,-0.002 0.00462,-0.002 0.00547,-0.004 0.0032,-0.008 -0.00207,-0.0202 0.00235,-0.0279 0.00277,-0.022 0.010565,-0.0435 0.022621,-0.0621 0.00407,-0.0273 0.007,-0.0544 0.023508,-0.0776 0.011218,-0.0122 0.012191,-0.0242 0.018603,-0.0393 0.021997,-0.0515 -0.00745,0.0201 0.014973,-0.0227 0.00233,-0.004 0.00296,-0.01 0.00444,-0.0143 0.012901,-0.0273 0.014851,-0.0567 0.029138,-0.0833 0.015296,-0.0275 0.034072,-0.053 0.04628,-0.0825 0.018857,-0.0278 0.034719,-0.0582 0.045261,-0.0899 0.017254,-0.0392 0.041747,-0.0749 0.056578,-0.1153 0.019653,-0.0477 0.040794,-0.0948 0.060516,-0.14242 0.023836,-0.0431 0.04479,-0.0877 0.06987,-0.13012 0.026001,-0.0387 0.049624,-0.0783 0.072266,-0.11906 0.028024,-0.0391 0.055078,-0.0786 0.085567,-0.11583 0.028518,-0.027 0.054684,-0.0547 0.081726,-0.0829 0.027404,-0.0267 0.048204,-0.0585 0.078689,-0.0823 0.034825,-0.019 0.066743,-0.0442 0.1002228,-0.0653 0.1100784,-0.0847 0.2366791,-0.14584 0.3557982,-0.21607 0.00699,-0.004 0.028377,-0.0157 0.021365,-0.0117 -0.0933,0.0544 -0.1866667,0.10861 -0.2802369,0.1625 -0.00618,0.004 0.012025,-0.008 0.018037,-0.0115 0.016018,-0.008 0.029634,-0.0184 0.045124,-0.0274 0.1067498,-0.062 0.2255046,-0.14108 0.3443927,-0.19756 0.036283,-0.0123 0.074018,-0.0183 0.1107025,-0.0294 0.041231,-0.0114 0.083509,-0.0189 0.124492,-0.0314 0.048828,-0.0102 0.097428,-0.0221 0.1471104,-0.0273 0.055412,-0.008 0.1106803,-0.0156 0.166873,-0.0125 0.056517,-1e-5 0.1130358,-5e-5 0.1695516,4.2e-4 0.058872,10e-4 0.118065,0.003 0.1762308,0.0126 0.054045,0.0109 0.1075039,0.0254 0.1598914,0.0425 0.056598,0.0221 0.1126363,0.0463 0.1637892,0.0795 0.056114,0.0359 0.1119871,0.0724 0.1724854,0.10066 0.060991,0.0302 0.1225309,0.0595 0.1808196,0.0948 0.067122,0.0422 0.1325499,0.0872 0.1943262,0.13703 0.066772,0.0536 0.1309163,0.11048 0.1911855,0.17136 0.062274,0.0622 0.123394,0.12553 0.1763218,0.19609 0.051293,0.0685 0.098697,0.14002 0.1456491,0.21154 0.040594,0.0634 0.075027,0.13048 0.099457,0.20187 0.022421,0.0704 0.044492,0.14109 0.054113,0.21466 0.0082,0.092 0.013703,0.18376 0.00241,0.27587 -0.010787,0.0998 -0.033843,0.19693 -0.06272,0.29304 -0.036431,0.1183 -0.073631,0.23645 -0.123281,0.35006 -0.048706,0.1226 -0.098962,0.24461 -0.1561148,0.36357 -0.047896,0.0991 -0.094321,0.19845 -0.1542642,0.29109 -0.053771,0.0781 -0.1046827,0.15845 -0.169154,0.22848 -0.051593,0.0645 -0.1027602,0.13017 -0.1625983,0.18736 -0.1440545,0.13466 -0.2873079,0.23121 -0.4769795,0.31731 -0.061791,0.0342 -0.1267224,0.0617 -0.1904362,0.0921 -0.088115,0.0386 -0.1792703,0.0711 -0.2731918,0.0925 -0.1088927,0.0242 -0.218906,0.0431 -0.3307213,0.0463 -0.1124944,0.005 -0.2247997,-5e-5 -0.3366082,-0.014 -0.1216969,-0.0148 -0.2443892,-0.0248 -0.3635319,-0.0554 -0.125553,-0.0308 -0.2502239,-0.066 -0.364808,-0.12756 -0.088775,-0.0453 -0.1742951,-0.0961 -0.2465689,-0.16567 -0.058333,-0.0523 -0.1115468,-0.1095 -0.1591128,-0.17192 -0.049004,-0.064 -0.096661,-0.12898 -0.1261855,-0.20479 -0.033924,-0.0793 -0.06967,-0.15796 -0.097139,-0.2399 -0.025952,-0.0891 -0.047847,-0.17896 -0.060067,-0.27111 -0.017392,-0.0928 -0.03271,-0.18643 -0.038354,-0.28078 -6.77e-5,-0.0822 -6.959e-4,-0.16449 0.00371,-0.24661 0.00499,-0.0845 0.015761,-0.1682 0.030805,-0.25147 0.00965,-0.0839 0.025786,-0.16671 0.044078,-0.24914 0.020435,-0.0852 0.042163,-0.16949 0.073909,-0.25136 0.023566,-0.0861 0.050775,-0.17118 0.074426,-0.25725 0,0 0.316897,-0.15051 0.3168969,-0.15051 z"
       inkscape:connector-curvature="0"
       style="stroke-width:0.26458332" />
    <path
       id="path395"
       d="m 3.7470423,285.80862 c 0.033212,-0.0745 0.079462,-0.14174 0.1255194,-0.20865 0.042458,-0.0633 0.082122,-0.12836 0.1279335,-0.18934 0.048666,-0.067 0.1023054,-0.13002 0.1537666,-0.19479 0.049766,-0.0647 0.097602,-0.13085 0.1466058,-0.19612 0.045609,-0.0594 0.092475,-0.11781 0.1386661,-0.17675 0.039499,-0.0536 0.082088,-0.10474 0.1209788,-0.15877 0.036225,-0.0509 0.069202,-0.10393 0.1059876,-0.15438 0.03064,-0.04 0.06335,-0.0785 0.096238,-0.11671 0.024564,-0.0311 0.049178,-0.0622 0.07533,-0.092 0.019968,-0.0179 0.033879,-0.0455 0.059153,-0.0564 0.091673,-0.0839 0.2675708,-0.158 0.328852,-0.19226 0.00314,-0.002 0.00697,-0.003 0.010523,-0.002 0.00856,0.001 0.015732,0.007 0.023638,0.0107 0.022617,0.01 0.036263,0.0346 0.05151,0.0534 0.023336,0.0387 0.042466,0.0798 0.062011,0.12055 0.040082,0.0724 0.064871,0.15078 0.086352,0.23028 0.023458,0.0879 0.048235,0.17534 0.070518,0.26349 0.024789,0.0947 0.058166,0.18683 0.089262,0.27956 0.03373,0.10004 0.068595,0.19952 0.1061831,0.29818 0.032969,0.0836 0.063315,0.16802 0.081086,0.25627 0.015835,0.076 0.031066,0.152 0.046583,0.22802 0.017463,0.0592 0.02966,0.11928 0.036928,0.18048 0.00396,0.0432 0.015028,0.0853 0.022439,0.12799 0.00539,0.0322 0.00701,0.0649 0.00768,0.0975 3.968e-4,0.0317 -0.013637,0.0596 -0.026583,0.0876 -0.011954,0.0225 -0.015735,0.0475 -0.019854,0.0723 -0.010102,0.0221 -0.016245,0.045 -0.021701,0.0686 -0.00731,0.0191 -0.017089,0.0372 -0.02195,0.0572 -0.00369,0.0164 -0.004,0.0332 -0.00399,0.0499 0.0131,0.12531 -0.3128819,0.2869 -0.3143943,0.14966 -1.299e-4,-0.0133 6.96e-5,-0.0266 5.29e-5,-0.0399 -5.556e-4,-0.0269 3.969e-4,-0.0534 0.00584,-0.0799 0.011173,-0.0445 0.01506,-0.0903 0.017423,-0.136 0.0022,-0.0702 -0.00867,-0.14014 -0.01347,-0.21015 -0.00193,-0.0916 -0.012742,-0.18252 -0.020288,-0.27373 -0.011377,-0.0983 -0.027721,-0.19597 -0.044537,-0.29345 -0.017558,-0.0965 -0.03815,-0.19226 -0.05013,-0.28969 -0.0045,-0.0831 -0.015936,-0.16543 -0.024355,-0.24813 -0.0063,-0.0741 -0.00697,-0.14827 -0.015727,-0.22213 -0.00653,-0.0625 -0.015536,-0.12446 -0.02635,-0.18633 -0.012946,-0.0547 -0.027856,-0.10883 -0.043239,-0.16284 -0.015671,-0.0396 -0.025366,-0.0813 -0.042808,-0.12015 -0.00905,-0.0275 -0.02195,-0.0522 -0.039628,-0.0751 -0.00922,-0.008 -0.030164,-0.0464 -0.043219,-0.0335 -0.019971,0.0127 0.00728,-0.006 -0.012607,0.0145 -0.00625,0.007 -0.03226,0.0161 -0.024463,0.0116 0.3574838,-0.20813 0.3791259,-0.22218 0.2740408,-0.15554 -0.050606,0.0344 -0.09295,0.0785 -0.1364662,0.12122 -0.079788,0.0766 -0.1495946,0.16278 -0.2235872,0.24488 -0.089099,0.0986 -0.1837497,0.19185 -0.2751299,0.28825 -0.089103,0.0973 -0.1759347,0.19674 -0.2635769,0.29539 -0.075066,0.0821 -0.1465368,0.16742 -0.2204675,0.25055 -0.051951,0.0529 -0.093878,0.11406 -0.1420063,0.17018 -0.0292,0.0339 -0.057372,0.0685 -0.084675,0.10385 -0.017939,0.0256 -0.041936,0.0463 -0.060392,0.0713 -0.013642,0.0173 -0.023789,0.0414 -0.043142,0.0529 -0.010589,0.0136 -0.023686,0.0243 -0.034393,0.0382 -0.011224,0.005 -0.00542,0.0188 -0.012147,0.0272 -0.00143,0.002 -0.00378,0.003 -0.00568,0.004 -0.00143,0.002 -0.00284,0.004 -0.00426,0.005 -0.00108,0.002 -0.00214,0.003 -0.00322,0.005 0,0 -0.3219432,0.14534 -0.3219432,0.14534 v 0 c 8.996e-4,-0.002 0.00183,-0.004 0.00273,-0.007 0.00233,-0.006 0.00259,-0.0123 0.00636,-0.0171 0.00763,-0.01 0.016743,0.006 0.014306,-0.022 0.00571,-0.009 0.012068,-0.0243 0.019958,-0.0313 0.00217,-0.002 0.00604,-9.8e-4 0.00823,-0.003 0.00246,-0.002 0.00324,-0.006 0.00486,-0.009 0.00764,-0.0136 0.013285,-0.01 0.023479,-0.0191 0.00883,-0.008 0.00962,-0.0237 0.022701,-0.0282 0.015547,-0.0288 0.03718,-0.0511 0.059468,-0.075 0.028724,-0.0356 0.056343,-0.0719 0.086124,-0.10661 0.050604,-0.0554 0.092638,-0.11728 0.1444794,-0.17157 0.07553,-0.0827 0.1475073,-0.16857 0.2228794,-0.25143 0.088614,-0.0984 0.1755069,-0.19832 0.2643204,-0.29652 0.089774,-0.0974 0.185326,-0.18922 0.2743488,-0.28731 0.07376,-0.0813 0.1423114,-0.16752 0.2199002,-0.24494 0.040713,-0.0427 0.082516,-0.0899 0.1308614,-0.12352 0.09966,-0.0972 0.008,-0.01 0.3276089,-0.19393 0.017595,-0.0101 0.030557,-0.017 0.051028,-0.009 0.022601,0.0144 0.040226,0.0342 0.056265,0.0556 0.018674,0.0254 0.034364,0.0519 0.043268,0.0824 0.017579,0.0409 0.027679,0.084 0.043955,0.12542 0.014446,0.0555 0.031025,0.11035 0.044279,0.16615 0.010374,0.0626 0.021344,0.12481 0.026345,0.18814 0.00952,0.0742 0.01038,0.14859 0.015563,0.22319 0.00783,0.0827 0.019701,0.16498 0.023241,0.24806 0.010464,0.0972 0.029877,0.19254 0.048006,0.28849 0.017605,0.0983 0.034011,0.19688 0.046771,0.29592 0.00725,0.0912 0.019307,0.18203 0.021362,0.27361 0.00503,0.0709 0.016428,0.14148 0.017375,0.2125 -0.00148,0.0472 -0.00315,0.0945 -0.013311,0.14078 -0.00568,0.0243 -0.01048,0.047 -0.00758,0.0722 0,0.0133 2.434e-4,0.0266 6.32e-5,0.04 -0.00225,0.12768 -0.327243,0.31135 -0.3148436,0.17064 1.76e-4,-0.0185 -6.35e-4,-0.0371 0.00138,-0.0555 0.00292,-0.022 0.00751,-0.0444 0.019555,-0.0634 0.013055,-0.0204 0.00724,-0.0476 0.022061,-0.0675 0.014475,-0.0211 0.00593,-0.0527 0.019034,-0.0756 0.011218,-0.0248 0.024572,-0.0478 0.033403,-0.0735 -3.175e-4,-0.0312 -6.879e-4,-0.0625 -0.00477,-0.0935 -0.00613,-0.0437 -0.0186,-0.0863 -0.021857,-0.13024 -0.00577,-0.0606 -0.016843,-0.12004 -0.034523,-0.17835 -0.014266,-0.0764 -0.030172,-0.15249 -0.045375,-0.2287 -0.016243,-0.0867 -0.04554,-0.16962 -0.077414,-0.25176 -0.036321,-0.0995 -0.072358,-0.19895 -0.1061272,-0.29932 -0.032376,-0.0932 -0.0655,-0.18637 -0.09166,-0.28152 -0.021979,-0.088 -0.047099,-0.17526 -0.070271,-0.26299 -0.020622,-0.0774 -0.044732,-0.15357 -0.085623,-0.223 -0.018928,-0.0379 -0.037725,-0.0762 -0.060025,-0.11211 -0.011673,-0.0138 -0.020463,-0.032 -0.03981,-0.0339 -0.00864,5.8e-4 -0.038704,0.0207 -0.020243,0.01 0.4992563,-0.28998 0.3784936,-0.21639 0.2740988,-0.15915 -0.00929,0.0132 -0.015851,0.01 -0.028286,0.0184 -0.012949,0.009 -0.021206,0.0247 -0.033634,0.0343 -0.027095,0.0289 -0.053235,0.0587 -0.076969,0.0905 -0.030589,0.0404 -0.066313,0.0765 -0.097934,0.11626 -0.038599,0.0491 -0.070935,0.10233 -0.1071134,0.15319 -0.036934,0.0559 -0.080234,0.10679 -0.1204338,0.16027 -0.044538,0.0605 -0.094362,0.11706 -0.13941,0.17716 -0.050185,0.0646 -0.09771,0.13133 -0.1466779,0.1969 -0.051406,0.0647 -0.1052229,0.12738 -0.1537097,0.19429 -0.047594,0.0595 -0.087703,0.12397 -0.1289566,0.18795 -0.045658,0.0642 -0.09231,0.12872 -0.1252032,0.20064 0,0 -0.318629,0.14642 -0.318629,0.14642 z"
       inkscape:connector-curvature="0"
       style="stroke-width:0.26458332" />
    <path
       id="path397"
       d="m 3.9489729,286.27068 c -0.04948,0.0407 -0.098941,0.0816 -0.144793,0.12639 -0.04257,0.041 -0.068566,0.0934 -0.093468,0.14602 -0.026228,0.0523 -0.04288,0.10787 -0.052181,0.16546 -0.0064,0.0478 -0.00652,0.0962 -0.00672,0.14431 0.00312,0.0363 0.012054,0.0717 0.024061,0.10603 0.00855,0.0234 0.014354,0.0465 0.030745,0.0657 0.015552,0.0198 0.040724,0.0168 0.06145,0.0266 0.027069,0.011 0.056081,0.0155 0.085073,0.0173 0.02096,-0.0114 0.045813,-0.009 0.068,-0.0155 0.012078,-0.003 0.023125,-0.01 0.034912,-0.014 0.034037,-0.0207 0.070956,-0.0352 0.1055282,-0.0548 0.1235927,-0.0713 -0.1634553,0.0944 -0.2645037,0.15215 -0.00617,0.004 0.012012,-0.008 0.018068,-0.0113 0.01732,-0.0107 0.033702,-0.0222 0.050507,-0.0337 0.031104,-0.0208 0.054035,-0.0498 0.073706,-0.0811 0.018801,-0.026 0.030756,-0.0557 0.04385,-0.0847 0.013052,-0.0307 0.015862,-0.0637 0.017301,-0.0966 4.763e-4,-0.0337 0.00262,-0.0677 -5.821e-4,-0.10134 -0.00428,-0.0348 -0.020262,-0.0646 -0.036394,-0.0949 -0.019987,-0.0339 -0.04564,-0.0612 -0.075073,-0.087 -0.038885,-0.0299 -0.08189,-0.041 -0.1303536,-0.0404 -0.074282,0.0294 -0.035419,0.0138 -0.1165453,0.0468 0,0 0.2693705,-0.21138 0.2693705,-0.21138 v 0 c 0.086903,-0.0322 0.043308,-0.0195 0.1305962,-0.0388 0.053953,0.007 0.1036606,0.0222 0.1450991,0.0589 0.031429,0.0291 0.059734,0.06 0.081492,0.0973 0.01814,0.0336 0.036385,0.0668 0.042185,0.10522 0.0072,0.0354 0.00372,0.0714 0.00386,0.10738 -0.00135,0.0357 -8.732e-4,0.0723 -0.012364,0.10657 -0.00516,0.0168 -0.013311,0.0295 -0.020003,0.0452 -0.00672,0.0158 -0.00765,0.0337 -0.020865,0.0465 -0.021532,0.0326 -0.039155,0.0673 -0.069034,0.0936 -0.1260203,0.0929 -0.2653456,0.16702 -0.4036388,0.24115 -0.036141,0.0176 -0.071384,0.0375 -0.1094005,0.0508 -0.035915,0.0111 -0.075193,0.0196 -0.1127601,0.0177 -0.030797,-0.005 -0.060938,-0.0127 -0.089935,-0.0243 -0.028169,-0.007 -0.053283,-0.0186 -0.07155,-0.0421 -0.018584,-0.023 -0.027776,-0.0487 -0.036035,-0.0768 -0.013721,-0.0381 -0.023529,-0.0768 -0.028911,-0.1171 1.3e-5,-0.0497 -1.431e-4,-0.0995 0.00495,-0.14894 0.00773,-0.0604 0.021958,-0.11936 0.048436,-0.17453 0.023733,-0.0551 0.048343,-0.11163 0.088856,-0.1567 0.04232,-0.0484 0.093681,-0.0876 0.1419738,-0.12975 0,0 0.3250843,-0.13121 0.3250843,-0.13121 z"
       inkscape:connector-curvature="0"
       style="stroke-width:0.26458332" />
    <path
       id="path399"
       d="m 3.4481738,287.83509 c 0.086794,0.0267 0.1774642,0.002 0.2612982,-0.0239 0.1578306,-0.0495 0.3061611,-0.12454 0.4545296,-0.19668 0.1192085,-0.0585 0.2379408,-0.11801 0.356511,-0.17781 0,0 -0.2643495,0.2115 -0.2643495,0.2115 v 0 c -0.1186616,0.0591 -0.2370995,0.11869 -0.3561749,0.17698 -0.1507924,0.073 -0.3018084,0.14829 -0.4630216,0.19581 -0.091856,0.024 -0.1851623,0.0416 -0.2782433,0.0124 0,0 0.2894505,-0.19823 0.2894505,-0.19823 z"
       inkscape:connector-curvature="0"
       style="stroke-width:0.26458332" />
    <path
       id="path401"
       d="m 4.2026927,288.26983 c 0.1220102,-0.005 0.2437466,-0.0141 0.3654806,-0.0233 0,0 -0.2733471,0.20164 -0.2733471,0.20164 v 0 c -0.1244645,0.009 -0.24905,0.0176 -0.3730655,0.0311 0,0 0.280932,-0.20949 0.280932,-0.20949 z"
       inkscape:connector-curvature="0"
       style="stroke-width:0.26458332" />
    <path
       id="path403"
       d="m 4.0459736,288.92687 c 0.1529239,0.17755 0.2897333,0.36794 0.4335275,0.55276 0,0 -0.2826901,0.16828 -0.2826901,0.16828 v 0 c -0.1422831,-0.18599 -0.2838463,-0.37414 -0.4490604,-0.54069 0,0 0.298223,-0.18035 0.298223,-0.18035 z"
       inkscape:connector-curvature="0"
       style="stroke-width:0.26458332" />
    <path
       id="path405"
       d="m 5.6831459,288.24686 c 0.057086,0.0455 0.1173602,0.0863 0.1808065,0.12236 0.056546,0.0302 0.1156948,0.0537 0.1767173,0.073 0.05535,0.0237 0.1141759,0.0368 0.172629,0.0501 0.066594,0.0146 0.1348631,0.0167 0.202747,0.0184 0.092612,0.006 0.1845765,-0.003 0.2767883,-0.0102 0.1038452,-0.0154 0.2065914,-0.0379 0.3098564,-0.057 0.1032177,-0.0251 0.2079324,-0.0427 0.311956,-0.0637 0.099954,-0.0203 0.1999869,-0.0399 0.3005854,-0.0568 0.1155181,-0.0134 0.2308905,-0.0279 0.3468272,-0.0375 0.1145662,-0.007 0.2286159,-0.022 0.3415408,-0.0423 0.1231295,-0.0196 0.2463065,-0.0391 0.3696687,-0.0572 0.1367796,-0.0256 0.2737184,-0.05 0.4112218,-0.0714 0.1340842,-0.0213 0.2693628,-0.032 0.404134,-0.0473 0.124634,-0.0163 0.250162,-0.0221 0.375701,-0.0251 0.1385267,-0.002 0.2770797,-0.002 0.4156197,-0.002 0.161588,5.3e-4 0.323176,8.5e-4 0.484765,7.4e-4 0.175677,0.007 0.351173,0.0158 0.526566,0.0276 0.196174,0.006 0.389846,0.037 0.582311,0.0733 0.204784,0.0405 0.408947,0.0833 0.60845,0.14506 0.1957,0.0574 0.382477,0.13897 0.564798,0.22947 0.165822,0.0822 0.320155,0.1837 0.459263,0.30551 0.123631,0.10908 0.231209,0.23519 0.334434,0.36336 0.103906,0.12366 0.180991,0.263 0.243198,0.41122 0.06315,0.15934 0.118754,0.32129 0.166475,0.48586 0.03788,0.12298 0.07024,0.24776 0.09428,0.37418 0.01752,0.0968 0.02155,0.1947 0.01563,0.29267 -0.0045,0.0991 -0.02361,0.19603 -0.04835,0.29178 -0.0227,0.0862 -0.05754,0.16871 -0.09433,0.24971 -0.03674,0.0833 -0.08737,0.15856 -0.137386,0.23418 -0.05148,0.0869 -0.115746,0.16458 -0.180279,0.24181 -0.06468,0.0766 -0.137364,0.14594 -0.210755,0.21409 -0.07198,0.07 -0.150696,0.13217 -0.231827,0.19109 -0.17771,0.1212 -0.363851,0.2316 -0.557706,0.32495 -0.105132,0.0456 -0.213554,0.0839 -0.324556,0.11245 -0.104889,0.0309 -0.214237,0.0421 -0.322506,0.0544 -0.161966,0.0155 -0.324847,0.0159 -0.487396,0.0168 -0.205479,0.009 -0.411259,0.0128 -0.616646,0.024 -0.181053,0.0138 -0.362061,0.0201 -0.543305,0.008 -0.160492,-0.0103 -0.319485,-0.0344 -0.476881,-0.0667 -0.1614207,-0.0284 -0.3207117,-0.067 -0.4791837,-0.10853 -0.16563,-0.0451 -0.3288484,-0.1 -0.4900701,-0.15893 -0.1627727,-0.0586 -0.3216148,-0.12728 -0.4792959,-0.1983 -0.1618935,-0.0704 -0.3238963,-0.14046 -0.4864322,-0.20935 -0.167418,-0.073 -0.3352355,-0.14434 -0.5006845,-0.22174 -0.1416619,-0.0614 -0.282112,-0.12556 -0.4236842,-0.18718 -0.1293469,-0.0549 -0.2605902,-0.10506 -0.3918611,-0.1551 -0.1276887,-0.0394 -0.2553256,-0.0786 -0.3816263,-0.12232 -0.1192035,-0.048 -0.2429566,-0.0834 -0.3627239,-0.1296 -0.115098,-0.0463 -0.2277917,-0.0982 -0.3411852,-0.14842 -0.1073976,-0.0463 -0.2135942,-0.0949 -0.3159303,-0.1515 -0.1088871,-0.0551 -0.2086612,-0.12539 -0.3097045,-0.19326 -0.097876,-0.0718 -0.1943894,-0.14528 -0.2849097,-0.2262 -0.086317,-0.0756 -0.1541068,-0.16749 -0.2108102,-0.26655 -0.058447,-0.1 -0.093386,-0.20996 -0.1226161,-0.32127 -0.026138,-0.11323 -0.030497,-0.22922 -0.026173,-0.34485 0.00472,-0.10902 0.03034,-0.21346 0.065841,-0.31601 0.028304,-0.0816 0.079931,-0.15073 0.1304611,-0.21958 0,0 0.3151777,-0.13575 0.3151777,-0.13575 v 0 c -0.050593,0.0655 -0.1028814,0.131 -0.1329841,0.20908 -0.035402,0.0998 -0.065314,0.20055 -0.070744,0.30718 -0.00584,0.11247 -0.00307,0.22515 0.02195,0.33556 0.027148,0.10877 0.059982,0.21623 0.1176277,0.31332 0.055438,0.0956 0.1207428,0.18464 0.2049584,0.25722 0.089468,0.0797 0.1847135,0.1522 0.2815055,0.22276 0.100434,0.0675 0.2008817,0.13525 0.3089781,0.19011 0.1017685,0.0556 0.2077884,0.10258 0.3138582,0.14935 0.1127546,0.0501 0.2247107,0.10211 0.3396933,0.14706 0.1201621,0.0442 0.2423718,0.0827 0.3618299,0.12899 0.1266494,0.0433 0.2547852,0.0818 0.3819374,0.12351 0.1314066,0.0504 0.2626577,0.10129 0.3919339,0.157 0.1412123,0.0621 0.2817013,0.12596 0.4224647,0.18909 0.1645433,0.0778 0.3318719,0.14873 0.4987044,0.22139 0.1632688,0.0683 0.3260735,0.13777 0.4880017,0.20921 0.1573974,0.07 0.315419,0.13873 0.4779142,0.19621 0.1610111,0.0575 0.3231511,0.11309 0.4887141,0.15604 0.1582427,0.0409 0.3174647,0.0777 0.4783507,0.10674 0.156535,0.0304 0.31452,0.0533 0.473801,0.0631 0.179856,0.01 0.359362,0.003 0.538978,-0.009 0.20568,-0.01 0.411592,-0.0142 0.61732,-0.0228 0.163686,-0.003 0.327794,-0.005 0.490596,-0.0238 0.10782,-0.0139 0.216161,-0.0273 0.320546,-0.059 0.109626,-0.0305 0.217377,-0.0692 0.320289,-0.11788 0.108114,-0.0555 0.316517,-0.17831 -0.159081,0.0966 -0.01436,0.008 0.02871,-0.0166 0.04289,-0.0252 0.01407,-0.009 0.02803,-0.0172 0.04184,-0.0262 0.01381,-0.009 0.02734,-0.0183 0.04101,-0.0275 0.08121,-0.058 0.161736,-0.11722 0.233385,-0.18712 0.07301,-0.0677 0.1468,-0.13485 0.212168,-0.2101 0.06477,-0.0761 0.131187,-0.15157 0.182025,-0.23801 0.04861,-0.0749 0.1014,-0.14729 0.138072,-0.22925 0.03874,-0.0786 0.07287,-0.16037 0.0981,-0.2443 0.02465,-0.094 0.04791,-0.18812 0.05114,-0.28591 0.0071,-0.0955 0.0052,-0.19082 -0.0108,-0.28557 -0.02179,-0.12612 -0.05199,-0.25085 -0.08818,-0.3736 -0.04629,-0.16369 -0.101185,-0.32433 -0.164642,-0.48223 -0.06127,-0.14521 -0.137012,-0.28158 -0.238982,-0.40276 -0.101253,-0.12704 -0.208346,-0.25093 -0.329954,-0.35899 -0.137437,-0.11927 -0.289913,-0.2182 -0.453032,-0.29916 -0.181015,-0.0894 -0.366714,-0.16894 -0.560938,-0.22542 -0.199123,-0.0599 -0.402506,-0.10243 -0.60662,-0.14167 -0.192191,-0.0347 -0.385392,-0.0632 -0.580955,-0.0694 -0.175536,-0.0109 -0.351205,-0.0197 -0.527022,-0.0246 -0.162034,-2.3e-4 -0.324066,-10e-5 -0.486099,2.5e-4 -0.1387417,3.2e-4 -0.2775087,-2e-4 -0.4162167,0.003 -0.1249086,0.004 -0.2496732,0.0115 -0.3737487,0.0271 -0.134593,0.014 -0.269226,0.0272 -0.4029427,0.0486 -0.1374537,0.0222 -0.2744182,0.0468 -0.411452,0.0713 -0.1234757,0.0191 -0.2469782,0.0381 -0.3702518,0.0585 -0.1138769,0.0185 -0.2283171,0.0338 -0.3435942,0.0402 -0.1155812,0.0102 -0.2309093,0.024 -0.3457618,0.0404 -0.1002871,0.0179 -0.2001731,0.0377 -0.3001086,0.0574 -0.1043276,0.0197 -0.2082774,0.041 -0.3120684,0.0635 -0.1037167,0.0199 -0.207251,0.0426 -0.3122708,0.0542 -0.093574,0.007 -0.1870731,0.0133 -0.2810047,0.009 -0.069664,-0.003 -0.1395582,-0.006 -0.2074476,-0.0236 -0.059199,-0.0143 -0.1181658,-0.029 -0.1745546,-0.0526 -0.062154,-0.0215 -0.1225812,-0.0468 -0.1798262,-0.0794 -0.06385,-0.0374 -0.1230548,-0.0815 -0.1844074,-0.12274 0,0 0.2954779,-0.18919 0.2954779,-0.18919 z"
       inkscape:connector-curvature="0"
       style="stroke-width:0.26458332" />
    <path
       id="path407"
       d="m 13.852673,288.4736 c 0.01089,-0.005 0.02192,-0.009 0.03268,-0.0145 0.110193,-0.0524 0.295889,-0.15717 -0.183645,0.11118 -0.01218,0.007 0.02363,-0.0148 0.03524,-0.0226 0.01191,-0.008 0.02354,-0.0163 0.03531,-0.0244 0.06878,-0.0485 0.136983,-0.0972 0.19828,-0.15498 0.08293,-0.0784 0.155138,-0.16664 0.225371,-0.25629 0.07699,-0.0933 0.144586,-0.19303 0.202853,-0.29891 0.06044,-0.10394 0.10189,-0.21566 0.139469,-0.32932 0.04562,-0.12966 0.07553,-0.26367 0.0939,-0.39966 0.01974,-0.14164 0.0074,-0.28315 -0.01741,-0.42304 -0.02473,-0.17053 -0.08645,-0.3318 -0.145427,-0.4927 -0.08233,-0.20829 -0.149665,-0.42187 -0.219405,-0.63455 -0.04457,-0.13967 -0.0911,-0.27927 -0.125859,-0.42184 -0.0037,-0.015 -0.04591,-0.21133 -0.04887,-0.22507 -0.04955,-0.25088 -0.08142,-0.5048 -0.104126,-0.75938 -0.02296,-0.2467 -0.01585,-0.49426 0.01007,-0.74025 0.02237,-0.19994 0.07224,-0.39527 0.145396,-0.58236 0.05849,-0.14184 0.148547,-0.26416 0.255853,-0.37237 0.04746,-0.043 0.09689,-0.0849 0.152399,-0.11733 0.206765,-0.12085 0.265738,-0.19811 0.452726,-0.22009 0.127473,-0.012 0.216881,0.0406 0.315185,0.11465 0.145468,0.1288 0.256083,0.29205 0.364564,0.45191 0.133806,0.19065 0.231837,0.40039 0.308764,0.61933 0.08441,0.26293 0.105393,0.53875 0.119969,0.8127 0.01754,0.30882 0.0051,0.61771 -0.01526,0.92597 -0.014,0.27453 -0.05252,0.54675 -0.0809,0.81992 -0.02939,0.24704 -0.04329,0.49536 -0.05139,0.74388 -0.0052,0.21945 -0.0047,0.43897 -0.0041,0.65846 -6.09e-4,0.18474 -0.01735,0.36867 -0.03772,0.55209 -0.02109,0.16061 -0.05392,0.31959 -0.08793,0.4779 -0.02846,0.15224 -0.06602,0.30199 -0.11315,0.44944 -0.04287,0.14861 -0.105558,0.28892 -0.178179,0.42502 -0.05694,0.11142 -0.128629,0.21358 -0.207754,0.31012 -0.05121,0.0641 -0.110506,0.1201 -0.175815,0.16941 -0.142131,0.10744 -0.299446,0.18784 -0.465158,0.24798 -0.05876,0.0215 -0.119042,0.0339 -0.180993,0.0414 -0.06387,0.006 -0.128027,0.006 -0.192093,0.006 -0.05999,0.004 -0.118743,-0.009 -0.177953,-0.0162 -0.0439,-0.004 -0.08561,-0.0195 -0.125971,-0.0364 -0.03825,-0.015 -0.07719,-0.0277 -0.113368,-0.0474 -0.02876,-0.0174 -0.05577,-0.039 -0.08593,-0.0539 -0.02398,-0.0159 -0.04685,-0.0356 -0.07283,-0.0482 -0.01938,-0.012 -0.04043,-0.024 -0.05845,-0.0386 -0.01896,-0.0106 -0.03546,-0.0237 -0.05407,-0.0352 -0.02601,-0.0199 -0.04275,-0.0493 -0.0606,-0.0762 0,0 0.302292,-0.17711 0.302292,-0.17711 v 0 c 0.01547,0.0232 0.03077,0.0481 0.05506,0.063 0.01818,0.0126 0.03709,0.0237 0.05495,0.0367 0.01863,0.0119 0.03618,0.0255 0.05588,0.0356 0.0244,0.0157 0.04815,0.0324 0.07253,0.0481 0.02837,0.0177 0.05611,0.0364 0.08505,0.0532 0.03578,0.0179 0.07451,0.0292 0.111334,0.0448 0.03828,0.0153 0.07866,0.025 0.119642,0.0297 0.05802,0.008 0.115903,0.0163 0.174716,0.0127 0.06317,-5.1e-4 0.126572,-0.001 0.189275,-0.01 0.0605,-0.01 0.119289,-0.0257 0.176542,-0.0477 0.02792,-0.011 0.05631,-0.0212 0.08364,-0.0335 0.0094,-0.004 0.03654,-0.0188 0.02771,-0.0135 -0.08128,0.0483 -0.384007,0.22399 -0.245021,0.14283 0.06662,-0.0475 0.129838,-0.0988 0.181631,-0.16286 0.08147,-0.0943 0.15636,-0.19418 0.213953,-0.30522 0.07376,-0.13421 0.139591,-0.27197 0.181844,-0.41978 0.04766,-0.14642 0.08589,-0.29507 0.114584,-0.44645 0.03486,-0.15734 0.06642,-0.31568 0.08999,-0.47512 0.02178,-0.18265 0.04049,-0.36571 0.04197,-0.54989 6.62e-4,-0.22036 0.0013,-0.44075 0.007,-0.66106 0.0071,-0.24952 0.02215,-0.49865 0.05154,-0.74665 0.02806,-0.27347 0.06982,-0.54555 0.08423,-0.82035 0.02257,-0.30697 0.03568,-0.61478 0.01733,-0.92244 -0.01516,-0.27046 -0.03674,-0.54236 -0.120045,-0.80197 -0.0765,-0.2159 -0.173186,-0.42311 -0.305908,-0.61089 -0.107933,-0.15598 -0.217068,-0.31674 -0.364603,-0.43827 -0.09962,-0.0694 -0.177792,-0.10819 -0.301958,-0.0907 -0.140733,0.0305 -0.252824,0.11873 0.143555,-0.11185 0.01801,-0.0105 -0.03613,0.0208 -0.05352,0.0323 -0.04283,0.0283 -0.06269,0.0462 -0.102673,0.0789 -0.110003,0.10328 -0.202368,0.22201 -0.264364,0.36063 -0.07654,0.18424 -0.129911,0.3776 -0.153549,0.57607 -0.02841,0.24422 -0.03772,0.49027 -0.01554,0.7356 0.02238,0.25301 0.05373,0.5054 0.104386,0.75448 0.04794,0.21724 0.09995,0.43337 0.17352,0.64372 0.06913,0.21228 0.136384,0.42531 0.221069,0.63211 0.06085,0.16182 0.125707,0.32387 0.152211,0.49569 0.02738,0.14272 0.04013,0.28751 0.02211,0.43253 -0.01659,0.13763 -0.0444,0.27348 -0.08954,0.40483 -0.03772,0.11487 -0.07462,0.22966 -0.136336,0.33459 -0.05723,0.10786 -0.122479,0.21053 -0.201177,0.3043 -0.06896,0.0903 -0.139363,0.17969 -0.220581,0.25939 -0.05965,0.0608 -0.125764,0.11196 -0.19596,0.16018 -0.162005,0.11509 -0.334604,0.21691 -0.518184,0.29337 0,0 0.27576,-0.21588 0.27576,-0.21588 z"
       inkscape:connector-curvature="0"
       style="stroke-width:0.26458332" />
    <path
       id="path409"
       d="m 13.91547,289.25418 c -0.05586,0.0809 -0.02753,0.0389 -0.08482,0.12614 0,0 -0.311919,0.13698 -0.311919,0.13698 v 0 c 0.05433,-0.0852 0.02877,-0.0441 0.07691,-0.12318 0,0 0.319835,-0.13994 0.319835,-0.13994 z"
       inkscape:connector-curvature="0"
       style="stroke-width:0.26458332" />
    <path
       id="path411"
       d="m 6.7145333,291.04252 c -0.091702,0.1138 -0.1683504,0.23839 -0.2370002,0.3671 -0.093127,0.17436 -0.1642446,0.35908 -0.2294478,0.54531 -0.068258,0.1897 -0.1109993,0.38683 -0.1462891,0.5849 -0.036599,0.23595 -0.044886,0.47514 -0.044055,0.71354 0.00689,0.23472 0.028385,0.46856 0.047871,0.70246 0.011906,0.1718 0.027612,0.34332 0.045627,0.51458 0.01097,0.12554 0.026984,0.25082 0.054297,0.37391 0.017076,0.0681 0.044023,0.13176 0.084034,0.18938 0.025035,0.0326 0.054892,0.0413 0.093892,0.0444 -0.023572,0.0259 0.098672,-0.0468 0.076951,-0.0348 -0.3751927,0.20789 -0.3137665,0.19344 -0.2083988,0.10717 0.018576,-0.0152 0.036385,-0.0313 0.054577,-0.047 0.1522968,-0.14266 0.2733699,-0.31312 0.3868912,-0.48704 0.1160566,-0.19239 0.2283116,-0.38708 0.3323675,-0.58625 0.095073,-0.17718 0.1759656,-0.36114 0.2514293,-0.54736 0.062989,-0.15513 0.1128498,-0.3151 0.1470163,-0.47895 0.027995,-0.12574 0.022741,-0.25285 0.00986,-0.37983 -0.016571,-0.12399 -0.044603,-0.24628 -0.079834,-0.36623 -0.037261,-0.13273 -0.09807,-0.25603 -0.1621155,-0.37739 -0.062464,-0.11226 -0.1333085,-0.21958 -0.2095974,-0.32286 -0.044899,-0.06 -0.094558,-0.11631 -0.1514827,-0.16509 -0.00721,-7.4e-4 -0.014859,-0.005 -0.02164,-0.002 -0.01039,0.004 -0.0362,0.0256 -0.026331,0.0205 0.2509364,-0.1299 0.3332089,-0.20603 0.2134881,-0.10279 0,0 -0.3190767,0.13053 -0.3190767,0.13053 v 0 c 0.1283904,-0.12478 0.070599,-0.0747 0.3803126,-0.24176 0.012036,-0.006 0.027423,-0.005 0.040917,-0.003 0.010816,0.002 0.019672,0.01 0.029507,0.0145 0.056049,0.0528 0.1068038,0.11084 0.1513866,0.17374 0.075109,0.10601 0.1461977,0.21495 0.2092127,0.32865 0.065213,0.12315 0.1280686,0.24803 0.1670463,0.38247 0.03601,0.12187 0.064583,0.24596 0.082743,0.3718 0.013936,0.13026 0.021667,0.26075 -0.00662,0.39004 -0.03443,0.16628 -0.084562,0.32869 -0.1482138,0.4862 -0.074977,0.18761 -0.1563611,0.37264 -0.2514902,0.55103 -0.104349,0.20033 -0.2177674,0.39552 -0.3328868,0.58982 -0.1109001,0.17472 -0.2299893,0.34489 -0.3760383,0.49251 -0.1566129,0.14269 -0.1698633,0.13369 -0.4344667,0.28658 -0.028616,0.0165 -0.059937,0.0231 -0.092486,0.0191 -0.045681,-0.01 -0.080759,-0.0309 -0.1085106,-0.0694 -0.041329,-0.0622 -0.069237,-0.13043 -0.086812,-0.20307 -0.026591,-0.12496 -0.041972,-0.25199 -0.052382,-0.37926 -0.017126,-0.17222 -0.031578,-0.34471 -0.041901,-0.51748 -0.016753,-0.23541 -0.037249,-0.47059 -0.045145,-0.70655 -0.00188,-0.23941 0.00352,-0.47977 0.037943,-0.71709 0.033445,-0.19961 0.075002,-0.3984 0.1429985,-0.58947 0.065084,-0.18719 0.1340305,-0.37373 0.2266855,-0.54938 0.065132,-0.12856 0.1395973,-0.25093 0.2225143,-0.36886 0,0 0.3226517,-0.13708 0.3226517,-0.13708 z"
       inkscape:connector-curvature="0"
       style="stroke-width:0.26458332" />
    <path
       id="path413"
       d="m 11.748123,292.49121 c -0.07031,0.20234 -0.13414,0.4066 -0.194204,0.6122 -0.09703,0.32858 -0.159403,0.66497 -0.205494,1.00398 -0.04049,0.29591 -0.04343,0.59417 -0.02881,0.89186 0.01255,0.16697 0.03351,0.33442 0.08281,0.49484 0.03096,0.10479 0.09611,0.186 0.180004,0.25328 0.116168,0.0855 0.207344,0.10896 0.349825,0.11283 0.19715,-0.0108 0.375754,-0.0927 0.546672,-0.18488 -0.06287,0.0348 -0.121598,0.0785 -0.18861,0.10452 -0.03642,0.0141 0.06439,-0.0443 0.09525,-0.0683 0.136898,-0.10634 0.252325,-0.23051 0.363121,-0.36299 0.164447,-0.20236 0.29272,-0.42931 0.403495,-0.66441 0.06193,-0.14256 0.115325,-0.28959 0.148383,-0.44175 0.02177,-0.1002 0.02473,-0.13952 0.03806,-0.24132 0.02723,-0.27568 -0.0047,-0.55183 -0.0435,-0.82466 -0.03993,-0.27547 -0.106272,-0.54568 -0.177309,-0.81445 -0.0547,-0.19493 -0.118582,-0.38706 -0.212766,-0.56663 -0.04801,-0.0763 -0.107623,-0.15932 -0.197999,-0.18844 -0.01677,-0.005 -0.03454,-0.007 -0.0518,-0.0106 -0.0198,0.003 -0.04014,0.003 -0.05941,0.008 -0.02341,0.006 -0.08826,0.0397 -0.06773,0.0268 0.06828,-0.0431 0.136869,-0.0874 0.211733,-0.11773 0.03581,-0.0145 -0.06311,0.0447 -0.09268,0.0696 -0.07146,0.0601 -0.119218,0.11282 -0.183586,0.17946 0,0 -0.307302,0.12803 -0.307302,0.12803 v 0 c 0.05264,-0.0553 0.123914,-0.13199 0.180208,-0.1831 0.02808,-0.0255 0.05548,-0.0525 0.08771,-0.0724 0.121885,-0.0755 0.246458,-0.14692 0.373523,-0.21336 0.02291,-0.012 0.0491,-0.0172 0.07467,-0.021 0.02197,-0.003 0.04443,-1.5e-4 0.06665,-2.3e-4 0.01888,0.005 0.0384,0.009 0.05663,0.0164 0.09398,0.0379 0.156339,0.1255 0.205689,0.20936 0.09098,0.1842 0.154587,0.37926 0.208356,0.57734 0.07039,0.27046 0.135629,0.54235 0.176174,0.81919 0.04175,0.27446 0.07406,0.55281 0.05146,0.83069 -0.01198,0.0985 -0.0159,0.14711 -0.03558,0.24432 -0.03126,0.15444 -0.08422,0.30362 -0.14638,0.4481 -0.109988,0.23781 -0.23868,0.46696 -0.401906,0.67287 -0.06789,0.0837 -0.09843,0.12528 -0.173539,0.20209 -0.192524,0.19689 -0.414571,0.33931 -0.662353,0.46439 -0.176177,0.0911 -0.360811,0.17107 -0.562679,0.17441 -0.02509,-0.002 -0.05032,-0.002 -0.07527,-0.005 -0.106826,-0.0133 -0.204079,-0.06 -0.289353,-0.12439 -0.08772,-0.073 -0.157548,-0.15983 -0.189496,-0.27148 -0.04769,-0.16493 -0.06727,-0.33615 -0.07734,-0.50722 -0.01083,-0.30091 -0.0068,-0.60219 0.03428,-0.90111 0.0455,-0.3391 0.106119,-0.67596 0.198482,-1.0058 0.05623,-0.20209 0.116498,-0.4028 0.177006,-0.60359 0,0 0.314912,-0.15003 0.314912,-0.15003 z"
       inkscape:connector-curvature="0"
       style="stroke-width:0.26458332" />
    <path
       id="path417"
       d="m 3.9453957,286.7671 c 0.07662,0.0119 0.1532364,0.0163 0.2303785,0.009 0.047584,-0.005 0.095073,-0.0111 0.1429076,-0.0134 0.022503,-10e-4 0.045041,-10e-4 0.067567,-0.002 0.01873,0.0385 0.020921,0.0228 0.014219,0.0455 0,0 -0.3282789,0.1304 -0.3282789,0.1304 v 0 c 0.019129,0.006 0.00605,9e-5 0.028284,0.032 -0.021603,-2e-5 -0.043195,5.6e-4 -0.064756,0.002 -0.046845,0.003 -0.093526,0.009 -0.140394,0.0117 -0.079005,0.003 -0.1574454,-0.005 -0.2359822,-0.0135 0,0 0.2860551,-0.20244 0.2860551,-0.20244 z"
       inkscape:connector-curvature="0"
       style="stroke-width:0.26458332" />
    <path
       id="path419"
       d="m 4.017324,286.68681 c 0.00889,0.005 0.017788,0.0107 0.026681,0.016 0,0 -0.292576,0.19019 -0.292576,0.19019 v 0 c -0.00931,-0.005 -0.018619,-0.0101 -0.027928,-0.0152 0,0 0.2938224,-0.19099 0.293823,-0.19099 z"
       inkscape:connector-curvature="0"
       style="stroke-width:0.26458332" />
  </g>
</svg>
