<?xml version="1.0" encoding="UTF-8" standalone="no"?>
<!-- Created with Inkscape (http://www.inkscape.org/) -->

<svg
   xmlns:dc="http://purl.org/dc/elements/1.1/"
   xmlns:cc="http://creativecommons.org/ns#"
   xmlns:rdf="http://www.w3.org/1999/02/22-rdf-syntax-ns#"
   xmlns:svg="http://www.w3.org/2000/svg"
   xmlns="http://www.w3.org/2000/svg"
   xmlns:sodipodi="http://sodipodi.sourceforge.net/DTD/sodipodi-0.dtd"
   xmlns:inkscape="http://www.inkscape.org/namespaces/inkscape"
   width="64"
   height="64"
   viewBox="0 0 64.000001 64.000001"
   id="svg2"
   version="1.1"
   inkscape:version="0.91 r13725"
   inkscape:export-filename="/home/oserkin/zwork/DeepLearning/deep_learning_workshop_tasks/commonlearningdata/cartooncats/1_cat_15.png"
   inkscape:export-xdpi="90"
   inkscape:export-ydpi="90"
   sodipodi:docname="1_cat_15.svg">
  <defs
     id="defs4" />
  <sodipodi:namedview
     id="base"
     pagecolor="#ffffff"
     bordercolor="#666666"
     borderopacity="1.0"
     inkscape:pageopacity="0.0"
     inkscape:pageshadow="2"
     inkscape:zoom="11.2"
     inkscape:cx="30.481924"
     inkscape:cy="29.606808"
     inkscape:document-units="px"
     inkscape:current-layer="layer1"
     showgrid="false"
     units="px"
     inkscape:window-width="1855"
     inkscape:window-height="1056"
     inkscape:window-x="1985"
     inkscape:window-y="24"
     inkscape:window-maximized="1" />
  <metadata
     id="metadata7">
    <rdf:RDF>
      <cc:Work
         rdf:about="">
        <dc:format>image/svg+xml</dc:format>
        <dc:type
           rdf:resource="http://purl.org/dc/dcmitype/StillImage" />
        <dc:title></dc:title>
      </cc:Work>
    </rdf:RDF>
  </metadata>
  <g
     inkscape:label="Layer 1"
     inkscape:groupmode="layer"
     id="layer1"
     transform="translate(0,-988.36216)">
    <path
       style="fill:none;fill-rule:evenodd;stroke:#000000;stroke-width:1px;stroke-linecap:butt;stroke-linejoin:miter;stroke-opacity:1"
       d="m 15.267857,1011.6479 c 0,-0.8899 -0.08418,-0.1 0.08929,-0.4465 0.01331,-0.027 -0.0072,-0.06 0,-0.089 0.02283,-0.091 0.07598,-0.1747 0.08929,-0.2679 0.01684,-0.1179 -0.01957,-0.2397 0,-0.3571 0.01094,-0.066 0.06457,-0.1168 0.08929,-0.1786 0.03495,-0.087 0.04259,-0.1862 0.08929,-0.2679 0.647693,-0.8636 0.01628,0.057 0.357143,-0.625 0.01882,-0.038 0.07908,-0.048 0.08929,-0.089 0.02166,-0.087 -0.02823,-0.1831 0,-0.2678 0.03393,-0.1018 0.123361,-0.1759 0.178571,-0.2679 0.06848,-0.1141 0.104741,-0.2464 0.178571,-0.3571 0.08254,-0.1238 0.174897,-0.241 0.267858,-0.3572 0.02629,-0.033 0.07046,-0.052 0.08929,-0.089 0.04209,-0.084 0.03708,-0.1895 0.08929,-0.2678 0.07004,-0.1051 0.188978,-0.1693 0.267857,-0.2679 0.04157,-0.052 0.05237,-0.1232 0.08929,-0.1785 0.02335,-0.035 0.05952,-0.06 0.08929,-0.089 0.08929,-0.089 0.188977,-0.1693 0.267857,-0.2679 0.144549,-0.1807 0.04961,-0.2315 0.178571,-0.4464 0.03787,-0.063 0.279686,-0.2797 0.357143,-0.3572 0.119048,-0.119 0.238095,-0.2381 0.357143,-0.3571 0.02976,-0.03 0.05561,-0.064 0.08929,-0.089 0.08585,-0.064 0.18201,-0.1142 0.267857,-0.1786 0.03367,-0.025 0.05426,-0.066 0.08929,-0.089 0.110746,-0.074 0.243012,-0.11 0.357143,-0.1785 0.09202,-0.055 0.182011,-0.1142 0.267857,-0.1786 0.03367,-0.025 0.04936,-0.076 0.08929,-0.089 0.08929,-0.03 0.178572,0.015 0.267857,0 0.98728,-0.1645 0.02427,-0.01 0.714286,-0.1786 0.02887,-0.01 0.06452,0.017 0.08929,0 0.07004,-0.047 0.103279,-0.1409 0.178571,-0.1785 0.05324,-0.027 0.122102,0.019 0.178572,0 0.03993,-0.013 0.04936,-0.076 0.08929,-0.089 0.05647,-0.019 0.120825,0.014 0.178572,0 0.06456,-0.016 0.113314,-0.076 0.178571,-0.089 0.175104,-0.035 0.360611,0.035 0.535714,0 0.06526,-0.013 0.113315,-0.076 0.178572,-0.089 0.08755,-0.018 0.178571,0 0.267857,0 0.05952,0 0.122102,0.019 0.178571,0 0.12627,-0.042 0.229165,-0.142 0.357143,-0.1786 0.06793,-0.019 0.750056,0 0.803572,0 0.565476,0 1.130952,0 1.696428,0 0.505953,0 1.011905,0 1.517857,0 0.178572,0 0.357143,0 0.535715,0 0.119047,0 0.239715,-0.019 0.357143,0 0.06564,0.011 0.114008,0.073 0.178571,0.089 0.05775,0.014 0.119048,0 0.178572,0 0.05952,0.03 0.114582,0.071 0.178571,0.089 0.145917,0.042 0.296197,0.068 0.446429,0.089 0.02387,0 0.348237,-0 0.357142,0 0.09963,0.04 0.168224,0.1387 0.267858,0.1786 0.05527,0.022 0.125331,-0.027 0.178571,0 0.133099,0.067 0.22954,0.1913 0.357143,0.2678 0.02552,0.015 0.06267,-0.013 0.08929,0 0.09598,0.048 0.168224,0.1387 0.267857,0.1786 0.05527,0.022 0.119857,-0.01 0.178571,0 0.121042,0.02 0.240729,0.05 0.357143,0.089 0.06313,0.021 0.116782,0.065 0.178571,0.089 0.08738,0.035 0.180474,0.054 0.267858,0.089 0.184729,0.074 0.350985,0.1939 0.535714,0.2678 0.08738,0.035 0.180473,0.054 0.267857,0.089 0.06179,0.025 0.115437,0.068 0.178571,0.089 0.08036,0.027 0.1875,-0.027 0.267858,0 0.06775,0.023 0.275084,0.3161 0.357142,0.3572 0.02662,0.013 0.06267,-0.013 0.08929,0 0.05413,0.027 0.318904,0.3284 0.357143,0.3571 0.05324,0.04 0.123199,0.052 0.178571,0.089 0.122831,0.082 0.09183,0.1377 0.178572,0.2678 0.06868,0.1031 0.199176,0.1649 0.267857,0.2679 0.03692,0.055 0.05237,0.1232 0.08929,0.1786 0.02335,0.035 0.07046,0.052 0.08928,0.089 0.01331,0.027 0,0.059 0,0.089 0.02976,0.059 0.04936,0.1253 0.08929,0.1785 0.133415,0.1779 0.213827,0.141 0.267857,0.3572 0.01444,0.058 -0.01882,0.1221 0,0.1785 0.01331,0.04 0.06594,0.054 0.08929,0.089 0.03692,0.055 0.06824,0.1155 0.08929,0.1786 0.0094,0.028 -0.01651,0.065 0,0.089 0.04669,0.07 0.119047,0.119 0.178571,0.1786 0.02976,0.03 0.07046,0.052 0.08929,0.089 0.01174,0.024 0,0.3105 0,0.3572"
       id="path3861"
       inkscape:connector-curvature="0" />
    <path
       style="fill:none;fill-rule:evenodd;stroke:#000000;stroke-width:1px;stroke-linecap:butt;stroke-linejoin:miter;stroke-opacity:1"
       d="m 14.910714,1011.38 c 0,0.1488 0.02104,0.2991 0,0.4464 -0.0094,0.066 -0.06824,0.1155 -0.08929,0.1786 -0.0094,0.028 0,0.059 0,0.089 0,0.064 0.01648,0.3805 0,0.4464 -0.225527,0.9021 0.03224,-0.064 -0.178572,0.3572 -0.01331,0.027 0,0.059 0,0.089 0,0.064 0.01648,0.3805 0,0.4464 -0.02283,0.091 -0.06646,0.1765 -0.08929,0.2679 -0.01444,0.058 0,0.119 0,0.1785 0,0.1191 0,0.2381 0,0.3572 0,0.03 0.0094,0.061 0,0.089 -0.02104,0.063 -0.06824,0.1154 -0.08929,0.1785 -0.01756,0.053 0,0.3966 0,0.4465 0,0.03 0.01331,0.063 0,0.089 -0.01882,0.038 -0.07046,0.052 -0.08929,0.089 -0.01331,0.027 0,0.06 0,0.089 0,0.06 0,0.1191 0,0.1786 0,0.1488 0,0.2976 0,0.4464 0,0.03 -0.01331,0.063 0,0.089 0.01882,0.038 0.07046,0.052 0.08929,0.089 0.01331,0.027 -0.01651,0.064 0,0.089 0.06868,0.103 0.199176,0.1648 0.267857,0.2679 0.259973,0.3899 -0.03957,-0.029 0.08929,0.3571 0.01331,0.04 0.06594,0.054 0.08929,0.089 0.03691,0.055 0.05237,0.1232 0.08929,0.1786 0.02335,0.035 0.07046,0.052 0.08929,0.089 0.01331,0.027 0,0.06 0,0.089 0.02976,0.06 0.05237,0.1232 0.08929,0.1786 0.04669,0.07 0.140926,0.1033 0.178572,0.1786 0.01331,0.027 0,0.059 0,0.089 0.02976,0.06 0.05237,0.1232 0.08929,0.1785 0.04669,0.07 0.131877,0.1086 0.178571,0.1786 0.07383,0.1108 0.104741,0.2464 0.178571,0.3572 0.07004,0.105 0.192096,0.1668 0.267858,0.2678 0.03993,0.053 0.05237,0.1232 0.08929,0.1786 0.02335,0.035 0.07046,0.052 0.08929,0.089 0.01331,0.027 -0.01651,0.065 0,0.089 0.06655,0.1 0.259961,0.2599 0.357143,0.3571 0.02976,0.03 0.06594,0.054 0.08929,0.089 0.03692,0.055 0.05237,0.1232 0.08929,0.1786 0.02335,0.035 0.05952,0.06 0.08929,0.089 0.02976,0.03 0.05164,0.07 0.08929,0.089 0.02662,0.013 0.06267,-0.013 0.08929,0 0.842175,0.421 -0.01955,0.017 0.357143,0.2678 0.102564,0.068 0.254579,0.1102 0.357143,0.1786 0.103022,0.069 0.164835,0.1992 0.267857,0.2678 0.05537,0.037 0.123199,0.052 0.178572,0.089 0.03502,0.023 0.05164,0.071 0.08929,0.089 0.02662,0.013 0.06452,-0.016 0.08929,0 0.07004,0.047 0.111228,0.1281 0.178572,0.1786 0.05324,0.04 0.123198,0.052 0.178571,0.089 0.03502,0.023 0.05427,0.066 0.08929,0.089 0.05537,0.037 0.115437,0.068 0.178571,0.089 0.02824,0.01 0.06452,-0.017 0.08929,0 0.07004,0.047 0.111228,0.1281 0.178571,0.1786 0.05324,0.04 0.123199,0.052 0.178572,0.089 0.03502,0.023 0.05426,0.066 0.08929,0.089 0.173859,0.1159 0.163857,0.089 0.357143,0.089 0.05952,0 0.125332,-0.027 0.178572,0 0.581401,0.2907 -0.177984,0.089 0.357143,0.2678 0.05647,0.019 0.122102,-0.019 0.178571,0 0.177049,0.059 0.180094,0.1196 0.357143,0.1786 0.31902,0.1063 -0.367814,-0.3457 0.357143,0.089 0.406454,0.4064 -0.03698,0.047 0.357143,0.1786 0.03993,0.013 0.04936,0.076 0.08929,0.089 0.05647,0.019 0.119048,0 0.178572,0 0.06004,0 0.571682,-0.013 0.625,0 0.04083,0.01 0.05164,0.07 0.08929,0.089 0.02662,0.013 0.05952,0 0.08929,0 0.02976,0 0.05952,0 0.08929,0 0.08929,0 0.178571,0 0.267857,0 0.119048,0 0.238095,0 0.357143,0 0.02976,0 0.05952,0 0.08929,0 0.02976,0 0.06452,-0.017 0.08929,0 0.07004,0.047 0.100413,0.1473 0.178572,0.1786 0.02009,0.01 0.49699,-0.01 0.535714,0 0.06526,0.013 0.115437,0.068 0.178571,0.089 0.02823,0.01 0.05952,0 0.08929,0 0.05952,0 0.119048,0 0.178572,0 0.208333,0 0.416666,0 0.625,0 0.684523,0 1.369047,0 2.053571,0 0.452459,0 -0.106479,-0.027 0.357143,0.089 0.140056,0.035 0.306372,-0.035 0.446429,0 0.06456,0.016 0.114008,0.073 0.178571,0.089 0.08094,0.02 0.342708,0 0.446429,0 0.32738,0 0.654761,0 0.982142,0 0.476191,0 0.952381,0 1.428572,0 0.07299,0 0.579747,0.015 0.625,0 0.03993,-0.013 0.05427,-0.066 0.08929,-0.089 0.07065,-0.047 0.456888,-0.2416 0.535714,-0.2679 0.02823,-0.01 0.06105,0.01 0.08929,0 0.126269,-0.042 0.230873,-0.1365 0.357142,-0.1785 0.02824,-0.01 0.06267,0.013 0.08929,0 0.09598,-0.048 0.182011,-0.1142 0.267857,-0.1786 0.03367,-0.025 0.05164,-0.071 0.08929,-0.089 0.02662,-0.013 0.05952,0 0.08929,0 0.05952,-0.03 0.123198,-0.052 0.178571,-0.089 0.122831,-0.082 0.09183,-0.1377 0.178572,-0.2678 0.04669,-0.07 0.151951,-0.099 0.178571,-0.1786 0.01882,-0.057 -0.02662,-0.1253 0,-0.1786 0.290701,-0.5814 0.08948,0.178 0.267857,-0.3571 0.01882,-0.057 -0.02662,-0.1254 0,-0.1786 0.01882,-0.038 0.07046,-0.052 0.08929,-0.089 0.01331,-0.027 -0.0094,-0.061 0,-0.089 0.02105,-0.063 0.07314,-0.114 0.08929,-0.1786 0.01444,-0.058 -0.02662,-0.1253 0,-0.1785 0.03765,-0.075 0.131877,-0.1086 0.178571,-0.1786 0.01651,-0.025 -0.01331,-0.063 0,-0.089 0.296123,-0.2961 -0.04209,0.084 0.08929,-0.1786 0.01882,-0.038 0.07908,-0.048 0.08928,-0.089 0.02166,-0.087 -0.01751,-0.1804 0,-0.2679 0.02703,-0.1351 0.09351,-0.1828 0.178572,-0.2679 0.02976,-0.03 0.07046,-0.052 0.08929,-0.089 0.01331,-0.027 0,-0.06 0,-0.089 0.02976,-0.03 0.06594,-0.054 0.08928,-0.089 0.03692,-0.055 0.07315,-0.114 0.08929,-0.1786 0.01444,-0.058 0,-0.1191 0,-0.1786 0,-0.03 -0.01331,-0.063 0,-0.089 0.01882,-0.038 0.05952,-0.06 0.08929,-0.089 0,-0.059 -0.01444,-0.1208 0,-0.1785 0.06474,-0.259 0.06966,-0.1045 0.178571,-0.2679 0.102596,-0.1539 0.08929,-0.1349 0.08929,-0.2678 0,-0.03 -0.01331,-0.063 0,-0.089 0.01882,-0.038 0.07598,-0.049 0.08929,-0.089 0.02757,-0.083 -0.02852,-0.3609 0,-0.4464 0.02104,-0.063 0.06824,-0.1155 0.08928,-0.1786 0.0094,-0.028 -0.0094,-0.061 0,-0.089 0.02963,-0.089 0.148942,-0.2683 0.178572,-0.3572 0.0094,-0.028 -0.0094,-0.061 0,-0.089 0.02105,-0.063 0.07314,-0.1141 0.08928,-0.1786 0.01444,-0.058 0,-0.1191 0,-0.1786 0,-0.2083 0,-0.4167 0,-0.625 0,-0.089 -0.01751,-0.1803 0,-0.2678 0.01305,-0.065 0.06824,-0.1155 0.08929,-0.1786 0.01969,-0.059 0,-0.448 0,-0.5357 0,-0.4167 0,-0.8334 0,-1.25 0,-0.625 0,-1.25 0,-1.875 0,-0.2381 0,-0.4762 0,-0.7143 0,-0.1024 0.02312,-0.2647 0,-0.3572 -0.03604,-0.1441 -0.08781,-0.1771 -0.178571,-0.2678 -0.02976,-0.03 -0.07046,-0.052 -0.08929,-0.089 -0.02662,-0.053 0.02662,-0.1253 0,-0.1786 -0.03765,-0.075 -0.151952,-0.099 -0.178571,-0.1785 -0.01882,-0.056 0.01882,-0.1221 0,-0.1786 -0.01331,-0.04 -0.05952,-0.059 -0.08929,-0.089 -0.02976,-0.03 -0.05952,-0.06 -0.08929,-0.089 -0.02976,-0.03 -0.05952,-0.06 -0.08929,-0.089 -0.02976,-0.03 -0.07046,-0.052 -0.08928,-0.089 -0.06158,-0.1231 0.10813,-0.08 -0.08929,-0.1786 -0.262751,-0.1313 0.117552,0.2069 -0.178571,-0.089"
       id="path3863"
       inkscape:connector-curvature="0" />
    <path
       style="fill:none;fill-rule:evenodd;stroke:#000000;stroke-width:1px;stroke-linecap:butt;stroke-linejoin:miter;stroke-opacity:1"
       d="m 20,1020.6657 c 0.106062,0.2459 0.08929,0.4615 0.08929,0.7143 0,0.059 0.01882,0.1221 0,0.1786 -0.01331,0.04 -0.07598,0.049 -0.08929,0.089 -0.01882,0.056 0,0.119 0,0.1786 -0.05952,0.059 -0.131877,0.1085 -0.178571,0.1785 -0.01651,0.025 0,0.059 0,0.089 0,0.03 0,0.06 0,0.089 0,0.071 0.01786,0.3929 0,0.4464 -0.02104,0.063 -0.06824,0.1155 -0.08929,0.1786 -0.0094,0.028 0,0.06 0,0.089 0,0.1488 0,0.2976 0,0.4464 0,0.06 0.01444,0.1208 0,0.1786 -0.02976,0.089 -0.05952,0.1786 -0.08929,0.2678 0,0.03 0.0072,0.06 0,0.089 -0.02283,0.091 -0.07083,0.1756 -0.08929,0.2679 -0.01167,0.058 0,0.119 0,0.1786 0,0.1875 0,0.4107 0,0.5357 0,0.03 0.0058,0.06 0,0.089 0.335448,0.198 -0.151699,0.3389 -0.178571,0.4464 -0.02165,0.087 0.01751,0.1803 0,0.2678 -0.01305,0.065 -0.07623,0.1134 -0.08929,0.1786 -0.01751,0.088 0,0.1786 0,0.2679 0,0.1785 0.02525,0.3589 0,0.5357 -0.01331,0.093 -0.07381,0.175 -0.08929,0.2678 -0.01468,0.088 0,0.1786 0,0.2679 -0.02976,0.1191 -0.06522,0.2368 -0.08929,0.3571 -0.03968,0.1985 0.119048,0 0,0.3572 -0.03393,0.1018 -0.144638,0.166 -0.178572,0.2678 -0.02823,0.085 0.01751,0.1804 0,0.2679 -0.01305,0.065 -0.06824,0.1154 -0.08929,0.1786 -0.186105,0.1233 -0.04932,0.3758 -0.08929,0.5357 -0.06158,0.2463 -0.356561,0.4896 -0.446429,0.7143 -0.02211,0.055 0.01444,0.1208 0,0.1785 -0.0301,0.1205 -0.225183,0.3718 -0.267857,0.4465 -0.06603,0.1155 -0.126141,0.2348 -0.178571,0.3571 -0.03707,0.087 -0.03708,0.1896 -0.08929,0.2679 -0.257434,0.3861 -0.271157,0.1267 -0.446428,0.5357 -0.04834,0.1128 -0.03441,0.2474 -0.08929,0.3571 -0.03765,0.075 -0.125985,0.1129 -0.178572,0.1786 -0.06699,0.084 -0.119005,0.1786 -0.178529,0.2678 -0.08929,0.089 -0.187022,0.1709 -0.267857,0.2679 -0.0687,0.082 -0.111537,0.1841 -0.178572,0.2679 -0.07888,0.099 -0.192095,0.1668 -0.267857,0.2678 -0.06438,0.086 -0.123362,0.1759 -0.178571,0.2679 -0.03424,0.057 -0.04223,0.1315 -0.08929,0.1785 -0.04706,0.047 -0.125332,0.049 -0.178571,0.089 -0.06734,0.051 -0.111228,0.1281 -0.178572,0.1786 -0.05324,0.04 -0.125331,0.049 -0.178571,0.089 -0.386187,0.3862 0.02365,0.014 -0.357143,0.2678 -0.03502,0.023 -0.05952,0.06 -0.08929,0.089 -0.05952,0.06 -0.119047,0.1191 -0.178571,0.1786 -0.02976,0.03 -0.05164,0.071 -0.08929,0.089 -0.08418,0.042 -0.183678,0.047 -0.267857,0.089 -0.03765,0.019 -0.04936,0.076 -0.08929,0.089 -0.330991,0.1103 -0.05847,-0.1201 -0.267857,0.089 -0.02976,0.03 -0.08929,0.047 -0.08929,0.089 0,0.03 0.05952,0 0.08929,0 0.02976,0 0.05952,0 0.08929,0 0.267857,0 0.535714,0 0.803571,0 0.02976,0 0.05952,0 0.08929,0 0.02976,0 0.06267,-0.013 0.08929,0 0.03765,0.019 0.05164,0.071 0.08929,0.089 0.02662,0.013 0.06105,-0.01 0.08929,0 0.06314,0.021 0.115437,0.068 0.178572,0.089 0.02823,0.01 0.06041,-0.01 0.08929,0 0.09131,0.023 0.176552,0.067 0.267857,0.089 0.08378,0.021 0.411936,-0.023 0.446429,0 0.330992,0.2207 0.01638,0.1786 0.357143,0.1786 0.592247,0 -0.126269,-0.042 0.267857,0.089 0.01879,0.01 0.39999,0.012 0.446429,0 0.902108,-0.2256 -0.06448,0.032 0.357142,-0.1786 0.02662,-0.013 0.06105,0.01 0.08929,0 0.06313,-0.021 0.115437,-0.068 0.178572,-0.089 0.08036,-0.027 0.1875,0.027 0.267857,0 0.06313,-0.021 0.115437,-0.068 0.178571,-0.089 0.02824,-0.01 0.06452,0.016 0.08929,0 0.07004,-0.047 0.111228,-0.128 0.178571,-0.1786 0.05324,-0.04 0.123199,-0.052 0.178572,-0.089 0.03502,-0.023 0.05426,-0.066 0.08929,-0.089 0.05537,-0.037 0.131514,-0.042 0.178572,-0.089 0.04706,-0.047 0.04223,-0.1315 0.08929,-0.1786 0.04706,-0.047 0.123198,-0.052 0.178571,-0.089 0.07004,-0.047 0.119048,-0.119 0.178571,-0.1785 0.08929,-0.089 0.178572,-0.1786 0.267858,-0.2679 0.02976,-0.03 0.05427,-0.066 0.08929,-0.089 0.05537,-0.037 0.123199,-0.052 0.178572,-0.089 0.0436,-0.029 0.328074,-0.3135 0.357143,-0.3571 0.07383,-0.1108 0.104741,-0.2464 0.178571,-0.3572 0.05419,-0.081 0.228289,-0.1887 0.267857,-0.2678 0.01331,-0.027 -0.01331,-0.063 0,-0.089 0.01882,-0.038 0.06594,-0.054 0.08929,-0.089 0.03692,-0.055 0.05237,-0.1232 0.08929,-0.1786 0.04665,-0.07 0.140885,-0.1032 0.178531,-0.1785 0.01331,-0.027 -0.01331,-0.063 0,-0.089 0.09412,-0.1883 0.08445,0.01 0.178571,-0.1786 0.01331,-0.027 0,-0.06 0,-0.089 0,-0.1329 -0.01331,-0.114 0.08929,-0.2678 0.04669,-0.07 0.140925,-0.1033 0.178572,-0.1786 0.01331,-0.027 -0.0094,-0.061 0,-0.089 0.215578,-0.6467 -0.02574,0.1408 0.178571,-0.2679 0.04209,-0.084 0.0472,-0.1836 0.08929,-0.2678 0.01882,-0.038 0.05952,-0.06 0.08929,-0.089 0.02976,-0.03 0.05952,-0.06 0.08929,-0.089"
       id="path3865"
       inkscape:connector-curvature="0" />
    <path
       style="fill:none;fill-rule:evenodd;stroke:#000000;stroke-width:1px;stroke-linecap:butt;stroke-linejoin:miter;stroke-opacity:1"
       d="m 19.642857,1026.9157 c 0.175361,0.3303 0.309918,0.6811 0.535714,0.9822 0.02525,0.034 0.06763,0.053 0.08929,0.089 0.06848,0.1141 0.110093,0.243 0.178572,0.3571 0.02166,0.036 0.05952,0.06 0.08929,0.089 0.05952,0.059 0.119048,0.119 0.178572,0.1786 0.148809,0.1488 0.297619,0.2976 0.446428,0.4464 0.08929,0.089 0.197816,0.1628 0.267857,0.2679 0.01651,0.025 -0.02476,0.073 0,0.089 0.07831,0.052 0.187154,0.041 0.267858,0.089 0.06311,0.038 0.279685,0.2797 0.357142,0.3572 0.02976,0.03 0.05426,0.066 0.08929,0.089 0.05537,0.037 0.123199,0.052 0.178572,0.089 0.07004,0.047 0.10853,0.1319 0.178571,0.1786 0.05537,0.037 0.123199,0.052 0.178571,0.089 0.03502,0.023 0.05426,0.066 0.08929,0.089 0.05537,0.037 0.123199,0.052 0.178572,0.089 0.07004,0.047 0.10853,0.1318 0.178571,0.1785 0.04496,0.1968 0.183678,0.047 0.267857,0.089 0.03765,0.019 0.05952,0.06 0.08929,0.089 0.05952,0.06 0.10853,0.1319 0.178571,0.1786 0.02476,0.016 0.06267,-0.013 0.08929,0 0.03765,0.019 0.05164,0.071 0.08929,0.089 0.02662,0.013 0.06105,-0.01 0.08929,0 0.06313,0.021 0.115437,0.068 0.178572,0.089 0.05647,0.019 0.122102,-0.019 0.178571,0 0.06314,0.021 0.114009,0.073 0.178572,0.089 0.07405,0.018 0.388013,-0.029 0.446428,0 0.07529,0.038 0.103279,0.1409 0.178572,0.1785 0.03017,0.015 0.49846,-0.01 0.535714,0 0.06526,0.013 0.114009,0.073 0.178571,0.089 0.05775,0.014 0.119048,0 0.178572,0 0.128162,0 0.441748,-0.024 0.535714,0 0.04083,0.01 0.04845,0.079 0.08929,0.089 0.115493,0.029 0.238095,0 0.357143,0 0.803571,0 1.607143,0 2.410714,0 0.0353,0 0.408296,0.019 0.446429,0 0.07529,-0.038 0.103279,-0.1409 0.178571,-0.1786 0.02662,-0.013 0.06267,0.013 0.08929,0 0.03765,-0.019 0.05952,-0.119 0.08929,-0.089 0.02976,0.03 -0.05952,0.06 -0.08929,0.089"
       id="path3867"
       inkscape:connector-curvature="0" />
    <path
       style="fill:none;fill-rule:evenodd;stroke:#000000;stroke-width:1px;stroke-linecap:butt;stroke-linejoin:miter;stroke-opacity:1"
       d="m 31.071429,1028.3443 c -0.642945,0.037 -0.09439,0.3674 -0.178572,0.5357 -0.210812,0.4216 0.04696,-0.5449 -0.178571,0.3572 -0.0072,0.029 0,0.06 0,0.089 0,0.119 0,0.238 0,0.3571 0,0.059 0.01167,0.1202 0,0.1786 -0.07716,0.3857 -0.166875,0.2327 -0.267857,0.5357 -0.02396,0.072 0.02853,0.3001 0,0.3571 -0.01882,0.038 -0.07046,0.052 -0.08929,0.089 -0.01331,0.027 0.0094,0.061 0,0.089 -0.02105,0.063 -0.06824,0.1154 -0.08929,0.1786 -0.0094,0.028 0.01651,0.064 0,0.089 -0.04669,0.07 -0.131877,0.1085 -0.178571,0.1785 -0.01651,0.025 0.0094,0.061 0,0.089 -0.02105,0.063 -0.07315,0.114 -0.08929,0.1786 -0.02887,0.1155 0.03765,0.2442 0,0.3571 -0.01331,0.04 -0.06594,0.054 -0.08929,0.089 -0.03691,0.055 -0.05505,0.1215 -0.08929,0.1786 -0.05521,0.092 -0.138719,0.1682 -0.178572,0.2679 -0.04421,0.1105 0.02335,0.2404 0,0.3571 -0.0929,0.4645 -0.05952,0.089 -0.178571,0.4464 -0.0094,0.028 0,0.06 0,0.089 0,0.013 0.01806,0.3742 0,0.4464 -0.02904,0.1162 -0.104678,0.3356 -0.178572,0.4465 -0.02335,0.035 -0.07046,0.052 -0.08929,0.089 -0.01331,0.027 0,0.06 0,0.089 0,0.06 0.01167,0.1202 0,0.1786 -0.01846,0.092 -0.06646,0.1766 -0.08929,0.2679 -0.01806,0.072 0,0.4333 0,0.4464 0,0.3571 0,0.7143 0,1.0714 0,0.3869 0,0.7738 0,1.1607 0,0.1489 0,0.2977 0,0.4465 0,0.06 -0.01882,0.1221 0,0.1785 0.02105,0.063 0.05237,0.1232 0.08929,0.1786 0.02523,0.038 0.230915,0.2494 0.267857,0.2679 0.02348,0.012 0.310453,0 0.357143,0 0.02122,0 0.337131,0.01 0.357143,0 0.03765,-0.019 0.05426,-0.066 0.08929,-0.089 0.05952,-0.03 0.119048,-0.06 0.178572,-0.089 0.02976,0 0.06267,0.013 0.08929,0 0.03765,-0.019 0.05427,-0.066 0.08929,-0.089 0.05537,-0.037 0.115437,-0.068 0.178572,-0.089 0.02823,-0.01 0.06452,0.016 0.08929,0 0.105062,-0.07 0.178572,-0.1785 0.267857,-0.2678 0.14881,-0.1488 0.297619,-0.2977 0.446429,-0.4465 0.02976,-0.03 0.05952,-0.06 0.08929,-0.089 0.02976,-0.03 0.05164,-0.07 0.08929,-0.089 0.02662,-0.013 0.06267,0.013 0.08929,0 0.107143,-0.054 0.160714,-0.2143 0.267857,-0.2679 0.02662,-0.013 0.06267,0.013 0.08929,0 0.03765,-0.019 0.05952,-0.06 0.08929,-0.089 0.02976,-0.03 0.05952,-0.06 0.08928,-0.089 0.14881,-0.1488 0.297619,-0.2976 0.446429,-0.4464 0.119048,-0.119 0.238095,-0.2381 0.357143,-0.3571 0.02976,-0.03 0.07046,-0.052 0.08929,-0.089 0.01331,-0.027 -0.01331,-0.063 0,-0.089 0.296123,-0.2961 -0.04209,0.084 0.08928,-0.1786 0.01882,-0.038 0.07598,-0.049 0.08929,-0.089 0.01361,-0.041 -0.01987,-0.3174 0,-0.3571 0.03765,-0.075 0.140925,-0.1033 0.178571,-0.1786 0.01331,-0.027 0,-0.06 0,-0.089 0,-0.06 0,-0.119 0,-0.1786 0,-0.119 0,-0.2381 0,-0.3571 0,-0.06 -0.01167,-0.1202 0,-0.1786 0.02407,-0.1203 0.06522,-0.2368 0.08929,-0.3571 0.0058,-0.029 -0.0094,-0.061 0,-0.089 0.02105,-0.063 0.06824,-0.1154 0.08929,-0.1786 0.01756,-0.053 0,-0.3965 0,-0.4464 0,-0.03 -0.0094,-0.061 0,-0.089 0.252932,-0.5059 -0.03328,0.1331 0.08929,-0.3571 0.03604,-0.1442 0.08781,-0.1771 0.178571,-0.2679 0.02976,-0.03 0.07046,-0.052 0.08929,-0.089 0.02662,-0.053 -0.01882,-0.1221 0,-0.1786 0.05405,-0.1621 0.07641,-0.1657 0.178571,-0.2678 0.305724,-0.094 0.276291,0.2703 0.446401,0.3553 0.02662,0.013 0.06267,-0.013 0.08928,0 0.07529,0.038 0.10853,0.1319 0.178572,0.1786 0.05537,0.037 0.125332,0.049 0.178571,0.089 0.05952,0.06 0.119048,0.1191 0.178572,0.1786 0.02976,0 0.06267,-0.013 0.08928,0 0.03765,0.019 0.05164,0.07 0.08929,0.089 0.184466,0.092 0.270525,0.089 0.446429,0.089 0.05952,0 0.119047,0 0.178571,0 0.02976,0 0.06105,-0.01 0.08929,0 0.646733,0.2156 -0.140769,-0.026 0.267857,0.1786 0.02717,0.014 0.227647,0 0.267857,0 0.178572,0 0.357143,0 0.535714,0 0.714286,0 1.428572,0 2.142858,0 0.714285,0 1.428571,0 2.142857,0 0.208333,0 0.416666,0 0.625,0 0.08928,0 0.178571,0 0.267857,0 0.05952,0 0.120825,0.014 0.178571,0 0.06456,-0.016 0.114009,-0.073 0.178572,-0.089 0.05775,-0.014 0.122102,0.019 0.178571,0 0.03993,-0.013 0.05164,-0.07 0.08929,-0.089 0.08418,-0.042 0.183678,-0.047 0.267857,-0.089 0.09598,-0.048 0.171878,-0.1306 0.267857,-0.1786 0.02662,-0.013 0.06105,0.01 0.08929,0 0.357143,-0.1191 -0.01805,-0.086 0.446428,-0.1786 0.05837,-0.012 0.122103,0.019 0.178572,0 0.03993,-0.013 0.05561,-0.064 0.08929,-0.089 0.08585,-0.064 0.171877,-0.1306 0.267857,-0.1785 0.05324,-0.027 0.120825,0.014 0.178571,0 0.220661,-0.055 0.261693,-0.086 0.446429,-0.1786 0.05952,-0.03 0.115437,-0.068 0.178571,-0.089 0.05647,-0.019 0.122102,0.019 0.178572,0 0.186315,-0.062 0.260113,-0.2057 0.446428,-0.2679 0.02824,-0.01 0.06105,0.01 0.08929,0 0.06313,-0.021 0.115437,-0.068 0.178571,-0.089 0.02824,-0.01 0.06105,0.01 0.08929,0 0.06314,-0.021 0.116782,-0.065 0.178571,-0.089 0.08738,-0.035 0.183678,-0.047 0.267858,-0.089 0.07529,-0.038 0.10853,-0.1319 0.178571,-0.1786 0.231388,-0.1542 0.234184,-0.019 0.446429,-0.1786 0.386186,-0.3861 -0.02365,-0.014 0.357142,-0.2678 0.03502,-0.023 0.05164,-0.071 0.08929,-0.089 0.290398,-0.1452 0.212382,-0.023 0.446429,-0.1786 0.03502,-0.023 0.05952,-0.06 0.08928,-0.089 0.05952,-0.059 0.119048,-0.119 0.178572,-0.1785 0.06974,-0.07 0.216494,-0.1908 0.267857,-0.2679 0.03692,-0.055 0.05237,-0.1232 0.08929,-0.1786 0.02335,-0.035 0.05952,-0.059 0.08928,-0.089 0.02976,-0.06 0.05237,-0.1232 0.08929,-0.1786 0.02335,-0.035 0.05952,-0.06 0.08929,-0.089 0.08929,-0.089 0.178571,-0.1786 0.267857,-0.2679 0.02976,-0.03 0.07046,-0.052 0.08929,-0.089 0.01331,-0.027 -0.01331,-0.063 0,-0.089 0.01882,-0.038 0.06594,-0.054 0.08928,-0.089 0.03692,-0.055 0.04223,-0.1315 0.08929,-0.1786 0.04706,-0.047 0.123199,-0.052 0.178572,-0.089 0.08128,-0.054 0.188719,-0.2283 0.267857,-0.2678 0.02662,-0.013 0.06267,0.013 0.08928,0 0.04769,-0.024 0.220852,-0.2209 0.267858,-0.2679 0.119047,-0.119 0.238095,-0.2381 0.357142,-0.3571 0.05952,-0.059 0.10853,-0.1319 0.178572,-0.1786 0.05537,-0.037 0.123199,-0.052 0.178571,-0.089 0.07004,-0.047 0.119048,-0.119 0.178572,-0.1786 0.119047,-0.119 0.238095,-0.238 0.357143,-0.3571 0.02976,-0.03 0.05952,-0.06 0.08928,-0.089 0.02976,-0.03 0.05164,-0.07 0.08929,-0.089 0.02662,-0.013 0.06267,0.013 0.08929,0 0.03765,-0.019 0.05164,-0.07 0.08928,-0.089 0.262751,-0.1313 -0.117552,0.2069 0.178572,-0.089 -0.305616,1.2049 0.132308,-0.2697 -0.267877,0.5307 -0.02662,0.053 0.01444,0.1208 0,0.1785 -0.01614,0.065 -0.06457,0.1168 -0.08929,0.1786 -0.03495,0.087 -0.06646,0.1766 -0.08929,0.2679 -0.0072,0.029 0.01531,0.064 0,0.089 -0.07656,0.1276 -0.191295,0.2295 -0.267857,0.3571 -0.01531,0.025 0.01651,0.064 0,0.089 -0.04669,0.07 -0.140925,0.1033 -0.178571,0.1786 -0.02662,0.053 0.02211,0.1233 0,0.1785 -0.03985,0.1 -0.130582,0.1719 -0.178572,0.2679 -0.01331,0.027 0,0.059 0,0.089 0,0.06 0.01882,0.1221 0,0.1785 -0.01331,0.04 -0.07908,0.049 -0.08928,0.089 -0.02166,0.087 0.01751,0.1803 0,0.2679 -0.01305,0.065 -0.07315,0.114 -0.08929,0.1786 -0.01444,0.058 0.01882,0.1221 0,0.1785 -0.01331,0.04 -0.07046,0.052 -0.08929,0.089 -0.01331,0.027 0,0.059 0,0.089 -0.05952,0.06 -0.131877,0.1085 -0.178571,0.1786 -0.01651,0.025 0,0.06 0,0.089 0,0.06 0.01882,0.1221 0,0.1785 -0.01331,0.04 -0.05952,0.06 -0.08929,0.089 0,0.089 0.02166,0.1813 0,0.2679 -0.01021,0.041 -0.07046,0.052 -0.08929,0.089 -0.04209,0.084 -0.0472,0.1836 -0.08928,0.2678 -0.301024,0.4516 -0.08303,0.074 -0.267858,0.5357 -0.04943,0.1236 -0.14629,0.228 -0.178571,0.3572 -0.03307,0.1322 0.0496,0.3224 0,0.4464 -0.03126,0.078 -0.135262,0.1064 -0.178571,0.1786 -0.04842,0.081 -0.05433,0.1804 -0.08929,0.2678 -0.123157,0.3079 -0.07986,0.052 -0.178572,0.4465 -0.01444,0.058 0.01882,0.1221 0,0.1785 -0.107895,0.3237 -0.04236,0.064 -0.178571,0.2679 -0.300703,0.451 -6.9e-4,0 -0.08929,0.2678 -0.02105,0.063 -0.06824,0.1155 -0.08928,0.1786 -0.0094,0.028 0,0.059 0,0.089 0,0.1488 0,0.2976 0,0.4464 0,0.06 0.01444,0.1209 0,0.1786 -0.0051,0.021 -0.123867,0.288 -0.08929,0.3571 0.01882,0.038 0.05164,0.071 0.08929,0.089 0.0076,0 0.349531,0 0.357142,0 0.03765,-0.019 0.05952,-0.06 0.08929,-0.089 0.203227,-0.2032 -0.01849,-0.024 0.178572,-0.089 0.06313,-0.021 0.114008,-0.073 0.178571,-0.089 0.05775,-0.014 0.119048,0 0.178571,0 0.128183,0 0.340347,0.027 0.446429,0 0.04083,-0.01 0.04936,-0.076 0.08929,-0.089 0.07395,-0.025 0.389648,0.028 0.446428,0 0.03765,-0.019 0.05164,-0.071 0.08929,-0.089 0.02662,-0.013 0.05952,0 0.08929,0 0.07299,0 0.579747,0.015 0.625,0 0.170405,-0.057 0.04316,-0.1756 0.08928,-0.2679 0.01882,-0.038 0.07598,-0.049 0.08929,-0.089 0.01882,-0.057 -0.01444,-0.1209 0,-0.1786 0.01614,-0.065 0.06824,-0.1154 0.08929,-0.1786 0.0094,-0.028 -0.01331,-0.063 0,-0.089 0.01882,-0.038 0.07046,-0.052 0.08929,-0.089 0.01331,-0.027 -0.0072,-0.06 0,-0.089 0.02283,-0.091 0.05433,-0.1805 0.08928,-0.2679 0.09524,-0.2381 0.119347,-0.1503 0.178572,-0.4464 0.01167,-0.058 -0.01167,-0.1202 0,-0.1786 0.03692,-0.1846 0.132918,-0.3531 0.178571,-0.5357 0.01444,-0.058 0,-0.1191 0,-0.1786 0,-0.1059 -0.01733,-0.6276 0,-0.7143 -0.05382,-0.1616 0.144638,-0.166 0.178572,-0.2678 0.01882,-0.056 0,-0.1191 0,-0.1786 0,-0.03 -0.01331,-0.063 0,-0.089 0.01882,-0.038 0.07597,-0.049 0.08928,-0.089 0.03882,-0.1164 -0.02564,-0.3182 0,-0.4464 0.02407,-0.1203 0.06522,-0.2368 0.08929,-0.3571 0.04464,-0.2233 -0.08929,0.089 0,-0.2679 0.01614,-0.065 0.06824,-0.1154 0.08929,-0.1786 0.02328,-0.07 -0.02779,-0.4047 0,-0.4464 0.04669,-0.07 0.131877,-0.1085 0.178571,-0.1786 0.02592,-0.039 -0.02356,-0.2207 0,-0.2678 0.01882,-0.038 0.07598,-0.049 0.08929,-0.089 0.01882,-0.057 0,-0.1191 0,-0.1786 0,-0.03 -0.01331,-0.063 0,-0.089 0.01882,-0.038 0.07046,-0.052 0.08929,-0.089 0.01331,-0.027 0,-0.059 0,-0.089 0,-0.06 -0.01444,-0.1209 0,-0.1786 0.01614,-0.065 0.06824,-0.1154 0.08928,-0.1786 0.02824,-0.085 -0.02166,-0.1812 0,-0.2678 0.03604,-0.1442 0.08781,-0.1771 0.178572,-0.2679"
       id="path3869"
       inkscape:connector-curvature="0" />
    <path
       style="fill:none;fill-rule:evenodd;stroke:#000000;stroke-width:1px;stroke-linecap:butt;stroke-linejoin:miter;stroke-opacity:1"
       d="m 52.5,1034.9514 c 0.08929,0.1191 0.178572,0.2381 0.267857,0.3572 0.02976,0.059 0.05237,0.1232 0.08929,0.1786 0.04669,0.07 0.119048,0.119 0.178571,0.1785 0.02976,0.03 0.05952,0.06 0.08929,0.089 0.02976,0.03 0.04936,0.076 0.08929,0.089 0.05647,0.019 0.122102,-0.019 0.178571,0 0.07947,0.026 0.188386,0.2414 0.267857,0.2679 0.05647,0.019 0.120825,-0.014 0.178572,0 0.06456,0.016 0.115437,0.068 0.178571,0.089 0.02824,0.01 0.06267,-0.013 0.08929,0 0.03765,0.019 0.05164,0.07 0.08929,0.089 0.05324,0.027 0.129044,-0.033 0.178571,0 0.07004,0.047 0.103279,0.141 0.178572,0.1786 0.07549,0.038 0.351004,-0.032 0.446428,0 0.06314,0.021 0.115437,0.068 0.178572,0.089 0.02823,0.01 0.05952,0 0.08928,0 0.05952,0 0.119048,0 0.178572,0 0.05952,0 0.119047,0 0.178571,0 0.02976,0 0.06267,0.013 0.08929,0 0.408626,-0.2043 -0.378877,0.037 0.267857,-0.1786 0.02824,-0.01 0.06105,0.01 0.08929,0 0.06313,-0.021 0.115437,-0.068 0.178571,-0.089 0.116414,-0.039 0.243208,-0.044 0.357143,-0.089 0.03908,-0.016 0.05952,-0.06 0.08929,-0.089 0.02976,-0.03 0.05952,-0.06 0.08928,-0.089 0.141364,-0.1414 0.4094,-0.441 0.535715,-0.5357 0.02381,-0.018 0.06267,0.013 0.08928,0 0.03765,-0.019 0.05952,-0.06 0.08929,-0.089 0.02976,-0.03 0.05952,-0.059 0.08929,-0.089 0.119047,-0.1191 0.238095,-0.2381 0.357143,-0.3571 0.148809,-0.1489 0.297619,-0.2977 0.446428,-0.4465 0.02976,-0.03 0.07046,-0.052 0.08929,-0.089 0.01331,-0.027 -0.01651,-0.064 0,-0.089 0.04669,-0.07 0.128064,-0.1113 0.178571,-0.1786 0.03993,-0.053 0.05237,-0.1232 0.08929,-0.1786 0.04669,-0.07 0.140925,-0.1033 0.178572,-0.1786 0.01331,-0.027 -0.01331,-0.063 0,-0.089 0.03765,-0.075 0.140925,-0.1033 0.178571,-0.1786 0.01331,-0.027 0,-0.059 0,-0.089 0.02976,-0.06 0.04936,-0.1253 0.08929,-0.1786 0.05051,-0.067 0.131877,-0.1085 0.178571,-0.1785 0.01651,-0.025 0,-0.06 0,-0.089 0,-0.06 -0.01444,-0.1209 0,-0.1786 0.01614,-0.065 0.07314,-0.114 0.08929,-0.1786 0.01444,-0.058 -0.01444,-0.1208 0,-0.1785 0.01614,-0.065 0.07623,-0.1134 0.08929,-0.1786 0.01751,-0.088 -0.03316,-0.185 0,-0.2679 0.03126,-0.078 0.147308,-0.1004 0.178571,-0.1785 0.15873,-0.3969 -0.05291,-0.1455 0,-0.3572 0.185793,-0.7432 -0.0062,0.1078 0.178571,-0.4464 0.0094,-0.028 0,-0.059 0,-0.089 0,-0.06 0,-0.119 0,-0.1786 0,-0.1488 0,-0.2976 0,-0.4464 0,-0.06 0,-0.119 0,-0.1786 0,-0.03 -0.0094,-0.061 0,-0.089 0.021,-0.063 0.0682,-0.1154 0.08924,-0.1785 0.01658,-0.05 -0.02296,-0.2335 0,-0.2679 0.04669,-0.07 0.131877,-0.1085 0.178572,-0.1786 0.03302,-0.05 -0.02662,-0.1253 0,-0.1785 0.01882,-0.038 0.07908,-0.049 0.08928,-0.089 0.01333,-0.053 0,-0.565 0,-0.625 0,-0.03 -0.0094,-0.061 0,-0.089 0.02105,-0.063 0.07315,-0.114 0.08929,-0.1786 0.01444,-0.058 0,-0.119 0,-0.1786 0,-0.1785 0,-0.3571 0,-0.5357 0,-0.06 -0.01882,-0.1221 0,-0.1785 0.02105,-0.063 0.06824,-0.1155 0.08929,-0.1786 0.01679,-0.05 0,-0.2092 0,-0.2679 0,-0.2678 0,-0.5357 0,-0.8035 0,-0.047 -0.01174,-0.3337 0,-0.3572 0.03765,-0.075 0.151951,-0.099 0.178571,-0.1786 0.01693,-0.051 0,-0.3623 0,-0.4464 0,-0.035 0.01907,-0.4083 0,-0.4464 -0.01882,-0.038 -0.07046,-0.052 -0.08929,-0.089 -0.02457,-0.049 0.02327,-0.4659 0,-0.5357 -0.01331,-0.04 -0.07046,-0.052 -0.08928,-0.089 -0.01001,-0.02 0,-0.3359 0,-0.3571 0,-0.04 0.01359,-0.2407 0,-0.2679 -0.01882,-0.038 -0.07046,-0.052 -0.08929,-0.089 -0.02662,-0.053 0.02662,-0.1253 0,-0.1785 -0.01882,-0.038 -0.05952,-0.06 -0.08929,-0.089 -0.08928,-0.089 -0.178567,-0.1786 -0.267853,-0.2679 -0.02976,-0.03 -0.06594,-0.054 -0.08929,-0.089 -0.03692,-0.055 -0.05237,-0.1232 -0.08928,-0.1786 -0.04669,-0.07 -0.119048,-0.119 -0.178572,-0.1785 -0.119047,-0.1191 -0.238095,-0.2381 -0.357143,-0.3572 -0.05952,-0.06 -0.119047,-0.119 -0.178571,-0.1785 -0.02976,-0.03 -0.06594,-0.054 -0.08929,-0.089 -0.03692,-0.055 -0.04936,-0.1254 -0.08928,-0.1786 -0.05051,-0.067 -0.119048,-0.1191 -0.178572,-0.1786 -0.119047,-0.119 -0.238095,-0.2381 -0.357143,-0.3571 -0.05952,-0.059 -0.10853,-0.1319 -0.178571,-0.1786 -0.04496,-0.1967 -0.183678,-0.047 -0.267857,-0.089 -0.03765,-0.019 -0.05427,-0.066 -0.08929,-0.089 -0.647373,-0.3236 0.141173,0.094 -0.267857,-0.1785 -0.04496,-0.1967 -0.183678,-0.047 -0.267857,-0.089 -0.03765,-0.019 -0.05164,-0.07 -0.08929,-0.089 -0.05324,-0.027 -0.122102,0.019 -0.178571,0 -0.505865,-0.2529 0.133099,0.033 -0.357143,-0.089 -0.144145,-0.036 -0.177097,-0.088 -0.267857,-0.1786 -0.02976,-0.03 -0.04936,-0.076 -0.08929,-0.089 -0.05647,-0.019 -0.122102,0.019 -0.178572,0 -0.03993,-0.013 -0.05164,-0.07 -0.08928,-0.089 -0.02662,-0.013 -0.06105,0.01 -0.08929,0 -0.06314,-0.021 -0.115437,-0.068 -0.178571,-0.089 -0.08036,-0.027 -0.1875,0.027 -0.267858,0 -0.766588,-0.2556 -8.76e-4,-0.1119 -0.625,-0.2679 -0.118295,-0.03 -0.323638,0.031 -0.446428,0 -0.04083,-0.01 -0.04936,-0.076 -0.08929,-0.089 -0.05647,-0.019 -0.120825,0.014 -0.178571,0 -0.06456,-0.016 -0.114009,-0.073 -0.178572,-0.089 -0.05775,-0.014 -0.120825,0.014 -0.178571,0 -0.161602,0.054 -0.166056,-0.1446 -0.267857,-0.1786 -0.05647,-0.019 -0.120825,0.014 -0.178572,0 -0.06456,-0.016 -0.115437,-0.068 -0.178571,-0.089 -0.02824,-0.01 -0.05952,0 -0.08929,0 -0.05952,-0.03 -0.115437,-0.068 -0.178571,-0.089 -0.02824,-0.01 -0.05952,0 -0.08929,0 -0.08929,0 -0.180305,0.018 -0.267857,0 -0.06526,-0.013 -0.113314,-0.076 -0.178572,-0.089 -0.08755,-0.018 -0.183153,0.028 -0.267857,0 -0.101779,-0.034 -0.171856,-0.1305 -0.267835,-0.1785 -0.05157,-0.026 -0.448116,0.022 -0.535714,0 -0.06456,-0.016 -0.115437,-0.068 -0.178572,-0.089 -0.02823,-0.01 -0.05952,0 -0.08928,0 -0.14881,0 -0.299644,0.024 -0.446429,0 -0.09284,-0.016 -0.176552,-0.067 -0.267857,-0.089 -0.02887,-0.01 -0.05952,0 -0.08929,0 -0.06866,0 -0.453121,0.021 -0.535714,0 -0.0913,-0.023 -0.176552,-0.066 -0.267857,-0.089 -0.05775,-0.014 -0.119048,0 -0.178572,0 -0.208333,0 -0.416666,0 -0.625,0 -0.02976,0 -0.06105,0.01 -0.08928,0 -0.126269,-0.042 -0.230874,-0.1365 -0.357143,-0.1786 -0.02824,-0.01 -0.06267,0.013 -0.08929,0 -0.03765,-0.019 -0.05164,-0.07 -0.08929,-0.089 -0.02662,-0.013 -0.05952,0 -0.08928,0 -0.08929,0 -0.178572,0 -0.267857,0 -0.119048,0 -0.238096,0 -0.357143,0 -0.584952,0 0.05189,0.028 -0.535715,-0.089 -0.145919,-0.029 -0.299114,0.021 -0.446428,0 -0.121478,-0.017 -0.236101,-0.069 -0.357143,-0.089 -0.650229,-0.1083 0.695387,0.288 -0.625,-0.089 -0.408037,-0.1166 0.09003,-0.089 -0.446429,-0.1786 -0.119877,-0.02 -0.578869,0 -0.714285,0 -0.02976,0 -0.06105,0.01 -0.08929,0 -0.06314,-0.021 -0.114009,-0.073 -0.178571,-0.089 -0.05775,-0.014 -0.119048,0 -0.178572,0 -0.05952,0 -0.119048,0 -0.178571,0 -0.02976,0 -0.06105,0.01 -0.08929,0 -0.06314,-0.021 -0.115437,-0.068 -0.178571,-0.089 -0.05647,-0.019 -0.119048,0 -0.178572,0 -0.119048,0 -0.238095,0 -0.357143,0 -0.05952,0 -0.120203,0.012 -0.178571,0 -0.338009,0.3005 -0.290941,-0.1397 -0.446429,-0.1786 -0.196078,-0.049 -0.428921,0.049 -0.625,0 -0.04083,-0.01 -0.04936,-0.076 -0.08928,-0.089 -0.121911,-0.041 -0.413805,0.041 -0.535715,0 -0.03993,-0.013 -0.04845,-0.079 -0.08928,-0.089 -0.205889,-0.051 -0.508398,0.051 -0.714286,0 -0.441322,-0.1104 0.18685,-0.089 -0.178572,-0.089 -0.07215,0 -0.69273,0.01 -0.714285,0 -0.07986,-0.027 -0.103279,-0.141 -0.178572,-0.1786 -0.01469,-0.01 -0.32256,0.01 -0.357143,0 -0.09229,-0.019 -0.176551,-0.067 -0.267857,-0.089 -0.115956,-0.029 -0.332756,0.028 -0.446428,0 -0.06456,-0.016 -0.115437,-0.068 -0.178572,-0.089 -0.02823,-0.01 -0.05952,0 -0.08928,0 -0.07299,0 -0.579748,0.015 -0.625,0 -0.03993,-0.013 -0.05164,-0.07 -0.08929,-0.089 -0.02662,-0.013 -0.05952,0 -0.08929,0 -0.02976,0 -0.05952,0 -0.08929,0 -0.208333,0 -0.416666,0 -0.625,0"
       id="path3871"
       inkscape:connector-curvature="0" />
    <path
       style="fill:none;fill-rule:evenodd;stroke:#000000;stroke-width:1px;stroke-linecap:butt;stroke-linejoin:miter;stroke-opacity:1"
       d="m 56.517857,1020.3086 c -0.05952,-0.1191 -0.110092,-0.243 -0.178571,-0.3572 -0.02166,-0.036 -0.06594,-0.054 -0.08929,-0.089 -0.03692,-0.055 -0.05237,-0.1232 -0.08929,-0.1786 -0.170328,-0.2555 -0.01673,0.1367 -0.178571,-0.2679 -0.183987,-0.1208 -0.0413,-0.3024 -0.08929,-0.4464 -0.04208,-0.1263 -0.119035,-0.2381 -0.178559,-0.3571 -0.02976,-0.06 -0.05505,-0.1215 -0.08929,-0.1786 -0.05521,-0.092 -0.123362,-0.1759 -0.178571,-0.2679 -0.102719,-0.1712 -0.168804,-0.3623 -0.267857,-0.5357 -0.05324,-0.093 -0.130582,-0.1719 -0.178572,-0.2678 -0.01331,-0.027 0.0094,-0.061 0,-0.089 -0.02105,-0.063 -0.07314,-0.114 -0.08929,-0.1786 -0.01444,-0.058 0.02211,-0.1233 0,-0.1786 -0.03985,-0.1 -0.114186,-0.182 -0.178571,-0.2678 -0.02525,-0.034 -0.07598,-0.049 -0.08929,-0.089 -0.03765,-0.113 0.02335,-0.2404 0,-0.3572 -0.01846,-0.092 -0.07083,-0.1755 -0.08928,-0.2678 -0.03307,-0.1654 0.03307,-0.4597 0,-0.625 -0.01846,-0.092 -0.07083,-0.1756 -0.08929,-0.2679 -0.01167,-0.058 0,-0.119 0,-0.1785 0,-0.2084 0,-0.4167 0,-0.625 0,-0.2977 0,-0.5953 0,-0.8929 0,-0.059 0,-0.1191 0,-0.1786 0,-0.03 -0.0094,-0.061 0,-0.089 0.02105,-0.063 0.06824,-0.1154 0.08929,-0.1785 0.0094,-0.028 -0.01651,-0.065 0,-0.089 0.04669,-0.07 0.135261,-0.1064 0.178571,-0.1786 0.307787,-0.513 -0.06903,-0.1095 0.178571,-0.3571 0.02976,-0.03 0.05427,-0.066 0.08929,-0.089 0.153894,-0.1026 0.134963,-0.089 0.267857,-0.089 0.02976,0 0.06267,0.013 0.08929,0 0.221129,0.05 0.224044,-0.2013 0.357143,-0.2679 0.08418,-0.042 0.180473,-0.054 0.267857,-0.089 0.06179,-0.025 0.119048,-0.06 0.178571,-0.089 0.05952,-0.03 0.123199,-0.052 0.178572,-0.089 0.07004,-0.047 0.103279,-0.141 0.178571,-0.1786 0.02662,-0.013 0.06267,0.013 0.08929,0 0.03765,-0.019 0.05952,-0.059 0.08929,-0.089 0.05952,0 0.120825,0.014 0.178571,0 0.103866,-0.026 0.39842,-0.2319 0.446429,-0.2679 0.03367,-0.025 0.05164,-0.07 0.08928,-0.089 0.02662,-0.013 0.06105,0.01 0.08929,0 0.06314,-0.021 0.119048,-0.059 0.178572,-0.089 0.05952,-0.03 0.125331,-0.049 0.178571,-0.089 0.101015,-0.076 0.178571,-0.1786 0.267857,-0.2679 0.08929,-0.089 0.178572,-0.1786 0.267857,-0.2679 0.05952,-0.059 0.128064,-0.1112 0.178572,-0.1785 0.06439,-0.086 0.114186,-0.182 0.178571,-0.2679 0.02525,-0.034 0.06594,-0.054 0.08929,-0.089 0.104695,-0.157 0.105972,-0.2649 0.178571,-0.4464 0.133639,-0.3341 0.05823,-0.027 0.267857,-0.4464 0.01331,-0.027 -0.0094,-0.061 0,-0.089 0.252933,-0.5059 -0.03327,0.1331 0.08929,-0.3572 0.01614,-0.064 0.07314,-0.114 0.08929,-0.1785 0.01444,-0.058 -0.02662,-0.1254 0,-0.1786 0.03765,-0.075 0.147308,-0.1004 0.178571,-0.1786 0.03316,-0.083 -0.01751,-0.1803 0,-0.2678 0.01305,-0.065 0.06824,-0.1155 0.08929,-0.1786 0.0094,-0.028 0,-0.06 0,-0.089 0,-0.059 -0.01882,-0.1221 0,-0.1786 0.01331,-0.04 0.07598,-0.049 0.08929,-0.089 0.01882,-0.056 -0.01444,-0.1208 0,-0.1785 0.01614,-0.065 0.06824,-0.1155 0.08928,-0.1786 0.01658,-0.05 -0.02295,-0.2334 0,-0.2679 0.04669,-0.07 0.131878,-0.1085 0.178572,-0.1785 0.03302,-0.05 -0.02662,-0.1254 0,-0.1786 0.01882,-0.038 0.07598,-0.049 0.08929,-0.089 0.01882,-0.057 -0.01882,-0.1221 0,-0.1786 0.01331,-0.04 0.07046,-0.052 0.08928,-0.089 0.01331,-0.027 -0.01331,-0.063 0,-0.089 0.01882,-0.038 0.05952,-0.06 0.08929,-0.089 0.02976,-0.03 0.05164,-0.071 0.08929,-0.089 0.158055,-0.079 0.03051,0.1328 0.178571,-0.089 0.05437,-0.082 0.07621,-0.2167 0.178572,-0.2679 0.02662,-0.013 0.06266,0.013 0.08928,0 0.02371,-0.012 0.256004,-0.2441 0.267857,-0.2678 0.01331,-0.027 -0.01331,-0.063 0,-0.089 0.01882,-0.038 0.05952,-0.059 0.08929,-0.089 0.02976,-0.03 0.0472,-0.089 0.08929,-0.089 0.04209,0 0.05952,0.059 0.08929,0.089 0.02976,0.03 0.07046,0.052 0.08928,0.089 0.02028,0.041 -0.0056,0.5134 0,0.5357 0.01021,0.041 0.07046,0.052 0.08929,0.089 0.02959,0.059 -0.02494,0.2823 0,0.3571 0.252932,0.5059 -0.03328,-0.1331 0.08929,0.3572 -0.05382,0.1616 0.144637,0.166 0.178571,0.2678 0.02824,0.085 0,0.1786 0,0.2679 0,0.2083 0,0.4167 0,0.625 0,0.068 0.01875,0.4795 0,0.5357 -0.07443,0.2233 -0.372311,0.4616 -0.535714,0.625 -0.14881,0.1488 -0.297619,0.2976 -0.446429,0.4464 -0.05952,0.06 -0.10853,0.1319 -0.178571,0.1786 -0.05537,0.037 -0.125332,0.049 -0.178572,0.089 -0.06734,0.051 -0.119047,0.119 -0.178571,0.1786 -0.02976,0.03 -0.05164,0.07 -0.08929,0.089 -0.02662,0.013 -0.06267,-0.013 -0.08928,0 -0.02371,0.012 -0.256004,0.2441 -0.267858,0.2678 -0.01331,0.027 0.01331,0.063 0,0.089 -0.01882,0.038 -0.06594,0.054 -0.08928,0.089 -0.216218,0.3243 0.02615,0.063 -0.178572,0.2679 -0.047,0.047 -0.244014,0.2201 -0.267857,0.2678 -0.04209,0.084 -0.0472,0.1837 -0.08929,0.2679 -0.03765,0.075 -0.131877,0.1085 -0.178571,0.1785 -0.03692,0.055 -0.05237,0.1232 -0.08929,0.1786 -0.02335,0.035 -0.06594,0.054 -0.08928,0.089 -0.03692,0.055 -0.05237,0.1232 -0.08929,0.1786 -0.04669,0.07 -0.131877,0.1085 -0.178572,0.1785 -0.03692,0.055 -0.05237,0.1232 -0.08928,0.1786 -0.02335,0.035 -0.07598,0.049 -0.08929,0.089 -0.01882,0.057 0.01882,0.1221 0,0.1786 -0.02015,0.06 -0.233755,0.1996 -0.267857,0.2678 -0.04209,0.084 -0.0472,0.1837 -0.08929,0.2679 -0.01882,0.038 -0.05952,0.059 -0.08929,0.089 -0.05952,0.059 -0.131877,0.1085 -0.178571,0.1786 -0.01651,0.025 0,0.059 0,0.089 -0.02976,0.03 -0.05952,0.06 -0.08929,0.089 -0.02976,0.03 -0.05952,0.06 -0.08928,0.089 -0.02976,0.03 -0.07598,0.049 -0.08929,0.089 -0.01882,0.056 0.02662,0.1253 0,0.1786 -0.08929,0.1786 -0.178572,0.1339 -0.267857,0.2678 -0.196711,0.045 -0.0472,0.1837 -0.08929,0.2679 -0.01882,0.038 -0.06594,0.054 -0.08929,0.089 -0.03692,0.055 -0.05237,0.1232 -0.08928,0.1786 -0.04669,0.07 -0.140926,0.1032 -0.178572,0.1785 -0.02662,0.053 0.01882,0.1221 0,0.1786 -0.02105,0.063 -0.06824,0.1154 -0.08929,0.1786 -0.01882,0.056 0.02662,0.1253 0,0.1785 -0.01882,0.038 -0.07597,0.049 -0.08928,0.089 -0.016,0.048 0,0.2816 0,0.3572 0,0.2976 0,0.5952 0,0.8928 0,0.1786 0,0.3572 0,0.5357 0,0.089 0,0.1786 0,0.2679 0,0.059 -0.01882,0.1221 0,0.1786 0.02105,0.063 0.07314,0.114 0.08928,0.1785 0.01444,0.058 -0.02662,0.1254 0,0.1786 0.03765,0.075 0.131878,0.1086 0.178572,0.1786 0.01651,0.025 -0.01331,0.063 0,0.089 0.01882,0.038 0.07046,0.052 0.08929,0.089 0.01331,0.027 -0.01331,0.063 0,0.089 0.01882,0.038 0.07597,0.049 0.08928,0.089 0.01882,0.056 -0.01882,0.1221 0,0.1785 0.01331,0.04 0.07046,0.052 0.08929,0.089 0.02662,0.053 -0.01444,0.1208 0,0.1786 0.02283,0.091 0.0472,0.1837 0.08929,0.2678 0.03765,0.075 0.151951,0.099 0.178571,0.1786 0.03163,0.095 -0.03162,0.2623 0,0.3572 0.02105,0.063 0.06824,0.1154 0.08929,0.1785 0.01937,0.058 0,0.5503 0,0.625"
       id="path3873"
       inkscape:connector-curvature="0" />
    <path
       style="fill:none;fill-rule:evenodd;stroke:#000000;stroke-width:1px;stroke-linecap:butt;stroke-linejoin:miter;stroke-opacity:1"
       d="m 16.517857,1007.8979 c -0.05644,-0.2258 -0.09318,-0.4115 -0.178571,-0.625 -0.02472,-0.062 -0.06457,-0.1168 -0.08929,-0.1786 -0.0726,-0.1815 -0.07388,-0.2894 -0.178571,-0.4464 -0.02335,-0.035 -0.07046,-0.052 -0.08929,-0.089 -0.04209,-0.084 -0.05433,-0.1805 -0.08929,-0.2679 -0.02472,-0.062 -0.06457,-0.1168 -0.08929,-0.1785 -0.03495,-0.087 -0.04086,-0.1872 -0.08929,-0.2679 -0.04331,-0.072 -0.119048,-0.119 -0.178572,-0.1786 -0.02976,-0.03 -0.07597,-0.049 -0.08929,-0.089 -0.01882,-0.056 0.01882,-0.1221 0,-0.1785 -0.01331,-0.04 -0.05952,-0.06 -0.08929,-0.089 -0.02976,-0.03 -0.05952,-0.059 -0.08929,-0.089 -0.05952,-0.059 -0.119047,-0.1191 -0.178571,-0.1786 0,-0.03 0.01331,-0.063 0,-0.089 -0.03547,-0.071 -0.143104,-0.1076 -0.178572,-0.1785 -0.04209,-0.084 -0.04086,-0.1872 -0.08929,-0.2679 -0.04331,-0.072 -0.119048,-0.1191 -0.178572,-0.1786 -0.02976,-0.03 -0.07046,-0.052 -0.08929,-0.089 -0.01331,-0.027 0.01331,-0.063 0,-0.089 -0.03765,-0.075 -0.140925,-0.1032 -0.178571,-0.1785 -0.01331,-0.027 0.01651,-0.064 0,-0.089 -0.07004,-0.1051 -0.178571,-0.1786 -0.267857,-0.2679 -0.14881,-0.1488 -0.297619,-0.2976 -0.446429,-0.4464 -0.119047,-0.1191 -0.238095,-0.2381 -0.357143,-0.3571 -0.05952,-0.06 -0.108529,-0.1319 -0.178571,-0.1786 -0.05537,-0.037 -0.123199,-0.052 -0.178571,-0.089 -0.105063,-0.07 -0.166842,-0.1921 -0.267858,-0.2679 -0.05324,-0.04 -0.123198,-0.052 -0.178571,-0.089 -0.03502,-0.023 -0.05164,-0.07 -0.08929,-0.089 -0.02662,-0.013 -0.06267,0.013 -0.08929,0 -0.03765,-0.019 -0.04936,-0.076 -0.08929,-0.089 -0.05647,-0.019 -0.125332,0.027 -0.178572,0 -0.07529,-0.038 -0.119047,-0.1191 -0.178571,-0.1786 -0.02976,-0.03 -0.04936,-0.076 -0.08929,-0.089 -0.05647,-0.019 -0.120825,0.014 -0.178571,0 -0.06456,-0.016 -0.115437,-0.068 -0.178572,-0.089 -0.02823,-0.01 -0.06105,0.01 -0.08929,0 -0.06313,-0.021 -0.115437,-0.068 -0.178572,-0.089 -0.05269,-0.017 -0.396542,0 -0.446428,0 -0.02976,0 -0.06105,0.01 -0.08929,0 -0.6467336,-0.2155 0.140769,0.026 -0.267857,-0.1785 -0.02656,-0.013 -0.4981553,0 -0.5357144,0 -0.029762,0 -0.062666,-0.013 -0.089286,0 -0.037646,0.019 -0.05164,0.07 -0.089286,0.089 -0.02662,0.013 -0.059524,0 -0.089286,0 -0.059524,0 -0.1190477,0 -0.1785715,0 -0.086506,0 -0.4824758,-0.018 -0.5357143,0 -0.3477167,0.1159 -0.00835,0.089 -0.3571428,0.089 -0.029762,0 0.059524,0 0.089286,0 0.089286,0 0.1785714,0 0.2678571,0 0.1488096,0 0.2976191,0 0.4464286,0 0.029762,0 0.059524,0 0.089286,0 0.029762,0 0.062666,-0.013 0.089286,0 0.037646,0.019 0.05164,0.071 0.089286,0.089 0.05324,0.027 0.1290446,-0.033 0.1785714,0 0.070042,0.047 0.1190476,0.1191 0.1785714,0.1786 0.029762,0.03 0.05164,0.07 0.089286,0.089 0.026618,0.013 0.06267,-0.013 0.089288,0 0.03765,0.019 0.05952,0.059 0.08929,0.089 0.02976,0.03 0.05952,0.059 0.08929,0.089 0.05952,0.06 0.119048,0.119 0.178572,0.1785 0.02976,0.03 0.05164,0.071 0.08929,0.089 0.02662,0.013 0.06267,-0.013 0.08929,0 0.03765,0.019 0.05952,0.059 0.08929,0.089 0.02976,0.03 0.07046,0.052 0.08929,0.089 0.01331,0.027 -0.01331,0.063 0,0.089 0.01882,0.038 0.06594,0.054 0.08929,0.089 0.03692,0.055 0.05237,0.1232 0.08929,0.1786 0.04669,0.07 0.140925,0.1032 0.178571,0.1785 0.01331,0.027 -0.0094,0.061 0,0.089 0.04209,0.1263 0.136482,0.2309 0.178572,0.3572 0.0094,0.028 -0.01651,0.064 0,0.089 0.1938,0.2907 0.166088,0.052 0.267857,0.3571 0.02823,0.085 -0.02166,0.1812 0,0.2679 0.01614,0.064 0.06824,0.1154 0.08929,0.1785 0.0094,0.028 -0.0094,0.061 0,0.089 0.02104,0.063 0.07315,0.114 0.08929,0.1786 0.02887,0.1155 -0.01957,0.2397 0,0.3571 0.178069,1.0684 -0.02444,0.04 0.178572,0.4465 0.01331,0.027 0,0.059 0,0.089 0,0.089 0,0.1786 0,0.2679 0,0.06 -0.01882,0.1221 0,0.1786 0.02105,0.063 0.07315,0.114 0.08929,0.1785 0.01756,0.07 0,0.4429 0,0.5358 0,0.03 -0.0072,0.06 0,0.089 0.02283,0.091 0.07083,0.1755 0.08929,0.2678 0.03307,0.1653 -0.03307,0.4597 0,0.625 0.01846,0.092 0.07083,0.1756 0.08929,0.2679 0.01167,0.058 0,0.119 0,0.1785 0,0.089 0,0.1786 0,0.2679 0,0.03 -0.0094,0.061 0,0.089 0.04209,0.1263 0.14629,0.228 0.178571,0.3571 0.01444,0.058 0,0.1191 0,0.1786 0,0.089 0,0.1786 0,0.2679 0,0.2083 0,0.4166 0,0.625 0,0.089 -0.02166,0.1812 0,0.2678 0.01614,0.065 0.06824,0.1154 0.08929,0.1786 0.0094,0.028 0,0.059 0,0.089 0,0.059 0,0.119 0,0.1785 0,0.2084 0,0.4167 0,0.625 0,0.089 -0.02824,0.1832 0,0.2679 0.01331,0.04 0.07046,0.052 0.08929,0.089 0.01606,0.032 -5.18e-4,0.4438 0,0.4464 0.01305,0.065 0.07315,0.114 0.08929,0.1786 0.01088,0.043 -0.0236,0.3099 0,0.3571 0.03765,0.075 0.140926,0.1033 0.178572,0.1786 0.01331,0.027 -0.01331,0.063 0,0.089 0.0085,0.017 0.340052,0.3486 0.357143,0.3571 0.05324,0.027 0.125331,-0.027 0.178571,0 0.07529,0.038 0.103279,0.141 0.178572,0.1786 0.07143,0.036 0.196428,-0.036 0.267857,0 0.03765,0.019 0.05952,0.06 0.08929,0.089"
       id="path3875"
       inkscape:connector-curvature="0" />
    <path
       style="fill:none;fill-rule:evenodd;stroke:#000000;stroke-width:1px;stroke-linecap:butt;stroke-linejoin:miter;stroke-opacity:1"
       d="m 34.107143,1006.2014 c 0.119048,-0.03 0.243208,-0.044 0.357143,-0.089 0.179629,-0.072 0.02105,-0.1314 0.08929,-0.2679 0.04393,-0.088 0.313213,-0.2693 0.357142,-0.3571 0.01331,-0.027 -0.01331,-0.063 0,-0.089 0.01882,-0.038 0.06594,-0.054 0.08929,-0.089 0.03692,-0.055 0.04223,-0.1315 0.08929,-0.1786 0.04706,-0.047 0.131514,-0.042 0.178571,-0.089 0.09412,-0.094 0.08446,-0.263 0.178572,-0.3571 0.02105,-0.021 0.06267,0.013 0.08928,0 0.03765,-0.019 0.05164,-0.07 0.08929,-0.089 0.02662,-0.013 0.06452,0.017 0.08929,0 0.07004,-0.047 0.10853,-0.1319 0.178571,-0.1786 0.02476,-0.017 0.05952,0 0.08929,0 0.05952,0 0.122102,0.019 0.178571,0 0.03993,-0.013 0.04845,-0.079 0.08929,-0.089 0.08662,-0.022 0.178572,0 0.267857,0 0.02976,0 0.06105,0.01 0.08929,0 0.505865,-0.2529 -0.133099,0.033 0.357143,-0.089 0.06456,-0.016 0.114009,-0.073 0.178571,-0.089 0.05775,-0.014 0.119048,0 0.178572,0 0.134086,0 0.328117,0.024 0.446428,0 0.161602,0.054 0.166056,-0.1446 0.267857,-0.1785 0.05647,-0.019 0.120825,0.014 0.178572,0 0.06456,-0.016 0.115437,-0.068 0.178571,-0.089 0.0847,-0.028 0.180306,0.018 0.267857,0 0.09229,-0.019 0.17557,-0.071 0.267858,-0.089 0.199186,-0.04 0.428149,0.049 0.625,0 0.441322,-0.1103 -0.186851,-0.089 0.178571,-0.089 0.119048,0 0.238095,0 0.357143,0 0.02976,0 0.05952,0 0.08929,0 0.02976,0 0.06452,0.016 0.08928,0 0.07004,-0.047 0.10853,-0.1319 0.178572,-0.1786 0.02476,-0.016 0.05952,0 0.08928,0 0.02976,0 0.05952,0 0.08929,0 0.178572,0 0.357143,0 0.535714,0 0.565477,0 1.130953,0 1.696429,0"
       id="path3877"
       inkscape:connector-curvature="0" />
    <path
       style="fill:none;fill-rule:evenodd;stroke:#000000;stroke-width:1px;stroke-linecap:butt;stroke-linejoin:miter;stroke-opacity:1"
       d="m 42.589286,1003.88 c 0,0.8036 0,1.6072 0,2.4107 0,0.1786 0,0.3572 0,0.5357 0,0.089 0.01751,0.1804 0,0.2679 -0.01305,0.065 -0.07315,0.114 -0.08929,0.1786 -0.02166,0.087 0.02824,0.1831 0,0.2678 -0.107895,0.3237 -0.04236,0.064 -0.178571,0.2679 -0.03692,0.055 -0.05237,0.1232 -0.08929,0.1786 -0.02335,0.035 -0.07046,0.052 -0.08929,0.089 -0.145199,0.2903 -0.02254,0.2123 -0.178571,0.4464 -0.04669,0.07 -0.119048,0.119 -0.178572,0.1786 -0.101874,0.1018 -0.363069,0.3352 -0.446428,0.4464 -0.03993,0.053 -0.05237,0.1232 -0.08929,0.1786 -0.05606,0.084 -0.44589,0.4459 -0.446428,0.4464 -0.05197,0.041 -0.123199,0.052 -0.178572,0.089 -0.04776,0.032 -0.350538,0.3483 -0.357143,0.3571 -0.03993,0.053 -0.04936,0.1253 -0.08928,0.1786 -0.05051,0.067 -0.119048,0.119 -0.178572,0.1786 -0.08929,0.089 -0.178571,0.1785 -0.267857,0.2678 -0.05952,0.06 -0.119048,0.1191 -0.178571,0.1786 -0.02976,0.03 -0.07046,0.052 -0.08929,0.089 -0.01331,0.027 0.01331,0.063 0,0.089 -0.01882,0.038 -0.05952,0.059 -0.08929,0.089 -0.08929,0.089 -0.178571,0.1785 -0.267857,0.2678 -0.05952,0.06 -0.128064,0.1112 -0.178571,0.1786 -0.66405,0.8854 0.147605,-0.1768 -0.267858,0.4464 -0.04669,0.07 -0.131877,0.1085 -0.178571,0.1786 -0.05437,0.082 -0.07621,0.2167 -0.178571,0.2678 -0.02662,0.013 -0.06267,-0.013 -0.08929,0 -0.03765,0.019 -0.04936,0.076 -0.08929,0.089 -0.05647,0.019 -0.122102,-0.019 -0.178571,0 -0.03993,0.013 -0.05952,0.06 -0.08929,0.089 -0.05251,0.053 -0.315797,0.3365 -0.357143,0.3572 -0.02662,0.013 -0.06267,-0.013 -0.08929,0 -0.03765,0.019 -0.05952,0.059 -0.08928,0.089 -0.02976,0.03 -0.05952,0.06 -0.08929,0.089"
       id="path3879"
       inkscape:connector-curvature="0" />
    <path
       style="fill:none;fill-rule:evenodd;stroke:#000000;stroke-width:1px;stroke-linecap:butt;stroke-linejoin:miter;stroke-opacity:1"
       d="m 37.232143,1012.9872 c -0.275398,0.059 -0.433245,0.076 -0.625,0.2678"
       id="path3883"
       inkscape:connector-curvature="0" />
    <path
       style="fill:none;fill-rule:evenodd;stroke:#000000;stroke-width:1px;stroke-linecap:butt;stroke-linejoin:miter;stroke-opacity:1"
       d="m 35.178572,1007.9872 c 0.380952,-0.2858 0.208333,-0.2679 0.446428,-0.2679 0.02976,0 0.06452,0.017 0.08929,0 0.07004,-0.047 0.10853,-0.1319 0.178571,-0.1786 0.04953,-0.033 0.125332,0.027 0.178572,0 0.03765,-0.019 0.04936,-0.076 0.08928,-0.089 0.03851,-0.013 0.590089,0 0.625,0 0.08409,0 0.395638,-0.017 0.446429,0 0.03993,0.013 0.05164,0.07 0.08929,0.089 0.02662,0.013 0.06267,-0.013 0.08928,0 0.03765,0.019 0.04936,0.076 0.08929,0.089 0.04084,0.014 0.317413,-0.02 0.357143,0 0.07529,0.038 0.103279,0.1409 0.178571,0.1786 0.123157,0.062 0.07986,-0.1081 0.178572,0.089 0.01359,0.027 0,0.2276 0,0.2678 0,0.089 0,0.1786 0,0.2679 0,0.06 0.01882,0.1221 0,0.1786 -0.02105,0.063 -0.05952,0.119 -0.08929,0.1785 -0.02976,0.06 -0.05237,0.1232 -0.08929,0.1786 -0.02335,0.035 -0.06403,0.056 -0.08928,0.089 -0.06439,0.086 -0.114187,0.182 -0.178572,0.2679 -0.02525,0.034 -0.07046,0.052 -0.08928,0.089 -0.01331,0.027 0.01331,0.063 0,0.089 -0.01882,0.038 -0.06594,0.054 -0.08929,0.089 -0.03692,0.055 -0.04936,0.1254 -0.08929,0.1786 -0.05051,0.067 -0.119048,0.119 -0.178571,0.1786 -0.02976,0.03 -0.07046,0.052 -0.08929,0.089 -0.01331,0.027 0.01331,0.063 0,0.089 -0.01882,0.038 -0.05952,0.06 -0.08929,0.089 -0.02976,0.03 -0.05952,0.06 -0.08928,0.089 -0.119048,0.1191 -0.238096,0.2381 -0.357143,0.3572"
       id="path3885"
       inkscape:connector-curvature="0" />
    <path
       style="fill:none;fill-rule:evenodd;stroke:#000000;stroke-width:1px;stroke-linecap:butt;stroke-linejoin:miter;stroke-opacity:1"
       d="m 14.553571,1010.4872 c -0.08787,-0.2932 -0.249068,-0.4277 -0.446428,-0.625 -0.02976,-0.03 -0.07046,-0.052 -0.08929,-0.089 -0.03571,-0.072 0.03571,-0.1965 0,-0.2679 -0.01882,-0.038 -0.07598,-0.049 -0.08929,-0.089 -0.016,-0.048 0,-0.2815 0,-0.3571 0,-0.2976 0,-0.5953 0,-0.8929 0,-0.1785 0,-0.3571 0,-0.5357 0,-0.059 0,-0.119 0,-0.1786 0,-0.03 -0.01331,-0.063 0,-0.089 0.01882,-0.038 0.05164,-0.07 0.08929,-0.089 0.01829,-0.01 0.329053,-0.01 0.357143,0 0.09131,0.023 0.183678,0.047 0.267857,0.089 0.07914,0.04 0.186579,0.2137 0.267857,0.2679 0.05537,0.037 0.131514,0.042 0.178572,0.089 0.02105,0.021 0,0.06 0,0.089 0,0.08 -0.01423,0.418 0,0.4464 0.01882,0.038 0.07046,0.052 0.08929,0.089 0.02288,0.046 -0.01789,0.2856 0,0.3571 0.02283,0.091 0.05952,0.1786 0.08929,0.2679"
       id="path3887"
       inkscape:connector-curvature="0" />
    <path
       style="fill:none;fill-rule:evenodd;stroke:#000000;stroke-width:1px;stroke-linecap:butt;stroke-linejoin:miter;stroke-opacity:1"
       d="m 18.482143,1011.7372 c 0.820554,-0.8206 0.117272,-0.042 0.446428,-0.5358 0.02335,-0.035 0.05952,-0.06 0.08929,-0.089 0.02976,-0.03 0.05427,-0.066 0.08929,-0.089 0.05537,-0.037 0.115437,-0.068 0.178571,-0.089 0.02824,-0.01 0.06452,0.017 0.08929,0 0.07004,-0.047 0.119048,-0.1191 0.178571,-0.1786 0.02976,-0.03 0.04936,-0.076 0.08929,-0.089 0.05647,-0.019 0.122102,0.019 0.178572,0 0.03993,-0.013 0.05952,-0.06 0.08929,-0.089 0.05952,-0.03 0.114009,-0.073 0.178572,-0.089 0.05775,-0.014 0.119047,0 0.178571,0 0.178572,0 0.357143,0 0.535714,0 0.02976,0 0.06267,0.013 0.08929,0 0.09598,-0.048 0.168224,-0.1387 0.267857,-0.1785 0.01946,-0.01 0.528382,0 0.535715,0 0.208333,0 0.416666,0 0.625,0 0.05824,0 0.286794,-0.018 0.357142,0 0.09131,0.023 0.176552,0.066 0.267858,0.089 0.02887,0.01 0.06267,-0.013 0.08929,0 0.03765,0.019 0.05164,0.07 0.08929,0.089 0.02662,0.013 0.06105,-0.01 0.08929,0 0.06313,0.021 0.115437,0.068 0.178571,0.089 0.02824,0.01 0.06452,-0.017 0.08929,0 0.0014,10e-4 0.430455,0.4145 0.446428,0.4465 0.01331,0.027 -0.0094,0.061 0,0.089 0.02104,0.063 0.06824,0.1154 0.08929,0.1785 0.0094,0.028 -0.01331,0.063 0,0.089 0.01882,0.038 0.07046,0.052 0.08929,0.089 0.01331,0.027 0,0.06 0,0.089 0,0.03 0,0.06 0,0.089 0,0.1488 0,0.2976 0,0.4464 0,0.03 0,0.06 0,0.089 0,0.03 -0.01331,0.063 0,0.089 0.01882,0.038 0.05952,0.059 0.08929,0.089"
       id="path3889"
       inkscape:connector-curvature="0" />
    <path
       style="fill:none;fill-rule:evenodd;stroke:#000000;stroke-width:1px;stroke-linecap:butt;stroke-linejoin:miter;stroke-opacity:1"
       d="m 29.107143,1012.63 c 0.216218,-0.4324 0.08446,-0.263 0.357143,-0.5357 0.02976,-0.03 0.05952,-0.059 0.08929,-0.089 0.02976,-0.03 0.05164,-0.07 0.08929,-0.089 0.02662,-0.013 0.06267,0.013 0.08929,0 0.03765,-0.019 0.05427,-0.066 0.08929,-0.089 0.05537,-0.037 0.123198,-0.052 0.178571,-0.089 0.03502,-0.023 0.05164,-0.07 0.08929,-0.089 0.02662,-0.013 0.06267,0.013 0.08929,0 0.03765,-0.019 0.05164,-0.071 0.08929,-0.089 0.02662,-0.013 0.05952,0 0.08929,0 0.05952,-0.03 0.123199,-0.052 0.178571,-0.089 0.03502,-0.023 0.05164,-0.07 0.08929,-0.089 0.02662,-0.013 0.05952,0 0.08929,0 0.05952,-0.03 0.123199,-0.052 0.178571,-0.089 0.03502,-0.023 0.05164,-0.071 0.08929,-0.089 0.02662,-0.013 0.05952,0 0.08929,0 0.02976,0 0.05952,0 0.08929,0 0.178572,0 0.357143,0 0.535715,0 0.255226,0 0.474287,-0.031 0.714285,0.089 0.03765,0.019 0.05952,0.059 0.08929,0.089 0.02976,0.03 0.05952,0.059 0.08929,0.089 0.05952,0.06 0.119047,0.119 0.178571,0.1785 0.02976,0.03 0.06594,0.054 0.08929,0.089 0.07383,0.1108 0.104741,0.2464 0.178571,0.3572 0.02335,0.035 0.07046,0.052 0.08929,0.089 0.03993,0.08 -0.03993,0.188 0,0.2678 0.03765,0.075 0.128064,0.1113 0.178572,0.1786 0.270632,0.3608 0.01414,0.042 0.08928,0.2679 0.04209,0.1262 0.136482,0.2308 0.178572,0.3571 0.0094,0.028 -0.01651,0.064 0,0.089 0.05881,0.088 0.346869,0.3469 0.446428,0.4464"
       id="path3891"
       inkscape:connector-curvature="0" />
    <path
       style="fill:none;fill-rule:evenodd;stroke:#000000;stroke-width:1px;stroke-linecap:butt;stroke-linejoin:miter;stroke-opacity:1"
       d="m 24.821429,1015.0407 c 0.119047,0.03 0.236814,0.065 0.357142,0.089 0.08755,0.018 0.178572,0 0.267858,0 0.208333,0 0.416666,0 0.625,0 0.08929,0 0.183153,-0.028 0.267857,0 0.03993,0.013 0.05164,0.071 0.08929,0.089 0.02662,0.013 0.05952,0 0.08929,0 0.02976,0 0.05952,0 0.08929,0 0.220661,0 0.136482,-0.042 0.267857,0.089 0.02976,0.03 0.08929,0.047 0.08929,0.089 0,0.03 -0.05952,0 -0.08929,0 -0.05952,0 -0.119048,0 -0.178571,0 -0.268088,0 -0.17818,-4e-4 -0.357143,0.1786 -0.05952,0.059 -0.10853,0.1318 -0.178572,0.1785 -0.110745,0.074 -0.246397,0.1048 -0.357143,0.1786 -0.07004,0.047 -0.119047,0.1191 -0.178571,0.1786 -0.08929,0.089 -0.178571,0.1785 -0.267857,0.2678 -0.02976,0.03 -0.05952,0.1191 -0.08929,0.089 -0.02976,-0.03 0.119048,-0.059 0.08929,-0.089 -0.158249,-0.1582 -0.355328,0 -0.446429,-0.1785 -0.02662,-0.053 0.02662,-0.1254 0,-0.1786 -0.01882,-0.038 -0.07046,-0.052 -0.08929,-0.089 -0.01331,-0.027 0,-0.059 0,-0.089 0,-0.059 0,-0.119 0,-0.1786 0,-0.2083 0,-0.4166 0,-0.625 z"
       id="path3893"
       inkscape:connector-curvature="0" />
    <path
       style="fill:none;fill-rule:evenodd;stroke:#000000;stroke-width:1px;stroke-linecap:butt;stroke-linejoin:miter;stroke-opacity:1"
       d="m 19.196411,1016.0232 c 0,0.062 -0.01357,0.3301 0,0.3571 0.01883,0.037 0.07047,0.051 0.08929,0.089 0.01331,0.026 -0.01651,0.064 0,0.089 0.04669,0.07 0.131882,0.1086 0.178572,0.1786 0.01841,0.028 -0.01416,0.4044 0,0.4464 0.01331,0.04 0.07598,0.049 0.08929,0.089 0.12886,0.3861 -0.170683,-0.033 0.08929,0.3571 0.02335,0.035 0.05953,0.059 0.08929,0.089 0.08929,0.089 0.178567,0.1789 0.267857,0.2679 0.06974,0.07 0.190817,0.2168 0.267827,0.2678 0.05537,0.037 0.123202,0.052 0.178572,0.089 0.07004,0.047 0.103281,0.1406 0.178571,0.1786 0.08418,0.042 0.222897,-0.1077 0.267857,0.089 0.06734,0.051 0.106392,0.1356 0.178572,0.1786 0.0807,0.048 0.183677,0.047 0.267857,0.089 0.03765,0.019 0.05164,0.07 0.08929,0.089 0.02662,0.013 0.05953,0 0.08929,0 0.02977,0 0.05953,0 0.08929,0 0.119048,0 0.238095,0 0.357143,0 0.178571,0 0.357143,0 0.535714,0 0.08929,0 0.180307,0.018 0.267857,0 0.06526,-0.013 0.114012,-0.073 0.178572,-0.089 0.08662,-0.022 0.183157,0.028 0.267857,0 0.06313,-0.021 0.119051,-0.059 0.178571,-0.089 0.05952,-0.03 0.125332,-0.049 0.178572,-0.089 0.06734,-0.05 0.108531,-0.1316 0.178571,-0.1786 0.04953,-0.033 0.125331,0.027 0.178571,0 0.102362,-0.051 0.124202,-0.1859 0.178572,-0.2679 0.05136,-0.077 0.198117,-0.1978 0.267857,-0.2678 0.02977,-0.03 0.07047,-0.051 0.08929,-0.089 0.01331,-0.026 -0.01331,-0.062 0,-0.089 0.01883,-0.037 0.07047,-0.051 0.08929,-0.089 0.04209,-0.084 0.0472,-0.1838 0.08929,-0.2678 0.01883,-0.037 0.06594,-0.054 0.08929,-0.089 0.110745,-0.1662 0.135652,-0.3821 0.267857,-0.5358 0.559105,0.076 -0.09318,0.4387 0,0.625 0.01882,0.038 0.07598,0.049 0.08929,0.089 0.01882,0.057 -0.01167,0.1202 0,0.1786 0.01846,0.092 0.07083,0.1756 0.08929,0.2679 0.01167,0.058 -0.01882,0.1221 0,0.1785 0.01331,0.04 0.07046,0.052 0.08929,0.089 0.01331,0.027 -0.0094,0.061 0,0.089 0.02105,0.063 0.06824,0.1154 0.08929,0.1786 0.05498,0.1649 -0.136241,0.042 0.08929,0.2678 0.04706,0.047 0.123198,0.052 0.178571,0.089 0.103022,0.069 0.164835,0.1992 0.267857,0.2679 0.02476,0.016 0.06267,-0.013 0.08929,0 0.03765,0.019 0.05164,0.07 0.08929,0.089 0.02662,0.013 0.05952,0 0.08929,0 0.08929,0 0.181238,-0.022 0.267857,0 0.04083,0.01 0.05164,0.07 0.08929,0.089 0.02662,0.013 0.05952,0 0.08929,0 0.05952,0.03 0.123199,0.052 0.178571,0.089 0.05866,0.039 0.219533,0.2518 0.267857,0.2679 0.05647,0.019 0.122103,-0.019 0.178572,0 0.07986,0.027 0.103279,0.1409 0.178571,0.1786 0.02662,0.013 0.06041,-0.01 0.08929,0 0.0913,0.023 0.183678,0.047 0.267857,0.089 0.408626,0.2044 -0.378876,-0.037 0.267857,0.1786 0.0847,0.028 0.183154,-0.028 0.267858,0 0.03993,0.013 0.04936,0.076 0.08929,0.089 0.04084,0.014 0.317413,-0.02 0.357143,0 0.03765,0.019 0.04845,0.079 0.08929,0.089 0.115493,0.029 0.238095,0 0.357143,0 0.08929,0 0.178571,0 0.267857,0 0.05952,0 0.122102,0.019 0.178571,0 0.255102,-0.085 0.131803,-0.064 0.267857,-0.2679 0.04669,-0.07 0.119048,-0.119 0.178572,-0.1785 0.02976,-0.03 0.05021,-0.074 0.08929,-0.089 0.113934,-0.046 0.251918,-0.026 0.357142,-0.089 0.05707,-0.034 0.05237,-0.1232 0.08929,-0.1786 0.02335,-0.035 0.07598,-0.049 0.08929,-0.089 0.01882,-0.056 -0.01444,-0.1208 0,-0.1785 0.03983,-0.1594 0.159486,-0.2488 0.267857,-0.3572"
       id="path3895"
       inkscape:connector-curvature="0" />
    <path
       style="fill:none;fill-rule:evenodd;stroke:#000000;stroke-width:1px;stroke-linecap:butt;stroke-linejoin:miter;stroke-opacity:1"
       d="m 18.214286,1014.0586 c -0.02967,0.079 -0.665724,-0.046 -0.803572,0 -0.126269,0.042 -0.230873,0.1365 -0.357143,0.1786 -0.05647,0.019 -0.119857,-0.01 -0.178571,0 -0.967258,0.2418 0.245423,-0.031 -0.714286,0.089 -0.121764,0.015 -0.235182,0.076 -0.357143,0.089 -0.748057,0.083 -0.147668,-0.1139 -0.892857,0.089 -0.181598,0.05 -0.350519,0.1449 -0.535714,0.1786 -0.146409,0.027 -0.29823,-0.013 -0.446429,0 -0.180291,0.016 -0.35508,0.077 -0.535714,0.089 -0.267264,0.018 -0.537352,-0.03 -0.803571,0 -0.272713,0.03 -0.534027,0.1272 -0.803572,0.1786 -0.713032,0.1358 -1.346213,0.2033 -2.0535711,0.3571 -0.3597323,0.078 -0.7110322,0.1928 -1.0714286,0.2679 -0.3544586,0.074 -0.7201698,0.091 -1.0714286,0.1785 -0.3652214,0.091 -0.705362,0.2693 -1.0714285,0.3572 -0.3806476,0.091 -0.7862179,0.065 -1.1607143,0.1785 -0.3183316,0.097 -0.592432,0.3034 -0.8928572,0.4465 -0.3246817,0.1546 -0.6526794,0.3023 -0.9821428,0.4464 -1.2698413,0.5556 0.5677477,-0.2986 -1.0714286,0.4464 -0.014834,0.01 -0.711542,0.3565 -0.7142857,0.3572 -0.1154932,0.029 -0.2442044,-0.038 -0.3571429,0 -0.053571,0.018 -0.1964286,0.2143 -0.2678571,0.2678 -0.0858465,0.064 -0.18201071,0.1142 -0.26785717,0.1786 -0.1,0.075 -0.16785714,0.1929 -0.26785714,0.2679 -0.0532397,0.04 -0.13151373,0.042 -0.17857143,0.089 -0.0470577,0.047 -0.0523706,0.1232 -0.0892857,0.1785 -0.10891289,0.1634 -0.11383409,0.01 -0.17857143,0.2679 -0.01443664,0.058 0.01443665,0.1208 0,0.1786 0.05381504,0.1616 -0.14463763,0.166 -0.17857142,0.2678 -0.01693043,0.051 0,0.3623 0,0.4464"
       id="path3897"
       inkscape:connector-curvature="0" />
    <path
       style="fill:none;fill-rule:evenodd;stroke:#000000;stroke-width:1px;stroke-linecap:butt;stroke-linejoin:miter;stroke-opacity:1"
       d="m 18.392857,1015.3979 c -0.119047,-0.06 -0.230874,-0.1365 -0.357143,-0.1786 -0.05647,-0.019 -0.119047,0 -0.178571,0 -0.208333,0 -0.416667,0 -0.625,0 -0.238095,0 -0.476191,0 -0.714286,0 -0.08929,0 -0.178571,0 -0.267857,0 -0.02976,0 -0.06041,-0.01 -0.08929,0 -0.350046,0.087 -0.65725,0.302 -0.982143,0.4464 -0.695477,0.3091 0.28881,-0.2337 -0.714285,0.2679 -0.155219,0.078 -0.287846,0.1974 -0.446429,0.2678 -0.112135,0.05 -0.245008,0.039 -0.357143,0.089 -0.158583,0.071 -0.291209,0.1903 -0.446428,0.2679 -0.08418,0.042 -0.179734,0.056 -0.267857,0.089 -0.150068,0.056 -0.297619,0.119 -0.446429,0.1786 -0.148809,0.059 -0.297619,0.119 -0.446429,0.1785 -0.148809,0.059 -0.308995,0.096 -0.446428,0.1786 -0.182982,0.1098 -0.84277,0.714 -0.982143,0.8036 -0.22392,0.1439 -0.479405,0.2318 -0.7142857,0.3571 -0.2117189,0.1129 -0.4078904,0.255 -0.625,0.3572 -0.2900356,0.1364 -0.6134775,0.1999 -0.8928571,0.3571 -0.2025959,0.114 -0.340558,0.3201 -0.5357143,0.4464 -0.5327709,0.3448 -1.1361908,0.5963 -1.6964286,0.8929 -0.2708081,0.1434 -0.5327633,0.303 -0.8035714,0.4464 -0.2352631,0.1246 -0.4822736,0.2266 -0.7142857,0.3572 -0.2474346,0.1391 -0.7379678,0.4999 -1.0714286,0.625 -1.3546128,0.5079 0.4542679,-0.2532 -0.625,0.1785 -0.2104485,0.084 -0.4041446,0.2169 -0.625,0.2679 -1.1184862,0.2581 -0.183605,-0.1761 -0.7142817,0.089"
       id="path3899"
       inkscape:connector-curvature="0" />
    <path
       style="fill:none;fill-rule:evenodd;stroke:#000000;stroke-width:1px;stroke-linecap:butt;stroke-linejoin:miter;stroke-opacity:1"
       d="m 18.571429,1016.38 c -0.06192,0.047 -0.379879,0.3182 -0.535715,0.3572 -0.05775,0.014 -0.123305,-0.022 -0.178571,0 -0.09963,0.04 -0.175841,0.1233 -0.267857,0.1785 -0.05707,0.034 -0.119048,0.06 -0.178572,0.089 -0.05952,0.03 -0.116781,0.065 -0.178571,0.089 -0.08738,0.035 -0.187154,0.041 -0.267857,0.089 -0.409923,0.246 0.08966,0.1427 -0.446429,0.3571 -0.425314,0.1702 0.119224,-0.2878 -0.446428,0.089 -0.105063,0.07 -0.178572,0.1786 -0.267858,0.2679 -0.293947,0.2939 -0.376387,0.4114 -0.803571,0.625 -0.109756,0.055 -0.241819,0.047 -0.357143,0.089 -0.361623,0.1315 -0.931051,0.3698 -1.25,0.625 -0.142111,0.1137 -0.311481,0.3115 -0.446428,0.4464 -0.05952,0.06 -0.119048,0.1191 -0.178572,0.1786 -0.02976,0.03 -0.07046,0.052 -0.08929,0.089 -0.04209,0.084 -0.0472,0.1836 -0.08929,0.2678 -0.01882,0.038 -0.06594,0.054 -0.08929,0.089 -0.03692,0.055 -0.04936,0.1253 -0.08929,0.1786 -0.05051,0.067 -0.135261,0.1064 -0.178571,0.1786 -0.435597,0.726 0.182802,-0.096 -0.178572,0.4464 -0.02335,0.035 -0.06403,0.056 -0.08929,0.089 -0.337899,0.4505 -0.01434,0.1036 -0.357143,0.4464"
       id="path3901"
       inkscape:connector-curvature="0" />
    <path
       style="fill:none;fill-rule:evenodd;stroke:#000000;stroke-width:1px;stroke-linecap:butt;stroke-linejoin:miter;stroke-opacity:1"
       d="m 32.678572,1015.3086 c 0.242671,-0.035 1.122932,-0.1642 1.339285,-0.1786 0.207872,-0.014 0.418494,0.028 0.625,0 0.24327,-0.032 0.470544,-0.1499 0.714286,-0.1786 0.266022,-0.031 0.535714,0 0.803571,0 0.297619,0 0.595238,0 0.892858,0 0.863095,0 1.72619,0 2.589285,0 0.625,0 1.25,0 1.875,0 0.09137,0 0.644011,-0.018 0.714286,0 0.04083,0.01 0.05952,0.06 0.08929,0.089 0.05952,0.06 0.10853,0.1319 0.178571,0.1786 0.719872,0.3599 0.08124,-0.01 0.535714,0.3572 0.08379,0.067 0.184064,0.1115 0.267858,0.1785 0.06573,0.053 0.108529,0.1319 0.178571,0.1786 0.02476,0.017 0.06548,-0.018 0.08929,0 0.08003,0.06 0.689197,0.6842 0.714285,0.7143 0.0426,0.051 0.04771,0.1266 0.08929,0.1786 0.07888,0.099 0.185682,0.1719 0.267857,0.2678 0.09684,0.113 0.172592,0.2428 0.267857,0.3572 0.05389,0.065 0.124682,0.1139 0.178572,0.1785 0.09526,0.1143 0.162633,0.2519 0.267857,0.3572 0.151757,0.1517 0.368127,0.223 0.535714,0.3571 0.06573,0.053 0.106388,0.1353 0.178572,0.1786 0.0807,0.048 0.183677,0.047 0.267857,0.089 0.05413,0.027 0.318904,0.3284 0.357143,0.3571 0.05324,0.04 0.123198,0.052 0.178571,0.089 0.03502,0.023 0.05952,0.06 0.08929,0.089 0.08929,0.089 0.178571,0.1786 0.267857,0.2678 0.02976,0.03 0.05427,0.066 0.08929,0.089 0.380795,0.2539 -0.02904,-0.1183 0.357143,0.2679 0.02976,0.03 0.07597,0.049 0.08928,0.089 0.01882,0.056 -0.01882,0.1221 0,0.1786 0.110331,0.3309 0.08929,-0.1089 0.08929,0.1785"
       id="path3903"
       inkscape:connector-curvature="0" />
    <path
       style="fill:none;fill-rule:evenodd;stroke:#000000;stroke-width:1px;stroke-linecap:butt;stroke-linejoin:miter;stroke-opacity:1"
       d="m 33.125,1017.4514 c 1.279762,0 2.559524,0 3.839286,0 0.297619,0 0.595238,0 0.892857,0 0.297619,0 0.597967,-0.04 0.892857,0 0.364759,0.05 0.713305,0.1826 1.071429,0.2679 0.266929,0.064 0.536474,0.1157 0.803571,0.1786 0.238899,0.056 0.474311,0.1271 0.714286,0.1785 0.177016,0.038 0.365579,0.027 0.535714,0.089 0.163092,0.059 0.295754,0.1818 0.446429,0.2679 0.05778,0.033 0.121505,0.055 0.178571,0.089 0.184032,0.1104 0.364021,0.2284 0.535714,0.3571 0.03367,0.025 0.05164,0.071 0.08929,0.089 0.08418,0.042 0.187154,0.041 0.267857,0.089 0.144367,0.087 0.222456,0.2561 0.357143,0.3571 0.05324,0.04 0.123199,0.052 0.178572,0.089 0.131381,0.088 0.225761,0.2696 0.357142,0.3572 0.05537,0.037 0.131514,0.042 0.178572,0.089 0.329352,0.3293 -0.213816,0.036 0.267857,0.3571 0.02476,0.017 0.06041,-0.01 0.08929,0 0.0913,0.023 0.187154,0.041 0.267857,0.089 0.06178,0.037 0.362839,0.3628 0.446428,0.4464 0.05251,0.053 0.33647,0.3158 0.357143,0.3572 0.01357,0.027 0,0.2955 0,0.3571"
       id="path3905"
       inkscape:connector-curvature="0" />
    <path
       style="fill:none;fill-rule:evenodd;stroke:#000000;stroke-width:1px;stroke-linecap:butt;stroke-linejoin:miter;stroke-opacity:1"
       d="m 33.125,1017.9872 c 1.337641,0.3821 0.341217,-0.012 0.714286,0.2678 0.08585,0.064 0.168224,0.1387 0.267857,0.1786 0.05527,0.022 0.123305,-0.022 0.178571,0 0.536089,0.2144 0.03651,0.1112 0.446429,0.3571 0.214935,0.129 0.265742,0.034 0.446429,0.1786 0.0986,0.079 0.165107,0.1945 0.267857,0.2679 0.108307,0.077 0.244275,0.108 0.357143,0.1785 0.12619,0.079 0.233325,0.1853 0.357142,0.2679 0.05537,0.037 0.125332,0.049 0.178572,0.089 0.06734,0.05 0.112838,0.126 0.178571,0.1786 0.08379,0.067 0.184064,0.1115 0.267857,0.1785 0.06573,0.053 0.119048,0.1191 0.178572,0.1786 0.119047,0.119 0.238095,0.2381 0.357143,0.3571 0.148809,0.1488 0.314962,0.2821 0.446428,0.4465 0.04157,0.052 0.05505,0.1215 0.08929,0.1785 0.329776,0.5497 0.02071,0.026 0.357143,0.4465 0.06703,0.084 0.102693,0.1919 0.178571,0.2678 0.07588,0.076 0.191979,0.1027 0.267857,0.1786 0.07588,0.076 0.102694,0.192 0.178572,0.2679 0.07588,0.076 0.184063,0.1115 0.267857,0.1785 0.0986,0.079 0.166842,0.1921 0.267857,0.2679 0.82444,0.5496 -0.189696,-0.1518 0.446429,0.3571 0.08379,0.067 0.184063,0.1116 0.267857,0.1786 0.06573,0.053 0.111228,0.1281 0.178571,0.1786 0.05324,0.04 0.123199,0.052 0.178572,0.089 0.03502,0.023 0.05952,0.059 0.08928,0.089 0.02976,0.03 0.06594,0.054 0.08929,0.089 0.03692,0.055 0.04223,0.1315 0.08929,0.1786 0.04706,0.047 0.131514,0.042 0.178571,0.089 0.0057,0.01 0.167484,0.3405 0.178572,0.3571 0.05418,0.081 0.228288,0.1887 0.267857,0.2679 0.01331,0.027 -0.01331,0.063 0,0.089 0.01882,0.038 0.05952,0.06 0.08929,0.089 0.02976,0.03 0.05952,0.06 0.08928,0.089"
       id="path3907"
       inkscape:connector-curvature="0" />
  </g>
</svg>
