<?xml version="1.0" encoding="UTF-8" standalone="no"?>
<!-- Created with Inkscape (http://www.inkscape.org/) -->

<svg
   xmlns:dc="http://purl.org/dc/elements/1.1/"
   xmlns:cc="http://creativecommons.org/ns#"
   xmlns:rdf="http://www.w3.org/1999/02/22-rdf-syntax-ns#"
   xmlns:svg="http://www.w3.org/2000/svg"
   xmlns="http://www.w3.org/2000/svg"
   xmlns:sodipodi="http://sodipodi.sourceforge.net/DTD/sodipodi-0.dtd"
   xmlns:inkscape="http://www.inkscape.org/namespaces/inkscape"
   width="64"
   height="64"
   viewBox="0 0 16.933333 16.933334"
   version="1.1"
   id="svg8"
   inkscape:version="0.92.1 r15371"
   sodipodi:docname="1_cat_8.svg"
   inkscape:export-filename="/home/physt/undev/repos/deep_learning/workshop/tasks/commonlearningdata/cartooncats/1_cat_8.png"
   inkscape:export-xdpi="96.000008"
   inkscape:export-ydpi="96.000008">
  <defs
     id="defs2" />
  <sodipodi:namedview
     id="base"
     pagecolor="#ffffff"
     bordercolor="#666666"
     borderopacity="1.0"
     inkscape:pageopacity="0.0"
     inkscape:pageshadow="2"
     inkscape:zoom="11.2"
     inkscape:cx="34.299503"
     inkscape:cy="29.986148"
     inkscape:document-units="mm"
     inkscape:current-layer="layer1"
     showgrid="false"
     inkscape:window-width="1920"
     inkscape:window-height="1016"
     inkscape:window-x="0"
     inkscape:window-y="27"
     inkscape:window-maximized="1"
     units="px" />
  <metadata
     id="metadata5">
    <rdf:RDF>
      <cc:Work
         rdf:about="">
        <dc:format>image/svg+xml</dc:format>
        <dc:type
           rdf:resource="http://purl.org/dc/dcmitype/StillImage" />
        <dc:title />
      </cc:Work>
    </rdf:RDF>
  </metadata>
  <g
     inkscape:label="Layer 1"
     inkscape:groupmode="layer"
     id="layer1"
     transform="translate(0,-280.06665)">
    <path
       id="path1046"
       d="m 4.7937957,289.47459 c 0.06107,0.15389 0.1420809,0.29886 0.2250241,0.4418 0.1040815,0.18045 0.2267492,0.34746 0.3701026,0.49833 0.1414201,0.14038 0.3020875,0.25864 0.4660797,0.37091 0.1653534,0.11329 0.345168,0.20118 0.5271386,0.28383 0.1710193,0.0733 0.348275,0.13231 0.5281396,0.17971 0.1663004,0.0473 0.3369765,0.0733 0.5079925,0.0962 0.1659676,0.0207 0.3322503,0.036 0.4993132,0.0439 0.1492467,0.002 0.2979203,-0.0101 0.4459325,-0.028 0.167718,-0.0233 0.330999,-0.0692 0.4909052,-0.12377 0.1979367,-0.0629 0.380732,-0.15993 0.5595919,-0.26367 -0.066635,0.0379 -0.132021,0.0781 -0.1999056,0.11375 -0.030435,0.016 0.05854,-0.036 0.087413,-0.0547 0.1068453,-0.069 0.2091288,-0.1436 0.3089833,-0.2223 0.144622,-0.11418 0.2718104,-0.2473 0.3951087,-0.38359 0.110151,-0.12103 0.203733,-0.25566 0.28028,-0.40006 0.08496,-0.15206 0.132967,-0.318 0.174243,-0.48597 0.05172,-0.20129 0.08394,-0.4065 0.113842,-0.61191 0.03017,-0.19706 0.04101,-0.39568 0.03871,-0.59477 -0.0057,-0.20048 -0.04188,-0.39821 -0.08119,-0.59434 -0.04631,-0.20499 -0.110579,-0.40521 -0.180385,-0.60322 -0.07037,-0.20112 -0.164972,-0.3918 -0.266022,-0.57888 -0.091048,-0.17126 -0.1996578,-0.33172 -0.319277,-0.48408 -0.1101918,-0.13217 -0.232314,-0.2531 -0.362413,-0.36546 -0.1326158,-0.11029 -0.2803271,-0.19957 -0.4303472,-0.28378 -0.1464461,-0.0787 -0.3031337,-0.13243 -0.463164,-0.17528 -0.1626976,-0.0486 -0.3316607,-0.0641 -0.5003498,-0.0737 -0.1691341,-0.0129 -0.3377914,0.002 -0.5055325,0.0228 -0.1656699,0.0142 -0.3257738,0.0583 -0.4825741,0.1116 -0.1191966,0.0387 -0.2311889,0.0945 -0.340928,0.15428 -0.028811,0.0157 -0.1144305,0.0643 -0.086122,0.0477 0.066594,-0.039 0.1339959,-0.0767 0.2009936,-0.11499 -0.1934448,0.11323 -0.3697099,0.25128 -0.5428268,0.39279 -0.18054,0.1492 -0.3439075,0.3172 -0.5100434,0.48183 -0.1642848,0.15861 -0.3095953,0.33434 -0.4505481,0.5135 -0.1393261,0.17312 -0.2599065,0.3599 -0.3732823,0.55067 -0.1015765,0.17205 -0.1656631,0.36119 -0.2228721,0.5515 -0.060754,0.19433 -0.086043,0.39616 -0.094019,0.59885 -0.011819,0.20169 0.024328,0.39885 0.074056,0.5931 0.034822,0.14702 0.09926,0.28337 0.1786398,0.4111 0.1022067,0.17018 0.2562511,0.24629 0.4281763,0.33246 0.044801,0.02 0.089602,0.04 0.1344033,0.06 0,0 -0.2741023,0.18202 -0.2741023,0.18202 v 0 c -0.044992,-0.0203 -0.089985,-0.0405 -0.1349769,-0.0608 -0.1821929,-0.0855 -0.3431664,-0.16317 -0.4504169,-0.34123 -0.079401,-0.13172 -0.1444061,-0.27193 -0.1796383,-0.42234 -0.049287,-0.19742 -0.086276,-0.39783 -0.076619,-0.60247 0.0058,-0.20489 0.030344,-0.40922 0.089418,-0.60619 0.056806,-0.19267 0.1197285,-0.38459 0.2205974,-0.55952 0.1131396,-0.1924 0.2340443,-0.3806 0.3732263,-0.55542 0.1406099,-0.18034 0.2843525,-0.3584 0.4492535,-0.5175 0.1662089,-0.16501 0.3293171,-0.33361 0.5086136,-0.48472 0.172979,-0.14133 0.3458519,-0.28214 0.5384926,-0.39666 0.2620312,-0.15171 0.5199751,-0.31943 0.8090231,-0.41645 0.15841,-0.0512 0.3197841,-0.0923 0.4863237,-0.1059 0.1692884,-0.0194 0.3391808,-0.0325 0.5095531,-0.0181 0.170206,0.0116 0.3403881,0.0296 0.5044141,0.0792 0.1619023,0.0446 0.3199485,0.1016 0.4677088,0.18248 0.1510807,0.0865 0.300106,0.17726 0.4336896,0.28966 0.1311921,0.11427 0.2550896,0.23648 0.3651819,0.37151 0.11941,0.15482 0.229045,0.31671 0.319927,0.49017 0.102046,0.18857 0.196754,0.381 0.268182,0.58361 0.07131,0.1991 0.135966,0.40082 0.183299,0.60712 0.03994,0.19782 0.0786,0.39703 0.08516,0.59931 0.0028,0.20095 -0.0066,0.40142 -0.03787,0.60028 -0.02994,0.2058 -0.05992,0.41184 -0.110698,0.61381 -0.03986,0.16947 -0.08347,0.33821 -0.168056,0.49204 -0.07393,0.14813 -0.1686,0.28488 -0.278453,0.40885 -0.123358,0.13752 -0.24976,0.27273 -0.3938714,0.38909 -0.2394437,0.19332 -0.5008343,0.35484 -0.7718541,0.50083 -0.1803212,0.10293 -0.3657664,0.19646 -0.5645126,0.25903 -0.1625748,0.0536 -0.3279188,0.1 -0.4983377,0.12061 -0.1488866,0.017 -0.2984619,0.0279 -0.448451,0.0227 -0.1674733,-0.009 -0.3343164,-0.0249 -0.5006732,-0.0465 -0.1716545,-0.0245 -0.3430796,-0.0515 -0.5099039,-0.1001 -0.1803657,-0.0501 -0.3585348,-0.1099 -0.53008,-0.18511 -0.1830438,-0.0841 -0.3630647,-0.17533 -0.529808,-0.28911 -0.1652582,-0.1143 -0.3280839,-0.2336 -0.469591,-0.37713 -0.1461955,-0.15611 -0.2658216,-0.32024 -0.3740221,-0.50489 -0.084564,-0.14335 -0.1647426,-0.2893 -0.2379731,-0.4388 0,0 0.3045685,-0.17159 0.3045685,-0.17159 z"
       inkscape:connector-curvature="0"
       style="stroke-width:0.26458332" />
    <path
       id="path1054"
       d="m 7.926444,285.29095 c 0.037748,-0.12291 0.1026083,-0.23446 0.1684758,-0.34399 0.093056,-0.15791 0.1998848,-0.30661 0.3103095,-0.45265 0.1116697,-0.14702 0.2266756,-0.29147 0.3438249,-0.43415 0.1129028,-0.13116 0.2335626,-0.25529 0.352652,-0.38077 0.080936,-0.0894 0.1687674,-0.17194 0.2576701,-0.25329 0.054564,-0.0556 0.1145603,-0.10537 0.1777722,-0.15076 0.1273323,-0.10291 0.2731839,-0.1826 0.4207856,-0.25214 0.04466,-0.0183 0.083004,0.007 0.1229859,0.0243 0.07741,0.0402 0.131082,0.11294 0.182671,0.18091 0.09813,0.13651 0.189733,0.27794 0.275503,0.42251 0.09939,0.16721 0.176899,0.34519 0.245321,0.52683 0.05935,0.17036 0.112662,0.34262 0.160768,0.51647 0.05364,0.18588 0.07688,0.37874 0.09773,0.57056 0.01431,0.18952 -0.0035,0.37949 -0.0266,0.56756 -0.01983,0.14554 -0.04842,0.28953 -0.08475,0.4318 -0.02255,0.0801 -0.05198,0.15795 -0.08131,0.23575 -0.01426,0.0371 -0.02965,0.0736 -0.04727,0.1092 -0.0013,0.003 -0.0026,0.005 -0.0039,0.008 0,0 -0.322225,0.14383 -0.322225,0.14383 v 0 c 0.0015,-0.002 0.0031,-0.005 0.0046,-0.007 0.0203,-0.0343 0.03713,-0.0699 0.05196,-0.10684 0.03252,-0.0766 0.06092,-0.1552 0.08734,-0.23414 0.04052,-0.14094 0.06941,-0.28478 0.09141,-0.42975 0.02428,-0.18589 0.0444,-0.37361 0.03139,-0.56127 -0.01904,-0.19011 -0.04305,-0.38093 -0.09646,-0.56489 -0.04772,-0.17302 -0.09977,-0.34467 -0.158687,-0.51424 -0.06646,-0.1803 -0.142466,-0.35678 -0.242056,-0.52167 -0.08555,-0.14316 -0.178015,-0.28254 -0.277985,-0.41606 -0.050435,-0.0627 -0.103151,-0.12953 -0.1787935,-0.16258 -0.038269,-0.0157 -0.068439,-0.0226 -0.1055667,9.3e-4 -0.1056211,0.0586 -0.2350526,0.13568 0.2435162,-0.14384 0.00707,-0.004 -0.014544,0.008 -0.021386,0.0121 -0.017293,0.0114 -0.02906,0.0227 -0.044704,0.0365 -0.064049,0.0445 -0.1283869,0.0902 -0.1815901,0.14772 -0.090601,0.0816 -0.1817754,0.16274 -0.2638902,0.25317 -0.1197718,0.12516 -0.2403467,0.24961 -0.3553108,0.37924 -0.1175805,0.14214 -0.2327783,0.28629 -0.3446068,0.43301 -0.1102082,0.14474 -0.218449,0.29115 -0.3100043,0.44871 -0.064432,0.10475 -0.1289688,0.21196 -0.1627603,0.33117 0,0 -0.316897,0.15051 -0.316897,0.15051 z"
       inkscape:connector-curvature="0"
       style="stroke-width:0.26458332" />
    <path
       id="path1056"
       d="m 5.2450904,287.27952 c -0.070707,-0.054 -0.14674,-0.10054 -0.224336,-0.14388 -0.1023048,-0.0588 -0.2110184,-0.1041 -0.3208969,-0.14638 -0.1366751,-0.0594 -0.2755996,-0.11287 -0.4164055,-0.16154 -0.1508472,-0.0487 -0.3009527,-0.10055 -0.4539131,-0.14231 -0.1406914,-0.0374 -0.2820847,-0.0722 -0.4237934,-0.10546 -0.1094769,-0.0276 -0.2203501,-0.0508 -0.3318095,-0.0689 -0.079923,-0.0119 -0.1607172,-0.0147 -0.2413823,-0.0157 -0.055371,-0.002 -0.1099039,0.01 -0.1605071,0.0318 0.5475782,-0.28212 0.3014123,-0.19598 0.2204622,-0.11401 -0.026548,0.0269 -0.046741,0.0589 -0.06713,0.0905 -0.052917,0.0897 -0.070882,0.19187 -0.083669,0.29367 -0.011777,0.16718 0.00303,0.33472 0.025993,0.50027 0.01895,0.16292 0.061341,0.32192 0.1178822,0.47554 0.050846,0.14184 0.131164,0.26983 0.2114471,0.39638 0.092162,0.14632 0.1981768,0.28237 0.3145816,0.40996 0.1218218,0.13348 0.2719239,0.23362 0.4210703,0.33328 0.1270622,0.0799 0.2553478,0.15778 0.3819756,0.23836 0.075681,0.0424 0.1473678,0.0916 0.2235906,0.13305 0.032855,0.0144 0.016928,0.008 0.047689,0.0195 0,0 -0.2912644,0.1945 -0.2912644,0.1945 v 0 c -0.031318,-0.0143 -0.014994,-0.006 -0.048865,-0.0238 -0.074414,-0.0441 -0.1460164,-0.0928 -0.220009,-0.13759 -0.1255723,-0.0814 -0.2526942,-0.16041 -0.3785631,-0.24138 -0.1508276,-0.10181 -0.3025603,-0.20407 -0.4255019,-0.34009 -0.1178502,-0.12904 -0.2243418,-0.26708 -0.319051,-0.41412 -0.082119,-0.12831 -0.1643164,-0.25805 -0.215545,-0.40247 -0.057365,-0.15589 -0.099426,-0.31774 -0.1196736,-0.48282 -0.023779,-0.1676 -0.039035,-0.33687 -0.032722,-0.50633 0.00974,-0.10523 0.024066,-0.21017 0.072936,-0.30553 0.1176517,-0.20088 0.1727083,-0.18526 0.4397131,-0.33216 0.054317,-0.017 0.1107657,-0.024 0.1677353,-0.0207 0.08104,0.003 0.1621351,0.008 0.2421625,0.0215 0.110938,0.0204 0.2214094,0.0442 0.3305805,0.0725 0.1412036,0.0349 0.2826269,0.069 0.4229031,0.10756 0.1529493,0.0437 0.3037808,0.0947 0.4549378,0.14414 0.1414018,0.0491 0.2806473,0.10361 0.4187772,0.16133 0.1115846,0.0429 0.2218857,0.0892 0.3255971,0.14918 0.078936,0.0443 0.1552202,0.0928 0.2304822,0.14312 0,0 -0.2954782,0.18919 -0.2954782,0.18919 z"
       inkscape:connector-curvature="0"
       style="stroke-width:0.26458332" />
    <path
       id="path1058"
       d="m 8.5579473,286.59987 c -0.050326,0.0485 -0.097992,0.0996 -0.1458635,0.15046 -0.04501,0.045 -0.077383,0.0979 -0.1046345,0.15484 -0.034286,0.0647 -0.060374,0.1331 -0.084717,0.202 -0.026992,0.0668 -0.043486,0.13635 -0.052753,0.20764 -0.00887,0.0668 0.00297,0.13296 0.021423,0.19699 0.017931,0.0576 0.043203,0.11258 0.066995,0.16792 0.022175,0.051 0.055599,0.0945 0.092005,0.13595 0.040438,0.0376 0.087122,0.0678 0.1388959,0.0867 0.05377,0.0232 0.1121169,0.0382 0.1708023,0.0347 0.069634,-0.002 0.135504,-0.0241 0.2013249,-0.0449 0.012618,-0.005 0.025336,-0.01 0.037858,-0.0151 0.025194,-0.0106 0.054215,-0.0243 0.078794,-0.0361 0.013949,-0.007 0.055063,-0.0282 0.041711,-0.0204 -0.3725233,0.21806 -0.3229374,0.18777 -0.2154348,0.12033 0.079809,-0.0497 0.1492268,-0.11221 0.2117045,-0.18198 0.056221,-0.0645 0.097235,-0.1388 0.1325507,-0.21618 0.028264,-0.0676 0.048355,-0.13853 0.061743,-0.21052 0.00992,-0.0553 0.013835,-0.11041 0.00111,-0.16539 -0.011168,-0.0464 -0.033136,-0.0873 -0.066055,-0.1216 -0.042122,-0.0485 -0.090724,-0.0907 -0.1408639,-0.13064 -0.052946,-0.0443 -0.1088623,-0.0842 -0.1691807,-0.11778 -0.056458,-0.0305 -0.1166797,-0.05 -0.1782966,-0.0669 -0.071557,-0.0186 -0.1434076,-0.0326 -0.217033,-0.0398 -0.047191,-0.003 -0.092704,0.011 -0.1380873,0.0217 0,0 0.2753883,-0.20908 0.2753883,-0.20908 v 0 c 0.048264,-0.009 0.096789,-0.0199 0.1462911,-0.0139 0.074777,0.009 0.1481291,0.0249 0.2209239,0.0443 0.063464,0.0188 0.1255196,0.0404 0.1831417,0.0737 0.061075,0.0354 0.1168357,0.0783 0.1715344,0.1228 0.051338,0.0412 0.1012957,0.0844 0.1448392,0.13395 0.036327,0.0392 0.061958,0.0846 0.075094,0.13685 0.016227,0.0594 0.01506,0.11872 0.00419,0.17924 -0.012327,0.0747 -0.032067,0.1478 -0.058581,0.21881 -0.036136,0.0793 -0.073334,0.1578 -0.1295612,0.22553 -0.060302,0.0734 -0.1287894,0.13899 -0.2083834,0.19144 -0.1701472,0.11263 -0.3468085,0.22174 -0.5402324,0.28921 -0.068405,0.0201 -0.1370094,0.04 -0.2091748,0.0374 -0.061803,-0.005 -0.1218359,-0.02 -0.1785175,-0.0453 -0.054654,-0.0243 -0.1053598,-0.0577 -0.1475709,-0.10041 -0.038792,-0.0443 -0.073524,-0.0911 -0.097152,-0.14549 -0.024776,-0.0565 -0.050518,-0.11288 -0.06863,-0.17192 -0.020389,-0.0677 -0.034974,-0.13844 -0.027835,-0.2094 0.00733,-0.0736 0.02213,-0.14595 0.049959,-0.21475 0.023564,-0.0697 0.048006,-0.14003 0.082568,-0.20516 0.027355,-0.0587 0.053141,-0.11767 0.100194,-0.16397 0.045244,-0.0527 0.096378,-0.10023 0.1433076,-0.15142 0,0 0.3242122,-0.1343 0.3242122,-0.1343 z"
       inkscape:connector-curvature="0"
       style="stroke-width:0.26458332" />
    <path
       id="path1060"
       d="m 6.2210103,288.18749 c -0.1296491,0.0509 -0.4710502,0.24954 0.038722,-0.0424 -0.094215,0.05 -0.1743218,0.11843 -0.2465128,0.19605 -0.056926,0.061 -0.095993,0.13397 -0.1281036,0.21023 -0.032664,0.0768 -0.050573,0.1588 -0.065604,0.24059 -0.016804,0.089 -0.013531,0.1792 -0.00275,0.26856 0.00906,0.0743 0.043797,0.1326 0.090702,0.18868 0.043819,0.0489 0.1020524,0.074 0.1616432,0.0979 0.078495,0.0255 0.161413,0.0328 0.2427322,0.045 0.087154,0.0137 0.1752341,3.8e-4 0.2609315,-0.0166 0.099236,-0.0196 0.1913893,-0.0546 0.2814979,-0.0995 -0.4715645,0.27729 -0.2555314,0.15432 -0.1612307,0.0768 0.041908,-0.0344 0.078987,-0.0716 0.1153125,-0.11176 0.062842,-0.0723 0.1141984,-0.15355 0.1639959,-0.23514 0.042276,-0.082 0.082461,-0.16587 0.1139651,-0.25271 0.023871,-0.0735 0.033347,-0.15074 0.031922,-0.22781 -0.00904,-0.0766 -0.044125,-0.14643 -0.086117,-0.21001 -0.049125,-0.0776 -0.1171207,-0.13746 -0.1916372,-0.18949 -0.077046,-0.0438 -0.1671891,-0.0622 -0.2551602,-0.0434 -0.021802,0.005 -0.042371,0.0139 -0.063557,0.0208 -0.1927143,0.11218 0.1061289,-0.063 0.1598107,-0.08 0.03023,-0.01 -0.046331,0.0435 -0.066894,0.0676 -0.0479,0.0562 -0.071459,0.0997 -0.1095332,0.16169 0,0 -0.3091638,0.13687 -0.3091638,0.13687 v 0 c 0.037473,-0.0627 0.1116814,-0.199 0.1702287,-0.23993 0.2548773,-0.1782 0.2531295,-0.174 0.4271436,-0.25501 0.022945,-0.005 0.045511,-0.0127 0.068836,-0.0159 0.095548,-0.0134 0.1892816,0.0115 0.2703341,0.0615 0.077196,0.0555 0.1470353,0.11948 0.1989722,0.20005 0.045385,0.0687 0.083558,0.14375 0.096258,0.226 0.0048,0.0806 -0.00574,0.16225 -0.027549,0.23998 -0.029001,0.0897 -0.072545,0.17369 -0.1113026,0.25951 -0.049209,0.0834 -0.1008634,0.16615 -0.162502,0.24108 -0.1468959,0.17604 -0.3345516,0.28024 -0.5420503,0.38459 -0.09207,0.043 -0.1877179,0.074 -0.2878484,0.0926 -0.088996,0.0146 -0.1788329,0.025 -0.2684362,0.008 -0.083477,-0.0127 -0.1687155,-0.0208 -0.248172,-0.0511 -0.064412,-0.0264 -0.125399,-0.0581 -0.1711947,-0.11224 -0.050236,-0.0616 -0.088095,-0.12612 -0.098937,-0.20646 -0.012615,-0.0921 -0.016497,-0.1858 -0.00169,-0.27793 0.013544,-0.0836 0.030377,-0.16771 0.061297,-0.24674 0.030933,-0.0797 0.068484,-0.15695 0.1247921,-0.22221 0.071343,-0.0801 0.1482198,-0.15466 0.2434285,-0.2063 0.1843453,-0.10581 0.3633828,-0.21534 0.5585489,-0.29874 0,0 -0.2751148,0.21743 -0.2751148,0.21743 z"
       inkscape:connector-curvature="0"
       style="stroke-width:0.26458332" />
    <path
       id="path1066"
       d="m 8.6228983,289.37533 c 0.063948,0.0364 0.1297828,0.0691 0.1972421,0.0985 0.039812,0.0216 0.085456,0.0326 0.1248738,0.0543 0.02136,0.0112 0.042297,0.0206 0.066575,0.0216 0.00318,1.3e-4 0.00668,0.002 0.00954,4e-4 0.00262,-0.001 0.00265,-0.005 0.00475,-0.007 0.010112,-0.01 0.025141,-0.0111 0.037935,-0.0141 -0.5312889,0.27979 -0.3527253,0.21179 -0.2504006,0.13636 0.030441,-0.0354 0.048758,-0.0812 0.066098,-0.1242 0.02662,-0.0701 0.056288,-0.13889 0.079967,-0.21003 0.014425,-0.0446 0.022111,-0.0907 0.025556,-0.1373 0.00177,-0.0274 0.012218,-0.0531 0.01818,-0.0797 0.00433,-0.0168 0.00498,-0.0341 0.00564,-0.0513 -1.75e-5,-0.0152 4.79e-5,-0.0303 -2.022e-4,-0.0455 -0.00289,-0.0189 0.014626,0.005 -0.00753,0.007 -0.032638,-0.002 -0.06243,0.007 -0.09305,0.0174 -0.068278,0.0239 -0.1362498,0.0492 -0.2054577,0.0705 -0.066064,0.0277 -0.1329798,0.0528 -0.2005851,0.0766 -0.047891,0.0175 -0.092505,0.0432 -0.1409766,0.0588 -0.1853102,0.10244 0.3988903,-0.23771 0.2154483,-0.1201 -0.014859,0.0144 -0.031017,0.0269 -0.044382,0.0428 -0.010769,0.007 -0.011541,0.0208 -0.012142,0.0324 -0.00287,0.0162 0.00321,0.0269 0.011761,0.0403 0.015581,0.0249 0.038692,0.0426 0.059315,0.0627 0.026514,0.0203 0.046085,0.0469 0.073248,0.0665 0.033222,0.026 0.071429,0.0448 0.1110705,0.0588 0.046326,0.0155 0.023051,0.008 0.069828,0.0224 0,0 -0.2876301,0.19593 -0.2876301,0.19593 v 0 c -0.047599,-0.0152 -0.023604,-0.007 -0.071982,-0.0234 -0.042215,-0.0171 -0.083214,-0.0372 -0.1188017,-0.0661 -0.026424,-0.0218 -0.047985,-0.0482 -0.074757,-0.0696 -0.023434,-0.0213 -0.047023,-0.0426 -0.064477,-0.0693 -0.011758,-0.0177 -0.023976,-0.0368 -0.022746,-0.0587 1.442e-4,-0.0174 -4.42e-5,-0.0346 0.00311,-0.0518 0.012525,-0.0191 0.025707,-0.0356 0.04268,-0.05 0.00884,-0.0105 0.022281,-0.0227 0.034098,-0.0297 0.1012794,-0.06 0.2283955,-0.14988 0.3524568,-0.19908 0.046339,-0.0198 0.092435,-0.0403 0.1398865,-0.0574 0.066964,-0.0246 0.1332825,-0.0506 0.2002967,-0.075 0.06941,-0.0236 0.1384774,-0.0482 0.2080977,-0.0711 0.034104,-0.008 0.068283,-0.0137 0.1033902,-0.008 0.017777,0.004 0.036106,0.0174 0.034518,0.0376 -1.273e-4,0.0154 1.344e-4,0.0308 -8.65e-5,0.0462 2.561e-4,0.0193 -1.225e-4,0.0386 -0.00243,0.0578 -0.00554,0.0257 -0.011523,0.0511 -0.021841,0.0754 -0.00243,0.0497 -0.00999,0.0988 -0.024424,0.14652 -0.022455,0.0718 -0.051795,0.14106 -0.079207,0.21109 -0.015274,0.0468 -0.036197,0.0907 -0.057272,0.13496 -0.073605,0.11778 -0.330804,0.0489 -0.3534672,0.21551 -0.021786,0.008 -0.037973,0.0174 -0.061575,0.008 -0.02526,-0.007 -0.048198,-0.0189 -0.071503,-0.0306 -0.041072,-0.0173 -0.081496,-0.0359 -0.1218343,-0.0549 -0.066726,-0.0313 -0.1317093,-0.066 -0.1986002,-0.0967 0,0 0.2918013,-0.19446 0.2918013,-0.19446 z"
       inkscape:connector-curvature="0"
       style="stroke-width:0.26458332" />
    <path
       id="path1068"
       d="m 9.3458995,289.78217 c 6.085e-4,0.085 -0.0049,0.16948 -0.01215,0.25412 -0.010305,0.0914 -0.024691,0.18179 -0.050162,0.27018 -0.024582,0.0849 -0.053037,0.16913 -0.092758,0.24819 -0.038366,0.0696 -0.089948,0.12974 -0.1475917,0.1839 -0.1505667,0.11601 -0.3165198,0.22025 -0.501074,0.2691 -0.067083,0.0174 -0.1363385,0.0208 -0.2052177,0.0239 -0.041675,-0.006 -0.08303,-0.0107 -0.1198203,-0.0318 -0.02032,-0.0105 -0.03938,-0.0276 -0.05466,-0.0445 -0.1012521,-0.11906 0.165618,-0.22709 0.3006942,-0.22608 0.030101,0.0173 0.063806,0.0195 0.097598,0.0223 0.074314,0.008 0.1476772,-0.005 0.2198254,-0.022 0.016894,-0.006 0.033968,-0.011 0.050684,-0.0172 0.019677,-0.007 0.039504,-0.0145 0.058453,-0.0235 0.022543,-0.0108 0.087615,-0.0481 0.065815,-0.0359 -0.071893,0.0403 -0.1405136,0.0873 -0.2160958,0.1201 -0.031576,0.0137 0.05558,-0.0407 0.08255,-0.0621 0.025246,-0.02 0.04936,-0.0414 0.07404,-0.0622 0,0 0.3129968,-0.12667 0.3129968,-0.12667 v 0 c -0.021442,0.0184 -0.1308336,0.11354 -0.1536245,0.12789 -0.1725999,0.10873 -0.3501647,0.23332 -0.5504733,0.28892 -0.075704,0.0151 -0.1523973,0.0248 -0.2296155,0.0157 -0.019828,-0.002 -0.026764,-0.003 -0.045948,-0.007 -0.011816,-0.002 -0.028267,-0.0108 -0.040681,-0.009 -0.00241,2.9e-4 -0.0043,0.002 -0.00645,0.003 -0.1154388,0.0569 0.2741263,-0.23872 0.2808621,-0.17112 0.015573,0.013 0.028436,0.0286 0.048227,0.0356 0.033381,0.0144 0.071633,0.0173 0.1075084,0.0183 0.067046,-0.003 0.1340982,-0.01 0.1986298,-0.0294 0.031091,-0.0101 0.041638,-0.0129 0.071632,-0.0253 0.010964,-0.005 0.04264,-0.0208 0.03248,-0.0146 -0.47719,0.28864 -0.3033257,0.17929 -0.2002766,0.11475 0.058276,-0.0512 0.1120629,-0.10654 0.1527011,-0.17328 0.043638,-0.0754 0.071824,-0.15902 0.096629,-0.24227 0.027143,-0.0862 0.041209,-0.17428 0.053313,-0.26368 0.00687,-0.083 0.015206,-0.16595 0.00925,-0.24938 0,0 0.3127068,-0.15933 0.3127068,-0.15933 z"
       inkscape:connector-curvature="0"
       style="stroke-width:0.26458332" />
    <path
       id="path1072"
       d="m 9.4752027,289.76225 c 0.065416,0.0549 0.139905,0.097 0.2131927,0.14016 0.059437,0.0289 0.121185,0.0521 0.1861651,0.0644 0.061238,0.0106 0.1235379,0.004 0.1835705,-0.0104 0.01054,-0.004 0.02128,-0.007 0.03163,-0.0106 0.02641,-0.0104 0.03735,-0.0172 0.06193,-0.0314 0.01076,-0.006 0.04291,-0.0249 0.03214,-0.0188 -0.2712917,0.1551 -0.3507053,0.20861 -0.2338339,0.13127 0.063468,-0.0413 0.1139069,-0.0973 0.1639829,-0.15324 0.04515,-0.0518 0.09344,-0.10075 0.139854,-0.1514 0.0068,-0.008 0.01368,-0.0162 0.02053,-0.0243 0,0 0.321,-0.13649 0.321,-0.13649 v 0 c -0.0069,0.008 -0.01379,0.0169 -0.02069,0.0254 -0.044,0.0529 -0.09474,0.0997 -0.13973,0.1518 -0.05059,0.0567 -0.09903,0.1163 -0.161217,0.16096 -0.132842,0.0962 -0.02989,0.0232 -0.3605614,0.21466 -0.041631,0.0241 -0.085958,0.0433 -0.1333463,0.0526 -0.064057,0.01 -0.1281258,0.0142 -0.1919041,-0.001 -0.066755,-0.0163 -0.1309436,-0.0417 -0.1913361,-0.0745 -0.073903,-0.0446 -0.1468485,-0.0907 -0.2168885,-0.14122 0,0 0.2955174,-0.18787 0.2955174,-0.18787 z"
       inkscape:connector-curvature="0"
       style="stroke-width:0.26458332" />
    <path
       id="path1074"
       d="m 10.251745,288.35481 c 0.06814,0.0239 0.132088,0.0563 0.192972,0.0949 0.06219,0.0414 0.107131,0.10363 0.146255,0.16627 0.0352,0.0627 0.07581,0.12209 0.11155,0.18444 0.03699,0.0662 0.059,0.13741 0.06671,0.21252 0.0015,0.11819 -0.03674,0.23142 -0.07025,0.3433 0,0 -0.307934,0.14549 -0.307934,0.14549 v 0 c 0.03378,-0.1069 0.06865,-0.21529 0.0704,-0.3285 -0.0053,-0.0704 -0.02723,-0.13645 -0.06053,-0.1987 -0.03588,-0.0618 -0.07548,-0.12135 -0.110934,-0.18344 -0.03624,-0.0584 -0.07874,-0.11564 -0.137661,-0.15279 -0.05963,-0.0361 -0.122462,-0.067 -0.1900283,-0.0853 0,0 0.2894503,-0.19823 0.2894503,-0.19823 z"
       inkscape:connector-curvature="0"
       style="stroke-width:0.26458332" />
    <path
       id="path1076"
       d="m 7.5428977,289.97949 c -0.051953,0.0932 -0.077279,0.19666 -0.095173,0.30092 -0.01207,0.10302 -0.0048,0.20621 0.013417,0.3079 0.012737,0.0699 0.033822,0.13744 0.070456,0.1984 0.06634,0.0828 0.1752126,0.11495 0.2694781,0.15514 0.026387,0.0106 0.052775,0.0212 0.079162,0.0318 0,0 -0.282302,0.18898 -0.282302,0.18898 v 0 c -0.026344,-0.0107 -0.052688,-0.0214 -0.079032,-0.0321 -0.1035349,-0.0411 -0.219982,-0.0756 -0.2892301,-0.16886 -0.038514,-0.0649 -0.061357,-0.13611 -0.074173,-0.21048 -0.020008,-0.10535 -0.026226,-0.21233 -0.016872,-0.31937 0.015851,-0.10652 0.041277,-0.21046 0.084185,-0.3096 0,0 0.3200833,-0.14268 0.3200833,-0.14268 z"
       inkscape:connector-curvature="0"
       style="stroke-width:0.26458332" />
    <path
       id="path1078"
       d="m 10.421717,287.99438 c 0.155599,-0.17584 0.310508,-0.35231 0.465703,-0.52851 0.205212,-0.23843 0.414589,-0.47321 0.62432,-0.70767 0.201706,-0.23111 0.417328,-0.44968 0.635032,-0.66563 0.187163,-0.18652 0.377289,-0.36993 0.567668,-0.55314 0.119232,-0.11562 0.240991,-0.22931 0.36793,-0.3365 0.03872,-0.0318 0.07814,-0.0627 0.117818,-0.0932 0,0 0.325476,-0.12937 0.325476,-0.12937 v 0 c -0.04203,0.0305 -0.08355,0.0617 -0.124186,0.094 -0.13191,0.1054 -0.255236,0.22196 -0.377945,0.33772 -0.191781,0.18413 -0.384886,0.36684 -0.572936,0.55483 -0.218641,0.2152 -0.434882,0.43351 -0.637115,0.66432 -0.209519,0.2339 -0.419197,0.46768 -0.622864,0.70671 -0.150788,0.17236 -0.303007,0.34358 -0.447703,0.52115 0,0 -0.321198,0.13526 -0.321198,0.13526 z"
       inkscape:connector-curvature="0"
       style="stroke-width:0.26458332" />
    <path
       id="path1080"
       d="m 10.352889,288.72764 c 0.17448,-0.14897 0.347691,-0.29943 0.520649,-0.45017 0.275965,-0.23832 0.563177,-0.463 0.855616,-0.68062 0.325791,-0.23283 0.655916,-0.45947 0.982239,-0.69156 0.280552,-0.19626 0.55651,-0.39894 0.835285,-0.59768 0.232374,-0.15979 0.466289,-0.31738 0.700111,-0.47505 0.165822,-0.1111 0.330356,-0.22416 0.497709,-0.33296 0.01533,-0.01 0.03065,-0.0193 0.04598,-0.029 0,0 0.321533,-0.12454 0.321533,-0.12454 v 0 c -0.01622,0.01 -0.03245,0.0197 -0.04867,0.0295 -0.171616,0.10776 -0.338104,0.22348 -0.506813,0.33569 -0.236006,0.1577 -0.470867,0.31719 -0.705876,0.47637 -0.280695,0.19886 -0.557561,0.40309 -0.839982,0.59954 -0.326987,0.2322 -0.657412,0.45948 -0.984402,0.69168 -0.290203,0.21538 -0.5747,0.43844 -0.848164,0.67486 -0.167843,0.14708 -0.335773,0.29405 -0.502443,0.44245 0,0 -0.322764,0.13148 -0.322764,0.13148 z"
       inkscape:connector-curvature="0"
       style="stroke-width:0.26458332" />
    <path
       id="path1082"
       d="m 11.057119,288.91264 c 0.225162,-0.11543 0.452215,-0.22715 0.680084,-0.33715 0.381614,-0.18201 0.765026,-0.36016 1.148933,-0.53726 0.414607,-0.18992 0.835087,-0.36652 1.255081,-0.54405 0.383111,-0.1641 0.772211,-0.31361 1.162792,-0.45883 0.330861,-0.12526 0.666774,-0.23656 1.001391,-0.35124 0.270523,-0.0845 0.539016,-0.17522 0.807457,-0.26608 0,0 -0.263013,0.20438 -0.263013,0.20438 v 0 c -0.267229,0.0883 -0.533759,0.17877 -0.802503,0.26248 -0.333059,0.1133 -0.667316,0.22346 -0.996277,0.34836 -0.388803,0.14452 -0.776202,0.29308 -1.15754,0.45647 -0.420115,0.17724 -0.840309,0.35453 -1.254644,0.54503 -0.386115,0.1783 -0.771544,0.35808 -1.154705,0.54267 -0.234374,0.11462 -0.468625,0.22982 -0.69825,0.35375 0,0 0.271194,-0.21853 0.271194,-0.21853 z"
       inkscape:connector-curvature="0"
       style="stroke-width:0.26458332" />
    <path
       id="path1084"
       d="m 7.965796,290.42728 c -0.2119196,0.14375 -0.4115776,0.30385 -0.6103217,0.465 -0.3717833,0.31393 -0.7316156,0.64155 -1.0909448,0.96954 -0.324475,0.29589 -0.6395345,0.60182 -0.9567432,0.90542 -0.2462847,0.22992 -0.4846883,0.46803 -0.7271228,0.70196 -0.1855674,0.17553 -0.3689163,0.35325 -0.5497121,0.5337 -0.1151618,0.11725 -0.2309223,0.23374 -0.3513558,0.34559 0,0 -0.3189759,0.13037 -0.3189759,0.13037 v 0 c 0.1247249,-0.11138 0.2435987,-0.22868 0.3608874,-0.34786 0.1826128,-0.18152 0.3674399,-0.36066 0.5553589,-0.53668 0.2454444,-0.23469 0.4857041,-0.47476 0.7350638,-0.70534 0.3198831,-0.30453 0.6371881,-0.61185 0.963889,-0.90912 0.3577698,-0.32602 0.7156722,-0.65195 1.0824083,-0.96793 0.190175,-0.15679 0.3812079,-0.31213 0.5808323,-0.45681 0,0 0.3267366,-0.12784 0.3267366,-0.12784 z"
       inkscape:connector-curvature="0"
       style="stroke-width:0.26458332" />
    <path
       id="path1096"
       d="m 8.359532,290.45937 c -0.1663705,0.1662 -0.3118448,0.35145 -0.4536517,0.53855 -0.2368036,0.31439 -0.4637566,0.63611 -0.6871488,0.96013 -0.2302047,0.33128 -0.4626409,0.66093 -0.6967871,0.98944 -0.2012624,0.27934 -0.4071845,0.55541 -0.6206188,0.82558 -0.1692145,0.20742 -0.3411318,0.41263 -0.5086204,0.62146 -0.1271601,0.16324 -0.2533179,0.32725 -0.3796607,0.49113 -0.081317,0.10228 -0.1605706,0.20611 -0.2369902,0.3121 0,0 -0.3140919,0.1359 -0.3140919,0.1359 v 0 c 0.07789,-0.10616 0.1558269,-0.21231 0.2393045,-0.3142 0.128048,-0.16493 0.2573277,-0.3289 0.3850518,-0.49409 0.1685401,-0.20987 0.3415821,-0.41606 0.5133128,-0.62331 0.216408,-0.27015 0.4248857,-0.54664 0.6279859,-0.82692 0.2349738,-0.32846 0.4681617,-0.65811 0.6987027,-0.98969 0.2222772,-0.32243 0.4467082,-0.64349 0.679732,-0.95826 0.1358054,-0.1844 0.2763478,-0.3653 0.4311677,-0.53431 0,0 0.3223122,-0.13351 0.3223122,-0.13351 z"
       inkscape:connector-curvature="0"
       style="stroke-width:0.26458332" />
    <path
       id="path1100"
       d="m 7.290736,290.29045 c -0.2307759,0.0765 -0.4588576,0.16178 -0.6843712,0.25266 -0.3672319,0.14391 -0.7172791,0.32632 -1.0658981,0.50964 -0.4170177,0.2165 -0.8224496,0.45393 -1.229805,0.6878 -0.3592261,0.21014 -0.7250162,0.40862 -1.0886029,0.61101 -0.275027,0.15273 -0.5545524,0.29692 -0.8355156,0.43833 0,0 0.2570194,-0.20566 0.2570194,-0.20566 v 0 c 0.2794289,-0.13987 0.5561561,-0.28503 0.8299731,-0.43561 0.3613155,-0.20007 0.7243434,-0.39709 1.0809986,-0.60546 0.408156,-0.2344 0.8149301,-0.47139 1.2326474,-0.6886 0.3516103,-0.18504 0.7052977,-0.36768 1.0755908,-0.51315 0.232261,-0.0932 0.4665538,-0.18187 0.7030807,-0.26368 0,0 -0.2751172,0.21272 -0.2751172,0.21272 z"
       inkscape:connector-curvature="0"
       style="stroke-width:0.26458332" />
    <path
       id="path1102"
       d="m 9.0280277,286.71952 c -0.057554,0.0455 -0.1022673,0.0998 -0.1307325,0.16729 -0.023225,0.0796 -0.032748,0.16282 -0.040642,0.24517 -0.00789,0.1 -0.010726,0.20011 -0.00288,0.30012 0.00575,0.0751 0.03016,0.14266 0.064118,0.20887 0.024553,0.0426 0.052087,0.0834 0.079155,0.12443 0.018351,0.0299 0.037517,0.0595 0.058343,0.0878 0.018185,0.0128 0.031311,0.0323 0.053197,0.0389 0.016039,0.004 0.03318,0.005 0.049777,0.005 -0.6124789,0.24033 -0.2436333,0.22552 -0.3043446,0.16124 -0.021146,-0.0111 -0.025969,-0.0446 -0.032667,-0.0653 0,0 0.3072788,-0.16903 0.3072788,-0.16903 v 0 c 0.00608,0.0183 0.00888,0.0376 0.02572,0.0486 0.1025088,0.12211 -0.1459365,0.17753 -0.2833764,0.23019 -0.019582,-0.003 -0.039286,-0.007 -0.056733,-0.0166 -0.023027,-0.0148 -0.043079,-0.0337 -0.061688,-0.0537 -0.020463,-0.0291 -0.039949,-0.0591 -0.058388,-0.0895 -0.027502,-0.0423 -0.054404,-0.085 -0.079242,-0.1289 -0.035235,-0.0707 -0.062285,-0.14222 -0.068524,-0.22195 -0.00772,-0.10179 -0.00654,-0.20346 8.467e-4,-0.30532 0.00607,-0.0848 0.016042,-0.16963 0.034517,-0.2526 0.023506,-0.0731 0.063613,-0.13186 0.1211855,-0.18305 0,0 0.325084,-0.13121 0.325084,-0.13121 z"
       inkscape:connector-curvature="0"
       style="stroke-width:0.26458332" />
    <path
       id="path1108"
       d="m 6.9060922,288.11662 c -0.1123233,0.0564 -0.1028034,0.0523 0.2348486,-0.1355 0.013441,-0.007 -0.026146,0.0162 -0.038823,0.0249 -0.039282,0.027 -0.074746,0.0579 -0.1102746,0.0895 -0.054861,0.0516 -0.098362,0.11381 -0.139891,0.1763 -0.033373,0.0508 -0.054813,0.10703 -0.07294,0.16462 -0.019434,0.0555 -0.026146,0.11377 -0.029991,0.17208 -0.00333,0.0633 -0.00286,0.12677 -0.0031,0.19017 -0.00275,0.0542 0.00981,0.10724 0.017195,0.16059 0.00711,0.0354 0.019492,0.0686 0.036491,0.10028 0.016177,0.0269 0.037165,0.0503 0.058021,0.0736 0,0 -0.2996837,0.18099 -0.2996837,0.18099 v 0 c -0.022085,-0.0256 -0.044906,-0.0509 -0.062735,-0.0798 -0.019706,-0.0353 -0.033282,-0.0725 -0.042274,-0.112 -0.0066,-0.055 -0.019428,-0.10971 -0.017616,-0.16542 -3.175e-4,-0.0639 -4.498e-4,-0.12787 0.00161,-0.19178 0.00327,-0.0607 0.00787,-0.12152 0.025643,-0.18004 0.020524,-0.0591 0.037075,-0.11935 0.070009,-0.17354 0.042618,-0.0641 0.085455,-0.12898 0.1385726,-0.18507 0.1493232,-0.1382 0.3205731,-0.24692 0.5100529,-0.3274 0,0 -0.2751148,0.21743 -0.2751148,0.21743 z"
       inkscape:connector-curvature="0"
       style="stroke-width:0.26458332" />
    <path
       id="path1128"
       d="m 6.9290355,291.7704 c -0.00927,-0.0353 -0.013896,-0.0944 -0.052002,-0.11202 -0.017674,-0.002 -0.027087,0.0102 -0.039613,0.02 0.096608,-0.0555 0.1932154,-0.11104 0.2898232,-0.16655 -0.026297,0.0158 -0.045426,0.0392 -0.059939,0.0658 -0.027857,0.0532 -0.052859,0.10758 -0.073198,0.16412 -0.034079,0.081 -0.044137,0.16759 -0.056067,0.25374 -0.015356,0.10027 -0.020759,0.20159 -0.031544,0.30239 -0.010708,0.0924 -0.01538,0.18528 -0.017592,0.27821 -0.00283,0.074 0.00872,0.1475 0.015211,0.22104 0.00928,0.0664 8.202e-4,0.13244 -0.0059,0.19849 -0.00658,0.0644 -0.00854,0.12912 -0.00949,0.1938 -8.466e-4,0.0583 -0.00273,0.11638 0.00519,0.17426 0.00752,0.0434 0.011877,0.0872 0.021889,0.13002 0.011359,0.0328 0.012343,0.068 0.020122,0.10151 0.00915,0.028 0.014639,0.0567 0.025482,0.0841 0.012756,0.0268 0.017272,0.0561 0.020595,0.0853 0.0023,0.0262 0.00241,0.0526 0.0022,0.0789 0.00193,0.032 -0.00124,0.0627 -0.00923,0.0935 -0.00681,0.0326 -0.020103,0.0632 -0.030509,0.0948 -0.011787,0.028 -0.027372,0.054 -0.04035,0.0814 -0.010774,0.0331 -0.031881,0.0591 -0.056084,0.0834 -0.1009102,0.10321 -0.2170467,0.13113 -0.3558569,0.22193 0.2897891,-0.16703 0.3762687,-0.22322 0.2685336,-0.15368 -0.1436825,0.072 -0.274814,0.17076 -0.4214109,0.23775 -0.03951,0.0205 -0.080271,0.0377 -0.1220777,0.0531 -0.045473,0.0208 -0.092338,0.0408 -0.1411864,0.0521 -0.053823,0.0165 -0.1052576,0.0388 -0.1602761,0.0513 -0.045987,0.0212 -0.09719,0.0223 -0.1449946,0.036 -0.054047,0.0116 -0.1080685,0.0231 -0.1626436,0.0323 -0.065964,0.01 -0.1309251,0.0251 -0.1961542,0.0388 -0.068105,0.0124 -0.1369393,0.0173 -0.2052029,0.0287 -0.070739,0.0127 -0.1421696,0.0231 -0.2126924,0.0371 -0.072564,0.015 -0.1463199,0.0208 -0.2194682,0.0323 -0.075761,0.0185 -0.1527209,0.0305 -0.2293329,0.0447 -0.078788,0.009 -0.1560554,0.0259 -0.234814,0.0346 -0.075742,0.0126 -0.1506704,0.0296 -0.2265947,0.041 -0.079503,0.016 -0.1586902,0.034 -0.2387814,0.0469 -0.074661,0.0115 -0.1481889,0.0272 -0.2235856,0.0336 -0.079692,0.0125 -0.1597478,0.0207 -0.2393146,0.0339 -0.078328,0.0113 -0.1571244,0.0153 -0.2355114,0.026 -0.079901,0.007 -0.1590972,0.0184 -0.2387484,0.0273 -0.085874,0.007 -0.1717593,0.0163 -0.2566527,0.0311 -0.084026,0.0133 -0.1670959,0.0315 -0.251548,0.0421 -0.087557,0.0153 -0.1755825,0.0296 -0.2622144,0.0495 -0.080232,0.0136 -0.1587851,0.0342 -0.2377397,0.0534 -0.081869,0.0244 -0.1651781,0.0431 -0.2480151,0.0637 -0.073921,0.0184 -0.1475135,0.0396 -0.2191461,0.0657 -0.065307,0.0174 -0.1256613,0.0471 -0.1863428,0.0761 -0.034861,0.0196 -0.017321,0.0104 -0.052586,0.0276 -0.00825,0.005 -0.032984,0.0188 -0.024752,0.014 0.4694475,-0.26878 0.3378607,-0.20172 0.2369537,-0.1303 -0.035646,0.027 -0.065127,0.0615 -0.091234,0.0976 -0.023824,0.0341 -0.03888,0.0735 -0.053545,0.11218 -0.011264,0.036 -0.017378,0.0738 -0.015817,0.11153 0.0051,0.0352 0.017177,0.0689 0.031974,0.10114 0.017146,0.0404 0.040399,0.0778 0.068543,0.11136 0.02805,0.0431 0.064283,0.078 0.1022121,0.11211 0.042688,0.0351 0.078785,0.0785 0.1245307,0.10951 0.055142,0.0383 0.1148807,0.0688 0.1732458,0.10169 0.070801,0.0349 0.1422609,0.0672 0.2175225,0.0913 0.104812,0.0347 0.2155065,0.0455 0.3244819,0.0596 0.1153887,0.0145 0.231715,0.0177 0.3478543,0.0198 0.1276248,0.004 0.2554731,-0.003 0.3822916,-0.0173 0.1293675,-0.0124 0.2579132,-0.0312 0.3866737,-0.0485 0.135428,-0.0242 0.2721872,-0.0394 0.4080457,-0.0609 0.1308722,-0.0176 0.2599153,-0.0446 0.3889079,-0.0723 0.1197081,-0.0237 0.2402027,-0.0424 0.3608533,-0.0606 0.093411,-0.0106 0.1856973,-0.0282 0.2790801,-0.039 0.073731,-0.008 0.1480161,-0.008 0.2221018,-0.009 0.071659,10e-4 0.1425128,6.3e-4 0.21361,-0.008 0.063428,-0.0107 0.1288312,-0.007 0.1918214,-0.0189 0.055403,-0.0118 0.1120648,-0.0163 0.1685687,-0.0185 0.063313,-0.004 0.1258911,-0.015 0.1892278,-0.0202 0.063745,-0.003 0.1267151,-0.004 0.1898672,-0.0136 0.05516,-0.009 0.1108342,-0.0127 0.166589,-0.0146 0.055228,-0.002 0.1093759,-0.0149 0.1646145,-0.0193 0.056432,3.7e-4 0.1107472,-0.0147 0.1664991,-0.021 0.053473,-0.0146 0.1079969,-0.0235 0.1631363,-0.0283 0.046849,-0.006 0.095574,0.003 0.1414899,-0.008 0.038282,-0.0106 0.077935,-0.0148 0.1174623,-0.0174 0.033172,-0.0111 0.06729,-0.0195 0.1020929,-0.0231 0.014825,-0.004 0.031931,0.001 0.046645,-0.002 0.013219,-0.003 0.026143,-0.0112 0.040005,-0.0145 0.027129,-0.0107 0.059384,-5.6e-4 0.084468,-0.0152 0.02762,-0.0117 0.057205,-0.0148 0.086862,-0.0165 0.028593,-0.002 0.057279,-0.001 0.085914,-0.001 0.021825,-5e-5 0.043655,-2e-5 0.065481,1.2e-4 0.026255,1.4e-4 0.05251,1.9e-4 0.078764,6e-5 0.019719,-0.0124 0.039847,-0.0205 0.063095,-0.0223 0.022196,-0.004 0.046903,0.004 0.066548,-0.008 0.020942,-0.012 0.045397,-0.014 0.068867,-0.0172 0.00806,-0.003 0.021085,0.003 0.028815,-8.5e-4 0.00993,-0.005 0.011427,-0.012 0.023794,-0.0155 0.019032,-0.008 0.039398,-0.007 0.059653,-0.008 0.02295,3e-5 0.045902,2.5e-4 0.068854,2.6e-4 0.00754,-0.004 0.026977,0.005 0.033286,-6e-5 0.00225,-0.002 0.00156,-0.006 0.00233,-0.009 0.00246,-10e-4 0.00493,-0.003 0.00739,-0.004 0.016917,-0.009 0.03743,-0.01 0.056338,-0.0108 0.026641,0.003 0.027582,-0.0134 0.055302,-0.0186 0.020669,-0.005 0.042067,-0.005 0.063162,-0.005 0.00517,-0.003 0.012009,0.003 0.017108,7e-5 0.00266,-0.001 0.00282,-0.005 0.00513,-0.007 0.00801,-0.006 0.021119,-0.009 0.030771,-0.0109 0.021278,-0.005 0.043257,-0.005 0.064966,-0.005 0.019582,1.7e-4 0.039165,1.4e-4 0.058748,3.4e-4 0.017949,-0.002 0.044304,0.007 0.056875,-0.007 0.014097,-0.0148 0.037994,-0.0153 0.057392,-0.0159 0.021193,-10e-4 0.042444,-9.5e-4 0.063664,-9.2e-4 0.021894,2e-4 0.043792,3.4e-4 0.065687,3.1e-4 0.022008,-0.002 0.049411,0.007 0.067959,-0.006 0.017463,-0.0137 0.040837,-0.0158 0.062378,-0.0167 0.023471,-10e-4 0.04702,-10e-4 0.070522,-8.2e-4 0.022783,2e-5 0.045567,2.4e-4 0.068351,7e-5 0.02077,0 0.041543,1.4e-4 0.062314,8e-5 0.026895,-0.005 0.045783,0.007 0.069605,0.0161 0.015147,0.007 0.031391,0.008 0.047796,0.008 0.01987,-1e-5 0.03974,-2e-4 0.05961,-1.7e-4 0.026339,-0.003 0.048045,0.0123 0.073067,0.0182 0.023937,0.002 0.035723,0.0103 0.04804,0.0307 0.00689,0.0125 0.00796,0.027 0.00794,0.0409 0.0014,0.0187 -0.00622,0.008 0.00442,0.009 0.00802,0.0163 0.019696,0.0177 0.036473,0.0184 0.017306,0.0165 0.041859,0.0176 0.060617,0.0301 0.010398,0.009 0.028009,0.009 0.038213,0.0175 0.010255,0.0123 0.00511,0.008 0.014539,0.015 0.014777,0.0114 0.024178,0.03 0.029973,0.0475 0.0033,0.0101 0.00428,0.0268 0.00356,0.0336 0.01124,0.007 0.016108,0.0232 0.019817,0.0356 0.029033,0.13803 -0.2878881,0.21053 -0.3136916,0.22571 0.097816,-0.0567 0.388752,-0.23099 0.2934478,-0.17015 -0.077268,0.0493 -0.2196391,0.18439 -0.3511831,0.18591 -0.02332,-0.002 -0.041647,0.0109 -0.06308,0.0196 -0.019352,0.004 -0.038716,0.005 -0.058414,0.004 -0.027385,-0.003 -0.049389,0.0125 -0.076173,0.017 -0.031131,-9.7e-4 -0.052303,0.0128 -0.080102,0.0211 -0.035583,0.0183 -0.074493,0.0283 -0.110609,0.0461 -0.053699,0.0224 -0.1064228,0.0471 -0.1603685,0.0693 -0.061296,0.0251 -0.1249447,0.0426 -0.1889373,0.0595 -0.076195,0.016 -0.1523839,0.032 -0.2288432,0.0468 -0.077376,0.0239 -0.1577575,0.0315 -0.2371148,0.0449 -0.087921,0.0141 -0.1768068,0.0193 -0.2651972,0.0299 -0.1018124,0.007 -0.2030476,0.018 -0.3045404,0.0282 -0.1197248,0.009 -0.2389058,0.0251 -0.3574465,0.0441 -0.1503598,0.0214 -0.3003188,0.0444 -0.4491638,0.0747 -0.1774561,0.0392 -0.3547991,0.0786 -0.5326357,0.116 -0.1808315,0.0392 -0.3603955,0.0838 -0.5394769,0.13023 -0.1731073,0.0441 -0.3418208,0.10294 -0.5135364,0.15199 -0.1368216,0.0372 -0.2712395,0.0822 -0.4026413,0.13535 -0.085658,0.0394 -0.1722932,0.0767 -0.2602101,0.11085 -0.056163,0.0228 -0.1097735,0.0511 -0.1650698,0.0758 -0.035555,0.0185 -0.068476,0.0364 -0.1075947,0.046 -0.024781,0.0156 -0.051834,0.0222 -0.080342,0.0264 -0.022209,0.002 -0.044465,0.002 -0.066716,0.002 -0.0064,0.01 -0.00267,0.005 -0.011134,0.013 0.097589,-0.0561 0.1954948,-0.11158 0.2927681,-0.16819 0.013647,-0.008 -0.00893,0.0101 -0.017145,0.002 -3.175e-4,-0.004 0.00464,-3.2e-4 0.00724,-0.006 0.012631,0.012 0.024625,0.0232 0.031862,0.0391 0.0077,0.009 0.010462,0.008 0.019862,0.008 0.017156,0.015 0.026054,0.0302 0.030391,0.0525 -0.00127,0.006 -0.00546,0.0259 -0.011655,0.0295 -0.00217,10e-4 -0.00336,-0.004 -0.00419,-0.005 0.00541,0.0115 0.011097,0.0228 0.014907,0.035 0.00161,0.0148 0.00193,0.0106 0.012761,0.0276 0.00564,0.01 0.00886,0.0181 0.017566,0.0254 0.00707,0.0148 0.017113,0.0205 0.03213,0.0228 0.019349,0.0132 0.040299,0.0218 0.060593,0.0333 0.032827,0.0225 0.067726,0.0425 0.103505,0.06 0.050383,0.0286 0.1024835,0.0532 0.1550805,0.0773 0.084507,0.0374 0.1739056,0.0627 0.263612,0.0842 0.1240656,0.0237 0.2493357,0.0398 0.3745966,0.0556 0.1260861,0.0172 0.2525966,0.02 0.3794628,0.0143 0.1301131,-0.009 0.2604799,-0.0201 0.3901236,-0.0349 0.1282345,-0.0153 0.2559325,-0.0355 0.3831291,-0.0579 0.1397341,-0.0201 0.2794547,-0.0403 0.4192577,-0.06 0.135038,-0.0168 0.269812,-0.0356 0.4049146,-0.0519 0.1304086,-0.0239 0.2626807,-0.0319 0.3942855,-0.0455 0.1318596,-0.0109 0.2629292,-0.0285 0.3941704,-0.045 0.1515388,-0.0141 0.3011694,-0.0427 0.4515858,-0.065 0.1527347,-0.0286 0.3056835,-0.0559 0.4586629,-0.0832 0.1449433,-0.0271 0.2892113,-0.0572 0.4326099,-0.0915 0.1187008,-0.032 0.239255,-0.0575 0.3606334,-0.077 0.095437,-0.0133 0.190382,-0.0287 0.2864411,-0.0371 0.068088,-0.002 0.1344917,-0.0183 0.2006457,-0.033 0.05717,-0.008 0.111988,-0.026 0.168848,-0.0358 0.0485,-0.009 0.09573,-0.0216 0.144939,-0.0273 0.0423,-0.003 0.08036,-0.005 0.121759,-0.0142 0.03557,-0.009 0.0723,-0.0125 0.10891,-0.0138 0.03273,0.002 0.06332,-0.01 0.09458,-0.0186 0.02342,-0.0191 0.05542,-0.0184 0.08053,-0.0331 0.02563,-0.008 0.04718,-0.0254 0.07231,-0.0342 0.0072,-0.006 0.0173,-0.003 0.02527,-0.006 0.0038,-0.002 0.0131,-0.01 0.0095,-0.008 -0.619312,0.34972 -0.14799,0.0843 0.02511,-0.0158 -8.73e-4,0.004 0.02314,-0.0115 0.02196,-0.0109 -0.778239,0.4419 0.01666,-0.008 0.02782,-0.0121 0.0159,-0.002 0.0091,10e-4 0.02052,-0.009 -0.0977,0.0561 -0.195428,0.11207 -0.293086,0.1682 -0.0024,10e-4 0.0049,-0.003 0.0073,-0.004 0.313294,-0.18127 0.194605,-0.14813 0.31835,-0.18186 0.0065,-0.003 0.02361,0.003 0.02922,-0.002 0.0023,-0.002 5.82e-4,-0.006 0.0024,-0.009 8e-6,-1e-5 0.01472,-0.009 0.01481,-0.009 0.0045,-3.7e-4 0.0072,-0.006 0.01156,-0.007 0.14461,-0.0245 -0.388286,0.23593 -0.267554,0.15799 0.10438,-0.0591 0.20876,-0.11812 0.313141,-0.17718 0.0035,-7.7e-4 0.007,-0.003 0.01059,-0.002 0.01198,0.002 0.02525,0.0141 0.03684,0.019 0.01653,0.003 0.03313,0.004 0.04994,0.004 0.0032,10e-6 0.0068,0.002 0.0096,4e-5 9.26e-4,-4.8e-4 0.0082,-0.0134 0.0094,-0.0143 0.0054,-0.004 0.01645,-0.006 0.02292,-0.009 0.0018,-7.1e-4 0.007,-0.003 0.0054,-0.002 -0.09768,0.0566 -0.195148,0.11357 -0.293439,0.16909 -0.0067,0.004 0.0097,-0.0126 0.01638,-0.0164 0.104323,-0.0592 0.209091,-0.11756 0.313637,-0.17633 0.180607,0.003 -0.421,0.21951 -0.259232,0.14727 0.100762,-0.0761 0.163496,-0.1 0.319953,-0.19062 0.0098,-0.006 0.01299,-6.6e-4 0.02163,-0.01 -0.09792,0.0566 -0.195837,0.11313 -0.293772,0.16967 -0.0024,10e-4 0.0046,-0.003 0.007,-0.004 0.103533,-0.0594 0.20667,-0.11958 0.31064,-0.17825 0.01017,-0.006 0.01413,-10e-4 0.02306,-0.0105 -0.09792,0.0564 -0.195855,0.11272 -0.293765,0.16912 -0.0024,10e-4 0.0048,-0.003 0.0072,-0.004 0.103609,-0.0593 0.206784,-0.11944 0.310802,-0.17806 0.0081,-0.005 0.02149,-0.003 0.0304,-0.003 0.02418,0.002 0.0432,-0.0119 0.06615,-0.0187 0.02439,-0.005 0.04914,-0.005 0.07385,-0.005 0.02806,0.004 0.05118,-0.012 0.07818,-0.0175 0.01565,-0.005 0.03364,3e-5 0.0492,-0.004 0.01325,-0.004 0.02511,-0.0122 0.03914,-0.0157 0.01375,-0.007 0.03042,-0.003 0.04464,-0.007 0.01488,-0.004 0.02859,-0.0122 0.04415,-0.016 0.03184,-0.005 0.06044,-0.0186 0.09127,-0.0276 0.0049,-8e-4 0.01005,-9e-4 0.01484,-0.002 0.005,-0.002 0.0095,-0.004 0.01423,-0.007 0.0057,-0.002 0.0113,-0.004 0.01706,-0.005 0.01999,-0.005 0.0379,-0.007 0.05691,-0.0155 0.03642,-0.009 0.06989,-0.0258 0.106077,-0.0353 0.03613,-0.0121 0.07604,-0.004 0.11143,-0.0164 0.03803,-0.0127 0.07827,-0.0149 0.117979,-0.0168 0.04038,-0.01 0.07995,-0.0198 0.119555,-0.0317 0.04232,-0.0191 0.08676,-0.0307 0.126614,-0.0552 0.04161,-0.0229 0.08456,-0.0435 0.125932,-0.0669 0.04448,-0.0156 0.08398,-0.0411 0.126457,-0.061 0.04002,-0.0222 0.08243,-0.0376 0.121707,-0.0614 0.117657,-0.0552 0.03834,-0.0186 -0.262275,0.15228 -0.0059,0.003 0.01149,-0.007 0.01727,-0.011 0.01235,-0.008 0.02433,-0.0161 0.03699,-0.0233 0.106752,-0.0608 0.213885,-0.12086 0.320827,-0.18129 0.104157,-0.062 0.250311,-0.13961 -0.249021,0.14307 -0.0057,0.003 0.01089,-0.007 0.01612,-0.0114 0.0055,-0.004 0.01069,-0.009 0.01604,-0.0132 0.0059,-0.005 0.01186,-0.009 0.01778,-0.0136 0.03896,-0.0297 0.06895,-0.0687 0.0975,-0.10797 0.03409,-0.0404 0.05561,-0.0885 0.0802,-0.13479 0.03019,-0.053 0.05426,-0.10915 0.07979,-0.16449 0.0244,-0.052 0.04304,-0.10665 0.0569,-0.16231 0.0088,-0.0547 0.01881,-0.10933 0.02729,-0.16414 0.0053,-0.0534 0.01065,-0.10643 0.01938,-0.15939 0.007,-0.0502 0.01286,-0.10032 0.02266,-0.15012 0.0098,-0.0413 0.01256,-0.0836 0.01455,-0.12578 0.0017,-0.0516 0.0031,-0.10302 -0.0044,-0.15419 -0.0054,-0.0489 -0.01962,-0.096 -0.02952,-0.14396 -0.01352,-0.0453 -0.02157,-0.092 -0.0361,-0.13702 -0.0109,-0.0408 -0.02071,-0.0824 -0.03655,-0.12163 -0.01745,-0.04 -0.03763,-0.0788 -0.05812,-0.1173 -0.0202,-0.0387 -0.04232,-0.0765 -0.06388,-0.11451 -0.016,-0.0336 -0.04114,-0.057 -0.06931,-0.0799 -0.02471,-0.0186 -0.05184,-0.034 -0.08082,-0.0449 -0.02022,-0.0144 -0.04165,-0.0259 -0.06121,-0.0413 -0.01839,-0.0119 -0.03652,-0.0245 -0.05623,-0.035 -0.01264,-0.016 -0.03269,-0.0188 -0.0462,-0.0322 -0.01445,-0.0113 -0.02646,-0.0221 -0.03692,-0.038 -0.0047,-0.012 -0.0097,-0.0203 -0.01949,-0.0285 -0.0081,-0.0117 -0.01811,-0.0246 -0.02895,-0.0339 -0.0054,-0.002 -0.01295,-0.0143 -0.0191,-0.0138 -0.0025,1.8e-4 -0.0045,0.003 -0.007,0.003 -0.009,-0.009 -0.02522,-0.0242 -0.03906,-0.0224 -0.01553,-2.1e-4 -0.02574,-0.014 -0.03923,-0.022 -0.0078,-0.0129 -0.02043,-0.0213 -0.03289,-0.0293 -0.0066,-0.0163 -0.01245,-0.0173 -0.02058,-0.0296 -0.01035,-0.0116 -0.02105,-0.0222 -0.02989,-0.0362 -0.01366,-0.005 -0.02045,-0.0272 -0.02875,-0.0381 -0.01481,-0.0154 -0.02103,-0.0363 -0.02608,-0.0566 -0.0094,-0.022 -0.01508,-0.0453 -0.02301,-0.0679 -0.01323,-0.0209 -0.01494,-0.0466 -0.0248,-0.0686 -0.01032,-0.0185 -0.0171,-0.0385 -0.0229,-0.0588 -0.0039,-0.0157 -0.0042,-0.0318 -0.0046,-0.0478 -10e-4,-0.002 -0.01298,-0.0227 -0.01652,-0.0316 -0.0028,-0.0149 -0.0071,-0.0179 -0.01648,-0.0323 -10e-4,-0.002 -0.0021,-0.003 -0.0031,-0.005 0,0 0.305481,-0.17768 0.305481,-0.17768 v 0 c 9.26e-4,0.002 0.0019,0.003 0.0028,0.005 0.0079,0.0127 0.01953,0.0242 0.02063,0.0397 0.0023,0.0152 0.01786,0.0268 0.02184,0.0416 -2.41e-4,0.0135 -2.91e-4,0.027 6.88e-4,0.0405 0.0037,0.0185 0.0091,0.0364 0.01886,0.0528 0.01107,0.0226 0.01199,0.049 0.02552,0.071 0.01008,0.0238 0.01365,0.0499 0.02668,0.0726 0.0027,0.0167 0.0066,0.0317 0.01897,0.0442 0.0094,0.0139 0.01704,0.0284 0.03015,0.0397 0.0078,0.0131 0.02093,0.0208 0.02855,0.0341 0.01167,0.0122 0.011,0.0156 0.01514,0.0198 0.01076,0.009 0.02117,0.0181 0.03117,0.0274 0.01464,0.01 0.01889,0.0117 0.03435,0.0148 0.0087,0.005 0.0305,0.0217 0.03724,0.0194 0.01458,0.006 0.0258,0.0179 0.03716,0.0286 0.0096,0.011 0.02063,0.0207 0.02895,0.0327 0.0097,0.0106 0.01901,0.0219 0.02326,0.0353 0.0077,0.0121 0.02052,0.0182 0.03064,0.0283 0.01674,0.006 0.02823,0.0198 0.04361,0.028 0.01977,0.0124 0.03875,0.026 0.0582,0.0389 0.01766,0.0129 0.03702,0.0237 0.05602,0.0344 0.03036,0.0146 0.05982,0.032 0.08571,0.0536 0.03104,0.0258 0.05697,0.0551 0.07581,0.0912 0.0214,0.0384 0.04302,0.0766 0.06338,0.11552 0.02145,0.0394 0.04249,0.0791 0.06065,0.12011 0.01659,0.04 0.02732,0.0823 0.03767,0.12427 0.01453,0.0464 0.02319,0.0942 0.03763,0.1407 0.0091,0.0487 0.02466,0.0959 0.02998,0.14529 0.0088,0.0532 0.0095,0.10602 0.0075,0.15987 -5.03e-4,0.0439 -0.002,0.0882 -0.01135,0.13128 -0.0114,0.0494 -0.0195,0.0987 -0.02352,0.14925 -0.0102,0.0526 -0.0173,0.10507 -0.0202,0.15861 -0.0079,0.0558 -0.02031,0.11065 -0.02615,0.16666 -0.01231,0.0581 -0.03128,0.11476 -0.05399,0.1695 -0.02747,0.0549 -0.0496,0.11233 -0.07882,0.16642 -0.02685,0.0457 -0.04371,0.0969 -0.07772,0.13815 -0.02926,0.0407 -0.05757,0.0818 -0.09334,0.1172 -0.01115,0.009 -0.02318,0.0162 -0.03401,0.0253 -0.0053,0.004 -0.0088,0.0109 -0.01468,0.0144 -0.110624,0.0667 -0.231185,0.14371 -0.352158,0.2035 0.0936,-0.0542 0.187363,-0.10816 0.280801,-0.16266 0.0063,-0.004 -0.01309,0.006 -0.0193,0.0101 -0.0062,0.004 -0.01181,0.008 -0.01772,0.0124 -0.0059,0.003 -0.01173,0.007 -0.01762,0.0103 -0.105999,0.0615 -0.211929,0.12314 -0.318048,0.18445 -0.0064,0.004 -0.01296,0.007 -0.01945,0.0105 -0.04072,0.0204 -0.08257,0.0383 -0.122499,0.0603 -0.04111,0.022 -0.08387,0.0403 -0.125359,0.0615 -0.04244,0.0219 -0.08418,0.0451 -0.126644,0.067 -0.04263,0.0191 -0.0869,0.0343 -0.130915,0.0498 -0.04045,0.0119 -0.08219,0.021 -0.124105,0.0257 -0.03925,0.004 -0.07761,0.0111 -0.115782,0.0209 -0.03688,0.003 -0.07387,0.007 -0.109033,0.0191 -0.03494,0.013 -0.07032,0.0241 -0.105691,0.0358 -0.03531,0.008 -0.06948,0.0197 -0.10423,0.0297 -0.03024,0.01 -0.0603,0.0195 -0.09133,0.0268 -0.02926,0.01 -0.05933,0.014 -0.08871,0.0236 -0.0293,0.0104 -0.05948,0.011 -0.08943,0.0191 -0.02743,0.009 -0.05416,0.013 -0.08305,0.0118 -0.02313,10e-4 -0.04635,0.004 -0.06811,0.0127 -0.02305,0.008 -0.04497,0.0132 -0.06932,0.0151 -0.01076,0.003 -0.0073,10e-4 -0.01738,0.007 -0.0025,10e-4 -0.0098,0.005 -0.0073,0.004 0.09794,-0.0567 0.195722,-0.11376 0.293877,-0.17013 0.0025,-0.001 -0.0046,0.004 -0.0069,0.005 -0.103364,0.0597 -0.206728,0.11943 -0.310093,0.17914 -0.0097,0.002 -0.0092,10e-4 -0.01686,0.005 -0.0025,10e-4 -0.0097,0.006 -0.0073,0.004 0.09795,-0.0568 0.19574,-0.1139 0.2939,-0.17035 0.0025,-10e-4 -0.0045,0.003 -0.0068,0.005 -0.103183,0.0599 -0.206366,0.11978 -0.309549,0.17967 -0.01136,0.003 -0.02955,0.0146 -0.02171,0.01 0.453881,-0.26677 0.367394,-0.24854 0.282331,-0.16234 -0.007,0.009 -0.0162,0.0136 -0.02595,0.0191 -0.314436,0.17819 -0.201915,0.13539 -0.321449,0.18043 0.774107,-0.44881 -0.03304,0.0183 -0.03965,0.0297 -0.01849,0.009 -0.02994,0.0156 -0.05155,0.01 -0.01957,-0.002 -0.03901,-0.005 -0.05707,-0.0135 -0.0014,-5.3e-4 -0.01313,-0.005 -0.01454,-0.005 -0.0043,-3.1e-4 -0.01098,0.0159 -0.01594,0.011 0.09738,-0.0561 0.19476,-0.11213 0.29214,-0.1682 -0.116219,0.0653 -0.237842,0.124 -0.347121,0.19764 -3.71e-4,2.1e-4 -0.01498,0.009 -0.01512,0.009 -0.01183,0.002 -0.02333,-0.003 -0.03382,0.007 -0.103772,0.0652 0.03459,-0.0218 0.286643,-0.16674 0.0027,-0.002 -0.0041,0.005 -0.0068,0.006 -0.265316,0.15495 -0.205116,0.13799 -0.332841,0.18685 -0.09624,0.052 0.376208,-0.22329 0.283832,-0.16471 -0.180137,0.11424 -0.213453,0.13315 -0.332064,0.18983 0.753539,-0.43853 0.0058,-0.003 -0.02525,0.0147 -0.0102,0.006 -0.02571,0.005 -0.03506,0.0135 -0.02317,0.0136 -0.0488,0.0217 -0.07312,0.033 -0.02871,0.008 -0.05491,0.0217 -0.08359,0.0292 -0.03243,0.008 -0.06462,0.0135 -0.09812,0.013 -0.03559,0.003 -0.07071,0.009 -0.105622,0.0169 -0.04058,0.007 -0.08187,0.006 -0.122535,0.0126 -0.0482,0.008 -0.09527,0.0212 -0.1436156,0.0285 -0.055829,0.0119 -0.1111456,0.026 -0.1673823,0.036 -0.066458,0.015 -0.1340233,0.0247 -0.2020943,0.0284 -0.094775,0.009 -0.1886765,0.0243 -0.2829052,0.0376 -0.1202803,0.0207 -0.2396683,0.0465 -0.3577238,0.0775 -0.1434377,0.0326 -0.2873692,0.0627 -0.4321328,0.0889 -0.1531432,0.0269 -0.3058538,0.0562 -0.4591026,0.0825 -0.150731,0.0236 -0.3011451,0.0499 -0.4530379,0.0651 -0.1316916,0.0172 -0.2634101,0.0339 -0.3957923,0.045 -0.1314685,0.0125 -0.2630059,0.024 -0.3933666,0.0459 -0.1346689,0.0174 -0.2693972,0.0342 -0.4040127,0.052 -0.1397222,0.0202 -0.2796563,0.0391 -0.4190912,0.0611 -0.1278755,0.0217 -0.2559786,0.0429 -0.385004,0.0566 -0.130184,0.0133 -0.2606222,0.0261 -0.3913063,0.0329 -0.1279908,0.004 -0.2556232,-10e-4 -0.3825729,-0.0191 -0.126718,-0.0163 -0.2536272,-0.032 -0.3789233,-0.0574 -0.091709,-0.0232 -0.1830649,-0.0492 -0.2697186,-0.0877 -0.053526,-0.0239 -0.1059193,-0.0499 -0.1575163,-0.0777 -0.035749,-0.0189 -0.070983,-0.0387 -0.1055499,-0.0597 -0.019084,-0.01 -0.038387,-0.02 -0.058239,-0.0281 -0.016327,-0.008 -0.030266,-0.0204 -0.040667,-0.0355 -0.00941,-0.0102 -0.01623,-0.0206 -0.021828,-0.0327 -0.0075,-0.0122 -0.019685,-0.0238 -0.019225,-0.0387 -0.00116,-0.009 -0.00567,-0.0174 -0.00979,-0.0255 -0.00725,-0.0134 -0.015515,-0.0407 0.00375,-0.0485 0.015163,0.007 6.879e-4,-0.007 -0.00313,-0.005 -0.016312,-0.008 -0.028221,-0.0216 -0.037833,-0.0367 -3.704e-4,-5e-4 -0.00603,-0.0106 -0.011502,-0.006 -0.013859,-0.009 -0.02499,-0.0191 -0.03168,-0.0346 -0.00241,-0.008 -0.00908,-0.0305 0.00214,-0.0373 0.069598,-0.0423 0.2075286,-0.18896 0.3322577,-0.18048 0.020815,-3.7e-4 0.041807,-10e-4 0.062029,-0.007 0.026864,-0.007 0.05102,-0.0213 0.077925,-0.0285 0.035728,-0.0131 0.067422,-0.035 0.1030415,-0.0486 0.054167,-0.0261 0.1090552,-0.0506 0.1648423,-0.073 0.086241,-0.0347 0.1716347,-0.0714 0.2569511,-0.10829 0.1315493,-0.0508 0.2658497,-0.0936 0.4019497,-0.13058 0.1712558,-0.0491 0.3398028,-0.10744 0.5128247,-0.15034 0.1791809,-0.0461 0.35892,-0.0901 0.5398974,-0.12866 0.1784429,-0.0379 0.3563329,-0.0783 0.5345866,-0.11705 0.1499092,-0.0297 0.3009617,-0.0523 0.4520676,-0.075 0.1198579,-0.0183 0.2400747,-0.0345 0.3609465,-0.0445 0.1014544,-0.0106 0.2030314,-0.019 0.3045359,-0.0289 0.088479,-0.0104 0.1775635,-0.0158 0.2653289,-0.0317 0.079453,-0.0119 0.1582867,-0.0259 0.236187,-0.0459 0.076288,-0.0158 0.1529368,-0.0299 0.228397,-0.0495 0.063126,-0.0179 0.125816,-0.0369 0.186045,-0.0633 0.053742,-0.0237 0.1076259,-0.047 0.1613627,-0.0708 0.037934,-0.0151 0.076022,-0.0298 0.1139455,-0.0447 0.026565,-0.0102 0.054583,-0.0109 0.081964,-0.0182 0.026863,-0.008 0.052432,-0.0139 0.080833,-0.0123 0.017769,-0.002 0.035452,-0.006 0.051692,-0.0133 0.022479,-0.008 0.043929,-0.012 0.067672,-0.0134 0.00999,-0.003 0.017502,-0.006 0.026241,-0.0113 0.00241,-0.002 0.00977,-0.006 0.00728,-0.005 -0.2603687,0.15165 -0.5329131,0.31183 0.016071,-0.0102 -0.097079,0.0573 -0.1943608,0.11421 -0.2912361,0.17183 -0.00429,0.003 0.00956,-0.004 0.014557,-0.004 0.00196,-10e-6 0.00442,0.002 0.00582,9.6e-4 0.00146,-0.001 -3.704e-4,-0.004 -5.556e-4,-0.006 -5.821e-4,-0.012 -0.00947,-0.019 -0.016013,-0.0284 -0.00705,-0.0137 -0.00674,-0.0249 -0.00701,-0.04 -3.704e-4,-0.0119 -0.00979,-0.0217 -0.018653,-0.0286 -0.013428,-0.0121 -0.032374,-0.0165 -0.048035,-0.0259 -0.019532,-0.006 -0.036139,-0.0177 -0.055673,-0.0225 -0.019121,-0.007 -0.029275,-0.0162 -0.044224,-0.0288 -8.467e-4,-7.2e-4 9.525e-4,0.002 0.0014,0.003 -0.013237,-0.0104 -0.025646,-0.0242 -0.023223,-0.0421 5.74e-5,-0.008 6.35e-4,-0.0166 9.525e-4,-0.0241 -0.00525,-0.006 -0.02372,-0.002 -0.032659,-0.009 -0.022744,-0.008 -0.043271,-0.0131 -0.067543,-0.01 -0.02063,8e-5 -0.041361,3.4e-4 -0.061883,-0.002 -0.01841,-0.003 -0.036054,-0.009 -0.05313,-0.0164 -0.020214,-0.008 -0.040573,-0.005 -0.062182,-0.005 -0.020838,-8e-5 -0.041678,6e-5 -0.062517,-2e-5 -0.022606,-2.7e-4 -0.045213,-2.2e-4 -0.06782,-1.5e-4 -0.022646,4e-4 -0.04542,5.9e-4 -0.06776,0.005 -0.020635,0.005 -0.039436,0.0153 -0.060178,0.0196 -0.024389,-0.001 -0.048816,-4.8e-4 -0.073228,-6.6e-4 -0.021915,-1.4e-4 -0.043834,-1.5e-4 -0.065749,9e-5 -0.020233,2.9e-4 -0.040569,8.7e-4 -0.060498,0.005 -0.019037,0.005 -0.0356,0.0156 -0.054392,0.0203 -0.020939,-0.002 -0.042026,-10e-4 -0.063079,-0.002 -0.019275,1e-4 -0.038585,-1.8e-4 -0.057822,0.001 -0.020196,0.002 -0.04024,0.005 -0.059195,0.0125 -0.019873,0.009 -0.03696,0.0128 -0.058806,0.0111 -0.019524,0.002 -0.038892,0.005 -0.056992,0.0128 -0.020032,0.0104 -0.037679,0.0122 -0.05987,0.0132 -0.017666,0.004 -0.033705,0.0111 -0.049372,0.0199 -0.015825,0.006 -0.034976,-0.003 -0.052352,1.4e-4 -0.022495,-7e-5 -0.04507,-1.7e-4 -0.06748,0.002 -0.018719,0.002 -0.0359,0.008 -0.052932,0.0163 -0.018521,0.01 -0.037436,0.005 -0.057399,0.0105 -0.022892,0.005 -0.044245,0.0138 -0.066916,0.019 -0.02268,0 -0.045504,7.4e-4 -0.067522,0.007 -0.021968,0.008 -0.043057,0.019 -0.067215,0.0164 -0.0263,-1.4e-4 -0.052599,-10e-5 -0.078897,-3e-5 -0.021709,5e-5 -0.043418,-10e-5 -0.065128,-1.4e-4 -0.027879,9e-5 -0.055815,5.3e-4 -0.08351,0.004 -0.028632,0.005 -0.055968,0.0127 -0.08356,0.0215 -0.028633,0.002 -0.056948,0.006 -0.084364,0.0146 -0.029343,0.009 -0.058849,0.009 -0.089118,0.0134 -0.034357,0.007 -0.068085,0.0174 -0.1030065,0.021 -0.039005,0.004 -0.077353,0.0118 -0.1159688,0.0186 -0.047211,0.002 -0.094601,10e-4 -0.1416222,0.007 -0.054595,0.007 -0.1080206,0.0191 -0.1621218,0.0288 -0.055535,0.009 -0.1108329,0.0179 -0.167137,0.0201 -0.055364,0.007 -0.1103596,0.0177 -0.1663137,0.0181 -0.05485,0.003 -0.1094666,0.008 -0.1638302,0.0163 -0.063382,0.007 -0.1271053,0.007 -0.1906397,0.0125 -0.063481,0.006 -0.1264841,0.0177 -0.1903603,0.0195 -0.056054,0.004 -0.1116939,0.0109 -0.1669878,0.0211 -0.063798,0.006 -0.1279269,0.009 -0.1914861,0.0172 -0.071729,0.007 -0.1435553,0.005 -0.2155378,0.005 -0.073192,9.5e-4 -0.1464829,0.003 -0.2192176,0.0118 -0.092102,0.0115 -0.183632,0.0273 -0.2758594,0.0379 -0.1200793,0.0184 -0.240089,0.0372 -0.3590909,0.0619 -0.128965,0.0275 -0.2585093,0.0518 -0.3891817,0.07 -0.1360609,0.0205 -0.2725817,0.0378 -0.4083338,0.0604 -0.1292204,0.018 -0.2584233,0.0363 -0.3883745,0.0483 -0.1280732,0.0117 -0.2566529,0.0185 -0.3852934,0.0143 -0.1169044,-0.002 -0.2339229,-0.007 -0.3499079,-0.0231 -0.1112148,-0.015 -0.223805,-0.0268 -0.3305683,-0.0634 -0.076485,-0.0264 -0.1503513,-0.0587 -0.2222006,-0.096 -0.059948,-0.033 -0.1203364,-0.0654 -0.176627,-0.10443 -0.044971,-0.0343 -0.083367,-0.0761 -0.126576,-0.11261 -0.03918,-0.0352 -0.075643,-0.0724 -0.1054299,-0.11615 -0.02954,-0.0361 -0.0547516,-0.0759 -0.0737476,-0.11855 -0.0169923,-0.0353 -0.030174,-0.0729 -0.0374196,-0.11147 -0.006635,-0.0418 6.1648e-4,-0.0839 0.009294,-0.12504 0.0121391,-0.042 0.0308507,-0.0823 0.0496488,-0.12169 0.026261,-0.0384 0.0538672,-0.0753 0.0871958,-0.1081 0.1347277,-0.10337 0.2875834,-0.1812 0.4387675,-0.25794 0.060729,-0.029 0.1237429,-0.0525 0.1880817,-0.0723 0.072638,-0.0234 0.1456489,-0.046 0.2202144,-0.0625 0.083204,-0.0198 0.1658213,-0.0417 0.2483476,-0.0641 0.07877,-0.0199 0.1581951,-0.0366 0.2379476,-0.0521 0.08776,-0.0173 0.1755195,-0.0348 0.2640653,-0.0477 0.083826,-0.0124 0.1667963,-0.0297 0.2505917,-0.0424 0.085623,-0.0126 0.1715346,-0.0227 0.2577544,-0.0302 0.079583,-0.0101 0.1591945,-0.0193 0.2389423,-0.0279 0.078233,-0.01 0.1570715,-0.0136 0.2348587,-0.0268 0.080112,-0.0124 0.1607151,-0.0211 0.2409513,-0.0326 0.074326,-0.009 0.1475266,-0.0241 0.2215327,-0.0352 0.07979,-0.0149 0.1592088,-0.0318 0.239005,-0.0466 0.075883,-0.0135 0.1513364,-0.0295 0.2277065,-0.0402 0.077992,-0.0108 0.1555279,-0.0249 0.2334387,-0.0363 0.076711,-0.0147 0.153743,-0.0276 0.2301703,-0.0437 0.073046,-0.0108 0.1466464,-0.0178 0.2189422,-0.0333 0.071272,-0.0122 0.1423088,-0.0258 0.2137645,-0.0368 0.06789,-0.0103 0.1367049,-0.0143 0.2037326,-0.03 0.065431,-0.0146 0.1313003,-0.0273 0.1974101,-0.0383 0.05435,-0.0106 0.1087157,-0.0214 0.1625471,-0.0345 0.04891,-0.009 0.096899,-0.021 0.1442537,-0.0365 0.05366,-0.0159 0.1055439,-0.0372 0.1596086,-0.0518 0.047376,-0.0163 0.093747,-0.0352 0.1396756,-0.0553 0.040617,-0.0172 0.080824,-0.0349 0.1200624,-0.0551 0.021598,-0.0114 0.043207,-0.0227 0.064578,-0.0345 0.00673,-0.004 0.026849,-0.015 0.020206,-0.0111 -0.2970022,0.17293 -0.3718994,0.22225 -0.2646765,0.15225 0.134012,-0.0697 -0.1742786,0.091 0.3322698,-0.19293 0.095335,-0.0534 -0.1884616,0.11073 -0.2828215,0.16587 -0.024167,0.0141 0.06585,-0.0407 0.040904,-0.0333 0.023141,-0.0214 0.047653,-0.0403 0.061917,-0.0689 0.00897,-0.0302 0.026061,-0.0555 0.039178,-0.0839 0.017005,-0.0257 0.021865,-0.0602 0.033743,-0.0885 0.00661,-0.0291 0.01697,-0.0553 0.012533,-0.0859 -1.674e-4,-0.0253 2.157e-4,-0.0507 -9.26e-4,-0.076 -0.00169,-0.026 -0.00421,-0.0524 -0.015436,-0.0763 -0.011726,-0.0286 -0.018172,-0.058 -0.027376,-0.0876 -0.010332,-0.0335 -0.00814,-0.0697 -0.019688,-0.10312 -0.010901,-0.044 -0.016314,-0.0885 -0.022513,-0.13341 -0.00891,-0.0596 -0.00909,-0.11918 -0.0072,-0.17944 0.00111,-0.0656 0.00251,-0.13117 0.00832,-0.19654 0.00648,-0.0642 0.017576,-0.12836 0.00927,-0.19303 -0.00577,-0.0749 -0.018153,-0.14965 -0.016092,-0.2249 0.00295,-0.094 0.00732,-0.18803 0.017963,-0.28153 0.011229,-0.10101 0.016282,-0.20248 0.030571,-0.30314 0.01257,-0.087 0.016978,-0.1764 0.051671,-0.25851 0.017526,-0.0579 0.040102,-0.11357 0.068882,-0.16676 0.012557,-0.0311 0.026289,-0.0598 0.051676,-0.0822 0.104263,-0.0609 0.2080474,-0.12254 0.3127891,-0.18257 0.01029,-0.006 0.026157,-0.004 0.037009,-10e-4 0.012803,0.004 0.014076,0.006 0.024987,0.0132 0.037939,0.0364 0.052047,0.0865 0.064875,0.13628 0,0 -0.3103842,0.16373 -0.3103842,0.16373 z"
       inkscape:connector-curvature="0"
       style="stroke-width:0.26458332" />
    <path
       id="path1130"
       d="m 13.594075,294.93609 c 0.07324,-10e-4 0.145715,0.0101 0.21853,0.0165 0.07441,0.002 0.147733,0.011 0.221479,0.0201 0.07994,0.011 0.159458,0.0232 0.240032,0.0295 0.07997,0.005 0.160145,0.006 0.240253,0.006 0.0797,0.009 0.159482,0.0164 0.239628,0.0202 0.09141,0.005 0.182325,0.004 0.273431,-0.004 0.09458,-0.007 0.189041,-0.012 0.283336,-0.0225 0.103403,-0.007 0.206249,-0.0178 0.309388,-0.0274 0.103649,-0.005 0.206738,-0.0154 0.310093,-0.0244 0.104,-0.005 0.207139,-0.019 0.310902,-0.0271 0.09437,-0.001 0.187018,-0.0161 0.279642,-0.0324 0.09258,-0.0169 0.184904,-0.0327 0.278771,-0.0407 0.08553,-0.0133 0.171407,-0.0222 0.25689,-0.0356 0.06736,-0.0151 0.138177,-0.0211 0.204184,-0.0416 0.04041,-0.0139 0.08257,-0.0207 0.124936,-0.025 0.01901,-0.01 0.03758,-0.0175 0.05813,-0.0226 0,0 -0.278979,0.21564 -0.278979,0.21564 v 0 c -0.02,0.007 -0.03925,0.0168 -0.06115,0.0171 -0.04091,0.006 -0.08073,0.0163 -0.120504,0.0273 -0.06792,0.0135 -0.135863,0.0273 -0.204341,0.0376 -0.08553,0.0131 -0.171634,0.0217 -0.257354,0.0334 -0.09321,0.01 -0.185043,0.027 -0.277332,0.043 -0.09296,0.016 -0.186362,0.0258 -0.280676,0.0292 -0.103571,0.009 -0.206827,0.0213 -0.310653,0.0272 -0.103212,0.01 -0.206438,0.0173 -0.309835,0.0244 -0.103291,0.0102 -0.206599,0.0193 -0.309996,0.0283 -0.09448,0.01 -0.189353,0.0132 -0.283939,0.0218 -0.09218,0.007 -0.184415,0.005 -0.27671,8.5e-4 -0.07997,-0.004 -0.15946,-0.0136 -0.239361,-0.0185 -0.0805,-6.9e-4 -0.161075,-0.002 -0.241351,-0.009 -0.0809,-0.008 -0.161044,-0.0202 -0.241687,-0.0299 -0.07331,-0.009 -0.146699,-0.0149 -0.220456,-0.0195 -0.0729,-0.007 -0.145815,-0.0163 -0.219225,-0.012 0,0 0.283932,-0.20629 0.283932,-0.20629 z"
       inkscape:connector-curvature="0"
       style="stroke-width:0.26458332" />
  </g>
</svg>
