<?xml version="1.0" encoding="UTF-8" standalone="no"?>
<!-- Created with Inkscape (http://www.inkscape.org/) -->

<svg
   xmlns:dc="http://purl.org/dc/elements/1.1/"
   xmlns:cc="http://creativecommons.org/ns#"
   xmlns:rdf="http://www.w3.org/1999/02/22-rdf-syntax-ns#"
   xmlns:svg="http://www.w3.org/2000/svg"
   xmlns="http://www.w3.org/2000/svg"
   xmlns:sodipodi="http://sodipodi.sourceforge.net/DTD/sodipodi-0.dtd"
   xmlns:inkscape="http://www.inkscape.org/namespaces/inkscape"
   width="64"
   height="64"
   viewBox="0 0 64.000001 64.000001"
   id="svg2"
   version="1.1"
   inkscape:version="0.91 r13725"
   inkscape:export-filename="/home/oserkin/zwork/DeepLearning/deep_learning_workshop_tasks/commonlearningdata/cartooncats/1_cat_13.png"
   inkscape:export-xdpi="90"
   inkscape:export-ydpi="90"
   sodipodi:docname="1_cat_13.svg">
  <defs
     id="defs4" />
  <sodipodi:namedview
     id="base"
     pagecolor="#ffffff"
     bordercolor="#666666"
     borderopacity="1.0"
     inkscape:pageopacity="0.0"
     inkscape:pageshadow="2"
     inkscape:zoom="11.2"
     inkscape:cx="30.481924"
     inkscape:cy="29.606808"
     inkscape:document-units="px"
     inkscape:current-layer="layer1"
     showgrid="false"
     units="px"
     inkscape:window-width="1855"
     inkscape:window-height="1056"
     inkscape:window-x="1985"
     inkscape:window-y="24"
     inkscape:window-maximized="1" />
  <metadata
     id="metadata7">
    <rdf:RDF>
      <cc:Work
         rdf:about="">
        <dc:format>image/svg+xml</dc:format>
        <dc:type
           rdf:resource="http://purl.org/dc/dcmitype/StillImage" />
        <dc:title></dc:title>
      </cc:Work>
    </rdf:RDF>
  </metadata>
  <g
     inkscape:label="Layer 1"
     inkscape:groupmode="layer"
     id="layer1"
     transform="translate(0,-988.36216)">
    <path
       style="fill:none;fill-rule:evenodd;stroke:#000000;stroke-width:1px;stroke-linecap:butt;stroke-linejoin:miter;stroke-opacity:1"
       d="m 14.107143,1008.1657 c -0.188231,0.1183 0.04706,0.3053 0,0.4465 -0.02105,0.063 -0.07835,0.1129 -0.08929,0.1785 -0.01957,0.1175 0,0.2381 0,0.3572 0,0.119 0,0.2381 0,0.3571 0,0.059 0.01882,0.1221 0,0.1786 -0.04209,0.1263 -0.142006,0.2292 -0.178571,0.3571 -0.02453,0.086 0,0.1786 0,0.2679 0,0.06 0,0.119 0,0.1786 0,0.5357 0,1.0714 0,1.6071 0,0.1488 0,0.2976 0,0.4464 0,0.06 0.01167,0.1202 0,0.1786 -0.01846,0.092 -0.07381,0.175 -0.08929,0.2679 -0.01468,0.088 0,0.1785 0,0.2678 0,0.089 0,0.1786 0,0.2679 0,0.4464 0,0.8928 0,1.3393 0,1.0119 0,2.0238 0,3.0357 0,0.6547 0,1.3095 0,1.9643 0,0.2381 0,0.4761 0,0.7142 0,0.089 -0.02166,0.1813 0,0.2679 0.01614,0.065 0.07315,0.114 0.08929,0.1786 0.03233,0.1293 -0.02584,0.4065 0,0.5357 0.01305,0.065 0.07623,0.1133 0.08929,0.1786 0.154924,0.7746 -0.234577,-0.3466 0.08929,0.625 0.02105,0.063 0.07623,0.1133 0.08929,0.1785 0.01751,0.088 -0.03316,0.185 0,0.2679 0.03126,0.078 0.131877,0.1085 0.178571,0.1786 0.07383,0.1107 0.119048,0.2381 0.178572,0.3571 0.02976,0.06 0.07623,0.1133 0.08929,0.1786 0.01751,0.087 -0.01468,0.1798 0,0.2678 0.01547,0.093 0.07083,0.1756 0.08929,0.2679 0.01167,0.058 -0.02211,0.1233 0,0.1786 0.03985,0.1 0.138718,0.1682 0.178572,0.2678 0.02211,0.055 -0.01444,0.1208 0,0.1786 0.01614,0.064 0.07623,0.1133 0.08929,0.1786 0.03688,0.1844 -0.04354,0.5401 0,0.7142 0.01021,0.041 0.05952,0.06 0.08929,0.089 0,0.089 -0.01751,0.1803 0,0.2679 0.01305,0.065 0.05952,0.119 0.08929,0.1786 0.05952,0.119 0.119047,0.2381 0.178571,0.3571 0.02976,0.06 0.07315,0.114 0.08929,0.1786 0.02887,0.1155 -0.02335,0.2404 0,0.3571 0.0929,0.4645 0.05952,0.089 0.178571,0.4464 0.02085,0.063 -0.02085,0.2946 0,0.3572 0.05948,0.1784 0.20838,0.268 0.267857,0.4464 0.0094,0.028 0,0.059 0,0.089 0,0.089 -0.01751,0.1803 0,0.2679 0.01305,0.065 0.06457,0.1167 0.08929,0.1785 0.03495,0.087 0.05952,0.1786 0.08929,0.2679 0.05952,0.089 0.130582,0.1719 0.178571,0.2678 0.04209,0.084 0.0472,0.1837 0.08929,0.2679 0.01882,0.038 0.07046,0.052 0.08929,0.089 0.01331,0.027 -0.0072,0.06 0,0.089 0.02283,0.091 0.0472,0.1837 0.08929,0.2678 0.10188,0.2038 0.201038,0.246 0.267858,0.4465 0.0094,0.028 0,0.06 0,0.089 0.02976,0.089 0.0472,0.1837 0.08929,0.2679 0.01882,0.038 0.06403,0.056 0.08929,0.089 0.06439,0.086 0.123362,0.1758 0.178571,0.2679 0.03424,0.057 0.05237,0.1232 0.08929,0.1785 0.02335,0.035 0.07046,0.052 0.08929,0.089 0.01331,0.027 -0.01331,0.063 0,0.089 0.421087,0.8422 0.01673,-0.02 0.267857,0.3571 0.128083,0.1922 0.149095,0.4271 0.267857,0.625 0.05521,0.092 0.114187,0.1821 0.178572,0.2679 0.02525,0.034 0.07046,0.052 0.08929,0.089 0.04209,0.084 0.0472,0.1837 0.08929,0.2678 0.05357,0.1072 0.214286,0.1608 0.267857,0.2679 0.01331,0.027 0,0.059 0,0.089"
       id="path3491"
       inkscape:connector-curvature="0" />
    <path
       style="fill:none;fill-rule:evenodd;stroke:#000000;stroke-width:1px;stroke-linecap:butt;stroke-linejoin:miter;stroke-opacity:1"
       d="m 53.571429,1007.1836 c -0.02976,0.119 -0.07407,0.2354 -0.08929,0.3571 -0.01477,0.1182 0.01477,0.239 0,0.3572 -0.01522,0.1217 -0.05952,0.2381 -0.08929,0.3571 -0.02976,0.1191 -0.05557,0.2392 -0.08928,0.3572 -0.02586,0.091 -0.07761,0.1744 -0.08929,0.2678 -0.01846,0.1477 0.01347,0.2982 0,0.4464 -0.01639,0.1803 -0.05952,0.3572 -0.08929,0.5358 0,0.2381 0.01485,0.4766 0,0.7142 -0.01497,0.2395 -0.0752,0.4748 -0.08929,0.7143 -0.01573,0.2674 0.04404,0.5394 0,0.8036 -0.04642,0.2785 -0.206607,0.528 -0.267857,0.8036 -0.222728,1.0023 0.02178,0.6413 -0.08928,1.6964 -0.02873,0.2729 -0.122044,0.5351 -0.178572,0.8036 -0.213399,1.0136 -0.129893,0.7306 -0.357143,1.6964 -0.05621,0.2389 -0.13044,0.4736 -0.178571,0.7143 -0.07101,0.355 -0.04734,0.734 -0.178572,1.0714 -0.08425,0.2167 -0.297619,0.3572 -0.446428,0.5357 -0.119048,0.2381 -0.268547,0.4633 -0.357143,0.7143 -0.09132,0.2588 -0.101147,0.5403 -0.178571,0.8036 -0.07175,0.2439 -0.210679,0.4665 -0.267858,0.7143 -0.03346,0.145 0.01643,0.2985 0,0.4464 -0.01355,0.122 -0.05952,0.2381 -0.08928,0.3571 -0.182176,0.7287 0.02198,-0.049 -0.267857,0.8929 -0.06372,0.2071 -0.104526,0.4214 -0.178572,0.625 -0.04549,0.1251 -0.131837,0.2325 -0.178571,0.3571 -0.03892,0.1038 -0.106621,0.5051 -0.178572,0.625 -0.04331,0.072 -0.125985,0.1129 -0.178571,0.1786 -0.263275,0.3291 -0.100945,0.1683 -0.267857,0.4464 -0.110419,0.1841 -0.246724,0.3517 -0.357143,0.5358 -0.03424,0.057 -0.05952,0.119 -0.08929,0.1785 -0.05952,0.089 -0.123362,0.1759 -0.178571,0.2679 -0.06848,0.1141 -0.12914,0.2336 -0.178572,0.3571 -0.03495,0.087 -0.05433,0.1805 -0.08928,0.2679 -0.161844,0.4046 -0.0082,0.012 -0.178572,0.2678 -0.07383,0.1108 -0.104741,0.2464 -0.178571,0.3572 -0.07004,0.1051 -0.192096,0.1668 -0.267857,0.2678 -0.03993,0.053 -0.05237,0.1232 -0.08929,0.1786 -0.02335,0.035 -0.06594,0.054 -0.08929,0.089 -0.03692,0.055 -0.04936,0.1253 -0.08929,0.1786 -0.08251,0.11 -0.281365,0.2435 -0.357142,0.3571 -0.03692,0.055 -0.05505,0.1215 -0.08929,0.1786 -0.07641,0.1273 -0.216834,0.2934 -0.267857,0.4464 -0.0094,0.028 0.01331,0.063 0,0.089 -0.01882,0.038 -0.07046,0.052 -0.08929,0.089 -0.04209,0.084 -0.0472,0.1837 -0.08929,0.2679 -0.04799,0.096 -0.130582,0.1718 -0.178571,0.2678 -0.01331,0.027 0.0094,0.061 0,0.089 -0.04209,0.1263 -0.136482,0.2309 -0.178572,0.3571 -0.0094,0.028 0.01331,0.063 0,0.089 -0.01882,0.038 -0.05952,0.06 -0.08928,0.089 -0.02976,0.03 -0.05952,0.06 -0.08929,0.089 -0.119048,0.1191 -0.238095,0.2381 -0.357143,0.3572 -0.0027,0 -0.339111,0.321 -0.357143,0.3571 -0.01331,0.027 0.01331,0.063 0,0.089 -0.01882,0.038 -0.05952,0.06 -0.08928,0.089 -0.02976,0.03 -0.05952,0.06 -0.08929,0.089 -0.119048,0.119 -0.238095,0.2381 -0.357143,0.3571"
       id="path3493"
       inkscape:connector-curvature="0" />
    <path
       style="fill:none;fill-rule:evenodd;stroke:#000000;stroke-width:1px;stroke-linecap:butt;stroke-linejoin:miter;stroke-opacity:1"
       d="m 17.857143,1033.1657 c 0.333868,0.1071 0.561396,0.4253 0.892857,0.5357 0.828555,0.2762 0.03377,0.01 0.535714,0.089 0.121042,0.02 0.239153,0.056 0.357143,0.089 0.08929,0.03 0.178572,0.059 0.267857,0.089 0.05952,0.03 0.115437,0.068 0.178572,0.089 0.116414,0.039 0.236101,0.069 0.357143,0.089 0.05871,0.01 0.119047,0 0.178571,0 0.14881,0.03 0.299203,0.053 0.446429,0.089 0.09131,0.023 0.175569,0.071 0.267857,0.089 0.05837,0.012 0.119047,0 0.178571,0 0.119048,0 0.238824,-0.013 0.357143,0 0.279445,-0.1592 0.412538,0.136 0.625,0.1785 0.08755,0.017 0.179469,-0.013 0.267857,0 0.121478,0.017 0.236101,0.069 0.357143,0.089 0.05871,0.01 0.119048,0 0.178571,0 0.178572,0 0.357143,0 0.535715,0 0.446428,0 0.892857,0 1.339285,0 0.14881,0 0.29762,0 0.446429,0 0.119048,0 0.238823,-0.013 0.357143,0 0.150828,0.017 0.2956,0.072 0.446428,0.089 0.11832,0.013 0.238824,-0.013 0.357143,0 0.150829,0.017 0.295601,0.072 0.446429,0.089 0.207059,0.023 0.416667,0 0.625,0 0.47619,0 0.952381,0 1.428571,0 1.190477,0 2.380953,0 3.571429,0 1.041667,0 2.083333,0 3.125,0 0.297619,0 0.595238,0 0.892857,0 0.08929,0 0.178572,0 0.267857,0 0.119048,0 0.239292,0.017 0.357143,0 0.09317,-0.013 0.174688,-0.076 0.267857,-0.089 0.117851,-0.017 0.244205,0.038 0.357143,0 0.914598,-0.3049 -0.649786,-0.085 0.446429,-0.2679 0.146784,-0.024 0.300509,0.029 0.446428,0 0.09229,-0.018 0.17557,-0.071 0.267857,-0.089 0.05837,-0.012 0.119048,0 0.178572,0 0.148809,0 0.297619,0 0.446428,0 0.02976,0 0.06041,0.01 0.08929,0 0.0913,-0.023 0.175569,-0.071 0.267857,-0.089 0.116736,-0.023 0.24661,0.044 0.357143,0 0.09963,-0.04 0.166056,-0.1447 0.267857,-0.1786 0.0847,-0.028 0.178572,0 0.267857,0 0.02976,0 0.06267,0.013 0.08929,0 0.07529,-0.038 0.10853,-0.1319 0.178572,-0.1786 0.05537,-0.037 0.119047,-0.06 0.178571,-0.089 0.05952,-0.06 0.111228,-0.128 0.178571,-0.1785 0.10648,-0.08 0.246398,-0.1048 0.357143,-0.1786 0.103022,-0.069 0.164835,-0.1992 0.267857,-0.2679 0.02476,-0.016 0.06267,0.013 0.08929,0 0.408626,-0.2043 -0.378876,0.037 0.267857,-0.1785 0.05647,-0.019 0.125332,0.027 0.178572,0 0.03765,-0.019 0.05164,-0.071 0.08928,-0.089 0.02662,-0.013 0.06267,0.013 0.08929,0 0.09598,-0.048 0.171878,-0.1306 0.267857,-0.1786 0.02662,-0.013 0.06267,0.013 0.08929,0 0.03765,-0.019 0.05164,-0.07 0.08929,-0.089 0.08418,-0.042 0.183677,-0.047 0.267857,-0.089 0.03765,-0.019 0.05952,-0.06 0.08929,-0.089 0.05952,-0.06 0.108529,-0.1319 0.178571,-0.1786 0.02476,-0.016 0.06105,0.01 0.08929,0 0.06313,-0.021 0.115437,-0.068 0.178571,-0.089 0.07483,-0.025 0.297971,0.03 0.357143,0 0.07529,-0.038 0.09871,-0.1519 0.178571,-0.1786 0.394127,-0.1313 -0.04931,0.2279 0.357143,-0.1785"
       id="path3495"
       inkscape:connector-curvature="0" />
    <path
       style="fill:none;fill-rule:evenodd;stroke:#000000;stroke-width:1px;stroke-linecap:butt;stroke-linejoin:miter;stroke-opacity:1"
       d="m 14.017857,1008.9693 c 0,-0.119 0.01957,-0.2397 0,-0.3571 -0.01094,-0.066 -0.06824,-0.1155 -0.08929,-0.1786 -0.01882,-0.056 0.01882,-0.1221 0,-0.1786 -0.02104,-0.063 -0.06824,-0.1154 -0.08929,-0.1786 -0.01882,-0.056 0.01882,-0.1221 0,-0.1785 -0.02104,-0.063 -0.07315,-0.114 -0.08929,-0.1786 -0.02166,-0.087 0,-0.1786 0,-0.2679 0,-0.2083 0,-0.4166 0,-0.625 0,-0.06 0,-0.119 0,-0.1785 0,-0.03 0.01651,-0.065 0,-0.089 -0.04669,-0.07 -0.140925,-0.1033 -0.178571,-0.1786 -0.03993,-0.08 0,-0.1786 0,-0.2678 0,-0.143 0.02038,-0.7425 0,-0.8036 -0.02344,-0.07 -0.396216,-0.3711 -0.446416,-0.4464 -0.02666,-0.04 0.022,-0.3805 0,-0.4465 -0.01331,-0.04 -0.07046,-0.052 -0.08929,-0.089 -0.01989,-0.04 0.0064,-0.3253 0,-0.3571 -0.01846,-0.092 -0.07083,-0.1756 -0.08929,-0.2679 -0.01751,-0.088 0.02823,-0.1831 0,-0.2678 -0.02105,-0.063 -0.06824,-0.1155 -0.08929,-0.1786 -0.01873,-0.056 0,-0.3659 0,-0.4464 0,-0.3572 0,-0.7143 0,-1.0714 0,-0.2084 0,-0.4167 0,-0.625 0,-0.089 -0.02824,-0.1832 0,-0.2679 0.01331,-0.04 0.07046,-0.052 0.08929,-0.089 0.02662,-0.053 -0.01444,-0.1208 0,-0.1786 0.02283,-0.091 0.0472,-0.1836 0.08929,-0.2678 0.03765,-0.075 0.151952,-0.099 0.178572,-0.1786 0.01361,-0.041 -0.01986,-0.31741 0,-0.35713 0.01882,-0.0376 0.07598,-0.0494 0.08929,-0.0893 0.02751,-0.0825 -0.02776,-0.36315 0,-0.44643 0.02105,-0.0631 0.06824,-0.11544 0.08929,-0.17857 0.01882,-0.0565 -0.03302,-0.12905 0,-0.17858 0.04669,-0.07 0.131877,-0.10853 0.178572,-0.17857 0.01473,-0.0221 0,-0.3113 0,-0.35714 0,-0.3869 0,-0.77381 0,-1.16071 0,-0.0577 -0.02128,-0.33587 0,-0.35715 0.02976,-0.0298 0.07046,0.0516 0.08929,0.0893 0.04209,0.0842 0.0472,0.18368 0.08929,0.26786 0.01882,0.0376 0.05952,0.0595 0.08929,0.0893 0,0.0893 -0.03316,0.18496 0,0.26786 0.03126,0.0782 0.119047,0.11905 0.178571,0.17857 0.102157,0.10216 0.124517,0.10569 0.178572,0.26786 0.0094,0.0282 -0.0072,0.0604 0,0.0893 0.02283,0.0913 0.06646,0.17656 0.08929,0.26786 0.0072,0.0289 -0.01651,0.0645 0,0.0893 0.04669,0.07 0.119048,0.11904 0.178572,0.17857 0.02976,0.0298 0.07598,0.0494 0.08929,0.0893 0.01882,0.0565 -0.01444,0.12082 0,0.17857 0.01614,0.0646 0.06824,0.11544 0.08929,0.17857 0.10634,0.31902 -0.345688,-0.36781 0.08929,0.35714 0.04331,0.0722 0.119048,0.11905 0.178571,0.17857 0.02976,0.0298 0.07046,0.0516 0.08929,0.0893 0.02662,0.0532 -0.02662,0.12534 0,0.17858 0.157895,0.31575 0.02068,-0.13722 0.178571,0.17855 0.04209,0.084 0.0472,0.1837 0.08929,0.2679 0.05357,0.1071 0.214286,0.1607 0.267857,0.2678 0.145199,0.2904 0.02254,0.2124 0.178572,0.4465 0.136208,0.2043 0.07068,-0.056 0.178571,0.2678 0.0094,0.028 0,0.059 0,0.089 0.02976,0.089 0.05433,0.1805 0.08929,0.2679 0.02472,0.062 0.07315,0.114 0.08929,0.1785 0.01444,0.058 -0.02662,0.1254 0,0.1786 0.08929,0.1786 0.178571,0.1339 0.267857,0.2679 0.03691,0.055 0.05237,0.1232 0.08929,0.1785 0.02335,0.035 0.07046,0.052 0.08929,0.089 0.01331,0.027 0,0.059 0,0.089 0.02976,0.059 0.05237,0.1232 0.08929,0.1786 0.05419,0.081 0.228288,0.1887 0.267857,0.2678 0.01331,0.027 -0.0094,0.061 0,0.089 0.02105,0.063 0.06824,0.1155 0.08929,0.1786 0.03695,0.1108 -0.0733,0.097 0.08929,0.1786 0.01862,0.01 0.446392,0 0.446429,0 0.06456,-0.016 0.114009,-0.073 0.178571,-0.089 0.05775,-0.014 0.119048,0 0.178572,0 0.119048,0 0.238095,0 0.357143,0 0.446428,0 0.892857,0 1.339285,0 0.208334,0 0.416667,0 0.625,0 0.05867,0 0.217483,-0.017 0.267858,0 0.06313,0.021 0.115437,0.068 0.178571,0.089 0.05647,0.019 0.119048,0 0.178571,0 0.135416,0 0.594409,-0.02 0.714286,0 0.09284,0.015 0.17557,0.071 0.267857,0.089 0.05837,0.012 0.120204,-0.012 0.178572,0 0.09229,0.018 0.175569,0.071 0.267857,0.089 0.116736,0.023 0.24165,-0.029 0.357143,0 0.129125,0.032 0.230874,0.1364 0.357143,0.1785 0.02823,0.01 0.05952,0 0.08929,0 0.178572,0 0.357143,0 0.535715,0 0.05952,0 0.120824,-0.014 0.178571,0 0.06456,0.016 0.113314,0.076 0.178571,0.089 0.08755,0.018 0.178572,0 0.267858,0 0.02976,0 0.06105,-0.01 0.08929,0 0.06314,0.021 0.113314,0.076 0.178572,0.089 0.08181,0.016 0.537589,0 0.625,0 0.02976,0 0.06041,-0.01 0.08929,0 0.09131,0.023 0.176552,0.067 0.267858,0.089 0.02887,0.01 0.05952,0 0.08929,0 0.07477,0 0.37853,-0.017 0.446429,0 0.06456,0.016 0.123199,0.052 0.178571,0.089 0.03502,0.023 0.04845,0.079 0.08929,0.089 0.05332,0.013 0.564956,0 0.625,0 0.446429,0 0.892857,0 1.339286,0 0.409435,0 -0.09412,-0.019 0.446428,0.089 0.05837,0.012 0.119048,0 0.178572,0 0.08929,0 0.178571,0 0.267857,0 0.05952,0 0.122102,-0.019 0.178571,0 0.03993,0.013 0.04936,0.076 0.08929,0.089 0.0847,0.028 0.178572,0 0.267857,0 0.208334,0 0.416667,0 0.625,0 0.535715,0 1.071429,0 1.607143,0 0.14881,0 0.297619,0 0.446429,0 0.05952,0 0.120203,-0.012 0.178571,0 0.09229,0.019 0.175569,0.071 0.267857,0.089 0.05837,0.012 0.119048,0 0.178572,0 0.208333,0 0.416666,0 0.625,0 0.505952,0 1.011904,0 1.517857,0 1.488095,0 2.97619,0 4.464286,0 0.47619,0 0.95238,0 1.428571,0 0.148809,0 0.297619,0 0.446429,0 0.08928,0 0.178571,0 0.267857,0 0.02976,0 0.06267,-0.013 0.08928,0 0.09598,0.048 0.168224,0.1388 0.267858,0.1786 0.148809,0.059 0.148809,-0.03 0.267857,0 0.0913,0.023 0.175569,0.071 0.267857,0.089 0.05837,0.012 0.119047,0 0.178571,0 0.14881,0 0.297619,0 0.446429,0 0.386905,0 0.773809,0 1.160714,0 0.14881,0 0.297619,0 0.446429,0 0.02976,0 0.0601,-0.01 0.08928,0 0.120329,0.024 0.236815,0.065 0.357143,0.089 0.02918,0.01 0.05952,0 0.08929,0 0.14881,0 0.297619,0 0.446429,0 0.297619,0 0.595238,0 0.892857,0 0.07737,0 0.305422,-0.017 0.357143,0 0.06313,0.021 0.119047,0.059 0.178571,0.089 0.119048,0 0.24165,-0.029 0.357143,0 0.129125,0.032 0.228017,0.1463 0.357143,0.1786 0.115493,0.029 0.239014,-0.015 0.357143,0 0.121763,0.015 0.235379,0.074 0.357142,0.089 0.206725,0.026 0.416667,0 0.625,0 0.09254,0 0.494601,0.021 0.535715,0 0.09089,-0.045 0.142322,-0.1953 0.178571,-0.2678 0.191881,-0.3838 0.178572,-0.2241 0.178572,-0.4464 0,-0.089 -0.01751,-0.1803 0,-0.2679 0.01305,-0.065 0.06457,-0.1168 0.08928,-0.1786 0.03495,-0.087 0.06343,-0.1773 0.08929,-0.2678 0.03371,-0.118 0.0284,-0.2506 0.08929,-0.3572 0.06265,-0.1096 0.188977,-0.1692 0.267857,-0.2678 0.269837,-0.3373 -0.09938,-0.01 0.08929,-0.4465 0.05862,-0.1367 0.194027,-0.2279 0.267857,-0.3571 0.04669,-0.082 0.04086,-0.1872 0.08928,-0.2679 0.49828,-0.8304 -0.178946,0.6258 0.357143,-0.4464 0.04209,-0.084 0.05221,-0.1813 0.08929,-0.2678 0.05243,-0.1224 0.119048,-0.2381 0.178571,-0.3572 0.02976,-0.06 0.04936,-0.1253 0.08929,-0.1786 0.05051,-0.067 0.136807,-0.1054 0.178572,-0.1785 0.07952,-0.1392 0.09905,-0.3073 0.178571,-0.4465 0.04176,-0.073 0.125985,-0.1128 0.178571,-0.1785 0.06704,-0.084 0.109875,-0.18545 0.178572,-0.26789 0.08084,-0.097 0.188977,-0.16925 0.267857,-0.26785 0.04157,-0.052 0.04936,-0.12533 0.08929,-0.17857 0.05051,-0.0673 0.119047,-0.11905 0.178571,-0.17858 0.119048,-0.11904 0.238095,-0.23809 0.357143,-0.35714 0.204763,-0.20476 -0.03502,0.0467 0.267857,-0.35714 0.02525,-0.0337 0.05952,-0.0595 0.08929,-0.0893 0.02976,-0.0298 0.05427,-0.0659 0.08929,-0.0893 0.05537,-0.0369 0.125331,-0.0494 0.178571,-0.0893 0.06734,-0.0505 0.119048,-0.11905 0.178571,-0.17857 0.08929,-0.0893 0.178572,-0.17858 0.267858,-0.26786 0.05952,-0.0595 0.10853,-0.13188 0.178571,-0.17857 0.02476,-0.0165 0.06267,0.0133 0.08929,0 0.296123,-0.29613 -0.08418,0.0421 0.178571,-0.0893 0.03765,-0.0188 0.05427,-0.0659 0.08929,-0.0893 0.05537,-0.0369 0.123199,-0.0524 0.178571,-0.0893 0.03502,-0.0234 0.0472,-0.0893 0.08929,-0.0893 0.02976,0 0,0.0595 0,0.0893 0,0.14881 0,0.29762 0,0.44643 0,0.29185 0.01729,0.51937 -0.08929,0.80357 -0.124456,0.33188 -0.204509,0.30826 -0.267857,0.625 -0.02335,0.11674 0.02887,0.24165 0,0.35714 -0.115905,0.46365 -0.08929,-0.0953 -0.08929,0.35715 0,0.8545 0.03993,-0.19965 -0.08928,0.4464 -0.04106,0.2053 0.03502,0.5042 0,0.7143 0.173679,0.2481 -0.14629,0.228 -0.178572,0.3572 -0.02166,0.087 0.01751,0.1803 0,0.2678 -0.03126,0.1563 -0.236591,0.3794 -0.267857,0.5357 -0.01886,0.094 0,0.4959 0,0.625 0,0.059 0.02211,0.1233 0,0.1786 -0.03985,0.1 -0.138718,0.1682 -0.178571,0.2679 -0.02211,0.055 0,0.119 0,0.1785 0,0.089 0.0191,0.3701 0,0.4465 -0.02283,0.091 -0.06646,0.1765 -0.08929,0.2678 -0.0072,0.029 0.0094,0.061 0,0.089 -0.02105,0.063 -0.07315,0.114 -0.08929,0.1786 -0.02166,0.087 0,0.1785 0,0.2678 0,0.1786 0,0.3572 0,0.5357 0,0.03 0.0094,0.061 0,0.089 -0.02105,0.063 -0.06824,0.1155 -0.08928,0.1786 -0.01756,0.053 0,0.3965 0,0.4464 0,0.03 0.01331,0.063 0,0.089 -0.04799,0.096 -0.130582,0.1719 -0.178572,0.2679 -0.02662,0.053 0.01882,0.1221 0,0.1786 -0.02105,0.063 -0.07314,0.114 -0.08929,0.1785 -0.01645,0.066 0.02616,0.3941 0,0.4465 -0.11033,0.2206 -0.08928,-0.031 -0.08928,0.1785"
       id="path3497"
       inkscape:connector-curvature="0" />
    <path
       style="fill:none;fill-rule:evenodd;stroke:#000000;stroke-width:1px;stroke-linecap:butt;stroke-linejoin:miter;stroke-opacity:1"
       d="m 42.857143,1008.9693 c -0.09837,0.2871 -0.08929,0.5187 -0.08929,0.8036 0,0.03 -0.01651,0.064 0,0.089 0.04669,0.07 0.10853,0.1318 0.178572,0.1785 0.02633,0.018 0.472929,0 0.535714,0 0.05952,0 0.119048,0 0.178571,0 0.02976,0 0.06452,0.016 0.08929,0 0.106732,-0.071 0.234922,-0.2254 0.267857,-0.3571 0.01444,-0.058 -0.02662,-0.1253 0,-0.1786 0.08929,-0.1785 0.178572,-0.1339 0.267857,-0.2678 0.115501,-0.1733 0.08929,-0.2594 0.08929,-0.4465 0,-0.06 0,-0.119 0,-0.1785 0,-0.03 0.01331,-0.063 0,-0.089 -0.01882,-0.038 -0.05952,-0.06 -0.08929,-0.089 -0.02976,-0.03 -0.05164,-0.07 -0.08928,-0.089 -0.02662,-0.013 -0.05952,0 -0.08929,0 -0.02976,0 -0.05952,0 -0.08929,0 -0.148809,0 -0.297619,0 -0.446428,0 -0.0353,0 -0.408296,-0.019 -0.446429,0 -0.240958,0.1205 0.0031,0.04 -0.08929,0.1786 -0.241706,0.3625 -0.178571,-0.034 -0.178571,0.4464 z"
       id="path3499"
       inkscape:connector-curvature="0" />
    <path
       style="fill:none;fill-rule:evenodd;stroke:#000000;stroke-width:1px;stroke-linecap:butt;stroke-linejoin:miter;stroke-opacity:1"
       d="m 21.339286,1008.3443 c -0.0965,0.386 -0.08929,0.2344 -0.08929,0.4464 0,0.06 0,0.1191 0,0.1786 0,0.06 -0.01444,0.1208 0,0.1786 0.01614,0.064 0.06824,0.1154 0.08929,0.1785 0.0094,0.028 0,0.06 0,0.089 0.02976,0.089 0.0472,0.1837 0.08929,0.2679 0.01882,0.038 0.05952,0.06 0.08929,0.089 0.02976,0.03 0.05164,0.07 0.08929,0.089 0.02662,0.013 0.06267,-0.013 0.08929,0 0.03765,0.019 0.05164,0.07 0.08929,0.089 0.02648,0.013 0.449355,0 0.535715,0 0.04989,0 0.393738,0.018 0.446428,0 0.06525,-0.022 0.226995,-0.097 0.267857,-0.1786 0.01174,-0.024 0,-0.3105 0,-0.3572 0,-0.064 0.01524,-0.49 0,-0.5357 -0.01331,-0.04 -0.07046,-0.052 -0.08929,-0.089 -0.01331,-0.027 0.01331,-0.063 0,-0.089 -0.03765,-0.075 -0.140926,-0.1033 -0.178572,-0.1786 -0.01331,-0.027 0.01651,-0.065 0,-0.089 -0.07004,-0.1051 -0.178571,-0.1786 -0.267857,-0.2679 -0.04701,-0.047 -0.220171,-0.244 -0.267857,-0.2678 -0.02379,-0.012 -0.495322,0 -0.535714,0 -0.07559,0 -0.309143,-0.016 -0.357143,0 -0.03993,0.013 -0.05952,0.059 -0.08929,0.089"
       id="path3501"
       inkscape:connector-curvature="0" />
    <path
       style="fill:none;fill-rule:evenodd;stroke:#000000;stroke-width:1px;stroke-linecap:butt;stroke-linejoin:miter;stroke-opacity:1"
       d="m 31.696429,1010.9336 c -0.05952,-0.1191 -0.08446,-0.263 -0.178572,-0.3572 -0.01241,-0.012 -0.489298,-0.1553 -0.535714,-0.1785 -0.03765,-0.019 -0.05952,-0.06 -0.08929,-0.089 -0.119047,0 -0.240407,0.023 -0.357143,0 -0.04127,-0.01 -0.04936,-0.076 -0.08929,-0.089 -0.05309,-0.018 -0.43025,0 -0.535715,0 -0.357142,0 -0.714285,0 -1.071428,0 -0.208334,0 -0.416667,0 -0.625,0 -0.05952,0 -0.119048,0 -0.178572,0 -0.02976,0 -0.06452,-0.016 -0.08929,0 -0.07004,0.047 -0.119048,0.119 -0.178572,0.1786 -0.02976,0.03 -0.07046,0.052 -0.08929,0.089 -0.01324,0.026 0,0.4493 0,0.5357 0,0.1488 0,0.2976 0,0.4464 0,0.2407 -0.06035,0.555 0.178571,0.7143 0.05537,0.037 0.119048,0.06 0.178571,0.089 0.05952,0.03 0.115437,0.068 0.178572,0.089 0.05647,0.019 0.125332,-0.027 0.178571,0 0.03765,0.019 0.05164,0.07 0.08929,0.089 0.02662,0.013 0.06267,-0.013 0.08929,0 0.09598,0.048 0.171878,0.1305 0.267857,0.1785 0.02662,0.013 0.06165,-0.011 0.08929,0 0.123579,0.049 0.233563,0.1292 0.357142,0.1786 0.02763,0.011 0.05952,0 0.08929,0 0.08929,0 0.178572,0 0.267857,0 0.208334,0 0.416667,0 0.625,0 0.535715,0 1.071429,0 1.607143,0 0.178572,0 0.357143,0 0.535714,0 0.02976,0 0.05952,0 0.08929,0 0.02976,0 0.06267,0.013 0.08929,0 0.07529,-0.038 0.103279,-0.1409 0.178571,-0.1786 0.07143,-0.036 0.196429,0.036 0.267857,0 0.296124,-0.2961 -0.08418,0.042 0.178572,-0.089 0.03765,-0.019 0.05164,-0.07 0.08929,-0.089 0.02662,-0.013 0.06266,0.013 0.08928,0 0.03765,-0.019 0.04936,-0.076 0.08929,-0.089 0.05647,-0.019 0.122102,0.019 0.178571,0 0.06775,-0.023 0.275085,-0.3162 0.357143,-0.3572 0.02662,-0.013 0.06267,0.013 0.08929,0 0.03765,-0.019 0.05952,-0.059 0.08929,-0.089 0.02976,-0.03 0.07046,-0.052 0.08928,-0.089 0.01682,-0.034 0.0042,-0.523 0,-0.5357 -0.08405,-0.2522 -0.239193,-0.291 -0.446428,-0.4464 -0.03367,-0.025 -0.05164,-0.07 -0.08929,-0.089 -0.06321,-0.2722 -0.247386,-0.034 -0.357143,-0.089 -0.296123,-0.2961 0.08418,0.042 -0.178571,-0.089 -0.07529,-0.038 -0.103279,-0.1409 -0.178572,-0.1786 -0.02662,-0.013 -0.06266,0.013 -0.08928,0 -0.03765,-0.019 -0.05164,-0.07 -0.08929,-0.089 -0.05324,-0.027 -0.125332,0.027 -0.178571,0 -0.03765,-0.019 -0.05164,-0.07 -0.08929,-0.089 -0.02416,-0.012 -0.497255,0 -0.535714,0 -0.386905,0 -0.77381,0 -1.160715,0 -0.05952,0 -0.119047,0 -0.178571,0 -0.02976,0 -0.06452,-0.016 -0.08929,0 -0.07004,0.047 -0.119048,0.119 -0.178571,0.1785 -0.02976,0.03 -0.05164,0.071 -0.08929,0.089 -0.02662,0.013 -0.05952,0 -0.08929,0 -0.02976,0 -0.05952,0 -0.08929,0"
       id="path3503"
       inkscape:connector-curvature="0" />
    <path
       style="fill:none;fill-rule:evenodd;stroke:#000000;stroke-width:1px;stroke-linecap:butt;stroke-linejoin:miter;stroke-opacity:1"
       d="m 30.714286,1013.1657 c 0.09233,0.2304 -0.141657,0.3512 -0.178572,0.5357 -0.02918,0.146 0.02918,0.3006 0,0.4465 -0.01846,0.092 -0.07381,0.175 -0.08929,0.2678 -0.02016,0.121 0,0.4772 0,0.625 0,0.058 0.01511,0.5646 0,0.625 -0.01614,0.065 -0.06824,0.1155 -0.08929,0.1786 -0.0094,0.028 0,0.06 0,0.089 -0.05952,0.119 -0.12914,0.2336 -0.178571,0.3571 -0.01526,0.038 0,0.636 0,0.7143 0,0.506 0,1.0119 0,1.5179 0,0.1059 0.01733,0.6276 0,0.7143 -0.01305,0.065 -0.07835,0.1129 -0.08929,0.1785 -0.01895,0.1138 0,0.6512 0,0.8036 0,0.4464 0,0.8929 0,1.3393 0,0.2679 0,0.5357 0,0.8036 0,0.1033 -0.01993,0.3667 0,0.4464 0.01614,0.065 0.06824,0.1154 0.08929,0.1786 0.0094,0.028 0,0.059 0,0.089 0,0.059 0,0.119 0,0.1785"
       id="path3505"
       inkscape:connector-curvature="0" />
    <path
       style="fill:none;fill-rule:evenodd;stroke:#000000;stroke-width:1px;stroke-linecap:butt;stroke-linejoin:miter;stroke-opacity:1"
       d="m 22.053571,1021.0229 c 0.119048,0.059 0.250664,0.099 0.357143,0.1785 0.02381,0.018 -0.01331,0.063 0,0.089 0.01882,0.038 0.05952,0.059 0.08929,0.089 0.05952,0.059 0.131877,0.1085 0.178571,0.1786 0.01651,0.025 -0.01331,0.063 0,0.089 0.01882,0.038 0.06594,0.054 0.08929,0.089 0.03692,0.055 0.04936,0.1253 0.08929,0.1785 0.07576,0.1011 0.197816,0.1628 0.267857,0.2679 0.01109,0.017 0.17285,0.3514 0.178571,0.3571 0.04706,0.047 0.123199,0.052 0.178572,0.089 0.07704,0.051 0.198117,0.1981 0.267857,0.2679 0.02976,0.03 0.05164,0.07 0.08929,0.089 0.02662,0.013 0.06105,-0.01 0.08929,0 0.646734,0.2156 -0.140768,-0.026 0.267858,0.1785 0.02662,0.013 0.05952,0 0.08929,0 0.05952,0.03 0.123199,0.052 0.178572,0.089 0.07004,0.047 0.09871,0.152 0.178571,0.1786 0.05647,0.019 0.122102,-0.019 0.178572,0 0.03993,0.013 0.05164,0.071 0.08929,0.089 0.02662,0.013 0.06267,-0.013 0.08929,0 0.03765,0.019 0.04936,0.076 0.08929,0.089 0.03274,0.011 0.520395,0 0.535714,0 0.327381,0 0.654762,0 0.982143,0 0.208333,0 0.416667,0 0.625,0 0.05952,0 0.119048,0 0.178571,0 0.02976,0 0.06267,0.013 0.08929,0 0.03765,-0.019 0.05952,-0.06 0.08929,-0.089 0.112643,-0.1126 0.232751,-0.2639 0.357143,-0.3571 0.15454,-0.116 0.181134,-0.089 0.357143,-0.089 0.02976,0 0.06267,0.013 0.08929,0 0.07914,-0.04 0.186579,-0.2137 0.267857,-0.2679 0.05537,-0.037 0.123199,-0.052 0.178572,-0.089 0.03502,-0.023 0.05952,-0.059 0.08929,-0.089 0.08929,-0.089 0.178571,-0.1785 0.267857,-0.2678 0.02976,-0.03 0.05164,-0.071 0.08929,-0.089 0.02662,-0.013 0.06267,0.013 0.08929,0 0.04135,-0.021 0.30463,-0.3046 0.357143,-0.3571"
       id="path3507"
       inkscape:connector-curvature="0" />
    <path
       style="fill:none;fill-rule:evenodd;stroke:#000000;stroke-width:1px;stroke-linecap:butt;stroke-linejoin:miter;stroke-opacity:1"
       d="m 29.910714,1022.3622 c 0,0.8614 -0.06655,0.1575 0.08929,0.625 0.0094,0.028 -0.01786,0.065 0,0.089 0.07576,0.101 0.188978,0.1692 0.267857,0.2678 0.08315,0.1039 0.09871,0.2507 0.178572,0.3572 0.05051,0.067 0.119047,0.119 0.178571,0.1785 0.14881,0.1488 0.297619,0.2976 0.446429,0.4465 0.05952,0.06 0.111228,0.128 0.178571,0.1785 0.08585,0.064 0.182011,0.1142 0.267857,0.1786 0.01857,0.014 0.171126,0.1761 0.178572,0.1786 0.05647,0.019 0.122102,-0.019 0.178571,0 0.03993,0.013 0.05164,0.07 0.08929,0.089 0.02662,0.013 0.06267,-0.013 0.08929,0 0.09598,0.048 0.171877,0.1305 0.267857,0.1785 0.02662,0.013 0.05952,0 0.08928,0 0.05952,0 0.119048,0 0.178572,0 0.208333,0 0.416666,0 0.625,0 0.238095,0 0.47619,0 0.714286,0 0.05952,0 0.119047,0 0.178571,0 0.02976,0 0.06105,0.01 0.08929,0 0.06313,-0.021 0.114008,-0.073 0.178571,-0.089 0.05775,-0.014 0.122102,0.019 0.178572,0 0.03993,-0.013 0.05426,-0.066 0.08928,-0.089 0.05537,-0.037 0.125332,-0.049 0.178572,-0.089 0.06734,-0.051 0.119047,-0.1191 0.178571,-0.1786 0.02976,-0.03 0.05164,-0.071 0.08929,-0.089 0.02662,-0.013 0.06452,0.016 0.08929,0 0.07004,-0.047 0.111227,-0.1281 0.178571,-0.1786 0.05324,-0.04 0.125332,-0.049 0.178571,-0.089 0.101016,-0.076 0.178572,-0.1786 0.267858,-0.2679 0.05718,-0.057 0.301439,-0.2736 0.357142,-0.3571 0.136864,-0.2053 0.04171,-0.2412 0.178572,-0.4465 0.05418,-0.081 0.228288,-0.1887 0.267857,-0.2678 0.02616,-0.052 -0.01645,-0.3807 0,-0.4465 0.01614,-0.065 0.05952,-0.119 0.08929,-0.1785 0.02976,-0.06 0.05952,-0.1191 0.08928,-0.1786"
       id="path3509"
       inkscape:connector-curvature="0" />
    <path
       style="fill:none;fill-rule:evenodd;stroke:#000000;stroke-width:1px;stroke-linecap:butt;stroke-linejoin:miter;stroke-opacity:1"
       d="m 15.357143,1017.0943 c -0.08929,-0.1786 -0.136388,-0.3855 -0.267857,-0.5357 -0.257193,-0.2939 -0.40868,-0.123 -0.714286,-0.1786 -0.213175,-0.039 -0.416667,-0.119 -0.625,-0.1786 -0.503903,-0.1439 -0.819262,-0.2415 -1.339286,-0.3571 -0.296285,-0.066 -0.596571,-0.1127 -0.892857,-0.1786 -0.239579,-0.053 -0.470758,-0.1481 -0.714286,-0.1785 -0.236256,-0.03 -0.478029,0.029 -0.714285,0 -0.243528,-0.031 -0.4707582,-0.1482 -0.714286,-0.1786 -0.2362566,-0.029 -0.4761905,0 -0.7142857,0 -0.5357143,0 -1.0714286,0 -1.6071429,0 -0.3273809,0 -0.6547619,0 -0.9821428,0 -0.1785714,0 -0.3606106,-0.035 -0.5357143,0 -0.1305146,0.026 -0.2308738,0.1365 -0.3571429,0.1786 -0.1439688,0.048 -0.2992031,0.052 -0.4464285,0.089 -0.2102007,0.053 -0.4147993,0.126 -0.625,0.1785 -0.028873,0.01 -0.060412,-0.01 -0.089286,0 -0.091305,0.023 -0.1750223,0.074 -0.2678572,0.089 -0.088071,0.015 -0.1831533,-0.028 -0.2678571,0 -0.1018014,0.034 -0.1718779,0.1306 -0.2678572,0.1786 -0.02662,0.013 -0.062666,-0.013 -0.089286,0 -0.037646,0.019 -0.051639,0.07 -0.089286,0.089 -0.05324,0.027 -0.1221022,-0.019 -0.1785714,0 -0.063135,0.021 -0.1140088,0.073 -0.1785715,0.089 -0.1154931,0.029 -0.2416497,-0.029 -0.3571428,0 -0.4103826,0.1026 -0.020258,0.089 -0.2678572,0.089"
       id="path3511"
       inkscape:connector-curvature="0" />
    <path
       style="fill:none;fill-rule:evenodd;stroke:#000000;stroke-width:1px;stroke-linecap:butt;stroke-linejoin:miter;stroke-opacity:1"
       d="m 14.910714,1020.2193 c -0.332242,-0.443 -0.14404,-0.2746 -0.535714,-0.5357 -0.08929,-0.059 -0.168224,-0.1387 -0.267857,-0.1786 -0.05527,-0.022 -0.119858,0.01 -0.178572,0 -0.242083,-0.04 -0.472202,-0.1382 -0.714285,-0.1786 -0.05871,-0.01 -0.119048,0 -0.178572,0 -0.208333,0 -0.416666,0 -0.625,0 -0.47619,0 -0.952381,0 -1.428571,0 -0.476191,0 -0.952381,0 -1.4285715,0 -0.089286,0 -0.1785715,0 -0.2678572,0 -0.1488095,0 -0.2991146,-0.021 -0.4464286,0 -0.065881,0.01 -0.1154369,0.068 -0.1785714,0.089 -0.028235,0.01 -0.059524,0 -0.089286,0 -0.1190476,0.06 -0.2335633,0.1292 -0.3571429,0.1786 -0.027633,0.011 -0.060412,-0.01 -0.089286,0 -0.091305,0.023 -0.1804732,0.054 -0.2678571,0.089 -0.123579,0.049 -0.2380947,0.119 -0.3571423,0.1786 -0.1785714,0.089 -0.3571428,0.1785 -0.5357143,0.2678 -0.059524,0.03 -0.1154369,0.068 -0.1785714,0.089 -0.1164143,0.039 -0.2368144,0.065 -0.3571429,0.089 -0.029184,0.01 -0.064522,-0.016 -0.089286,0 -0.070041,0.047 -0.1032791,0.1409 -0.1785714,0.1786 -0.05324,0.027 -0.1221022,-0.019 -0.1785714,0 -0.03993,0.013 -0.049356,0.076 -0.089286,0.089 -0.056469,0.019 -0.1221022,-0.019 -0.1785715,0 -0.040759,0.014 -0.2276466,0.2276 -0.2678571,0.2678"
       id="path3513"
       inkscape:connector-curvature="0" />
    <path
       style="fill:none;fill-rule:evenodd;stroke:#000000;stroke-width:1px;stroke-linecap:butt;stroke-linejoin:miter;stroke-opacity:1"
       d="m 16.875,1022.7193 c -1.309524,0 -2.619048,0 -3.928571,0 -0.327381,0 -0.656107,-0.03 -0.982143,0 -2.587138,0.2352 0.615333,0.1506 -1.964286,0.2679 -0.3270432,0.015 -0.6547619,0 -0.9821428,0 -0.6666667,0 -1.2976191,0 -1.9642858,0 -0.297619,0 -0.5965787,-0.028 -0.8928571,0 -1.8736405,0.1784 -0.18049,0.097 -1.6964286,0.4464 -1.031746,0.2381 0,-0.1429 -0.7142857,0 -0.065257,0.013 -0.1140088,0.073 -0.1785714,0.089 -0.057747,0.014 -0.1221022,-0.019 -0.1785714,0 -0.03993,0.013 -0.059524,0.059 -0.089286,0.089 -0.029762,0.03 -0.059524,0.059 -0.089286,0.089 -0.1580413,0.158 -0.1417889,0.1601 -0.3571428,0.2678"
       id="path3515"
       inkscape:connector-curvature="0" />
    <path
       style="fill:none;fill-rule:evenodd;stroke:#000000;stroke-width:1px;stroke-linecap:butt;stroke-linejoin:miter;stroke-opacity:1"
       d="m 50,1018.0764 c 0.119048,-0.06 0.229165,-0.142 0.357143,-0.1785 0.08585,-0.025 0.178571,0 0.267857,0 0.05952,0 0.119048,0 0.178572,0 0.446428,0 0.892857,0 1.339285,0 0.446429,0 0.892857,0 1.339286,0 0.14881,0 0.298529,-0.017 0.446429,0 0.121961,0.013 0.235181,0.076 0.357142,0.089 0.1479,0.016 0.301163,-0.032 0.446429,0 0.12993,0.029 0.230874,0.1364 0.357143,0.1785 0.143969,0.048 0.299203,0.053 0.446428,0.089 0.09131,0.023 0.177363,0.063 0.267858,0.089 0.006,0 0.712846,0.178 0.714285,0.1786 0.453804,0.1815 -0.450309,-0 0.267857,0.1786 0.115494,0.029 0.244205,-0.038 0.357143,0 0.03993,0.013 0.05164,0.07 0.08929,0.089 0.08418,0.042 0.176552,0.067 0.267857,0.089 0.02887,0.01 0.06452,-0.016 0.08929,0 0.06603,0.044 0.283694,0.3205 0.357143,0.3572 0.02662,0.013 0.05952,0 0.08928,0"
       id="path3517"
       inkscape:connector-curvature="0" />
    <path
       style="fill:none;fill-rule:evenodd;stroke:#000000;stroke-width:1px;stroke-linecap:butt;stroke-linejoin:miter;stroke-opacity:1"
       d="m 49.017857,1021.0229 c 0.14881,-0.06 0.290941,-0.1397 0.446429,-0.1786 0.08662,-0.022 0.178571,0 0.267857,0 0.05952,0 0.119048,0 0.178571,0 0.238096,0 0.476191,0 0.714286,0 0.297619,0 0.595238,0 0.892857,0 0.119048,0 0.238824,-0.013 0.357143,0 0.150828,0.017 0.295844,0.071 0.446429,0.089 0.0886,0.011 0.180697,-0.019 0.267857,0 1.114757,0.2477 0.0472,0.075 0.892857,0.3571 0.143969,0.048 0.297619,0.059 0.446429,0.089 0.148809,0.03 0.297619,0.059 0.446428,0.089 0.14881,0.03 0.30246,0.041 0.446429,0.089 0.126269,0.042 0.232518,0.1318 0.357143,0.1786 0.457772,0.1716 0.294439,0.01 0.803571,0.1785 0.215028,0.072 0.413448,0.1865 0.625,0.2679 0.498479,0.1917 1.037774,0.2957 1.517857,0.5357 0.155219,0.078 0.294727,0.1836 0.446429,0.2679 0.232699,0.1292 0.486022,0.2201 0.714285,0.3571 0.07218,0.043 0.119048,0.119 0.178572,0.1786 0.148809,0.1488 0.297619,0.2976 0.446428,0.4464"
       id="path3519"
       inkscape:connector-curvature="0" />
    <path
       style="fill:none;fill-rule:evenodd;stroke:#000000;stroke-width:1px;stroke-linecap:butt;stroke-linejoin:miter;stroke-opacity:1"
       d="m 47.857143,1024.2372 c 0.14881,-0.089 0.280207,-0.218 0.446429,-0.2679 0.142533,-0.043 0.297619,0 0.446428,0 0.119048,0 0.238095,0 0.357143,0 0.178571,0 0.357143,0 0.535714,0 0.14881,0 0.29935,-0.023 0.446429,0 0.242569,0.037 0.474127,0.128 0.714286,0.1786 0.32561,0.069 0.653922,0.1238 0.982142,0.1785 0.207585,0.035 0.421658,0.035 0.625,0.089 0.2457,0.065 0.468586,0.2024 0.714286,0.2679 1.495419,0.3988 -0.310906,-0.2822 1.339286,0.2678 0.320287,0.1068 0.673041,0.2919 0.982143,0.4465 0.119047,0.06 0.243011,0.1101 0.357143,0.1785 0.03609,0.022 0.05319,0.068 0.08928,0.089 0.02567,0.015 0.411848,0.1641 0.446429,0.2679 0.01882,0.056 -0.01882,0.1221 0,0.1786 0.01331,0.04 0.07046,0.052 0.08929,0.089 0.01331,0.027 -0.01331,0.063 0,0.089 0.01882,0.038 0.07597,0.049 0.08928,0.089 0.01882,0.056 -0.01882,0.1221 0,0.1786 0.02727,0.082 0.224102,0.1567 0.267857,0.1786"
       id="path3521"
       inkscape:connector-curvature="0" />
    <path
       style="fill:none;fill-rule:evenodd;stroke:#000000;stroke-width:1px;stroke-linecap:butt;stroke-linejoin:miter;stroke-opacity:1"
       d="m 16.071429,1030.4872 c 0,1.369 0,2.7381 0,4.1071 0,0.1191 0,0.2381 0,0.3571 0,0.1191 0.01684,0.2393 0,0.3572 -0.01331,0.093 -0.05952,0.1786 -0.08929,0.2678 -0.02976,0.1191 -0.07407,0.2354 -0.08929,0.3572 -0.01477,0.1181 0,0.2381 0,0.3571 -0.02976,0.1191 -0.07193,0.2357 -0.08929,0.3572 -0.01263,0.088 0.01263,0.1794 0,0.2678 -0.01735,0.1215 -0.07406,0.2354 -0.08929,0.3572 -0.01477,0.1181 0,0.2381 0,0.3571 0,0.059 0.01167,0.1202 0,0.1786 -0.01846,0.092 -0.07083,0.1756 -0.08929,0.2678 -0.01167,0.058 0.01882,0.1221 0,0.1786 -0.04209,0.1263 -0.12914,0.2336 -0.178571,0.3572 -0.01105,0.028 0,0.06 0,0.089 0,0.119 0,0.238 0,0.3571 0,1.0278 0.03993,-0.3289 -0.08929,0.4464 -0.01957,0.1174 0,0.2381 0,0.3572 0,0.06 0.01167,0.1202 0,0.1785 -0.01846,0.092 -0.07083,0.1756 -0.08929,0.2679 -0.02918,0.1459 0.02446,0.2996 0,0.4464 -0.01547,0.093 -0.07381,0.175 -0.08929,0.2679 -0.01468,0.088 0.02453,0.182 0,0.2678 -0.03653,0.128 -0.136448,0.2309 -0.178538,0.3572 -0.01882,0.056 0,0.119 0,0.1785 0,0.1191 0,0.2381 0,0.3572 0,0.089 0.01751,0.1803 0,0.2678 -0.01305,0.065 -0.07835,0.113 -0.08929,0.1786 -0.01957,0.1174 0,0.2381 0,0.3572 0,0.2678 0,0.5357 0,0.8035 0,0.1488 0.02918,0.3005 0,0.4465 -0.01305,0.065 -0.07623,0.1133 -0.08929,0.1785 -0.02918,0.146 0,0.2977 0,0.4465 0,0.2381 0,0.4762 0,0.7142 0,0.06 0.01882,0.1221 0,0.1786 -0.01331,0.04 -0.07908,0.048 -0.08929,0.089 -0.01333,0.053 0,0.565 0,0.625 0,0.3274 0,0.6548 0,0.9822 0,0.1488 0,0.2976 0,0.4464 0,0.06 0.02211,0.1233 0,0.1786 -0.04943,0.1235 -0.12914,0.2335 -0.178572,0.3571 -0.01105,0.028 0,0.059 0,0.089 0,0.06 0,0.119 0,0.1785 0,0.2084 0,0.4167 0,0.625 0,0.053 0.01712,0.663 0,0.7143 -0.01331,0.04 -0.07046,0.052 -0.08929,0.089 -0.02563,0.051 0.02396,0.4638 0,0.5357 -0.131376,0.3942 -0.08929,-0.3244 -0.08929,0.2679 0,0.04 0.01359,0.2407 0,0.2678 -0.01882,0.038 -0.07046,0.052 -0.08929,0.089 -0.02662,0.053 0.05952,0.1786 0,0.1786 -0.02976,0 0,-0.06 0,-0.089"
       id="path3523"
       inkscape:connector-curvature="0" />
    <path
       style="fill:none;fill-rule:evenodd;stroke:#000000;stroke-width:1px;stroke-linecap:butt;stroke-linejoin:miter;stroke-opacity:1"
       d="m 48.125,1029.5943 c -0.104806,0.052 -0.354728,0.1303 -0.446428,0.2679 -0.03692,0.055 -0.04936,0.1253 -0.08929,0.1785 -0.05051,0.067 -0.128064,0.1113 -0.178572,0.1786 -0.03993,0.053 -0.05952,0.1191 -0.08928,0.1786 -0.02976,0.06 -0.07315,0.114 -0.08929,0.1785 -0.01444,0.058 0.01882,0.1221 0,0.1786 -0.04209,0.1263 -0.131837,0.2325 -0.178571,0.3572 -0.04166,0.111 -0.16964,0.7231 -0.178572,0.8035 -0.01315,0.1184 0.01315,0.2389 0,0.3572 -0.01676,0.1508 -0.07253,0.2956 -0.08929,0.4464 -0.01071,0.096 0.01339,0.75 0,0.8036 -0.02603,0.1041 -0.149091,0.1647 -0.178571,0.2678 -0.0327,0.1145 0.01315,0.2389 0,0.3572 -0.13598,1.2238 -0.08929,-0.5587 -0.08929,1.1607 0,0.9524 0,1.9048 0,2.8571 0,3.0655 0,6.131 0,9.1965 0,1.4285 0,2.8571 0,4.2857 0,0.5059 0,1.0119 0,1.5178 0,0.028 -0.03705,0.4203 0.08929,0.3572 0.136145,-0.068 0.08929,-0.4527 0.08929,-0.5357 0,-0.1786 0,-0.3572 0,-0.5358"
       id="path3525"
       inkscape:connector-curvature="0" />
    <path
       style="fill:none;fill-rule:evenodd;stroke:#000000;stroke-width:1px;stroke-linecap:butt;stroke-linejoin:miter;stroke-opacity:1"
       d="m 14.196429,1003.0764 c 0.14828,0.2966 0.280932,0.4988 0.357142,0.8036 0.01444,0.058 -0.01882,0.1221 0,0.1786 0.02105,0.063 0.06824,0.1154 0.08929,0.1786 0.0094,0.028 -0.01331,0.063 0,0.089 0.01882,0.038 0.06594,0.054 0.08929,0.089 0.03691,0.055 0.05237,0.1232 0.08929,0.1786 0.02335,0.035 0.05952,0.06 0.08929,0.089 0.08929,0.089 0.178572,0.1786 0.267857,0.2679 0.02976,0.03 0.05952,0.059 0.08929,0.089 0.02976,0.03 0.07046,0.052 0.08929,0.089 0.01331,0.027 -0.0094,0.061 0,0.089 0.05445,0.1634 0.152924,0.2422 0.267857,0.3572 0.02976,0.03 0.0472,0.089 0.08929,0.089 0.04209,0 0.07046,-0.052 0.08929,-0.089 0.01331,-0.027 0,-0.059 0,-0.089 0,-0.06 0,-0.1191 0,-0.1786 0,-0.1786 0,-0.3571 0,-0.5357 0,-0.2679 0,-0.5357 0,-0.8036 0,-0.04 0.01359,-0.2407 0,-0.2678 -0.01882,-0.038 -0.07046,-0.052 -0.08929,-0.089 -0.02662,-0.053 0.02662,-0.1254 0,-0.1786 -0.01882,-0.038 -0.07046,-0.052 -0.08929,-0.089 -0.01331,-0.027 0.01331,-0.063 0,-0.089 -0.05118,-0.1023 -0.186296,-0.1242 -0.267857,-0.1785 -0.08128,-0.054 -0.18872,-0.2283 -0.267857,-0.2679 -0.05324,-0.027 -0.125332,0.027 -0.178572,0 -0.03765,-0.019 -0.05164,-0.07 -0.08929,-0.089 -0.02662,-0.013 -0.05952,0 -0.08929,0 -0.05952,0 -0.119048,0 -0.178572,0 -0.02375,0 -0.260484,-0.015 -0.267857,0 -0.05488,0.1098 -0.05952,0.2381 -0.08929,0.3572 z"
       id="path3527"
       inkscape:connector-curvature="0" />
    <path
       style="fill:none;fill-rule:evenodd;stroke:#000000;stroke-width:1px;stroke-linecap:butt;stroke-linejoin:miter;stroke-opacity:1"
       d="m 52.232143,1003.88 c -0.119048,0.1786 -0.250663,0.3494 -0.357143,0.5357 -0.02953,0.052 0.01882,0.1221 0,0.1786 -0.02105,0.063 -0.06824,0.1154 -0.08929,0.1786 -0.01882,0.056 0,0.119 0,0.1785 0,0.1191 0,0.2381 0,0.3572 0,0.3274 0,0.6547 0,0.9821 0,0.069 -0.04804,0.4465 0.08929,0.4465 0.0057,0 0.246203,-0.2462 0.267857,-0.2679 0.119048,-0.119 0.25197,-0.2257 0.357143,-0.3571 0.222834,-0.2786 -0.0064,-0.07 0.08929,-0.3572 0.01331,-0.04 0.07046,-0.052 0.08929,-0.089 0.01331,-0.027 -0.0094,-0.061 0,-0.089 0.02104,-0.063 0.06824,-0.1154 0.08928,-0.1785 0.0094,-0.028 -0.0094,-0.061 0,-0.089 0.215578,-0.6468 -0.02574,0.1407 0.178572,-0.2679 0.01359,-0.027 0,-0.2276 0,-0.2678 0,-0.071 0.01785,-0.3929 0,-0.4465 -0.02105,-0.063 -0.06824,-0.1154 -0.08929,-0.1785 -0.0094,-0.028 0.01331,-0.063 0,-0.089 -0.0739,-0.1478 -0.128477,-0.066 -0.267857,-0.089 -0.121042,-0.02 -0.238095,-0.059 -0.357143,-0.089 z"
       id="path3529"
       inkscape:connector-curvature="0" />
    <path
       style="fill:none;fill-rule:evenodd;stroke:#000000;stroke-width:1px;stroke-linecap:butt;stroke-linejoin:miter;stroke-opacity:1"
       d="m 29.107143,1011.4693 c 0.119048,0.089 0.218977,0.2126 0.357143,0.2679 0.296606,0.1186 0.764279,0.089 1.071428,0.089 0.14881,0 0.30002,-0.027 0.446429,0 0.185195,0.034 0.351139,0.1416 0.535714,0.1785 0.116736,0.023 0.239015,-0.015 0.357143,0 0.121764,0.015 0.235665,0.072 0.357143,0.089 0.176777,0.025 0.364014,-0.049 0.535714,0 0.127978,0.037 0.228018,0.1463 0.357143,0.1786 0.115493,0.029 0.239715,-0.02 0.357143,0 0.06564,0.011 0.114009,0.073 0.178571,0.089 0.07577,0.019 0.564441,0 0.625,0 0.04021,0 0.240685,0.014 0.267858,0 0.03765,-0.019 0.07046,-0.052 0.08928,-0.089 0.0086,-0.017 0.0017,-0.4414 0,-0.4464 -0.0654,-0.1963 -0.337602,-0.4862 -0.535714,-0.5358 -0.05775,-0.014 -0.122102,0.019 -0.178571,0 -0.03993,-0.013 -0.05952,-0.06 -0.08929,-0.089 -0.119048,-0.03 -0.236101,-0.069 -0.357143,-0.089 -0.143698,-0.024 -0.404112,0.033 -0.535714,0 -0.161602,0.054 -0.166056,-0.1447 -0.267857,-0.1786 -0.05647,-0.019 -0.119048,0 -0.178572,0 -0.06538,0 -0.447028,0.018 -0.535714,0 -0.09229,-0.018 -0.176552,-0.066 -0.267857,-0.089 -0.02887,-0.01 -0.05952,0 -0.08929,0 -0.08929,0 -0.178571,0 -0.267857,0 -0.238095,0 -0.476191,0 -0.714286,0 -0.357143,0 -0.714286,0 -1.071428,0 -0.128162,0 -0.441748,0.024 -0.535715,0 -0.04083,-0.01 -0.05164,-0.07 -0.08929,-0.089 -0.05045,-0.025 -0.371518,0.025 -0.446429,0 -0.06313,-0.021 -0.114009,-0.073 -0.178571,-0.089 -0.0679,-0.017 -0.371662,0 -0.446429,0 -0.08929,0 -0.178571,0 -0.267857,0 -0.02976,0 -0.08929,0.03 -0.08929,0 0,-0.03 0.06267,-0.013 0.08929,0 0.03765,0.019 0.05952,0.059 0.08929,0.089 0.05952,0.059 0.119047,0.1191 0.178571,0.1786 0.02976,0.03 0.05427,0.066 0.08929,0.089 0.110745,0.074 0.250663,0.099 0.357143,0.1785 0.05952,0.06 0.119047,0.1191 0.178571,0.1786 0.02976,0 0.06267,-0.013 0.08929,0 0.03765,0.019 0.04777,0.082 0.08929,0.089 0.146785,0.024 0.31333,-0.067 0.446429,0 0.133099,0.067 0.162633,0.2519 0.267857,0.3571 0.02105,0.021 0.06267,-0.013 0.08929,0 0.07529,0.038 0.09871,0.152 0.178571,0.1786 0.05647,0.019 0.122102,-0.019 0.178572,0 0.03993,0.013 0.05952,0.059 0.08929,0.089 0.05952,0.06 0.103279,0.1409 0.178572,0.1786 0.406454,0 0.0051,-0.042 0.267857,0.089 0.02662,0.013 0.05952,0 0.08929,0 0.02976,0 0.05952,0 0.08929,0 0.14881,0 0.297619,0 0.446429,0 0.595238,0 1.190476,0 1.785714,0"
       id="path3531"
       inkscape:connector-curvature="0" />
  </g>
</svg>
