<?xml version="1.0" encoding="UTF-8" standalone="no"?>
<!-- Created with Inkscape (http://www.inkscape.org/) -->

<svg
   xmlns:dc="http://purl.org/dc/elements/1.1/"
   xmlns:cc="http://creativecommons.org/ns#"
   xmlns:rdf="http://www.w3.org/1999/02/22-rdf-syntax-ns#"
   xmlns:svg="http://www.w3.org/2000/svg"
   xmlns="http://www.w3.org/2000/svg"
   xmlns:sodipodi="http://sodipodi.sourceforge.net/DTD/sodipodi-0.dtd"
   xmlns:inkscape="http://www.inkscape.org/namespaces/inkscape"
   width="64"
   height="64"
   viewBox="0 0 64.000001 64.000001"
   id="svg2"
   version="1.1"
   inkscape:version="0.91 r13725"
   inkscape:export-filename="/home/oserkin/zwork/DeepLearning/deep_learning_workshop_tasks/commonlearningdata/cartooncats/1_cat_14.png"
   inkscape:export-xdpi="90"
   inkscape:export-ydpi="90"
   sodipodi:docname="1_cat_14.svg">
  <defs
     id="defs4" />
  <sodipodi:namedview
     id="base"
     pagecolor="#ffffff"
     bordercolor="#666666"
     borderopacity="1.0"
     inkscape:pageopacity="0.0"
     inkscape:pageshadow="2"
     inkscape:zoom="11.2"
     inkscape:cx="30.481924"
     inkscape:cy="29.606808"
     inkscape:document-units="px"
     inkscape:current-layer="layer1"
     showgrid="false"
     units="px"
     inkscape:window-width="1855"
     inkscape:window-height="1056"
     inkscape:window-x="1985"
     inkscape:window-y="24"
     inkscape:window-maximized="1" />
  <metadata
     id="metadata7">
    <rdf:RDF>
      <cc:Work
         rdf:about="">
        <dc:format>image/svg+xml</dc:format>
        <dc:type
           rdf:resource="http://purl.org/dc/dcmitype/StillImage" />
        <dc:title></dc:title>
      </cc:Work>
    </rdf:RDF>
  </metadata>
  <g
     inkscape:label="Layer 1"
     inkscape:groupmode="layer"
     id="layer1"
     transform="translate(0,-988.36216)">
    <path
       style="fill:none;fill-rule:evenodd;stroke:#000000;stroke-width:1px;stroke-linecap:butt;stroke-linejoin:miter;stroke-opacity:1"
       d="m 13.571429,1007.0943 c -0.181322,0.088 -0.739298,-0.049 -0.982143,0 -0.196271,0.039 -0.14413,0.086 -0.267857,0.1786 -0.08585,0.064 -0.175842,0.1233 -0.267858,0.1785 -0.05706,0.034 -0.125331,0.049 -0.178571,0.089 -0.06734,0.05 -0.119048,0.1191 -0.178571,0.1786 -0.08929,0.089 -0.178572,0.1786 -0.267858,0.2679 -0.204763,0.2047 0.04669,-0.035 -0.357142,0.2678 -0.06734,0.051 -0.10853,0.1319 -0.178572,0.1786 -0.05537,0.037 -0.131514,0.042 -0.178571,0.089 -0.04706,0.047 -0.05237,0.1232 -0.08929,0.1786 -0.108913,0.1633 -0.113834,0.01 -0.178571,0.2678 -0.01444,0.058 0.01882,0.1221 0,0.1786 -0.01611,0.048 -0.228752,0.2092 -0.267858,0.2678 -0.03692,0.055 -0.05952,0.1191 -0.08929,0.1786 -0.02976,0.06 -0.06824,0.1154 -0.08929,0.1786 -0.00941,0.028 0.0094,0.061 0,0.089 -0.062105,0.1863 -0.2057521,0.2601 -0.2678571,0.4464 -0.021974,0.066 0.00606,0.4161 0,0.4464 -0.013051,0.065 -0.06457,0.1168 -0.089286,0.1786 -0.034954,0.087 -0.066459,0.1766 -0.089286,0.2679 -0.044643,0.1785 0.089286,0 0,0.2678 -0.1451988,0.4356 -0.1898417,0.2349 -0.2678572,0.625 -0.011674,0.058 0.011674,0.1202 0,0.1786 -0.018458,0.092 -0.070828,0.1756 -0.089286,0.2678 -0.011674,0.058 0.018823,0.1221 0,0.1786 -0.01331,0.04 -0.073654,0.05 -0.089286,0.089 -0.045574,0.1139 -0.043712,0.2432 -0.089286,0.3571 -0.015632,0.039 -0.075976,0.049 -0.089286,0.089 -0.098821,0.2965 0.059293,0.09 0,0.2679 -0.1847354,0.5542 0.00722,-0.2967 -0.1785715,0.4464 -0.025831,0.1033 0.019354,0.3497 0,0.4465 -0.013051,0.065 -0.073145,0.114 -0.089286,0.1785 -0.014437,0.058 0.022107,0.1233 0,0.1786 -0.039853,0.1 -0.1305818,0.1719 -0.1785714,0.2679 -0.04209,0.084 -0.054332,0.1804 -0.089286,0.2678 -0.024716,0.062 -0.073145,0.114 -0.089286,0.1786 -0.014437,0.058 0.011674,0.1202 0,0.1786 -0.018458,0.092 -0.070828,0.1755 -0.089286,0.2678 -0.023347,0.1167 0.044213,0.2466 0,0.3572 -0.039853,0.1 -0.1305818,0.1718 -0.1785714,0.2678 -0.02662,0.053 0.014437,0.1208 0,0.1786 -0.022826,0.091 -0.066459,0.1765 -0.089286,0.2678 -0.014437,0.058 0,0.1191 0,0.1786 0,0.1488 0,0.2976 0,0.4464 0,0.4167 0,0.8334 0,1.25 0,0.4762 0,0.9524 0,1.4286 0,0.1786 0,0.3572 0,0.5357 0,0.06 0,0.1191 0,0.1786 0,0.03 -0.00941,0.061 0,0.089 0.2529324,0.5059 -0.033275,-0.1331 0.089286,0.3571 0.016141,0.065 0.076234,0.1133 0.089286,0.1786 0.01751,0.088 -0.021655,0.1812 0,0.2679 0.010208,0.041 0.075976,0.049 0.089286,0.089 0.018823,0.057 0,0.1191 0,0.1786 0.029762,0.06 0.068241,0.1155 0.089286,0.1786 0.028235,0.085 -0.028235,0.1831 0,0.2678 0.04209,0.1263 0.1291395,0.2336 0.1785714,0.3572 0.011053,0.028 -0.00941,0.061 0,0.089 0.021045,0.063 0.073145,0.114 0.089286,0.1786 0.014437,0.058 -0.014437,0.1208 0,0.1785 0.016141,0.065 0.073145,0.114 0.089286,0.1786 0.014437,0.058 -0.018823,0.1221 0,0.1786 0.01331,0.04 0.070463,0.052 0.089286,0.089 0.01331,0.027 -0.00584,0.06 0,0.089 0.024066,0.1204 0.043712,0.2433 0.089286,0.3572 0.015632,0.039 0.075976,0.049 0.089286,0.089 0,0.4064 -0.04209,0.01 0.089286,0.2678 0.02925,0.058 -0.027636,0.4805 0,0.5357 0.018823,0.038 0.075976,0.049 0.089286,0.089 0.031625,0.095 -0.031625,0.2623 0,0.3572 0.021045,0.063 0.073145,0.114 0.089286,0.1785 0.014437,0.058 0,0.1191 0,0.1786 0,0.03 -0.016509,0.064 0,0.089 0.046694,0.07 0.1409253,0.1033 0.1785714,0.1786 0.02662,0.053 -0.018823,0.1221 0,0.1785 0.01331,0.04 0.079078,0.049 0.089286,0.089 0.021655,0.087 -0.01751,0.1803 0,0.2679 0.026103,0.1305 0.1364818,0.2309 0.1785715,0.3571 0.00941,0.028 -0.01331,0.063 0,0.089 0.037646,0.075 0.1409252,0.1033 0.1785714,0.1786 0.01331,0.027 0,0.06 0,0.089 0,0.06 -0.018823,0.1221 0,0.1785 0.02662,0.08 0.1409253,0.1033 0.1785714,0.1786 0.01331,0.027 -0.00941,0.061 0,0.089 0.02105,0.063 0.06824,0.1154 0.089289,0.1786 0.0094,0.028 -0.01651,0.064 0,0.089 0.1938,0.2907 0.166088,0.052 0.267857,0.3571 0.0094,0.028 -0.0094,0.061 0,0.089 0.02104,0.063 0.06457,0.1168 0.08929,0.1786 0.03495,0.087 0.04086,0.1871 0.08929,0.2678 0.04331,0.072 0.128064,0.1113 0.178572,0.1786 0.169145,-0.01 0.05952,0.2083 0.08929,0.2679 0.03765,0.075 0.151952,0.099 0.178572,0.1785 0.01882,0.057 -0.01882,0.1221 0,0.1786 0.01611,0.048 0.228751,0.2092 0.267857,0.2679 0.03692,0.055 0.05505,0.1215 0.08929,0.1785 0.151439,0.2524 0.122493,0.2118 0.267857,0.3572 0.208333,0.2083 0.416667,0.4166 0.625,0.625 0.06974,0.07 0.190812,0.2165 0.267857,0.2678 0.05537,0.037 0.131514,0.042 0.178571,0.089 0.04706,0.047 0.04223,0.1315 0.08929,0.1786 0.02105,0.021 0.06267,-0.013 0.08929,0 0.03765,0.019 0.05426,0.066 0.08929,0.089 0.05537,0.037 0.125331,0.049 0.178571,0.089 0.06734,0.051 0.10853,0.1318 0.178571,0.1785 0.02476,0.016 0.06105,-0.01 0.08929,0 0.06314,0.021 0.116782,0.065 0.178572,0.089 0.181498,0.073 0.289385,0.074 0.446428,0.1786 0.111888,0.075 0.06668,0.104 0.178572,0.1786 0.234046,0.156 0.156031,0.033 0.446428,0.1785 0.03765,0.019 0.05561,0.064 0.08929,0.089 0.08585,0.064 0.171878,0.1306 0.267857,0.1786 0.02662,0.013 0.06105,-0.01 0.08929,0 0.554206,0.1847 -0.296743,-0.01 0.446428,0.1786 0.02887,0.01 0.06105,-0.01 0.08929,0 0.305307,0.1017 0.06644,0.074 0.357143,0.2678 0.02476,0.016 0.06105,-0.01 0.08929,0 0.06313,0.021 0.114008,0.073 0.178571,0.089 0.05775,0.014 0.119048,0 0.178571,0 0.02976,0 0.06267,-0.013 0.08929,0 0.03765,0.019 0.04845,0.079 0.08929,0.089 0.507767,0 0.05878,-0.04 0.446428,0.089 0.267858,0.089 -0.178571,-0.1786 0.267858,0 0.09015,0.036 0.316425,0.2418 0.446428,0.2678 0.175104,0.035 0.360611,-0.035 0.535714,0 0.06526,0.013 0.116782,0.065 0.178572,0.089 0.08738,0.035 0.175569,0.071 0.267857,0.089 0.340521,0.068 0.01485,-0.1265 0.446429,0.089 0.421624,0.2108 -0.544966,-0.047 0.357142,0.1786 0.02887,0.01 0.05952,0 0.08929,0 0.119048,0 0.238095,0 0.357143,0 0.05952,0 0.120825,-0.014 0.178571,0 0.06456,0.016 0.115437,0.068 0.178572,0.089 0.02823,0.01 0.05952,0 0.08929,0 0.116846,0 0.345731,-0.02 0.446428,0 0.09229,0.018 0.175022,0.074 0.267857,0.089 0.124279,0.021 0.622947,-0.03 0.714286,0 0.101801,0.034 0.171878,0.1305 0.267857,0.1785 0.02715,0.014 0.295489,0 0.357143,0 0.416667,0 0.833333,0 1.25,0 0.07664,0 0.483475,-0.017 0.535714,0 0.03993,0.013 0.04936,0.076 0.08929,0.089 0.49935,0 -0.06058,-0.042 0.267857,0.089 0.113935,0.046 0.236815,0.065 0.357143,0.089 0.05837,0.012 0.125332,-0.027 0.178571,0 0.09598,0.048 0.168225,0.1387 0.267858,0.1786 0.110533,0.044 0.244204,-0.038 0.357142,0 0.03993,0.013 0.05164,0.07 0.08929,0.089 0.05045,0.025 0.371518,-0.025 0.446429,0 0.06313,0.021 0.113314,0.076 0.178571,0.089 0.09428,0.019 0.495876,0 0.625,0 0.05952,0 0.122102,-0.019 0.178572,0 0.03993,0.013 0.04801,0.081 0.08929,0.089 0.01225,0 0.672679,-0.017 0.714286,0 0.07816,0.031 0.100413,0.1473 0.178572,0.1786 0.238095,0.095 0.198412,-0.032 0.357142,0 0.120329,0.024 0.236101,0.069 0.357143,0.089 0.05871,0.01 0.119048,0 0.178572,0 0.08929,0 0.178571,0 0.267857,0 0.05952,0 0.120203,-0.012 0.178571,0 0.09229,0.018 0.17557,0.071 0.267857,0.089 0.05837,0.012 0.119048,0 0.178572,0 0.08929,0 0.178571,0 0.267857,0 0.02976,0 0.06041,-0.01 0.08929,0 0.09131,0.023 0.176551,0.066 0.267857,0.089 0.05775,0.014 0.119047,0 0.178571,0 0.119048,0 0.238095,0 0.357143,0 0.416667,0 0.833333,0 1.25,0 0.595238,0 1.190476,0 1.785714,0 0.208334,0 0.416667,0 0.625,0 0.08929,0 0.183154,0.028 0.267858,0 0.03993,-0.013 0.05164,-0.07 0.08928,-0.089 0.04665,-0.023 0.506215,0.02 0.535715,0 0.07004,-0.047 0.108529,-0.1319 0.178571,-0.1786 0.02984,-0.02 0.220742,0.012 0.267857,0 0.0913,-0.023 0.176552,-0.066 0.267857,-0.089 0.05775,-0.014 0.125332,0.027 0.178572,0 0.03765,-0.019 0.04936,-0.076 0.08928,-0.089 0.0847,-0.028 0.183154,0.028 0.267858,0 0.06313,-0.021 0.114008,-0.073 0.178571,-0.089 0.05775,-0.014 0.119048,0 0.178571,0 0.02976,0 0.06452,0.017 0.08929,0 0.07004,-0.047 0.103279,-0.1409 0.178572,-0.1785 0.01593,-0.01 0.703351,0 0.714285,0 0.327381,0 0.654762,0 0.982143,0 0.08929,0 0.181237,0.022 0.267857,0 0.06456,-0.016 0.115437,-0.068 0.178572,-0.089 0.08652,-0.029 0.359904,0.029 0.446428,0 0.06314,-0.021 0.115437,-0.068 0.178572,-0.089 0.06141,-0.02 0.215176,0.026 0.267857,0 0.03765,-0.019 0.04936,-0.076 0.08929,-0.089 0.05647,-0.019 0.119047,0 0.178571,0 0.02976,0 0.06452,0.016 0.08929,0 0.07004,-0.047 0.103279,-0.1409 0.178571,-0.1786 0.07143,-0.036 0.196429,0.036 0.267857,0 0.03765,-0.019 0.05164,-0.07 0.08929,-0.089 0.05045,-0.025 0.371518,0.025 0.446429,0 0.06313,-0.021 0.115436,-0.068 0.178571,-0.089 0.07649,-0.025 0.278373,0.02 0.357143,0 0.06456,-0.016 0.115437,-0.068 0.178571,-0.089 0.02824,-0.01 0.05952,0 0.08929,0 0.08774,0 0.512093,0.012 0.535714,0 0.07529,-0.038 0.10853,-0.1319 0.178572,-0.1786 0.03499,-0.023 0.470384,0.013 0.535714,0 0.09229,-0.019 0.175569,-0.071 0.267857,-0.089 0.05837,-0.012 0.120825,0.014 0.178572,0 0.06456,-0.016 0.116781,-0.065 0.178571,-0.089 0.08738,-0.035 0.176552,-0.066 0.267857,-0.089 0.178572,-0.045 0,0.089 0.267857,0 0.126269,-0.042 0.238096,-0.119 0.357143,-0.1785 0.05952,-0.03 0.114009,-0.073 0.178572,-0.089 0.06042,-0.015 0.567544,0 0.625,0 0.02976,0 0.06041,0.01 0.08928,0 0.09131,-0.023 0.176552,-0.066 0.267857,-0.089 0.118296,-0.03 0.323638,0.031 0.446429,0 0.04083,-0.01 0.05164,-0.071 0.08929,-0.089 0.05153,-0.026 0.409679,0.024 0.446428,0 0.07004,-0.047 0.119048,-0.1191 0.178572,-0.1786 0.02976,-0.03 0.05164,-0.07 0.08928,-0.089 0.02662,-0.013 0.06267,0.013 0.08929,0 0.07529,-0.038 0.103279,-0.1409 0.178572,-0.1785 0.05917,-0.03 0.28231,0.025 0.357142,0 0.162164,-0.054 0.165701,-0.076 0.267858,-0.1786 0.02976,-0.03 0.05164,-0.071 0.08928,-0.089 0.05324,-0.027 0.120204,0.012 0.178572,0 0.120328,-0.024 0.236814,-0.065 0.357143,-0.089 0.02918,-0.01 0.06105,0.01 0.08928,0 0.06314,-0.021 0.115437,-0.068 0.178572,-0.089 0.02823,-0.01 0.06452,0.016 0.08928,0 0.06603,-0.044 0.283695,-0.3204 0.357143,-0.3571 0.02662,-0.013 0.06267,0.013 0.08929,0 0.04769,-0.024 0.220851,-0.2209 0.267857,-0.2679 0.06974,-0.07 0.190813,-0.2165 0.267857,-0.2678 0.05537,-0.037 0.123199,-0.052 0.178572,-0.089 0.07004,-0.047 0.119047,-0.1191 0.178571,-0.1786 0.08929,-0.089 0.178572,-0.1786 0.267857,-0.2679 0.08929,-0.089 0.178572,-0.1785 0.267857,-0.2678 0.02976,-0.03 0.07046,-0.052 0.08929,-0.089 0.01331,-0.027 -0.0094,-0.061 0,-0.089 0.02105,-0.063 0.06824,-0.1154 0.08929,-0.1786 0.0094,-0.028 0,-0.06 0,-0.089 0.02976,-0.089 0.0472,-0.1837 0.08929,-0.2679 0.04799,-0.096 0.130581,-0.1719 0.178571,-0.2679 0.01331,-0.027 -0.0094,-0.061 0,-0.089 0.184735,-0.5542 -0.0072,0.2968 0.178571,-0.4464 0.0072,-0.029 -0.01331,-0.063 0,-0.089 0.01882,-0.038 0.07908,-0.048 0.08929,-0.089 0.02887,-0.1155 0,-0.2381 0,-0.3571 0,-0.03 -0.01651,-0.064 0,-0.089 0.04669,-0.07 0.131877,-0.1085 0.178572,-0.1786 0.01651,-0.025 -0.0094,-0.061 0,-0.089 0.02104,-0.063 0.06824,-0.1155 0.08928,-0.1786 0.0094,-0.028 0,-0.06 0,-0.089 0,-0.094 -0.01772,-0.3578 0,-0.4464 0.01846,-0.092 0.06646,-0.1766 0.08929,-0.2679 0.0072,-0.029 -0.01331,-0.063 0,-0.089 0.01882,-0.038 0.07598,-0.049 0.08929,-0.089 0.01882,-0.056 -0.02662,-0.1253 0,-0.1785 0.03765,-0.075 0.131877,-0.1086 0.178571,-0.1786 0.02172,-0.033 -0.0044,-0.5092 0,-0.5357 0.01547,-0.093 0.06646,-0.1766 0.08929,-0.2679 0.01444,-0.058 0,-0.119 0,-0.1786 0,-0.119 0,-0.2381 0,-0.3571 0,-0.03 -0.0094,-0.061 0,-0.089 0.02105,-0.063 0.06824,-0.1154 0.08929,-0.1786 0.01679,-0.05 0,-0.2091 0,-0.2678 0,-0.1372 -0.01963,-0.6162 0,-0.7143 0.01305,-0.065 0.07314,-0.114 0.08928,-0.1786 0.07731,-0.3092 -0.11306,-0.054 0.08929,-0.3571 0.02335,-0.035 0.07598,-0.049 0.08929,-0.089 0.01356,-0.041 0,-0.5645 0,-0.625 0,-0.03 -0.01331,-0.063 0,-0.089 0.01882,-0.038 0.07046,-0.052 0.08928,-0.089 0.01331,-0.027 0,-0.059 0,-0.089 0,-0.06 0,-0.119 0,-0.1785 0,-0.1163 -0.01789,-0.4463 0,-0.5358 0.01305,-0.065 0.07315,-0.114 0.08929,-0.1785 0.01087,-0.043 -0.02361,-0.31 0,-0.3572 0.01882,-0.038 0.07598,-0.049 0.08929,-0.089 0.01362,-0.041 0,-0.3966 0,-0.4465 0,-0.2381 0,-0.4762 0,-0.7143 0,-0.06 0,-0.119 0,-0.1785 0,-0.06 -0.02211,-0.1233 0,-0.1786 0.03985,-0.1 0.144637,-0.1661 0.178571,-0.2679 0.04586,-0.1375 -0.03881,-0.559 0,-0.7142 0.01021,-0.041 0.07908,-0.048 0.08929,-0.089 0.02887,-0.1155 0,-0.2381 0,-0.3572 0,-0.2083 0,-0.4166 0,-0.625 0,-0.2976 0,-0.5952 0,-0.8928 0,-0.031 0.01611,-0.3089 0,-0.3572 -0.02105,-0.063 -0.06824,-0.1154 -0.08929,-0.1786 -0.02823,-0.085 0.02166,-0.1812 0,-0.2678 -0.01614,-0.065 -0.07314,-0.114 -0.08928,-0.1786 -0.01444,-0.058 0.01882,-0.1221 0,-0.1786 -0.01331,-0.04 -0.07046,-0.052 -0.08929,-0.089 -0.01331,-0.027 0.0094,-0.061 0,-0.089 -0.02105,-0.063 -0.05952,-0.1191 -0.08929,-0.1786 -0.02976,-0.059 -0.04936,-0.1253 -0.08929,-0.1786 -0.05051,-0.067 -0.140925,-0.1033 -0.178571,-0.1785 -0.02662,-0.053 0.01882,-0.1221 0,-0.1786 -0.02662,-0.08 -0.135261,-0.1064 -0.178571,-0.1786 -0.05952,-0.119 -0.119048,-0.2381 -0.178572,-0.3571 -0.02976,-0.03 -0.06594,-0.054 -0.08929,-0.089 -0.01109,-0.017 -0.17285,-0.3514 -0.178571,-0.3572 -0.04706,-0.047 -0.131514,-0.042 -0.178571,-0.089 -0.04706,-0.047 -0.05237,-0.1232 -0.08929,-0.1785 -0.02335,-0.035 -0.05952,-0.059 -0.08929,-0.089 -0.02976,-0.059 -0.05237,-0.1232 -0.08929,-0.1786 -0.02335,-0.035 -0.05952,-0.06 -0.08928,-0.089 -0.08937,-0.089 -0.178657,-0.1785 -0.267942,-0.2678 -0.267858,-0.2679 -0.535715,-0.5357 -0.803572,-0.8036 -0.204717,-0.2047 0.05647,0.038 -0.267857,-0.1786 -0.03502,-0.023 -0.05427,-0.066 -0.08929,-0.089 -0.05537,-0.037 -0.123199,-0.052 -0.178571,-0.089 -0.03502,-0.023 -0.05952,-0.06 -0.08929,-0.089 -0.05952,-0.059 -0.119047,-0.1191 -0.178571,-0.1786 -0.05952,-0.059 -0.131877,-0.1085 -0.178572,-0.1786 -0.03692,-0.055 -0.04223,-0.1315 -0.08928,-0.1785 -0.04706,-0.047 -0.123199,-0.052 -0.178572,-0.089 -0.03668,-0.024 -0.243403,-0.2312 -0.267857,-0.2679 -0.03692,-0.055 -0.05237,-0.1232 -0.08929,-0.1786 -0.04669,-0.07 -0.131877,-0.1085 -0.178571,-0.1785 -0.03692,-0.055 -0.05237,-0.1232 -0.08929,-0.1786 -0.04669,-0.07 -0.119047,-0.119 -0.178571,-0.1786 -0.14881,-0.1488 -0.297619,-0.2976 -0.446429,-0.4464 -0.05718,-0.057 -0.273588,-0.3014 -0.357143,-0.3571 -0.05537,-0.037 -0.131513,-0.042 -0.178571,-0.089 -0.04706,-0.047 -0.05237,-0.1232 -0.08929,-0.1786 -0.02335,-0.035 -0.05952,-0.059 -0.08929,-0.089 -0.02976,-0.03 -0.05164,-0.071 -0.08928,-0.089 -0.05324,-0.027 -0.125332,0.027 -0.178572,0 -0.03765,-0.019 -0.05952,-0.06 -0.08928,-0.089 -0.05952,-0.06 -0.10853,-0.1318 -0.178572,-0.1785 -0.02476,-0.017 -0.06267,0.013 -0.08929,0 -0.07529,-0.038 -0.10853,-0.1319 -0.178571,-0.1786 -0.205295,-0.1369 -0.241134,-0.042 -0.446429,-0.1786 -0.07004,-0.047 -0.103279,-0.1409 -0.178571,-0.1786 -0.02662,-0.013 -0.06267,0.013 -0.08929,0 -0.07529,-0.038 -0.103279,-0.1409 -0.178571,-0.1785 -0.02662,-0.013 -0.06452,0.017 -0.08929,0 -0.07004,-0.047 -0.10853,-0.1319 -0.178571,-0.1786 -0.02476,-0.017 -0.06105,0.01 -0.08929,0 -0.126244,-0.042 -0.230849,-0.1364 -0.357118,-0.1785 -0.02824,-0.01 -0.06267,0.013 -0.08929,0 -0.03765,-0.019 -0.05952,-0.06 -0.08928,-0.089 -0.05952,-0.06 -0.10853,-0.1319 -0.178572,-0.1786 -0.02476,-0.016 -0.06105,0.01 -0.08928,0 -0.06314,-0.021 -0.115437,-0.068 -0.178572,-0.089 -0.02824,-0.01 -0.05952,0 -0.08929,0 -0.119047,0 -0.238095,0 -0.357142,0 -0.0477,0 -0.420875,0.013 -0.446429,0 -0.03765,-0.019 -0.04936,-0.076 -0.08929,-0.089 -0.05647,-0.019 -0.119047,0 -0.178571,0 -0.200658,0 -0.32827,0.014 -0.535714,-0.089 -0.07529,-0.038 -0.10328,-0.1409 -0.178572,-0.1785 -0.659056,-0.3296 -0.742684,-0.2299 -1.428571,-0.4465 -0.332185,-0.1049 -0.657741,-0.2302 -0.982143,-0.3571 -0.744827,-0.2915 -1.360288,-0.6158 -2.142857,-0.8036 -0.380648,-0.091 -0.776302,-0.1046 -1.160715,-0.1786 -0.779857,-0.1499 -1.541571,-0.3857 -2.321428,-0.5357 -0.384413,-0.074 -0.773484,-0.1212 -1.160714,-0.1785 -0.416353,-0.062 -0.846445,-0.059 -1.25,-0.1786 -0.408569,-0.1211 -0.753433,-0.4104 -1.160715,-0.5357 -0.374146,-0.1152 -0.775572,-0.1086 -1.160714,-0.1786 -0.342098,-0.062 -1.372691,-0.3263 -1.696429,-0.3571 -0.325906,-0.031 -0.658384,0.048 -0.982142,0 -0.279223,-0.042 -0.525067,-0.2215 -0.803572,-0.2679 -0.264213,-0.044 -0.538406,0.038 -0.803571,0 -0.158662,-0.023 -0.28802,-0.1542 -0.446429,-0.1786 -0.235327,-0.036 -0.477821,0.028 -0.714286,0 -0.272511,-0.032 -0.531587,-0.1423 -0.803571,-0.1785 -0.35401,-0.047 -0.715519,0.03 -1.071429,0 -0.180409,-0.015 -0.356499,-0.064 -0.535714,-0.089 -0.147314,-0.021 -0.298768,0.018 -0.446429,0 -0.119047,-0.03 -0.238095,-0.06 -0.357142,-0.089 -0.02976,-0.03 -0.04845,-0.079 -0.08929,-0.089 -0.08662,-0.022 -0.178572,0 -0.267857,0 -0.14881,0 -0.297619,0 -0.446429,0 -0.148809,0 -0.297619,0 -0.446428,0 -0.05952,0 -0.122103,-0.019 -0.178572,0 -0.06313,0.021 -0.115437,0.068 -0.178571,0.089 -0.02824,0.01 -0.06267,-0.013 -0.08929,0 -0.05413,0.027 -0.318904,0.3285 -0.357143,0.3571 -0.05952,0.03 -0.119047,0.059 -0.178571,0.089 -0.02976,0 -0.06267,-0.013 -0.08929,0 -0.03765,0.019 -0.05952,0.059 -0.08929,0.089 -0.08929,0.089 -0.178571,0.1786 -0.267857,0.2679 -0.05952,0.059 -0.10853,0.1318 -0.178571,0.1785 -0.110746,0.074 -0.246398,0.1048 -0.357143,0.1786 -0.07004,0.047 -0.10853,0.1319 -0.178572,0.1786 -0.05537,0.037 -0.123198,0.052 -0.178571,0.089 -0.205122,0.1367 0.03829,0.051 -0.178571,0.2678 -0.08929,0.059 -0.178572,0.1191 -0.267858,0.1786 -0.02976,0 -0.06267,-0.013 -0.08929,0 -0.03765,0.019 -0.05952,0.06 -0.08929,0.089 -0.05952,0.06 -0.10853,0.1319 -0.178571,0.1786 -0.03443,0.023 -0.218134,-0.017 -0.267858,0 -0.06313,0.021 -0.115436,0.068 -0.178571,0.089 -0.05647,0.019 -0.125332,-0.027 -0.178571,0 -0.03765,0.019 -0.05164,0.07 -0.08929,0.089 -0.08418,0.042 -0.187154,0.041 -0.267857,0.089 -0.07218,0.043 -0.106388,0.1353 -0.178572,0.1786 -0.0807,0.048 -0.180473,0.054 -0.267857,0.089 -0.06179,0.025 -0.115437,0.068 -0.178571,0.089 -0.116415,0.039 -0.247387,0.034 -0.357143,0.089 -0.07529,0.038 -0.10853,0.1318 -0.178572,0.1785 -0.02476,0.017 -0.06105,-0.01 -0.08929,0 -0.06313,0.021 -0.123199,0.052 -0.178572,0.089 -0.03502,0.023 -0.04936,0.076 -0.08929,0.089 -0.05647,0.019 -0.122103,-0.019 -0.178572,0 -0.03993,0.013 -0.05952,0.06 -0.08929,0.089 -0.05952,0.059 -0.106388,0.1353 -0.178571,0.1786 -0.0807,0.048 -0.183678,0.047 -0.267857,0.089 -0.03765,0.019 -0.05164,0.07 -0.08929,0.089 -0.02662,0.013 -0.05952,0 -0.08929,0 -0.02976,0.03 -0.05164,0.07 -0.08929,0.089 -0.02662,0.013 -0.06267,-0.013 -0.08929,0 -0.03765,0.019 -0.05952,0.06 -0.08929,0.089 -0.02976,0.03 -0.07046,0.052 -0.08929,0.089 -0.01331,0.027 0,0.06 0,0.089 0,0.4799 0.115493,0.3283 -0.357143,0.4465"
       id="path3560"
       inkscape:connector-curvature="0" />
    <path
       style="fill:none;fill-rule:evenodd;stroke:#000000;stroke-width:1px;stroke-linecap:butt;stroke-linejoin:miter;stroke-opacity:1"
       d="m 9.6428572,1010.5764 c 0.089286,-0.119 0.2092382,-0.2203 0.2678571,-0.3571 0.030015,-0.07 -0.021298,-0.6078 0,-0.7143 0.013051,-0.065 0.073145,-0.114 0.089286,-0.1786 0.01444,-0.058 -0.011674,-0.1202 0,-0.1785 -0.020489,-0.1793 0.1397,-0.291 0.178571,-0.4465 0.01444,-0.058 0,-0.119 0,-0.1785 0,-0.089 0,-0.1786 0,-0.2679 0,-0.059 -0.01167,-0.1202 0,-0.1786 0.01846,-0.092 0.07083,-0.1755 0.08929,-0.2678 0.02918,-0.1459 -0.02918,-0.3005 0,-0.4464 0.01305,-0.065 0.07623,-0.1134 0.08929,-0.1786 0.02918,-0.1459 0,-0.2976 0,-0.4464 0,-0.2679 0,-0.5358 0,-0.8036 0,-0.059 0,-0.1191 0,-0.1786 0,-0.059 -0.01444,-0.1208 0,-0.1786 0.01614,-0.065 0.07314,-0.114 0.08929,-0.1785 0.01756,-0.07 0,-0.4429 0,-0.5357 0,-0.506 0,-1.0119 0,-1.5179 0,-0.1488 0,-0.2976 0,-0.4464 0,-0.06 0,-0.1191 0,-0.1786 0,-0.03 -0.01331,-0.063 0,-0.089 0.04798,-0.096 0.138706,-0.1682 0.178559,-0.2678 0.02211,-0.055 0,-0.1191 0,-0.1786 0,-0.081 -0.01656,-0.6481 0,-0.7143 0.01021,-0.041 0.07046,-0.052 0.08929,-0.089 0.01331,-0.027 -0.0072,-0.06 0,-0.089 0.02283,-0.091 0.06646,-0.1765 0.08929,-0.2678 0.01806,-0.072 0,-0.4334 0,-0.4465 0,-0.03 -0.0094,-0.061 0,-0.089 0.02105,-0.063 0.06824,-0.1154 0.08929,-0.1785 0.02396,-0.072 -0.02853,-0.3001 0,-0.35717 0.03765,-0.0753 0.140925,-0.10328 0.178572,-0.17857 0.01331,-0.0266 -0.0094,-0.0611 0,-0.0893 0.04209,-0.12627 0.119047,-0.23809 0.178571,-0.35714 0.02976,-0.0595 0.05237,-0.1232 0.08929,-0.17857 0.05136,-0.077 0.198117,-0.19812 0.267857,-0.26786 0.05251,-0.0525 0.315796,-0.33647 0.357143,-0.35714 0.02662,-0.0133 0.06267,0.0133 0.08929,0 0.09598,-0.048 0.171878,-0.13058 0.267858,-0.17857 0.02662,-0.0133 0.06105,0.009 0.08929,0 0.06313,-0.021 0.114009,-0.0732 0.178572,-0.0893 0.08662,-0.0217 0.178571,0 0.267857,0 0.07559,0 0.309142,-0.016 0.357143,0 0.03993,0.0133 0.05427,0.0659 0.08929,0.0893 0.05537,0.0369 0.123199,0.0524 0.178572,0.0893 0.03502,0.0233 0.05426,0.0659 0.08929,0.0893 0.324326,0.21622 0.06314,-0.0262 0.267857,0.17857 0.05952,0.0595 0.10853,0.13188 0.178571,0.17857 0.05537,0.0369 0.123199,0.0524 0.178572,0.0893 0.12283,0.0819 0.09183,0.13775 0.178571,0.26786 0.06868,0.10302 0.199176,0.16484 0.267857,0.26786 0.01651,0.0248 -0.0094,0.0611 0,0.0893 0.107896,0.32368 0.04236,0.0635 0.178572,0.26786 0.03692,0.0554 0.06824,0.11543 0.08929,0.17854 0.0094,0.028 -0.01651,0.064 0,0.089 0.04669,0.07 0.140926,0.1033 0.178572,0.1786 0.02662,0.053 -0.01444,0.1208 0,0.1786 0.01614,0.064 0.05952,0.119 0.08929,0.1785 0,0.1191 -0.01957,0.2397 0,0.3572 0.01094,0.066 0.07315,0.114 0.08929,0.1785 0.01444,0.058 -0.01882,0.1221 0,0.1786 0.01331,0.04 0.07046,0.052 0.08929,0.089 0.01606,0.032 -5.18e-4,0.4438 0,0.4464 0.07186,0.3593 0.06515,0.041 0.178571,0.2679 0.01331,0.027 -0.0094,0.061 0,0.089 0.02104,0.063 0.06824,0.1154 0.08929,0.1786 0.02824,0.085 -0.02166,0.1812 0,0.2678 0.01614,0.065 0.06824,0.1154 0.08929,0.1786 0.0094,0.028 -0.0072,0.06 0,0.089 0.02283,0.091 0.07083,0.1755 0.08929,0.2678 0.01167,0.058 -0.02662,0.1254 0,0.1786 0.03765,0.075 0.131878,0.1085 0.178572,0.1786 0.01651,0.025 -0.0094,0.061 0,0.089 0.184735,0.5542 -0.0072,-0.2968 0.178571,0.4464 0.0072,0.029 -0.01331,0.063 0,0.089 0.02067,0.041 0.30463,0.3046 0.357143,0.3571"
       id="path3562"
       inkscape:connector-curvature="0" />
    <path
       style="fill:none;fill-rule:evenodd;stroke:#000000;stroke-width:1px;stroke-linecap:butt;stroke-linejoin:miter;stroke-opacity:1"
       d="m 49.910714,1010.6657 c -0.07783,-0.2645 -0.11033,-0.5672 -0.267857,-0.8035 -0.136208,-0.2044 -0.07068,0.056 -0.178571,-0.2679 -0.0094,-0.028 0.01331,-0.063 0,-0.089 -0.01882,-0.038 -0.07046,-0.052 -0.08929,-0.089 -0.01331,-0.027 0,-0.06 0,-0.089 0,-0.06 0.01356,-0.5843 0,-0.625 -0.01331,-0.04 -0.07046,-0.052 -0.08929,-0.089 -0.01331,-0.027 0,-0.06 0,-0.089 0,-0.03 0,-0.06 0,-0.089 0,-0.089 0,-0.1786 0,-0.2679 0,-0.2083 0,-0.4167 0,-0.625 0,-0.2083 0,-0.4167 0,-0.625 0,-0.06 -0.02662,-0.1253 0,-0.1786 0.08929,-0.1785 0.178572,-0.1339 0.267858,-0.2678 0.03692,-0.055 0.05952,-0.1191 0.08928,-0.1786 0.02976,-0.06 0.06824,-0.1154 0.08929,-0.1786 0.0886,-0.2658 -0.211417,0.1832 0.08929,-0.2678 0.04669,-0.07 0.131877,-0.1086 0.178571,-0.1786 0.03692,-0.055 0.05237,-0.1232 0.08929,-0.1786 0.02335,-0.035 0.05952,-0.06 0.08929,-0.089 0.02976,-0.03 0.05427,-0.066 0.08928,-0.089 0.05537,-0.037 0.123199,-0.052 0.178572,-0.089 0.03502,-0.023 0.05952,-0.06 0.08928,-0.089 0.02976,-0.03 0.06594,-0.054 0.08929,-0.089 0.03692,-0.055 0.04223,-0.1315 0.08929,-0.1786 0.04706,-0.047 0.125332,-0.049 0.178571,-0.089 0.06734,-0.05 0.112839,-0.126 0.178572,-0.1785 0.08379,-0.067 0.18201,-0.1142 0.267857,-0.1786 0.101015,-0.076 0.166842,-0.1921 0.267857,-0.2679 0.05324,-0.04 0.123199,-0.052 0.178571,-0.089 0.03502,-0.023 0.05164,-0.07 0.08929,-0.089 0.290398,-0.1452 0.212382,-0.023 0.446429,-0.1786 0.204313,-0.1362 -0.05583,-0.071 0.267857,-0.1786 0.02823,-0.01 0.06105,0.01 0.08929,0 0.06313,-0.021 0.114008,-0.073 0.178571,-0.089 0.115493,-0.029 0.24165,0.029 0.357143,0 0.06456,-0.016 0.114009,-0.073 0.178571,-0.089 0.05775,-0.014 0.123305,0.022 0.178572,0 0.09963,-0.04 0.171878,-0.1306 0.267857,-0.1785 0.02662,-0.013 0.05952,0 0.08929,0 0.02976,0 0.05952,0 0.08928,0 0.119048,0 0.238096,0 0.357143,0 0.05952,0 0.119048,0 0.178572,0 0.02976,0 0.06041,0.01 0.08928,0 0.09131,-0.023 0.176552,-0.067 0.267857,-0.089 0.02887,-0.01 0.05952,0 0.08929,0 0.08929,0 0.178572,0 0.267857,0 0.14881,0 0.297619,0 0.446429,0 0.178571,0 0.357143,0 0.535714,0 0.05952,0 0.120204,-0.012 0.178572,0 0.103713,0.021 0.344387,0.1105 0.446428,0.1785 0.03502,0.023 0.05427,0.066 0.08929,0.089 0.05537,0.037 0.125332,0.049 0.178571,0.089 0.149533,0.1122 0.36713,0.3771 0.446429,0.5357 0.01331,0.027 -0.0094,0.061 0,0.089 0.02105,0.063 0.07314,0.114 0.08929,0.1786 0.01444,0.058 -0.01444,0.1208 0,0.1786 0.01614,0.064 0.07623,0.1133 0.08928,0.1785 0.02918,0.146 0,0.2976 0,0.4465 0,0.2976 0,0.5952 0,0.8928 0,0.4762 0,0.9524 0,1.4286 0,0.033 0.0085,0.5994 0,0.625 -0.03393,0.1018 -0.144637,0.166 -0.178571,0.2678 -0.02824,0.085 0.02165,0.1813 0,0.2679 -0.01021,0.041 -0.07046,0.052 -0.08929,0.089 -0.269632,0.5393 0.01287,0.038 -0.08929,0.4464 -0.03341,0.1337 -0.219848,0.3504 -0.267857,0.4464 -0.04209,0.084 -0.05433,0.1805 -0.08928,0.2679 -0.02472,0.062 -0.06457,0.1168 -0.08929,0.1786 -0.03495,0.087 -0.0472,0.1837 -0.08929,0.2678 -0.04799,0.096 -0.130582,0.1719 -0.178571,0.2679 -0.04209,0.084 -0.05433,0.1805 -0.08929,0.2678 -0.02472,0.062 -0.06457,0.1168 -0.08929,0.1786 -0.03495,0.087 -0.0472,0.1837 -0.08928,0.2679 -0.04799,0.096 -0.130582,0.1719 -0.178572,0.2678 -0.01331,0.027 0,0.06 0,0.089 -0.02976,0.06 -0.05237,0.1232 -0.08929,0.1786 -0.02335,0.035 -0.07365,0.05 -0.08928,0.089 -0.04557,0.1139 -0.03441,0.2474 -0.08929,0.3571 -0.03765,0.075 -0.135261,0.1064 -0.178571,0.1786 -0.04842,0.081 -0.0472,0.1837 -0.08929,0.2679 -0.01882,0.038 -0.07046,0.052 -0.08929,0.089 -0.04209,0.084 -0.04086,0.1872 -0.08929,0.2679 -0.04331,0.072 -0.128063,0.1112 -0.178571,0.1786 -0.03993,0.053 -0.05237,0.1232 -0.08929,0.1785 -0.02335,0.035 -0.07046,0.052 -0.08928,0.089 -0.01331,0.027 0.0072,0.06 0,0.089 -0.02283,0.091 -0.06646,0.1766 -0.08929,0.2679 -0.0072,0.029 0.01331,0.063 0,0.089 -0.05357,0.1071 -0.214286,0.1607 -0.267857,0.2678 -0.01331,0.027 0.01331,0.063 0,0.089 -0.03765,0.075 -0.131877,0.1086 -0.178572,0.1786 -0.03692,0.055 -0.04936,0.1253 -0.08928,0.1786 -0.09329,0.1244 -0.2445,0.2445 -0.357143,0.3571 -0.05952,0.059 -0.131877,0.1085 -0.178572,0.1786 -0.01651,0.025 0.01331,0.063 0,0.089 -0.01882,0.038 -0.07046,0.052 -0.08928,0.089 -0.01331,0.027 0.0094,0.061 0,0.089 -0.02105,0.063 -0.06824,0.1155 -0.08929,0.1786 -0.0094,0.028 0.0094,0.061 0,0.089 -0.02105,0.063 -0.07315,0.114 -0.08929,0.1786 -0.01993,0.08 0,0.3431 0,0.4464 0,0.059 0.01882,0.1221 0,0.1786 -0.01331,0.04 -0.05952,0.06 -0.08929,0.089"
       id="path3564"
       inkscape:connector-curvature="0" />
    <path
       style="fill:none;fill-rule:evenodd;stroke:#000000;stroke-width:1px;stroke-linecap:butt;stroke-linejoin:miter;stroke-opacity:1"
       d="m 50.982143,1011.6479 c -0.276861,-0.1708 0.244569,-0.4426 0.267857,-0.5357 0.02166,-0.087 0,-0.1786 0,-0.2679 0,-0.03 -0.0094,-0.061 0,-0.089 0.02105,-0.063 0.06824,-0.1154 0.08929,-0.1786 0.01611,-0.048 0,-0.3267 0,-0.3571 0,-0.2679 0,-0.5357 0,-0.8036 0,-0.089 -0.02166,-0.1812 0,-0.2678 0.01614,-0.065 0.06824,-0.1155 0.08929,-0.1786 0.0094,-0.028 0,-0.059 0,-0.089 0.02976,-0.089 0.0472,-0.1837 0.08928,-0.2678 0.03765,-0.075 0.151952,-0.099 0.178572,-0.1786 0.01882,-0.056 -0.01882,-0.1221 0,-0.1786 0.01331,-0.04 0.07046,-0.052 0.08928,-0.089 0.01331,-0.027 -0.01331,-0.063 0,-0.089 0.01882,-0.038 0.07598,-0.049 0.08929,-0.089 0.01882,-0.056 -0.02662,-0.1253 0,-0.1785 0.05647,-0.113 0.178572,-0.1786 0.267857,-0.2679 0.296124,-0.2961 -0.04209,0.084 0.08929,-0.1786 0.09871,-0.1974 0.05541,-0.028 0.178571,-0.089 0.03765,-0.019 0.05164,-0.07 0.08929,-0.089 0.02555,-0.013 0.398731,0 0.446429,0 0.134086,0 0.328117,-0.024 0.446428,0 0.06526,0.013 0.116782,0.065 0.178572,0.089 0.08738,0.035 0.176552,0.067 0.267857,0.089 0.02887,0.01 0.06267,-0.013 0.08929,0 0.03765,0.019 0.05164,0.07 0.08928,0.089 0.290398,0.1452 0.212382,0.023 0.446429,0.1786 0.03502,0.023 0.05952,0.059 0.08929,0.089 0.05952,0.06 0.119047,0.119 0.178571,0.1786 0.02976,0.03 0.05952,0.059 0.08929,0.089 0.02976,0.03 0.07046,0.052 0.08928,0.089 0.01331,0.027 -0.01331,0.063 0,0.089 0.01882,0.038 0.07046,0.052 0.08929,0.089 0.01324,0.027 0,0.4494 0,0.5357 0,0.1488 0,0.2977 0,0.4465 0,0.059 0,0.119 0,0.1785 0,0.03 0.0094,0.061 0,0.089 -0.02105,0.063 -0.07314,0.114 -0.08929,0.1786 -0.01444,0.058 0.02662,0.1253 0,0.1786 -0.03765,0.075 -0.131877,0.1085 -0.178571,0.1785 -0.01651,0.025 0.01331,0.063 0,0.089 -0.04799,0.096 -0.130582,0.1719 -0.178571,0.2679 -0.01331,0.027 0,0.059 0,0.089 -0.02976,0.059 -0.05505,0.1215 -0.08929,0.1785 -0.05521,0.092 -0.114187,0.1821 -0.178572,0.2679 -0.01393,0.019 -0.176089,0.1711 -0.178571,0.1786 -0.01882,0.056 0.01882,0.1221 0,0.1785 -0.01331,0.04 -0.07046,0.052 -0.08929,0.089 -0.01331,0.027 0.01331,0.063 0,0.089 -0.03765,0.075 -0.131877,0.1086 -0.178571,0.1786 -0.03692,0.055 -0.05237,0.1232 -0.08929,0.1786 -0.04669,0.07 -0.140925,0.1032 -0.178571,0.1785 -0.01331,0.027 0.01651,0.065 0,0.089 -0.02582,0.039 -0.496982,0.5099 -0.535715,0.5357 -0.04953,0.033 -0.122102,-0.019 -0.178571,0 -0.06314,0.021 -0.115437,0.068 -0.178571,0.089 -0.02824,0.01 -0.06267,-0.013 -0.08929,0 -0.03765,0.019 -0.05164,0.071 -0.08929,0.089 -0.02662,0.013 -0.06105,-0.01 -0.08929,0 -0.06313,0.021 -0.115436,0.068 -0.178571,0.089 -0.02824,0.01 -0.06267,-0.013 -0.08929,0 -0.03765,0.019 -0.05952,0.059 -0.08928,0.089 -0.02976,0.03 -0.05952,0.059 -0.08929,0.089"
       id="path3566"
       inkscape:connector-curvature="0" />
    <path
       style="fill:none;fill-rule:evenodd;stroke:#000000;stroke-width:1px;stroke-linecap:butt;stroke-linejoin:miter;stroke-opacity:1"
       d="m 12.142857,1006.6479 c -0.178549,-0.1408 -0.471994,-0.2809 -0.535714,-0.5357 -0.02166,-0.087 0.02823,-0.1832 0,-0.2679 -0.02105,-0.063 -0.06824,-0.1154 -0.08929,-0.1786 -0.01882,-0.056 0.01882,-0.1221 0,-0.1785 -0.215578,-0.6468 0.02574,0.1407 -0.178571,-0.2679 -0.01907,-0.038 0,-0.4111 0,-0.4464 0,-0.2976 0,-0.5953 0,-0.8929 0,-0.2083 0,-0.4167 0,-0.625 0,-0.089 -0.02823,-0.1831 0,-0.2678 0.01331,-0.04 0.05952,-0.06 0.08929,-0.089 0.02976,-0.03 0.05952,-0.06 0.08929,-0.089 0.02976,-0.03 0.05164,-0.07 0.08929,-0.089 0.02348,-0.012 0.310453,0 0.357143,0 0.208333,0 0.416666,0 0.625,0 0.05952,0 0.125331,-0.027 0.178571,0 0.07529,0.038 0.111228,0.1281 0.178572,0.1786 0.05798,0.043 0.463665,0.2438 0.535714,0.2678 0.02823,0.01 0.06452,-0.017 0.08929,0 0.04917,0.033 0.409939,0.3978 0.446428,0.4465 0.03993,0.053 0.05952,0.119 0.08929,0.1785 0.02976,0.059 0.07314,0.114 0.08929,0.1786 0.02838,0.1135 -0.02854,0.3323 0,0.4464 0.02283,0.091 0.06646,0.1766 0.08929,0.2679 0.01444,0.058 0,0.119 0,0.1786 0,0.089 0,0.1785 0,0.2678 0,0.2679 0,0.5357 0,0.8036 0,0.119 -0.02243,0.4572 0,0.5357 0.03657,0.128 0.119048,0.2381 0.178572,0.3571 0.05952,0.1191 0.119047,0.2381 0.178571,0.3572"
       id="path3568"
       inkscape:connector-curvature="0" />
    <path
       style="fill:none;fill-rule:evenodd;stroke:#000000;stroke-width:1px;stroke-linecap:butt;stroke-linejoin:miter;stroke-opacity:1"
       d="m 41.071429,1016.38 c -0.119048,0.03 -0.261322,0.013 -0.357143,0.089 -0.07349,0.059 -0.0472,0.1837 -0.08929,0.2679 -0.04801,0.096 -0.234447,0.3128 -0.267857,0.4464 -0.01444,0.058 0.01167,0.1202 0,0.1786 -0.01846,0.092 -0.06646,0.1765 -0.08929,0.2678 -0.0072,0.029 0,0.059 0,0.089 0,0.1488 0,0.2976 0,0.4464 0,0.4167 0,0.8334 0,1.25 0,0.1488 0.02918,0.3005 0,0.4465 -0.01305,0.065 -0.07623,0.1133 -0.08928,0.1785 -0.01498,0.075 0,0.7431 0,0.8036 0,0.2381 0,0.4762 0,0.7143 0,0.06 -0.01882,0.1221 0,0.1786 0.02104,0.063 0.07314,0.114 0.08928,0.1785 0.01444,0.058 -0.02662,0.1254 0,0.1786 0.05647,0.1129 0.211388,0.1549 0.267857,0.2679 0.01331,0.027 -0.01331,0.063 0,0.089 0.01803,0.036 0.354467,0.3544 0.357143,0.3571 0.08929,0.089 0.178572,0.1786 0.267857,0.2679 0.02976,0.03 0.05164,0.07 0.08929,0.089 0.02662,0.013 0.05952,0 0.08929,0 0.02976,0.03 0.05164,0.071 0.08929,0.089 0.02662,0.013 0.06452,-0.016 0.08928,0 0.07004,0.047 0.10853,0.1319 0.178572,0.1786 0.02984,0.02 0.220741,-0.012 0.267857,0 0.0913,0.023 0.176552,0.067 0.267857,0.089 0.05775,0.014 0.119048,0 0.178571,0 0.208334,0 0.416667,0 0.625,0 0.178572,0 0.357143,0 0.535715,0 0.02976,0 0.06105,0.01 0.08928,0 0.06314,-0.021 0.115437,-0.068 0.178572,-0.089 0.02823,-0.01 0.06267,0.013 0.08929,0 0.02371,-0.012 0.256004,-0.2442 0.267857,-0.2679 0.01331,-0.027 -0.01331,-0.063 0,-0.089 0.01882,-0.038 0.07597,-0.049 0.08928,-0.089 0.01882,-0.057 -0.02662,-0.1254 0,-0.1786 0.03765,-0.075 0.140926,-0.1033 0.178572,-0.1786 0.02662,-0.053 -0.01882,-0.1221 0,-0.1785 0.01331,-0.04 0.07598,-0.049 0.08929,-0.089 0.128857,-0.3866 -0.170688,0.033 0.08928,-0.3572 0.02335,-0.035 0.07908,-0.048 0.08929,-0.089 0.02166,-0.087 -0.01751,-0.1803 0,-0.2678 0.03925,-0.1963 0.08577,-0.1442 0.178571,-0.2679 0.06439,-0.086 0.130582,-0.1719 0.178572,-0.2678 0.02959,-0.059 -0.02494,-0.2823 0,-0.3572 0.02105,-0.063 0.05952,-0.119 0.08929,-0.1785 0.05952,-0.1191 0.129139,-0.2336 0.178571,-0.3572 0.01105,-0.028 0,-0.059 0,-0.089 0,-0.089 0,-0.1786 0,-0.2678 0,-0.1489 0,-0.2977 0,-0.4465 0,-0.06 -0.01444,-0.1208 0,-0.1785 0.01614,-0.065 0.07314,-0.114 0.08929,-0.1786 0.01697,-0.068 0,-0.3717 0,-0.4464 0,-0.3572 0,-0.7143 0,-1.0715 0,-0.2381 0,-0.4762 0,-0.7143 0,-0.06 0,-0.119 0,-0.1785 0,-0.03 0.0072,-0.06 0,-0.089 -0.02283,-0.091 -0.0472,-0.1837 -0.08929,-0.2679 -0.03765,-0.075 -0.131877,-0.1085 -0.178571,-0.1785 -0.03692,-0.055 -0.04771,-0.1266 -0.08929,-0.1786 -0.01285,-0.016 -0.47118,-0.4927 -0.535714,-0.5357 -0.02476,-0.017 -0.06105,0.01 -0.08929,0 -0.06314,-0.021 -0.119048,-0.06 -0.178572,-0.089 -0.08928,0 -0.181237,0.022 -0.267857,0 -0.04083,-0.01 -0.05952,-0.059 -0.08928,-0.089 -0.08929,-0.03 -0.17557,-0.071 -0.267858,-0.089 -0.315847,-0.063 -0.04626,0.097 -0.357142,-0.089 -0.09202,-0.055 -0.171878,-0.1306 -0.267858,-0.1786 -0.0305,-0.015 -0.642025,0 -0.714285,0 -0.208334,0 -0.416667,0 -0.625,0 -0.08929,0 -0.181238,-0.022 -0.267857,0 -0.431156,0.1078 0.0044,0.042 -0.267858,0.1786 -0.08418,0.042 -0.183677,0.047 -0.267857,0.089 -0.03765,0.019 -0.05164,0.071 -0.08928,0.089 -0.02662,0.013 -0.06452,-0.016 -0.08929,0 -0.07004,0.047 -0.10853,0.1319 -0.178572,0.1786 -0.02476,0.016 -0.05952,0 -0.08928,0 -0.02976,0.03 -0.05952,0.059 -0.08929,0.089 -0.204717,0.2047 0.05647,-0.038 -0.267857,0.1785 -0.122831,0.082 -0.09183,0.1378 -0.178572,0.2679 -0.02335,0.035 -0.07597,0.049 -0.08928,0.089 -0.03765,0.1129 0.02335,0.2404 0,0.3571 -0.01846,0.092 -0.06646,0.1766 -0.08929,0.2679 -0.0072,0.029 0.01651,0.064 0,0.089 -0.04669,0.07 -0.147308,0.1004 -0.178571,0.1785 -0.03316,0.083 0.01751,0.1803 0,0.2679 -0.01305,0.065 -0.05952,0.119 -0.08929,0.1786 -0.02976,0.059 -0.05952,0.119 -0.08929,0.1785"
       id="path3570"
       inkscape:connector-curvature="0" />
    <path
       style="fill:none;fill-rule:evenodd;stroke:#000000;stroke-width:1px;stroke-linecap:butt;stroke-linejoin:miter;stroke-opacity:1"
       d="m 16.785714,1013.0764 c -0.119047,0.1191 -0.263754,0.2171 -0.357143,0.3572 -0.03302,0.05 0.01444,0.1208 0,0.1786 0.05382,0.1616 -0.144637,0.166 -0.178571,0.2678 -0.01882,0.057 0.01444,0.1208 0,0.1786 -0.01614,0.065 -0.06457,0.1168 -0.08929,0.1786 -0.03495,0.087 -0.06646,0.1765 -0.08929,0.2678 -0.0072,0.029 0,0.059 0,0.089 0,0.089 0,0.1786 0,0.2679 0,0.119 0.01684,0.2393 0,0.3571 -0.01331,0.093 -0.07381,0.175 -0.08929,0.2679 -0.01468,0.088 0,0.1785 0,0.2678 0,0.059 0.01882,0.1221 0,0.1786 -0.04209,0.1263 -0.136482,0.2309 -0.178572,0.3571 -0.01882,0.057 0,0.1191 0,0.1786 0,0.2381 0,0.4762 0,0.7143 0,0.2976 0,0.5952 0,0.8929 0,0.069 -0.02065,0.4531 0,0.5357 0.05517,0.2206 0.0862,0.2617 0.178572,0.4464 0.02976,0.06 0.04936,0.1253 0.08929,0.1786 0.09716,0.1295 0.28715,0.304 0.446428,0.3571 0.05647,0.019 0.129045,-0.033 0.178572,0 0.07004,0.047 0.103279,0.1409 0.178571,0.1786 0.07143,0.036 0.196429,-0.036 0.267857,0 0.03765,0.019 0.04845,0.079 0.08929,0.089 0.07027,0.017 0.622912,0 0.714286,0 0.148809,0 0.297619,0 0.446428,0 0.05952,0 0.119048,0 0.178572,0 0.02976,0 0.06041,0.01 0.08929,0 0.09131,-0.023 0.183678,-0.047 0.267857,-0.089 0.186408,-0.093 -0.0078,-0.085 0.178572,-0.1786 0.08418,-0.042 0.183678,-0.047 0.267857,-0.089 0.07529,-0.038 0.10853,-0.1319 0.178571,-0.1786 0.05537,-0.037 0.123199,-0.052 0.178572,-0.089 0.05351,-0.036 0.342887,-0.3394 0.357143,-0.3572 0.06812,-0.085 0.324907,-0.496 0.357143,-0.625 0.01444,-0.058 -0.01444,-0.1208 0,-0.1786 0.01614,-0.065 0.07623,-0.1133 0.08929,-0.1785 0.01751,-0.088 -0.03316,-0.185 0,-0.2679 0.03126,-0.078 0.131877,-0.1085 0.178572,-0.1786 0.01651,-0.025 -0.0072,-0.06 0,-0.089 0.02283,-0.091 0.05433,-0.1805 0.08929,-0.2679 0.02472,-0.062 0.07623,-0.1133 0.08929,-0.1786 0.01636,-0.082 0,-0.5376 0,-0.625 0,-0.3274 0,-0.6547 0,-0.9821 0,-0.1786 0,-0.3572 0,-0.5357 0,-0.089 0.03993,-0.188 0,-0.2679 -0.0893,-0.1786 -0.178585,-0.1339 -0.267871,-0.2678 -0.415462,-0.6232 0.396192,0.4389 -0.267857,-0.4465 -0.07242,-0.096 -0.182404,-0.1824 -0.267857,-0.2678 -0.02976,-0.03 -0.05952,-0.06 -0.08929,-0.089 -0.02976,-0.03 -0.05164,-0.07 -0.08929,-0.089 -0.02662,-0.013 -0.05952,0 -0.08929,0 -0.02976,-0.03 -0.05164,-0.07 -0.08929,-0.089 -0.02662,-0.013 -0.06452,0.016 -0.08929,0 -0.07004,-0.047 -0.10853,-0.1319 -0.178571,-0.1786 -0.04953,-0.033 -0.125332,0.027 -0.178572,0 -0.03765,-0.019 -0.04936,-0.076 -0.08929,-0.089 -0.08036,-0.027 -0.1875,0.027 -0.267858,0 -0.06313,-0.021 -0.114008,-0.073 -0.178571,-0.089 -0.112045,-0.028 -0.245098,0.028 -0.357143,0 -0.0913,-0.023 -0.176552,-0.067 -0.267857,-0.089 -0.05775,-0.014 -0.119048,0 -0.178571,0 -0.14881,0 -0.297619,0 -0.446429,0 -0.08929,0 -0.185791,-0.035 -0.267857,0 -0.159509,0.068 -0.272888,0.2678 -0.446429,0.2678 -0.17354,0 -0.291209,-0.1902 -0.446428,-0.2678 -0.02662,-0.013 -0.05952,0 -0.08929,0 -0.02976,0 -0.05952,0 -0.08929,0 -0.261271,0 -0.203426,-0.032 -0.446428,0.089"
       id="path3572"
       inkscape:connector-curvature="0" />
    <path
       style="fill:none;fill-rule:evenodd;stroke:#000000;stroke-width:1px;stroke-linecap:butt;stroke-linejoin:miter;stroke-opacity:1"
       d="m 27.589286,1016.6479 c 0.428571,0.3214 0.208333,0.2678 0.625,0.2678 0.02976,0 0.06267,-0.013 0.08929,0 0.04215,0.021 0.346199,0.2512 0.446428,0.2679 0.117428,0.02 0.239715,-0.02 0.357143,0 0.06564,0.011 0.113314,0.076 0.178571,0.089 0.681129,0 -0.07043,-0.04 0.446429,0.089 0.0981,0.024 0.563982,-0.031 0.625,0 0.07529,0.038 0.10853,0.1318 0.178571,0.1785 0.02476,0.016 0.05952,0 0.08929,0 0.220661,0 0.136482,0.042 0.267857,-0.089 0.02976,-0.03 0.07598,-0.049 0.08929,-0.089 0.01361,-0.041 -0.01986,-0.3175 0,-0.3572 0.01882,-0.038 0.07598,-0.049 0.08929,-0.089 0.01693,-0.051 0,-0.3623 0,-0.4464 0,-0.021 0.01001,-0.3371 0,-0.3571 -0.01882,-0.038 -0.05952,-0.06 -0.08929,-0.089 -0.02976,-0.03 -0.05164,-0.071 -0.08929,-0.089 -0.02001,-0.01 -0.335926,0 -0.357143,0 -0.892857,0 -1.785714,0 -2.678571,0 -0.08409,0 -0.395637,-0.017 -0.446429,0 -0.03993,0.013 -0.07046,0.052 -0.08929,0.089 -0.01331,0.027 0,0.059 0,0.089 0,0.03 0,0.059 0,0.089 0,0.03 -0.01531,0.064 0,0.089 0.07656,0.1276 0.235575,0.2119 0.267857,0.3572 0.03292,0.1481 -0.119048,0.2976 -0.08929,0.4464 0.01167,0.058 0.119048,0 0.178572,0 0.247599,0 -0.142526,-0.013 0.267857,0.089 0.05775,0.014 0.119047,0 0.178571,0 0.178572,0 0.357143,0 0.535714,0 0.14881,0 0.297619,0 0.446429,0 0.02976,0 0.05952,0 0.08929,0 0.02976,0 0.06267,0.013 0.08929,0 0.03765,-0.019 0.05164,-0.07 0.08929,-0.089 0.02662,-0.013 0.06267,0.013 0.08929,0 0.03765,-0.019 0.05164,-0.07 0.08929,-0.089 0.02001,-0.01 0.335925,0 0.357142,0"
       id="path3574"
       inkscape:connector-curvature="0" />
    <path
       style="fill:none;fill-rule:evenodd;stroke:#000000;stroke-width:1px;stroke-linecap:butt;stroke-linejoin:miter;stroke-opacity:1"
       d="m 29.107143,1017.2729 c 0.02976,0.119 0.06522,0.2368 0.08929,0.3571 0.0058,0.029 0,0.059 0,0.089 0,0.1488 0,0.2976 0,0.4464 0,0.3572 0,0.7143 0,1.0715 0,0.1785 0,0.3571 0,0.5357 0,0.059 0.01444,0.1208 0,0.1786 0.02049,0.1792 -0.1397,0.2909 -0.178572,0.4464 -0.02165,0.087 0.02824,0.1831 0,0.2678 -0.02105,0.063 -0.05952,0.1191 -0.08929,0.1786"
       id="path3576"
       inkscape:connector-curvature="0" />
    <path
       style="fill:none;fill-rule:evenodd;stroke:#000000;stroke-width:1px;stroke-linecap:butt;stroke-linejoin:miter;stroke-opacity:1"
       d="m 23.75,1022.2729 c 0.376329,0.072 0.02142,0.3107 0.08929,0.4464 0.01882,0.038 0.07046,0.052 0.08929,0.089 0.145199,0.2904 0.02254,0.2124 0.178572,0.4464 0.04669,0.07 0.119048,0.1191 0.178571,0.1786 0.101874,0.1019 0.36307,0.3353 0.446429,0.4464 0.164676,0.2196 -0.0055,0.1749 0.267857,0.3572 0.02476,0.016 0.06267,-0.013 0.08929,0 0.03765,0.019 0.05426,0.066 0.08929,0.089 0.234047,0.1561 0.156031,0.033 0.446429,0.1786 0.07529,0.038 0.09871,0.152 0.178571,0.1786 0.048,0.016 0.28155,0 0.357143,0 0.119048,0 0.238096,0 0.357143,0 0.05952,0 0.120204,0.012 0.178572,0 0.256489,-0.051 0.224248,-0.046 0.357142,-0.1786 0.02976,-0.03 0.05426,-0.066 0.08929,-0.089 0.05537,-0.037 0.125332,-0.049 0.178572,-0.089 0.06734,-0.05 0.111228,-0.128 0.178571,-0.1785 -0.01017,-0.1692 0.208333,-0.059 0.267857,-0.089 0.03765,-0.019 0.05561,-0.064 0.08929,-0.089 0.08585,-0.064 0.191979,-0.1027 0.267857,-0.1786 0.04706,-0.047 0.05237,-0.1232 0.08929,-0.1785 0.05419,-0.081 0.228288,-0.1888 0.267857,-0.2679 0.01331,-0.027 -0.0094,-0.061 0,-0.089 0.02105,-0.063 0.07315,-0.114 0.08929,-0.1786 0.02561,-0.1024 -0.05525,-0.2848 0.08929,-0.3571 0.110331,-0.055 0.08929,0.1642 0.08929,0.1786 0,0.1522 -0.0094,0.1597 0.08929,0.3571 0.01882,0.038 0.07046,0.052 0.08929,0.089 0.04209,0.084 0.04086,0.1872 0.08929,0.2679 0.04331,0.072 0.125985,0.1128 0.178572,0.1785 0.442699,0.5534 -0.01033,0.029 0.267857,0.4465 0.05419,0.081 0.228288,0.1887 0.267857,0.2678 0.01331,0.027 0,0.059 0,0.089 0.02976,0.06 0.05237,0.1232 0.08929,0.1786 0.148061,0.2221 0.02052,0.01 0.178571,0.089 0.07529,0.038 0.103279,0.1409 0.178572,0.1785 0.05917,0.03 0.28231,-0.025 0.357142,0 0.06314,0.021 0.114009,0.073 0.178572,0.089 0.08662,0.022 0.178571,0 0.267857,0 0.357143,0 0.714286,0 1.071429,0 0.06369,0 0.380516,0.016 0.446428,0 0.273588,-0.068 0.216602,-0.038 0.357143,-0.1785 0.02976,-0.03 0.05427,-0.066 0.08929,-0.089 0.110745,-0.074 0.246397,-0.1048 0.357143,-0.1786 0.03502,-0.023 0.05426,-0.066 0.08928,-0.089 0.05537,-0.037 0.123199,-0.052 0.178572,-0.089 0.07704,-0.051 0.198117,-0.1981 0.267857,-0.2678 0.08929,-0.089 0.197815,-0.1628 0.267857,-0.2679 0.01651,-0.025 -0.0094,-0.061 0,-0.089 0.05405,-0.1621 0.07641,-0.1657 0.178571,-0.2678 0.02976,-0.03 0.07046,-0.052 0.08929,-0.089 0.205191,-0.4104 -0.02315,-0.1554 0.178572,-0.3572"
       id="path3578"
       inkscape:connector-curvature="0" />
    <path
       style="fill:none;fill-rule:evenodd;stroke:#000000;stroke-width:1px;stroke-linecap:butt;stroke-linejoin:miter;stroke-opacity:1"
       d="m 42.142857,1015.3979 c 0.119048,0 0.240407,-0.023 0.357143,0 0.185353,0.037 0.03624,0.099 0.08929,0.1785 0.04669,0.07 0.119047,0.1191 0.178571,0.1786 0.02976,0.03 0.07046,0.052 0.08929,0.089 0.01331,0.027 -0.0094,0.061 0,0.089 0.02105,0.063 0.07314,0.114 0.08929,0.1786 0.01444,0.058 -0.01882,0.1221 0,0.1785 0.01331,0.04 0.07597,0.049 0.08928,0.089 0.01882,0.057 -0.02662,0.1254 0,0.1786 0.03765,0.075 0.131878,0.1085 0.178572,0.1786 0.01651,0.025 -0.0094,0.061 0,0.089 0.184735,0.5542 -0.0072,-0.2968 0.178571,0.4464 0.01759,0.07 0,0.2989 0,0.3571 0,0.1488 0,0.2977 0,0.4465 0,0.03 0,0.059 0,0.089 0,0.03 0.01331,0.063 0,0.089 -0.03765,0.075 -0.140925,0.1033 -0.178571,0.1786 -0.01331,0.027 0,0.06 0,0.089 -0.02976,0.059 -0.05237,0.1232 -0.08929,0.1786 -0.04669,0.07 -0.131877,0.1085 -0.178571,0.1785 -0.03692,0.055 -0.05237,0.1232 -0.08929,0.1786 -0.01635,0.024 -0.24904,0.2616 -0.267857,0.2679 -0.05647,0.019 -0.125332,-0.027 -0.178572,0 -0.178571,0.089 -0.133928,0.1785 -0.267857,0.2678 -0.04496,0.1967 -0.183678,0.047 -0.267857,0.089 -0.03765,0.019 -0.05164,0.071 -0.08929,0.089 -0.02662,0.013 -0.05952,0 -0.08928,0 -0.05952,0 -0.125332,-0.027 -0.178572,0 -0.112938,0.056 -0.178571,0.1786 -0.267857,0.2679 -0.04701,0.047 -0.244014,0.2201 -0.267857,0.2678 -0.01331,0.027 0,0.06 0,0.089 0,0.1191 0,0.2381 0,0.3572 0,0.06 0.01882,0.1221 0,0.1785 -0.02105,0.063 -0.06824,0.1155 -0.08929,0.1786 -0.01733,0.052 0,0.4743 0,0.5357 0,0.04 -0.01359,0.2407 0,0.2679 0.01882,0.038 0.07046,0.052 0.08929,0.089 0.01331,0.027 0,0.06 0,0.089 0.02976,0.06 0.05237,0.1232 0.08929,0.1785 0.04669,0.07 0.140925,0.1033 0.178571,0.1786 0.02662,0.053 -0.03302,0.129 0,0.1786 9.29e-4,0 0.414481,0.4304 0.446429,0.4464 0.02662,0.013 0.06267,-0.013 0.08928,0 0.03765,0.019 0.05164,0.071 0.08929,0.089 0.02001,0.01 0.335926,0 0.357143,0 0.178571,0 0.357143,0 0.535714,0 0.02976,0 0.06267,0.013 0.08929,0 0.03765,-0.019 0.05952,-0.059 0.08929,-0.089 0.02976,-0.03 0.05952,-0.059 0.08928,-0.089 0.05718,-0.057 0.30144,-0.2736 0.357143,-0.3571 0.03692,-0.055 0.05237,-0.1232 0.08929,-0.1786 0.02335,-0.035 0.05952,-0.059 0.08929,-0.089 0.08928,-0.089 0.178571,-0.1786 0.267857,-0.2679 0.02976,-0.03 0.07046,-0.052 0.08929,-0.089 0.04209,-0.084 0.0472,-0.1837 0.08928,-0.2679 0.05357,-0.1071 0.214286,-0.1607 0.267857,-0.2679 0.01331,-0.027 0,-0.059 0,-0.089 0.02976,-0.03 0.07046,-0.052 0.08929,-0.089 0.04729,-0.095 -0.04729,-0.084 0,-0.1786 0.04729,-0.095 0.131281,-0.084 0.178572,-0.1786 0.01331,-0.027 0,-0.059 0,-0.089 0,-0.03 0,-0.059 0,-0.089 0,-0.1488 0,-0.2976 0,-0.4464 0,-0.089 -0.02824,-0.1831 0,-0.2678 0.01331,-0.04 0.07046,-0.052 0.08928,-0.089 0.01331,-0.027 0,-0.059 0,-0.089 0,-0.03 0,-0.06 0,-0.089 0,-0.1488 0,-0.2976 0,-0.4464 0,-0.506 0,-1.0119 0,-1.5179 0,-0.3571 0,-0.7143 0,-1.0714 0,-0.048 0.01278,-0.4209 0,-0.4465 -0.03765,-0.075 -0.140925,-0.1032 -0.178571,-0.1785 -0.04762,-0.095 0.08839,-0.1194 -0.08929,-0.1786 -0.05647,-0.019 -0.119048,0 -0.178571,0 -0.02976,0 -0.06267,0.013 -0.08929,0 -0.03765,-0.019 -0.05164,-0.07 -0.08929,-0.089 -0.02662,-0.013 -0.05952,0 -0.08928,0 -0.05952,0 -0.120825,0.014 -0.178572,0 -0.06456,-0.016 -0.115437,-0.068 -0.178571,-0.089 -0.01271,-0 -0.502072,-0.017 -0.535715,0 -0.123932,0.062 -0.08928,0.1589 -0.08928,0.2679 0,0.2249 -0.03656,0.3469 0.08928,0.5357 0.05136,0.077 0.198118,0.1981 0.267858,0.2679 0.02976,0.03 0.05952,0.059 0.08928,0.089 0.02976,0.03 0.05164,0.071 0.08929,0.089 0.02662,0.013 0.06267,-0.013 0.08929,0 0.01709,0.01 0.348597,0.3401 0.357143,0.3572 0.01331,0.027 -0.01331,0.063 0,0.089 0.04776,0.096 0.13081,0.083 0.178571,0.1785 0.01907,0.038 0,0.4112 0,0.4465 0,0.1488 0,0.2976 0,0.4464 0,0.059 0.01882,0.1221 0,0.1786 -0.02105,0.063 -0.06824,0.1154 -0.08929,0.1785 -0.0094,0.028 0.01331,0.063 0,0.089 -0.01882,0.038 -0.05952,0.06 -0.08928,0.089 -0.02976,0.03 -0.05952,0.06 -0.08929,0.089 -0.04669,0.047 -0.321928,0.3454 -0.357143,0.3572 -0.05647,0.019 -0.122102,-0.019 -0.178571,0 -0.03993,0.013 -0.05164,0.07 -0.08929,0.089 -0.02662,0.013 -0.06105,-0.01 -0.08929,0 -0.06313,0.021 -0.115437,0.068 -0.178571,0.089 -0.05647,0.019 -0.125332,-0.027 -0.178572,0 -0.03765,0.019 -0.05164,0.071 -0.08928,0.089 -0.02662,0.013 -0.05952,0 -0.08929,0 -0.05952,0 -0.119048,0 -0.178572,0 -0.297348,0 -0.200297,-0.067 -0.446428,0.1786 -0.02976,0.03 -0.05952,0.059 -0.08929,0.089 -0.02976,0.03 -0.07598,0.049 -0.08929,0.089 -0.01508,0.045 0,0.552 0,0.625 0,0.1785 0,0.3571 0,0.5357 0,0.059 -0.01444,0.1208 0,0.1786 0.02283,0.091 0.0472,0.1836 0.08929,0.2678 0.01882,0.038 0.05952,0.059 0.08929,0.089 0.02976,0.03 0.04936,0.076 0.08929,0.089 0.04525,0.015 0.552009,0 0.625,0 0.08409,0 0.395637,0.017 0.446428,0 0.03993,-0.013 0.07046,-0.052 0.08929,-0.089 0.01331,-0.027 -0.0058,-0.06 0,-0.089 0.02407,-0.1203 0.04371,-0.2432 0.08929,-0.3571 0.181521,-0.4538 -9.71e-4,0.4503 0.178571,-0.2679 0.01645,-0.066 -0.02616,-0.3941 0,-0.4464 0.03765,-0.075 0.140925,-0.1033 0.178571,-0.1786 0.02442,-0.049 -0.01519,-0.2071 0,-0.2678 0.02283,-0.091 0.06646,-0.1766 0.08929,-0.2679 0.0072,-0.029 -0.01331,-0.063 0,-0.089 0.01882,-0.038 0.07598,-0.049 0.08929,-0.089 0.01882,-0.056 0,-0.119 0,-0.1785 0,-0.03 -0.01331,-0.063 0,-0.089 0.01882,-0.038 0.07046,-0.052 0.08929,-0.089 0.02958,-0.059 -0.02495,-0.2823 0,-0.3572 0.215577,-0.6467 -0.02574,0.1408 0.178571,-0.2678 0.02662,-0.053 -0.01882,-0.1221 0,-0.1786 0.02105,-0.063 0.07314,-0.114 0.08929,-0.1786 0.01087,-0.043 -0.02361,-0.3099 0,-0.3571 0.01882,-0.038 0.07597,-0.049 0.08928,-0.089 0.02824,-0.085 0,-0.1786 0,-0.2679 0,-0.2083 0,-0.4166 0,-0.625 0,-0.092 0.01701,-0.5569 0,-0.625 -0.03604,-0.1441 -0.08781,-0.1771 -0.178571,-0.2678"
       id="path3584"
       inkscape:connector-curvature="0" />
    <path
       style="fill:none;fill-rule:evenodd;stroke:#000000;stroke-width:1px;stroke-linecap:butt;stroke-linejoin:miter;stroke-opacity:1"
       d="m 42.767857,1020.8443 c -0.178571,0 -0.357143,0 -0.535714,0 -0.02976,0 -0.06267,-0.013 -0.08929,0 -0.03765,0.019 -0.05164,0.071 -0.08928,0.089 -0.02662,0.013 -0.06267,-0.013 -0.08929,0 -0.03765,0.019 -0.05952,0.06 -0.08929,0.089 -0.02976,0.03 -0.07046,0.052 -0.08929,0.089 -0.02668,0.053 0.01669,0.1785 0.08929,0.1785 0.01722,0 0.13522,-0.1496 0.178572,-0.1785 0.05537,-0.037 0.123198,-0.052 0.178571,-0.089 0.02925,-0.019 0.165101,-0.1759 0.178571,-0.1786 0.116736,-0.023 0.272964,0.084 0.357143,0 0.08418,-0.084 -0.02335,-0.2404 0,-0.3571 0.0083,-0.041 0.05952,-0.06 0.08929,-0.089 0.0498,-0.05 0.439263,-0.4465 0.446429,-0.4465 0.05952,0 0,0.1191 0,0.1786 0,0.059 0,0.1191 0,0.1786 0,0.03 0.0094,0.061 0,0.089 -0.04209,0.1262 -0.146291,0.228 -0.178572,0.3571 -0.01444,0.058 0.05775,0.1642 0,0.1786 -0.119048,0.03 -0.289075,-0.1914 -0.357143,-0.089 -0.07383,0.1108 0.178572,0.224 0.178572,0.3572 0,0.089 -0.223215,0.1785 -0.267857,0.2678 -0.04209,0.084 -0.0472,0.1837 -0.08929,0.2679 -0.01882,0.038 -0.07046,0.052 -0.08929,0.089 -0.02668,0.053 0.05878,0.1785 -0.08929,0.1785 -0.198412,0 -0.188492,-0.1488 -0.267857,-0.2678 -0.168547,-0.2529 -0.05731,0.1692 -0.267857,-0.3572 -0.02211,-0.055 0.01882,-0.1221 0,-0.1785 -0.01331,-0.04 -0.07908,-0.048 -0.08929,-0.089 -0.02652,-0.1061 0,-0.3183 0,-0.4465 0,-0.021 -0.01,-0.3371 0,-0.3571 0.01882,-0.038 0.05952,-0.059 0.08929,-0.089 0.02976,-0.03 0.05164,-0.07 0.08929,-0.089 0.02662,-0.013 0.05952,0 0.08929,0 0.141452,0 0.241237,-0.027 0.357142,0.089 0.02148,0.022 -0.02148,0.3357 0,0.3571 0.105225,0.1053 0.238096,0.1786 0.357143,0.2679 z"
       id="path3586"
       inkscape:connector-curvature="0" />
    <path
       style="fill:none;fill-rule:evenodd;stroke:#000000;stroke-width:1px;stroke-linecap:butt;stroke-linejoin:miter;stroke-opacity:1"
       d="m 42.678572,1022.5407 c 0.504796,0.101 0.294672,0.089 0.625,0.089 0.0477,0 0.420874,0.013 0.446428,0 0.23664,-0.1183 -0.05729,-0.2271 -0.178571,-0.1785 -0.24983,0.1 -0.172417,0.2049 -0.357143,0.1785 -0.179215,-0.026 -0.369317,-0.1606 -0.535714,-0.089 -0.11279,0.048 -0.05952,0.2381 -0.08929,0.3572"
       id="path3588"
       inkscape:connector-curvature="0" />
    <path
       style="fill:none;fill-rule:evenodd;stroke:#000000;stroke-width:1px;stroke-linecap:butt;stroke-linejoin:miter;stroke-opacity:1"
       d="m 17.767857,1012.8979 c 0.05226,0.209 0.06324,0.3627 0.178572,0.5357 0.02335,0.035 0.07046,0.052 0.08929,0.089 0.02662,0.053 -0.02662,0.1253 0,0.1786 0.01882,0.038 0.07046,0.052 0.08929,0.089 0.01324,0.026 0,0.4494 0,0.5358 0,0.021 0.01001,0.3371 0,0.3571 -0.03765,0.075 -0.131877,0.1085 -0.178571,0.1786 -0.03691,0.055 -0.05237,0.1232 -0.08929,0.1785 -0.02523,0.038 -0.230915,0.2494 -0.267857,0.2679 -0.02662,0.013 -0.06452,-0.016 -0.08929,0 -0.07004,0.047 -0.10853,0.1319 -0.178571,0.1786 -0.02476,0.016 -0.06105,-0.01 -0.08929,0 -0.06313,0.021 -0.115437,0.068 -0.178572,0.089 -0.02823,0.01 -0.06105,-0.01 -0.08929,0 -0.06314,0.021 -0.115437,0.068 -0.178572,0.089 -0.164929,0.055 -0.04233,-0.1362 -0.267857,0.089 -0.02105,0.021 0.0094,0.061 0,0.089 -0.02105,0.063 -0.06824,0.1155 -0.08929,0.1786 -0.0094,0.028 0,0.059 0,0.089 -0.02976,0.089 -0.0472,0.1837 -0.08929,0.2678 -0.204313,0.4087 0.03701,-0.3788 -0.178572,0.2679 -0.01431,0.043 0,0.6119 0,0.625 0,0.1488 0,0.2976 0,0.4464 0,0.06 -0.01444,0.1209 0,0.1786 0.225527,0.9021 -0.03224,-0.065 0.178572,0.3571 0.01331,0.027 -0.0094,0.061 0,0.089 0.03934,0.1181 0.139227,0.2391 0.178571,0.3572 0.0094,0.028 -0.01331,0.063 0,0.089 0.03957,0.079 0.213672,0.1865 0.267857,0.2678 0.05438,0.082 0.07621,0.2167 0.178572,0.2679 0.262751,0.1314 -0.117552,-0.2069 0.178571,0.089 0.02976,0.03 0.05952,0.059 0.08929,0.089 0.02976,0.03 0.04936,0.076 0.08929,0.089 0.01879,0.01 0.39999,0.012 0.446428,0 0.09131,-0.023 0.183678,-0.047 0.267857,-0.089 0.03765,-0.019 0.05427,-0.066 0.08929,-0.089 -0.01017,-0.1692 0.208333,-0.059 0.267857,-0.089 0.03765,-0.019 0.05952,-0.059 0.08929,-0.089 0.08929,-0.089 0.178571,-0.1786 0.267857,-0.2679 0.208333,-0.2083 0.416667,-0.4166 0.625,-0.625 0.04701,-0.047 0.244014,-0.2201 0.267857,-0.2678 0.03571,-0.071 -0.03571,-0.1964 0,-0.2679 0.03765,-0.075 0.119048,-0.119 0.178572,-0.1785 0.02976,-0.03 0.07598,-0.049 0.08929,-0.089 0.01882,-0.057 -0.01444,-0.1209 0,-0.1786 0.01614,-0.065 0.06824,-0.1154 0.08929,-0.1786 0.01925,-0.058 0,-0.3489 0,-0.4464 0,-0.3274 0,-0.6548 0,-0.9822 0,-0.2083 0,-0.4166 0,-0.625 0,-0.03 0,-0.059 0,-0.089 0,-0.03 0.01651,-0.065 0,-0.089 -0.05952,-0.06 -0.119048,-0.1191 -0.178571,-0.1786 0,-0.03 0.01331,-0.063 0,-0.089 -0.01882,-0.038 -0.07046,-0.052 -0.08929,-0.089 -0.01331,-0.027 0.0058,-0.06 0,-0.089 -0.02407,-0.1203 -0.06522,-0.2368 -0.08929,-0.3571 -0.0058,-0.029 0.01331,-0.063 0,-0.089 -0.0085,-0.017 -0.340052,-0.3486 -0.357143,-0.3571 -0.02662,-0.013 -0.08929,-0.03 -0.08929,0 0,0.042 0.05164,0.07 0.08929,0.089 0.02662,0.013 0.08929,-0.03 0.08929,0 0,0.03 -0.05952,0 -0.08929,0 -0.214612,0 0.03765,0.01 -0.357143,-0.089 -0.02887,-0.01 -0.05952,0 -0.08929,0 -0.02976,-0.03 -0.04936,-0.076 -0.08929,-0.089 -0.01945,-0.01 -0.424441,-0.011 -0.446429,0 -0.03765,0.019 -0.07046,0.052 -0.08929,0.089 -0.01524,0.03 0,0.5242 0,0.625 0,0.238 0,0.4761 0,0.7142 0,0.06 0,0.1191 0,0.1786 0,0.06 -0.01444,0.1208 0,0.1786 0.01614,0.064 0.05952,0.119 0.08929,0.1786 0,0.089 -0.01751,0.1803 0,0.2678 -0.05382,0.1616 0.144638,0.1661 0.178572,0.2679 0.01508,0.045 0,0.552 0,0.625 0,0.03 0.01331,0.063 0,0.089 -0.01882,0.038 -0.07046,0.052 -0.08929,0.089 -0.01331,0.027 0.0094,0.061 0,0.089 -0.02105,0.063 -0.05952,0.1191 -0.08929,0.1786 -0.02976,0.06 -0.04223,0.1315 -0.08929,0.1786 -0.108749,0.1087 -0.199483,0.042 -0.267857,0.1785 -0.04762,0.095 0.08839,0.1194 -0.08929,0.1786 -0.05647,0.019 -0.122102,-0.019 -0.178572,0 -0.03993,0.013 -0.05164,0.071 -0.08929,0.089 -0.02662,0.013 -0.06267,-0.013 -0.08929,0 -0.03765,0.019 -0.04845,0.079 -0.08929,0.089 -0.08662,0.022 -0.180305,-0.018 -0.267857,0 -0.06526,0.013 -0.113314,0.076 -0.178571,0.089 -0.116736,0.023 -0.238095,0 -0.357143,0 -0.297619,0 -0.595238,0 -0.892857,0 -0.208753,0 0.03157,-0.021 -0.267857,0.1786 -0.02476,0.017 -0.119048,0 -0.08929,0 0.297619,0 0.595238,0 0.892857,0 0.119048,0 0.240407,0.023 0.357143,0 0.09229,-0.019 0.178571,-0.06 0.267857,-0.089 0.08929,-0.03 0.183678,-0.047 0.267857,-0.089 0.02371,-0.012 0.256004,-0.2442 0.267857,-0.2679 0.01331,-0.027 -0.01651,-0.064 0,-0.089 0.04669,-0.07 0.119048,-0.119 0.178572,-0.1785 0.02976,-0.03 0.07046,-0.052 0.08929,-0.089 0.01359,-0.027 0,-0.2277 0,-0.2679 0,-0.1488 0,-0.2976 0,-0.4464 0,-0.06 0,-0.1191 0,-0.1786 0,-0.03 0.01331,-0.063 0,-0.089 -0.01882,-0.038 -0.05952,-0.059 -0.08929,-0.089 -0.02976,-0.03 -0.05164,-0.07 -0.08929,-0.089 -0.02662,-0.013 -0.06267,0.013 -0.08929,0 -0.03765,-0.019 -0.05164,-0.07 -0.08929,-0.089 -0.05324,-0.027 -0.129045,0.033 -0.178572,0 -0.07004,-0.047 -0.103279,-0.141 -0.178571,-0.1786 -0.05324,-0.027 -0.119048,0 -0.178572,0 -0.05952,0 -0.120203,-0.012 -0.178571,0 -0.120329,0.024 -0.243208,0.044 -0.357143,0.089 -0.09753,0.039 -0.131828,0.2055 -0.178571,0.2678 -0.05051,0.067 -0.119048,0.1191 -0.178572,0.1786 -0.02976,0.03 -0.05952,0.06 -0.08929,0.089 -0.02976,0.03 -0.07046,0.052 -0.08929,0.089 -0.0038,0.01 -0.0038,0.3495 0,0.3571 0.01882,0.038 0.05164,0.071 0.08929,0.089 0.02555,0.013 0.398731,0 0.446429,0 0.224078,0 0.715752,0.044 0.892857,-0.089 0.05324,-0.04 0.05952,-0.119 0.08929,-0.1785 0.05952,-0.06 0.10853,-0.1319 0.178571,-0.1786 0.02476,-0.017 0.06105,0.01 0.08929,0 0.06313,-0.021 0.123199,-0.052 0.178571,-0.089 0.174195,-0.1161 0.04413,-0.043 0.08929,-0.1786 0.02105,-0.063 0.05237,-0.1232 0.08929,-0.1785 0.03911,-0.059 0.251749,-0.2196 0.267857,-0.2679 0.0029,-0.01 0.01353,-0.4951 0,-0.5357 -0.02105,-0.063 -0.04223,-0.1315 -0.08929,-0.1786 -0.02104,-0.021 -0.05952,0 -0.08929,0 -0.343861,0 -0.410898,0.143 -0.625,0.3572 -0.386187,0.3861 -0.01399,-0.024 -0.267858,0.3571 -0.02335,0.035 -0.06594,0.054 -0.08929,0.089 -0.03692,0.055 -0.05952,0.119 -0.08929,0.1786 -0.02976,0.059 -0.05237,0.1232 -0.08929,0.1785 -0.02335,0.035 -0.07046,0.052 -0.08929,0.089 -0.01331,0.027 0,0.06 0,0.089 0,0.06 0.01444,0.1208 0,0.1786 -0.01614,0.064 -0.06824,0.1154 -0.08929,0.1785 -0.0094,0.028 0,0.06 0,0.089 0,0.06 -0.01882,0.1221 0,0.1786 0.01331,0.04 0.05952,0.06 0.08929,0.089 0.05952,0.059 0.10853,0.1319 0.178571,0.1786 0.110745,0.074 0.250663,0.099 0.357143,0.1785 0.06734,0.051 0.10853,0.1319 0.178571,0.1786 0.04953,0.033 0.125332,-0.027 0.178572,0 0.03765,0.019 0.05164,0.071 0.08929,0.089 0.02662,0.013 0.05952,0 0.08929,0 0.01274,0 0.431048,0.01 0.446429,0 0.07004,-0.047 0.111228,-0.1281 0.178571,-0.1786 0.05324,-0.04 0.123199,-0.052 0.178572,-0.089 0.148162,-0.099 0.26186,-0.3193 0.357142,-0.4464 0.02525,-0.034 0.07046,-0.052 0.08929,-0.089 0.04209,-0.084 0.05433,-0.1804 0.08929,-0.2678 0.02472,-0.062 0.07315,-0.114 0.08929,-0.1786 0.02887,-0.1155 -0.04421,-0.2466 0,-0.3571 0.03985,-0.1 0.130581,-0.1719 0.178571,-0.2679 0.01331,-0.027 0,-0.06 0,-0.089 0,-0.03 0,-0.059 0,-0.089 0,-0.2678 0,-0.5357 0,-0.8036 0,-0.119 0,-0.2381 0,-0.3571 0,-0.03 0,-0.059 0,-0.089 0,-0.03 0.01331,-0.063 0,-0.089 -0.01882,-0.038 -0.05164,-0.07 -0.08929,-0.089 -0.02662,-0.013 -0.05952,0 -0.08929,0 -0.05952,0 -0.125332,-0.027 -0.178572,0 -0.07529,0.038 -0.119047,0.1191 -0.178571,0.1786 -0.02976,0.03 -0.07046,0.052 -0.08929,0.089 -0.04209,0.084 -0.03708,0.1895 -0.08929,0.2679 -0.07004,0.105 -0.197815,0.1627 -0.267857,0.2678 -0.4309,0.6464 0.114865,-0.03 -0.08929,0.4464 -0.06836,0.1595 -0.199496,0.287 -0.267857,0.4465 -0.02345,0.055 0.01167,0.1202 0,0.1785 -0.01846,0.092 -0.07083,0.1756 -0.08929,0.2679 -0.02335,0.1167 0.02335,0.2404 0,0.3571 -0.01846,0.092 -0.07083,0.1756 -0.08929,0.2679 -0.01167,0.058 0,0.119 0,0.1786 0,0.089 0,0.1785 0,0.2678 0,0.2381 0,0.4762 0,0.7143 0,0.021 0.01001,0.3371 0,0.3572 -0.01882,0.038 -0.05164,0.07 -0.08929,0.089 -0.02348,0.012 -0.310453,0 -0.357143,0 -0.02122,0 -0.337131,0.01 -0.357143,0 -0.238132,-0.119 -0.04888,-0.3543 0.08929,-0.4464 0.02476,-0.016 0.06452,0.017 0.08929,0 0.07004,-0.047 0.10853,-0.1319 0.178571,-0.1786 0.0386,-0.026 0.45857,0.026 0.535715,0 0.161601,0.054 0.166055,-0.1446 0.267857,-0.1785 0.05647,-0.019 0.120825,0.014 0.178571,0 0.06456,-0.016 0.115437,-0.068 0.178572,-0.089 0.02823,-0.01 0.06452,0.016 0.08929,0 0.07004,-0.047 0.10853,-0.1319 0.178572,-0.1786 0.02476,-0.016 0.06267,0.013 0.08929,0 0.07529,-0.038 0.10853,-0.1319 0.178572,-0.1786 0.05537,-0.037 0.125332,-0.049 0.178571,-0.089 0.124392,-0.093 0.2445,-0.2445 0.357143,-0.3571 0.02976,-0.03 0.05952,-0.059 0.08929,-0.089 0.02976,-0.03 0.07046,-0.052 0.08929,-0.089 0.01331,-0.027 -0.0094,-0.061 0,-0.089 0.02104,-0.063 0.07315,-0.114 0.08929,-0.1785 0.01894,-0.076 0,-0.5645 0,-0.625 0,-0.2084 0,-0.4167 0,-0.625 0,-0.089 0.02166,-0.1813 0,-0.2679 -0.01614,-0.065 -0.06824,-0.1154 -0.08929,-0.1786 -0.0094,-0.028 0,-0.06 0,-0.089 0,-0.06 0,-0.119 0,-0.1785 0,-0.1786 0,-0.3572 0,-0.5357 0,-0.03 -0.01331,-0.063 0,-0.089 0.01882,-0.038 0.05952,-0.06 0.08929,-0.089 0.02976,-0.03 0.04936,-0.076 0.08929,-0.089 0.05647,-0.019 0.119048,0 0.178571,0 0.02976,0 0.06267,-0.013 0.08929,0 0.177716,0.089 0.04658,0.229 0.08929,0.3571 0.02105,0.063 0.07315,0.114 0.08929,0.1786 0.01444,0.058 0,0.1191 0,0.1786 0,0.1785 0,0.3571 0,0.5357 0,0.069 0.01476,0.4169 0,0.4464 -0.03765,0.075 -0.131877,0.1085 -0.178572,0.1786 -0.01651,0.025 0.0072,0.06 0,0.089 -0.04565,0.1826 -0.132919,0.3531 -0.178571,0.5357 -0.0072,0.029 0.01331,0.063 0,0.089 -0.01882,0.038 -0.07598,0.049 -0.08929,0.089 -0.01882,0.056 0.02662,0.1253 0,0.1785 -0.05647,0.113 -0.178571,0.1786 -0.267857,0.2679 -0.08929,0.089 -0.178572,0.1786 -0.267857,0.2679 -0.05952,0.059 -0.10853,0.1318 -0.178572,0.1785 -0.110745,0.074 -0.246397,0.1048 -0.357143,0.1786 -0.03502,0.023 -0.05952,0.059 -0.08929,0.089 -0.02976,0.03 -0.06594,0.054 -0.08929,0.089 -0.03692,0.055 -0.04223,0.1315 -0.08929,0.1786 -0.04706,0.047 -0.123198,0.052 -0.178571,0.089 -0.07004,0.047 -0.09871,0.152 -0.178572,0.1786 -0.04084,0.014 -0.317412,-0.02 -0.357142,0 -0.03765,0.019 -0.05952,0.059 -0.08929,0.089 -0.05952,0 -0.122102,-0.019 -0.178572,0 -0.177674,0.059 -0.04167,0.083 -0.08929,0.1786 -0.02306,0.046 -0.416142,0.4161 -0.446429,0.4464"
       id="path3590"
       inkscape:connector-curvature="0" />
    <path
       style="fill:none;fill-rule:evenodd;stroke:#000000;stroke-width:1px;stroke-linecap:butt;stroke-linejoin:miter;stroke-opacity:1"
       d="m 13.839286,1025.6657 c -0.253986,-0.021 -0.271325,-0.3297 -0.446429,-0.4464 -0.05537,-0.037 -0.121505,-0.055 -0.178571,-0.089 -0.09202,-0.055 -0.175841,-0.1233 -0.267857,-0.1786 -0.05707,-0.034 -0.123199,-0.052 -0.178572,-0.089 -0.03502,-0.023 -0.04845,-0.079 -0.08929,-0.089 -0.08662,-0.022 -0.180305,0.018 -0.267857,0 -0.157958,-0.032 -0.311198,-0.2228 -0.446428,-0.2679 -0.169408,-0.057 -0.360611,0.035 -0.535715,0 -0.06526,-0.013 -0.113314,-0.076 -0.178571,-0.089 -0.08755,-0.017 -0.178571,0 -0.267857,0 -0.119048,0 -0.238095,0 -0.357143,0 -0.357143,0 -0.7142857,0 -1.0714285,0 -0.4166667,0 -0.8333334,0 -1.25,0 -0.1190477,0 -0.2380953,0 -0.3571429,0 -0.029762,0 -0.060412,-0.01 -0.089286,0 -0.1826107,0.046 -0.3500446,0.1476 -0.5357143,0.1786 -0.088071,0.015 -0.1812373,-0.022 -0.2678572,0 -0.040833,0.01 -0.054265,0.066 -0.089286,0.089 -0.055373,0.037 -0.1253317,0.049 -0.1785714,0.089 -0.067344,0.051 -0.1032791,0.1409 -0.1785714,0.1785 -0.05324,0.027 -0.1202036,-0.012 -0.1785715,0 -0.092288,0.019 -0.1836777,0.047 -0.2678571,0.089 -0.037646,0.019 -0.054265,0.066 -0.089286,0.089 -0.3243264,0.2162 -0.06314,-0.026 -0.2678572,0.1786 -0.059519,0.059 -0.1190427,0.119 -0.1785665,0.1786 -0.029762,0.03 -0.05164,0.07 -0.089286,0.089 -0.084179,0.042 -0.1871538,0.041 -0.2678571,0.089 -0.1392379,0.084 -0.2263956,0.2591 -0.3571429,0.3572 -0.085847,0.064 -0.1919789,0.1027 -0.2678571,0.1785 -0.021045,0.021 0.01331,0.063 0,0.089 -0.018823,0.038 -0.059524,0.06 -0.089286,0.089 -0.029762,0.03 -0.059524,0.059 -0.089286,0.089 -0.029762,0.03 -0.051639,0.071 -0.089286,0.089 -0.1231569,0.062 -0.079864,-0.1081 -0.1785714,0.089 -0.01331,0.027 0.00941,0.061 0,0.089 -0.021045,0.063 -0.06457,0.1167 -0.089286,0.1785 -0.034954,0.087 -0.059524,0.1786 -0.089286,0.2679"
       id="path3592"
       inkscape:connector-curvature="0" />
    <path
       style="fill:none;fill-rule:evenodd;stroke:#000000;stroke-width:1px;stroke-linecap:butt;stroke-linejoin:miter;stroke-opacity:1"
       d="m 15.178571,1028.0764 c -0.119047,-0.089 -0.22794,-0.194 -0.357142,-0.2678 -0.08172,-0.047 -0.181352,-0.052 -0.267858,-0.089 -0.244675,-0.1049 -0.46961,-0.2523 -0.714285,-0.3571 -0.08651,-0.037 -0.179734,-0.056 -0.267857,-0.089 -0.35979,-0.135 -0.444509,-0.208 -0.803572,-0.2679 -0.05871,-0.01 -0.119047,0 -0.178571,0 -0.238095,0 -0.476191,0 -0.714286,0 -0.178571,0 -0.357143,0 -0.535714,0 -0.05952,0 -0.119048,0 -0.178572,0 -0.05952,0 -0.120825,-0.014 -0.178571,0 -0.06456,0.016 -0.119048,0.059 -0.178572,0.089 -0.08929,0.03 -0.175569,0.071 -0.267857,0.089 -0.05837,0.012 -0.120203,-0.012 -0.178571,0 -0.251792,0.05 -0.51661,0.199 -0.7142858,0.3571 -0.065733,0.053 -0.1139031,0.1247 -0.1785715,0.1786 -0.1143186,0.095 -0.2409421,0.1749 -0.3571428,0.2679 -0.1314661,0.1051 -0.2380953,0.2381 -0.3571429,0.3571 -0.029762,0.03 -0.064032,0.056 -0.089286,0.089 -0.6640495,0.8854 0.1476052,-0.1768 -0.2678571,0.4464 -0.046694,0.07 -0.1318771,0.1086 -0.1785715,0.1786 -0.196711,0.045 -0.047196,0.1837 -0.089286,0.2679 -0.018823,0.038 -0.064032,0.056 -0.089286,0.089 -0.064385,0.086 -0.1305818,0.1719 -0.1785714,0.2679 -0.01331,0.027 0.00941,0.061 0,0.089 -0.1847353,0.5542 0.00722,-0.2968 -0.1785715,0.4464 -0.060766,0.2431 0.2015697,-0.1276 -0.089286,0.3571 -0.1524738,0.2542 -0.1987596,0.081 -0.2678571,0.3572 -0.014437,0.058 0.018823,0.1221 0,0.1786 -0.01331,0.04 -0.059524,0.06 -0.089286,0.089 -0.029762,0.089 -0.070828,0.1756 -0.089286,0.2679 -0.011674,0.058 0.02662,0.1253 0,0.1786 -0.037646,0.075 -0.1280638,0.1112 -0.1785715,0.1785 -0.1025938,0.1368 -0.089284,0.1427 -0.089284,0.2679 0,0.03 -0.01331,0.063 0,0.089 0.023843,0.048 0.2208514,0.2208 0.2678572,0.2679"
       id="path3594"
       inkscape:connector-curvature="0" />
    <path
       style="fill:none;fill-rule:evenodd;stroke:#000000;stroke-width:1px;stroke-linecap:butt;stroke-linejoin:miter;stroke-opacity:1"
       d="m 15.982143,1031.1122 c -0.178572,-0.03 -0.355423,-0.073 -0.535714,-0.089 -0.148199,-0.014 -0.297619,0 -0.446429,0 -0.208333,0 -0.417941,-0.023 -0.625,0 -0.121961,0.014 -0.238095,0.06 -0.357143,0.089 -0.119047,0.03 -0.242244,0.046 -0.357143,0.089 -0.626131,0.2347 -0.106913,0.098 -0.625,0.3571 -0.08418,0.042 -0.180473,0.054 -0.267857,0.089 -0.06179,0.025 -0.119047,0.06 -0.178571,0.089 -0.119048,0.06 -0.246398,0.1047 -0.357143,0.1785 -0.07004,0.047 -0.106388,0.1353 -0.178572,0.1786 -0.0807,0.048 -0.183677,0.047 -0.267857,0.089 -0.03765,0.019 -0.05952,0.059 -0.08929,0.089 -0.05952,0.06 -0.119048,0.119 -0.178572,0.1785 -0.05952,0.06 -0.119047,0.1191 -0.178571,0.1786 -0.02976,0.03 -0.07598,0.049 -0.08929,0.089 -0.01882,0.056 0.01882,0.1221 0,0.1786 -0.01331,0.04 -0.06403,0.056 -0.08929,0.089 -0.01806,0.024 -0.253019,0.3574 -0.267857,0.4464 -0.01957,0.1174 0.01957,0.2397 0,0.3571 -0.01094,0.066 -0.06824,0.1155 -0.08929,0.1786 -0.07761,0.2328 -0.100961,0.4815 -0.178571,0.7143 -0.02105,0.063 -0.05952,0.119 -0.08929,0.1786 -0.02976,0.119 -0.05557,0.2391 -0.08929,0.3571 -0.02586,0.091 -0.07083,0.1756 -0.08929,0.2679 -0.01167,0.058 0,0.119 0,0.1785 0,0.2679 0,0.5358 0,0.8036 0,0.1191 0,0.2381 0,0.3572 0,0.03 0,0.06 0,0.089 0,0.03 -0.01331,0.063 0,0.089 0.01882,0.038 0.05952,0.059 0.08929,0.089"
       id="path3596"
       inkscape:connector-curvature="0" />
    <path
       style="fill:none;fill-rule:evenodd;stroke:#000000;stroke-width:1px;stroke-linecap:butt;stroke-linejoin:miter;stroke-opacity:1"
       d="m 50.535714,1026.38 c 0.208334,0.03 0.416667,0.059 0.625,0.089 0.238096,0 0.478279,-0.032 0.714286,0 0.214769,0.029 0.412538,0.1361 0.625,0.1786 0.235289,0.047 0.489615,0.01 0.714286,0.089 0.262896,0.099 0.456214,0.3358 0.714286,0.4464 0.166397,0.071 0.362685,0.036 0.535714,0.089 0.214306,0.066 1.191961,0.5268 1.339286,0.625 0.140083,0.093 0.238095,0.2381 0.357142,0.3571 0.119048,0.1191 0.238096,0.2381 0.357143,0.3572 0.238096,0.2381 0.476191,0.4762 0.714286,0.7142 0.14881,0.1489 0.311703,0.2848 0.446429,0.4465 0.09526,0.1143 0.185312,0.2333 0.267857,0.3571 0.07383,0.1108 0.09871,0.2507 0.178571,0.3572 0.05051,0.067 0.125985,0.1128 0.178572,0.1785 0.442699,0.5534 -0.01033,0.029 0.267857,0.4465 0.08254,0.1238 0.185312,0.2333 0.267857,0.3571 0.104695,0.157 0.105972,0.2649 0.178571,0.4464 0.04943,0.1236 0.12914,0.2336 0.178572,0.3572 0.03495,0.087 0.05952,0.1785 0.08928,0.2678 0.02976,0.089 0.07598,0.1747 0.08929,0.2679 0.01684,0.1178 0,0.2381 0,0.3571 0,0.3572 0,0.7143 0,1.0715 0,0.089 0,0.1785 0,0.2678 0,0.059 -0.01167,0.1202 0,0.1786 0.01846,0.092 0.06646,0.1765 0.08929,0.2678 0.01444,0.058 0,0.1191 0,0.1786"
       id="path3598"
       inkscape:connector-curvature="0" />
    <path
       style="fill:none;fill-rule:evenodd;stroke:#000000;stroke-width:1px;stroke-linecap:butt;stroke-linejoin:miter;stroke-opacity:1"
       d="m 48.303572,1029.0586 c 0.119047,-0.06 0.229164,-0.142 0.357142,-0.1786 0.114468,-0.033 0.238096,0 0.357143,0 0.05952,0 0.122102,-0.019 0.178572,0 0.126269,0.042 0.248835,0.1012 0.357143,0.1786 0.102749,0.073 0.164413,0.1954 0.267857,0.2678 1.527371,1.0692 -0.215088,-0.3175 1.160714,0.7143 0.185958,0.1395 0.349756,0.307 0.535714,0.4465 0.372507,0.2793 0.653845,0.3859 0.982143,0.7142 0.164366,0.1644 0.299234,0.3559 0.446429,0.5358 0.120675,0.1475 0.278284,0.2729 0.357143,0.4464 0.07491,0.1648 0.0284,0.3652 0.08928,0.5357 0.08953,0.2507 0.238096,0.4762 0.357143,0.7143 0.05952,0.119 0.113933,0.2408 0.178572,0.3571 0.08428,0.1517 0.196045,0.2885 0.267857,0.4465 0.07789,0.1713 0.119047,0.3571 0.178571,0.5357 0.05952,0.1785 0.129045,0.3541 0.178572,0.5357 0.03993,0.1464 0.04568,0.3011 0.08928,0.4464 0.04605,0.1535 0.122296,0.2964 0.178572,0.4464 0.02976,0.089 0.05952,0.1786 0.08928,0.2679 0,0.03 -0.0072,0.06 0,0.089 0.02283,0.091 0.06646,0.1765 0.08929,0.2679 0.0072,0.029 0,0.06 0,0.089 0,0.1191 0,0.2381 0,0.3572 0,0.3274 0,0.6547 0,0.9821 0,0.089 0,0.1786 0,0.2679 0,0.06 -0.01882,0.1221 0,0.1785 0.01331,0.04 0.07598,0.049 0.08929,0.089 0.01882,0.056 0,0.1191 0,0.1786 0,0.03 0.02105,0.068 0,0.089 -0.183438,0.1834 -0.270114,0.052 -0.446429,-0.089 -0.06573,-0.053 -0.119047,-0.1191 -0.178571,-0.1786"
       id="path3600"
       inkscape:connector-curvature="0" />
    <path
       style="fill:none;fill-rule:evenodd;stroke:#000000;stroke-width:1px;stroke-linecap:butt;stroke-linejoin:miter;stroke-opacity:1"
       d="m 46.428572,1030.3086 c 0.706164,0.3531 0.379814,0.1431 0.982142,0.625 0.14881,0.119 0.317657,0.2167 0.446429,0.3571 0.201109,0.2194 0.357143,0.4762 0.535714,0.7143 0.357143,0.4762 0.714286,0.9524 1.071429,1.4286 0.178571,0.2381 0.348038,0.4833 0.535714,0.7143 0.199503,0.2455 0.437908,0.4591 0.625,0.7143 0.141897,0.1935 0.233691,0.4192 0.357143,0.625 1.223935,1.9583 -0.282523,-0.5023 0.803571,1.4285 0.137653,0.2447 0.28661,0.4835 0.446429,0.7143 0.108474,0.1567 0.265888,0.2791 0.357143,0.4464 0.09013,0.1653 0.119047,0.3572 0.178571,0.5358 0.05952,0.1785 0.141657,0.3511 0.178572,0.5357 0.04669,0.2334 -0.06541,0.4853 0,0.7143 0.02948,0.1031 0.130582,0.1718 0.178571,0.2678 0.01331,0.027 0,0.059 0,0.089 0,0.06 0,0.1191 0,0.1786 0,0.031 0.01205,0.6781 0,0.7143 -0.01331,0.04 -0.05952,0.06 -0.08929,0.089"
       id="path3602"
       inkscape:connector-curvature="0" />
  </g>
</svg>
