<?xml version="1.0" encoding="UTF-8" standalone="no"?>
<!-- Created with Inkscape (http://www.inkscape.org/) -->

<svg
   xmlns:dc="http://purl.org/dc/elements/1.1/"
   xmlns:cc="http://creativecommons.org/ns#"
   xmlns:rdf="http://www.w3.org/1999/02/22-rdf-syntax-ns#"
   xmlns:svg="http://www.w3.org/2000/svg"
   xmlns="http://www.w3.org/2000/svg"
   xmlns:sodipodi="http://sodipodi.sourceforge.net/DTD/sodipodi-0.dtd"
   xmlns:inkscape="http://www.inkscape.org/namespaces/inkscape"
   width="64"
   height="64"
   viewBox="0 0 64.000001 64.000001"
   id="svg2"
   version="1.1"
   inkscape:version="0.91 r13725"
   inkscape:export-filename="/home/oserkin/zwork/DeepLearning/deep_learning_workshop_tasks/commonlearningdata/cartooncats/1_cat_19.png"
   inkscape:export-xdpi="90"
   inkscape:export-ydpi="90"
   sodipodi:docname="1_cat_19.svg">
  <defs
     id="defs4" />
  <sodipodi:namedview
     id="base"
     pagecolor="#ffffff"
     bordercolor="#666666"
     borderopacity="1.0"
     inkscape:pageopacity="0.0"
     inkscape:pageshadow="2"
     inkscape:zoom="11.2"
     inkscape:cx="30.481924"
     inkscape:cy="29.606808"
     inkscape:document-units="px"
     inkscape:current-layer="layer1"
     showgrid="false"
     units="px"
     inkscape:window-width="1855"
     inkscape:window-height="1056"
     inkscape:window-x="1985"
     inkscape:window-y="24"
     inkscape:window-maximized="1" />
  <metadata
     id="metadata7">
    <rdf:RDF>
      <cc:Work
         rdf:about="">
        <dc:format>image/svg+xml</dc:format>
        <dc:type
           rdf:resource="http://purl.org/dc/dcmitype/StillImage" />
        <dc:title></dc:title>
      </cc:Work>
    </rdf:RDF>
  </metadata>
  <g
     inkscape:label="Layer 1"
     inkscape:groupmode="layer"
     id="layer1"
     transform="translate(0,-988.36216)">
    <path
       style="fill:none;fill-rule:evenodd;stroke:#000000;stroke-width:1px;stroke-linecap:butt;stroke-linejoin:miter;stroke-opacity:1"
       d="m 22.589286,1006.6479 c 0.08929,-0.1191 0.178571,-0.2381 0.267857,-0.3572 0.02976,-0.06 0.04936,-0.1253 0.08929,-0.1785 0.05051,-0.067 0.119047,-0.1191 0.178571,-0.1786 0.02976,-0.03 0.05427,-0.066 0.08929,-0.089 0.05537,-0.037 0.125331,-0.049 0.178571,-0.089 0.234242,-0.1757 0.13429,-0.2323 0.446429,-0.3571 0.05527,-0.022 0.122102,0.019 0.178571,0 0.03993,-0.013 0.05164,-0.071 0.08929,-0.089 0.08418,-0.042 0.183678,-0.047 0.267857,-0.089 0.09598,-0.048 0.171878,-0.1306 0.267857,-0.1786 0.02662,-0.013 0.0601,0.01 0.08929,0 0.119048,-0.03 0.238095,-0.06 0.357143,-0.089 0.08929,0 0.179786,0.015 0.267857,0 0.452597,-0.075 0.09498,-0.091 0.535714,-0.2678 0.05527,-0.022 0.119858,0.01 0.178572,0 0.121041,-0.02 0.235664,-0.072 0.357142,-0.089 0.147314,-0.021 0.299644,0.024 0.446429,0 0.121042,-0.02 0.236101,-0.069 0.357143,-0.089 0.05871,-0.01 0.119048,0 0.178571,0 0.08929,0 0.178572,0 0.267858,0 0.357142,0 0.714285,0 1.071428,0 0.446429,0 0.892857,0 1.339286,0 0.01503,0 0.60721,-0.01 0.625,0 0.07529,0.038 0.119047,0.119 0.178571,0.1786 0.02976,0.03 0.05021,0.074 0.08929,0.089 0.113935,0.046 0.240728,0.051 0.357143,0.089 0.06313,0.021 0.119047,0.06 0.178571,0.089 0.05952,0.03 0.123199,0.052 0.178572,0.089 0.03502,0.023 0.05164,0.071 0.08929,0.089 0.02662,0.013 0.06041,-0.01 0.08929,0 0.0913,0.023 0.183678,0.047 0.267857,0.089 0.03765,0.019 0.05952,0.06 0.08929,0.089 0.02976,0.03 0.05952,0.06 0.08929,0.089 0.05718,0.057 0.301439,0.2736 0.357143,0.3571 0.196711,0.045 0.0472,0.1837 0.08928,0.2679 0.01185,0.024 0.244151,0.256 0.267857,0.2678 0.02662,0.013 0.06267,-0.013 0.08929,0 0.107143,0.054 0.160714,0.2143 0.267857,0.2679 0.02662,0.013 0.06267,-0.013 0.08929,0 0.03765,0.019 0.05164,0.07 0.08929,0.089 0.02662,0.013 0.05952,0 0.08928,0 0.05952,0 0.119048,0 0.178572,0"
       id="path4101"
       inkscape:connector-curvature="0" />
    <path
       style="fill:none;fill-rule:evenodd;stroke:#000000;stroke-width:1px;stroke-linecap:butt;stroke-linejoin:miter;stroke-opacity:1"
       d="m 22.053571,1005.4872 c -0.119047,-0.03 -0.235664,-0.072 -0.357142,-0.089 -0.131513,-0.019 -0.305969,0 -0.446429,0 -0.357143,0 -0.714286,0 -1.071429,0 -0.148809,0 -0.297619,0 -0.446428,0 -0.02976,0 -0.06105,0.01 -0.08929,0 -0.230346,-0.077 -0.399566,-0.267 -0.625,-0.3572 -0.08738,-0.035 -0.176552,-0.066 -0.267857,-0.089 -0.02887,-0.01 -0.06452,0.016 -0.08929,0 -0.07004,-0.047 -0.111228,-0.128 -0.178571,-0.1785 -0.05324,-0.04 -0.123199,-0.052 -0.178572,-0.089 -0.03502,-0.023 -0.05164,-0.07 -0.08929,-0.089 -0.08418,-0.042 -0.189549,-0.037 -0.267857,-0.089 -0.105063,-0.07 -0.178572,-0.1786 -0.267858,-0.2679 -0.02976,-0.03 -0.05164,-0.07 -0.08929,-0.089 -0.08418,-0.042 -0.187154,-0.041 -0.267857,-0.089 -0.144367,-0.087 -0.222456,-0.2562 -0.357143,-0.3572 -0.05322,-0.04 -0.123181,-0.052 -0.178554,-0.089 -0.309204,-0.2062 -0.543771,-0.4545 -0.803571,-0.7143 -0.112643,-0.1127 -0.263849,-0.2328 -0.357143,-0.3572 -0.03993,-0.053 -0.05237,-0.1232 -0.08929,-0.1785 -0.04669,-0.07 -0.131877,-0.1086 -0.178571,-0.1786 -0.03692,-0.055 -0.05237,-0.1232 -0.08929,-0.1786 -0.07578,-0.1136 -0.27463,-0.2471 -0.357143,-0.3571 -0.03993,-0.053 -0.04936,-0.1254 -0.08929,-0.1786 -0.05051,-0.067 -0.119048,-0.119 -0.178572,-0.1786 -0.05952,-0.06 -0.119047,-0.119 -0.178571,-0.1785 -0.05718,-0.057 -0.273588,-0.3015 -0.357143,-0.3572 -0.110745,-0.074 -0.246398,-0.1047 -0.357143,-0.1786 -0.204313,-0.1362 0.05583,-0.071 -0.267857,-0.1785 -0.02824,-0.01 -0.06452,0.016 -0.08929,0 -0.07004,-0.047 -0.103279,-0.141 -0.178571,-0.1786 -0.05324,-0.027 -0.122102,0.019 -0.178572,0 -0.03993,-0.013 -0.05952,-0.059 -0.08929,-0.089 -0.05952,-0.03 -0.114009,-0.073 -0.178572,-0.089 -0.05775,-0.014 -0.119047,0 -0.178571,0 -0.05952,-0.03 -0.115437,-0.0682 -0.178572,-0.0893 -0.02823,-0.009 -0.06452,0.0165 -0.08929,0 -0.07004,-0.0467 -0.10853,-0.13187 -0.178572,-0.17857 -0.02476,-0.0165 -0.05952,0 -0.08929,0 -0.05952,0 -0.120824,0.0144 -0.178571,0 -0.06456,-0.0161 -0.114009,-0.0732 -0.178571,-0.0893 -0.05775,-0.0144 -0.119048,0 -0.178572,0 -0.05952,-0.0298 -0.115437,-0.0682 -0.178571,-0.0893 -0.09488,-0.0316 -0.262267,0.0316 -0.357143,0 -0.06314,-0.021 -0.115437,-0.0682 -0.178572,-0.0893 -0.02823,-0.009 -0.06452,0.0165 -0.08929,0 -0.07004,-0.0467 -0.09691,-0.15815 -0.178572,-0.17857 -0.08649,-0.0216 -0.213562,0.12428 -0.267857,0.17857 -0.05952,0.0595 -0.119047,0.11905 -0.178571,0.17857 -0.02976,0.0298 -0.06594,0.0543 -0.08929,0.0893 -0.4154623,0.6232 0.396192,-0.43897 -0.2678571,0.4464 -0.025254,0.034 -0.065939,0.054 -0.089286,0.089 -0.1107453,0.1661 -0.1651386,0.3645 -0.2678572,0.5357 -0.021655,0.036 -0.075976,0.049 -0.089286,0.089 -0.018823,0.056 0.014437,0.1208 0,0.1785 -0.016141,0.065 -0.073145,0.114 -0.089286,0.1786 -0.014437,0.058 0.014437,0.1208 0,0.1786 -0.016141,0.065 -0.073145,0.114 -0.089286,0.1786 -0.014437,0.058 0.022107,0.1233 0,0.1785 -0.039853,0.1 -0.1363007,0.1692 -0.1785714,0.2679 -0.3639716,0.8492 -0.024415,0.1221 -0.089286,0.4464 -0.024028,0.1204 -0.069075,0.2361 -0.089248,0.3572 -0.00979,0.059 0.011674,0.1202 0,0.1785 -0.078015,0.3901 -0.1226583,0.1894 -0.2678571,0.625 -0.089286,0.2679 0.044643,0.089 0,0.2679 -0.022826,0.091 -0.070828,0.1756 -0.089286,0.2679 -0.011674,0.058 0,0.119 0,0.1785 0,0.1191 0,0.2381 0,0.3572 0,0.3571 0,0.7143 0,1.0714 0,0.119 0,0.2381 0,0.3571 0,0.089 -0.012627,0.1795 0,0.2679 0.039874,0.2791 0.1058846,0.3706 0.1785714,0.625 0.033711,0.118 0.034407,0.2474 0.089286,0.3571 0.027726,0.055 0.3265548,0.3828 0.3571429,0.5358 0.01751,0.087 -0.01751,0.1803 0,0.2678 0.013051,0.065 0.076234,0.1133 0.089286,0.1786 0.01751,0.088 -0.01751,0.1803 0,0.2678 0.013051,0.065 0.06457,0.1168 0.089286,0.1786 0.034954,0.087 0.040864,0.1872 0.089286,0.2679 0.04331,0.072 0.1352615,0.1064 0.1785714,0.1785 0.048422,0.081 0.047196,0.1837 0.089286,0.2679 0.018823,0.038 0.064032,0.056 0.089286,0.089 0.064385,0.086 0.1233618,0.1758 0.1785714,0.2679 0.102416,0.1706 0.1654412,0.365 0.2678567,0.5357 0.436994,0.7283 -0.0634,-0.1143 0.357143,0.4464 0.03993,0.053 0.05952,0.119 0.08929,0.1786 0.08929,0.119 0.174897,0.2409 0.267857,0.3571 0.02629,0.033 0.06403,0.056 0.08929,0.089 0.06439,0.086 0.111537,0.1841 0.178572,0.2679 0.05259,0.066 0.119047,0.119 0.178571,0.1785 0.02976,0.03 0.07046,0.052 0.08929,0.089 0.04209,0.084 0.03049,0.1944 0.08929,0.2679 0.167479,0.2093 0.268471,0.1344 0.446429,0.2678 0.06734,0.051 0.119048,0.1191 0.178571,0.1786 0.02976,0.03 0.05164,0.071 0.08929,0.089 0.02662,0.013 0.05952,0 0.08929,0 0.05952,0.03 0.125332,0.049 0.178571,0.089 0.101016,0.076 0.162795,0.1978 0.267857,0.2678 0.148682,0.099 0.397791,0.1645 0.535715,0.2679 0.06734,0.05 0.119047,0.119 0.178571,0.1786 0.02976,0.03 0.05164,0.07 0.08929,0.089 0.08418,0.042 0.187154,0.041 0.267857,0.089 0.07218,0.043 0.119048,0.1191 0.178571,0.1786 0.02976,0.03 0.04936,0.076 0.08929,0.089 0.05647,0.019 0.122102,-0.019 0.178572,0 0.03993,0.013 0.05164,0.07 0.08929,0.089 0.02662,0.013 0.06267,-0.013 0.08929,0 0.03765,0.019 0.05952,0.059 0.08929,0.089 0.05952,0.059 0.111228,0.1281 0.178571,0.1786 0.05324,0.04 0.119048,0.06 0.178572,0.089 0.05952,0.03 0.115437,0.068 0.178571,0.089 0.02824,0.01 0.06105,-0.01 0.08929,0 0.06313,0.021 0.119047,0.06 0.178571,0.089 0.05952,0.03 0.123199,0.052 0.178572,0.089 0.03502,0.023 0.04936,0.076 0.08929,0.089 0.05647,0.019 0.123305,-0.022 0.178572,0 0.09963,0.04 0.171878,0.1306 0.267857,0.1786 0.539264,0.2696 0.0378,-0.013 0.446428,0.089 0.144146,0.036 0.177097,0.088 0.267858,0.1785 0.02976,0.03 0.05164,0.07 0.08929,0.089 0.02662,0.013 0.06105,-0.01 0.08929,0 0.06313,0.021 0.115437,0.068 0.178571,0.089 0.0847,0.028 0.183154,-0.028 0.267858,0 0.03993,0.013 0.05164,0.071 0.08929,0.089 0.02662,0.013 0.06267,-0.013 0.08929,0 0.07529,0.038 0.103279,0.1409 0.178571,0.1786 0.07143,0.036 0.196429,-0.036 0.267858,0 0.03765,0.019 0.05952,0.06 0.08929,0.089 -0.276449,0.1688 -0.488699,0.4029 -0.714361,0.6286 -0.05952,0.06 -0.128064,0.1112 -0.178572,0.1786 -0.03993,0.053 -0.05237,0.1232 -0.08929,0.1785 -0.121457,0.1822 -0.05711,0 -0.178571,0.1786 -0.03692,0.055 -0.05237,0.1232 -0.08929,0.1786 -0.02335,0.035 -0.07597,0.049 -0.08929,0.089 -0.01882,0.056 0,0.119 0,0.1785 -0.05952,0.089 -0.136301,0.1693 -0.178572,0.2679 -0.322071,0.7515 0.06433,0.011 -0.08929,0.625 -0.01021,0.041 -0.07046,0.052 -0.08929,0.089 -0.01331,0.027 0,0.059 0,0.089 0,0.03 0,0.059 0,0.089 0,0.2084 0,0.4167 0,0.625 0,0.1786 0,0.3572 0,0.5358 0,0.03 0,0.059 0,0.089 0,0.03 -0.01786,0.065 0,0.089 0.07576,0.101 0.192095,0.1669 0.267857,0.2679 0.01786,0.024 -0.0058,0.06 0,0.089 0.02407,0.1203 0.04371,0.2432 0.08929,0.3571 0.01563,0.039 0.06403,0.056 0.08929,0.089 0.06439,0.086 0.123362,0.1758 0.178572,0.2679 0.03424,0.057 0.05952,0.119 0.08929,0.1785 0.02976,0.06 0.07315,0.114 0.08929,0.1786 0.01444,0.058 -0.01882,0.1221 0,0.1786 0.01331,0.04 0.06403,0.056 0.08929,0.089 0.06438,0.086 0.130582,0.1718 0.178571,0.2678 0.01359,0.027 0,0.2277 0,0.2679 0,0.1652 0.04328,0.4031 -0.08929,0.5357 -0.02254,0.023 -0.358359,0.2502 -0.446429,0.2678 -0.08755,0.018 -0.181237,-0.022 -0.267857,0 -0.04083,0.01 -0.05427,0.066 -0.08929,0.089 -0.234046,0.1561 -0.156031,0.033 -0.446428,0.1786 -0.0288,0.014 -0.433828,0.4275 -0.446429,0.4464 -0.01651,0.025 0,0.06 0,0.089 0,0.059 0,0.1191 0,0.1786 0,0.05 -0.01855,0.3537 0,0.4464 0.237425,1.1871 -0.04479,-3e-4 0.178571,0.4464 0.04209,0.084 0.03458,0.1913 0.08929,0.2679 0.09786,0.137 0.249362,0.2278 0.357143,0.3571 0.0426,0.051 0.04771,0.1267 0.08929,0.1786 0.07888,0.099 0.188977,0.1693 0.267857,0.2679 0.04157,0.052 0.04771,0.1266 0.08929,0.1785 0.490006,0.4901 0.07351,0.039 0.446428,0.5358 0.09164,0.1221 0.241725,0.1755 0.357143,0.2678 0.06573,0.053 0.103279,0.1409 0.178571,0.1786 0.05324,0.027 0.120204,-0.012 0.178572,0 0.103713,0.021 0.344388,0.1105 0.446428,0.1786 0.03502,0.023 0.05952,0.06 0.08929,0.089 0.02976,0.03 0.07046,0.052 0.08929,0.089 0.01986,0.04 -0.01361,0.3163 0,0.3572 0.01331,0.04 0.06403,0.056 0.08929,0.089 0.06438,0.086 0.114186,0.182 0.178571,0.2678 0.02525,0.034 0.06594,0.054 0.08929,0.089 0.03691,0.055 0.04771,0.1266 0.08929,0.1786 0.105173,0.1314 0.238096,0.2381 0.357143,0.3571 0.02976,0.03 0.05952,0.059 0.08929,0.089 0.02976,0.03 0.07046,0.052 0.08929,0.089 0.01331,0.027 -0.01651,0.064 0,0.089 0.04402,0.066 0.320418,0.2837 0.357143,0.3571 0.01331,0.027 -0.01331,0.063 0,0.089 0.01597,0.032 0.320012,0.3324 0.357142,0.3571 0.05537,0.037 0.125332,0.049 0.178572,0.089 0.06734,0.051 0.103279,0.141 0.178571,0.1786 0.05324,0.027 0.120825,-0.014 0.178572,0 0.184603,0.046 0.32123,0.2319 0.446428,0.3571 0.339034,0.1505 0.583829,0.4376 0.892825,0.6307 0.112868,0.071 0.244275,0.1081 0.357143,0.1786 0.126191,0.079 0.235234,0.1825 0.357143,0.2679 0.175821,0.123 0.362147,0.2309 0.535714,0.3571 0.154121,0.1121 0.284129,0.2573 0.446429,0.3572 0.22671,0.1395 0.487576,0.2176 0.714286,0.3571 0.1623,0.1 0.279841,0.2646 0.446428,0.3571 0.107269,0.06 0.244354,0.041 0.357143,0.089 0.157218,0.1048 0.274835,0.1993 0.446429,0.2679 0.08738,0.035 0.178571,0.059 0.267857,0.089 0.08929,0.03 0.175569,0.071 0.267857,0.089 0.05837,0.012 0.123305,-0.022 0.178571,0 0.09963,0.04 0.166056,0.1446 0.267858,0.1785 0.223214,0.074 0.248016,-0.05 0.446428,0 0.06456,0.016 0.114009,0.073 0.178572,0.089 0.08662,0.022 0.178571,0 0.267857,0 0.238095,0 0.47619,0 0.714286,0 0.267857,0 0.535714,0 0.803571,0 0.08929,0 0.179786,0.015 0.267857,0 0.09284,-0.016 0.177363,-0.063 0.267857,-0.089 0.11799,-0.034 0.243208,-0.044 0.357143,-0.089 0.340252,-0.1361 -0.270768,-0.071 0.267857,-0.1785 0.118312,-0.024 0.312342,0 0.446429,0 0.386905,0 0.773809,0 1.160714,0 1.093488,0 -0.263523,-0.038 0.625,0.089 0.117851,0.017 0.24165,-0.029 0.357143,0 0.129125,0.032 0.229657,0.1403 0.357143,0.1785 0.458,0.1374 0.957768,0.089 1.428571,0.089 0.267857,0 0.535715,0 0.803572,0 0.119047,0 0.240407,0.023 0.357143,0 0.102047,-0.02 0.401351,-0.2408 0.446428,-0.2678 0.05707,-0.034 0.131514,-0.042 0.178572,-0.089 0.07588,-0.076 0.102693,-0.192 0.178571,-0.2679 0.07588,-0.076 0.182011,-0.1142 0.267857,-0.1786 0.132905,-0.1 0.218965,-0.265 0.357143,-0.3571 0.02476,-0.016 0.06548,-0.018 0.08929,0 0.101015,0.076 0.178571,0.1786 0.267857,0.2679 0.119047,0.119 0.238095,0.2381 0.357143,0.3571 0.05952,0.06 0.119047,0.1191 0.178571,0.1786 0.02976,0.03 0.05164,0.07 0.08929,0.089 0.02715,0.014 0.295489,0 0.357143,0 0.178571,0 0.357143,0 0.535714,0 0.08929,0 0.179786,0.015 0.267857,0 0.345646,-0.058 0.257657,-0.1188 0.535714,-0.3572 0.112985,-0.097 0.23968,-0.1765 0.357143,-0.2678 0.11827,-0.092 0.519833,-0.4385 0.714286,-0.5358 0.539265,-0.2696 0.0378,0.013 0.446429,-0.089 0.161601,0.054 0.166055,-0.1447 0.267857,-0.1786 0.048,-0.016 0.281549,0 0.357143,0"
       id="path4103"
       inkscape:connector-curvature="0" />
    <path
       style="fill:none;fill-rule:evenodd;stroke:#000000;stroke-width:1px;stroke-linecap:butt;stroke-linejoin:miter;stroke-opacity:1"
       d="m 34.017857,1006.8264 c 0.14881,-0.119 0.30003,-0.2351 0.446429,-0.3571 0.153538,-0.1279 0.04328,-0.065 0.178571,-0.2679 0.04669,-0.07 0.119048,-0.119 0.178572,-0.1785 0.178571,-0.1786 0.357143,-0.3572 0.535714,-0.5357 0.02976,-0.03 0.06594,-0.054 0.08929,-0.089 0.03692,-0.055 0.04936,-0.1254 0.08928,-0.1786 0.05051,-0.067 0.119048,-0.119 0.178572,-0.1786 0.02976,-0.03 0.05164,-0.07 0.08929,-0.089 0.02662,-0.013 0.06452,0.016 0.08928,0 0.07004,-0.047 0.111228,-0.128 0.178572,-0.1785 0.260733,-0.1956 0.122824,0.044 0.357143,-0.2679 0.03993,-0.053 0.04223,-0.1315 0.08928,-0.1786 0.04706,-0.047 0.125332,-0.049 0.178572,-0.089 0.06734,-0.051 0.119047,-0.119 0.178571,-0.1785 0.119048,-0.1191 0.238095,-0.2381 0.357143,-0.3572 0.08929,-0.089 0.169258,-0.1889 0.267857,-0.2678 0.05197,-0.042 0.121506,-0.055 0.178572,-0.089 0.09201,-0.055 0.184063,-0.1115 0.267857,-0.1786 0.06573,-0.053 0.119047,-0.119 0.178571,-0.1785 0.02976,-0.03 0.05164,-0.071 0.08929,-0.089 0.08418,-0.042 0.183678,-0.047 0.267857,-0.089 0.03765,-0.019 0.05319,-0.068 0.08929,-0.089 0.114131,-0.068 0.243011,-0.1101 0.357143,-0.1786 0.03609,-0.022 0.05164,-0.07 0.08928,-0.089 0.511059,-0.2555 0.05635,0.055 0.446429,-0.1785 0.09202,-0.055 0.171878,-0.1306 0.267857,-0.1786 0.08418,-0.042 0.178571,-0.059 0.267857,-0.089 0.08929,-0.03 0.175569,-0.071 0.267857,-0.089 0.05837,-0.012 0.119048,0 0.178572,0 0.148809,-0.03 0.299203,-0.053 0.446428,-0.089 0.09131,-0.023 0.177363,-0.063 0.267857,-0.089 0.11799,-0.034 0.239153,-0.056 0.357143,-0.089 0.09049,-0.026 0.175023,-0.074 0.267857,-0.089 0.234856,-0.039 0.478584,0.034 0.714286,0 0.06588,-0.01 0.112927,-0.078 0.178572,-0.089 0.117427,-0.02 0.239014,0.015 0.357142,0 0.121764,-0.015 0.236101,-0.069 0.357143,-0.089 0.05871,-0.01 0.119048,0 0.178572,0 0.238095,0 0.47619,0 0.714285,0 0.595238,0 1.190477,0 1.785715,0 0.327381,0 0.654762,0 0.982143,0 0.08928,0 0.178571,0 0.267857,0 0.05952,0 0.120825,0.014 0.178571,0 0.21612,-0.054 0.179257,-0.1345 0.357143,-0.2679 0.05324,-0.04 0.123199,-0.052 0.178571,-0.089 0.123817,-0.082 0.236052,-0.1813 0.357143,-0.2678 0.08732,-0.062 0.185421,-0.1099 0.267857,-0.1786 0.097,-0.081 0.169258,-0.189 0.267858,-0.2679 0.634659,-0.50768 -0.350159,0.4395 0.357142,-0.2678 0.267858,-0.26787 0.535715,-0.53573 0.803572,-0.80358 0.02976,-0.0298 0.05952,-0.0595 0.08929,-0.0893 0.05952,-0.0595 0.151951,-0.0987 0.178571,-0.17858 0.01331,-0.0399 -0.05164,-0.1081 -0.08929,-0.0893 -0.05952,0.0298 -0.05237,0.1232 -0.08928,0.17858 -0.108913,0.16337 -0.113835,0.009 -0.178572,0.26785 -0.01444,0.0578 0.01167,0.12021 0,0.17857 -0.01846,0.0923 -0.07083,0.17557 -0.08929,0.26786 -0.01167,0.0584 0.01167,0.12021 0,0.17857 -0.01846,0.0923 -0.07083,0.17561 -0.08928,0.26791 -0.01167,0.058 0.02211,0.1233 0,0.1785 -0.03985,0.1 -0.138719,0.1682 -0.178572,0.2679 -0.02211,0.055 0,0.119 0,0.1786 0,0.119 0,0.238 0,0.3571 0,0.03 0.0072,0.06 0,0.089 -0.02283,0.091 -0.07083,0.1756 -0.08928,0.2678 -0.03307,0.1654 0.03307,0.4597 0,0.625 -0.0987,0.4935 -0.08929,0.1114 -0.08929,0.3572 0,0.4464 0,0.8928 0,1.3393 0,0.076 -0.01953,0.4869 0,0.5357 0.03985,0.1 0.130582,0.1719 0.178571,0.2678 0.01331,0.027 -0.0058,0.06 0,0.089 0.02407,0.1204 0.06522,0.2368 0.08929,0.3572 0.0058,0.029 -0.01651,0.064 0,0.089 0.04669,0.07 0.151952,0.099 0.178571,0.1785 0.03765,0.113 -0.0327,0.2427 0,0.3572 0.02948,0.1032 0.123362,0.1758 0.178572,0.2678 0.09853,0.1643 0.114689,0.2548 0.178571,0.4465 0.02976,0.089 0.0472,0.1836 0.08929,0.2678 0.04799,0.096 0.123362,0.1759 0.178571,0.2679 0.03424,0.057 0.05952,0.119 0.08929,0.1785 0.02976,0.06 0.07314,0.1141 0.08929,0.1786 0.01444,0.058 0,0.1191 0,0.1786 0.02976,0.059 0.07314,0.114 0.08929,0.1786 0.02887,0.1155 -0.04421,0.2466 0,0.3571 0.03985,0.1 0.138718,0.1682 0.178571,0.2679 0.02211,0.055 0,0.119 0,0.1785 0,0.089 -0.01751,0.1803 0,0.2679 0.01305,0.065 0.07314,0.114 0.08929,0.1786 0.01444,0.058 0,0.119 0,0.1785 0,0.06 0,0.1191 0,0.1786 0,0.3274 0,0.6548 0,0.9821 0,0.387 0,0.7739 0,1.1608 0,0.06 0,0.119 0,0.1785 0,0.089 0.02165,0.1813 0,0.2679 -0.01021,0.041 -0.07046,0.052 -0.08929,0.089 -0.01331,0.027 0.0094,0.061 0,0.089 -0.02105,0.063 -0.06824,0.1154 -0.08929,0.1785 -0.0094,0.028 0,0.06 0,0.089 0,0.1522 0.0094,0.1598 -0.08928,0.3572 -0.01882,0.038 -0.05952,0.06 -0.08929,0.089 -0.05952,0.06 -0.135262,0.1064 -0.178572,0.1785 -0.272237,0.063 -0.03441,0.2474 -0.08928,0.3572 -0.01882,0.038 -0.06594,0.054 -0.08929,0.089 -0.03692,0.055 -0.05237,0.1232 -0.08929,0.1785 -0.05136,0.077 -0.198117,0.1982 -0.267857,0.2679 -0.02976,0.03 -0.07046,0.052 -0.08929,0.089 -0.02662,0.053 0.02662,0.1253 0,0.1786 -0.05118,0.1023 -0.186295,0.1242 -0.267857,0.1785 -0.07004,0.047 -0.119047,0.1191 -0.178571,0.1786 -0.08929,0.089 -0.178572,0.1786 -0.267857,0.2679 -0.05952,0.059 -0.128064,0.1112 -0.178572,0.1785 -0.03993,0.053 -0.05237,0.1232 -0.08928,0.1786 -0.02335,0.035 -0.05952,0.059 -0.08929,0.089 -0.02976,0.03 -0.05427,0.066 -0.08929,0.089 -0.05537,0.037 -0.123199,0.052 -0.178571,0.089 -0.105063,0.07 -0.162795,0.1978 -0.267857,0.2678 -0.02476,0.016 -0.06267,-0.013 -0.08929,0 -0.03765,0.019 -0.05164,0.071 -0.08929,0.089 -0.08418,0.042 -0.183678,0.047 -0.267857,0.089 -0.04135,0.021 -0.30463,0.3046 -0.357143,0.3572"
       id="path4105"
       inkscape:connector-curvature="0" />
    <path
       style="fill:none;fill-rule:evenodd;stroke:#000000;stroke-width:1px;stroke-linecap:butt;stroke-linejoin:miter;stroke-opacity:1"
       d="m 38.660714,1010.2193 c 0.02976,-0.119 0.04095,-0.2443 0.08929,-0.3571 0.252652,-0.5896 0.08279,-0.08 0.267857,-0.3572 0.03692,-0.055 0.05237,-0.1232 0.08929,-0.1786 0.162986,-0.2444 0.333531,-0.4228 0.535714,-0.625 0.08929,-0.089 0.162795,-0.1978 0.267857,-0.2678 0.07831,-0.052 0.187154,-0.041 0.267858,-0.089 0.07218,-0.043 0.119047,-0.1191 0.178571,-0.1786 0.02976,-0.03 0.05164,-0.07 0.08929,-0.089 0.08418,-0.042 0.178571,-0.06 0.267857,-0.089 0.08929,-0.03 0.176552,-0.066 0.267857,-0.089 0.02887,-0.01 0.06267,0.013 0.08929,0 0.20376,-0.1019 0.24597,-0.2011 0.446428,-0.2679 0.05647,-0.019 0.120825,0.014 0.178572,0 0.0913,-0.023 0.175569,-0.071 0.267857,-0.089 0.08755,-0.018 0.181237,0.022 0.267857,0 0.0913,-0.023 0.175569,-0.071 0.267857,-0.089 0.05837,-0.012 0.119048,0 0.178572,0 0.08709,0 0.641093,0.015 0.714285,0 0.130515,-0.026 0.230874,-0.1365 0.357143,-0.1786 0.04489,-0.015 0.512393,0 0.535714,0 0.298848,0 0.615612,-0.049 0.892858,0.089 0.03765,0.019 0.05952,0.06 0.08928,0.089 0.02976,0.03 0.07046,0.052 0.08929,0.089 0.05952,0.1191 -0.104741,0.2464 -0.178571,0.3572 -0.119048,0.1785 -0.219749,0.3708 -0.357143,0.5357 -0.656376,0.7876 0.194013,-0.4119 -0.625,0.7143 -0.126231,0.1735 -0.230912,0.3621 -0.357143,0.5357 -0.112088,0.1541 -0.271918,0.276 -0.357143,0.4464 -0.06787,0.1357 -0.0413,0.3025 -0.08929,0.4464 -0.01331,0.04 -0.07046,0.052 -0.08928,0.089 -0.04209,0.084 -0.06646,0.1766 -0.08929,0.2679 -0.0072,0.029 0.01651,0.065 0,0.089 -0.04669,0.07 -0.140925,0.1032 -0.178572,0.1785 -0.03993,0.08 0,0.1786 0,0.2679 0,0.1786 0,0.3571 0,0.5357 0,0.1786 0,0.3572 0,0.5357 0,0.013 -0.01806,0.3742 0,0.4465 0.08215,0.3286 0.144085,0.3226 0.357143,0.5357 0.05952,0.059 0.10853,0.1318 0.178572,0.1785 0.02476,0.017 0.08928,-0.03 0.08928,0 0,0.03 -0.05952,0 -0.08928,0"
       id="path4107"
       inkscape:connector-curvature="0" />
    <path
       style="fill:none;fill-rule:evenodd;stroke:#000000;stroke-width:1px;stroke-linecap:butt;stroke-linejoin:miter;stroke-opacity:1"
       d="m 18.571429,1012.5407 c -0.01352,-0.076 -0.59452,0.04 -0.714286,0 -0.06313,-0.021 -0.119048,-0.06 -0.178572,-0.089 -0.119047,-0.06 -0.246397,-0.1047 -0.357142,-0.1785 -0.342207,-0.2282 -0.603999,-0.5147 -0.892858,-0.8036 -0.148809,-0.1488 -0.297619,-0.2976 -0.446428,-0.4464 -0.05952,-0.06 -0.124681,-0.1139 -0.178572,-0.1786 -0.09526,-0.1143 -0.171013,-0.2442 -0.267857,-0.3571 -0.08217,-0.096 -0.188977,-0.1693 -0.267857,-0.2679 -0.04157,-0.052 -0.05952,-0.119 -0.08929,-0.1786 -0.383093,-0.7662 0.02146,0.01 -0.357142,-0.625 -0.03424,-0.057 -0.06457,-0.1168 -0.08929,-0.1785 -0.03495,-0.087 -0.04086,-0.1872 -0.08929,-0.2679 -0.04331,-0.072 -0.119047,-0.119 -0.178571,-0.1786 -0.02976,-0.03 -0.07598,-0.049 -0.08929,-0.089 -0.01693,-0.051 0,-0.3623 0,-0.4464 0,-0.073 -0.01508,-0.5797 0,-0.625 0.01331,-0.04 0.05952,-0.059 0.08929,-0.089 0.02976,-0.03 0.05952,-0.06 0.08929,-0.089 0.02976,-0.03 0.04936,-0.076 0.08929,-0.089 0.05647,-0.019 0.119048,0 0.178572,0 0.317644,0 0.274097,-0.032 0.625,0.1786 0.03609,0.022 0.05021,0.074 0.08929,0.089 0.113935,0.046 0.240729,0.051 0.357143,0.089 0.06314,0.021 0.113314,0.076 0.178572,0.089 0.08755,0.018 0.190335,-0.044 0.267857,0 0.146176,0.084 0.238095,0.2381 0.357143,0.3571 0.296123,0.2961 -0.08418,-0.042 0.178571,0.089 0.09598,0.048 0.169226,0.1363 0.267857,0.1786 0.11279,0.048 0.240729,0.051 0.357143,0.089 0.06313,0.021 0.115437,0.068 0.178571,0.089 0.116415,0.039 0.247387,0.034 0.357143,0.089 0.07529,0.038 0.103279,0.1409 0.178572,0.1785 0.64706,0.3236 0.171119,0.034 0.446428,0.089 0.120329,0.024 0.236815,0.065 0.357143,0.089 0.223214,0.045 -0.08929,-0.089 0.267857,0 0.06456,0.016 0.115437,0.068 0.178572,0.089 0.267857,0.089 -0.178572,-0.1786 0.267857,0 0.09963,0.04 0.168224,0.1387 0.267857,0.1786 0.05527,0.022 0.119048,0 0.178571,0 0.05952,0 0.119048,0 0.178572,0 0.297619,0 0.595238,0 0.892857,0"
       id="path4109"
       inkscape:connector-curvature="0" />
    <path
       style="fill:none;fill-rule:evenodd;stroke:#000000;stroke-width:1px;stroke-linecap:butt;stroke-linejoin:miter;stroke-opacity:1"
       d="m 48.839286,1016.0229 c 0.06828,0.041 0.458105,0.2904 0.625,0.3571 0.102825,0.041 0.292969,0.05 0.357143,0.1786 0.01331,0.027 0.0072,0.06 0,0.089 -0.07727,0.3091 -0.05729,0.2358 -0.267857,0.4464 -0.14881,0.1488 -0.284758,0.3117 -0.446429,0.4464 -0.23719,0.1977 -0.589795,0.4113 -0.803571,0.625 -0.07588,0.076 -0.114187,0.182 -0.178572,0.2679 -0.238095,0.3175 0.119048,-0.3571 -0.357143,0.3571 -0.05221,0.078 -0.0472,0.1837 -0.08928,0.2679 -0.01882,0.038 -0.07046,0.052 -0.08929,0.089 -0.01331,0.027 0.0094,0.061 0,0.089 -0.02105,0.063 -0.05237,0.1232 -0.08929,0.1785 -0.02335,0.035 -0.07908,0.048 -0.08929,0.089 -0.0027,0.011 -0.01217,0.5763 0,0.625 0.107789,0.4312 0.04243,-0 0.178572,0.2679 0.04209,0.084 0.04086,0.1871 0.08929,0.2678 0.04331,0.072 0.125985,0.1129 0.178571,0.1786 0.06703,0.084 0.111537,0.1841 0.178571,0.2679 0.105173,0.1314 0.238096,0.2381 0.357143,0.3571 0.05952,0.06 0.119048,0.1191 0.178572,0.1786 0.05952,0.059 0.111228,0.1281 0.178571,0.1786 0.05324,0.04 0.123199,0.052 0.178572,0.089 0.03502,0.023 0.05952,0.06 0.08928,0.089 0.08929,0.089 0.188978,0.1693 0.267857,0.2679 0.04157,0.052 0.05237,0.1232 0.08929,0.1786 0.251129,0.3767 -0.15323,-0.4851 0.267857,0.3571 0.01331,0.027 0,0.06 0,0.089 0,0.03 0,0.059 0,0.089 0,0.1488 0,0.2976 0,0.4464 0,0.1191 0,0.2381 0,0.3572 0,0.059 0.0098,0.1198 0,0.1785 -0.04064,0.2439 -0.122187,0.5104 -0.267857,0.7143 -0.07339,0.1028 -0.178571,0.1786 -0.267857,0.2679 -0.02976,0.03 -0.06594,0.054 -0.08929,0.089 -0.07383,0.1108 -0.104741,0.2464 -0.178571,0.3572 -0.02335,0.035 -0.07598,0.049 -0.08929,0.089 -0.01882,0.056 0,0.119 0,0.1786 0,0.089 0,0.1785 0,0.2678 0,0.3572 0,0.7143 0,1.0714 0,0.1191 0,0.2381 0,0.3572 0,0.06 -0.01167,0.1202 0,0.1786 0.01846,0.092 0.06646,0.1765 0.08929,0.2678 0.0072,0.029 -0.01331,0.063 0,0.089 0.01882,0.038 0.07598,0.049 0.08929,0.089 0.01596,0.048 0,0.6466 0,0.7143 0,0.06 0.01356,0.5843 0,0.625 -0.172719,0.5181 -0.111968,0.2088 -0.357143,0.5357 -0.03993,0.053 -0.05237,0.1232 -0.08929,0.1786 -0.08255,0.1238 -0.185312,0.2333 -0.267857,0.3571 -0.03692,0.055 -0.05237,0.1232 -0.08929,0.1786 -0.02335,0.035 -0.06299,0.056 -0.08929,0.089 -0.09296,0.1162 -0.174896,0.241 -0.267857,0.3572 -0.05259,0.066 -0.131877,0.1085 -0.178571,0.1786 -0.03692,0.055 -0.05237,0.1232 -0.08929,0.1785 -0.02335,0.035 -0.07908,0.048 -0.08929,0.089 -0.02165,0.087 0,0.1786 0,0.2679 0,0.03 0,0.06 0,0.089 0,0.03 -0.01331,0.063 0,0.089 0.01882,0.038 0.08929,0.047 0.08929,0.089 0,0.042 -0.06594,0.054 -0.08929,0.089 -0.03692,0.055 -0.04223,0.1315 -0.08928,0.1786 -0.02105,0.021 -0.05952,0 -0.08929,0 -0.119048,0 -0.238823,-0.013 -0.357143,0 -0.150828,0.017 -0.295119,0.078 -0.446428,0.089 -0.237394,0.018 -0.476655,-0.015 -0.714286,0 -0.239481,0.015 -0.474752,0.075 -0.714286,0.089 -0.267395,0.016 -0.536921,-0.025 -0.803571,0 -3.416265,0.3253 1.423362,0.01 -2.232143,0.4464 -0.354599,0.043 -0.71552,-0.03 -1.071429,0 -0.193352,0.016 -1.823809,0.3134 -2.053571,0.3572 -0.298153,0.057 -0.591012,0.1468 -0.892857,0.1785 -0.266386,0.028 -0.535715,0 -0.803572,0 -0.446428,0 -0.892857,0 -1.339285,0"
       id="path4111"
       inkscape:connector-curvature="0" />
    <path
       style="fill:none;fill-rule:evenodd;stroke:#000000;stroke-width:1px;stroke-linecap:butt;stroke-linejoin:miter;stroke-opacity:1"
       d="m 23.75,1014.9514 c -0.148809,0.03 -0.30246,0.041 -0.446429,0.089 -0.07662,0.026 -0.164897,0.2269 -0.178571,0.2679 -0.0094,0.028 0.01331,0.063 0,0.089 -0.01882,0.038 -0.07046,0.052 -0.08929,0.089 -0.01331,0.027 0,0.059 0,0.089 -0.02976,0.059 -0.05237,0.1232 -0.08929,0.1785 -0.02335,0.035 -0.07598,0.049 -0.08929,0.089 -0.01205,0.036 0,0.6835 0,0.7143 0,0.1786 0,0.3572 0,0.5357 0,0.089 0,0.1786 0,0.2679 0,0.03 -0.0094,0.061 0,0.089 0.02105,0.063 0.05952,0.119 0.08929,0.1785 0.02976,0.06 0.05237,0.1232 0.08929,0.1786 0.148062,0.2221 0.02052,0.01 0.178572,0.089 0.0682,0.034 0.207397,0.2477 0.267857,0.2679 0.05647,0.019 0.125332,-0.027 0.178571,0 0.07529,0.038 0.119048,0.119 0.178572,0.1785 0.02976,0.03 0.04936,0.076 0.08929,0.089 0.05647,0.019 0.120825,-0.014 0.178572,0 0.06456,0.016 0.116782,0.065 0.178571,0.089 0.08738,0.035 0.187154,0.041 0.267857,0.089 0.07218,0.043 0.119048,0.1191 0.178572,0.1786 0.02976,0.03 0.04936,0.076 0.08929,0.089 0.05647,0.019 0.122102,-0.019 0.178571,0 0.03993,0.013 0.05427,0.066 0.08929,0.089 0.234046,0.156 0.156031,0.033 0.446428,0.1785 0.272283,0.1362 -0.163298,0.071 0.267857,0.1786 0.05775,0.014 0.119048,0 0.178572,0 0.178571,0 0.357143,0 0.535714,0 0.0477,0 0.420875,0.013 0.446429,0 0.03765,-0.019 0.05952,-0.059 0.08929,-0.089 0.02976,-0.03 0.05952,-0.06 0.08929,-0.089 0.114933,-0.1149 0.213408,-0.1938 0.267857,-0.3571 0.01611,-0.048 0,-0.3268 0,-0.3572 0,-0.059 0.01444,-0.1208 0,-0.1785 -0.01614,-0.065 -0.06824,-0.1155 -0.08929,-0.1786 -0.02047,-0.061 0.02634,-0.2152 0,-0.2679 -0.01882,-0.038 -0.07908,-0.048 -0.08929,-0.089 -0.02165,-0.087 0.01751,-0.1803 0,-0.2678 -0.01305,-0.065 -0.07315,-0.114 -0.08929,-0.1786 -0.01444,-0.058 0,-0.119 0,-0.1786 -0.02976,-0.059 -0.06824,-0.1154 -0.08929,-0.1785 -0.0094,-0.028 0,-0.06 0,-0.089 0,-0.1933 0.02662,-0.1833 -0.08929,-0.3572 -0.04669,-0.07 -0.119048,-0.119 -0.178572,-0.1785 -0.08929,-0.089 -0.178571,-0.1786 -0.267857,-0.2679 -0.02976,-0.03 -0.05427,-0.066 -0.08929,-0.089 -0.05537,-0.037 -0.119047,-0.059 -0.178571,-0.089 -0.119048,-0.059 -0.234805,-0.1261 -0.357143,-0.1785 -0.0865,-0.037 -0.176552,-0.067 -0.267857,-0.089 -0.02887,-0.01 -0.06267,0.013 -0.08929,0 -0.03765,-0.019 -0.05164,-0.071 -0.08929,-0.089 -0.02662,-0.013 -0.05952,0 -0.08929,0 -0.05952,0 -0.120825,0.014 -0.178572,0 -0.06456,-0.016 -0.115436,-0.068 -0.178571,-0.089 -0.02823,-0.01 -0.06165,0.011 -0.08929,0 -0.123579,-0.049 -0.238095,-0.1191 -0.357143,-0.1786 -0.05952,-0.03 -0.115436,-0.068 -0.178571,-0.089 -0.02823,-0.01 -0.06267,0.013 -0.08929,0 -0.03765,-0.019 -0.05164,-0.07 -0.08929,-0.089 -0.02662,-0.013 -0.0601,0.01 -0.08929,0 -0.120329,-0.024 -0.235379,-0.074 -0.357143,-0.089 -0.191664,-0.024 -0.424712,0 -0.625,0"
       id="path4113"
       inkscape:connector-curvature="0" />
    <path
       style="fill:none;fill-rule:evenodd;stroke:#000000;stroke-width:1px;stroke-linecap:butt;stroke-linejoin:miter;stroke-opacity:1"
       d="m 24.107143,1016.0229 c -0.05952,0.1488 -0.127889,0.2944 -0.178572,0.4464 -0.0112,0.034 -0.0025,0.4391 0,0.4464 0.01331,0.04 0.05952,0.06 0.08929,0.089 0.05952,0.059 0.119048,0.1191 0.178572,0.1786 0.169126,0.1691 0.315487,0.3363 0.535714,0.4464 0.08418,0.042 0.176552,0.067 0.267857,0.089 0.02887,0.01 0.06452,-0.016 0.08929,0 0.07004,0.047 0.103279,0.1409 0.178571,0.1786 0.07143,0.036 0.196429,-0.036 0.267857,0 0.03765,0.019 0.05164,0.07 0.08929,0.089 0.02505,0.012 0.332089,0.012 0.357143,0 0.03765,-0.019 0.07046,-0.052 0.08929,-0.089 0.01331,-0.027 0,-0.06 0,-0.089 0,-0.03 0,-0.059 0,-0.089 0,-0.059 0.01444,-0.1208 0,-0.1786 -0.03228,-0.1291 -0.136482,-0.2308 -0.178572,-0.3571 -0.0094,-0.028 0.0094,-0.061 0,-0.089 -0.02105,-0.063 -0.06824,-0.1154 -0.08929,-0.1786 -0.0094,-0.028 0.01331,-0.063 0,-0.089 -0.01882,-0.038 -0.07046,-0.052 -0.08929,-0.089 -0.01331,-0.027 0,-0.06 0,-0.089 -0.05952,-0.06 -0.119048,-0.1191 -0.178572,-0.1786 -0.02976,-0.03 -0.05952,-0.059 -0.08929,-0.089 -0.02976,-0.03 -0.04936,-0.076 -0.08929,-0.089 -0.05647,-0.019 -0.122102,0.019 -0.178572,0 -0.07947,-0.027 -0.188385,-0.2414 -0.267857,-0.2679 -0.0847,-0.028 -0.178571,0 -0.267857,0 -0.141956,0 -0.451928,-0.031 -0.535714,0 -0.139335,0.052 -0.233326,0.1854 -0.357143,0.2679 -0.08156,0.054 -0.216678,0.076 -0.267857,0.1786 -0.01331,0.027 0,0.06 0,0.089"
       id="path4115"
       inkscape:connector-curvature="0" />
    <path
       style="fill:none;fill-rule:evenodd;stroke:#000000;stroke-width:1px;stroke-linecap:butt;stroke-linejoin:miter;stroke-opacity:1"
       d="m 26.607143,1018.4336 -0.178572,0.5357"
       id="path4117"
       inkscape:connector-curvature="0" />
    <path
       style="fill:none;fill-rule:evenodd;stroke:#000000;stroke-width:1px;stroke-linecap:butt;stroke-linejoin:miter;stroke-opacity:1"
       d="m 26.071429,1018.7014 c -0.0739,-0.3695 0.331932,-0.396 0.446428,-0.625 0.02662,-0.053 -0.01882,-0.1221 0,-0.1785 0.110331,-0.331 0.08929,0.1088 0.08929,-0.1786"
       id="path4119"
       inkscape:connector-curvature="0" />
    <path
       style="fill:none;fill-rule:evenodd;stroke:#000000;stroke-width:1px;stroke-linecap:butt;stroke-linejoin:miter;stroke-opacity:1"
       d="m 26.339286,1017.1836 0,-0.7143"
       id="path4121"
       inkscape:connector-curvature="0" />
    <path
       style="fill:none;fill-rule:evenodd;stroke:#000000;stroke-width:1px;stroke-linecap:butt;stroke-linejoin:miter;stroke-opacity:1"
       d="m 25,1018.0764 -1.964286,-1.3392"
       id="path4123"
       inkscape:connector-curvature="0" />
    <path
       style="fill:none;fill-rule:evenodd;stroke:#000000;stroke-width:1px;stroke-linecap:butt;stroke-linejoin:miter;stroke-opacity:1"
       d="m 23.392857,1016.5586 c 0.386016,0.096 0.357143,-0.033 0.357143,0.1786"
       id="path4125"
       inkscape:connector-curvature="0" />
    <path
       style="fill:none;fill-rule:evenodd;stroke:#000000;stroke-width:1px;stroke-linecap:butt;stroke-linejoin:miter;stroke-opacity:1"
       d="m 24.553571,1017.5407 c 0.119048,0.1191 0.227807,0.2494 0.357143,0.3572 0.05113,0.043 0.123199,0.052 0.178572,0.089 0.03502,0.023 0.05952,0.059 0.08929,0.089 0.02976,0.03 0.06594,0.054 0.08929,0.089 0.216218,0.3244 -0.02615,0.063 0.178572,0.2679"
       id="path4127"
       inkscape:connector-curvature="0" />
    <path
       style="fill:none;fill-rule:evenodd;stroke:#000000;stroke-width:1px;stroke-linecap:butt;stroke-linejoin:miter;stroke-opacity:1"
       d="m 26.339286,1019.3264 -0.892857,-2.0535"
       id="path4129"
       inkscape:connector-curvature="0" />
    <path
       style="fill:none;fill-rule:evenodd;stroke:#000000;stroke-width:1px;stroke-linecap:butt;stroke-linejoin:miter;stroke-opacity:1"
       d="m 24.285714,1016.7372 -0.357143,-0.5358"
       id="path4131"
       inkscape:connector-curvature="0" />
    <path
       style="fill:none;fill-rule:evenodd;stroke:#000000;stroke-width:1px;stroke-linecap:butt;stroke-linejoin:miter;stroke-opacity:1"
       d="m 24.732143,1016.2014 c 0.119048,0.03 0.238095,0.06 0.357143,0.089 0.02976,0.03 0.04936,0.076 0.08929,0.089 0.05647,0.019 0.122103,-0.019 0.178572,0 0.03993,0.013 0.05952,0.059 0.08929,0.089 0.02976,0.03 0.05952,0.06 0.08929,0.089 0.02976,0.03 0.05952,0.06 0.08929,0.089 0.02976,0.03 0.05164,0.07 0.08929,0.089 0.123157,0.062 0.07986,-0.1081 0.178571,0.089 0.04981,0.1 -0.120337,0.2096 -0.178571,0.2678 -0.296124,0.2962 0.08418,-0.042 -0.178572,0.089 -0.03765,0.019 -0.05164,0.071 -0.08929,0.089 -0.02662,0.013 -0.06267,-0.013 -0.08929,0 -0.107143,0.054 -0.160714,0.2143 -0.267857,0.2679 -0.02717,0.014 -0.227647,0 -0.267857,0 -0.02122,0 -0.337132,0.01 -0.357143,0 -0.03765,-0.019 -0.05952,-0.059 -0.08929,-0.089"
       id="path4133"
       inkscape:connector-curvature="0" />
    <path
       style="fill:none;fill-rule:evenodd;stroke:#000000;stroke-width:1px;stroke-linecap:butt;stroke-linejoin:miter;stroke-opacity:1"
       d="m 24.732143,1017.2729 c 0.121532,-0.2301 -0.283704,-0.3889 -0.357143,-0.5357 -0.04209,-0.084 -0.0472,-0.1837 -0.08929,-0.2679 -0.04799,-0.096 -0.130581,-0.1719 -0.178571,-0.2679 -0.01331,-0.027 0.01331,-0.063 0,-0.089 -0.01882,-0.038 -0.07046,-0.052 -0.08929,-0.089 -0.01331,-0.027 0,-0.06 0,-0.089 0,-0.059 0.01882,-0.1221 0,-0.1786 -0.01331,-0.04 -0.05952,-0.059 -0.08929,-0.089"
       id="path4135"
       inkscape:connector-curvature="0" />
    <path
       style="fill:none;fill-rule:evenodd;stroke:#000000;stroke-width:1px;stroke-linecap:butt;stroke-linejoin:miter;stroke-opacity:1"
       d="m 24.464286,1017.005 c -1.553796,-0.9323 0.178421,0.1562 -0.625,-0.4464 -0.05324,-0.04 -0.123199,-0.052 -0.178572,-0.089 -0.03502,-0.023 -0.05952,-0.059 -0.08929,-0.089 -0.08929,-0.089 -0.178572,-0.1786 -0.267858,-0.2678 -0.04701,-0.047 -0.244014,-0.2202 -0.267857,-0.2679 -0.01331,-0.027 0,-0.059 0,-0.089"
       id="path4137"
       inkscape:connector-curvature="0" />
    <path
       style="fill:none;fill-rule:evenodd;stroke:#000000;stroke-width:1px;stroke-linecap:butt;stroke-linejoin:miter;stroke-opacity:1"
       d="m 37.589286,1015.755 c -0.305751,0.093 -0.275979,-0.2719 -0.446429,-0.3571 -0.05324,-0.027 -0.125331,0.027 -0.178571,0 -0.07529,-0.038 -0.09871,-0.152 -0.178572,-0.1786 -0.04938,-0.016 -0.445798,0 -0.535714,0 -0.178571,0 -0.357143,0 -0.535714,0 -0.05867,0 -0.217482,-0.017 -0.267857,0 -0.06314,0.021 -0.119048,0.06 -0.178572,0.089 -0.05952,0.03 -0.123199,0.052 -0.178571,0.089 -0.07004,0.047 -0.119048,0.119 -0.178572,0.1786 -0.05952,0.059 -0.119047,0.119 -0.178571,0.1785 -0.02976,0.03 -0.07598,0.049 -0.08929,0.089 -0.01882,0.057 0.01882,0.1221 0,0.1786 -0.01331,0.04 -0.06594,0.054 -0.08928,0.089 -0.03692,0.055 -0.04936,0.1253 -0.08929,0.1785 -0.05051,0.067 -0.128064,0.1113 -0.178572,0.1786 -0.03993,0.053 -0.05952,0.1191 -0.08928,0.1786 -0.02976,0.059 -0.06824,0.1154 -0.08929,0.1786 -0.01882,0.056 0.02662,0.1253 0,0.1785 -0.01882,0.038 -0.07046,0.052 -0.08929,0.089 -0.03993,0.08 0.03993,0.188 0,0.2679 -0.03765,0.075 -0.131877,0.1085 -0.178571,0.1786 -0.01651,0.025 0,0.059 0,0.089 0,0.073 -0.01508,0.5798 0,0.625 0.0037,0.011 0.252539,0.2602 0.267857,0.2679 0.02662,0.013 0.06267,-0.013 0.08929,0 0.03765,0.019 0.05427,0.066 0.08928,0.089 0.05537,0.037 0.123199,0.052 0.178572,0.089 0.03502,0.023 0.05427,0.066 0.08929,0.089 0.05952,0.03 0.119047,0.059 0.178571,0.089 0.02976,0 0.06267,-0.013 0.08929,0 0.03765,0.019 0.05952,0.06 0.08928,0.089 0.08929,0.03 0.183678,0.047 0.267858,0.089 0.03765,0.019 0.05952,0.06 0.08928,0.089 0.05952,0.059 0.10853,0.1319 0.178572,0.1786 0.02476,0.016 0.06267,-0.013 0.08928,0 0.272283,0.1361 -0.163298,0.071 0.267858,0.1786 0.05775,0.014 0.125331,-0.027 0.178571,0 0.112938,0.056 0.154919,0.2114 0.267857,0.2678 0.08418,0.042 0.183678,0.047 0.267857,0.089 0.03765,0.019 0.05164,0.07 0.08929,0.089 0.05769,0.029 0.388742,-0.029 0.446429,0 0.07529,0.038 0.103279,0.1409 0.178571,0.1786 0.02662,0.013 0.05952,0 0.08929,0 0.05952,0 0.122102,-0.019 0.178571,0 0.03993,0.013 0.04936,0.076 0.08929,0.089 0.0847,0.028 0.178571,0 0.267857,0 0.09749,0 0.388687,0.019 0.446429,0 0.323686,-0.1079 0.06354,-0.042 0.267857,-0.1786 0.05537,-0.037 0.123198,-0.052 0.178571,-0.089 0.07704,-0.051 0.198117,-0.1981 0.267857,-0.2679 0.05952,-0.059 0.119048,-0.119 0.178572,-0.1785 0.02976,-0.03 0.07046,-0.052 0.08928,-0.089 0.02662,-0.053 -0.01882,-0.1221 0,-0.1786 0.02105,-0.063 0.07315,-0.114 0.08929,-0.1786 0.01444,-0.058 0,-0.119 0,-0.1785 0,-0.03 -0.01331,-0.063 0,-0.089 0.01882,-0.038 0.07046,-0.052 0.08929,-0.089 0.01331,-0.027 0,-0.059 0,-0.089 0,-0.06 0,-0.119 0,-0.1786 0,-0.1377 0.02088,-0.4313 0,-0.5357 -0.01305,-0.065 -0.07315,-0.114 -0.08929,-0.1786 -0.01444,-0.058 0.01444,-0.1208 0,-0.1785 0.05382,-0.1616 -0.144638,-0.1661 -0.178571,-0.2679 -0.01882,-0.057 0,-0.119 0,-0.1786 0,-0.03 0.01331,-0.063 0,-0.089 -0.01882,-0.038 -0.07046,-0.052 -0.08929,-0.089 -0.01331,-0.027 0.0072,-0.06 0,-0.089 -0.225527,-0.9021 0.03224,0.064 -0.178571,-0.3572 -0.01331,-0.027 0.01331,-0.063 0,-0.089 -0.05356,-0.1071 -0.214279,-0.1607 -0.267851,-0.2678 -0.01331,-0.027 0.0094,-0.061 0,-0.089 -0.02104,-0.063 -0.05952,-0.1191 -0.08928,-0.1786 -0.02976,-0.059 -0.04223,-0.1315 -0.08929,-0.1786 -0.02105,-0.021 -0.06105,0.01 -0.08929,0 -0.161602,0.054 -0.166056,-0.1446 -0.267857,-0.1785 -0.05647,-0.019 -0.120825,0.014 -0.178571,0 -0.244246,-0.061 -0.14368,-0.1256 -0.357143,-0.2679 -0.02476,-0.016 -0.06267,0.013 -0.08929,0 -0.03765,-0.019 -0.05164,-0.07 -0.08929,-0.089 -0.03254,-0.016 -0.394982,0 -0.446428,0 -0.14881,0 -0.297619,0 -0.446429,0 -0.233923,0 -0.278447,0.011 -0.446428,0.1786"
       id="path4139"
       inkscape:connector-curvature="0" />
    <path
       style="fill:none;fill-rule:evenodd;stroke:#000000;stroke-width:1px;stroke-linecap:butt;stroke-linejoin:miter;stroke-opacity:1"
       d="m 36.160714,1017.1836 c 0.06286,0.026 -0.03496,0.5201 0,0.625 0.01331,0.04 0.07046,0.052 0.08929,0.089 0.03695,0.074 -0.03121,0.1495 -0.08929,0.1786 -0.02717,0.014 -0.227646,0 -0.267857,0 -0.360515,0 -0.164057,0.044 -0.535714,-0.1786 -0.204108,-0.1225 -0.272963,-0.1046 -0.357143,-0.3572 -0.0094,-0.028 0,-0.06 0,-0.089 0,-0.06 0,-0.119 0,-0.1785 0,-0.1191 0,-0.2381 0,-0.3572 0,-0.034 -0.0087,-0.4377 0,-0.4464 0.04706,-0.047 0.114009,-0.073 0.178572,-0.089 0.07023,-0.018 0.442863,0 0.535714,0 0.238095,0 0.47619,0 0.714286,0 0.05952,0 0.120824,-0.014 0.178571,0 0.103866,0.026 0.39842,0.2319 0.446429,0.2679 0.03367,0.025 0.05164,0.07 0.08928,0.089 0.08418,0.042 0.192565,0.033 0.267857,0.089 0.05324,0.04 0.05237,0.1232 0.08929,0.1786 0.02335,0.035 0.07046,0.052 0.08929,0.089 0.01331,0.027 -0.0094,0.061 0,0.089 0.02105,0.063 0.07314,0.114 0.08929,0.1786 0.01444,0.058 0,0.119 0,0.1785 0,0.1786 0,0.3572 0,0.5358 0,0.033 0.01119,0.6919 0,0.7142 -0.01882,0.038 -0.05952,0.06 -0.08929,0.089 -0.02976,0.03 -0.05164,0.071 -0.08929,0.089 -0.02662,0.013 -0.05952,0 -0.08929,0 -0.02976,0 -0.05952,0 -0.08928,0 -0.14881,0 -0.297619,0 -0.446429,0 -0.119048,0 -0.24661,0.044 -0.357143,0 -0.103808,-0.041 -0.323908,-0.3799 -0.357143,-0.4464 -0.04209,-0.084 -0.05433,-0.1805 -0.08928,-0.2679 -0.02472,-0.062 -0.06824,-0.1154 -0.08929,-0.1785 -0.01621,-0.049 -0.0015,-0.5305 0,-0.5358 0.03656,-0.1279 0.119048,-0.238 0.178571,-0.3571 z"
       id="path4141"
       inkscape:connector-curvature="0" />
    <path
       style="fill:none;fill-rule:evenodd;stroke:#000000;stroke-width:1px;stroke-linecap:butt;stroke-linejoin:miter;stroke-opacity:1"
       d="m 37.678572,1017.0943 c 0,-0.1488 0,-0.2976 0,-0.4464 0,-0.03 0,-0.06 0,-0.089 0,-0.03 -0.02976,-0.089 0,-0.089 0.244797,0 0.383807,0.2052 0.535714,0.3571 0.02976,0.03 0.07598,0.049 0.08929,0.089 0.01362,0.041 0,0.3966 0,0.4465 0,0.2381 0,0.4761 0,0.7142 0,0.089 0.01751,0.1803 0,0.2679 -0.0261,0.1305 -0.136482,0.2309 -0.178572,0.3571 -0.0094,0.028 0.01331,0.063 0,0.089 -0.01882,0.038 -0.05952,0.06 -0.08929,0.089 -0.129624,0.1296 -0.09665,0.089 -0.267857,0.089 -0.02976,0 -0.06452,0.017 -0.08928,0 -0.07004,-0.047 -0.111228,-0.1281 -0.178572,-0.1786 -0.05324,-0.04 -0.119048,-0.06 -0.178571,-0.089 -0.216484,-0.1083 -0.433757,-0.2042 -0.625,-0.3572 -0.06573,-0.053 -0.119048,-0.119 -0.178572,-0.1786 -0.02976,-0.03 -0.05021,-0.074 -0.08928,-0.089 -0.113935,-0.046 -0.251919,-0.026 -0.357143,-0.089 -0.129117,-0.077 -0.127216,-0.2936 0,-0.3572 0.02662,-0.013 0.06267,0.013 0.08928,0 0.272283,-0.1361 -0.163298,-0.071 0.267858,-0.1786 0.08662,-0.022 0.178571,0 0.267857,0 0.255226,0 0.474287,-0.031 0.714285,0.089 0.03765,0.019 0.05164,0.071 0.08929,0.089 0.123157,0.062 0.07986,-0.1081 0.178572,0.089 0.01328,0.027 0,0.4982 0,0.5357 0,0.084 0.01693,0.3957 0,0.4465 -0.01331,0.04 -0.05164,0.07 -0.08929,0.089 -0.02348,0.012 -0.310454,0 -0.357143,0 -0.03308,0 -0.691904,0.011 -0.714286,0 -0.03765,-0.019 -0.07046,-0.052 -0.08928,-0.089 -0.01627,-0.033 0,-0.395 0,-0.4465 0,-0.2756 -0.03843,-0.5481 0.08928,-0.8035 0.01847,-0.037 0.230012,-0.2427 0.267857,-0.2679 0.05537,-0.037 0.123199,-0.052 0.178572,-0.089 0.03502,-0.023 0.05164,-0.07 0.08929,-0.089 0.02662,-0.013 0.05982,-0 0.08928,0 0.179215,0.026 0.355578,0.1073 0.535715,0.089 0.253107,-0.025 0.294379,-0.259 0.535714,-0.1786 0.03993,0.013 0.05952,0.06 0.08929,0.089 0.02976,0.03 0.05952,0.059 0.08928,0.089 0.142808,0.1428 0.261342,0.2548 0.357143,0.4464 0.01331,0.027 -0.0094,0.061 0,0.089 0.02105,0.063 0.06824,0.1155 0.08929,0.1786 0.0094,0.028 -0.0094,0.061 0,0.089 0.02105,0.063 0.07314,0.114 0.08929,0.1786 0.01701,0.068 0,0.5326 0,0.625 0,0.04 0.01359,0.2406 0,0.2678 -0.01307,0.026 -0.337233,0.3505 -0.357143,0.3572 -0.03238,0.011 -0.623207,4e-4 -0.625,0 -0.05307,-0.013 -0.208481,-0.2283 -0.267857,-0.2679 -0.257245,-0.1715 -0.267858,-0.034 -0.267858,-0.3571"
       id="path4143"
       inkscape:connector-curvature="0" />
    <path
       style="fill:none;fill-rule:evenodd;stroke:#000000;stroke-width:1px;stroke-linecap:butt;stroke-linejoin:miter;stroke-opacity:1"
       d="m 36.339286,1017.8979 c -0.119048,0.089 -0.238095,0.1785 -0.357143,0.2678 -0.05952,0.03 -0.123199,0.052 -0.178571,0.089 -0.03502,0.023 -0.04936,0.076 -0.08929,0.089 -0.03274,0.011 -0.520396,0 -0.535714,0 -0.178572,0 -0.357143,0 -0.535715,0 -0.08928,0 -0.181237,0.022 -0.267857,0 -0.06456,-0.016 -0.123199,-0.052 -0.178571,-0.089 -0.08756,-0.058 -0.147592,-0.1749 -0.178572,-0.2678 -0.0094,-0.028 0.01651,-0.065 0,-0.089 -0.04669,-0.07 -0.151951,-0.099 -0.178571,-0.1786 -0.01331,-0.04 0.06594,-0.054 0.08929,-0.089 0.166633,-0.2499 -0.008,-0.1365 0.267857,-0.3571 0.329093,-0.2633 0.168241,-0.101 0.446428,-0.2679 0.09202,-0.055 0.166056,-0.1446 0.267857,-0.1786 0.0847,-0.028 0.180306,0.018 0.267858,0 0.06526,-0.013 0.114008,-0.073 0.178571,-0.089 0.05775,-0.014 0.119048,0 0.178571,0 0.14881,0 0.297619,0 0.446429,0 0.04984,0 0.405557,-0.014 0.446429,0 0.03993,0.013 0.05952,0.059 0.08928,0.089 0.102157,0.1022 0.124517,0.1057 0.178572,0.2679 0.02155,0.065 0,0.6138 0,0.7143 0,0.084 0.01693,0.3956 0,0.4464 -0.04631,0.139 -0.250809,0.089 -0.357143,0.089 -0.05952,0 -0.120825,0.014 -0.178572,0 -0.114086,-0.029 -0.288934,-0.1655 -0.357142,-0.2679 -0.03692,-0.055 -0.05237,-0.1232 -0.08929,-0.1785 -0.02335,-0.035 -0.07046,-0.052 -0.08929,-0.089 -0.01423,-0.029 0,-0.3666 0,-0.4464"
       id="path4145"
       inkscape:connector-curvature="0" />
    <path
       style="fill:none;fill-rule:evenodd;stroke:#000000;stroke-width:1px;stroke-linecap:butt;stroke-linejoin:miter;stroke-opacity:1"
       d="m 36.696429,1015.6657 c 0.861436,0 0.224043,-0.1331 0.535714,0.1786 0.02105,0.021 0.06267,-0.013 0.08929,0 0.03765,0.019 0.05952,0.06 0.08928,0.089 0.02976,0.03 0.07598,0.049 0.08929,0.089 0.01882,0.056 -0.01882,0.1221 0,0.1786 0.01331,0.04 0.07598,0.049 0.08929,0.089 0.02823,0.085 0,0.1786 0,0.2679 0,0.08 0.01423,0.418 0,0.4464 -0.01882,0.038 -0.05952,0.06 -0.08929,0.089 -0.02976,0.03 -0.05164,0.071 -0.08929,0.089 -0.02717,0.014 -0.227646,0 -0.267857,0 -0.178571,0 -0.357143,0 -0.535714,0 -0.05952,0 -0.123305,0.022 -0.178571,0 -0.214401,-0.086 -0.37643,-0.2871 -0.535715,-0.4464 -0.05952,-0.06 -0.119047,-0.1191 -0.178571,-0.1786 -0.02976,-0.03 -0.08929,-0.047 -0.08929,-0.089 0,-0.067 0.05237,-0.1232 0.08929,-0.1786 0.02335,-0.035 0.05952,-0.06 0.08929,-0.089 0.02976,-0.03 0.05164,-0.071 0.08928,-0.089 0.02662,-0.013 0.05952,0 0.08929,0 0.02976,0 0.05952,0 0.08929,0 0.148809,0 0.300508,-0.029 0.446428,0 0.06526,0.013 0.119048,0.059 0.178572,0.089"
       id="path4147"
       inkscape:connector-curvature="0" />
    <path
       style="fill:none;fill-rule:evenodd;stroke:#000000;stroke-width:1px;stroke-linecap:butt;stroke-linejoin:miter;stroke-opacity:1"
       d="m 32.410728,1025.4863 c 0.02977,0 0.1026,0.027 0.08929,0 -0.03765,-0.075 -0.128061,-0.1116 -0.178571,-0.1786 -0.324327,-0.4324 0.09452,0.01 -0.178572,-0.2679 -0.119047,-0.119 -0.238095,-0.2381 -0.357143,-0.3571 -0.02977,-0.029 -0.07047,-0.051 -0.08929,-0.089 -0.06158,-0.1236 0.108126,-0.08 -0.08929,-0.1786 -0.02662,-0.013 -0.06267,0.013 -0.08929,0 -0.03765,-0.018 -0.05953,-0.059 -0.08929,-0.089 -0.112644,-0.1126 -0.232752,-0.2641 -0.357143,-0.3571 -0.05324,-0.04 -0.125332,-0.049 -0.178572,-0.089 -0.134687,-0.101 -0.225677,-0.252 -0.357143,-0.3571 -0.08379,-0.067 -0.182007,-0.1146 -0.267857,-0.1786 -0.101015,-0.076 -0.178567,-0.1789 -0.267857,-0.2679 -0.283717,-0.2837 -0.587002,-0.5505 -0.803571,-0.8928 1.011904,0 2.023809,0 3.035714,0 0.148809,0 0.297619,0 0.446429,0 0.08928,0 0.178567,0 0.267857,0 0.02976,0 0.06105,0.01 0.08928,0 0.307788,-0.103 0.06614,-0.089 0.267858,-0.089 -0.386686,0.1222 -0.03206,0.3638 -0.08928,0.5354 -0.02105,0.063 -0.07315,0.114 -0.08929,0.1786 -0.0778,0.3112 0.141828,0.061 -0.08929,0.4464 -0.04331,0.072 -0.140925,0.1033 -0.178571,0.1786 -0.02662,0.053 0.01882,0.1221 0,0.1786 -0.01331,0.04 -0.05952,0.059 -0.08929,0.089 -0.02976,0.06 -0.07314,0.1141 -0.08928,0.1786 -0.01444,0.058 0.02662,0.1253 0,0.1786 -0.03765,0.075 -0.119048,0.119 -0.178572,0.1786 -0.02976,0.03 -0.07598,0.049 -0.08929,0.089 -0.02823,0.085 0,0.1786 0,0.2679"
       id="path4149"
       inkscape:connector-curvature="0" />
    <path
       style="fill:none;fill-rule:evenodd;stroke:#000000;stroke-width:1px;stroke-linecap:butt;stroke-linejoin:miter;stroke-opacity:1"
       d="m 30.892857,1022.63 c 0.119048,0 0.239715,-0.02 0.357143,0 0.215791,0.036 0.131784,0.088 0.267857,0.1786 0.451054,0.3007 0.0021,7e-4 0.267857,0.089 0.06314,0.021 0.115437,0.068 0.178572,0.089 0.02823,0.01 0.06267,-0.013 0.08929,0 0.03765,0.019 0.05164,0.07 0.08928,0.089 0.02717,0.014 0.227647,0 0.267857,0"
       id="path4151"
       inkscape:connector-curvature="0" />
    <path
       style="fill:none;fill-rule:evenodd;stroke:#000000;stroke-width:1px;stroke-linecap:butt;stroke-linejoin:miter;stroke-opacity:1"
       d="m 31.964286,1023.9693 c 0.01387,-0.3363 -0.395632,-0.3256 -0.535714,-0.5357 -0.03692,-0.055 -0.04936,-0.1253 -0.08929,-0.1786 -0.08336,-0.1111 -0.344555,-0.3445 -0.446429,-0.4464"
       id="path4153"
       inkscape:connector-curvature="0" />
    <path
       style="fill:none;fill-rule:evenodd;stroke:#000000;stroke-width:1px;stroke-linecap:butt;stroke-linejoin:miter;stroke-opacity:1"
       d="m 31.696429,1024.2372 c -0.122262,-0.3871 -0.36397,-0.032 -0.535715,-0.089 -0.06313,-0.021 -0.114008,-0.073 -0.178571,-0.089 -0.05775,-0.014 -0.122102,0.019 -0.178571,0 -0.03993,-0.013 -0.05164,-0.071 -0.08929,-0.089 -0.02662,-0.013 -0.06267,0.013 -0.08929,0 -0.262751,-0.1314 0.138597,-0.089 -0.267857,-0.089"
       id="path4155"
       inkscape:connector-curvature="0" />
    <path
       style="fill:none;fill-rule:evenodd;stroke:#000000;stroke-width:1px;stroke-linecap:butt;stroke-linejoin:miter;stroke-opacity:1"
       d="m 31.160714,1024.4157 c -0.08929,0.1488 -0.199496,0.287 -0.267857,0.4465 -0.02345,0.055 0.02211,0.1233 0,0.1785 -0.03985,0.1 -0.130582,0.1719 -0.178571,0.2679 -0.01331,0.027 0.0072,0.06 0,0.089 -0.02283,0.091 -0.05433,0.1804 -0.08929,0.2678 -0.02472,0.062 -0.07315,0.114 -0.08929,0.1786 -0.01195,0.048 0.01033,0.5357 0,0.5357 -0.02976,0 0,-0.06 0,-0.089 0,-0.1295 0.05713,-0.2839 -0.08929,-0.3571 -0.02662,-0.013 -0.06267,-0.013 -0.08929,0 -0.03765,0.019 -0.05164,0.07 -0.08929,0.089 -0.02662,0.013 -0.06267,-0.013 -0.08929,0 -0.03765,0.019 -0.05164,0.07 -0.08929,0.089 -0.02662,0.013 -0.06105,-0.01 -0.08929,0 -0.06313,0.021 -0.115437,0.068 -0.178571,0.089 -0.02823,0.01 -0.06267,-0.013 -0.08929,0 -0.09598,0.048 -0.182011,0.1142 -0.267857,0.1786 -0.136141,0.1021 -0.05196,0.1246 -0.267857,0.1786 -0.05775,0.014 -0.120825,-0.014 -0.178572,0 -0.06456,0.016 -0.115437,0.068 -0.178571,0.089 -0.05172,0.017 -0.279769,0 -0.357143,0 -0.297619,0 -0.595238,0 -0.892857,0 -0.238095,0 -0.476191,0 -0.714286,0 -0.05824,0 -0.286794,0.018 -0.357143,0 -0.0913,-0.023 -0.178571,-0.06 -0.267857,-0.089"
       id="path4157"
       inkscape:connector-curvature="0" />
    <path
       style="fill:none;fill-rule:evenodd;stroke:#000000;stroke-width:1px;stroke-linecap:butt;stroke-linejoin:miter;stroke-opacity:1"
       d="m 31.696429,1025.13 c 0,0.5655 0,1.131 0,1.6964 0,0.1451 -0.04413,0.4468 0.08929,0.5358 0.01777,0.012 0.385698,0 0.446429,0 0.267857,0 0.535714,0 0.803571,0 0.08929,0 0.178572,0 0.267858,0 0.02976,0 0.06105,0.01 0.08928,0 0.06314,-0.021 0.114009,-0.073 0.178572,-0.089 0.09249,-0.023 0.254762,0 0.357143,0 0.267857,0 0.535714,0 0.803571,0 0.134086,0 0.328117,0.024 0.446429,0 0.06526,-0.013 0.114008,-0.073 0.178571,-0.089 0.06042,-0.015 0.567544,0 0.625,0 0.02976,0 0.06105,0.01 0.08929,0 0.347716,-0.1159 0.0084,-0.089 0.357143,-0.089"
       id="path4159"
       inkscape:connector-curvature="0" />
    <path
       style="fill:none;fill-rule:evenodd;stroke:#000000;stroke-width:1px;stroke-linecap:butt;stroke-linejoin:miter;stroke-opacity:1"
       d="m 19.732143,1023.4336 c -0.208333,-0.03 -0.416667,-0.059 -0.625,-0.089 -0.14881,0 -0.29823,0.014 -0.446429,0 -0.180291,-0.016 -0.355032,-0.078 -0.535714,-0.089 -0.297039,-0.019 -0.595238,0 -0.892857,0 -0.416667,0 -0.833333,0 -1.25,0 -1.39881,0 -2.797619,0 -4.196429,0 -0.47619,0 -0.952381,0 -1.428571,0 -0.357143,0 -0.7198474,-0.063 -1.0714287,0 -0.4911313,0.088 -0.949627,0.3068 -1.4285714,0.4464 -1.0318692,0.301 -0.43122,0.039 -1.5178572,0.4465 -0.065254,0.024 -0.8228024,0.3402 -0.9821428,0.4464 -0.070042,0.047 -0.1190476,0.1191 -0.1785715,0.1786 -0.059524,0.06 -0.1280638,0.1112 -0.1785714,0.1785 -0.03993,0.053 -0.049356,0.1254 -0.089286,0.1786 -0.050508,0.067 -0.1190476,0.1191 -0.1785714,0.1786 -0.029762,0.03 -0.073654,0.05 -0.089286,0.089 -0.045574,0.1139 -0.040947,0.2443 -0.089286,0.3571 -0.059524,0.089 -0.1190476,0.1786 -0.1785714,0.2679 0,0.03 0.00941,0.061 0,0.089 -0.021045,0.063 -0.068241,0.1154 -0.089286,0.1785 -0.00808,0.024 -0.00654,0.3441 0,0.3572 0.018823,0.038 0.059524,0.06 0.089286,0.089"
       id="path4161"
       inkscape:connector-curvature="0" />
    <path
       style="fill:none;fill-rule:evenodd;stroke:#000000;stroke-width:1px;stroke-linecap:butt;stroke-linejoin:miter;stroke-opacity:1"
       d="m 21.517857,1024.8622 c -0.119047,0.06 -0.226628,0.1524 -0.357143,0.1785 -0.175103,0.035 -0.357451,-0.011 -0.535714,0 -0.328164,0.019 -0.656173,0.047 -0.982143,0.089 -1.425527,0.186 -0.835815,0.1924 -2.410714,0.4465 -0.473773,0.076 -0.952381,0.119 -1.428572,0.1785 -0.47619,0.059 -0.965954,0.051 -1.428571,0.1786 -0.410782,0.1133 -0.754862,0.4058 -1.160714,0.5357 -1.45456,0.4655 -0.676747,-0.1333 -2.053572,0.4464 -0.544644,0.2294 -0.802222,0.5484 -1.2499997,0.8929 -0.01488,0.011 -1.2471108,0.89 -1.25,0.8929 -0.094115,0.094 -0.1125357,0.2415 -0.1785714,0.3571 -0.05324,0.093 -0.1190476,0.1786 -0.1785714,0.2679 -0.059524,0.1488 -0.1068953,0.303 -0.1785715,0.4464 -0.04799,0.096 -0.1305818,0.1719 -0.1785714,0.2678 -0.04209,0.084 -0.066459,0.1766 -0.089286,0.2679 -0.00722,0.029 0.01331,0.063 0,0.089 -0.037646,0.075 -0.1409253,0.1033 -0.1785715,0.1785 -0.01331,0.027 0.01331,0.063 0,0.089 -0.1134169,0.2269 -0.1067118,-0.091 -0.1785711,0.2679 -0.023347,0.1167 0,0.2381 0,0.3571"
       id="path4163"
       inkscape:connector-curvature="0" />
    <path
       style="fill:none;fill-rule:evenodd;stroke:#000000;stroke-width:1px;stroke-linecap:butt;stroke-linejoin:miter;stroke-opacity:1"
       d="m 23.214286,1027.3622 c -0.797426,-0.2372 -0.845718,-0.024 -1.696429,0.1785 -2.319617,0.5523 0.486548,-0.314 -2.142857,0.625 -0.533998,0.1907 -2.614271,0.8633 -3.035714,0.9822 -0.590518,0.1665 -1.197597,0.2716 -1.785715,0.4464 -0.514293,0.1529 -1.010318,0.3617 -1.517857,0.5357 -0.534168,0.1832 -1.080528,0.3319 -1.607143,0.5357 -0.397391,0.1539 -0.765066,0.3775 -1.160714,0.5357 -0.201173,0.081 -0.4312043,0.082 -0.6249998,0.1786 -0.2289927,0.1145 -0.4166667,0.2976 -0.625,0.4464 -0.2083334,0.1489 -0.4549086,0.2551 -0.625,0.4465 -0.081525,0.092 -0.034408,0.2474 -0.089286,0.3571 -0.037646,0.075 -0.1190477,0.1191 -0.1785715,0.1786 -0.029762,0.03 -0.075976,0.049 -0.089286,0.089 -0.018823,0.056 0.014437,0.1208 0,0.1785 -0.016141,0.065 -0.068241,0.1155 -0.089286,0.1786 -0.00808,0.024 -0.00654,0.3441 0,0.3572 0.018823,0.038 0.05164,0.07 0.089286,0.089 0.02662,0.013 0.062666,-0.013 0.089286,0 0.2206611,0.1104 -0.030819,0.089 0.1785715,0.089"
       id="path4165"
       inkscape:connector-curvature="0" />
    <path
       style="fill:none;fill-rule:evenodd;stroke:#000000;stroke-width:1px;stroke-linecap:butt;stroke-linejoin:miter;stroke-opacity:1"
       d="m 45.446429,1023.88 c 0.148809,-0.119 0.272284,-0.2797 0.446428,-0.3571 0.108787,-0.048 0.238824,0.013 0.357143,0 0.150828,-0.017 0.295196,-0.077 0.446429,-0.089 0.207613,-0.017 0.416666,0 0.625,0 0.446428,0 0.892857,0 1.339285,0 0.386905,0 0.77381,0 1.160715,0 0.148809,0 0.300019,-0.027 0.446428,0 0.185195,0.034 0.355808,0.1232 0.535715,0.1786 1.533965,0.4719 -0.297039,-0.1486 1.25,0.4464 0.562624,0.2164 0.467497,0.1196 0.982142,0.3571 0.241698,0.1116 0.465831,0.2616 0.714286,0.3572 0.141641,0.054 0.30246,0.041 0.446429,0.089 0.126269,0.042 0.238095,0.119 0.357143,0.1785 0.238095,0.1191 0.47619,0.2381 0.714285,0.3572 0.119048,0.06 0.238096,0.119 0.357143,0.1785 0.05952,0.03 0.126605,0.048 0.178572,0.089 0.0986,0.079 0.168186,0.1904 0.267857,0.2679 0.169407,0.1317 0.362146,0.2309 0.535714,0.3571 0.15412,0.1121 0.292308,0.2451 0.446429,0.3572 0.173567,0.1262 0.36961,0.2212 0.535714,0.3571 0.162878,0.1333 0.297619,0.2976 0.446428,0.4464 0.178572,0.1786 0.365068,0.3496 0.535715,0.5358 0.157071,0.1713 0.266524,0.3885 0.446428,0.5357 0.15452,0.1264 0.373254,0.1518 0.535715,0.2678 0.05415,0.039 0.05237,0.1232 0.08928,0.1786 0.04669,0.07 0.140926,0.1033 0.178572,0.1786 0.01331,0.027 0,0.06 0,0.089 0,0.03 0,0.06 0,0.089"
       id="path4167"
       inkscape:connector-curvature="0" />
    <path
       style="fill:none;fill-rule:evenodd;stroke:#000000;stroke-width:1px;stroke-linecap:butt;stroke-linejoin:miter;stroke-opacity:1"
       d="m 46.785714,1026.0229 c 0.753894,0.1884 0.699054,0.146 1.428572,0.4464 0.271042,0.1116 0.544515,0.22 0.803571,0.3571 0.248144,0.1314 0.460541,0.3263 0.714286,0.4465 2.675113,1.2671 -0.279153,-0.2585 1.607143,0.5357 0.368007,0.1549 0.714286,0.3571 1.071428,0.5357 0.595239,0.2976 1.184864,0.6067 1.785715,0.8929 0.324681,0.1546 0.657145,0.2924 0.982143,0.4464 0.50447,0.2389 1.038578,0.5216 1.517857,0.8036 0.242008,0.1423 0.473524,0.3019 0.714285,0.4464 0.05707,0.034 0.128488,0.045 0.178572,0.089 0.51757,0.4528 0.493333,0.5027 0.892857,0.9821 0.106845,0.1282 0.239006,0.239 0.357143,0.3572 0.02976,0.03 0.06403,0.056 0.08929,0.089 0.06438,0.086 0.114186,0.1821 0.178571,0.2679 0.02525,0.034 0.07046,0.052 0.08929,0.089 0.01331,0.027 0,0.059 0,0.089 0,0.06 0,0.119 0,0.1785 0,0.2381 0,0.4762 0,0.7143"
       id="path4169"
       inkscape:connector-curvature="0" />
    <path
       style="fill:none;fill-rule:evenodd;stroke:#000000;stroke-width:1px;stroke-linecap:butt;stroke-linejoin:miter;stroke-opacity:1"
       d="m 45.892857,1028.88 c 0.560175,0.1401 0.202883,0.014 0.803572,0.3572 0.266045,0.152 0.539459,0.291 0.803571,0.4464 0.242008,0.1423 0.460787,0.3257 0.714286,0.4464 1.100617,0.5241 1.346095,0.3617 2.410714,1.0714 0.245145,0.1635 0.40327,0.431 0.625,0.625 0.255378,0.2235 0.535714,0.4167 0.803572,0.625 0.267857,0.2084 0.521225,0.4368 0.803571,0.625 1.579765,1.0532 0.09269,-0.1347 1.428571,0.8929 0.369213,0.284 0.869275,0.727 1.160715,1.0714 0.138629,0.1639 0.228373,0.3641 0.357143,0.5357 0.139468,0.186 0.314116,0.3446 0.446428,0.5358 0.510135,0.7368 0.234508,0.4378 0.535714,1.1607 0.07679,0.1843 0.19107,0.3514 0.267858,0.5357 0.144793,0.3475 0.204247,0.7274 0.357142,1.0714 0.04358,0.098 0.119048,0.1786 0.178572,0.2679 0.05952,0.089 0.119047,0.1785 0.178571,0.2678 0.02976,0.06 0.05237,0.1232 0.08929,0.1786 0.02335,0.035 0.07046,0.052 0.08929,0.089 0.04209,0.084 0.06646,0.1765 0.08928,0.2679 0.0072,0.029 -0.01331,0.063 0,0.089 0.07094,0.1419 0.107636,0.037 0.178572,0.1786 0.01331,0.027 0,0.06 0,0.089 0,0.03 0,0.059 0,0.089"
       id="path4171"
       inkscape:connector-curvature="0" />
    <path
       style="fill:none;fill-rule:evenodd;stroke:#000000;stroke-width:1px;stroke-linecap:butt;stroke-linejoin:miter;stroke-opacity:1"
       d="m 22.857143,1011.8264 c -0.08929,-0.1488 -0.190248,-0.2912 -0.267857,-0.4464 -0.02056,-0.041 0,-0.4432 0,-0.5357 0,-0.089 0,-0.1786 0,-0.2679 0,-0.03 0.01651,-0.065 0,-0.089 -0.04669,-0.07 -0.140925,-0.1033 -0.178572,-0.1786 -0.0105,-0.021 0,-0.2985 0,-0.3572"
       id="path4173"
       inkscape:connector-curvature="0" />
    <path
       style="fill:none;fill-rule:evenodd;stroke:#000000;stroke-width:1px;stroke-linecap:butt;stroke-linejoin:miter;stroke-opacity:1"
       d="m 24.285714,1011.9157 c 0.04659,-0.2497 0.249835,-0.4104 0.357143,-0.625 0.07168,-0.1433 0.127889,-0.2943 0.178572,-0.4464 0.0388,-0.1164 0.0462,-0.2422 0.08929,-0.3571 0.0701,-0.187 0.178572,-0.3572 0.267857,-0.5358 0.02976,-0.06 0.07315,-0.114 0.08929,-0.1785 0.122561,-0.4903 -0.163646,0.1487 0.08929,-0.3572"
       id="path4175"
       inkscape:connector-curvature="0" />
    <path
       style="fill:none;fill-rule:evenodd;stroke:#000000;stroke-width:1px;stroke-linecap:butt;stroke-linejoin:miter;stroke-opacity:1"
       d="m 26.607143,1011.2907 c 0.785109,-0.314 0.25978,0.011 0.535714,-0.3571 0.05051,-0.067 0.135262,-0.1064 0.178572,-0.1786 0.04842,-0.081 0.05433,-0.1805 0.08929,-0.2678 0.02472,-0.062 0.05952,-0.1191 0.08929,-0.1786 0.05952,-0.1191 0.09336,-0.2549 0.178572,-0.3572 0.0687,-0.082 0.178571,-0.119 0.267857,-0.1785 0.05761,-0.038 0.336608,-0.2404 0.446428,-0.2679 0.294215,-0.073 0.08447,0.094 0.267857,-0.089"
       id="path4177"
       inkscape:connector-curvature="0" />
    <path
       style="fill:none;fill-rule:evenodd;stroke:#000000;stroke-width:1px;stroke-linecap:butt;stroke-linejoin:miter;stroke-opacity:1"
       d="m 34.196429,1012.5407 c 0.369958,-0.4669 -0.305091,-0.3275 -0.357143,-0.5357 -0.02166,-0.087 0.02165,-0.1812 0,-0.2678 -0.01021,-0.041 -0.06403,-0.056 -0.08929,-0.089 -0.06439,-0.086 -0.123362,-0.1759 -0.178571,-0.2679 -0.03424,-0.057 -0.06824,-0.1154 -0.08929,-0.1786 -0.01611,-0.048 0,-0.3267 0,-0.3571"
       id="path4179"
       inkscape:connector-curvature="0" />
    <path
       style="fill:none;fill-rule:evenodd;stroke:#000000;stroke-width:1px;stroke-linecap:butt;stroke-linejoin:miter;stroke-opacity:1"
       d="m 35.535714,1011.4693 c 0,-0.119 -0.01684,-0.2393 0,-0.3571 0.01331,-0.093 0.07083,-0.1756 0.08929,-0.2679 0.01167,-0.058 0,-0.119 0,-0.1786 0,-0.089 0,-0.1785 0,-0.2678 0,-0.06 -0.02211,-0.1233 0,-0.1786 0.03985,-0.1 0.130582,-0.1719 0.178572,-0.2679 0.03571,-0.071 -0.03572,-0.1964 0,-0.2678 0.01882,-0.038 0.05952,-0.059 0.08928,-0.089"
       id="path4181"
       inkscape:connector-curvature="0" />
    <path
       style="fill:none;fill-rule:evenodd;stroke:#000000;stroke-width:1px;stroke-linecap:butt;stroke-linejoin:miter;stroke-opacity:1"
       d="m 37.5,1012.0943 c 0.06752,-0.09 0.304531,-0.4411 0.446429,-0.5357 0.02476,-0.016 0.06267,0.013 0.08928,0 0.03765,-0.019 0.05952,-0.059 0.08929,-0.089 0.02976,-0.03 0.05952,-0.059 0.08929,-0.089"
       id="path4183"
       inkscape:connector-curvature="0" />
  </g>
</svg>
