<?xml version="1.0" encoding="UTF-8" standalone="no"?>
<!-- Created with Inkscape (http://www.inkscape.org/) -->

<svg
   xmlns:dc="http://purl.org/dc/elements/1.1/"
   xmlns:cc="http://creativecommons.org/ns#"
   xmlns:rdf="http://www.w3.org/1999/02/22-rdf-syntax-ns#"
   xmlns:svg="http://www.w3.org/2000/svg"
   xmlns="http://www.w3.org/2000/svg"
   xmlns:sodipodi="http://sodipodi.sourceforge.net/DTD/sodipodi-0.dtd"
   xmlns:inkscape="http://www.inkscape.org/namespaces/inkscape"
   width="64"
   height="64"
   viewBox="0 0 16.933333 16.933334"
   version="1.1"
   id="svg8"
   inkscape:version="0.92.1 r15371"
   sodipodi:docname="1_cat_5.svg"
   inkscape:export-filename="/home/physt/undev/repos/deep_learning/workshop/tasks/commonlearningdata/cartooncats/1_cat_5.png"
   inkscape:export-xdpi="96.000008"
   inkscape:export-ydpi="96.000008">
  <defs
     id="defs2" />
  <sodipodi:namedview
     id="base"
     pagecolor="#ffffff"
     bordercolor="#666666"
     borderopacity="1.0"
     inkscape:pageopacity="0.0"
     inkscape:pageshadow="2"
     inkscape:zoom="11.2"
     inkscape:cx="50.237003"
     inkscape:cy="32.732721"
     inkscape:document-units="mm"
     inkscape:current-layer="layer1"
     showgrid="false"
     inkscape:window-width="1920"
     inkscape:window-height="1016"
     inkscape:window-x="0"
     inkscape:window-y="27"
     inkscape:window-maximized="1"
     units="px" />
  <metadata
     id="metadata5">
    <rdf:RDF>
      <cc:Work
         rdf:about="">
        <dc:format>image/svg+xml</dc:format>
        <dc:type
           rdf:resource="http://purl.org/dc/dcmitype/StillImage" />
        <dc:title></dc:title>
      </cc:Work>
    </rdf:RDF>
  </metadata>
  <g
     inkscape:label="Layer 1"
     inkscape:groupmode="layer"
     id="layer1"
     transform="translate(0,-280.06665)">
    <path
       id="path688"
       d="M 4.298152,293.68239 C 4.1937664,293.6202 4.0974449,293.54589 4.003604,293.46898 3.8879555,293.3764 3.7883549,293.267 3.690816,293.15614 3.5905572,293.0404 3.5116751,292.91029 3.4343424,292.77886 3.3512963,292.6317 3.2833926,292.47693 3.226391,292.31803 c -0.054451,-0.1514 -0.090264,-0.30805 -0.1152908,-0.46671 -0.024821,-0.16877 -0.024704,-0.33931 -0.019383,-0.50934 0.00445,-0.18725 0.027521,-0.37348 0.055537,-0.55848 0.030985,-0.19436 0.081181,-0.38477 0.1356061,-0.57365 0.060583,-0.21751 0.1406038,-0.42883 0.2234628,-0.63864 0.081297,-0.20901 0.1806525,-0.40976 0.2869936,-0.60694 0.098364,-0.18493 0.2271027,-0.34977 0.36801,-0.50371 0.1490607,-0.16121 0.3090304,-0.31166 0.4736867,-0.4567 0.1775092,-0.15015 0.3652337,-0.28769 0.5556853,-0.42083 0.2876878,-0.20773 0.5988593,-0.37806 0.9062712,-0.55406 0.2306725,-0.12395 0.4599273,-0.25063 0.6935928,-0.36889 0.2340433,-0.1224 0.4750149,-0.23094 0.7185625,-0.33289 0.2397035,-0.0995 0.4888339,-0.17082 0.7402621,-0.23327 0.2465385,-0.0585 0.4957313,-0.10492 0.7445918,-0.15224 0.2485173,-0.0503 0.499356,-0.0863 0.7506025,-0.11947 0.2417498,-0.036 0.4855564,-0.0549 0.7287034,-0.0786 0.233856,-0.0192 0.468129,-0.0387 0.702746,-0.045 0.223763,-0.007 0.446955,0.008 0.669867,0.0249 0.216199,0.0206 0.432413,0.0412 0.647625,0.0705 0.206555,0.0318 0.412129,0.07 0.615709,0.11718 0.18325,0.0455 0.36548,0.0949 0.547654,0.14449 0.163394,0.0449 0.32681,0.0902 0.486852,0.14606 0.14037,0.0442 0.271712,0.10692 0.3993,0.17927 0.109836,0.0634 0.205537,0.14595 0.301031,0.22845 0.08945,0.0748 0.164787,0.1641 0.245168,0.24812 0.07752,0.084 0.146543,0.17548 0.214673,0.26716 0.06801,0.0904 0.122541,0.18825 0.165978,0.29238 0.04536,0.11347 0.07409,0.23243 0.09224,0.35301 0.01853,0.12586 0.01607,0.25271 0.0047,0.37898 -0.01092,0.13676 -0.04326,0.27005 -0.08109,0.40148 -0.03793,0.14164 -0.100552,0.27389 -0.160637,0.40698 -0.05802,0.13214 -0.12651,0.25939 -0.193623,0.38706 -0.0664,0.12999 -0.140312,0.2559 -0.226385,0.3738 -0.08127,0.11183 -0.174293,0.21276 -0.270161,0.31191 -0.08289,0.0873 -0.177689,0.16198 -0.276368,0.23047 -0.182129,0.12239 -0.369343,0.22067 -0.572613,0.29629 -0.09203,0.0328 -0.189254,0.0414 -0.286058,0.0464 -0.08714,0.007 -0.172962,-10e-4 -0.256966,-0.0245 -0.0899,-0.0234 -0.169717,-0.068 -0.248612,-0.11557 -0.08293,-0.0449 -0.154397,-0.10645 -0.225352,-0.16778 -0.08162,-0.0632 -0.148703,-0.14238 -0.214599,-0.22119 -0.06626,-0.0799 -0.120284,-0.16847 -0.179774,-0.25321 -0.05099,-0.0705 -0.09783,-0.14338 -0.137762,-0.22071 -0.04185,-0.0741 -0.07596,-0.15224 -0.108059,-0.23096 -0.0274,-0.0818 -0.04616,-0.16636 -0.05804,-0.25175 -0.01499,-0.0824 -0.02798,-0.16522 -0.029,-0.24906 10e-4,-0.0882 0.0172,-0.17514 0.02742,-0.26255 0.01315,-0.0949 0.04281,-0.18675 0.07155,-0.27786 0.03383,-0.10518 0.07617,-0.20647 0.130157,-0.3028 0.05646,-0.094 0.112997,-0.1881 0.172914,-0.27997 0.06718,-0.0939 0.134077,-0.18824 0.20819,-0.27682 0.07118,-0.0872 0.153311,-0.16414 0.240175,-0.23539 0.179984,-0.12278 0.371607,-0.22831 0.563894,-0.33073 0.0984,-0.0521 0.206649,-0.0833 0.313187,-0.11442 0.105689,-0.0286 0.214767,-0.0444 0.323399,-0.0573 0.106247,-0.0116 0.213216,-0.0129 0.31997,-0.0141 0.09837,0.004 0.196244,0.0136 0.292389,0.0352 0.06912,0.0109 0.134218,0.0351 0.200216,0.0569 0.05388,0.0214 0.106947,0.0447 0.15903,0.0701 0.03895,0.0225 0.07965,0.0432 0.121594,0.0597 0.02855,0.0159 0.0563,0.0323 0.08309,0.0511 0.01498,1e-5 0.03825,0.0325 0.04861,0.0223 8.47e-4,-0.002 0.0017,-0.003 0.0026,-0.005 0,0 -0.283843,0.2105 -0.283843,0.2105 v 0 c -0.0029,-10e-4 -0.0058,-0.003 -0.0087,-0.004 -0.0184,-0.0121 -0.03654,-0.024 -0.05581,-0.0346 -0.02459,-0.0175 -0.05111,-0.0319 -0.07798,-0.0456 -0.04124,-0.0192 -0.08231,-0.0389 -0.121755,-0.0617 -0.05064,-0.025 -0.102856,-0.047 -0.155719,-0.0669 -0.06425,-0.0223 -0.129032,-0.0423 -0.196038,-0.0548 -0.09453,-0.0186 -0.190448,-0.0287 -0.286848,-0.0298 -0.10593,10e-4 -0.212043,0.004 -0.317307,0.017 -0.107452,0.0143 -0.215315,0.0306 -0.31944,0.0614 -0.106105,0.0322 -0.212902,0.0659 -0.309879,0.12078 -0.106062,0.0576 -0.310273,0.17657 0.162412,-0.0965 0.01506,-0.009 -0.03001,0.0176 -0.04504,0.0263 -0.06518,0.0379 -0.02847,0.0153 -0.09139,0.0556 -0.08858,0.0685 -0.172266,0.14366 -0.243958,0.23 -0.07627,0.0858 -0.140008,0.18114 -0.209244,0.27252 -0.06097,0.0906 -0.115848,0.18509 -0.173493,0.27778 -0.055,0.0941 -0.100125,0.19184 -0.13287,0.29609 -0.02905,0.0889 -0.05639,0.17917 -0.07314,0.27119 -0.01021,0.0863 -0.02581,0.17193 -0.02872,0.25888 -0.0021,0.0825 0.01177,0.16396 0.02644,0.24493 0.01073,0.0827 0.02851,0.16459 0.05391,0.24409 0.03126,0.0779 0.06554,0.1548 0.106659,0.22807 0.0392,0.0759 0.08514,0.14739 0.134236,0.21731 0.05897,0.0838 0.111485,0.17225 0.177348,0.25115 0.06537,0.0771 0.132645,0.15358 0.212781,0.21582 0.06981,0.0599 0.14127,0.11853 0.222547,0.16249 0.07694,0.0455 0.155564,0.0865 0.243422,0.10687 0.08235,0.0186 0.165799,0.0237 0.250063,0.0163 0.09514,-0.007 0.190037,-0.019 0.279433,-0.0544 0.131318,-0.0504 0.504347,-0.24221 -0.02082,0.0428 0.100245,-0.066 0.196434,-0.13894 0.280919,-0.22453 0.04654,-0.0485 0.09592,-0.0947 0.140595,-0.14494 0.04559,-0.0513 0.04342,-0.0542 0.0868,-0.10857 0.0148,-0.0186 0.03029,-0.0366 0.04544,-0.0549 0.08803,-0.11542 0.162493,-0.23992 0.228842,-0.36903 0.06706,-0.12728 0.134945,-0.25441 0.194752,-0.38527 0.05914,-0.132 0.123352,-0.2621 0.161544,-0.40229 0.03912,-0.12909 0.07167,-0.26051 0.08323,-0.3953 0.01325,-0.12358 0.01506,-0.24775 -0.0015,-0.37124 -0.0168,-0.11796 -0.04383,-0.23443 -0.08898,-0.34504 -0.04211,-0.10161 -0.09524,-0.19705 -0.161444,-0.28523 -0.06737,-0.0905 -0.135909,-0.18055 -0.212522,-0.26348 -0.07964,-0.0833 -0.154161,-0.17188 -0.243258,-0.24555 -0.09337,-0.0814 -0.187913,-0.16184 -0.296127,-0.22343 -0.125654,-0.071 -0.256035,-0.13123 -0.393781,-0.17539 -0.159632,-0.0541 -0.32166,-0.10064 -0.48417,-0.14521 -0.181488,-0.0495 -0.363011,-0.099 -0.545612,-0.14428 -0.202743,-0.0464 -0.407346,-0.0849 -0.613127,-0.11518 -0.214765,-0.0285 -0.430406,-0.0498 -0.646171,-0.0692 -0.221846,-0.0171 -0.44414,-0.0304 -0.666774,-0.0226 -0.233897,0.008 -0.467513,0.0262 -0.700659,0.0462 -0.2429314,0.0233 -0.4863386,0.0435 -0.7278373,0.0794 -0.2507715,0.0331 -0.5009599,0.0702 -0.7489372,0.1206 -0.2485268,0.0476 -0.4974648,0.094 -0.7434255,0.15373 -0.250386,0.0633 -0.4981733,0.13639 -0.736564,0.23686 -0.2427877,0.10304 -0.4832196,0.21186 -0.7168197,0.33454 -0.2334069,0.11931 -0.4631552,0.24564 -0.6935531,0.37063 0.05809,-0.034 0.1166842,-0.0672 0.1742686,-0.10205 0.035404,-0.0214 -0.072132,0.0406 -0.1077148,0.0618 -0.1380982,0.082 -0.2709627,0.17216 -0.4033035,0.26306 -0.1907789,0.13132 -0.3773551,0.26911 -0.5558491,0.4168 -0.1646476,0.14382 -0.3250893,0.29253 -0.4737942,0.45301 -0.1421381,0.15107 -0.2724663,0.3134 -0.3719533,0.49628 -0.1077741,0.19593 -0.20803,0.39577 -0.29024,0.60397 -0.083108,0.20842 -0.1621957,0.41888 -0.2233123,0.63496 -0.053883,0.18741 -0.1023988,0.37653 -0.1355923,0.56885 -0.028537,0.18361 -0.051861,0.36859 -0.05667,0.55453 -0.00576,0.16789 -0.00473,0.33609 0.018076,0.5029 0.023677,0.15684 0.059436,0.3114 0.111933,0.46129 0.054984,0.15728 0.1225283,0.30999 0.2049719,0.45493 0.076825,0.12924 0.1556465,0.25691 0.2541868,0.3712 0.09638,0.10945 0.1955885,0.21669 0.3099007,0.30795 0.093915,0.0758 0.1908169,0.14913 0.2988122,0.20397 0,0 -0.2938225,0.19099 -0.2938225,0.19099 z"
       inkscape:connector-curvature="0"
       style="stroke-width:0.26458332" />
    <path
       id="path696"
       d="m 14.734835,286.94214 c 0.06871,-0.0675 0.129832,-0.14183 0.191845,-0.21536 0.06684,-0.0787 0.136994,-0.15451 0.206275,-0.23106 0.04898,-0.0523 0.100738,-0.10187 0.151967,-0.15193 0.04684,-0.0444 0.09835,-0.0836 0.150906,-0.12089 0.14221,-0.10005 0.294879,-0.18153 0.445512,-0.26886 -0.648615,0.39634 -0.349948,0.20112 -0.262292,0.15114 0.107941,-0.0616 0.227948,-0.16808 0.362537,-0.19278 0.02312,-0.0162 0.05013,-0.019 0.07718,-0.0235 0.02757,-0.002 0.05009,0.0167 0.07141,0.0313 0.02385,0.0258 0.03829,0.0589 0.05368,0.0901 0.02438,0.0468 0.02883,0.0987 0.03253,0.15037 -0.0042,0.093 -0.01267,0.18572 -0.017,0.27875 -7.67e-4,0.10253 -0.01105,0.2045 -0.01848,0.30666 -0.0089,0.0993 -0.02916,0.19686 -0.04889,0.29437 -0.02414,0.12341 -0.06075,0.24396 -0.103139,0.3622 -0.04539,0.13209 -0.101587,0.26004 -0.151175,0.39052 -0.03811,0.0995 -0.07757,0.19847 -0.116847,0.29751 -0.03452,0.0887 -0.07626,0.17426 -0.125177,0.2559 -0.03002,0.0498 -0.06206,0.0987 -0.09746,0.14486 -0.0038,0.004 -0.0077,0.008 -0.01148,0.0125 0,0 -0.325378,0.13295 -0.325378,0.13295 v 0 c 0.0044,-0.003 0.0088,-0.007 0.01323,-0.01 0.04345,-0.0382 0.07034,-0.0938 0.103626,-0.14027 0.05136,-0.079 0.09405,-0.16304 0.128665,-0.25072 0.04008,-0.0993 0.07928,-0.1989 0.119644,-0.2981 0.04923,-0.1307 0.10696,-0.25814 0.152025,-0.39045 0.04295,-0.11587 0.07854,-0.23482 0.102794,-0.35609 0.01826,-0.0965 0.04003,-0.19247 0.04995,-0.29042 0.0084,-0.10184 0.01926,-0.20352 0.01931,-0.30581 0.0039,-0.0914 0.0102,-0.18255 0.01583,-0.27381 -0.0029,-0.0469 -0.0057,-0.0945 -0.02765,-0.13704 -0.01317,-0.0254 -0.02382,-0.0549 -0.04551,-0.0743 -0.01764,-0.0119 -0.03508,-0.0156 -0.05549,-0.008 -0.02625,0.006 -0.04967,0.0186 -0.07582,0.0248 -0.01068,0.004 -0.06622,0.0326 -0.03936,0.017 0.09445,-0.055 0.18922,-0.10954 0.283888,-0.16421 0.0059,-0.003 -0.01182,0.007 -0.01773,0.0105 -0.10662,0.0615 -0.213239,0.12308 -0.319858,0.18461 0.534086,-0.31065 0.267012,-0.16065 0.151587,-0.0785 -0.05417,0.0341 -0.103734,0.0746 -0.153349,0.11495 -0.05146,0.0503 -0.103509,0.10007 -0.154238,0.15114 -0.07181,0.0747 -0.140018,0.15311 -0.209087,0.23039 -0.06114,0.0723 -0.120225,0.14636 -0.184782,0.21557 0,0 -0.324212,0.1343 -0.324212,0.1343 z"
       inkscape:connector-curvature="0"
       style="stroke-width:0.26458332" />
    <path
       id="path698"
       d="m 13.087109,287.66296 c -0.09053,-0.0317 -0.178951,-0.0688 -0.266584,-0.10773 -0.106025,-0.0453 -0.207376,-0.0999 -0.309906,-0.15242 -0.101692,-0.0486 -0.206788,-0.0895 -0.30901,-0.1369 -0.08743,-0.0359 -0.174348,-0.0729 -0.261793,-0.10873 -0.07257,-0.022 -0.144192,-0.047 -0.216426,-0.07 -0.04646,-0.0143 -0.09425,-0.0215 -0.142666,-0.024 -0.04905,-0.006 -0.06112,0.003 -0.102657,0.0226 -0.115537,0.0703 0.05117,-0.0314 0.260222,-0.14853 0.0082,-0.005 -0.01575,0.0104 -0.02292,0.0165 -0.02742,0.0233 -0.04883,0.0527 -0.07063,0.0809 -0.06467,0.0883 -0.101578,0.18906 -0.125926,0.29471 -0.02316,0.12119 -0.02525,0.24494 -0.02669,0.36791 0.0015,0.11451 0.01593,0.22828 0.04165,0.33974 0.02193,0.0993 0.06231,0.19013 0.11008,0.27914 0.04998,0.0842 0.115748,0.15636 0.187384,0.22248 0.06488,0.058 0.135248,0.10933 0.206698,0.15879 0.05412,0.0437 0.112372,0.0802 0.174429,0.11142 0.05781,0.0258 0.02894,0.0135 0.0866,0.0371 0,0 -0.288085,0.19229 -0.288085,0.19229 v 0 c -0.05827,-0.025 -0.02873,-0.0121 -0.08859,-0.0387 -0.06355,-0.0322 -0.122484,-0.0704 -0.177954,-0.11518 -0.07167,-0.0512 -0.141787,-0.10502 -0.207242,-0.16404 -0.07383,-0.0693 -0.141559,-0.14454 -0.193161,-0.23221 -0.04955,-0.0917 -0.0911,-0.18513 -0.113715,-0.28757 -0.02689,-0.11396 -0.04195,-0.23029 -0.04501,-0.34742 0.0019,-0.125 0.0036,-0.25061 0.02392,-0.37427 0.02237,-0.10866 0.0551,-0.21261 0.116521,-0.30629 0.108846,-0.15634 0.216552,-0.22722 0.427778,-0.30425 0.03687,-0.0145 0.07405,-0.0133 0.113097,-0.009 0.04949,0.006 0.09804,0.0163 0.145302,0.0322 0.07202,0.0245 0.144556,0.0475 0.216148,0.0732 0.08758,0.0361 0.174719,0.0732 0.261762,0.11058 0.102321,0.0473 0.20713,0.0892 0.308371,0.13894 0.1022,0.0522 0.204089,0.10489 0.30968,0.15014 0.08888,0.0387 0.178813,0.0746 0.271142,0.10431 0,0 -0.291801,0.19446 -0.291801,0.19446 z"
       inkscape:connector-curvature="0"
       style="stroke-width:0.26458332" />
    <path
       id="path700"
       d="m 13.493698,288.20667 c -0.05744,0.035 -0.115108,0.0697 -0.167873,0.11157 -0.03588,0.032 -0.06647,0.0697 -0.09032,0.11134 -0.02061,0.0369 -0.03151,0.0782 -0.04526,0.11802 -0.01272,0.0325 -0.01188,0.059 8.73e-4,0.0904 0.01718,0.0253 0.0339,0.0528 0.05701,0.0731 0.0267,0.0241 0.06265,0.0321 0.09624,0.0425 0.0452,0.0148 0.08906,0.0147 0.135295,0.008 0.0453,-0.002 0.08601,-0.0215 0.130096,-0.0301 0.228523,-0.11888 -0.372746,0.24173 -0.201806,0.1147 0.03104,-0.0245 0.05733,-0.0529 0.08265,-0.0831 0.03094,-0.0378 0.05873,-0.0779 0.08197,-0.12082 0.0223,-0.0438 0.04062,-0.0898 0.05382,-0.13713 0.01723,-0.0554 0.0274,-0.11214 0.03298,-0.1698 0.0057,-0.0435 -0.0022,-0.0844 -0.02222,-0.12305 -0.0311,-0.0413 -0.0835,-0.0474 -0.130024,-0.0603 -0.07275,-0.0212 -0.146434,-0.0184 -0.220892,-0.0127 -0.002,4.3e-4 -0.05931,0.0122 -0.06218,0.0135 -0.0095,0.004 -0.03464,0.0229 -0.0255,0.018 0.08981,-0.0486 0.175619,-0.10482 0.267674,-0.14904 0.01438,-0.007 -0.02205,0.0231 -0.0318,0.0358 -0.0097,0.0126 -0.0177,0.0265 -0.02656,0.0397 0,0 -0.316657,0.13947 -0.316657,0.13947 v 0 c 0.003,-0.005 0.04781,-0.0812 0.05272,-0.0845 0.151921,-0.10351 0.255965,-0.20342 0.422785,-0.21924 0.077,-0.004 0.153311,1.2e-4 0.227899,0.0218 0.0562,0.0152 0.113257,0.0321 0.14706,0.0835 0.02305,0.0437 0.0365,0.0916 0.03024,0.14139 -0.0048,0.0589 -0.01162,0.11766 -0.02975,0.17424 -0.01105,0.0503 -0.02994,0.098 -0.05035,0.14522 -0.02375,0.0442 -0.04787,0.0871 -0.07829,0.12719 -0.0258,0.0301 -0.04745,0.0642 -0.0807,0.0869 -0.01236,0.0139 -0.01331,0.0171 -0.02947,0.0267 -0.100573,0.0596 -0.237412,0.16984 -0.372618,0.20422 -0.04354,0.0117 -0.08657,0.0243 -0.132021,0.0264 -0.04927,0.003 -0.09726,-0.004 -0.144097,-0.0195 -0.03863,-0.013 -0.07728,-0.0253 -0.10644,-0.0555 -0.02408,-0.026 -0.04518,-0.055 -0.06354,-0.0853 -0.01629,-0.0378 -0.02537,-0.0718 -0.01172,-0.11249 0.01194,-0.0423 0.02805,-0.0834 0.04258,-0.1248 0.02432,-0.0444 0.05026,-0.0869 0.08683,-0.1227 0.04817,-0.0468 0.106773,-0.0818 0.164642,-0.11535 0,0 0.326737,-0.12784 0.326737,-0.12784 z"
       inkscape:connector-curvature="0"
       style="stroke-width:0.26458332" />
    <path
       id="path702"
       d="m 14.604003,287.62304 c -0.05192,0.0528 -0.09917,0.11558 -0.141127,0.18826 -0.02864,0.0518 -0.03178,0.0976 -0.01428,0.15857 0.02148,0.0571 0.05515,0.0917 0.08605,0.13274 0.03036,0.0427 0.07058,0.042 0.106408,0.0626 0.0391,0.0271 0.07639,0.0188 0.11677,0.008 0.03588,-0.008 0.06997,-0.0345 0.101747,-0.0626 -0.515791,0.49417 -0.309576,0.31887 -0.208767,0.1689 0.02533,-0.0397 0.05258,-0.074 0.07447,-0.11934 0.02167,-0.0459 0.04629,-0.0876 0.06886,-0.13225 0.01347,-0.0373 0.03307,-0.0672 0.04291,-0.10773 0.007,-0.0296 0.0072,-0.0482 -0.0072,-0.0696 -0.02635,-0.0433 -0.05869,-0.0399 -0.09199,-0.024 -0.03811,0.0391 -0.01872,0.0191 -0.05815,0.06 0,0 0.270672,-0.35803 0.270672,-0.35803 v 0 c 0.0433,-0.0365 0.02078,-0.0213 0.06761,-0.0451 0.0434,-0.002 0.08215,0.0147 0.1129,0.0674 0.01932,0.0365 0.03071,0.074 0.02466,0.12309 -0.0066,0.0481 -0.0174,0.0884 -0.03984,0.12294 -0.0167,0.0548 -0.04639,0.0899 -0.06698,0.14026 -0.01678,0.0285 -0.02768,0.0654 -0.04676,0.0904 -0.0042,0.005 -0.0097,0.008 -0.01392,0.0131 -0.0046,0.007 -0.0084,0.0131 -0.01261,0.0203 -0.113962,0.18364 -0.227791,0.28692 -0.390641,0.40737 -0.03465,0.024 -0.07064,0.0428 -0.108422,0.0472 -0.04329,0.007 -0.08438,-0.002 -0.125335,-0.0271 -0.04081,-0.0164 -0.08087,-0.035 -0.113356,-0.0813 -0.03558,-0.0451 -0.07038,-0.0904 -0.09413,-0.15449 -0.02275,-0.0737 -0.03227,-0.14435 -0.003,-0.2182 0.03712,-0.0812 0.08594,-0.14534 0.136633,-0.20298 0,0 0.326737,-0.20899 0.326737,-0.20899 z"
       inkscape:connector-curvature="0"
       style="stroke-width:0.33829087" />
    <path
       id="path706"
       d="m 14.122843,289.13815 c 0.02045,0.0552 0.04923,0.1067 0.08301,0.15476 0.0229,0.0235 0.04574,0.0469 0.07322,0.065 0.01434,0.0112 0.02572,0.0246 0.04374,0.0273 0.0018,2.1e-4 0.0041,0.002 0.0054,6.3e-4 0.0021,-0.002 9.53e-4,-0.006 0.0024,-0.009 0.0013,-0.002 0.0079,-0.007 0.0056,-0.006 -0.24397,0.13866 -0.386437,0.24052 -0.277776,0.155 0.02522,-0.0283 0.03716,-0.065 0.05044,-0.0999 0.0162,-0.0467 0.0303,-0.0941 0.047,-0.14059 0.0111,-0.034 0.02349,-0.0674 0.03668,-0.10061 0.0073,-0.0158 0.01139,-0.0327 0.01278,-0.0499 -0.0038,-0.008 0.0073,-0.0152 0.0042,-8e-5 -5.03e-4,0.002 -0.0026,-0.004 -0.0045,-0.006 -0.0031,-0.003 -0.0075,-0.003 -0.01113,-0.005 -0.03188,0.003 -0.06746,0.0138 -0.09877,0.0255 -0.01042,0.004 -0.02089,0.009 -0.03125,0.013 -0.03719,0.0161 -0.03532,0.0155 -0.07171,0.0346 -0.01267,0.007 -0.05029,0.0274 -0.03789,0.0203 0.291862,-0.1687 0.335285,-0.1988 0.214041,-0.11849 -0.05738,0.043 -0.0298,0.0214 -0.08285,0.0644 0,0 -0.320673,0.12915 -0.320673,0.12915 v 0 c 0.05324,-0.0442 0.02595,-0.0219 0.08193,-0.067 0.161119,-0.11751 0.338114,-0.21831 0.52451,-0.29007 0.03846,-0.0105 0.08285,-0.0251 0.119368,-0.002 0.0145,0.0104 0.03222,0.0241 0.03022,0.0438 -8.47e-4,0.0207 -0.0022,0.0411 -0.0085,0.061 -0.01438,0.0332 -0.02969,0.0654 -0.03859,0.10053 -0.01888,0.0456 -0.03266,0.093 -0.04757,0.13996 -0.01283,0.0377 -0.0252,0.0756 -0.04368,0.11018 -0.0062,0.0109 -0.005,0.0124 -0.01515,0.0185 -0.0795,0.0476 -0.216252,0.22843 -0.337318,0.17556 -0.01797,-0.009 -0.03188,-0.0245 -0.04859,-0.0359 -0.02836,-0.0226 -0.05383,-0.0487 -0.07724,-0.0763 -0.03435,-0.0505 -0.06234,-0.10474 -0.08711,-0.16049 0,0 0.305742,-0.17171 0.305742,-0.17171 z"
       inkscape:connector-curvature="0"
       style="stroke-width:0.26458332" />
    <path
       id="path708"
       d="m 14.250434,289.592 c -0.04399,0.0548 -0.0834,0.11295 -0.126325,0.16859 -0.03143,0.0386 -0.06265,0.0783 -0.102061,0.10904 -0.148023,0.11894 -0.268972,0.19755 -0.43996,0.20654 -0.0753,-0.004 -0.144727,-0.0317 -0.21419,-0.0584 -0.06516,-0.0276 -0.133016,-0.0483 -0.200329,-0.07 0,0 0.286034,-0.19416 0.286034,-0.19416 v 0 c 0.06733,0.0229 0.135302,0.0442 0.201371,0.0707 0.06727,0.0238 0.135706,0.0488 0.208334,0.044 0.02479,-0.003 0.04902,-0.006 0.0727,-0.014 0.0069,-0.002 0.02668,-0.0122 0.02036,-0.008 -0.250451,0.14856 -0.379829,0.21132 -0.260208,0.15276 0.01211,-0.008 0.02513,-0.015 0.03658,-0.024 0.02709,-0.0214 0.04459,-0.0534 0.07088,-0.0759 0.04143,-0.0565 0.08676,-0.11004 0.124162,-0.16957 0,0 0.322651,-0.13709 0.322651,-0.13709 z"
       inkscape:connector-curvature="0"
       style="stroke-width:0.26458332" />
    <path
       id="path710"
       d="m 14.313141,289.48685 c 0.0379,0.0513 0.08774,0.0987 0.150483,0.11717 0.01841,0.005 0.03768,0.007 0.05652,0.0109 0.187578,0.002 0.35152,-0.0939 0.512395,-0.17867 0,0 -0.258168,0.20714 -0.258168,0.20714 v 0 c -0.168027,0.0858 -0.341647,0.18333 -0.536886,0.16748 -0.02065,-0.005 -0.04186,-0.009 -0.06195,-0.0158 -0.06756,-0.0239 -0.120834,-0.0766 -0.165111,-0.13089 0,0 0.302715,-0.17738 0.302715,-0.17738 z"
       inkscape:connector-curvature="0"
       style="stroke-width:0.26458332" />
    <path
       id="path712"
       d="m 14.210298,289.63768 c 0.01549,-0.046 0.0077,-0.0227 0.02347,-0.0699 0,0 0.314907,-0.14792 0.314907,-0.14792 v 0 c -0.01518,0.0459 -0.008,0.0235 -0.02148,0.0673 0,0 -0.316897,0.15052 -0.316897,0.15052 z"
       inkscape:connector-curvature="0"
       style="stroke-width:0.26458332" />
    <path
       id="path714"
       d="m 15.21816,288.92014 c 0.143068,-0.10165 0.288286,-0.20013 0.436629,-0.29391 0.296562,-0.17717 0.593106,-0.35505 0.89789,-0.51782 0.15561,-0.0859 0.311785,-0.17082 0.4662,-0.25891 0,0 -0.264291,0.21362 -0.264291,0.21362 v 0 c -0.153567,0.086 -0.30811,0.17014 -0.462357,0.25486 -0.174822,0.0943 -0.118388,0.0655 0.07989,-0.052 0.0338,-0.02 -0.0679,0.0395 -0.101753,0.0595 -0.101069,0.0595 -0.202514,0.11836 -0.302706,0.17932 -0.145141,0.0903 -0.28785,0.18519 -0.42439,0.28813 0,0 -0.325109,0.1272 -0.325109,0.1272 z"
       inkscape:connector-curvature="0"
       style="stroke-width:0.26458332" />
    <path
       id="path716"
       d="m 15.590653,288.8685 c 0.185955,-0.0865 0.37108,-0.17486 0.55714,-0.26118 0.255998,-0.11407 0.511867,-0.22832 0.769874,-0.3378 0.03653,-0.0155 0.07306,-0.031 0.109584,-0.0464 0,0 -0.262337,0.20703 -0.262337,0.20703 v 0 c -0.03572,0.0149 -0.07144,0.0298 -0.107155,0.0447 -0.257782,0.10959 -0.513705,0.22337 -0.769008,0.3386 -0.190828,0.0897 -0.381565,0.17963 -0.570582,0.27307 0,0 0.272484,-0.21796 0.272484,-0.21796 z"
       inkscape:connector-curvature="0"
       style="stroke-width:0.26458332" />
    <path
       id="path718"
       d="m 15.383904,289.11713 c 0.212628,-0.0367 0.422732,-0.0865 0.631804,-0.13954 0.274497,-0.0734 0.548441,-0.14884 0.820818,-0.22975 0.03168,-0.01 0.06335,-0.0195 0.09503,-0.0292 0,0 -0.267239,0.20627 -0.267239,0.20627 v 0 c -0.03075,0.009 -0.0615,0.0179 -0.09225,0.0268 -0.271885,0.0778 -0.54452,0.15296 -0.817743,0.22592 -0.215187,0.0547 -0.431292,0.10577 -0.648977,0.14965 0,0 0.278558,-0.21014 0.278558,-0.21014 z"
       inkscape:connector-curvature="0"
       style="stroke-width:0.26458332" />
    <path
       id="path720"
       d="m 13.254973,289.53874 c -0.12379,-0.0154 -0.248816,-0.0184 -0.373404,-0.0167 -0.227925,0.003 -0.454443,0.0321 -0.680344,0.06 -0.23291,0.0223 -0.46385,0.0591 -0.693792,0.10164 -0.205163,0.0365 -0.407885,0.0842 -0.608956,0.13856 -0.142643,0.0464 -0.280579,0.10578 -0.41965,0.16172 0,0 0.270171,-0.2124 0.270171,-0.2124 v 0 c 0.138287,-0.0546 0.275098,-0.11403 0.41817,-0.15541 0.200816,-0.0525 0.403329,-0.0977 0.60769,-0.13427 0.229959,-0.0417 0.461045,-0.076 0.693685,-0.0991 0.228197,-0.0274 0.456753,-0.0573 0.686907,-0.0604 0.128893,-0.002 0.257997,6.3e-4 0.386325,0.014 0,0 -0.286802,0.20222 -0.286802,0.20222 z"
       inkscape:connector-curvature="0"
       style="stroke-width:0.26458332" />
    <path
       id="path722"
       d="m 12.519328,289.83915 c -0.177571,0.0577 -0.346819,0.13686 -0.515054,0.21706 -0.03904,0.0196 -0.07848,0.0384 -0.117125,0.0588 -0.04021,0.0212 -0.07983,0.0435 -0.119396,0.0659 -0.04045,0.0229 -0.162223,0.0906 -0.120657,0.0699 0.05606,-0.028 0.105689,-0.0692 0.164212,-0.0917 0.04204,-0.0161 -0.07621,0.048 -0.114042,0.0724 -0.03563,0.023 -0.0709,0.0465 -0.106355,0.0698 -0.153309,0.10213 -0.300616,0.21255 -0.448139,0.32273 -0.01406,0.0104 -0.02812,0.0208 -0.04217,0.0312 0,0 -0.320937,0.1271 -0.320937,0.1271 v 0 c 0.01474,-0.0106 0.02948,-0.0211 0.04422,-0.0317 0.151608,-0.11069 0.301204,-0.22406 0.457389,-0.32835 0.317016,-0.20868 0.644001,-0.40334 0.983344,-0.57347 0.173527,-0.0824 0.348535,-0.16271 0.531192,-0.22311 0,0 -0.27648,0.21346 -0.27648,0.21346 z"
       inkscape:connector-curvature="0"
       style="stroke-width:0.26458332" />
    <path
       id="path724"
       d="m 12.621049,290.36428 c -0.0896,0.0484 -0.248632,0.13479 0.205356,-0.11801 0.0208,-0.0116 -0.04086,0.0244 -0.06105,0.037 -0.07102,0.0443 -0.139654,0.0916 -0.207825,0.14009 -0.178781,0.12512 -0.325955,0.28464 -0.467664,0.44888 -0.232287,0.2948 -0.413523,0.62602 -0.596619,0.95254 0,0 -0.290934,0.12986 -0.290934,0.12986 v 0 c 0.184003,-0.32331 0.357014,-0.65574 0.582203,-0.95302 0.138405,-0.16527 0.281201,-0.32698 0.457492,-0.45342 0.20623,-0.15136 0.426528,-0.28242 0.65237,-0.4026 0,0 -0.273329,0.21864 -0.273329,0.21864 z"
       inkscape:connector-curvature="0"
       style="stroke-width:0.26458332" />
    <path
       id="path728"
       d="m 12.312522,289.12798 c -0.0668,0.0456 -0.132397,0.0931 -0.196231,0.14284 -0.07173,0.0542 -0.141877,0.11024 -0.210346,0.16844 -0.06037,0.0517 -0.122308,0.10197 -0.175992,0.16079 -0.03137,0.033 -0.05638,0.0675 -0.05857,0.11377 0.0011,0.0423 0.01911,0.0802 0.04276,0.1143 0.0429,0.0648 0.102006,0.1154 0.164638,0.16025 0.104435,0.0658 0.212838,0.1253 0.322868,0.18125 0.126217,0.0679 0.256878,0.12696 0.385657,0.18977 0.123407,0.0567 0.244241,0.11864 0.365458,0.17983 0.125777,0.0621 0.255289,0.11632 0.385172,0.16919 0.116659,0.0485 0.230454,0.10442 0.342546,0.16271 0.08442,0.0399 0.166806,0.0836 0.248744,0.12828 0.06831,0.0423 0.140337,0.0779 0.211043,0.11588 0.05396,0.0244 0.110444,0.0443 0.159767,0.0776 0.02766,0.0171 0.05644,0.0354 0.07773,0.0603 0.01645,0.0186 0.02171,0.0408 0.02365,0.0649 0.0042,0.0411 -0.01174,0.0762 -0.03296,0.11024 -0.03805,0.0533 -0.089,0.096 -0.141674,0.13427 -0.156155,0.11423 -0.316886,0.2037 -0.496919,0.26238 -0.07501,0.0249 -0.153974,0.0282 -0.232229,0.0311 -0.08999,0.005 -0.179502,0.002 -0.269123,-0.006 -0.104,-0.008 -0.206899,-0.0275 -0.309005,-0.0484 -0.121031,-0.0194 -0.238719,-0.0534 -0.354746,-0.0922 -0.120775,-0.0365 -0.233216,-0.0924 -0.345646,-0.14858 -0.107987,-0.06 -0.218928,-0.11467 -0.32541,-0.17727 -0.104372,-0.0589 -0.206272,-0.12158 -0.306619,-0.18708 -0.102557,-0.0656 -0.208756,-0.12521 -0.316512,-0.18183 -0.100057,-0.0486 -0.194824,-0.10658 -0.289954,-0.16392 -0.08487,-0.0504 -0.170706,-0.0992 -0.252671,-0.15424 -0.07172,-0.0484 -0.13814,-0.10461 -0.203427,-0.16132 -0.05929,-0.0469 -0.117828,-0.094 -0.169591,-0.1492 -0.03855,-0.0465 -0.08293,-0.0872 -0.124401,-0.13082 -0.03913,-0.0391 -0.07011,-0.0841 -0.0907,-0.1353 -0.01482,-0.0502 -0.01836,-0.10268 -0.02009,-0.15468 -5.56e-4,-0.0412 -5.3e-4,-0.0825 -2.54e-4,-0.12375 -2.91e-4,-0.0407 -7.93e-4,-0.081 0.0057,-0.12129 0,0 0.315516,-0.1533 0.315516,-0.1533 v 0 c -0.0086,0.0383 -0.0099,0.0761 -0.0083,0.11537 -1.88e-4,0.041 -0.0011,0.082 -6.35e-4,0.12307 6.35e-4,0.0483 0.0015,0.0972 0.01398,0.1442 0.01764,0.0476 0.04745,0.088 0.08344,0.12371 0.04151,0.0436 0.08466,0.0856 0.123684,0.13151 0.05093,0.0542 0.108913,0.10019 0.166658,0.14692 0.06406,0.056 0.129531,0.11104 0.20064,0.15795 0.08129,0.0547 0.166256,0.10342 0.250224,0.15381 0.09439,0.0571 0.189303,0.11332 0.287857,0.16298 0.108211,0.0578 0.215534,0.11749 0.318439,0.18433 0.0999,0.0653 0.202194,0.12634 0.305855,0.18546 0.106395,0.0613 0.215356,0.11808 0.323744,0.17571 0.111205,0.0554 0.223295,0.10882 0.342692,0.1446 0.115663,0.0376 0.233102,0.0686 0.353298,0.088 0.101903,0.0192 0.204261,0.0377 0.307885,0.0444 0.08897,0.007 0.177967,0.006 0.267085,0.002 0.07718,-0.005 0.154261,-0.0125 0.227418,-0.0394 0.03488,-0.0119 0.06872,-0.0239 0.101748,-0.0405 0.01085,-0.005 0.0426,-0.0232 0.03216,-0.0171 -0.307603,0.18202 -0.347804,0.20913 -0.236092,0.13583 0.05337,-0.0337 0.103382,-0.074 0.14485,-0.12169 0.02003,-0.0257 0.04272,-0.0541 0.04119,-0.0883 -5.02e-4,-0.0164 2.8e-5,-0.0311 -0.01191,-0.0439 -0.02135,-0.0208 -0.04603,-0.038 -0.07135,-0.0536 -0.04983,-0.0303 -0.10449,-0.0507 -0.156721,-0.0763 -0.07042,-0.038 -0.140566,-0.0764 -0.209465,-0.11708 -0.08165,-0.0442 -0.164019,-0.0868 -0.246735,-0.12894 -0.110767,-0.0582 -0.223564,-0.11332 -0.339278,-0.16104 -0.130268,-0.0537 -0.259849,-0.10928 -0.386298,-0.17152 -0.1216,-0.0602 -0.24207,-0.1226 -0.365196,-0.17964 -0.128821,-0.0631 -0.259444,-0.12257 -0.385987,-0.19027 -0.111647,-0.0572 -0.223281,-0.1155 -0.328634,-0.18376 -0.06575,-0.0477 -0.127978,-0.10073 -0.174363,-0.16822 -0.0273,-0.0396 -0.04977,-0.0836 -0.05342,-0.1323 -0.003,-0.0567 0.0092,-0.0953 0.04899,-0.13756 0.05304,-0.0618 0.114493,-0.11465 0.177044,-0.16665 0.06851,-0.0577 0.135999,-0.11663 0.208816,-0.16903 0.06234,-0.0502 0.12757,-0.0964 0.191791,-0.14416 0,0 0.326737,-0.12784 0.326737,-0.12784 z"
       inkscape:connector-curvature="0"
       style="stroke-width:0.26458332" />
    <path
       id="path730"
       d="m 10.575987,289.92171 c 0.0051,0.0536 0.01642,0.10681 0.01683,0.16077 3.7e-4,0.0357 -0.01481,0.0663 -0.0285,0.0982 -0.01937,0.0358 -0.04018,0.0701 -0.0666,0.1011 -0.03908,0.0476 -0.08827,0.083 -0.139044,0.11684 -0.169906,0.10354 -0.337279,0.2158 -0.5244024,0.28526 -0.092889,0.0393 -0.1902362,0.0646 -0.2871351,0.0915 -0.1073356,0.0222 -0.2150094,0.0432 -0.3228628,0.0629 -0.101713,0.0167 -0.2032394,0.0344 -0.3048598,0.0517 -0.092625,0.0151 -0.1864799,0.0193 -0.2801398,0.0219 -0.081197,10e-4 -0.1624089,0.002 -0.2436151,10e-4 -0.071259,-5e-5 -0.1425186,-8e-5 -0.2137778,-10e-6 -0.065862,8e-4 -0.1311066,0.0128 -0.1967851,0.0185 -0.056823,0.004 -0.1137756,0.005 -0.1707156,0.006 -0.036397,0.004 -0.077268,-0.008 -0.1117772,0.006 -0.1741654,0.0792 0.379281,-0.22886 0.2448111,-0.14389 -0.010533,0.0103 -0.024061,0.0197 -0.032293,0.0319 -0.00966,-0.003 0.025815,0.0318 0.028899,0.0347 0.038432,0.0298 0.081508,0.0514 0.1228807,0.0767 0.057912,0.0416 0.1213821,0.0743 0.1832197,0.10947 0.072238,0.0341 0.1441305,0.0688 0.2188282,0.0973 0.070059,0.0293 0.1406358,0.0573 0.2109755,0.0859 0.064632,0.0216 0.1257094,0.052 0.1887879,0.0773 0.070071,0.0313 0.1394563,0.0645 0.21146,0.0912 0.077925,0.0337 0.1577459,0.0622 0.2378369,0.0903 0.089813,0.0295 0.1802204,0.0546 0.2721189,0.0766 0.104249,0.0235 0.2094545,0.0419 0.3147142,0.0601 0.1047196,0.0221 0.2087456,0.048 0.3120776,0.0759 0.09672,0.0284 0.192654,0.0592 0.288522,0.0903 0.08964,0.03 0.17886,0.0611 0.267191,0.0948 0.07137,0.0239 0.140123,0.0548 0.206829,0.0896 0.06146,0.0378 0.124364,0.0729 0.185938,0.11057 0.05766,0.0308 0.113523,0.0649 0.16937,0.0988 0.0398,0.0298 0.08165,0.0567 0.121047,0.0871 0.03759,0.0274 0.07133,0.0587 0.103772,0.092 0.0285,0.0265 0.05132,0.0582 0.07093,0.0916 0.02084,0.0328 0.02542,0.0708 0.02903,0.10854 0.002,0.0351 0.0033,0.0704 7.14e-4,0.10552 -0.0069,0.0299 -0.01425,0.0596 -0.01884,0.0899 -0.003,0.0239 -0.0032,0.0481 -0.0036,0.0721 9.26e-4,0.0238 -0.012,0.0441 -0.01799,0.0665 -0.0018,0.0231 -0.01,0.0445 -0.02017,0.0651 -0.0026,0.0202 -0.01577,0.0354 -0.02263,0.0541 -0.01697,0.0161 -0.03323,0.033 -0.05178,0.0478 -0.105601,0.0786 -0.192734,0.11454 -0.334576,0.19636 -0.09602,0.0554 0.385326,-0.21936 0.288192,-0.16595 -0.351236,0.19315 -0.197995,0.14628 -0.333789,0.18649 -0.03705,0.0167 -0.07586,0.0292 -0.114335,0.0421 -0.05023,0.0137 -0.100059,0.0282 -0.149852,0.0434 -0.04947,0.0156 -0.0979,0.0314 -0.14947,0.0389 -0.05173,0.0162 -0.106013,0.022 -0.159847,0.0261 -0.0483,0.003 -0.09729,0.007 -0.145158,-10e-4 -0.04722,-0.0104 -0.09513,-0.0151 -0.14332,-0.0177 -0.05656,-0.002 -0.113174,-0.002 -0.169765,-0.002 -0.071,-0.001 -0.1421122,0.003 -0.2128483,-0.004 -0.080029,-0.0113 -0.1610669,-0.0116 -0.2411539,-0.0215 -0.086415,-0.008 -0.1719218,-0.0212 -0.2579209,-0.0321 -0.094044,-0.018 -0.1892607,-0.0283 -0.2840749,-0.0414 -0.1008499,-0.0172 -0.2009185,-0.038 -0.2994483,-0.0655 -0.1046794,-0.0245 -0.2093904,-0.0489 -0.3134243,-0.0762 -0.109569,-0.0303 -0.2191552,-0.0604 -0.3284813,-0.0916 -0.1153117,-0.0304 -0.2291461,-0.066 -0.3438342,-0.0987 -0.1110094,-0.031 -0.2177942,-0.0746 -0.324811,-0.11694 -0.1084048,-0.0374 -0.2152348,-0.079 -0.3224609,-0.11956 -0.1128961,-0.0443 -0.2246572,-0.091 -0.3393858,-0.13046 -0.1172649,-0.0464 -0.232605,-0.097 -0.3514775,-0.13932 -0.1087218,-0.0421 -0.2189539,-0.0795 -0.3289668,-0.11805 -0.1011619,-0.0357 -0.1986539,-0.0802 -0.2936827,-0.12973 -0.091687,-0.0451 -0.1770129,-0.10136 -0.2628138,-0.15653 -0.084873,-0.054 -0.1654916,-0.11411 -0.2470687,-0.17285 -0.085961,-0.0541 -0.1642036,-0.11867 -0.2439528,-0.1812 -0.067937,-0.0538 -0.1297474,-0.1148 -0.1963983,-0.17019 -0.051999,-0.0462 -0.09975,-0.0965 -0.1530623,-0.14125 -0.026969,-0.0274 -0.057359,-0.0511 -0.086983,-0.0755 0,0 0.2979692,-0.18602 0.2979692,-0.18602 v 0 c 0.028848,0.0251 0.058171,0.0496 0.085175,0.0768 0.052446,0.0453 0.099394,0.0962 0.1512945,0.14206 0.065865,0.0557 0.1275316,0.11624 0.1952318,0.16973 0.078786,0.0627 0.1569387,0.12625 0.2419964,0.18057 0.081303,0.0584 0.1627526,0.11648 0.2466848,0.17103 0.084892,0.0549 0.1701636,0.10923 0.2611165,0.15374 0.093802,0.0484 0.1901126,0.0917 0.28996,0.1263 0.1100093,0.0383 0.2195979,0.0773 0.3284398,0.1188 0.1184722,0.0431 0.2332045,0.0953 0.3515135,0.13882 0.1146505,0.0402 0.2262158,0.0881 0.3397266,0.13129 0.1075843,0.0401 0.2150358,0.0805 0.3229054,0.11986 0.1064718,0.0414 0.2128919,0.0836 0.3230745,0.11431 0.1144474,0.0338 0.2289233,0.0672 0.3441562,0.0982 0.1092597,0.0308 0.2185403,0.0616 0.3282749,0.0907 0.104357,0.0266 0.2093407,0.0505 0.3138752,0.0763 0.098024,0.0254 0.1971157,0.0464 0.2972351,0.0618 0.095056,0.013 0.1904283,0.0237 0.284943,0.0405 0.085765,0.0115 0.1714479,0.0232 0.2576457,0.0312 0.080294,0.007 0.1608216,0.0114 0.2409786,0.0203 0.07082,0.003 0.141736,6.9e-4 0.212618,10e-4 0.05729,1.7e-4 0.114623,2.1e-4 0.17184,0.004 0.04838,0.004 0.09614,0.0114 0.144049,0.0189 0.04698,0.002 0.09402,-1.7e-4 0.140861,-0.004 0.05353,-0.006 0.106078,-0.0161 0.15841,-0.0287 0.04982,-0.0106 0.0975,-0.0281 0.146483,-0.0419 0.04985,-0.0154 0.100634,-0.0277 0.149818,-0.0452 0.03808,-0.0142 0.07697,-0.0261 0.113818,-0.0435 0.0053,-0.003 0.02099,-0.0112 0.01585,-0.008 -0.09526,0.0555 -0.381728,0.22079 -0.286231,0.1657 1.032563,-0.59559 -0.206101,0.11959 0.04656,-0.0278 0.01979,-0.0125 0.03935,-0.0254 0.0532,-0.0431 0.0027,-2.4e-4 0.0058,7.7e-4 0.0081,-7.1e-4 0.0066,-0.004 0.0081,-0.0188 0.01353,-0.0245 0.01108,-0.0114 0.0042,0.009 0.0085,-0.0127 0.0043,-0.0221 0.01975,-0.0395 0.02273,-0.061 0.0021,-0.0224 0.0063,-0.0432 0.02048,-0.0613 -1.42e-4,-0.0253 -5.5e-5,-0.0506 0.0021,-0.0758 0.0027,-0.0312 0.0086,-0.0622 0.01806,-0.0921 0.01061,-0.0306 0.002,-0.0656 0.0037,-0.0975 -0.0018,-0.0327 -0.0037,-0.0658 -0.02117,-0.0945 -0.0184,-0.031 -0.03994,-0.0596 -0.06616,-0.0845 -0.03152,-0.0318 -0.06431,-0.0617 -0.100883,-0.0878 -0.03897,-0.029 -0.0788,-0.057 -0.118686,-0.0847 -0.05491,-0.0348 -0.111041,-0.0676 -0.167701,-0.0995 -0.06121,-0.0368 -0.123108,-0.0724 -0.184791,-0.10827 -0.06613,-0.033 -0.133694,-0.0629 -0.203545,-0.0872 -0.08784,-0.0331 -0.176097,-0.0649 -0.265354,-0.094 -0.09548,-0.0306 -0.190732,-0.0618 -0.2872668,-0.089 -0.1027911,-0.027 -0.2057701,-0.0542 -0.310316,-0.0736 -0.1055817,-0.0191 -0.2113224,-0.0375 -0.3158961,-0.0617 -0.093115,-0.0219 -0.1844172,-0.049 -0.2753664,-0.0787 -0.080456,-0.0279 -0.1597618,-0.0587 -0.2384991,-0.0911 -0.071952,-0.0282 -0.1422258,-0.0603 -0.2129933,-0.0913 -0.062524,-0.0265 -0.1247773,-0.0536 -0.1884529,-0.0773 -0.070364,-0.0282 -0.140131,-0.0579 -0.2105404,-0.0859 -0.07515,-0.0308 -0.148767,-0.065 -0.2213731,-0.10131 -0.062501,-0.035 -0.1256366,-0.0689 -0.1848504,-0.10934 -0.044185,-0.0255 -0.089842,-0.049 -0.1292053,-0.0819 -0.021061,-0.0201 -0.042934,-0.0431 -0.050328,-0.0719 0.0052,-0.0188 0.012615,-0.0314 0.026315,-0.0457 0.087999,-0.10744 0.2277353,-0.17302 0.362644,-0.20139 0.038074,-4.7e-4 0.076154,5.1e-4 0.1142296,-1.8e-4 0.056041,-6.4e-4 0.1121206,-0.002 0.1679506,-0.007 0.066026,-0.006 0.1318522,-0.0177 0.1984076,-0.0157 0.071026,1.7e-4 0.1420506,3.4e-4 0.2130761,5.2e-4 0.080768,-2e-5 0.1615543,6.1e-4 0.2423001,-0.002 0.092544,-0.003 0.1851599,-0.009 0.276456,-0.0251 0.1011947,-0.0175 0.202592,-0.0338 0.3037605,-0.0515 0.107375,-0.0204 0.2152038,-0.0394 0.3213544,-0.0655 0.096944,-0.0267 0.1929749,-0.0562 0.2858449,-0.0952 0.04436,-0.0187 0.03952,-0.016 0.08262,-0.0369 0.01281,-0.006 0.05046,-0.0265 0.03822,-0.0192 -0.47479,0.28377 -0.2976163,0.1732 -0.193365,0.11137 0.05021,-0.0315 0.101342,-0.0623 0.140519,-0.10762 0.02748,-0.0284 0.05175,-0.0574 0.06842,-0.0936 0.01842,-0.0239 0.02947,-0.0548 0.03627,-0.0838 0.0071,-0.0512 -0.0082,-0.10367 -0.0138,-0.15447 0,0 0.310385,-0.16374 0.310385,-0.16374 z"
       inkscape:connector-curvature="0"
       style="stroke-width:0.26458332" />
    <path
       id="path732"
       d="m 4.6963019,291.27772 c -0.051054,0.0324 -0.098124,0.0704 -0.1428501,0.111 -0.023974,0.0199 -0.047168,0.0408 -0.067347,0.0646 -0.01171,0.0233 -0.024715,0.0459 -0.031784,0.0711 -0.00872,0.0475 -0.00829,0.0962 -0.00913,0.14431 -0.00188,0.086 0.00942,0.1716 0.021685,0.2565 0.00923,0.0913 0.033076,0.18005 0.061461,0.26702 0.023569,0.0872 0.060184,0.16961 0.095346,0.2525 0.036486,0.0866 0.077063,0.17127 0.1228466,0.25334 0.054614,0.0894 0.1106855,0.17783 0.1708407,0.26362 0.068816,0.0905 0.1413144,0.17877 0.2230204,0.25799 0.088594,0.0897 0.1832213,0.17264 0.2817638,0.25111 0.1043527,0.0896 0.2159738,0.16902 0.3291647,0.24681 0.1124519,0.0778 0.2229567,0.15835 0.3343296,0.23767 0.1055124,0.079 0.2133727,0.15469 0.3216868,0.22976 0.1130244,0.0769 0.2259719,0.15361 0.3424623,0.22521 0.1153525,0.0753 0.232079,0.14787 0.3558379,0.20855 0.1202505,0.0639 0.2435934,0.12149 0.3685609,0.17542 0.1131689,0.0559 0.226805,0.1109 0.3405184,0.16573 0.1089809,0.0497 0.2192039,0.0966 0.3286274,0.14534 0.1064712,0.0484 0.2136592,0.0952 0.321029,0.14152 0.1089779,0.0478 0.219411,0.0922 0.3260442,0.14519 0.098973,0.0542 0.2015127,0.10072 0.3036239,0.1485 0.084768,0.0319 0.167101,0.0695 0.2501381,0.10554 0.064427,0.0304 0.1305648,0.0568 0.1912018,0.0945 0.04235,0.0262 0.08694,0.0483 0.129552,0.074 0.0305,0.0173 0.0497,0.0447 0.06988,0.0722 0.01244,0.0216 0.02814,0.0403 0.04001,0.0623 0.0083,0.0215 0.01405,0.0454 0.0076,0.068 -0.0043,0.0199 -0.01517,0.0322 -0.02751,0.0473 -0.0016,0.003 -0.0024,0.007 -0.0047,0.009 -0.0047,0.005 -0.01738,0.0127 -0.02377,0.0163 -0.183148,0.10523 -0.207327,0.17014 -0.3447567,0.18388 -0.049048,0.0152 -0.1002099,0.0195 -0.1511586,0.0227 -0.078017,0.007 -0.1553448,-0.003 -0.2329159,-0.01 -0.109606,-0.007 -0.2176775,-0.0278 -0.3265662,-0.0414 -0.1330658,-0.0183 -0.2655165,-0.0406 -0.3983048,-0.0608 -0.1436182,-0.0248 -0.287823,-0.0459 -0.4309166,-0.0737 -0.1584097,-0.0292 -0.3169705,-0.0578 -0.4747696,-0.0902 -0.1590691,-0.0341 -0.3182175,-0.0669 -0.4756483,-0.10804 -0.1474211,-0.0399 -0.2937053,-0.0829 -0.4328155,-0.14631 -0.1396997,-0.065 -0.2767711,-0.13539 -0.4131252,-0.20705 -0.14175,-0.072 -0.2821744,-0.14668 -0.4207631,-0.22456 -0.1447372,-0.0793 -0.2792699,-0.17439 -0.4127342,-0.27097 -0.1219938,-0.0849 -0.2354574,-0.1808 -0.3451148,-0.2809 -0.100199,-0.0968 -0.194474,-0.19924 -0.2900656,-0.30048 -0.097125,-0.10014 -0.1914898,-0.20297 -0.2830441,-0.30823 -0.101613,-0.11763 -0.186595,-0.2482 -0.2648392,-0.38215 -0.064646,-0.11438 -0.1246685,-0.23123 -0.1882873,-0.34616 -0.043567,-0.0849 -0.098654,-0.1632 -0.1433658,-0.24739 -0.02467,-0.0454 -0.039966,-0.0949 -0.057047,-0.14346 0,0 0.3023145,-0.16697 0.3023145,-0.16697 v 0 c 0.016039,0.047 0.031728,0.0944 0.055661,0.1382 0.044232,0.0842 0.099056,0.16257 0.1415359,0.24787 0.062225,0.11542 0.1200344,0.23317 0.1847594,0.34723 0.075963,0.13279 0.1612556,0.26069 0.2621076,0.37606 0.091882,0.10446 0.185992,0.20695 0.2827901,0.30689 0.094872,0.10074 0.1886691,0.20256 0.2886229,0.29836 0.108572,0.0992 0.220881,0.19431 0.3416807,0.27852 0.1322089,0.0962 0.2661997,0.18987 0.4103061,0.26775 0.1387843,0.0771 0.2790687,0.15166 0.4206811,0.22348 0.1362067,0.0709 0.2726264,0.14155 0.4125489,0.20491 0.1383591,0.0606 0.2831251,0.10295 0.4288589,0.14214 0.1569644,0.0405 0.315635,0.0729 0.4740881,0.10687 0.1581438,0.0315 0.3168052,0.0604 0.4754687,0.0892 0.1432674,0.0264 0.2873899,0.0479 0.4310388,0.0721 0.1329483,0.0205 0.2658118,0.0416 0.3992165,0.0591 0.1091629,0.0142 0.2179363,0.0326 0.3279958,0.0387 0.077138,0.007 0.1543113,0.0119 0.2316035,0.003 0.0509,-0.005 0.100877,-0.0142 0.150235,-0.0278 0.0091,-0.003 0.03475,-0.0163 0.02644,-0.0115 -0.09655,0.0561 -0.193238,0.11196 -0.289857,0.16795 0.00985,-0.007 0.01969,-0.0147 0.032281,-0.014 0.00407,-0.006 0.010255,-0.0187 0.015806,-0.0224 0.00794,-0.005 0.0098,0.002 0.016121,-0.016 0.00143,-0.003 0.00222,-0.006 0.00425,-0.008 0.00132,-0.001 0.00454,-7.4e-4 0.00531,-0.003 0.0036,-0.008 -0.00308,-0.0224 -0.0037,-0.031 -0.010033,-0.0209 -0.025429,-0.0378 -0.036564,-0.058 -0.017317,-0.0242 -0.034534,-0.0467 -0.061698,-0.0608 -0.042126,-0.0258 -0.0862,-0.0484 -0.127972,-0.0749 -0.060017,-0.0351 -0.1238377,-0.0627 -0.1868922,-0.0918 -0.083041,-0.0361 -0.1655135,-0.0735 -0.2496005,-0.10715 -0.1017296,-0.0481 -0.2027909,-0.0974 -0.3023822,-0.14986 -0.1070449,-0.0511 -0.2165691,-0.0965 -0.3253007,-0.1438 -0.1075119,-0.0464 -0.2148512,-0.0932 -0.3214352,-0.14174 -0.1096354,-0.0489 -0.2200608,-0.0961 -0.3290837,-0.14637 -0.1129154,-0.0551 -0.2255705,-0.1107 -0.338763,-0.16518 -0.1250291,-0.0547 -0.2480585,-0.11379 -0.3689172,-0.17724 -0.1240579,-0.0621 -0.2414037,-0.13557 -0.3576257,-0.21122 -0.1165682,-0.0725 -0.2306531,-0.14867 -0.3437747,-0.22645 -0.1086143,-0.075 -0.2165662,-0.15086 -0.3220619,-0.2302 -0.1107522,-0.0798 -0.2215473,-0.15966 -0.3339425,-0.23717 -0.1135902,-0.0785 -0.2247993,-0.15982 -0.3305546,-0.24875 -0.099409,-0.0793 -0.1950146,-0.1631 -0.2846408,-0.2534 -0.082674,-0.0813 -0.1570961,-0.17045 -0.226816,-0.26309 -0.06117,-0.0865 -0.1182698,-0.1756 -0.1732052,-0.26615 -0.047498,-0.0826 -0.08814,-0.16871 -0.1260737,-0.25608 -0.035493,-0.0838 -0.071842,-0.16737 -0.096186,-0.25523 -0.029813,-0.0885 -0.054417,-0.17926 -0.064208,-0.27241 -0.012832,-0.0861 -0.025575,-0.17287 -0.026125,-0.26012 -2.91e-4,-0.0497 -0.00159,-0.0995 0.00346,-0.14904 0.00401,-0.0296 0.013285,-0.0543 0.026796,-0.0805 0.011718,-0.0323 0.038382,-0.0555 0.064218,-0.0769 0.04683,-0.0382 0.089176,-0.082 0.140561,-0.11472 0,0 0.3267366,-0.12784 0.3267366,-0.12784 z"
       inkscape:connector-curvature="0"
       style="stroke-width:0.26458332" />
    <path
       id="path734"
       d="m 13.598132,288.1049 c -0.0015,0.048 -2.19e-4,0.096 1.57e-4,0.14396 1.67e-4,0.0269 5.03e-4,0.0539 4.5e-4,0.0809 2.64e-4,0.0167 1.03e-4,0.0335 4.5e-4,0.0502 -3.18e-4,0.0161 -6.2e-5,0.0323 -2.47e-4,0.0484 1.31e-4,0.0152 -4.7e-5,0.0305 2.52e-4,0.0457 -8.8e-5,0.0127 -6.1e-5,0.0255 -6.8e-5,0.0382 9.3e-5,0.0123 1.43e-4,0.0247 -7.4e-5,0.037 -0.0026,0.01 0.0068,0.0411 -0.0051,0.0141 0.0027,-0.007 0.01579,-0.006 0.02244,-0.006 0.01235,1.8e-4 0.02469,-6e-4 0.03703,-3.4e-4 0.01137,-1.1e-4 0.02274,7e-5 0.03411,0 0.01155,1.1e-4 0.0231,-1.1e-4 0.03465,5e-5 0.0066,-3e-5 0.01327,-3e-5 0.01991,5e-5 0,0 -0.285625,0.20752 -0.285625,0.20752 v 0 c -0.0067,8e-5 -0.01337,8e-5 -0.02006,5e-5 -0.01158,1.6e-4 -0.02317,-6e-5 -0.03475,5e-5 -0.01133,-6e-5 -0.02265,1.3e-4 -0.03398,1.3e-4 -0.0124,3.7e-4 -0.02482,-7e-5 -0.03723,1.6e-4 -0.01338,-5.6e-4 -0.02541,-0.002 -0.03523,-0.0121 -0.01153,-0.0171 -0.01214,-0.0235 -0.01075,-0.0433 -2.21e-4,-0.0123 -1.65e-4,-0.0246 -7.5e-5,-0.0369 -7e-6,-0.0127 2.1e-5,-0.0254 -6.8e-5,-0.0382 2.91e-4,-0.0153 1.25e-4,-0.0307 2.53e-4,-0.046 -1.87e-4,-0.0161 7.8e-5,-0.0321 -2.47e-4,-0.0482 3.44e-4,-0.0169 1.84e-4,-0.0338 4.5e-4,-0.0507 -5.2e-5,-0.0271 2.91e-4,-0.0542 4.49e-4,-0.0813 3.71e-4,-0.048 0.0016,-0.0961 1.57e-4,-0.14412 0,0 0.312708,-0.15933 0.312708,-0.15933 z"
       inkscape:connector-curvature="0"
       style="stroke-width:0.26458332" />
    <path
       id="path736"
       d="m 14.716777,287.72714 c 0.04132,0.0356 0.08481,0.068 0.124848,0.10511 0.01879,0.0161 0.02882,0.0381 0.03287,0.062 0.002,0.0128 0.0012,0.0257 0.0011,0.0385 -0.0094,-0.0213 0.01478,0.0225 0.01568,0.0247 0.0049,0.013 0.0063,0.0267 0.0071,0.0404 2.57e-4,0.0138 1.71e-4,0.0277 1.23e-4,0.0415 1.97e-4,0.008 -3.6e-5,0.016 -5.6e-5,0.0241 0,0 -0.314742,0.16031 -0.314742,0.16031 v 0 c 0,-0.008 -2.07e-4,-0.0161 6.2e-5,-0.0241 5.4e-5,-0.0135 1.84e-4,-0.027 1.64e-4,-0.0405 9.6e-5,-0.0102 5.55e-4,-0.0205 -0.0016,-0.0305 -0.0056,-0.0127 -0.01572,-0.0236 -0.02217,-0.0363 6.62e-4,-0.0115 9.26e-4,-0.023 0.0015,-0.0346 -1.86e-4,-0.0171 -0.0054,-0.0297 -0.01906,-0.0413 -0.03735,-0.0369 -0.07899,-0.0691 -0.121291,-0.10009 0,0 0.295478,-0.1892 0.295478,-0.1892 z"
       inkscape:connector-curvature="0"
       style="stroke-width:0.26458332" />
  </g>
</svg>
