<?xml version="1.0" encoding="UTF-8" standalone="no"?>
<!-- Created with Inkscape (http://www.inkscape.org/) -->

<svg
   xmlns:dc="http://purl.org/dc/elements/1.1/"
   xmlns:cc="http://creativecommons.org/ns#"
   xmlns:rdf="http://www.w3.org/1999/02/22-rdf-syntax-ns#"
   xmlns:svg="http://www.w3.org/2000/svg"
   xmlns="http://www.w3.org/2000/svg"
   xmlns:sodipodi="http://sodipodi.sourceforge.net/DTD/sodipodi-0.dtd"
   xmlns:inkscape="http://www.inkscape.org/namespaces/inkscape"
   width="64"
   height="64"
   viewBox="0 0 16.933333 16.933334"
   version="1.1"
   id="svg8"
   inkscape:version="0.92.1 r15371"
   sodipodi:docname="1_cat_9.svg"
   inkscape:export-filename="/home/physt/undev/repos/deep_learning/workshop/tasks/commonlearningdata/cartooncats/1_cat_9.png"
   inkscape:export-xdpi="96.000008"
   inkscape:export-ydpi="96.000008">
  <defs
     id="defs2" />
  <sodipodi:namedview
     id="base"
     pagecolor="#ffffff"
     bordercolor="#666666"
     borderopacity="1.0"
     inkscape:pageopacity="0.0"
     inkscape:pageshadow="2"
     inkscape:zoom="11.2"
     inkscape:cx="50.237003"
     inkscape:cy="29.986148"
     inkscape:document-units="mm"
     inkscape:current-layer="layer1"
     showgrid="false"
     inkscape:window-width="1920"
     inkscape:window-height="1016"
     inkscape:window-x="0"
     inkscape:window-y="27"
     inkscape:window-maximized="1"
     units="px" />
  <metadata
     id="metadata5">
    <rdf:RDF>
      <cc:Work
         rdf:about="">
        <dc:format>image/svg+xml</dc:format>
        <dc:type
           rdf:resource="http://purl.org/dc/dcmitype/StillImage" />
        <dc:title></dc:title>
      </cc:Work>
    </rdf:RDF>
  </metadata>
  <g
     inkscape:label="Layer 1"
     inkscape:groupmode="layer"
     id="layer1"
     transform="translate(0,-280.06665)">
    <path
       id="path1153"
       d="m 3.6998804,285.76618 c -0.00271,0.0738 0.00909,0.14735 0.020868,0.22002 0.012581,0.09 0.024006,0.18022 0.038443,0.26997 0.014031,0.0872 0.030152,0.17395 0.049855,0.26006 0.0205,0.08 0.042702,0.15956 0.06384,0.23943 0.020389,0.0863 0.045318,0.17152 0.073196,0.25566 0.032625,0.0859 0.066249,0.17164 0.1019728,0.25635 0.030936,0.0782 0.081722,0.14561 0.1288645,0.21443 0.056454,0.0755 0.1200028,0.14508 0.1873946,0.21091 0.065257,0.0631 0.1313457,0.12677 0.2066086,0.17793 0.06362,0.0375 0.1197591,0.0858 0.1821717,0.12489 0.062225,0.0392 0.1220359,0.0825 0.1856917,0.11934 0.04926,0.0305 0.1016098,0.0555 0.152544,0.0829 0.040719,0.0192 0.085528,0.026 0.1288227,0.0374 0.045315,0.0112 0.092002,0.0135 0.1384445,0.015 0.043195,-0.002 0.084231,8.5e-4 0.1262968,0.01 0.038239,0.008 0.076531,0.0181 0.1116176,0.0354 0.033298,0.0131 0.0621,0.0342 0.092998,0.0516 0.039968,0.0136 0.070907,0.0426 0.1038593,0.0676 0.0319,0.0267 0.068741,0.0463 0.1044622,0.0672 0.041981,0.0201 0.082127,0.0436 0.1260219,0.0594 0.049969,0.0219 0.1033997,0.0343 0.1541772,0.0542 0.059134,0.017 0.1140351,0.0454 0.173015,0.0626 0.058648,0.0196 0.1170035,0.0401 0.1727406,0.067 0.063804,0.0258 0.125739,0.0567 0.1862024,0.0896 0.061346,0.0282 0.1228984,0.0558 0.1846154,0.0831 0.064291,0.0234 0.1254231,0.0542 0.1891384,0.0791 0.067146,0.0296 0.1374561,0.0494 0.2078514,0.0693 0.073878,0.0187 0.1476288,0.0363 0.2233025,0.0459 0.089816,0.009 0.1802101,0.01 0.2704015,0.0104 0.080427,9e-5 0.1608529,-2.1e-4 0.2412781,-6.7e-4 0.060326,0.001 0.1195096,6.1e-4 0.1790253,-0.009 0.055388,-0.01 0.1097605,-0.0254 0.1638408,-0.0412 0.052261,-0.009 0.100987,-0.0275 0.1503363,-0.0456 0.047802,-0.0209 0.093511,-0.0462 0.1410152,-0.0677 -0.074134,0.0417 0.1439339,-0.0788 0.070338,-0.0364 -0.9271553,0.53379 0.6980285,-0.40319 -0.2286238,0.1306 0.047182,-0.0292 0.093406,-0.0599 0.1393846,-0.091 0.040336,-0.029 0.076144,-0.063 0.1105654,-0.0986 0.040376,-0.0396 0.083852,-0.0763 0.1289042,-0.11046 0.045751,-0.0359 0.091676,-0.0713 0.1408406,-0.10241 0.1879188,-0.12146 0.792307,-0.46222 0.1723748,-0.10558 0.1632693,-0.084 0.3174322,-0.19199 0.4868486,-0.26602 0.0673,-0.0318 0.1343068,-0.0641 0.201912,-0.0954 0.080384,-0.0297 0.1581102,-0.066 0.2370012,-0.0994 0.07797,-0.0377 0.156243,-0.0745 0.234527,-0.11165 0.07912,-0.035 0.157118,-0.0717 0.234129,-0.11122 0.04093,-0.0197 0.07987,-0.0432 0.119451,-0.0654 0.01357,-0.008 0.05425,-0.0305 0.04078,-0.0227 -0.342437,0.19807 -0.33111,0.19159 -0.217622,0.12453 0.111466,-0.0639 0.222608,-0.12847 0.334397,-0.19185 0.01242,-0.007 0.02557,-0.0127 0.03818,-0.0194 0.189486,-0.10027 -0.373436,0.22121 -0.192616,0.11059 0.01123,-0.007 0.02233,-0.014 0.03349,-0.021 0.06718,-0.0458 0.134892,-0.0908 0.201734,-0.13704 0.07387,-0.0503 0.147595,-0.10037 0.218665,-0.15458 0.09036,-0.071 0.166576,-0.15648 0.240925,-0.24346 0.103889,-0.12149 0.187544,-0.25791 0.270228,-0.39416 0.09516,-0.16199 0.169117,-0.33491 0.237297,-0.50959 0.06244,-0.1594 0.112615,-0.32295 0.151712,-0.48952 0.03212,-0.12694 0.05015,-0.25633 0.05975,-0.3867 0.0071,-0.11337 0.0073,-0.22678 3.3e-5,-0.34009 -0.0053,-0.10871 -0.02234,-0.21613 -0.0461,-0.32219 -0.02555,-0.10804 -0.0771,-0.20664 -0.127232,-0.30479 -0.06463,-0.12352 -0.140942,-0.24079 -0.223279,-0.35316 -0.07904,-0.10363 -0.16297,-0.20314 -0.250882,-0.29931 -0.09944,-0.10468 -0.202966,-0.20452 -0.311622,-0.29955 -0.12051,-0.10886 -0.25106,-0.20614 -0.384802,-0.29803 -0.145494,-0.10197 -0.30512,-0.18112 -0.465395,-0.25678 -0.17067,-0.077 -0.3471239,-0.13914 -0.5232742,-0.20201 -0.1756762,-0.0648 -0.3588692,-0.10564 -0.5420686,-0.14249 -0.1862116,-0.0458 -0.3775691,-0.0568 -0.5678887,-0.0722 -0.2063078,-0.0191 -0.4130968,-0.0223 -0.620055,-0.0182 -0.2402175,0.002 -0.4796131,0.0277 -0.7171652,0.0619 -0.2549422,0.0344 -0.5048073,0.0929 -0.7521284,0.16251 -0.2505964,0.0692 -0.4888037,0.17297 -0.7250248,0.27987 -0.1188291,0.054 -0.2339305,0.11563 -0.3476987,0.17944 -0.03814,0.0214 -0.1522008,0.0862 -0.1139042,0.0651 0.057718,-0.0318 0.1127059,-0.0688 0.1721731,-0.0972 0.03927,-0.0188 -0.074245,0.0454 -0.1113676,0.0682 -0.2030209,0.12736 -0.3989205,0.26574 -0.5946688,0.40391 -0.1532411,0.10882 -0.3032881,0.22189 -0.4444878,0.346 -0.1089353,0.0968 -0.2108994,0.20061 -0.3068825,0.31011 -0.089709,0.0984 -0.1651397,0.20764 -0.2345936,0.32086 -0.074574,0.11574 -0.1269119,0.24214 -0.1711188,0.37189 -0.043328,0.13047 -0.075286,0.26434 -0.0959,0.4002 -0.014774,0.0975 -0.019317,0.19455 0.01084,0.28909 0.00479,0.0113 0.00958,0.0226 0.014369,0.034 0,0 -0.3034824,0.16987 -0.3034824,0.16987 v 0 c -0.00492,-0.0123 -0.00984,-0.0245 -0.014756,-0.0368 -0.01206,-0.0365 -0.019418,-0.053 -0.024297,-0.0917 -0.00892,-0.0708 0.00119,-0.14276 0.0088,-0.21304 0.020534,-0.13771 0.052354,-0.27335 0.094637,-0.40605 0.042282,-0.13211 0.093305,-0.26107 0.1678051,-0.37884 0.06849,-0.1149 0.1414041,-0.22699 0.2320753,-0.32604 0.095335,-0.11217 0.1983583,-0.21714 0.3079453,-0.3155 0.1415783,-0.12648 0.2921783,-0.24168 0.4472861,-0.35115 0.1968539,-0.13867 0.3935015,-0.27798 0.5968431,-0.40703 0.3152508,-0.19418 0.634882,-0.38426 0.9704387,-0.54158 0.2370326,-0.10646 0.4767408,-0.20798 0.7281931,-0.27595 0.2486242,-0.0684 0.4997789,-0.12541 0.7556434,-0.15966 0.2390915,-0.0326 0.479602,-0.0578 0.721156,-0.0599 0.2082086,-0.004 0.4162999,4.6e-4 0.6238063,0.0196 0.1915464,0.0152 0.3837323,0.0288 0.5710137,0.075 0.1842696,0.0377 0.3680415,0.0809 0.5446821,0.14645 0.177343,0.0625 0.353854,0.12737 0.525344,0.20479 0.161645,0.0772 0.323126,0.15677 0.469779,0.26048 0.134324,0.0935 0.266192,0.19107 0.387969,0.30064 0.109534,0.0961 0.214364,0.19662 0.315241,0.30181 0.08864,0.0971 0.173075,0.19779 0.252199,0.3029 0.08287,0.11416 0.159636,0.23313 0.226651,0.35731 0.05222,0.1002 0.106828,0.20059 0.133695,0.31124 0.02447,0.10775 0.04085,0.21734 0.04711,0.32772 0.0078,0.11464 0.01007,0.22931 0.0025,0.34411 -0.009,0.13263 -0.02808,0.26413 -0.06071,0.39317 -0.03869,0.16855 -0.08943,0.33394 -0.152252,0.49514 -0.06803,0.17568 -0.140409,0.35016 -0.233578,0.5143 -0.08203,0.13672 -0.163226,0.27473 -0.265347,0.3978 -0.07272,0.0884 -0.146757,0.17541 -0.235014,0.24888 -0.06983,0.0556 -0.142358,0.10658 -0.216615,0.15601 -0.06719,0.0457 -0.134396,0.0914 -0.201054,0.13791 -0.128534,0.0848 -0.266566,0.15841 -0.398981,0.23431 -0.01193,0.007 -0.02428,0.0129 -0.03642,0.0194 -0.01255,0.007 -0.04989,0.0272 -0.03765,0.02 0.08604,-0.0507 0.172704,-0.10031 0.259055,-0.15047 -0.176902,0.10496 -0.35398,0.21022 -0.536619,0.30498 -0.07725,0.039 -0.156359,0.0737 -0.23468,0.11049 -0.07833,0.0373 -0.1566263,0.0747 -0.2356153,0.1106 -0.078872,0.0335 -0.1571315,0.0684 -0.2365631,0.10055 -0.067902,0.0316 -0.1347798,0.0652 -0.2029989,0.0961 -0.1257782,0.0609 -0.4149802,0.21966 0.1110848,-0.0764 -0.1092444,0.0635 -0.2191375,0.12581 -0.3277331,0.19037 -0.088559,0.0527 0.1786536,-0.10267 0.2676208,-0.15463 0.0099,-0.006 -0.020624,0.0101 -0.030383,0.0161 -0.027353,0.0168 -0.05177,0.0388 -0.081022,0.0527 -0.049035,0.031 -0.098354,0.0612 -0.1419718,0.0999 -0.045097,0.0332 -0.088133,0.0685 -0.1307883,0.10489 -0.034443,0.0367 -0.067946,0.0737 -0.1081794,0.1041 -0.043352,0.0352 -0.092899,0.062 -0.1384212,0.0943 -0.1075502,0.0624 -0.2154058,0.12424 -0.3226507,0.18715 -0.091508,0.0537 0.3676074,-0.212 0.2754398,-0.15946 -0.1316482,0.075 -0.2578603,0.15714 -0.3943078,0.22207 -0.046898,0.0234 -0.094106,0.0464 -0.143065,0.0652 -0.049483,0.0182 -0.1004533,0.0303 -0.1514752,0.0433 -0.054788,0.0156 -0.1103998,0.0296 -0.1668767,0.0373 -0.060122,0.007 -0.1205325,0.005 -0.1809591,0.005 -0.079943,-1.9e-4 -0.1598875,10e-6 -0.2398268,-8.7e-4 -0.091343,-10e-4 -0.1829539,-0.002 -0.273726,-0.0134 -0.076506,-0.0114 -0.1516788,-0.0292 -0.2263236,-0.0494 -0.07173,-0.0196 -0.1420405,-0.0432 -0.2106432,-0.0721 -0.063491,-0.0263 -0.1258925,-0.0551 -0.1900412,-0.0798 -0.062445,-0.0273 -0.1241237,-0.0563 -0.1857058,-0.0855 -0.060693,-0.0315 -0.122006,-0.0622 -0.1855131,-0.0876 -0.055585,-0.0243 -0.1128226,-0.0446 -0.1705449,-0.0633 -0.058488,-0.0201 -0.1149204,-0.0459 -0.1742114,-0.0638 -0.051761,-0.018 -0.1048097,-0.0325 -0.1551599,-0.0544 -0.044201,-0.0188 -0.086754,-0.0412 -0.1293759,-0.0633 -0.037428,-0.0211 -0.07359,-0.0446 -0.1073317,-0.0712 -0.031531,-0.0252 -0.064047,-0.048 -0.1015037,-0.0637 -0.029272,-0.0179 -0.05899,-0.0346 -0.090624,-0.048 -0.034773,-0.0128 -0.070214,-0.0231 -0.1068517,-0.0291 -0.040756,-0.006 -0.082028,-0.004 -0.1231321,-0.006 -0.048101,-0.003 -0.096152,-0.008 -0.1426982,-0.021 -0.045371,-0.0119 -0.092212,-0.02 -0.1333101,-0.0441 -0.051484,-0.0268 -0.1018834,-0.0558 -0.1517457,-0.0855 -0.063042,-0.0387 -0.1239075,-0.0809 -0.1864603,-0.12036 -0.061517,-0.041 -0.1194324,-0.0872 -0.182049,-0.12667 -0.07475,-0.0548 -0.1424193,-0.11864 -0.2087496,-0.18326 -0.068246,-0.068 -0.133555,-0.13893 -0.1911024,-0.21634 -0.048792,-0.0706 -0.1013156,-0.13988 -0.1332379,-0.22028 -0.035144,-0.0859 -0.067762,-0.17285 -0.1019381,-0.25912 -0.028783,-0.0845 -0.054614,-0.17012 -0.075553,-0.25686 -0.021706,-0.0802 -0.04206,-0.16078 -0.063914,-0.24098 -0.019211,-0.0869 -0.037515,-0.17394 -0.050171,-0.2621 -0.015333,-0.0895 -0.026541,-0.17966 -0.03933,-0.26953 -0.012531,-0.0739 -0.024617,-0.14831 -0.026823,-0.22338 0,0 0.3127071,-0.15934 0.3127071,-0.15934 z"
       inkscape:connector-curvature="0"
       style="stroke-width:0.26458332" />
    <path
       id="path1165"
       d="m 10.21004,282.80756 c 0.04278,-0.0672 0.08984,-0.13058 0.137347,-0.19324 0.06533,-0.0818 0.13752,-0.15507 0.210621,-0.22704 0.09961,-0.0978 0.205529,-0.18594 0.314852,-0.26809 0.185985,-0.13261 0.375762,-0.258 0.569501,-0.37436 0.103517,-0.0618 0.213389,-0.1066 0.323007,-0.1507 0.107214,-0.043 0.219039,-0.0666 0.329922,-0.0923 0.09957,-0.0236 0.200945,-0.0317 0.302204,-0.0373 0.06666,-0.003 0.133358,-0.003 0.200048,-0.003 0.04189,0.003 0.08179,0.0146 0.122164,0.0263 0.02933,0.0109 0.05743,0.0242 0.08576,0.0382 0.01691,0.007 0.03077,0.0193 0.0473,0.0271 0.01119,0.002 0.02246,7.8e-4 0.03371,7.8e-4 0.01351,-0.004 0.01866,0.0107 0.02944,0.0168 0.01056,0.0145 0.01875,0.0308 0.02661,0.0474 0.01874,0.0394 0.02569,0.0832 0.03326,0.12691 0.01648,0.0932 0.02411,0.1877 0.02882,0.28264 0.008,0.13628 -0.0021,0.27227 -0.01867,0.40707 -0.0226,0.16374 -0.07499,0.31816 -0.129885,0.47004 -0.05559,0.14556 -0.117266,0.28779 -0.176935,0.43108 -0.04462,0.11497 -0.09336,0.22764 -0.144753,0.33864 -0.04581,0.0998 -0.109241,0.18516 -0.174578,0.26771 -0.05348,0.0687 -0.112886,0.1306 -0.170791,0.19408 -0.04088,0.0464 -0.08522,0.0882 -0.126649,0.13398 -0.02462,0.0258 -0.0492,0.0523 -0.07742,0.0725 -0.0815,0.0622 -0.160487,0.14847 -0.259012,0.16016 -0.0023,2.2e-4 -0.0046,4.1e-4 -0.0069,6.3e-4 0,0 0.189686,-0.1659 0.189686,-0.1659 v 0 c 0.002,-4.6e-4 0.0041,-7.9e-4 0.0061,-0.002 0.0081,-0.003 0.01584,-0.006 0.02326,-0.01 0.0029,-0.002 0.01161,-0.008 0.0087,-0.007 -0.197983,0.13425 -0.257036,0.17195 -0.181132,0.12331 0.02495,-0.0221 -0.0043,0.003 0.02369,-0.0168 0.02057,-0.0142 0.0373,-0.0362 0.0564,-0.0527 0.04309,-0.0447 0.08584,-0.09 0.128927,-0.13475 0.05818,-0.0636 0.118235,-0.12505 0.172751,-0.19301 0.06528,-0.0814 0.130928,-0.16337 0.177517,-0.26189 0.05237,-0.11086 0.102605,-0.22318 0.14727,-0.33863 0.06019,-0.14328 0.122512,-0.2854 0.179148,-0.4307 0.05445,-0.1497 0.107898,-0.30139 0.13071,-0.46294 0.01664,-0.13281 0.02728,-0.26685 0.01919,-0.40119 -0.0053,-0.093 -0.01351,-0.1855 -0.03129,-0.27655 -0.0078,-0.0405 -0.01335,-0.0817 -0.03192,-0.11795 -0.0059,-0.0115 -0.01161,-0.0265 -0.02091,-0.0345 -0.01292,-0.01 -0.0078,-0.006 -0.02253,-0.006 -0.01352,-7.9e-4 -0.02714,-0.003 -0.03928,-0.0103 -0.01531,-0.009 -0.02948,-0.0211 -0.0461,-0.0272 -0.02695,-0.014 -0.0546,-0.0256 -0.08296,-0.0351 -0.03853,-0.0119 -0.07749,-0.021 -0.117536,-0.0217 -0.06572,-4.7e-4 -0.131468,-7.9e-4 -0.197154,0.002 -0.09999,0.005 -0.199856,0.015 -0.298051,0.0387 -0.110751,0.0255 -0.221929,0.0514 -0.328596,0.0957 -0.10857,0.0442 -0.217066,0.0898 -0.31923,0.15206 -0.06192,0.0375 -0.123679,0.0753 -0.184728,0.11474 -0.02196,0.0141 -0.08702,0.0584 -0.06554,0.0432 0.04289,-0.0302 0.08632,-0.0594 0.129787,-0.0885 0.02091,-0.014 -0.04141,0.0289 -0.06211,0.0432 -0.108937,0.0804 -0.214177,0.16712 -0.313274,0.26357 -0.07231,0.0711 -0.143942,0.14292 -0.20957,0.22254 -0.04729,0.0602 -0.09288,0.12276 -0.134558,0.18845 0,0 -0.215644,0.10954 -0.215644,0.10954 z"
       inkscape:connector-curvature="0"
       style="stroke-width:0.1922152" />
    <path
       id="path1169"
       d="m 5.174408,283.39181 c -0.085656,-0.0302 -0.1616908,-0.0803 -0.2391457,-0.12665 -0.091919,-0.0553 -0.1863855,-0.10586 -0.284139,-0.14998 -0.112623,-0.0543 -0.2316975,-0.0916 -0.348878,-0.13407 -0.1393116,-0.0582 -0.2849057,-0.0948 -0.4322175,-0.12558 -0.1582645,-0.0295 -0.3169015,-0.0559 -0.475833,-0.0813 -0.127627,-0.0205 -0.2554499,-0.0395 -0.3831182,-0.0597 -0.084123,-0.0187 -0.1688614,-0.0341 -0.2546922,-0.0421 -0.049379,-0.0108 -0.09901,-0.02 -0.1493754,-0.0246 -0.0289,-0.002 -0.057883,-0.002 -0.086845,-0.002 -0.02282,1.8e-4 -0.045642,3.4e-4 -0.068464,2.8e-4 -0.010825,0.008 -0.01915,0.0168 -0.032116,0.0201 -0.00279,7.1e-4 -0.010818,0.004 -0.00833,0.002 0.0984,-0.057 0.19753,-0.11273 0.2962948,-0.1691 -0.017314,0.009 -0.028486,0.0284 -0.041033,0.0433 -0.022958,0.025 -0.032762,0.0601 -0.046471,0.0908 -0.023364,0.0528 -0.026679,0.11077 -0.029683,0.16759 -0.00316,0.0859 -0.00326,0.1718 -0.00337,0.25771 0.00271,0.1082 0.018796,0.2153 0.040956,0.32105 0.022309,0.1163 0.057754,0.22927 0.097412,0.34065 0.040008,0.1122 0.084297,0.22306 0.1390068,0.32894 0.053062,0.0987 0.109991,0.19506 0.1727845,0.28786 0.064153,0.10316 0.1351624,0.20176 0.2026642,0.30269 0.055775,0.0806 0.1078699,0.16377 0.1649799,0.24349 0.042316,0.0637 0.090838,0.12281 0.1363438,0.18419 0.030043,0.0388 0.070793,0.0672 0.1026117,0.10414 0.017608,0.0159 0.031303,0.0356 0.044571,0.0551 0,0 -0.3046905,0.17796 -0.3046905,0.17796 v 0 c -0.011443,-0.0188 -0.024577,-0.0363 -0.040534,-0.0516 -0.032825,-0.037 -0.072609,-0.0677 -0.1019725,-0.10796 -0.045051,-0.0619 -0.092742,-0.12184 -0.1352576,-0.18558 -0.056226,-0.0806 -0.1081704,-0.16416 -0.1630013,-0.24575 -0.067085,-0.10111 -0.1378008,-0.19978 -0.2028457,-0.30226 -0.06374,-0.0938 -0.1213448,-0.19136 -0.1747808,-0.29142 -0.055543,-0.10722 -0.099453,-0.21987 -0.1407678,-0.33325 -0.040352,-0.11263 -0.077576,-0.22661 -0.09982,-0.34442 -0.024026,-0.10751 -0.040957,-0.21658 -0.045868,-0.32676 -2.424e-4,-0.086 -0.00145,-0.17201 4.048e-4,-0.258 0.00228,-0.0597 0.00296,-0.12077 0.022467,-0.17786 0.013389,-0.0335 0.029007,-0.0661 0.040167,-0.10033 0.014,-0.0153 0.028714,-0.0307 0.037931,-0.0495 0.1031495,-0.0597 0.2062048,-0.11963 0.3094486,-0.1792 0.00733,-0.004 0.014512,-0.009 0.022857,-0.0109 0.012129,-0.003 0.011253,-0.002 0.02459,-0.001 0.022892,-1.8e-4 0.045786,-2.7e-4 0.068675,1e-5 0.029401,5.1e-4 0.05875,0.002 0.087954,0.006 0.049483,0.007 0.09819,0.018 0.1475322,0.0257 0.084916,0.011 0.1685647,0.0289 0.252431,0.0459 0.1266182,0.0215 0.2537237,0.0399 0.3803187,0.0616 0.1589452,0.0257 0.3173894,0.0538 0.4756507,0.0834 0.1490787,0.0312 0.295529,0.0707 0.4370453,0.12781 0.1188802,0.041 0.2377731,0.0818 0.351712,0.13569 0.098887,0.0449 0.1943409,0.0964 0.2873912,0.15247 0.07616,0.0452 0.151688,0.0941 0.2384991,0.11625 0,0 -0.2894502,0.19823 -0.2894502,0.19823 z"
       inkscape:connector-curvature="0"
       style="stroke-width:0.26458332" />
    <path
       id="path1171"
       d="m 5.9080608,284.69592 c -0.066241,-0.0154 -0.1310507,-0.006 -0.1965452,0.007 -0.040802,0.0126 -0.081904,0.0282 -0.1190892,0.0495 -0.00888,0.005 -0.034888,0.0215 -0.025977,0.0164 0.09104,-0.0516 0.1815931,-0.10408 0.2723899,-0.15612 -0.053467,0.0362 -0.1012137,0.0796 -0.1403948,0.13084 -0.047007,0.0584 -0.079279,0.12544 -0.1074402,0.19442 -0.027861,0.0788 -0.047266,0.16058 -0.060469,0.24306 -0.013695,0.0708 -0.025495,0.14178 -0.031555,0.21367 -0.00715,0.0588 0.0065,0.11572 0.023204,0.17164 0.014904,0.0605 0.0473,0.11318 0.079831,0.16542 0.028027,0.0489 0.064499,0.0928 0.100102,0.13641 0.044054,0.0556 0.094982,0.1042 0.1507823,0.14779 0.06734,0.0518 0.1403503,0.0922 0.2197468,0.12192 0.086848,0.0354 0.1798129,0.0479 0.272569,0.0553 0.078416,0.007 0.1558488,0.004 0.2328915,-0.0117 0.041419,-0.016 0.082992,-0.0297 0.1224455,-0.0504 0.013928,-0.007 0.054712,-0.031 0.041042,-0.0233 -0.2700295,0.15346 -0.3355573,0.19839 -0.2119678,0.11632 0.077784,-0.0507 0.1474185,-0.11064 0.2070222,-0.18162 0.056232,-0.0601 0.082379,-0.13046 0.090974,-0.21096 0.00582,-0.10561 -0.018867,-0.20916 -0.035249,-0.31274 -0.015322,-0.0987 -0.04919,-0.19262 -0.091367,-0.28271 -0.040055,-0.0895 -0.090747,-0.17107 -0.1528381,-0.24663 -0.059266,-0.077 -0.1313577,-0.1353 -0.2175047,-0.17898 -0.091478,-0.0394 -0.1691711,-0.0502 -0.2676517,-0.0505 -0.052297,0.004 -0.060516,0.003 -0.1125479,0.017 -0.02933,0.008 -0.095868,0.0323 -0.1231318,0.0449 -0.048892,0.0226 -0.4355558,0.24241 0.1718725,-0.0986 -0.054131,0.0335 -0.095862,0.0801 -0.1369991,0.1276 0,0 -0.3170701,0.13455 -0.3170701,0.13455 v 0 c 0.040897,-0.0501 0.080957,-0.10116 0.1349693,-0.13816 0.2084559,-0.12206 0.4117046,-0.28337 0.6627833,-0.28979 0.096546,0.003 0.1904379,0.0203 0.2779361,0.0633 0.087639,0.049 0.1621631,0.11136 0.2239992,0.19113 0.06322,0.0782 0.1162886,0.16179 0.1573495,0.25394 0.043082,0.0932 0.07954,0.18965 0.095105,0.29164 0.01674,0.10581 0.04141,0.21121 0.040269,0.31896 -0.00306,0.0848 -0.023087,0.1654 -0.081427,0.23005 -0.058823,0.0741 -0.124936,0.13957 -0.2047246,0.19159 -0.1705115,0.11745 -0.3495611,0.23688 -0.5509207,0.29263 -0.079055,0.0117 -0.1582126,0.0125 -0.2377564,0.004 -0.094836,-0.0103 -0.1891884,-0.0267 -0.2778717,-0.0634 -0.081226,-0.0333 -0.1568361,-0.0759 -0.2263728,-0.12985 -0.057157,-0.0457 -0.1096536,-0.0965 -0.1556096,-0.15363 -0.036751,-0.0447 -0.075072,-0.0891 -0.1026928,-0.1402 -0.03383,-0.0548 -0.06772,-0.11024 -0.08385,-0.17325 -0.019296,-0.0592 -0.03562,-0.1207 -0.029428,-0.18353 0.00578,-0.0729 0.015946,-0.14508 0.031734,-0.21654 0.012658,-0.0847 0.031951,-0.1682 0.057169,-0.25009 0.027116,-0.0707 0.055577,-0.14165 0.1027332,-0.20187 0.004,-0.006 0.034668,-0.0506 0.039206,-0.0559 0.02793,-0.0325 0.064392,-0.0577 0.096134,-0.0861 0.1455436,-0.0857 0.3021169,-0.20823 0.4760447,-0.24684 0.068412,-0.0109 0.1364546,-0.0107 0.2049486,9e-4 0,0 -0.2868025,0.20222 -0.2868025,0.20222 z"
       inkscape:connector-curvature="0"
       style="stroke-width:0.26458332" />
    <path
       id="path1173"
       d="m 9.2920668,284.17149 c -0.010623,0.005 -0.021384,0.009 -0.031869,0.0139 -0.046796,0.022 -0.085011,0.0455 -0.076362,0.0405 0.4548081,-0.25989 0.2751693,-0.16701 0.1749226,-0.0826 -0.1060942,0.0929 -0.1878714,0.20845 -0.2540704,0.33201 -0.069163,0.14442 -0.1018299,0.302 -0.1238826,0.45956 -0.011684,0.10657 0.00127,0.21227 0.03797,0.3126 0.029004,0.0736 0.073089,0.13932 0.1279631,0.19593 0.059319,0.0612 0.1328195,0.1018 0.2104022,0.1348 0.094263,0.0365 0.1921539,0.0569 0.2922751,0.0678 0.1062628,0.01 0.2129759,-0.004 0.3171952,-0.0247 0.017087,-0.004 0.034303,-0.008 0.051257,-0.0133 0.04247,-0.0123 0.05882,-0.0182 0.09857,-0.0379 0.0154,-0.008 0.0602,-0.0332 0.04528,-0.0247 -0.2769752,0.15848 -0.3288987,0.196 -0.2101508,0.11423 0.08486,-0.0571 0.1383218,-0.14197 0.1878408,-0.22899 0.0535,-0.0927 0.09506,-0.19084 0.128998,-0.29213 0.02658,-0.0888 0.03969,-0.18131 0.03858,-0.2739 -0.0044,-0.0735 -0.03404,-0.13809 -0.06686,-0.20244 -0.04489,-0.0785 -0.105723,-0.1412 -0.178422,-0.19383 -0.094234,-0.0702 -0.2049764,-0.0952 -0.3188639,-0.11157 -0.1194527,-0.0206 -0.2354916,-0.005 -0.3522067,0.0213 -0.016618,0.005 -0.033431,0.009 -0.049857,0.0141 -0.015211,0.005 -0.058677,0.025 -0.044979,0.0167 0.4104788,-0.24727 0.2989244,-0.17349 0.2031606,-0.10855 0,0 -0.3207417,0.12677 -0.3207417,0.12677 v 0 c 0.1467858,-0.11119 0.3052583,-0.2202 0.4872866,-0.25748 0.1190948,-0.0233 0.2379414,-0.032 0.3584271,-0.0104 0.118149,0.02 0.232563,0.0504 0.329895,0.12407 0.07597,0.0568 0.13992,0.12414 0.188081,0.20654 0.03615,0.0686 0.06766,0.1379 0.07418,0.21646 0.0032,0.0961 -0.01051,0.19248 -0.03535,0.28533 -0.03253,0.10318 -0.0727,0.20353 -0.125848,0.29801 -0.04848,0.0895 -0.09874,0.18073 -0.181841,0.24299 -0.173921,0.13032 -0.367317,0.25102 -0.5819663,0.29657 -0.1069645,0.0176 -0.2156577,0.0303 -0.3239456,0.0168 -0.1020937,-0.0138 -0.2021144,-0.0373 -0.297897,-0.076 -0.081084,-0.0359 -0.1576821,-0.0807 -0.2195025,-0.14545 -0.057171,-0.061 -0.1030833,-0.13096 -0.1340718,-0.2089 -0.038528,-0.10585 -0.053331,-0.21708 -0.041797,-0.32963 0.022789,-0.16051 0.054927,-0.32127 0.1202352,-0.47052 0.062629,-0.12616 0.1417542,-0.24493 0.2448263,-0.34199 0.1527046,-0.13997 0.341017,-0.23335 0.5282655,-0.31937 0,0 -0.2751148,0.21743 -0.2751148,0.21743 z"
       inkscape:connector-curvature="0"
       style="stroke-width:0.26458332" />
    <path
       id="path1175"
       d="m 7.6771859,286.53641 c 0.043979,0.0694 0.1000659,0.12858 0.1590042,0.18518 0.03981,0.0393 0.076061,0.0818 0.1176999,0.1191 0.026728,0.0328 0.064525,0.0525 0.09581,0.0801 0.024955,0.0139 0.044402,0.038 0.070729,0.0492 0.01869,0.007 0.03946,0.005 0.059111,0.005 0.00448,-10e-6 0.0091,0.001 0.013457,-2e-5 0.018097,-0.004 0.03644,-0.0182 0.052244,-0.0277 -0.095214,0.0546 -0.1904273,0.10927 -0.2856408,0.1639 0.060549,-0.0358 0.1129843,-0.0827 0.1648378,-0.12974 0.077801,-0.0712 0.1468329,-0.15124 0.2179402,-0.22897 0.045972,-0.0544 0.098801,-0.10177 0.1516589,-0.14921 0.021889,-0.0221 0.046151,-0.0417 0.069689,-0.062 0.4949248,-0.29054 0.3281781,-0.19196 0.015282,-0.0109 -0.00235,10e-4 0.00481,-0.003 0.00683,-0.004 0.00757,-0.007 0.0147,-0.0117 0.022632,-0.0183 0.00911,10e-4 0.016941,-0.027 0.021201,-0.0252 -0.00598,-0.0165 -0.017343,-0.0277 -0.029852,-0.0395 -0.031933,-0.0185 -0.068133,-0.0263 -0.1028235,-0.038 -0.062261,-0.0185 -0.1271899,-0.0229 -0.191693,-0.026 -0.081746,-0.002 -0.1637091,-0.006 -0.2452592,0.001 -0.082352,0.008 -0.1645073,0.0137 -0.2461866,0.0267 -0.060584,0.005 -0.1191125,0.0201 -0.178821,0.0299 -0.054252,0.0127 -0.1066692,0.0313 -0.1605537,0.0451 -0.03383,0.0118 -0.071963,0.0211 -0.102698,0.0401 -0.1065617,0.0671 -0.018934,0.0117 0.2797546,-0.16029 0.00251,-10e-4 -0.00506,0.003 -0.0076,0.004 -0.00871,0.005 -0.016015,0.01 -0.023699,0.016 -0.011523,0.006 -0.020537,0.0173 -0.017394,0.0294 0.031331,0.0329 0.069404,0.0604 0.1048205,0.0891 0.1054653,0.0889 0.2043983,0.18505 0.3044179,0.27992 0,0 -0.2872422,0.17695 -0.2872422,0.17695 v 0 c -0.099397,-0.0954 -0.2015691,-0.1879 -0.3108476,-0.27198 -0.04169,-0.0316 -0.090151,-0.0604 -0.1200692,-0.10399 -0.00927,-0.0246 -0.010956,-0.0415 -4.234e-4,-0.0661 0.09843,-0.0965 0.2263151,-0.15717 0.3534765,-0.21216 0.034842,-0.012 0.068623,-0.027 0.1049353,-0.0343 0.053573,-0.0158 0.1072378,-0.0314 0.1620637,-0.0424 0.059065,-0.012 0.1184984,-0.0203 0.1782749,-0.028 0.081977,-0.0114 0.1645991,-0.0163 0.2470118,-0.0236 0.082975,-0.004 0.1661687,-0.002 0.2491383,0.001 0.0668,0.005 0.1336606,0.0117 0.1977713,0.0322 0.039729,0.0117 0.081334,0.0233 0.1135954,0.0505 0.016478,0.0164 0.030759,0.0333 0.039913,0.0549 0.00775,0.0186 0.00596,0.0408 -0.00589,0.0581 -0.00433,0.006 -0.00689,0.0135 -0.012644,0.0181 -0.00241,0.002 -0.00628,8.2e-4 -0.00882,0.003 -0.00259,0.002 -0.00389,0.005 -0.00583,0.007 -0.1028467,0.0607 -0.2056937,0.12141 -0.3085404,0.18212 -0.096586,0.0592 0.1951768,-0.11497 0.2927652,-0.17246 -0.024313,0.0203 -0.048497,0.0407 -0.073088,0.0607 -0.049341,0.0523 -0.1120431,0.0913 -0.1561695,0.14913 -0.071904,0.0774 -0.1408295,0.15777 -0.2166515,0.23137 -0.049971,0.0474 -0.099785,0.0961 -0.1578734,0.13357 -0.073349,0.0426 -0.2520799,0.20133 -0.3931825,0.19734 -0.024193,-0.002 -0.048,-0.006 -0.068722,-0.0193 -0.025149,-0.0173 -0.048814,-0.0369 -0.073261,-0.0552 -0.032611,-0.0264 -0.067902,-0.0497 -0.095518,-0.0817 -0.041296,-0.038 -0.07688,-0.0815 -0.1163373,-0.12136 -0.059666,-0.0589 -0.1145122,-0.12171 -0.1642784,-0.18927 0,0 0.3015607,-0.17801 0.3015607,-0.17801 z"
       inkscape:connector-curvature="0"
       style="stroke-width:0.26458332" />
    <path
       id="path1177"
       d="m 7.4407352,288.31773 c 0.04601,0.0359 0.093933,0.0703 0.1496552,0.0889 0.051083,0.0212 0.1055613,0.0276 0.1601988,0.0312 0.072575,0.003 0.1452621,0.003 0.2178984,0.003 0.066278,0.005 0.1309598,-0.01 0.1964386,-0.0165 0.059074,-0.0115 0.1169088,-0.028 0.1756979,-0.0407 0.055482,-0.0196 0.1134541,-0.029 0.1703575,-0.0434 0.046022,-0.0147 0.096007,-0.01 0.1418847,-0.0232 0.036196,-0.0118 0.073556,-0.0154 0.1112517,-0.0183 0.028511,-0.0102 0.055905,-0.0181 0.081596,-0.0341 0.012491,-0.009 0.029727,-0.005 0.042799,-0.0109 0.00959,-0.005 0.021302,-0.014 0.031898,-0.0193 -0.013359,0.001 0.042961,-0.0155 0.029431,-0.008 -0.098418,0.0565 -0.1978658,0.11122 -0.2969295,0.1666 -0.00297,0.002 0.0057,-0.004 0.00864,-0.005 0.1032496,-0.0597 0.2066276,-0.11925 0.3099416,-0.17888 0.1027758,-0.0564 0.1364864,-0.075 -0.2842252,0.16648 -0.00238,10e-4 0.0035,-0.004 0.00534,-0.006 0.00492,-0.005 0.00686,-0.009 0.00879,-0.0159 0.0023,-0.0109 0.00108,-0.0221 7.938e-4,-0.0332 0.00191,-0.0146 -0.00561,-0.0236 -0.011353,-0.0364 -0.0077,-0.0173 -0.015902,-0.0356 -0.027171,-0.0509 -0.011152,-0.0216 -0.024223,-0.0416 -0.036372,-0.0625 -0.00901,-0.0217 -0.020452,-0.0432 -0.037013,-0.0601 -0.015203,-0.0184 -0.028998,-0.038 -0.04329,-0.0573 -0.011946,-0.0242 -0.030177,-0.0438 -0.04214,-0.068 -0.012192,-0.0174 -0.023953,-0.0346 -0.036274,-0.0517 -0.010073,-0.0168 -0.021479,-0.0323 -0.031524,-0.049 -0.00936,-0.0117 -0.010038,-0.0281 -0.01964,-0.0392 -0.012004,-0.0123 -0.017304,-0.0303 -0.020468,-0.0468 -0.00127,-0.009 -0.00287,-0.0236 -0.00378,-0.0285 -0.00886,-0.014 -0.015936,-0.0284 -0.019569,-0.0446 -0.00279,-0.013 -0.00305,-0.0264 -0.00295,-0.0396 -0.00502,-0.0108 -0.011718,-0.0222 -0.016402,-0.034 -0.00507,-0.0128 -0.00651,-0.0266 -0.00707,-0.0402 0.00124,-0.008 -0.00768,-0.0141 -0.013399,-0.0252 -0.00441,-0.003 -0.011663,-0.0394 -0.0082,-0.0305 -0.00928,0.005 -0.022167,0.003 -0.032949,0.003 -0.00323,3e-5 -0.00672,-0.001 -0.00969,1.1e-4 -0.00294,10e-4 -0.00402,0.005 -0.00667,0.007 -0.013039,0.009 -0.030092,0.0109 -0.045,0.0141 -0.00431,4e-4 -0.00889,-3.7e-4 -0.012941,10e-4 -0.00365,0.001 -0.00584,0.005 -0.00922,0.007 -0.014957,0.009 -0.031919,0.0118 -0.048519,0.0155 -0.024445,0.003 -0.049059,0.003 -0.073645,0.003 -0.022434,-2.6e-4 -0.044873,-10e-5 -0.067308,-2.5e-4 -0.02128,-7e-5 -0.042563,-3e-5 -0.063845,-1.4e-4 -0.021156,0.0163 -0.050101,0.0181 -0.07581,0.0217 -0.022119,0.003 -0.044588,0.002 -0.066868,0.002 -0.023125,-1.2e-4 -0.046248,-1.3e-4 -0.069372,-2.7e-4 -0.016872,0.0102 -0.037568,0.0218 -0.057646,0.0232 -0.1204291,0.0126 -0.011761,0.002 0.2865554,-0.16392 0.00228,-10e-4 -0.00444,0.003 -0.00665,0.004 -0.00938,0.006 -0.00828,-7.4e-4 -0.011917,0.013 -0.011896,0.0159 -0.017835,0.0346 -0.02988,0.0504 -0.012174,0.0241 -0.025387,0.0476 -0.038311,0.0713 -0.019995,0.0336 -0.033738,0.0701 -0.048206,0.10622 -0.01411,0.0383 -0.03159,0.0747 -0.041342,0.11445 -0.00508,0.0367 -0.013713,0.0725 -0.02236,0.10855 -0.00756,0.0315 -0.00717,0.064 -0.014661,0.0954 -0.00524,0.0164 -0.010136,0.0328 -0.013684,0.0497 0,0 -0.3168015,0.15409 -0.3168015,0.15409 v 0 c 0.00302,-0.0182 0.00614,-0.0361 0.012279,-0.0536 0.01207,-0.0301 0.011451,-0.0608 0.016703,-0.0926 0.00669,-0.0367 0.020786,-0.0715 0.022201,-0.10918 0.00888,-0.0416 0.021558,-0.0808 0.039882,-0.11911 0.013496,-0.0375 0.027671,-0.0747 0.04473,-0.11065 0.013732,-0.023 0.025807,-0.0466 0.038174,-0.07 0.0071,-0.0191 0.023746,-0.0322 0.027901,-0.0531 0.011459,-0.006 0.0014,-0.0206 0.014645,-0.0283 0.2991406,-0.17477 0.1995974,-0.14146 0.3207229,-0.18135 0.018862,-0.01 0.041424,-0.0168 0.062678,-0.0154 0.023058,-4e-5 0.046117,1.8e-4 0.069173,-2.2e-4 0.021262,-7.4e-4 0.042488,-0.002 0.063338,-0.007 0.026582,-0.005 0.052341,-0.0183 0.07956,-0.017 0.021376,-9e-5 0.042751,-2e-5 0.064125,6e-5 0.022214,0 0.044437,4.5e-4 0.066644,-3.4e-4 0.02304,-8.2e-4 0.046349,-0.002 0.068282,-0.0101 0.02377,-0.008 0.0458,-0.0205 0.071022,-0.0236 0.023082,-0.007 0.04341,-0.0184 0.068343,-0.0126 0.019995,0.002 0.038862,0.007 0.051297,0.0242 0.00735,0.0124 0.00697,0.0212 0.010237,0.0343 0.00617,0.0133 0.022426,0.0224 0.020791,0.0388 -2.09e-5,0.01 -6.614e-4,0.0203 0.00161,0.03 0.00525,0.0162 0.015843,0.029 0.022016,0.0449 1.177e-4,0.0115 -4.498e-4,0.0229 3.704e-4,0.0343 9.789e-4,0.0108 0.00426,0.0201 0.010861,0.029 0.010446,0.0149 0.013843,0.0271 0.012732,0.0449 0.00101,0.0119 0.00274,0.0224 0.0117,0.0311 0.00965,0.0135 0.014086,0.0276 0.021101,0.0424 0.00993,0.0156 0.02036,0.0305 0.029772,0.0464 0.014359,0.0185 0.026091,0.0384 0.03944,0.0576 0.01035,0.0223 0.028161,0.0399 0.03882,0.0621 0.013793,0.0183 0.026368,0.0374 0.041705,0.0545 0.016708,0.0197 0.031056,0.0423 0.040651,0.0663 0.011829,0.0201 0.024077,0.0395 0.035095,0.06 0.01189,0.0177 0.02241,0.0372 0.030929,0.0567 0.00648,0.016 0.020145,0.0297 0.018084,0.048 3.969e-4,0.0127 0.00116,0.0254 0.00167,0.0381 -0.00504,0.14382 -0.1978234,0.16545 -0.3208579,0.23382 0.606874,-0.35047 0.1529739,-0.0861 -0.052139,0.0235 -0.024344,0.0118 -0.050645,0.0165 -0.074109,0.0304 -0.028282,0.0116 -0.058923,0.0197 -0.089257,0.0232 -0.036792,0.004 -0.072458,0.013 -0.1085654,0.0209 -0.04696,0.006 -0.094076,0.0107 -0.1397693,0.0236 -0.056946,0.0141 -0.1144564,0.0256 -0.1706409,0.0427 -0.058934,0.0141 -0.1177047,0.0295 -0.1778593,0.0377 -0.065823,0.008 -0.1315408,0.0161 -0.1981062,0.0126 -0.073379,-2.6e-4 -0.1468369,-6e-5 -0.2200961,-0.005 -0.057423,-0.005 -0.1136983,-0.0163 -0.1671867,-0.0388 -0.055565,-0.0247 -0.1038421,-0.0613 -0.1542728,-0.0949 0,0 0.295478,-0.18919 0.295478,-0.18919 z"
       inkscape:connector-curvature="0"
       style="stroke-width:0.26458332" />
    <path
       id="path1185"
       d="m 9.6290309,287.80704 c -0.5231625,0.29957 -0.2507475,0.15202 -0.1417603,0.0724 0.041494,-0.0303 0.055668,-0.0429 0.09574,-0.0758 0.086382,-0.0719 0.1572681,-0.15768 0.2186872,-0.25117 0.052116,-0.0862 0.084658,-0.1815 0.1072091,-0.27917 0.020135,-0.10815 0.033743,-0.21713 0.041456,-0.32682 0.00483,-0.0812 0.00967,-0.16264 -0.00642,-0.24285 -0.01656,-0.0565 -0.053778,-0.10288 -0.096393,-0.14224 -0.049404,-0.0405 -0.1059219,-0.071 -0.1559716,-0.1104 -0.027534,-0.0201 -0.014248,-0.0106 -0.039815,-0.0285 0,0 0.2959876,-0.18776 0.2959876,-0.18776 v 0 c 0.025037,0.019 0.011922,0.009 0.039331,0.03 0.051661,0.0391 0.1084761,0.0713 0.1578241,0.11367 0.04606,0.0459 0.08738,0.0973 0.106478,0.16053 0.01819,0.0835 0.01336,0.16832 0.0074,0.25308 -0.0074,0.11109 -0.02054,0.22129 -0.03885,0.33113 -0.0206,0.10121 -0.05188,0.19956 -0.10215,0.29035 -0.06027,0.0969 -0.1294935,0.18634 -0.2161446,0.26149 -0.1663972,0.14223 -0.3486928,0.25126 -0.5450612,0.35254 0,0 0.2724446,-0.22042 0.2724449,-0.22042 z"
       inkscape:connector-curvature="0"
       style="stroke-width:0.26458332" />
    <path
       id="path1187"
       d="m 6.7548815,288.44759 c -0.089064,-0.0301 -0.1713299,-0.0781 -0.2489055,-0.13058 -0.085333,-0.0567 -0.1633738,-0.12266 -0.2345885,-0.19609 -0.054764,-0.0542 -0.098728,-0.11689 -0.1348688,-0.18463 -0.038728,-0.0801 -0.057317,-0.16597 -0.067764,-0.25366 -0.00869,-0.10212 0.018224,-0.20146 0.04471,-0.29901 0.012951,-0.0478 0.030539,-0.0939 0.04912,-0.1397 0,0 0.3171936,-0.14576 0.3171936,-0.14576 v 0 c -0.020137,0.0446 -0.039161,0.0897 -0.053632,0.13654 -0.02599,0.0938 -0.056728,0.18856 -0.050928,0.28723 0.00969,0.0834 0.026032,0.16515 0.06334,0.24122 0.034906,0.0646 0.076712,0.12483 0.1286076,0.1772 0.069294,0.0718 0.1457884,0.13583 0.229593,0.19034 0.076502,0.0495 0.1571289,0.0966 0.246525,0.11797 0,0 -0.2884024,0.19893 -0.2884024,0.19893 z"
       inkscape:connector-curvature="0"
       style="stroke-width:0.26458332" />
    <path
       id="path1189"
       d="m 9.3219253,286.93297 c 0.1071348,-0.0604 0.2159272,-0.11777 0.323424,-0.17755 0.025212,-0.0139 0.1004149,-0.0562 0.075633,-0.0416 -0.069366,0.0409 -0.2794093,0.16039 -0.2094064,0.12055 0.1552284,-0.0883 0.3080885,-0.18091 0.4652979,-0.26566 0.00931,-0.005 0.1915552,-0.0988 0.1975322,-0.10186 0.237017,-0.1255 0.480937,-0.23734 0.722313,-0.35408 0.258454,-0.12381 0.523756,-0.23276 0.792136,-0.33299 0.283331,-0.10534 0.573109,-0.1907 0.86397,-0.27225 0.305779,-0.093 0.614503,-0.17521 0.922973,-0.25861 0.312009,-0.0782 0.623324,-0.1591 0.935229,-0.23768 0.256429,-0.0685 0.513429,-0.13407 0.772548,-0.19152 0.147424,-0.0337 0.295581,-0.0641 0.441045,-0.10566 0,0 -0.274387,0.2107 -0.274387,0.2107 v 0 c -0.143541,0.037 -0.288969,0.0657 -0.433635,0.0979 -0.257053,0.0557 -0.511648,0.12131 -0.766097,0.18788 -0.311392,0.0783 -0.622518,0.15774 -0.933634,0.23716 -0.308773,0.0832 -0.617129,0.1676 -0.923474,0.25946 -0.290897,0.0825 -0.58061,0.16933 -0.863857,0.27572 -0.267739,0.10175 -0.53286,0.21083 -0.790773,0.33566 -0.242867,0.11702 -0.487391,0.23093 -0.7253932,0.35771 -0.055644,0.0289 -0.1428586,0.0738 -0.1985007,0.10419 -0.029887,0.0163 -0.1182516,0.0676 -0.089021,0.0501 0.4987729,-0.29829 -0.063251,0.0457 -0.245414,0.13864 -0.1104648,0.0611 -0.2218306,0.12067 -0.3309532,0.18419 0,0 0.2724446,-0.22042 0.2724446,-0.22042 z"
       inkscape:connector-curvature="0"
       style="stroke-width:0.26458332" />
    <path
       id="path1191"
       d="m 9.72486,287.07903 c 0.1404993,-0.0588 0.281562,-0.11634 0.421094,-0.17748 0.245227,-0.11446 0.501771,-0.20088 0.75587,-0.29282 0.310014,-0.1106 0.626764,-0.19962 0.942946,-0.29032 0.375623,-0.10752 0.757119,-0.19421 1.139328,-0.2748 0.401305,-0.0884 0.807393,-0.15227 1.214587,-0.20617 0.319976,-0.0452 0.642275,-0.0677 0.964966,-0.0805 0.213758,-10e-4 0.427685,0.0141 0.640571,0.0328 0.149923,0.01 0.297851,0.0355 0.446308,0.0569 0.05653,0.008 0.113413,0.013 0.170384,0.0166 0,0 -0.283936,0.20274 -0.283936,0.20274 v 0 c -0.05611,-0.006 -0.112145,-0.0122 -0.167825,-0.0213 -0.146299,-0.0233 -0.29245,-0.0484 -0.44048,-0.0584 -0.210297,-0.0181 -0.421344,-0.036 -0.632553,-0.0335 -0.319207,0.0108 -0.637974,0.0328 -0.954532,0.0766 -0.406421,0.0531 -0.811301,0.11851 -1.211642,0.20712 -0.383069,0.0822 -0.765482,0.16979 -1.141724,0.27948 -0.317119,0.0915 -0.634342,0.18296 -0.945097,0.29477 -0.256153,0.0928 -0.513491,0.1832 -0.7604243,0.29915 -0.1439873,0.063 -0.2892608,0.12293 -0.4329555,0.18653 0,0 0.2751148,-0.21742 0.2751148,-0.21742 z"
       inkscape:connector-curvature="0"
       style="stroke-width:0.26458332" />
    <path
       id="path1193"
       d="m 10.136664,287.46309 c 0.18753,-0.0481 0.37713,-0.0874 0.566371,-0.12804 0.312801,-0.0701 0.626399,-0.13651 0.94062,-0.19993 0.388009,-0.0712 0.778747,-0.12669 1.169449,-0.18078 0.427746,-0.0563 0.857341,-0.0989 1.28776,-0.12822 0.440719,-0.029 0.882131,-0.0285 1.323145,-0.009 0.390938,0.0118 0.779962,0.0492 1.164526,0.12004 0.249589,0.046 0.493677,0.1153 0.73493,0.19316 0.02582,0.008 0.05164,0.0168 0.07746,0.0252 0,0 -0.281927,0.19103 -0.281927,0.19103 v 0 c -0.02496,-0.009 -0.04992,-0.0177 -0.07488,-0.0266 -0.236744,-0.0794 -0.47664,-0.14936 -0.722135,-0.19657 -0.381323,-0.0713 -0.767215,-0.10942 -1.15505,-0.12125 -0.440661,-0.0191 -0.881641,-0.0171 -1.321903,0.0129 -0.430013,0.0301 -0.859377,0.072 -1.286554,0.13009 -0.392127,0.0553 -0.784302,0.11222 -1.173397,0.18622 -0.316024,0.0646 -0.631314,0.13273 -0.945799,0.20446 -0.194448,0.0432 -0.388865,0.0866 -0.5811928,0.13854 0,0 0.2785688,-0.21092 0.2785688,-0.21092 z"
       inkscape:connector-curvature="0"
       style="stroke-width:0.26458332" />
    <path
       id="path1195"
       d="m 7.2769007,287.45505 c -0.1186543,-0.0377 -0.2436625,-0.0522 -0.3664665,-0.0705 -0.2119603,-0.0328 -0.4226385,-0.0733 -0.633319,-0.11342 -0.2690027,-0.0572 -0.5420165,-0.0899 -0.8151247,-0.11967 -0.3134603,-0.0371 -0.628868,-0.0341 -0.943678,-0.0242 -0.2953361,0.0102 -0.5881851,0.0503 -0.8799644,0.0946 -0.268554,0.0442 -0.5343377,0.10376 -0.8011642,0.15725 -0.253476,0.0529 -0.5046001,0.11666 -0.7587879,0.16605 -0.2025047,0.0416 -0.4065758,0.0737 -0.6114018,0.10129 -0.1578658,0.0193 -0.3169506,0.0248 -0.47582417,0.0279 -0.0943422,0.002 -0.18870758,0.002 -0.28306365,0.003 -0.0237297,0.003 -0.0454791,-0.003 -0.0678045,-0.01 0,0 0.28929483,-0.19967 0.28929483,-0.19967 v 0 c 0.0201538,0.004 0.040344,0.005 0.0608913,0.004 0.0924243,0.001 0.18486899,0.001 0.27729799,5.6e-4 0.1572899,-0.003 0.3147562,-0.008 0.4709046,-0.0291 0.2029142,-0.0271 0.4051064,-0.0586 0.6057467,-0.0996 0.2531697,-0.0505 0.5039533,-0.11208 0.7567032,-0.16462 0.2667637,-0.0534 0.5323848,-0.1137 0.8013223,-0.15535 0.2918386,-0.0434 0.5848874,-0.0812 0.8801719,-0.0899 0.3159758,-0.009 0.6322931,-0.009 0.9468493,0.0274 0.275227,0.0289 0.5501002,0.0626 0.8213847,0.11847 0.2117997,0.0393 0.4236286,0.0788 0.636956,0.10905 0.1269926,0.0173 0.2546623,0.0339 0.3785262,0.0678 0,0 -0.2894502,0.19823 -0.2894502,0.19823 z"
       inkscape:connector-curvature="0"
       style="stroke-width:0.26458332" />
    <path
       id="path1197"
       d="m 6.6310906,287.99495 c -0.1774732,-0.0494 -0.3614669,-0.063 -0.544689,-0.07 -0.3256653,-0.0123 -0.6499939,0.021 -0.972613,0.061 -0.3726546,0.0413 -0.7387977,0.12103 -1.1031686,0.20697 -0.3622955,0.0926 -0.722412,0.19342 -1.0805951,0.30075 -0.3348168,0.1047 -0.6637226,0.22709 -0.9939641,0.34513 -0.2594445,0.0876 -0.5102164,0.19787 -0.7579013,0.31404 -0.1539546,0.0696 -0.30567173,0.14379 -0.45713235,0.21855 -0.0427208,0.0234 -0.0853919,0.0465 -0.12967359,0.0668 0,0 0.27398255,-0.21812 0.27398255,-0.21812 v 0 c 0.0420538,-0.0204 0.0829451,-0.043 0.12489031,-0.0637 0.14867018,-0.0728 0.29880828,-0.14251 0.44934498,-0.21142 0.2464089,-0.11386 0.4962183,-0.22063 0.7538236,-0.30691 0.3294596,-0.11723 0.6577568,-0.23839 0.9920205,-0.34147 0.3584292,-0.10668 0.7186256,-0.20756 1.0812989,-0.29887 0.3654629,-0.0854 0.7328231,-0.16353 1.1063357,-0.20503 0.3261103,-0.0403 0.6539007,-0.0726 0.9830336,-0.0621 0.1892999,0.007 0.3788823,0.022 0.5634527,0.0674 0,0 -0.2884458,0.19699 -0.2884458,0.19699 z"
       inkscape:connector-curvature="0"
       style="stroke-width:0.26458332" />
    <path
       id="path1199"
       d="m 6.6872878,288.06794 c -0.1796396,0.0666 -0.352086,0.15004 -0.5245343,0.23311 -0.3261,0.16697 -0.6479741,0.34191 -0.9735254,0.51006 -0.3938502,0.20704 -0.7845104,0.42003 -1.1713339,0.63991 -0.062403,0.0359 -0.125222,0.071 -0.1872097,0.10764 -0.030505,0.018 0.1227416,-0.0707 0.092751,-0.0519 -0.056847,0.0357 -0.1158264,0.068 -0.1733745,0.10255 -0.1578761,0.0949 -0.3143407,0.19229 -0.4710825,0.28905 -0.2622645,0.16444 -0.5131466,0.34571 -0.7618248,0.52975 -0.187973,0.14167 -0.3714441,0.28914 -0.5433223,0.45003 -0.1137594,0.10745 -0.2259006,0.21658 -0.3370336,0.32674 -0.040339,0.0401 -0.080598,0.0803 -0.1205998,0.12077 0,0 -0.3219608,0.13333 -0.3219608,0.13333 v 0 c 0.041442,-0.0409 0.082701,-0.0819 0.1243405,-0.1226 0.1137307,-0.11106 0.2281961,-0.22136 0.3439273,-0.33034 0.1723975,-0.16394 0.358031,-0.31251 0.5476202,-0.45607 0.2506647,-0.18524 0.5030112,-0.36845 0.7668844,-0.53467 0.4245776,-0.26193 0.8517916,-0.51944 1.2870751,-0.76336 0.3876543,-0.21956 0.778995,-0.4325 1.1732824,-0.63993 0.3287151,-0.17059 0.6532536,-0.34898 0.9833779,-0.51676 0.1783561,-0.0862 0.3568739,-0.17274 0.5427403,-0.24191 0,0 -0.276197,0.21457 -0.276197,0.21457 z"
       inkscape:connector-curvature="0"
       style="stroke-width:0.26458332" />
    <path
       id="path1201"
       d="m 9.3562378,284.63156 c 0.066519,0.0362 0.1342935,0.0695 0.1974874,0.11146 0.048128,0.0317 0.099794,0.0583 0.1445908,0.0947 0.03363,0.0276 0.063073,0.0592 0.092178,0.0914 0.028042,0.032 0.050088,0.067 0.068671,0.10515 0.018494,0.0424 0.023384,0.0886 0.03364,0.13331 0.010361,0.0418 0.015298,0.0844 0.01851,0.12721 0.00204,0.034 0.0018,0.0681 0.00209,0.10214 -0.00148,0.0266 -0.00973,0.0538 -0.021405,0.0778 -0.00956,0.0108 -0.013425,0.0246 -0.021556,0.0363 0,0 -0.3266318,0.13341 -0.3266318,0.13341 v 0 c 0.014219,-0.007 0.020376,-0.0123 0.025125,-0.0287 0.018116,-0.0187 0.01959,-0.0362 0.031081,-0.0591 3.439e-4,-0.0335 2.91e-4,-0.067 -6.879e-4,-0.10054 -0.00167,-0.0411 -0.00553,-0.082 -0.014997,-0.12219 -0.010189,-0.0422 -0.014703,-0.0857 -0.030093,-0.12642 -0.01706,-0.0352 -0.037839,-0.0671 -0.063778,-0.0964 -0.027981,-0.0306 -0.056176,-0.0609 -0.088897,-0.0866 -0.044795,-0.0343 -0.093905,-0.0622 -0.140802,-0.0934 -0.063468,-0.0409 -0.1309873,-0.0745 -0.1983547,-0.1084 0,0 0.2938224,-0.191 0.2938224,-0.191 z"
       inkscape:connector-curvature="0"
       style="stroke-width:0.26458332" />
    <path
       id="path1203"
       d="m 5.8829254,285.36601 c -0.046674,-0.0291 -0.093488,-0.0592 -0.1306806,-0.10001 -0.081949,-0.1383 0.1716934,-0.22406 0.3114209,-0.23092 0.037744,0.0135 0.072247,0.0342 0.104267,0.0582 0.040704,0.0302 0.076722,0.0642 0.1108559,0.10154 0.035805,0.0345 0.062781,0.0757 0.088726,0.11773 0.029859,0.0434 0.05453,0.09 0.081796,0.13505 0.027353,0.0399 0.051464,0.0812 0.067543,0.12689 0.019217,0.0389 0.03016,0.0799 0.036254,0.12265 0.00518,0.0407 0.00535,0.0819 0.00547,0.12293 0.0014,0.0558 -0.00316,0.1113 -0.00797,0.16682 0,0 -0.3104755,0.15467 -0.3104755,0.15467 v 0 c 0.00514,-0.054 0.00808,-0.10785 0.00592,-0.16214 -9.95e-5,-0.0397 2.214e-4,-0.0795 -0.00332,-0.1191 -0.00462,-0.0408 -0.014134,-0.0797 -0.0327,-0.11668 -0.014134,-0.0439 -0.038364,-0.0824 -0.063845,-0.12062 -0.026157,-0.0454 -0.051477,-0.0913 -0.081254,-0.13443 -0.025067,-0.04 -0.051304,-0.0788 -0.085082,-0.11213 -0.03305,-0.0351 -0.068313,-0.0669 -0.1076508,-0.0949 -0.024897,-0.0164 -0.058726,-0.0428 -0.090118,-0.0344 -0.118364,0.038 0.031982,-0.009 0.2811894,-0.16803 0.0041,-0.003 -0.023672,-0.0148 -0.010549,0.005 0.034861,0.0392 0.080695,0.0667 0.1256832,0.0928 0,0 -0.2954779,0.18919 -0.2954779,0.18919 z"
       inkscape:connector-curvature="0"
       style="stroke-width:0.26458332" />
    <path
       id="path1207"
       d="m 11.502358,287.58475 c 0.09627,-10e-4 0.191543,0.0114 0.285564,0.0312 0.131658,0.0304 0.251492,0.0942 0.371317,0.15435 0.154091,0.0769 0.304686,0.1604 0.452825,0.24813 0.150505,0.0922 0.296995,0.19026 0.43788,0.29659 0.154596,0.1199 0.304769,0.24541 0.453665,0.37229 0.157481,0.13008 0.29783,0.2782 0.432873,0.43092 0.126664,0.14796 0.221901,0.3178 0.31177,0.48953 0.09979,0.19868 0.191092,0.40121 0.276479,0.60642 0.09775,0.24338 0.196212,0.48643 0.304628,0.72528 0.117529,0.25172 0.220463,0.50976 0.326844,0.76627 0.09502,0.23626 0.212557,0.46136 0.344156,0.679 0.145586,0.24656 0.338248,0.4572 0.533055,0.66483 0.206737,0.22291 0.439444,0.41758 0.689724,0.58926 0.184027,0.12263 0.38694,0.20771 0.594726,0.28013 0,0 -0.277556,0.18722 -0.277556,0.18722 v 0 c -0.207023,-0.0785 -0.411098,-0.16488 -0.595159,-0.29006 -0.250252,-0.1751 -0.483134,-0.37239 -0.691808,-0.59603 -0.19775,-0.20833 -0.391962,-0.42087 -0.54044,-0.66853 -0.13344,-0.21866 -0.250748,-0.4458 -0.346042,-0.68388 -0.104644,-0.25683 -0.207375,-0.51456 -0.325359,-0.76568 -0.109222,-0.23872 -0.209313,-0.48133 -0.30781,-0.72465 -0.08613,-0.20371 -0.178177,-0.4048 -0.278137,-0.60215 -0.0891,-0.16915 -0.183844,-0.33586 -0.307859,-0.48247 -0.133613,-0.15192 -0.273329,-0.29836 -0.429987,-0.427 -0.148949,-0.12609 -0.298804,-0.25138 -0.454153,-0.36956 -0.140658,-0.10475 -0.286597,-0.20156 -0.436057,-0.29333 -0.148082,-0.0872 -0.298869,-0.16975 -0.453535,-0.24479 -0.118457,-0.0587 -0.238042,-0.1185 -0.368668,-0.14493 -0.09346,-0.0168 -0.188876,-0.0292 -0.283868,-0.0188 0,0 0.280932,-0.20949 0.280932,-0.20949 z"
       inkscape:connector-curvature="0"
       style="stroke-width:0.26458332" />
    <path
       id="path1215"
       d="m 11.464401,292.79068 c -0.05079,0.0793 -0.07746,0.16714 -0.09478,0.25874 -0.02122,0.13297 -0.003,0.2677 0.006,0.40094 0.01713,0.22461 0.05262,0.44718 0.07673,0.67107 0.02529,0.2536 0.03076,0.50857 0.03446,0.76322 0.0046,0.2283 -0.02677,0.45444 -0.06698,0.67849 -0.0366,0.19321 -0.08224,0.38447 -0.134693,0.57394 -0.03783,0.13342 -0.07695,0.26643 -0.116278,0.39942 -0.02408,0.0878 -0.06329,0.16867 -0.11592,0.2426 -0.113294,0.14592 -0.285624,0.23892 -0.457427,0.3021 -0.06535,0.0182 -0.135234,0.0249 -0.202746,0.018 -0.08169,-0.006 -0.153117,-0.0408 -0.220895,-0.084 -0.100883,-0.0556 -0.1761133,-0.14359 -0.2514855,-0.22853 -0.1075952,-0.12621 -0.1976027,-0.26449 -0.2845636,-0.40525 -0.096789,-0.15258 -0.1808281,-0.31282 -0.2583614,-0.47589 -0.08353,-0.17392 -0.1475369,-0.35553 -0.2054441,-0.53925 -0.060689,-0.17102 -0.087438,-0.3494 -0.1013349,-0.52943 -0.01583,-0.18219 -0.00314,-0.36413 0.017267,-0.54527 0.019537,-0.16741 0.036744,-0.33508 0.05632,-0.50248 0.011004,-0.11435 0.028241,-0.22789 0.042951,-0.34178 0.00304,-0.0384 0.010258,-0.0763 0.018841,-0.1138 0,0 0.316687,-0.15101 0.316687,-0.15101 v 0 c -0.011306,0.0363 -0.021376,0.0732 -0.023977,0.11141 -0.016822,0.11461 -0.037429,0.22863 -0.048734,0.34401 -0.021058,0.16757 -0.03893,0.33554 -0.058452,0.5033 -0.021095,0.17912 -0.035744,0.35904 -0.019881,0.53938 0.013044,0.17767 0.037467,0.35415 0.096492,0.52323 0.057013,0.18239 0.1208585,0.36227 0.203277,0.535 0.077394,0.16175 0.1623634,0.32008 0.2577041,0.47202 0.08617,0.13907 0.1756974,0.27546 0.2846234,0.3982 0.0745,0.0823 0.15007,0.16542 0.249575,0.21807 0.06573,0.0392 0.135217,0.0668 0.212864,0.0687 0.06543,8.2e-4 0.131861,-0.005 0.192779,-0.0307 0.118465,-0.058 0.07802,-0.0391 -0.237276,0.14214 -0.0098,0.006 0.01861,-0.0127 0.02781,-0.0192 0.03237,-0.0228 0.02374,-0.015 0.05057,-0.0448 0.0079,-0.009 0.01545,-0.0177 0.02318,-0.0265 0.0557,-0.0699 0.09938,-0.14656 0.124155,-0.23307 0.04206,-0.13312 0.081,-0.2672 0.12116,-0.40093 0.05452,-0.18884 0.102233,-0.37947 0.139224,-0.5726 0.04177,-0.22238 0.07471,-0.44693 0.07234,-0.67389 -0.0029,-0.25381 -0.0073,-0.50794 -0.03241,-0.76072 -0.02433,-0.2234 -0.06268,-0.44486 -0.08382,-0.66861 -0.01123,-0.13485 -0.03255,-0.27108 -0.01421,-0.40622 0.01453,-0.0937 0.0374,-0.18414 0.08458,-0.26735 0,0 0.320084,-0.14268 0.320084,-0.14268 z"
       inkscape:connector-curvature="0"
       style="stroke-width:0.26458332" />
    <path
       id="path1217"
       d="m 7.8099392,293.42607 c -0.00342,0.17944 -0.035969,0.35655 -0.065442,0.53306 -0.061582,0.34053 -0.1018376,0.68387 -0.134144,1.02821 -0.025138,0.31343 -0.049525,0.62701 -0.083377,0.93965 -0.028616,0.22496 -0.058559,0.4499 -0.1108586,0.67072 -0.033145,0.14223 -0.088678,0.2761 -0.1633453,0.40112 -0.041301,0.063 -0.091336,0.12198 -0.1572519,0.16046 -0.3461123,0.20203 -0.2278811,0.15802 -0.4176059,0.221 -0.1665123,0.0517 -0.3346876,0.0354 -0.5017426,-0.002 -0.1723406,-0.0509 -0.3210287,-0.15421 -0.4397986,-0.28809 -0.028694,-0.0324 -0.054326,-0.0673 -0.081489,-0.10092 -0.1373992,-0.19375 -0.2428815,-0.40887 -0.3149854,-0.6351 -0.01455,-0.0457 -0.026289,-0.0922 -0.039433,-0.13823 -0.066821,-0.24732 -0.077701,-0.50186 -0.063643,-0.75612 0.026453,-0.25967 0.062259,-0.5184 0.099151,-0.77678 0.031013,-0.25865 0.077097,-0.51514 0.1292846,-0.77026 0.034343,-0.17088 0.079587,-0.33903 0.1358427,-0.50391 0.011822,-0.0383 0.027141,-0.0752 0.043043,-0.11186 0,0 0.3176661,-0.14455 0.3176661,-0.14455 v 0 c -0.018539,0.036 -0.036472,0.0724 -0.049347,0.11099 -0.061201,0.1642 -0.1102334,0.33213 -0.1463083,0.50377 -0.054714,0.25473 -0.103315,0.51093 -0.1335008,0.76989 -0.036269,0.25708 -0.070165,0.51461 -0.097282,0.77282 -0.016065,0.25115 -0.00903,0.50316 0.05478,0.74825 0.01266,0.0455 0.023791,0.0915 0.037979,0.13662 0.070098,0.22278 0.1749531,0.43438 0.3118329,0.62361 0.027034,0.0325 0.05254,0.0662 0.081103,0.0973 0.1176382,0.12812 0.2643846,0.22439 0.4331311,0.26912 0.1715146,0.0333 0.3252748,0.0425 0.493473,-0.0159 0.1486308,-0.0596 0.091066,-0.0404 -0.1729843,0.11521 -0.01638,0.01 0.033018,-0.0189 0.048652,-0.0298 0.032984,-0.0228 0.053945,-0.042 0.08011,-0.0723 0.012322,-0.0143 0.023143,-0.0298 0.034714,-0.0447 0.018793,-0.0296 0.04873,-0.0755 0.064772,-0.10632 0.047393,-0.0912 0.079642,-0.18955 0.1084972,-0.28778 0.056938,-0.22003 0.087797,-0.44522 0.1194459,-0.67007 0.036947,-0.31337 0.063648,-0.62781 0.08999,-0.94223 0.032106,-0.34342 0.071403,-0.68585 0.1260208,-1.02654 0.025963,-0.17193 0.056293,-0.34544 0.051209,-0.51995 0,0 0.3118429,-0.15889 0.3118429,-0.15889 z"
       inkscape:connector-curvature="0"
       style="stroke-width:0.26458332" />
    <path
       id="path1219"
       d="m 16.809347,293.55678 c 0.04105,-0.13866 0.04607,-0.28086 0.04118,-0.42423 -0.01,-0.22634 -0.07573,-0.44257 -0.154867,-0.65301 -0.08946,-0.23531 -0.208072,-0.45751 -0.322061,-0.68143 -0.139299,-0.25602 -0.241757,-0.52824 -0.330232,-0.8052 -0.08113,-0.26497 -0.125827,-0.53903 -0.156378,-0.81389 -0.01353,-0.16012 -0.01009,-0.3228 0.03392,-0.47839 0.0079,-0.0281 0.01859,-0.0553 0.02789,-0.0829 0.06486,-0.16718 0.189411,-0.29221 0.324474,-0.40466 0.192541,-0.1361 0.390517,-0.28186 0.618173,-0.35045 0.09306,-0.0253 0.18445,-0.0213 0.276976,0.002 0.11189,0.04 0.193463,0.12144 0.26079,0.21631 0.0976,0.1731 0.107035,0.37283 0.109394,0.56679 -0.0053,0.24216 -0.01493,0.48418 -0.01968,0.72636 -0.0085,0.15282 0.001,0.30446 0.02355,0.45555 0.02276,0.0934 0.01,0.0479 0.03806,0.13674 0,0 -0.300234,0.16459 -0.300234,0.16459 v 0 c -0.02827,-0.0918 -0.01459,-0.0448 -0.04087,-0.14112 -0.02381,-0.15388 -0.03225,-0.30812 -0.02078,-0.46375 0.008,-0.24218 0.01969,-0.48426 0.02301,-0.72656 -0.0028,-0.18644 -0.01289,-0.37817 -0.108022,-0.54389 -0.06466,-0.0877 -0.142148,-0.16285 -0.249722,-0.19365 -0.08953,-0.0174 -0.17825,-0.0154 -0.265779,0.0131 -0.01496,0.005 -0.03015,0.0102 -0.04487,0.0162 -0.01608,0.007 -0.06219,0.0307 -0.04745,0.0215 0.07911,-0.0493 0.16052,-0.0947 0.240845,-0.14197 0.01884,-0.0111 -0.03781,0.022 -0.05639,0.0335 -0.01996,0.0124 -0.03977,0.025 -0.05921,0.0381 -0.02097,0.0142 -0.04133,0.0293 -0.06199,0.0439 -0.135653,0.10696 -0.263275,0.2258 -0.332685,0.3878 -0.0098,0.0266 -0.02111,0.0527 -0.02944,0.0798 -0.04686,0.15229 -0.05445,0.31269 -0.04393,0.47071 0.02548,0.27384 0.06778,0.54675 0.148549,0.81031 0.08748,0.27538 0.189946,0.54554 0.329989,0.79914 0.115125,0.22466 0.235846,0.44701 0.325864,0.68345 0.08162,0.21269 0.148642,0.43186 0.162992,0.66073 0.0085,0.14647 0.0072,0.28363 -0.02512,0.42742 0,0 -0.315971,0.15136 -0.315971,0.15136 z"
       inkscape:connector-curvature="0"
       style="stroke-width:0.26458332" />
    <path
       id="path1223"
       d="m 5.5359731,288.21038 c -0.047491,0.13754 -0.1006531,0.27299 -0.1512092,0.40941 -0.06175,0.1722 -0.1154898,0.34709 -0.1692753,0.5219 -0.044934,0.1402 -0.083225,0.28242 -0.1132123,0.42654 -0.028402,0.14869 -0.032488,0.30034 -0.035681,0.45123 -0.00124,0.15128 0.018833,0.30138 0.03202,0.45177 0.010139,0.11655 0.012152,0.23349 0.021825,0.35005 0.01156,0.10086 0.030292,0.20063 0.045781,0.3009 0.0186,0.0942 0.030061,0.18952 0.044199,0.28444 0.010512,0.0957 0.028879,0.19042 0.050467,0.28421 0.019386,0.0966 0.041558,0.19244 0.065422,0.28802 0.02748,0.10341 0.056525,0.20624 0.08979,0.30796 0.026657,0.087 0.057096,0.17295 0.088387,0.25842 0.034563,0.082 0.07315,0.1623 0.1066122,0.24476 0.032194,0.0755 0.063219,0.15148 0.099246,0.22528 0.036859,0.0693 0.077651,0.13553 0.1269056,0.19666 0.063257,0.0765 0.1194247,0.15835 0.1779151,0.23845 0,0 -0.2911309,0.17236 -0.2911309,0.17236 v 0 c -0.058827,-0.0797 -0.1193088,-0.15798 -0.1846598,-0.23251 -0.051278,-0.0629 -0.09302,-0.13165 -0.1309762,-0.2033 -0.036841,-0.0744 -0.067712,-0.15134 -0.1000574,-0.22776 -0.033221,-0.0829 -0.072073,-0.16351 -0.1067263,-0.24584 -0.032061,-0.0857 -0.062688,-0.17215 -0.088552,-0.25993 -0.033088,-0.10256 -0.061531,-0.20641 -0.090451,-0.31019 -0.024601,-0.0955 -0.04785,-0.19128 -0.066451,-0.28818 -0.02249,-0.0945 -0.040807,-0.19014 -0.051828,-0.28673 -0.014055,-0.0949 -0.025236,-0.19028 -0.044003,-0.28445 -0.014885,-0.1012 -0.03388,-0.20175 -0.045964,-0.30339 -0.00982,-0.11698 -0.011766,-0.23414 -0.019442,-0.35128 -0.012158,-0.15175 -0.03156,-0.30306 -0.032569,-0.4555 0.00312,-0.15237 0.00586,-0.30563 0.031888,-0.45617 0.02868,-0.14595 0.067841,-0.28946 0.1141746,-0.43082 0.05472,-0.1752 0.108985,-0.35056 0.169546,-0.52386 0.04813,-0.13423 0.1010481,-0.26692 0.1414262,-0.40378 0,0 0.3165795,-0.14867 0.3165795,-0.14867 z"
       inkscape:connector-curvature="0"
       style="stroke-width:0.26458332" />
  </g>
</svg>
