<?xml version="1.0" encoding="UTF-8" standalone="no"?>
<!-- Created with Inkscape (http://www.inkscape.org/) -->

<svg
   xmlns:dc="http://purl.org/dc/elements/1.1/"
   xmlns:cc="http://creativecommons.org/ns#"
   xmlns:rdf="http://www.w3.org/1999/02/22-rdf-syntax-ns#"
   xmlns:svg="http://www.w3.org/2000/svg"
   xmlns="http://www.w3.org/2000/svg"
   xmlns:sodipodi="http://sodipodi.sourceforge.net/DTD/sodipodi-0.dtd"
   xmlns:inkscape="http://www.inkscape.org/namespaces/inkscape"
   width="64"
   height="64"
   viewBox="0 0 16.933333 16.933334"
   version="1.1"
   id="svg8"
   inkscape:version="0.92.1 r15371"
   sodipodi:docname="1_cat_6.svg"
   inkscape:export-filename="/home/physt/undev/repos/deep_learning/workshop/tasks/commonlearningdata/cartooncats/1_cat_6.png"
   inkscape:export-xdpi="96.000008"
   inkscape:export-ydpi="96.000008">
  <defs
     id="defs2" />
  <sodipodi:namedview
     id="base"
     pagecolor="#ffffff"
     bordercolor="#666666"
     borderopacity="1.0"
     inkscape:pageopacity="0.0"
     inkscape:pageshadow="2"
     inkscape:zoom="11.2"
     inkscape:cx="50.237003"
     inkscape:cy="29.986148"
     inkscape:document-units="mm"
     inkscape:current-layer="layer1"
     showgrid="false"
     inkscape:window-width="1920"
     inkscape:window-height="1016"
     inkscape:window-x="0"
     inkscape:window-y="27"
     inkscape:window-maximized="1"
     units="px" />
  <metadata
     id="metadata5">
    <rdf:RDF>
      <cc:Work
         rdf:about="">
        <dc:format>image/svg+xml</dc:format>
        <dc:type
           rdf:resource="http://purl.org/dc/dcmitype/StillImage" />
        <dc:title></dc:title>
      </cc:Work>
    </rdf:RDF>
  </metadata>
  <g
     inkscape:label="Layer 1"
     inkscape:groupmode="layer"
     id="layer1"
     transform="translate(0,-280.06665)">
    <path
       id="path880"
       d="m 3.9677919,289.15458 c 0.079893,0.0904 0.169359,0.17154 0.2601981,0.25065 0.1169091,0.0986 0.2377922,0.19195 0.3612978,0.28203 0.1201746,0.0897 0.2471769,0.16943 0.3705934,0.25441 0.1287873,0.0923 0.2591991,0.18189 0.3937617,0.26556 0.1332436,0.089 0.2739771,0.16413 0.4175807,0.23459 0.1357352,0.07 0.2822319,0.11304 0.4275595,0.15775 0.1452693,0.041 0.2927623,0.0704 0.4412671,0.0964 0.1428043,0.0237 0.2875349,0.031 0.4315878,0.0434 0.142104,0.0161 0.2844403,0.0113 0.4268943,0.006 0.1514224,-0.006 0.3024032,-0.0204 0.4531538,-0.0354 0.1394761,-0.0174 0.278643,-0.0376 0.4158943,-0.0682 0.1312219,-0.0308 0.2594721,-0.0708 0.38564,-0.11799 0.1327036,-0.0444 0.2582822,-0.10537 0.3838966,-0.1663 0.099564,-0.0602 0.3592039,-0.18932 -0.1052483,0.0597 -0.020553,0.011 0.039424,-0.0249 0.058632,-0.0382 0.043045,-0.0296 0.071905,-0.0531 0.1132303,-0.0853 0.1289759,-0.0999 0.24287,-0.21653 0.3558545,-0.33363 0.1259255,-0.12654 0.2442443,-0.25998 0.3591774,-0.39648 0.1048111,-0.13106 0.2079251,-0.2637 0.3068561,-0.39927 0.08666,-0.11496 0.165004,-0.23547 0.238856,-0.35894 0.0649,-0.117 0.129471,-0.23407 0.187461,-0.35468 0.05458,-0.11588 0.104729,-0.23389 0.14074,-0.35691 0.03471,-0.1179 0.05606,-0.23877 0.07479,-0.36002 0.02225,-0.14061 0.02904,-0.28289 0.03337,-0.42497 0.0048,-0.14683 -0.0065,-0.29356 -0.01997,-0.43964 -0.01644,-0.13748 -0.03584,-0.27436 -0.05866,-0.4109 -0.01822,-0.13639 -0.06597,-0.26536 -0.111309,-0.39443 -0.04076,-0.1191 -0.100295,-0.23019 -0.161544,-0.3397 -0.05762,-0.1034 -0.128988,-0.19738 -0.201151,-0.29075 -0.06333,-0.0799 -0.140057,-0.14662 -0.216167,-0.21375 -0.07271,-0.0655 -0.1557745,-0.11677 -0.2367918,-0.1709 -0.087937,-0.0595 -0.1807612,-0.11106 -0.2743478,-0.16098 -0.09409,-0.0609 -0.1979753,-0.1031 -0.2999859,-0.14839 -0.1034555,-0.0483 -0.2124353,-0.0823 -0.3193214,-0.12181 -0.1118235,-0.0361 -0.2234634,-0.0719 -0.3381539,-0.0978 -0.1242727,-0.0316 -0.2495658,-0.0585 -0.3748722,-0.0856 -0.1365936,-0.0259 -0.2732672,-0.0516 -0.4111371,-0.0697 -0.1383935,-0.0224 -0.2781761,-0.0338 -0.4175882,-0.0476 -0.1363771,-0.0133 -0.2733786,-0.0169 -0.4102965,-0.0191 -0.1395516,0.006 -0.2789859,0.0143 -0.418633,0.0185 -0.1434621,-0.001 -0.2849748,0.0243 -0.4265237,0.044 -0.1543888,0.0257 -0.3096135,0.046 -0.4635709,0.0742 -0.1611685,0.0271 -0.3180088,0.0723 -0.4744566,0.11862 -0.1567103,0.0461 -0.3118906,0.0962 -0.4628722,0.15862 -0.1394838,0.0578 -0.2776855,0.11844 -0.4118522,0.18779 -0.021638,0.0109 -0.043396,0.0215 -0.064916,0.0326 -0.052225,0.0269 -0.06812,0.0362 -0.1191014,0.0651 -0.019071,0.0108 -0.076184,0.0434 -0.057134,0.0326 0.2563265,-0.14602 0.3170788,-0.1834 0.1827895,-0.10222 -0.1111787,0.0643 -0.2103469,0.14568 -0.3060033,0.2307 -0.08499,0.079 -0.1595234,0.16828 -0.228613,0.26128 -0.06943,0.095 -0.1290179,0.19592 -0.182183,0.30074 -0.061716,0.12515 -0.1094844,0.25643 -0.1484302,0.39024 -0.041882,0.15181 -0.066162,0.3075 -0.089432,0.46299 -0.019968,0.12434 -0.029046,0.24991 -0.033494,0.37564 -0.00476,0.0915 8.731e-4,0.18289 0.014105,0.27346 0.010941,0.085 0.028863,0.16859 0.047903,0.25205 0.019796,0.0834 0.050926,0.16335 0.080635,0.24354 0.02123,0.0744 0.055304,0.14337 0.090802,0.21171 0.044829,0.0823 0.0882,0.16538 0.1303221,0.24914 0.050995,0.0935 0.097295,0.19034 0.1539478,0.28059 0.053808,0.0781 0.1009203,0.1607 0.1571279,0.23711 0.069159,0.0914 0.1392899,0.18205 0.2114486,0.27107 0.104203,0.12157 0.2090238,0.2426 0.3154529,0.36223 0,0 -0.2844101,0.17182 -0.2844101,0.17182 v 0 c -0.1057982,-0.12124 -0.2138752,-0.24038 -0.3230571,-0.35859 -0.075814,-0.0873 -0.1481055,-0.17761 -0.2174785,-0.27014 -0.0563,-0.0774 -0.104141,-0.16056 -0.1581703,-0.23957 -0.056169,-0.0917 -0.10234,-0.18963 -0.1548093,-0.28348 -0.042693,-0.0833 -0.086985,-0.16562 -0.1317535,-0.24775 -0.036944,-0.0693 -0.072633,-0.13939 -0.092937,-0.21576 -0.029867,-0.0817 -0.061856,-0.16285 -0.082672,-0.2475 -0.019211,-0.0842 -0.038097,-0.16842 -0.049186,-0.25421 -0.014798,-0.0926 -0.020603,-0.18667 -0.014896,-0.28039 0.00478,-0.12737 0.013573,-0.25456 0.034288,-0.38049 0.024789,-0.1565 0.048165,-0.31344 0.088329,-0.467 0.036338,-0.13545 0.083264,-0.268 0.1430721,-0.39499 0.05249,-0.10621 0.1096939,-0.20945 0.1792409,-0.30565 0.068084,-0.0953 0.1427422,-0.18598 0.2264149,-0.26815 0.095194,-0.0866 0.193445,-0.17074 0.3042433,-0.23711 0.2123514,-0.12653 0.4236992,-0.25571 0.6454256,-0.36539 0.1347565,-0.0675 0.2729241,-0.12749 0.4124066,-0.1845 0.1521195,-0.0603 0.3077456,-0.11016 0.4648274,-0.15587 0.1572088,-0.0458 0.3150518,-0.0893 0.4768908,-0.11583 0.1546788,-0.0271 0.3101975,-0.049 0.4652343,-0.0739 0.142331,-0.0207 0.2850071,-0.0423 0.4292719,-0.0414 0.1400448,-0.005 0.2798752,-0.0141 0.4199554,-0.0174 0.1373746,0.003 0.2747531,0.007 0.4114961,0.0217 0.139745,0.014 0.2797673,0.0258 0.4184711,0.0485 0.1384308,0.0197 0.2760393,0.0448 0.4132943,0.0714 0.1256445,0.0267 0.2508337,0.0553 0.3755903,0.0858 0.1156023,0.0274 0.2287601,0.0629 0.3413384,0.10079 0.1076942,0.0394 0.216821,0.075 0.3209253,0.1235 0.1026546,0.0458 0.2059228,0.0908 0.3016038,0.15035 0.094249,0.0508 0.1874518,0.10363 0.2763598,0.16343 0.08297,0.0541 0.165859,0.10816 0.239642,0.17476 0.07783,0.0683 0.15433,0.13843 0.218904,0.21987 0.07282,0.0949 0.143357,0.19144 0.201802,0.29608 0.06294,0.11086 0.123903,0.22371 0.164954,0.34484 0.04497,0.1312 0.09364,0.26194 0.113168,0.39999 0.02301,0.1374 0.04365,0.27494 0.0592,0.41344 0.01363,0.14723 0.02598,0.2951 0.02235,0.44309 -0.004,0.14316 -0.01064,0.28649 -0.03099,0.42841 -0.01806,0.12237 -0.03635,0.24478 -0.07213,0.36358 -0.03452,0.12498 -0.08382,0.24487 -0.138759,0.36226 -0.057,0.1221 -0.122755,0.23936 -0.186836,0.35781 -0.07295,0.12516 -0.151545,0.24683 -0.238993,0.36244 -0.09822,0.13727 -0.204145,0.26902 -0.307692,0.40227 -0.114388,0.13739 -0.2319133,0.27207 -0.358331,0.39863 -0.1121008,0.11735 -0.2236994,0.23576 -0.3512246,0.33682 -0.01973,0.0158 -0.090931,0.073 -0.1118552,0.088 -0.1695201,0.12123 -0.3564387,0.21726 -0.5395852,0.31623 -0.1261583,0.0612 -0.2538089,0.11878 -0.3866777,0.16413 -0.1272704,0.0457 -0.2566373,0.0847 -0.3886903,0.11425 -0.1377434,0.0283 -0.2770434,0.0482 -0.4167601,0.064 -0.1512795,0.0149 -0.3028248,0.0287 -0.4547827,0.0341 -0.1434399,0.006 -0.286743,0.007 -0.4297252,-0.009 -0.1445577,-0.0126 -0.2898343,-0.0203 -0.4328496,-0.0462 -0.1494657,-0.0265 -0.2976996,-0.0581 -0.4437356,-0.0999 -0.146518,-0.0455 -0.2932924,-0.0915 -0.4299264,-0.16259 -0.1444676,-0.0709 -0.2844136,-0.14941 -0.4191448,-0.23768 -0.1348967,-0.0842 -0.2655585,-0.17455 -0.3954219,-0.26631 -0.1238885,-0.0849 -0.250907,-0.16525 -0.371295,-0.25519 -0.1238025,-0.0911 -0.2447616,-0.18589 -0.3628449,-0.28437 -0.09312,-0.0805 -0.1836681,-0.16374 -0.2706994,-0.25079 0,0 0.3005553,-0.18045 0.3005553,-0.18045 z"
       inkscape:connector-curvature="0"
       style="stroke-width:0.26458332" />
    <path
       id="path882"
       d="m 7.2357921,289.45977 c -0.039834,0.064 -0.081524,0.12691 -0.1203119,0.1916 -0.025927,0.046 -0.053918,0.0905 -0.086724,0.13184 -0.028775,0.0395 -0.066499,0.0704 -0.1051184,0.0997 -0.1111163,0.0858 -0.2283849,0.13626 -0.3595365,0.21027 -0.021167,0.0119 -0.042365,0.0202 -0.065463,0.0274 -0.049808,0.013 -0.1015754,0.0127 -0.1526701,0.0132 -0.060142,7.7e-4 -0.1202921,10e-5 -0.1804374,3e-5 -0.063148,-0.007 -0.1255998,-0.0163 -0.1877809,-0.0291 -0.059194,-0.0143 -0.1130974,-0.0411 -0.1655918,-0.0712 -0.045904,-0.0232 -0.09055,-0.0484 -0.1334704,-0.0768 -0.029166,-0.0177 -0.056773,-0.0373 -0.086694,-0.0538 -0.024294,-0.005 -0.032612,-0.0142 -0.046294,0.009 0.3849288,-0.24661 0.2051028,-0.24777 0.3277671,-0.14628 0.032723,0.0228 0.061589,0.0514 0.09604,0.0718 0.046149,0.0282 0.1010103,0.042 0.1536518,0.0531 0.069212,0.0118 0.1395362,0.0136 0.2095727,0.0146 0.063641,-8.9e-4 0.1276443,0.004 0.1909083,-0.004 0.067742,-0.009 0.1338283,-0.0286 0.1976824,-0.0524 0.02648,-0.009 0.035805,-0.0114 0.060745,-0.0237 0.00935,-0.005 0.036433,-0.0204 0.027381,-0.0152 -0.5805289,0.33304 -0.1153274,0.063 0.083893,-0.048 -0.5189316,0.3034 -0.2508184,0.14956 -0.1391846,0.0678 0.049827,-0.0386 0.097628,-0.0798 0.1462183,-0.11995 0.04871,-0.0403 0.094361,-0.0842 0.1396833,-0.12824 0.041412,-0.0437 0.080091,-0.0901 0.1161547,-0.13829 0.03212,-0.0411 0.062359,-0.0836 0.091495,-0.12684 0.020812,-0.0303 0.040591,-0.0613 0.061974,-0.0912 0.00422,-0.0212 0.027596,-0.0334 0.032608,-0.053 -0.038521,-0.65323 0.3925268,-0.18105 0.3194838,-0.0937 -0.012353,0.0172 -0.013967,0.0373 -0.015507,0.0579 -0.00196,0.0353 -0.00246,0.0703 0.0037,0.10521 0.0091,0.0449 0.012435,0.0904 0.021807,0.13521 0.00642,0.0412 0.01819,0.0807 0.036369,0.11815 0.019516,0.0335 0.03947,0.0676 0.066442,0.0958 0.031869,0.0284 0.065921,0.0553 0.102956,0.0769 0.033495,0.0286 0.072747,0.0466 0.1117097,0.0659 0.044064,0.0163 0.089452,0.0301 0.1352238,0.0411 0.0495,0.007 0.094836,0.0293 0.142422,0.0436 0.049565,0.0218 0.1030955,0.0311 0.1552821,0.0446 0.06402,0.0143 0.1297861,0.0161 0.1950837,0.0179 0.084186,1e-4 0.1686475,0.005 0.2525718,-0.002 0.078376,-0.0112 0.1582028,-0.0101 0.2363173,-0.0224 0.057977,-0.006 0.1136759,-0.0212 0.1703737,-0.0335 0.040342,-0.004 0.077927,-0.0164 0.1168982,-0.0266 0.034061,-0.006 0.059052,-0.006 0.090389,-0.021 0.01561,-0.008 0.033871,-0.0116 0.051265,-0.015 0,0 -0.2810116,0.21455 -0.2810116,0.21455 v 0 c -0.016285,0.005 -0.031789,0.0113 -0.047654,0.0172 -0.030106,0.008 -0.061957,0.008 -0.091554,0.0183 -0.038401,0.011 -0.077955,0.0154 -0.1168088,0.0245 -0.056459,0.0132 -0.113407,0.023 -0.1710304,0.0298 -0.078739,0.008 -0.1577943,0.012 -0.23651,0.02 -0.085107,0.004 -0.1703601,0.002 -0.2555105,3.4e-4 -0.067404,-0.003 -0.1351946,-0.006 -0.2007557,-0.0234 -0.052736,-0.0139 -0.1063152,-0.0247 -0.1568217,-0.0459 -0.046603,-0.0159 -0.092765,-0.0331 -0.1413955,-0.042 -0.047096,-0.0132 -0.094871,-0.0258 -0.1392282,-0.0467 -0.040284,-0.0192 -0.078021,-0.0421 -0.1137666,-0.0688 -0.038472,-0.025 -0.075481,-0.0529 -0.1083406,-0.085 -0.028087,-0.0319 -0.05108,-0.0676 -0.071829,-0.10462 -0.018926,-0.0402 -0.034096,-0.0813 -0.039713,-0.12567 -0.00992,-0.045 -0.014557,-0.0903 -0.022651,-0.13556 -0.00785,-0.0374 -0.010877,-0.0739 -0.00826,-0.11211 2.91e-4,-0.0238 -7.144e-4,-0.049 0.00762,-0.0717 0.041712,-0.11975 0.6695789,0.28115 0.3289546,-0.18616 -0.00185,8e-5 -0.00417,-10e-4 -0.00553,2.4e-4 -0.00531,0.005 -0.00519,0.0137 -0.00974,0.0193 -0.00798,0.01 -0.021225,0.0102 -0.022482,0.026 -0.016065,0.0333 -0.041971,0.0623 -0.062885,0.0927 -0.026488,0.0457 -0.058843,0.0881 -0.091249,0.12976 -0.03621,0.0495 -0.074717,0.0969 -0.1145262,0.14362 -0.045126,0.0445 -0.090319,0.089 -0.1382107,0.13057 -0.048295,0.041 -0.097504,0.0806 -0.1458351,0.12143 -0.1395455,0.11159 -0.3070543,0.18588 -0.4564285,0.28041 -0.00969,0.005 -0.038599,0.0214 -0.029078,0.0158 0.089823,-0.0526 0.3608358,-0.20761 0.269998,-0.15681 -0.1428414,0.0799 -0.2640684,0.17459 -0.4164076,0.22304 -0.066215,0.0211 -0.1333113,0.0409 -0.2030362,0.0457 -0.0644,0.003 -0.1289254,0.002 -0.1933853,8e-4 -0.071454,-0.002 -0.1432488,-0.006 -0.2134293,-0.0205 -0.056154,-0.014 -0.1135401,-0.0294 -0.1621525,-0.062 -0.03408,-0.0237 -0.066043,-0.0504 -0.099248,-0.0752 -0.1394087,-0.12149 0.017206,-0.1375 0.2459183,-0.26078 0.023188,0 0.046493,0.009 0.066571,0.0205 0.028857,0.0183 0.057057,0.0376 0.085788,0.056 0.042822,0.0269 0.086488,0.0522 0.1315029,0.0753 0.050557,0.0272 0.1022189,0.0517 0.1591326,0.0625 0.060647,0.0118 0.1221883,0.0205 0.1839222,0.0235 0.059974,2.2e-4 0.1199568,3.4e-4 0.1799225,-9e-4 0.049657,-0.002 0.099981,-0.004 0.1467186,-0.0231 0.032724,-0.014 0.00904,-0.004 0.04174,-0.019 0.00728,-0.003 0.028829,-0.0143 0.021902,-0.0102 -0.497744,0.29603 -0.335516,0.20746 -0.2403261,0.13668 0.038536,-0.0277 0.077281,-0.0547 0.109079,-0.0904 0.030557,-0.0424 0.06579,-0.0812 0.089539,-0.12847 0.036818,-0.0653 0.081043,-0.12622 0.1191268,-0.19079 0,0 0.3200834,-0.14268 0.3200834,-0.14268 z"
       inkscape:connector-curvature="0"
       style="stroke-width:0.26458332" />
    <path
       id="path884"
       d="m 6.5430418,290.37298 c 0.065962,0.0532 0.1449321,0.0827 0.2262523,0.10266 0.100987,0.0288 0.2041075,0.0366 0.3084497,0.0337 0.1008652,-0.004 0.2010238,-0.0195 0.3002531,-0.0374 0.081494,-0.0106 0.1625672,-0.0237 0.2440271,-0.0346 0.07322,-0.008 0.1465011,-0.011 0.2195906,-0.0205 0.073591,-0.007 0.1459611,-0.023 0.2173304,-0.042 0.055518,-0.0158 0.1117377,-0.0291 0.1661996,-0.0485 0.044629,-0.0133 0.086053,-0.0348 0.1289907,-0.0526 0.037121,-0.0227 0.080579,-0.0307 0.1172268,-0.0542 0.2530697,-0.13675 -1.0126887,0.57529 0.056923,-0.0313 0.09435,-0.0535 -0.1879094,0.1084 -0.2822133,0.16198 -0.00583,0.003 0.011303,-0.008 0.035426,-0.0231 0.1948495,-0.12446 0.7163329,-0.41461 0.09354,-0.0574 0.1266748,-0.0765 0.2428859,-0.18733 0.3877498,-0.22003 0.016722,-0.0195 0.049044,-0.0166 0.065109,-0.0339 -0.09775,0.0566 -0.3882408,0.23104 -0.2932496,0.1699 0.1005912,-0.0648 0.2064676,-0.1209 0.3100673,-0.18072 0.023889,-0.0138 0.033906,0.0305 0.038732,0.0432 -0.1147599,0.0933 -0.2822549,0.17093 -0.3923276,0.23379 -0.00887,0.005 -0.035448,0.0202 -0.026597,0.0151 0.8950029,-0.51238 -0.7763449,0.44815 0.096037,-0.0519 -0.2054884,0.11039 -0.4016791,0.24123 -0.6124062,0.34253 -0.1053425,0.0507 -0.21454,0.092 -0.3271166,0.12329 -0.1079542,0.029 -0.2166119,0.0551 -0.3273985,0.0705 -0.098087,0.0165 -0.1954869,0.005 -0.2927102,-0.01 -0.096316,-0.0206 -0.1912887,-0.0476 -0.2826408,-0.0845 -0.082351,-0.0329 -0.1556084,-0.0827 -0.230387,-0.12931 -0.057584,-0.0331 -0.1053074,-0.0784 -0.1534184,-0.12328 -0.038704,-0.0303 -0.067865,-0.0698 -0.10208,-0.10434 -0.01941,-0.019 -0.039122,-0.0362 -0.063443,-0.0484 0,0 0.2952338,-0.19164 0.2952338,-0.19164 v 0 c 0.024945,0.0163 0.046972,0.0361 0.067614,0.0575 0.032655,0.0353 0.062917,0.0727 0.1003009,0.10351 0.045549,0.0444 0.093443,0.0857 0.1483437,0.11847 0.072009,0.047 0.1447797,0.0933 0.2253356,0.12466 0.089956,0.0346 0.1832713,0.0608 0.2781149,0.078 0.095299,0.0134 0.1907789,0.0193 0.2862506,0.002 0.1093994,-0.0174 0.217189,-0.0435 0.3237658,-0.0736 0.1109777,-0.0338 0.2189845,-0.0761 0.3229584,-0.12775 0.1246063,-0.0636 0.5469099,-0.30367 0.021783,-0.003 1.1449735,-0.66552 -0.1798037,0.1057 0.1320306,-0.0768 0.012359,-0.007 0.024506,-0.0148 0.036852,-0.0221 0.3283373,-0.1929 0.2176791,-0.13269 0.3561088,-0.2075 -0.091714,0.0531 -0.1836663,0.10583 -0.2751418,0.15936 -0.00644,0.004 0.01352,-0.006 0.019992,-0.0101 0.013309,-0.008 0.023101,-0.0204 0.036561,-0.0273 0.00336,-0.002 0.00717,-0.002 0.010758,-0.003 0.00763,0.0116 0.017444,0.0221 0.022672,0.035 0.00161,0.004 -0.011634,0.0123 -0.00793,0.0101 0.2630345,-0.15322 0.5294037,-0.3096 -0.016878,0.0106 -0.024299,0.006 -0.044085,0.0225 -0.068203,0.029 -0.1661186,0.0872 0.4220546,-0.25064 0.2170578,-0.12425 -1.0053611,0.58353 0.2598624,-0.15384 -0.09458,0.0571 -0.1101193,0.0781 -0.250771,0.14459 -0.3527965,0.20875 -0.091454,0.0575 0.3750392,-0.21466 0.2805454,-0.16229 -0.542531,0.30067 -0.1981758,0.12051 -0.3377544,0.19341 -0.039959,0.0168 -0.080068,0.0331 -0.1191122,0.0519 -0.042737,0.0182 -0.085134,0.0375 -0.1300263,0.05 -0.055143,0.0169 -0.1110957,0.0314 -0.1669124,0.0459 -0.072083,0.0175 -0.145483,0.0294 -0.2191682,0.0378 -0.072929,0.008 -0.1463611,0.0105 -0.2190763,0.0208 -0.080762,0.0119 -0.1617392,0.022 -0.242361,0.0347 -0.100018,0.0166 -0.2009378,0.0306 -0.3024457,0.0323 -0.1066289,4e-4 -0.2117667,-0.0122 -0.314774,-0.0409 -0.084448,-0.024 -0.1645711,-0.0585 -0.2365089,-0.10961 0,0 0.2954779,-0.18919 0.2954779,-0.18919 z"
       inkscape:connector-curvature="0"
       style="stroke-width:0.26458332" />
    <path
       id="path886"
       d="m 8.6248742,286.07538 c -0.098806,0.0161 -0.1901013,0.0616 -0.277214,0.10917 -0.1845292,0.10517 0.1788543,-0.10196 0.1921385,-0.10927 0.017375,-0.01 -0.033651,0.021 -0.050079,0.0321 -0.047,0.0318 -0.09142,0.0672 -0.1358722,0.10235 -0.089317,0.0713 -0.1609434,0.15819 -0.2211512,0.25458 -0.059725,0.0952 -0.1034775,0.19699 -0.1364515,0.30405 -0.028901,0.0942 -0.040974,0.1912 -0.037814,0.2894 0.00678,0.0789 0.0259,0.15627 0.053911,0.23022 0.034799,0.0749 0.083893,0.14132 0.1365798,0.20442 0.05737,0.0675 0.1259504,0.11948 0.1999493,0.16706 0.091632,0.0542 0.1880193,0.099 0.2866372,0.13865 0.096854,0.0428 0.1968275,0.077 0.3001028,0.10033 0.095924,0.0229 0.1928167,0.0179 0.2900741,0.0113 0.087833,-0.009 0.1721932,-0.0342 0.2554576,-0.0626 0.013716,-0.005 0.027736,-0.01 0.041144,-0.0158 0.014155,-0.006 0.027711,-0.014 0.041426,-0.0212 0.2098455,-0.11084 -0.3749456,0.22922 -0.1668523,0.0951 0.015703,-0.0101 0.030981,-0.0209 0.046472,-0.0313 0.1033015,-0.0715 0.193467,-0.15812 0.2739914,-0.25409 0.067274,-0.0877 0.1272355,-0.18111 0.1804072,-0.27797 0.045031,-0.0794 0.068852,-0.16753 0.086592,-0.25636 0.015931,-0.0967 0.018328,-0.19496 0.019434,-0.29278 -0.0015,-0.0895 -0.017449,-0.17779 -0.040555,-0.26405 -0.034817,-0.0997 -0.093309,-0.18872 -0.1512017,-0.27624 -0.066789,-0.0922 -0.1460101,-0.17151 -0.2373736,-0.23896 -0.089821,-0.0703 -0.1941772,-0.11302 -0.3028336,-0.14412 -0.143423,-0.0355 -0.2910129,-0.0196 -0.4351245,0.002 -0.090778,0.0131 -0.1744898,0.0505 -0.2584786,0.0851 0,0 0.2664746,-0.20948 0.2664746,-0.20948 v 0 c 0.08597,-0.033 0.1720267,-0.0675 0.2641816,-0.0793 0.1485207,-0.02 0.3003511,-0.0328 0.4468802,0.008 0.1113431,0.0345 0.2184332,0.0802 0.3100917,0.15394 0.09316,0.0711 0.174998,0.15354 0.243572,0.24894 0.06018,0.0904 0.120253,0.18258 0.157967,0.28501 0.02508,0.0889 0.0423,0.18002 0.04533,0.27263 -0.0019,0.0995 -0.0034,0.19935 -0.01733,0.29809 -0.01501,0.0918 -0.03787,0.1836 -0.08183,0.26618 -0.05273,0.0995 -0.114397,0.194 -0.180385,0.28513 -0.078584,0.0987 -0.1665468,0.18805 -0.2690054,0.26236 -0.1727808,0.12416 -0.3577891,0.23701 -0.557095,0.31215 -0.08488,0.0265 -0.1709145,0.0496 -0.2601502,0.0551 -0.09929,0.006 -0.1982372,0.005 -0.2953761,-0.0201 -0.1038863,-0.0263 -0.2048989,-0.0616 -0.3030225,-0.10471 -0.099997,-0.0413 -0.1976028,-0.0884 -0.2906781,-0.14375 -0.076492,-0.05 -0.1476161,-0.10498 -0.2070153,-0.17518 -0.054241,-0.0666 -0.1044612,-0.13669 -0.1423496,-0.21412 -0.029802,-0.0774 -0.049826,-0.1582 -0.058283,-0.24087 -0.00385,-0.1017 0.0049,-0.20228 0.034238,-0.30035 0.032762,-0.10941 0.072316,-0.21467 0.1333659,-0.3121 0.058542,-0.0997 0.1269079,-0.19085 0.216281,-0.26558 0.1787686,-0.14603 0.3747722,-0.2653 0.5820245,-0.36919 0.091954,-0.0462 0.1865051,-0.09 0.2897278,-0.1031 0,0 -0.2809319,0.20949 -0.2809319,0.20949 z"
       inkscape:connector-curvature="0"
       style="stroke-width:0.26458332" />
    <path
       id="path888"
       d="m 5.3847176,286.39235 c -0.0773,-0.0212 -0.1570915,-0.0294 -0.2367885,-0.0348 -0.078618,0.003 -0.156567,0.011 -0.2340661,0.0239 -0.068481,0.0154 -0.1345334,0.0372 -0.198102,0.0668 -0.010083,0.006 -0.020166,0.0113 -0.030248,0.0169 0.089488,-0.0512 0.1786223,-0.10307 0.268464,-0.15367 0.010022,-0.006 -0.019481,0.0122 -0.028952,0.0188 -0.028779,0.0198 -0.05469,0.0421 -0.080325,0.0657 -0.051961,0.0503 -0.094703,0.10793 -0.1322567,0.16942 -0.035351,0.061 -0.066158,0.1243 -0.089132,0.19094 -0.019476,0.0641 -0.034224,0.12917 -0.042743,0.19561 -0.00371,0.0642 0.00521,0.12795 0.022699,0.18956 0.017142,0.0688 0.046937,0.13313 0.086026,0.19203 0.050552,0.0783 0.1164807,0.14419 0.1800069,0.21172 0.067254,0.0715 0.1514845,0.12053 0.2376998,0.16526 0.094766,0.0535 0.1976112,0.0865 0.3027849,0.11211 0.1147019,0.0255 0.2315115,0.026 0.3481578,0.0209 0.1228579,-0.0101 0.2423321,-0.0446 0.3580974,-0.0856 0.1201174,-0.0379 0.2290522,-0.1007 0.3405293,-0.15767 0.1285044,-0.0648 0.1142916,-0.0588 -0.1918583,0.11326 -0.016163,0.009 0.031831,-0.019 0.047458,-0.029 0.046241,-0.0295 0.090792,-0.0617 0.1353806,-0.0936 0.072471,-0.0528 0.1328749,-0.11857 0.1904842,-0.18662 0.04715,-0.051 0.081876,-0.11114 0.1140177,-0.17226 0.022209,-0.0464 0.041259,-0.0939 0.05214,-0.14419 0.00613,-0.0546 -0.010208,-0.10856 -0.024469,-0.1608 -0.015155,-0.0663 -0.042607,-0.1293 -0.07702,-0.18773 -0.041608,-0.0598 -0.084257,-0.11925 -0.1362413,-0.17052 -0.048494,-0.0515 -0.1083247,-0.0918 -0.1676146,-0.12997 -0.077043,-0.0494 -0.1631413,-0.0811 -0.2494717,-0.10988 -0.11083,-0.0416 -0.2279007,-0.056 -0.3450966,-0.0651 -0.08494,-0.003 -0.1722982,-0.006 -0.2566558,0.008 -0.046516,0.007 -0.1049481,0.0239 -0.1505212,0.0359 0,0 0.2710868,-0.20727 0.2710868,-0.20727 v 0 c 0.054783,-0.013 0.098591,-0.0248 0.1547561,-0.0324 0.086396,-0.0117 0.1748364,-0.009 0.2615451,-0.004 0.1192755,0.0115 0.2377265,0.0294 0.3507489,0.0711 0.088984,0.03 0.1769125,0.0645 0.2560224,0.11592 0.061404,0.0398 0.1225317,0.0821 0.1724806,0.13602 0.052152,0.0549 0.097497,0.1156 0.1403151,0.17793 0.03593,0.0608 0.065592,0.12621 0.08218,0.1951 0.016698,0.0568 0.032625,0.115 0.032878,0.17464 -0.00873,0.0538 -0.026363,0.10396 -0.048958,0.15355 -0.030778,0.0637 -0.065577,0.12701 -0.1122691,0.18039 -0.058524,0.0696 -0.1170839,0.13909 -0.1892958,0.19527 -0.1830094,0.1334 -0.3757367,0.25303 -0.5803517,0.35154 -0.111525,0.0579 -0.22323,0.11593 -0.3436861,0.1536 -0.1181269,0.0382 -0.2387332,0.072 -0.3635382,0.0773 -0.1192829,0.004 -0.2388384,5.6e-4 -0.3554553,-0.0279 -0.1066853,-0.0283 -0.2105856,-0.0644 -0.3071675,-0.11882 -0.089308,-0.0471 -0.1758479,-0.0994 -0.24496,-0.17444 -0.064457,-0.0693 -0.1313831,-0.1368 -0.1838724,-0.21607 -0.041113,-0.0616 -0.074171,-0.12837 -0.09257,-0.20046 -0.019659,-0.0657 -0.028982,-0.1335 -0.029089,-0.20216 0.00786,-0.0685 0.021106,-0.13561 0.04031,-0.20189 0.021058,-0.0691 0.050666,-0.13443 0.085695,-0.19756 0.035796,-0.0644 0.07778,-0.12474 0.1291466,-0.1778 0.1254038,-0.13664 0.3058562,-0.21213 0.4659103,-0.29731 0.065357,-0.0269 0.1333045,-0.047 0.2029884,-0.0593 0.078784,-0.0117 0.1585415,-0.0195 0.2382692,-0.017 0.081792,0.007 0.1630063,0.0185 0.2428978,0.0377 0,0 -0.2884027,0.19893 -0.2884027,0.19893 z"
       inkscape:connector-curvature="0"
       style="stroke-width:0.26458332" />
    <path
       id="path890"
       d="m 9.7154996,285.91479 c -0.065126,0.0574 -0.1142868,0.12621 -0.155462,0.20192 -0.051874,0.0999 -0.086581,0.20723 -0.1226857,0.31349 -0.029439,0.0865 -0.040989,0.17617 -0.038192,0.26712 0.00568,0.0818 0.030305,0.16017 0.051973,0.23872 0.016433,0.0645 0.034998,0.12848 0.055548,0.19178 0.016428,0.0475 0.038187,0.0924 0.062875,0.13601 0.01737,0.0386 0.037773,0.0754 0.05856,0.11226 0.014039,0.0264 0.033451,0.0489 0.04999,0.0734 0.010763,0.0139 0.016158,0.0322 0.020735,0.0476 0.010422,0.006 0.017592,0.0251 0.021611,0.0367 0.00243,0.009 0.00269,0.0276 0.013949,0.0295 0.00983,0.0109 0.0051,0.006 0.014211,0.016 0,0 -0.3017851,0.18268 -0.3017851,0.18268 v 0 c -0.00755,-0.008 -0.00364,-0.004 -0.011713,-0.0116 -0.01225,-0.0133 -0.024622,-0.0297 -0.025334,-0.0484 7.143e-4,-0.0101 -0.010671,-0.0194 -0.015936,-0.0268 -0.00907,-0.0152 -0.00841,-0.0327 -0.019399,-0.0473 -0.017547,-0.0253 -0.035939,-0.0498 -0.050967,-0.0768 -0.019701,-0.0373 -0.040825,-0.0737 -0.057693,-0.11238 -0.025344,-0.0459 -0.047936,-0.093 -0.065469,-0.14261 -0.020079,-0.0641 -0.038455,-0.12875 -0.054283,-0.19405 -0.022352,-0.0811 -0.047693,-0.16165 -0.055408,-0.24588 -0.0047,-0.0948 0.00468,-0.18838 0.034145,-0.27924 0.036025,-0.10749 0.072173,-0.21537 0.1200944,-0.31823 0.038807,-0.0773 0.081844,-0.15043 0.1464247,-0.20955 0,0 0.3242124,-0.1343 0.3242124,-0.1343 z"
       inkscape:connector-curvature="0"
       style="stroke-width:0.26458332" />
    <path
       id="path892"
       d="m 6.5277631,286.1743 c -0.041709,0.0599 -0.082987,0.12025 -0.1213241,0.18239 -0.040699,0.0688 -0.082838,0.13667 -0.1235229,0.20544 -0.032407,0.0569 -0.067363,0.11202 -0.088251,0.17438 -0.014147,0.0491 -0.014893,0.10046 -0.0156,0.15116 -5.292e-4,0.0646 -3.44e-4,0.12924 -7.15e-5,0.19386 -9.26e-4,0.066 0.00888,0.13161 0.022513,0.19604 0.011089,0.0609 0.027028,0.12096 0.045317,0.18011 0.014655,0.0396 0.02811,0.0798 0.043549,0.11907 0.013359,0.0338 0.025022,0.0682 0.037409,0.1024 0.01606,0.028 0.021762,0.0609 0.036233,0.0894 0.010806,0.0181 0.023439,0.007 0.039027,0.002 0,0 -0.2826375,0.20949 -0.2826375,0.20949 v 0 c -0.027164,-0.002 -0.047979,-0.0126 -0.062332,-0.0369 -0.015102,-0.03 -0.020085,-0.0646 -0.03777,-0.0938 -0.011533,-0.034 -0.024284,-0.0674 -0.036414,-0.10109 -0.016531,-0.0399 -0.028599,-0.082 -0.04367,-0.12251 -0.018198,-0.0603 -0.034568,-0.12125 -0.04605,-0.18322 -0.014028,-0.0665 -0.026252,-0.13424 -0.025662,-0.20246 -1.315e-4,-0.0646 -7.673e-4,-0.12918 -0.00111,-0.19376 3.175e-4,-0.0535 -5.556e-4,-0.10745 0.011208,-0.15995 0.017714,-0.0663 0.051235,-0.12418 0.087026,-0.18238 0.037875,-0.0703 0.083741,-0.13624 0.1227164,-0.206 0.036305,-0.0629 0.07854,-0.12194 0.1179867,-0.18283 0,0 0.3214362,-0.14064 0.3214362,-0.14064 z"
       inkscape:connector-curvature="0"
       style="stroke-width:0.26458332" />
    <path
       id="path898"
       d="m 7.255122,289.48857 c -0.034791,-0.0629 -0.075051,-0.12256 -0.1125138,-0.18389 -0.035598,-0.0582 -0.071106,-0.11604 -0.11348,-0.16963 -0.04399,-0.045 -0.084721,-0.0924 -0.1240655,-0.1416 -0.038764,-0.0412 -0.077978,-0.0818 -0.1160854,-0.12371 -0.025932,-0.0276 -0.050085,-0.0566 -0.071631,-0.0877 -0.015923,-0.0186 -0.02647,-0.0412 -0.043362,-0.0589 -0.012957,-0.012 -0.020508,-0.0294 -0.025146,-0.0462 -0.00259,-0.0171 -0.00512,-0.0353 -9.261e-4,-0.0523 0.086466,-0.12064 0.2470836,-0.18116 0.3902419,-0.21471 0.074966,-0.009 0.1498629,-0.0185 0.2248845,-0.0276 0.086076,-0.0128 0.1726253,-0.002 0.2588077,0.003 0.085457,0.0121 0.1709844,0.0222 0.2562164,0.0357 0.076926,0.008 0.1531448,0.0201 0.2297557,0.0306 0.062809,0.009 0.1243534,0.0237 0.1876539,0.0302 0.054143,0.007 0.1092526,4e-4 0.1629452,0.01 0.040557,0.008 0.081347,0.0145 0.1225712,0.0173 0.00554,0.002 0.049329,-0.001 0.051185,10e-4 0.00466,0.005 0.00768,0.0121 0.01152,0.0182 0.00878,0.0219 0.00833,0.0203 -0.00277,0.0323 -0.00805,0.009 -0.010546,0.0155 -0.020981,0.0222 -0.022064,0.028 -0.04758,0.0526 -0.074484,0.0759 -0.040874,0.035 -0.079713,0.0723 -0.1184188,0.10963 -0.043601,0.0455 -0.092932,0.0847 -0.1377817,0.12886 -0.042628,0.0462 -0.08643,0.0907 -0.134016,0.13171 -0.037251,0.0318 -0.073865,0.0643 -0.1094422,0.0979 -0.01225,0.0114 -0.024141,0.0232 -0.036025,0.035 0,0 -0.3252486,0.13444 -0.3252486,0.13444 v 0 c 0.012205,-0.012 0.024424,-0.0239 0.036583,-0.0359 0.036039,-0.0343 0.072628,-0.068 0.1105283,-0.1003 0.047693,-0.0406 0.095171,-0.0807 0.1354548,-0.12908 0.043482,-0.0456 0.092368,-0.0844 0.1366509,-0.12919 0.038336,-0.0377 0.077131,-0.075 0.1169599,-0.1111 0.025834,-0.0227 0.053813,-0.0433 0.074628,-0.0703 0.00862,-0.0169 0.012853,-0.009 0.02159,-0.0196 0.00928,-0.0109 0.0023,-0.0177 0.020005,0.004 0.00279,0.004 0.0065,0.008 0.00836,0.0125 0.00127,0.003 -0.00687,-6.1e-4 -0.010306,-8.5e-4 -0.013491,-9e-4 -0.027007,-0.002 -0.040423,-0.003 -0.040806,-0.005 -0.081117,-0.0133 -0.1218488,-0.0189 -0.053976,-0.004 -0.1082686,-0.003 -0.1619967,-0.0102 -0.062852,-0.008 -0.1244399,-0.023 -0.1872631,-0.0315 -0.076362,-0.0112 -0.1528717,-0.0208 -0.2292935,-0.0315 -0.084541,-0.0132 -0.1695061,-0.0235 -0.2545159,-0.0331 -0.085014,-0.006 -0.170217,-0.0121 -0.2548893,0.002 -0.074875,0.009 -0.1507042,0.0161 -0.2241253,0.0337 -0.0141,0.005 -0.028494,0.009 -0.04244,0.0137 -0.00522,0.002 -0.02005,0.01 -0.015253,0.007 0.4365604,-0.2568 0.379734,-0.20703 0.2692125,-0.15946 -0.00377,0.001 -0.00914,-10e-4 -0.011663,0.002 -0.00383,0.005 0.00196,0.0189 1.159e-4,0.0247 -5.821e-4,0.0116 0.00757,0.0219 0.015131,0.0298 0.016544,0.0199 0.028829,0.0428 0.045052,0.0631 0.020002,0.0302 0.043621,0.0578 0.06783,0.0847 0.037523,0.0431 0.078037,0.0832 0.1160346,0.12589 0.039429,0.0493 0.08112,0.0958 0.1239896,0.14202 0.042836,0.0549 0.07868,0.114 0.1147837,0.17346 0.037683,0.0607 0.075759,0.12119 0.1144087,0.18132 0,0 -0.3027151,0.17738 -0.3027151,0.17738 z"
       inkscape:connector-curvature="0"
       style="stroke-width:0.26458332" />
    <path
       id="path910"
       d="m 9.0412079,289.91838 c 0.079269,-0.0143 0.1545821,-0.0418 0.2292927,-0.0711 0.1206172,-0.0571 0.087498,-0.0424 -0.2350264,0.13628 -0.01111,0.006 0.021365,-0.0138 0.031793,-0.021 0.03178,-0.0221 0.060939,-0.0464 0.08967,-0.0723 0.062979,-0.0639 0.1106281,-0.14032 0.1603441,-0.21442 0.054658,-0.0855 0.094317,-0.17871 0.1262388,-0.27471 0.027211,-0.0852 0.035011,-0.17428 0.038915,-0.26308 0.0071,-0.0722 -0.00938,-0.14051 -0.030646,-0.20862 -0.016137,-0.0534 -0.032946,-0.10664 -0.053225,-0.15863 0,0 0.3051702,-0.16967 0.3051702,-0.16967 v 0 c 0.019476,0.053 0.037745,0.10651 0.053276,0.16083 0.022876,0.0717 0.042749,0.14336 0.035725,0.21971 -0.00408,0.0916 -0.010631,0.18377 -0.036452,0.2723 -0.031332,0.0985 -0.069028,0.19425 -0.1223143,0.28323 -0.049371,0.0753 -0.097102,0.15195 -0.1556575,0.22058 -0.1319702,0.13671 -0.3135059,0.22492 -0.4813835,0.30399 -0.076354,0.0288 -0.1547053,0.0503 -0.2336937,0.0706 0,0 0.2779741,-0.21403 0.2779741,-0.21403 z"
       inkscape:connector-curvature="0"
       style="stroke-width:0.26458332" />
    <path
       id="path914"
       d="m 5.9065487,290.23246 c -0.0744,-0.0448 -0.1395378,-0.10062 -0.2016207,-0.16083 -0.066099,-0.0592 -0.120406,-0.12821 -0.1621163,-0.20634 -0.037147,-0.0704 -0.069525,-0.14328 -0.095537,-0.21854 -0.018315,-0.0591 -0.038892,-0.11547 -0.036104,-0.17795 0.00742,-0.0751 0.039722,-0.14326 0.072492,-0.21009 0.026823,-0.0478 0.013444,-0.0249 0.039993,-0.0687 0,0 0.3184385,-0.1403 0.3184385,-0.1403 v 0 c -0.02792,0.0426 -0.01393,0.0205 -0.041868,0.0661 -0.033133,0.0622 -0.065585,0.12702 -0.07615,0.19744 -0.00972,0.0582 0.0137,0.10973 0.028244,0.16548 0.023773,0.0741 0.055823,0.14502 0.091806,0.21396 0.039772,0.0749 0.09252,0.14055 0.1556227,0.19735 0.061957,0.0584 0.1265756,0.11308 0.2022776,0.15322 0,0 -0.2954782,0.18919 -0.2954782,0.18919 z"
       inkscape:connector-curvature="0"
       style="stroke-width:0.26458332" />
    <path
       id="path916"
       d="m 9.7292855,288.54882 c 0.1763937,-0.046 0.3547605,-0.0832 0.5331015,-0.12096 0.333963,-0.0718 0.67125,-0.12743 1.007175,-0.18934 0.385416,-0.0704 0.772144,-0.13315 1.156392,-0.20978 0.337153,-0.0654 0.669987,-0.15038 1.004179,-0.22899 0.310886,-0.0741 0.620178,-0.15449 0.929296,-0.23555 0.237759,-0.0643 0.47801,-0.11767 0.718568,-0.1701 0.101992,-0.0208 0.203593,-0.0433 0.305515,-0.0644 0,0 -0.274295,0.20769 -0.274295,0.20769 v 0 c -0.09999,0.0193 -0.199554,0.0406 -0.299431,0.0604 -0.238136,0.0508 -0.475828,0.10328 -0.71113,0.16622 -0.30877,0.0804 -0.617856,0.15952 -0.928177,0.2337 -0.332846,0.0785 -0.66484,0.16126 -1.000932,0.22505 -0.384487,0.0751 -0.77116,0.13805 -1.156363,0.20932 -0.338519,0.0637 -0.678604,0.12023 -1.0146588,0.19617 -0.1835708,0.0404 -0.366757,0.0817 -0.5475536,0.13337 0,0 0.2783139,-0.21282 0.2783139,-0.21282 z"
       inkscape:connector-curvature="0"
       style="stroke-width:0.26458332" />
    <path
       id="path918"
       d="m 9.2918559,289.15301 c 0.25219,0.0223 0.5060363,0.0109 0.7585301,3.7e-4 0.434614,-0.0187 0.866665,-0.0716 1.298162,-0.1244 0.40702,-0.0502 0.813899,-0.10153 1.220938,-0.15159 0.422289,-0.0524 0.846751,-0.0848 1.270414,-0.12382 0.42526,-0.0431 0.85095,-0.082 1.276088,-0.12621 0.304595,-0.0284 0.609262,-0.0569 0.914618,-0.0759 0.178328,-0.008 0.356513,-0.0134 0.534524,-0.027 0,0 -0.276204,0.20349 -0.276204,0.20349 v 0 c -0.175636,0.01 -0.351357,0.0144 -0.527123,0.0213 -0.301679,0.0168 -0.602816,0.0422 -0.903704,0.0695 -0.42395,0.0411 -0.848055,0.0805 -1.271894,0.12279 -0.424755,0.0394 -0.850098,0.0743 -1.273441,0.12725 -0.406193,0.0497 -0.812259,0.1005 -1.218516,0.14972 -0.433501,0.0518 -0.867346,0.10376 -1.3036324,0.12549 -0.2606609,0.0131 -0.5220343,0.025 -0.7829534,0.0116 0,0 0.2841937,-0.20256 0.2841937,-0.20256 z"
       inkscape:connector-curvature="0"
       style="stroke-width:0.26458332" />
    <path
       id="path920"
       d="m 8.8919414,289.44471 c 0.2315678,0.0784 0.4714997,0.12867 0.7103845,0.17896 0.4611841,0.0944 0.9305921,0.13621 1.3996401,0.16666 0.510088,0.0308 1.020235,0.0607 1.530217,0.0933 0.535771,0.0348 1.07217,0.0573 1.608657,0.0774 0.52425,0.0151 1.048646,0.0255 1.573016,0.0357 0.43446,0.0116 0.868856,0.027 1.303012,0.047 0.05256,0.002 0.105125,0.005 0.157688,0.007 0,0 -0.266141,0.19107 -0.266141,0.19107 v 0 c -0.05113,-0.003 -0.102253,-0.007 -0.153379,-0.0102 -0.430948,-0.0231 -0.862233,-0.0404 -1.293625,-0.0527 -0.523416,-0.0121 -1.046891,-0.0223 -1.570196,-0.0384 -0.537218,-0.0203 -1.074356,-0.0427 -1.610906,-0.0768 -0.510209,-0.0323 -1.020623,-0.0613 -1.53088,-0.0929 -0.472937,-0.0312 -0.9460337,-0.0732 -1.4119795,-0.1632 -0.2458824,-0.0484 -0.4913665,-0.0992 -0.7330723,-0.16595 0,0 0.2875642,-0.19744 0.2875642,-0.19744 z"
       inkscape:connector-curvature="0"
       style="stroke-width:0.26458332" />
    <path
       id="path922"
       d="m 5.424742,289.42876 c -0.221986,0.009 -0.4431274,0.0331 -0.664577,0.0505 -0.3323323,0.0266 -0.6649313,0.05 -0.9975696,0.0725 -0.3323223,0.0209 -0.6652808,0.0272 -0.9981589,0.0309 -0.2680223,0.003 -0.5360568,0.003 -0.8040901,0.003 -0.1992316,-7.9e-4 -0.3981973,0.0119 -0.5972439,0.019 -0.150631,0.0129 -0.3019887,0.0168 -0.45254074,0.0301 -0.0957688,0.004 -0.18761125,0.0267 -0.27800861,0.0567 0,0 0.27393,-0.21189 0.27393,-0.21189 v 0 c 0.0914241,-0.0264 0.18438665,-0.0446 0.27980065,-0.0485 0.1502236,-0.0105 0.3007394,-0.017 0.4510018,-0.0271 0.1976343,-0.006 0.3952516,-0.0171 0.593041,-0.0145 0.2662261,4.7e-4 0.5324565,0.002 0.7986805,10e-6 0.3318865,-0.003 0.6638994,-0.009 0.9951686,-0.031 0.3338279,-0.0226 0.6676167,-0.0463 1.0009388,-0.0756 0.2267196,-0.0196 0.4530897,-0.043 0.6798694,-0.0619 0,0 -0.2802419,0.20719 -0.2802419,0.20719 z"
       inkscape:connector-curvature="0"
       style="stroke-width:0.26458332" />
    <path
       id="path924"
       d="m 5.6854788,289.95243 c -0.2497161,0.0351 -0.4997831,0.0676 -0.7499067,0.0996 -0.381952,0.0453 -0.7607334,0.11335 -1.1362349,0.19601 -0.4309573,0.0989 -0.8544197,0.22737 -1.2760652,0.35971 -0.413181,0.1329 -0.8233127,0.27475 -1.2266784,0.43504 -0.33633243,0.1322 -0.67088437,0.26898 -1.00252939,0.41254 -0.24143205,0.10212 -0.48030281,0.2097 -0.71724921,0.32176 -0.13357267,0.0575 -0.26055889,0.12899 -0.39263203,0.18949 -0.0112165,0.005 -0.022433,0.01 -0.0336493,0.0145 0,0 0.27303758,-0.21613 0.27303758,-0.21613 v 0 c 0.0105873,-0.005 0.0211746,-0.009 0.0317619,-0.0141 0.12810683,-0.0608 0.25449244,-0.1253 0.38416115,-0.1829 0.23489664,-0.10995 0.47217452,-0.21442 0.71106202,-0.31543 0.33009612,-0.14097 0.66254058,-0.27642 0.99693198,-0.40688 0.4033705,-0.15807 0.8129036,-0.29928 1.2255413,-0.43125 0.4231336,-0.13226 0.8481388,-0.26034 1.2804428,-0.35953 0.3777208,-0.0821 0.7583308,-0.15091 1.1422396,-0.19714 0.256572,-0.0347 0.5134859,-0.0683 0.7682524,-0.11481 0,0 -0.2784856,0.20944 -0.2784856,0.20944 z"
       inkscape:connector-curvature="0"
       style="stroke-width:0.26458332" />
    <path
       id="path926"
       d="m 5.5004654,288.94393 c -0.2189138,-0.0597 -0.4454596,-0.0804 -0.6706131,-0.10176 -0.3839768,-0.0236 -0.7689755,-0.0197 -1.1534868,-0.0195 -0.4281416,0.002 -0.8561996,-0.01 -1.2841014,-0.0226 -0.439867,-0.0166 -0.8792977,-0.0431 -1.3180538,-0.0783 -0.37337459,-0.033 -0.74625606,-0.0735 -1.11772624,-0.1236 -0.27550525,-0.0324 -0.54884393,-0.0798 -0.82311181,-0.12078 0,0 0.27246405,-0.19158 0.27246405,-0.19158 v 0 c 0.27195391,0.0444 0.54415635,0.0876 0.81729352,0.12414 0.36869668,0.0515 0.73872628,0.0945 1.10957108,0.12717 0.4379745,0.0355 0.8766901,0.062 1.3158317,0.0779 0.4286819,0.0121 0.8575177,0.0226 1.2864084,0.0198 0.3867414,-9.8e-4 0.7739509,-0.004 1.1601987,0.0184 0.2322123,0.0204 0.4645466,0.0424 0.6928164,0.0914 0,0 -0.2874907,0.19942 -0.2874907,0.19942 z"
       inkscape:connector-curvature="0"
       style="stroke-width:0.26458332" />
    <path
       id="path934"
       d="m 9.3038172,284.15302 c 0.1091131,-0.093 0.2260029,-0.17563 0.3475183,-0.25145 0.2796617,-0.17172 0.5682335,-0.32817 0.8581185,-0.48172 0.17841,-0.0974 0.368441,-0.16709 0.558555,-0.23704 0.153377,-0.0586 0.311556,-0.10117 0.471571,-0.13673 0.105143,-0.0219 0.209499,-0.0451 0.316506,-0.0556 0.07404,-0.002 0.146925,-0.0102 0.220197,-0.0204 0.03991,-0.007 0.08021,-0.01 0.120634,-0.0114 0.03034,0.007 0.0581,0.0197 0.08652,0.0317 0.03555,0.0201 0.06186,0.0505 0.08933,0.0802 0.05699,0.0613 0.08892,0.13605 0.115798,0.21406 0.04675,0.15537 0.06043,0.31795 0.0721,0.47899 0.01603,0.24729 0.0088,0.49514 -0.0096,0.74201 -0.01582,0.25142 -0.05639,0.49994 -0.106096,0.74658 -0.04162,0.20878 -0.103816,0.41266 -0.161839,0.61728 -0.04722,0.1812 -0.108916,0.35765 -0.182046,0.52987 -0.06273,0.13986 -0.141989,0.27218 -0.232878,0.39546 -0.07061,0.0833 -0.1418,0.16658 -0.217379,0.24548 -0.05572,0.0568 -0.113996,0.11051 -0.174653,0.16191 -0.02991,0.0238 -0.01554,0.0125 -0.04309,0.0341 0,0 -0.325063,0.12974 -0.325063,0.12974 v 0 c 0.02855,-0.0215 0.01374,-0.0103 0.04441,-0.0339 0.06365,-0.0484 0.121462,-0.10313 0.178279,-0.15923 0.07906,-0.0762 0.147954,-0.1624 0.22262,-0.24278 0.09465,-0.11956 0.173536,-0.25175 0.239305,-0.38922 0.0755,-0.17061 0.138375,-0.34604 0.18564,-0.5267 0.05912,-0.20439 0.122326,-0.40806 0.166117,-0.61644 0.05083,-0.24561 0.09443,-0.49287 0.109675,-0.74366 0.01867,-0.24467 0.02673,-0.49032 0.0076,-0.73532 -0.01255,-0.1573 -0.02801,-0.31589 -0.07583,-0.46709 -0.0253,-0.0735 -0.05631,-0.14315 -0.112128,-0.19899 -0.02499,-0.0257 -0.04929,-0.0527 -0.08288,-0.0673 -0.02428,-0.0104 -0.05086,-0.0201 -0.07756,-0.0188 -0.03906,0.002 -0.07784,0.007 -0.116605,0.0123 -0.0727,0.009 -0.145628,0.0124 -0.218662,0.0182 -0.1049,0.0125 -0.207879,0.0353 -0.311317,0.0565 -0.157813,0.0353 -0.313374,0.0793 -0.464627,0.13706 -0.189409,0.0693 -0.376922,0.14285 -0.554425,0.23962 -0.09599,0.051 -0.191771,0.10238 -0.2871862,0.15446 -0.03286,0.0179 -0.1303129,0.0737 -0.098479,0.054 0.063091,-0.039 0.1277495,-0.0755 0.1923162,-0.11206 0.02976,-0.0169 -0.058594,0.0353 -0.087891,0.0529 -0.118686,0.0717 -0.2336012,0.15004 -0.3375168,0.24217 0,0 -0.3250843,0.13121 -0.3250843,0.13121 z"
       inkscape:connector-curvature="0"
       style="stroke-width:0.26458332" />
    <path
       id="path936"
       d="m 4.7426792,284.68307 c -0.1143741,-0.0538 -0.236529,-0.0912 -0.3584876,-0.12371 -0.1465909,-0.038 -0.2937836,-0.0741 -0.4419844,-0.10527 -0.1474221,-0.0372 -0.2990704,-0.0465 -0.4496811,-0.0615 -0.1282022,-0.0139 -0.2570128,-0.0198 -0.385864,-0.023 -0.1080506,-0.002 -0.2161191,-0.002 -0.3241794,-0.001 -0.083906,-0.004 -0.1666402,0.004 -0.2498525,0.0129 -0.069759,0.008 -0.1399287,0.01 -0.2100434,0.0113 -0.055876,8.2e-4 -0.1106557,0.014 -0.1662451,0.0197 -0.044383,-6.6e-4 -0.086245,0.0125 -0.1289817,0.0225 -0.017454,-0.002 -0.02531,0.01 -0.038795,0.0172 -0.00365,0.002 -0.015195,0.007 -0.011598,0.005 0.3103158,-0.17998 0.3818927,-0.23271 0.2810985,-0.1593 -0.046286,0.0259 -0.051465,0.0855 -0.061344,0.13229 -0.033293,0.15643 -0.020294,0.31668 -0.00925,0.47475 0.025874,0.24813 0.075368,0.49279 0.1306967,0.73576 0.05021,0.22106 0.1048962,0.4404 0.1792685,0.65462 0.052536,0.16902 0.1346281,0.32366 0.2328698,0.46993 0.1081469,0.16061 0.2382229,0.28704 0.3858088,0.4105 0.115451,0.0929 0.058333,0.0481 0.171222,0.13455 0,0 -0.2846827,0.17933 -0.2846827,0.17933 v 0 c -0.1116141,-0.0884 -0.054428,-0.0431 -0.1715674,-0.13564 -0.05989,-0.0498 -0.1022344,-0.083 -0.1579956,-0.13697 -0.087876,-0.0851 -0.1643617,-0.18108 -0.2360799,-0.27989 -0.098943,-0.14941 -0.1834778,-0.3062 -0.2345542,-0.47905 -0.07283,-0.21627 -0.1282278,-0.43694 -0.1770727,-0.65983 -0.055553,-0.24412 -0.1050314,-0.48975 -0.1362698,-0.73833 -0.013779,-0.15886 -0.03151,-0.31992 -0.00395,-0.47832 0.00904,-0.0526 0.011222,-0.11145 0.044967,-0.15547 0.1224466,-0.0734 0.2355155,-0.17626 0.3768593,-0.20356 0.043033,-0.009 0.086082,-0.0163 0.1301652,-0.0187 0.05552,-0.007 0.1108241,-0.0179 0.1670638,-0.0163 0.069339,-0.002 0.1386463,-0.005 0.2076052,-0.0131 0.083423,-0.009 0.1667867,-0.0115 0.2506739,-0.009 0.1076296,5.1e-4 0.2152824,3e-4 0.3228797,0.003 0.128813,0.004 0.2574351,0.0118 0.3855342,0.0262 0.1515682,0.0146 0.3034176,0.0284 0.4517782,0.0648 0.1483158,0.0325 0.2959512,0.068 0.4426989,0.10697 0.1248746,0.0344 0.249055,0.0729 0.3684493,0.1234 0,0 -0.2911584,0.19347 -0.2911584,0.19347 z"
       inkscape:connector-curvature="0"
       style="stroke-width:0.26458332" />
    <path
       id="path938"
       d="m 4.2482153,289.84685 c 0.026581,0.0554 0.0548,0.10989 0.083672,0.16416 0.022154,0.0349 0.036578,0.0738 0.052166,0.11193 0.015642,0.0424 0.019796,0.0878 0.028146,0.13197 0.010422,0.0677 0.029516,0.13342 0.043438,0.20033 0.012285,0.0786 0.025837,0.15711 0.034943,0.23617 0.00533,0.0984 0.023088,0.19545 0.036653,0.29292 0.016542,0.12608 0.017634,0.25301 0.01212,0.3798 -0.00613,0.15227 -0.017523,0.30432 -0.031792,0.45603 -0.0181,0.1532 -0.02209,0.30743 -0.031681,0.46124 -0.00671,0.11844 -0.01673,0.23643 -0.029656,0.35432 -0.00615,0.0636 -0.00999,0.12707 -0.022709,0.18975 -0.00536,0.0395 -0.020526,0.0756 -0.040467,0.1097 -0.070778,0.10607 -0.3563837,0.22782 -0.3736152,0.23769 -0.029619,0.0127 -0.055518,-0.003 -0.08493,-0.008 -0.042167,-0.0125 -0.077405,-0.0367 -0.112608,-0.0622 -0.046652,-0.0369 -0.09055,-0.0775 -0.1300774,-0.12193 -0.055153,-0.0699 -0.1063802,-0.14254 -0.1579234,-0.21506 -0.069732,-0.0987 -0.1342128,-0.20106 -0.1967767,-0.30446 -0.072083,-0.11574 -0.1530072,-0.22536 -0.2267691,-0.34002 -0.07616,-0.11945 -0.149475,-0.2407 -0.2301158,-0.35723 -0.081721,-0.12229 -0.1610064,-0.24607 -0.2387768,-0.3709 -0.073625,-0.12117 -0.1537843,-0.23817 -0.2343002,-0.35481 -0.073236,-0.0995 -0.1473715,-0.19867 -0.2269245,-0.2932 -0.07417,-0.0801 -0.1463211,-0.16263 -0.2269537,-0.23638 -0.070922,-0.0638 -0.1468634,-0.12145 -0.2231956,-0.17849 -0.074353,-0.0488 -0.1552415,-0.086 -0.2381706,-0.1175 -0.069148,-0.0286 -0.1405286,-0.0499 -0.2119914,-0.0716 -0.067045,-0.0179 -0.1316288,-0.0433 -0.1989596,-0.0603 -0.0719889,-0.0211 -0.14540919,-0.0376 -0.2193071,-0.0505 -0.0782701,-0.008 -0.15562352,-0.0222 -0.23387005,-0.0305 -0.0797057,-0.0108 -0.15821996,-10e-4 -0.2355202,0.0186 -0.14324612,0.0236 -0.46825139,0.22149 0.0411514,-0.0675 -0.1211054,0.0744 -0.2004962,0.19131 -0.27593691,0.30827 0,0 -0.30949362,0.13614 -0.30949362,0.13614 v 0 c 0.07418766,-0.11735 0.14767766,-0.23819 0.26293605,-0.32027 0.18641821,-0.10685 0.34841047,-0.22466 0.55724199,-0.26678 0.0805516,-0.0163 0.16157358,-0.0217 0.2433053,-0.01 0.0785083,0.01 0.15666234,0.0222 0.23507394,0.0325 0.074495,0.0145 0.1487046,0.0308 0.2215528,0.0523 0.066881,0.019 0.1322799,0.0427 0.1993089,0.0612 0.072269,0.0212 0.1430373,0.0465 0.212933,0.0746 0.084254,0.0347 0.1674185,0.0733 0.2422801,0.12587 0.076914,0.058 0.1540972,0.11584 0.22437,0.18196 0.08073,0.0757 0.1542262,0.15873 0.2284669,0.24068 0.079232,0.0961 0.154305,0.19583 0.2274175,0.29666 0.079904,0.11758 0.1601873,0.23504 0.2335168,0.35689 0.078064,0.12405 0.1570582,0.24743 0.2387719,0.36911 0.080738,0.11689 0.1545839,0.23817 0.2302266,0.35836 0.07469,0.11453 0.1566754,0.22391 0.228907,0.34004 0.061845,0.10283 0.1268984,0.20372 0.1971037,0.30108 0.051535,0.071 0.1026319,0.14225 0.1583973,0.21003 0.039165,0.0417 0.081396,0.0807 0.1276789,0.11441 0.032762,0.0222 0.065734,0.043 0.105672,0.0493 0.027404,0.006 0.046551,0.006 0.07061,-0.0109 -0.096107,0.0555 -0.1924394,0.11053 -0.2883207,0.16638 -0.00465,0.003 0.00999,-0.004 0.014587,-0.007 0.0046,-0.003 0.00813,-0.007 0.012888,-0.01 0.017904,-0.009 0.012589,5.8e-4 0.027854,-0.0134 0.0041,-0.004 0.00702,-0.009 0.010525,-0.013 0.022371,-0.0288 0.041101,-0.0615 0.046634,-0.0979 0.014224,-0.0624 0.023299,-0.12475 0.028093,-0.1887 0.014822,-0.11798 0.027266,-0.23598 0.034323,-0.35473 0.011202,-0.15415 0.01366,-0.30895 0.032272,-0.46257 0.014388,-0.15092 0.025151,-0.30221 0.031197,-0.4537 0.00489,-0.12455 0.00491,-0.24912 -0.012009,-0.37295 -0.013391,-0.0975 -0.032849,-0.19428 -0.038955,-0.2927 -0.00858,-0.0781 -0.022593,-0.15546 -0.033652,-0.23324 -0.013756,-0.0669 -0.034181,-0.13217 -0.04557,-0.19953 -0.00868,-0.0419 -0.013499,-0.0845 -0.025987,-0.1255 -0.015116,-0.0373 -0.028598,-0.0754 -0.049909,-0.10979 -0.0273,-0.0559 -0.055031,-0.11161 -0.085248,-0.16595 0,0 0.3057408,-0.17172 0.3057408,-0.17172 z"
       inkscape:connector-curvature="0"
       style="stroke-width:0.26458332" />
    <path
       id="path940"
       d="m 0.1597519,291.08397 c 0.0210807,0.0947 0.0457835,0.18867 0.0767746,0.2806 0.0258155,0.0784 0.0553694,0.15524 0.089694,0.23028 0.0393426,0.0842 0.0990898,0.15467 0.16141274,0.22252 0.10103276,0.10077 0.20146155,0.20193 0.30513099,0.30001 0.12893767,0.1223 0.26027117,0.24196 0.39325957,0.35984 0.1476824,0.12834 0.2954441,0.25611 0.4479678,0.37866 0.1185597,0.0855 0.2223988,0.18709 0.3250664,0.29043 0,0 -0.2868645,0.1754 -0.2868645,0.1754 v 0 c -0.1005555,-0.10398 -0.2060048,-0.20173 -0.3234833,-0.2867 -0.1531166,-0.1228 -0.3018833,-0.25045 -0.44996863,-0.37927 -0.13395788,-0.11761 -0.2653907,-0.2379 -0.39565653,-0.35959 -0.10521381,-0.0981 -0.20692324,-0.1997 -0.3103887,-0.29962 -0.0652304,-0.0701 -0.12743584,-0.14347 -0.16886997,-0.23069 -0.03561673,-0.076 -0.06491851,-0.15425 -0.09024161,-0.23425 -0.03148423,-0.0928 -0.05411595,-0.18811 -0.08203357,-0.28199 0,0 0.30820068,-0.16563 0.30820071,-0.16563 z"
       inkscape:connector-curvature="0"
       style="stroke-width:0.26458332" />
    <path
       id="path942"
       d="m 1.6513702,292.77448 c 0.040862,0.0882 0.087167,0.17336 0.138275,0.25609 0.056831,0.087 0.121435,0.16845 0.1855961,0.25008 0.057855,0.0675 0.1088129,0.14032 0.1618021,0.21155 0.040732,0.0559 0.090359,0.10418 0.1348651,0.15683 0.050048,0.0578 0.1110678,0.10402 0.1687818,0.15364 0.057765,0.0502 0.1181825,0.0972 0.1758249,0.14761 0.055941,0.0382 0.1116448,0.0766 0.1679256,0.11421 0.042086,0.0262 0.085834,0.0491 0.1291156,0.0732 0.025551,0.0163 0.049808,0.034 0.072196,0.0543 0.012806,0.0114 0.024501,0.024 0.036756,0.0359 0.00675,0.0152 0.021159,0.0222 0.029465,0.0362 0.00779,0.0137 0.00957,0.0292 0.010956,0.0446 5.821e-4,0.0129 3.705e-4,0.0257 2.911e-4,0.0386 9.44e-5,0.0114 -1.738e-4,0.0227 2.6e-6,0.0341 -6.35e-4,0.0112 -0.0018,0.0214 0.010128,0.029 0.019627,0.0229 0.03537,0.0485 0.049736,0.075 0.024876,0.0479 0.051499,0.0948 0.077794,0.14193 0.033238,0.0673 0.071313,0.13191 0.1067683,0.19805 0.029129,0.0668 0.066687,0.12902 0.101745,0.19272 0.035323,0.0651 0.069897,0.13076 0.1069552,0.19495 0.03265,0.0586 0.061974,0.11908 0.097022,0.17635 0.037416,0.0507 0.065681,0.10734 0.100585,0.15967 0.030436,0.0413 0.063478,0.0802 0.1006904,0.11549 0.02617,0.0264 0.053589,0.0505 0.08391,0.0718 0.02427,0.0209 0.05271,0.0347 0.079356,0.0518 0.022339,0.012 0.045151,0.0202 0.070476,0.0216 0.037053,0.002 0.071751,-0.015 0.1059577,-0.0269 0,0 -0.2749283,0.21316 -0.2749283,0.21316 v 0 c -0.038865,0.0115 -0.078354,0.0245 -0.1193255,0.0163 -0.027546,-0.007 -0.053113,-0.0187 -0.07757,-0.0331 -0.028272,-0.016 -0.054099,-0.0351 -0.080306,-0.0542 -0.031588,-0.0225 -0.058474,-0.0501 -0.086271,-0.077 -0.037688,-0.0382 -0.072294,-0.079 -0.1035722,-0.12263 -0.033981,-0.0533 -0.063685,-0.10941 -0.1007089,-0.16082 -0.034973,-0.0577 -0.064408,-0.11839 -0.09689,-0.17745 -0.036931,-0.0646 -0.071452,-0.13047 -0.1072581,-0.19565 -0.034708,-0.064 -0.07344,-0.12577 -0.10168,-0.19313 -0.035164,-0.0661 -0.073043,-0.13048 -0.1074425,-0.19695 -0.02627,-0.0472 -0.054237,-0.0934 -0.079608,-0.14109 -0.013237,-0.0236 -0.028272,-0.0462 -0.04662,-0.0662 -0.012134,-0.0148 -0.024712,-0.0325 -0.023969,-0.0522 2.027e-4,-0.0115 -3.52e-5,-0.0229 2.112e-4,-0.0344 5.61e-5,-0.0123 1.611e-4,-0.0246 2.91e-4,-0.037 1.037e-4,-0.01 9.261e-4,-0.02 -0.0023,-0.0292 -0.00908,-0.009 -0.018854,-0.0179 -0.025157,-0.029 -0.011298,-0.0119 -0.023035,-0.0233 -0.034984,-0.0345 -0.020631,-0.0183 -0.04309,-0.0346 -0.066829,-0.0486 -0.043374,-0.0249 -0.087125,-0.049 -0.1289256,-0.0765 -0.057187,-0.0385 -0.1139156,-0.0778 -0.169554,-0.11843 -0.057532,-0.0503 -0.1177464,-0.0973 -0.1753447,-0.1475 -0.059215,-0.0506 -0.1206213,-0.099 -0.1720221,-0.15789 -0.045908,-0.0526 -0.095154,-0.10238 -0.1358356,-0.15933 -0.051876,-0.0715 -0.1020533,-0.14421 -0.1590115,-0.21183 -0.065263,-0.0825 -0.1300896,-0.16551 -0.1879886,-0.25343 -0.050557,-0.0833 -0.096316,-0.16917 -0.1429485,-0.25459 0,0 0.3035717,-0.17509 0.3035717,-0.17509 z"
       inkscape:connector-curvature="0"
       style="stroke-width:0.26458332" />
    <path
       id="path944"
       d="m 4.6208465,295.88628 c 0.1251337,-0.062 0.4435819,-0.24855 -0.074998,0.0487 0.1258374,-0.10275 0.2767242,-0.1556 0.4142872,-0.23533 0.013983,-0.008 0.027927,-0.0163 0.041933,-0.0243 0.014468,-0.008 0.057945,-0.0332 0.043486,-0.0248 -0.082569,0.0476 -0.1652077,0.0952 -0.2478116,0.14272 0.1081492,-0.0671 0.2128223,-0.13958 0.3162268,-0.21369 0.1040498,-0.0734 0.2091407,-0.14532 0.3125414,-0.21961 0.084258,-0.0594 0.1562939,-0.13296 0.2269456,-0.20741 0,0 0.3148155,-0.13148 0.3148155,-0.13148 v 0 c -0.070251,0.0749 -0.139768,0.15131 -0.2228633,0.21252 -0.1020646,0.0759 -0.2080765,0.14654 -0.3121469,0.21961 -0.1024472,0.0751 -0.207604,0.1463 -0.3136318,0.2162 -0.1142799,0.0662 -0.2285323,0.13247 -0.3428399,0.19863 -0.042175,0.0244 -0.084382,0.0487 -0.1273347,0.0718 -0.012909,0.007 -0.051467,0.028 -0.038862,0.0205 0.085806,-0.0508 0.1723364,-0.1003 0.2585046,-0.15045 -0.1726774,0.10073 -0.3438994,0.20366 -0.5206958,0.29696 0,0 0.2724446,-0.22042 0.2724446,-0.22042 z"
       inkscape:connector-curvature="0"
       style="stroke-width:0.26458332" />
    <path
       id="path946"
       d="m 3.8535043,295.55422 c 0.091069,0.0838 0.209626,0.12178 0.3270644,0.15173 0.1453042,0.0357 0.2936979,0.0266 0.4410972,0.0144 0.1462823,-0.0116 0.2848486,-0.0564 0.4192437,-0.11277 0.011631,-0.006 0.1268018,-0.0611 0.1377844,-0.0667 0.022516,-0.0116 0.088606,-0.0492 0.066697,-0.0364 -0.4581588,0.26603 -0.1693026,0.0956 -0.073674,0.0336 0.083583,-0.0566 0.165813,-0.11516 0.2480389,-0.17371 0,0 0.3136479,-0.1238 0.3136479,-0.1238 v 0 c -0.081941,0.0581 -0.1636905,0.11651 -0.2459611,0.17417 -0.2274819,0.15235 -0.4648695,0.29227 -0.7149571,0.4042 -0.1369171,0.0538 -0.2775839,0.0951 -0.4253643,0.10423 -0.1501793,0.011 -0.3011215,0.0157 -0.4482102,-0.0235 -0.1225873,-0.034 -0.2434609,-0.0773 -0.3423195,-0.16027 0,0 0.2969122,-0.1851 0.2969122,-0.1851 z"
       inkscape:connector-curvature="0"
       style="stroke-width:0.26458332" />
    <path
       id="path948"
       d="m 10.087556,290.01316 c 0.08937,0.0436 0.174547,0.0942 0.258817,0.14682 0.110601,0.0731 0.211827,0.1595 0.312037,0.24605 0.108051,0.0894 0.205956,0.18919 0.303695,0.28943 0.09539,0.097 0.175663,0.20727 0.258154,0.3151 0.07128,0.0898 0.127905,0.18959 0.190597,0.28523 0.04439,0.0768 0.08318,0.15662 0.126621,0.23393 0.03991,0.07 0.08418,0.13722 0.126278,0.20588 0.03862,0.0594 0.07422,0.12058 0.112243,0.18039 0.03642,0.0589 0.06806,0.12052 0.09925,0.18232 0.02957,0.0579 0.05659,0.11757 0.08033,0.17817 0.02792,0.0627 0.05262,0.12663 0.07445,0.19174 0.0235,0.0593 0.04329,0.11994 0.06436,0.18012 0.02016,0.0648 0.04316,0.12863 0.06114,0.1941 0.02228,0.0656 0.03184,0.13397 0.04447,0.20176 0.01357,0.0526 0.01785,0.1067 0.02669,0.16004 0.0098,0.0408 0.01732,0.0818 0.02191,0.1235 0.006,0.0319 0.01598,0.0628 0.02168,0.0948 0.0057,0.0252 0.02001,0.0465 0.03163,0.0691 0.01237,0.0244 0.02648,0.0473 0.03516,0.0733 0.01025,0.0211 0.02058,0.042 0.02723,0.0645 0.003,0.0128 0.01208,0.0237 0.01921,0.0349 0.0059,0.0128 0.0091,0.0265 0.01061,0.0405 7.14e-4,0.0125 3.17e-4,0.0251 4.76e-4,0.0377 -3.44e-4,0.0104 2.34e-4,0.0216 -8.2e-4,0.0315 0.0095,0.009 0.01471,0.02 0.01912,0.0322 0.0021,0.007 0.0035,0.0141 0.0056,0.0211 0.0082,0.0127 0.01552,0.026 0.0201,0.0404 0.002,0.0165 7.41e-4,0.005 0.01268,0.024 0.0084,0.008 0.0057,0.0238 0.014,0.0294 0.01038,0.0148 0.01635,0.0317 0.02454,0.0476 0.0083,0.0141 0.01421,0.0293 0.01944,0.0445 0.01066,0.0104 0.01769,0.0263 0.0224,0.0403 0.0015,0.0162 0.0073,0.018 0.01542,0.0366 0.0056,0.0145 0.01009,0.0292 0.01186,0.0446 0.0012,0.0126 -5.3e-4,0.0214 0.0035,0.0297 0.0096,0.0157 0.01491,0.0331 0.01817,0.051 0.0024,0.0163 0.0028,0.0329 0.0027,0.0494 -0.0028,0.0185 0.0041,0.0317 0.0109,0.0483 0.0074,0.0169 0.01026,0.0353 0.01182,0.0536 0.0012,0.0143 7.93e-4,0.0287 9.52e-4,0.043 0.0087,0.0155 0.01509,0.032 0.01919,0.0493 0.0096,0.0114 0.01641,0.0249 0.02139,0.039 0.0086,0.0163 0.01649,0.0327 0.02729,0.0477 0.01363,0.0241 0.02447,0.0495 0.03738,0.0739 0.01672,0.0324 0.02784,0.0671 0.04254,0.10043 0.02599,0.0513 0.0546,0.10074 0.08495,0.14954 0.0562,0.0894 0.128489,0.1667 0.197943,0.24572 0.09154,0.10852 0.189993,0.20997 0.29426,0.30619 0.09427,0.0839 0.200116,0.15246 0.314493,0.20512 0.117392,0.0524 0.242122,0.0822 0.368812,0.10059 0.109907,0.0171 0.219849,0.01 0.328452,-0.0114 0.126821,-0.0249 0.244472,-0.0721 0.354796,-0.13846 -0.45741,0.26998 -0.210189,0.12515 -0.120206,0.0478 0.05908,-0.0508 0.110987,-0.10778 0.162055,-0.16635 0.100732,-0.11566 0.162598,-0.25423 0.217075,-0.39576 0.05839,-0.14491 0.08214,-0.29844 0.09567,-0.45301 0.0099,-0.13569 0.0018,-0.27227 -0.01665,-0.40686 -0.02459,-0.14197 -0.06243,-0.28129 -0.106115,-0.41846 -0.0442,-0.1317 -0.111173,-0.25387 -0.179784,-0.3741 -0.07025,-0.11187 -0.133207,-0.22795 -0.200714,-0.34145 -0.06379,-0.10798 -0.116271,-0.22155 -0.165833,-0.33654 -0.04283,-0.11397 -0.08323,-0.22898 -0.121962,-0.34443 -0.02886,-0.0982 -0.0502,-0.19868 -0.06482,-0.29996 -0.01269,-0.0839 -0.0087,-0.16845 0.0029,-0.25215 0.0082,-0.0876 0.04349,-0.16465 0.08733,-0.23948 0.03881,-0.0752 0.08636,-0.14396 0.1409,-0.20842 0.04784,-0.0547 0.09876,-0.10645 0.153534,-0.15415 0.05161,-0.0478 0.107704,-0.0893 0.166945,-0.12694 0.155083,-0.0884 0.305454,-0.18717 0.467955,-0.26174 0.0669,-0.0282 0.135994,-0.0505 0.204349,-0.0748 0.0724,-0.0262 0.14943,-0.0326 0.225715,-0.0365 0.08864,0.001 0.176481,-0.007 0.264679,-0.014 0.0948,-0.013 0.189033,-0.001 0.282868,0.0125 0.09653,0.0175 0.191269,0.0429 0.286728,0.0652 0.094,0.0263 0.187044,0.0553 0.278471,0.0896 0.09026,0.0318 0.180962,0.0632 0.269533,0.0995 0.08489,0.0257 0.16316,0.0666 0.243213,0.10367 0.06255,0.0335 0.130601,0.0545 0.191243,0.0914 0.04525,0.0281 0.09215,0.0533 0.138315,0.0799 0.04072,0.0266 0.0709,0.0642 0.103188,0.0996 0.02967,0.032 0.04651,0.0713 0.06454,0.1103 0.01746,0.0372 0.02597,0.0774 0.03064,0.11795 0.0052,0.0413 0.0027,0.0817 -0.0058,0.1223 -0.0045,0.0319 -0.01849,0.061 -0.02924,0.0911 -0.01088,0.0187 -0.02049,0.0358 -0.0351,0.0512 -0.01444,0.0215 -0.03274,0.0364 -0.05375,0.0508 -0.711645,0.41231 -0.137159,0.0792 -0.0229,0.014 0.0043,-0.002 -0.0076,0.006 -0.01187,0.009 -0.104934,0.0605 -0.209683,0.12131 -0.315585,0.18008 -0.09674,0.0537 0.381309,-0.22443 0.288098,-0.16483 -0.102146,0.0653 -0.209955,0.12132 -0.314932,0.18198 0.09488,-0.0547 0.379946,-0.21809 0.284646,-0.16411 -0.106388,0.0602 -0.212014,0.12184 -0.31791,0.18295 -0.300418,0.17338 0.967124,-0.55844 -0.09305,0.0548 0.613481,-0.36355 0.05143,-0.0134 -0.153331,0.0822 -0.05367,0.0226 -0.105342,0.0489 -0.159281,0.0711 -0.0495,0.0219 -0.101679,0.0338 -0.153462,0.0485 -0.05092,0.0139 -0.103414,0.0205 -0.155962,0.0241 -0.04377,7.2e-4 -0.08804,0.005 -0.131165,-0.003 -0.04933,-0.007 -0.09716,-0.0183 -0.144245,-0.0348 -0.05384,-0.0186 -0.10692,-0.0408 -0.158259,-0.0657 -0.04618,-0.0191 -0.08879,-0.0458 -0.135573,-0.0633 -0.04921,-0.0233 -0.1007,-0.0409 -0.150828,-0.0618 -0.04658,-0.0161 -0.09251,-0.0335 -0.140437,-0.0453 -0.03553,-0.005 -0.07409,-0.0139 -0.109082,-0.003 -0.03255,0.007 -0.061,0.0195 -0.09134,0.0325 0.618199,-0.32186 0.306492,-0.22016 0.24372,-0.11904 -0.01874,0.0266 -0.02729,0.0554 -0.02835,0.0877 0.0043,0.0489 0.017,0.0969 0.03015,0.14405 0.01586,0.0652 0.0454,0.12475 0.08131,0.18096 0.05235,0.0792 0.109759,0.15494 0.16315,0.23346 0.05336,0.0846 0.105351,0.17004 0.158013,0.25507 0.03956,0.0677 0.07961,0.13537 0.111799,0.207 0.03177,0.0667 0.05272,0.1377 0.07341,0.20838 0.01759,0.0652 0.03647,0.13028 0.04853,0.19683 0.0093,0.0738 0.02467,0.14668 0.04115,0.21921 0.02228,0.10213 0.03484,0.20628 0.04763,0.30997 0.01418,0.10993 0.03153,0.21941 0.04583,0.32932 0.01003,0.10874 0.02213,0.21727 0.03187,0.32604 0.01249,0.0924 0.02065,0.18538 0.03612,0.27739 0.0097,0.0693 0.01943,0.13847 0.03132,0.20743 0.0106,0.0566 0.0133,0.11411 0.01506,0.17155 7.14e-4,0.059 0.0012,0.11792 8.47e-4,0.17689 0.0021,0.0553 -5.82e-4,0.10992 -0.009,0.1646 -0.0088,0.0415 -0.01012,0.084 -0.01506,0.12599 -0.008,0.0479 -0.01691,0.0953 -0.03143,0.14171 -0.0151,0.0383 -0.02805,0.0773 -0.04312,0.1156 -0.0088,0.0266 -0.02689,0.0481 -0.03625,0.0743 -0.0079,0.0165 -0.01901,0.0321 -0.02498,0.0493 -0.0044,0.0134 -0.0041,0.0267 -0.0029,0.0406 -0.0046,0.0118 -0.01544,0.0207 -0.02027,0.0317 -0.0017,0.0178 -0.0076,0.0313 -0.01579,0.0468 -0.0049,0.0193 -0.01962,0.0333 -0.02742,0.0509 -0.01467,0.0207 -0.02992,0.0416 -0.04236,0.0638 -0.01421,0.0178 -0.02651,0.0361 -0.04063,0.0538 -0.0099,0.0178 -0.02106,0.0344 -0.03127,0.052 -0.0877,0.10216 -0.225809,0.1311 -0.339192,0.21278 -0.09107,0.0656 0.194282,-0.11244 0.291423,-0.16866 -0.104529,0.0815 -0.122595,0.0758 -0.327589,0.19329 -0.0025,10e-4 -0.01072,0.005 -0.0082,0.003 0.661948,-0.38328 0.379969,-0.21882 0.284749,-0.16328 -0.792534,0.45763 -0.05637,0.0325 -0.02,0.0118 0.0039,-0.002 -0.0071,0.006 -0.01081,0.008 -0.0094,0.007 -0.01928,0.0125 -0.02948,0.018 -0.108636,0.0724 -0.03026,0.0204 -0.320738,0.18803 -0.01458,0.008 -0.03075,0.005 -0.04541,0.0141 -0.02421,0.0117 -0.04957,0.0161 -0.07397,0.0277 -0.03318,0.008 -0.0615,0.0236 -0.09544,0.0301 -0.03479,0.0192 -0.07711,0.0172 -0.112166,0.0337 -0.03697,0.0152 -0.07724,0.0172 -0.116657,0.0193 -0.0066,3.2e-4 -0.0133,-1.4e-4 -0.01981,9.8e-4 -0.01239,0.002 -0.02405,0.007 -0.03631,0.0102 -0.02408,0.005 -0.04864,0.006 -0.07317,0.009 0,0 0.280717,-0.20871 0.280717,-0.20871 v 0 c 0.0438,-0.006 0.0863,-0.0183 0.130605,-0.0196 0.03856,-0.004 0.07599,-0.0119 0.112183,-0.0263 0.0386,-0.008 0.07564,-0.0207 0.113346,-0.0319 0.03134,-0.0106 0.06185,-0.0233 0.09305,-0.0343 0.02501,-0.009 0.05067,-0.0155 0.07452,-0.0275 0.01265,-0.003 0.02202,-0.006 0.03318,-0.0123 0.0031,-0.002 0.01239,-0.008 0.0093,-0.006 -0.292289,0.17073 -0.376905,0.24067 -0.28105,0.16232 0.01245,-0.0107 0.02658,-0.0169 0.0407,-0.0252 0.565531,-0.331 0.266944,-0.15686 0.01925,-0.0128 0.10198,-0.0808 0.0042,-0.004 0.319227,-0.18582 0.0024,-10e-4 0.0093,-0.006 0.007,-0.004 -0.703542,0.40742 -0.354077,0.22366 -0.274511,0.1578 0.103458,-0.0608 0.206042,-0.1232 0.310375,-0.18253 0.09781,-0.0556 -0.193745,0.11447 -0.290799,0.1714 -0.0059,0.003 0.01273,-0.006 0.01724,-0.0114 0.01786,-0.0207 -0.0069,-0.003 0.01308,-0.0157 0.01789,-0.01 -4.23e-4,0.002 0.01247,-0.0145 0.0093,-0.0122 0.019,-0.008 0.02075,-0.033 0.0041,-0.006 0.0069,-0.0139 0.0123,-0.0193 0.0023,-0.002 0.0063,-0.002 0.0085,-0.005 0.0081,-0.009 0.0074,-0.0249 0.02011,-0.0307 0.0176,-0.0173 0.02825,-0.0428 0.04173,-0.0637 0.0096,-0.007 0.02201,-0.0323 0.03042,-0.0435 0.0023,-0.006 0.0032,-0.0129 0.0066,-0.0184 0.0065,-0.0105 0.01421,-0.002 0.01158,-0.0224 0.0019,-0.0163 0.0052,-0.0279 0.01562,-0.0413 0.0023,10e-4 0.0044,0.005 0.0069,0.004 0.0032,-10e-4 -0.0024,-0.0296 0.0011,-0.0341 0.0029,-0.0215 0.01083,-0.0396 0.02135,-0.0588 0.01702,-0.0192 0.01746,-0.0524 0.03961,-0.0698 0.01322,-0.0391 0.02934,-0.0774 0.04421,-0.11584 0.01778,-0.0437 0.02554,-0.0895 0.03376,-0.13576 0.0089,-0.0415 0.0047,-0.0849 0.01493,-0.12648 0.01061,-0.053 0.01604,-0.10548 0.01272,-0.15965 -1.91e-4,-0.0587 6.62e-4,-0.11733 -5.82e-4,-0.17598 -0.0011,-0.056 -0.0034,-0.11209 -0.0123,-0.1675 -0.01112,-0.0693 -0.02221,-0.13845 -0.03001,-0.20828 -0.0146,-0.0933 -0.02302,-0.18717 -0.03557,-0.28072 -0.0083,-0.10849 -0.02201,-0.21644 -0.03082,-0.32488 -0.01374,-0.11006 -0.03126,-0.21961 -0.04596,-0.32954 -0.012,-0.10234 -0.02551,-0.20493 -0.04745,-0.30564 -0.01791,-0.0726 -0.03487,-0.14579 -0.04381,-0.22015 -0.011,-0.0655 -0.02959,-0.12929 -0.04608,-0.19359 -0.02071,-0.0691 -0.0395,-0.13918 -0.07129,-0.20435 -0.03106,-0.0705 -0.07013,-0.13682 -0.107874,-0.20386 -0.0522,-0.0847 -0.102736,-0.1704 -0.156449,-0.25413 -0.05396,-0.0785 -0.112175,-0.15403 -0.165212,-0.23323 -0.03841,-0.0584 -0.07087,-0.12066 -0.08812,-0.18885 -0.0148,-0.0493 -0.02783,-0.0996 -0.03522,-0.15051 -0.0041,-0.0359 -6.88e-4,-0.0744 0.01857,-0.10589 0.0048,-0.008 0.0077,-0.0178 0.01246,-0.0262 0.06656,-0.11668 0.34273,-0.10489 0.34176,-0.21517 0.03103,-0.0122 0.06324,-0.0208 0.09642,-0.025 0.03935,2.1e-4 0.07877,0.004 0.116726,0.015 0.048,0.0143 0.09514,0.0315 0.141997,0.0492 0.0508,0.0196 0.100921,0.0408 0.151161,0.0618 0.0461,0.0202 0.0899,0.045 0.136035,0.0651 0.05095,0.0229 0.10243,0.0455 0.155889,0.0619 0.04635,0.0133 0.09335,0.0231 0.141263,0.029 0.04233,0.002 0.0848,5.3e-4 0.127034,-0.003 0.05116,-0.005 0.1019,-0.0136 0.151232,-0.0285 0.05146,-0.0136 0.101378,-0.0314 0.150381,-0.0523 0.05295,-0.0238 0.105918,-0.0477 0.158297,-0.0727 0.02463,-0.0129 0.04927,-0.0258 0.07365,-0.0392 0.0086,-0.005 0.03433,-0.0192 0.02583,-0.0143 -0.04845,0.0282 -0.759911,0.44036 0.05215,-0.0301 -0.09077,0.0526 -0.362482,0.21155 -0.272322,0.15788 0.107441,-0.064 0.2161,-0.12585 0.324168,-0.18874 0.300922,-0.17513 -0.948881,0.55227 0.07645,-0.0441 -0.736015,0.42638 -0.0036,0.002 0.02841,-0.0154 0.09761,-0.0523 -0.191659,0.11097 -0.287398,0.16662 -0.0041,0.002 0.0084,-0.004 0.01244,-0.007 0.10402,-0.0609 0.210075,-0.1184 0.311858,-0.18293 0.09424,-0.0597 -0.192819,0.11239 -0.289229,0.16858 0.01966,-0.014 0.04221,-0.0222 0.05678,-0.0418 0.01267,-0.0174 0.02904,-0.0251 0.03748,-0.0471 0.01816,-0.0161 0.02727,-0.0575 0.03549,-0.0804 0.008,-0.0378 0.01722,-0.0735 0.01056,-0.11264 -0.003,-0.0369 -0.0087,-0.0738 -0.02483,-0.10759 -0.01691,-0.0359 -0.03066,-0.0726 -0.05919,-0.10162 -0.02901,-0.0333 -0.05785,-0.0673 -0.09628,-0.0904 -0.04665,-0.0259 -0.09259,-0.0529 -0.138144,-0.0807 -0.06054,-0.0342 -0.126695,-0.0568 -0.187856,-0.0899 -0.0789,-0.0382 -0.158197,-0.0746 -0.241548,-0.10236 -0.08849,-0.0352 -0.178329,-0.0673 -0.268104,-0.0991 -0.0909,-0.0326 -0.183164,-0.0611 -0.276487,-0.086 -0.0945,-0.0229 -0.188835,-0.047 -0.284899,-0.0625 -0.09265,-0.0125 -0.185417,-0.0182 -0.278586,-0.006 -0.08861,0.008 -0.17715,0.0118 -0.266048,0.0142 -0.07503,0.006 -0.149673,0.0164 -0.220229,0.0442 -0.06833,0.0238 -0.136862,0.0474 -0.202567,0.0779 -0.02976,0.0145 -0.05869,0.0298 -0.08766,0.0458 -0.0087,0.005 -0.03479,0.0193 -0.0262,0.0143 0.336505,-0.19652 0.355627,-0.20825 0.243736,-0.14085 -0.06094,0.0343 -0.118356,0.074 -0.169608,0.12171 -0.05535,0.0464 -0.107625,0.0957 -0.155851,0.1496 -0.05605,0.0623 -0.107616,0.12729 -0.144329,0.20317 -0.04348,0.071 -0.08456,0.14191 -0.09202,0.22694 -0.01404,0.0804 -0.01938,0.1624 -0.0083,0.24361 0.01271,0.0998 0.03278,0.19861 0.05965,0.29553 0.03739,0.11489 0.07891,0.22851 0.119913,0.34214 0.04883,0.11368 0.101086,0.22581 0.163669,0.33273 0.067,0.11401 0.129696,0.23046 0.200517,0.3422 0.06959,0.12247 0.136326,0.24729 0.182185,0.3809 0.04472,0.13875 0.08267,0.2798 0.1096,0.42315 0.02023,0.1369 0.02885,0.27594 0.01931,0.4142 -0.01307,0.15711 -0.03496,0.3137 -0.09208,0.46178 -0.05377,0.14428 -0.112319,0.28733 -0.21271,0.40657 -0.190342,0.23015 -0.336648,0.31528 -0.621998,0.46716 -0.113981,0.0625 -0.235071,0.10715 -0.363485,0.13002 -0.111292,0.0174 -0.223107,0.0222 -0.334607,0.002 -0.128483,-0.0218 -0.254965,-0.0543 -0.373871,-0.1089 -0.116362,-0.0557 -0.22406,-0.12724 -0.319359,-0.2146 -0.104386,-0.0976 -0.203162,-0.20047 -0.296623,-0.30864 -0.07153,-0.08 -0.146371,-0.1577 -0.205253,-0.24787 -0.03194,-0.0496 -0.06163,-0.10033 -0.08936,-0.15244 -0.0152,-0.0322 -0.02642,-0.0659 -0.04215,-0.0978 -0.01277,-0.0229 -0.02321,-0.0471 -0.03607,-0.0699 -0.01276,-0.0184 -0.02237,-0.0381 -0.0334,-0.0575 -0.0028,-0.0162 -0.01639,-0.0272 -0.02289,-0.0419 -0.0024,-0.0162 -0.0082,-0.0311 -0.01686,-0.0451 -0.0071,-0.0169 -0.0059,-0.0333 -0.0056,-0.0515 -3.7e-4,-0.0147 -7.41e-4,-0.0299 -0.0063,-0.0437 -0.0075,-0.0197 -0.02008,-0.038 -0.0173,-0.0599 -1.14e-4,-0.0151 3.7e-4,-0.0302 -6.09e-4,-0.0453 -9e-4,-0.0145 -0.0045,-0.028 -0.01234,-0.0403 -0.0078,-0.0143 -0.01302,-0.0257 -0.0107,-0.0422 -1.86e-4,-0.012 -0.0017,-0.0235 -0.006,-0.0349 -0.0053,-0.0143 -0.01915,-0.0248 -0.01833,-0.0409 -1.1e-4,-0.0117 -0.01067,-0.0221 -0.01698,-0.031 -0.0087,-0.0148 -0.01047,-0.032 -0.02012,-0.0468 -0.0072,-0.0132 -0.01268,-0.0265 -0.02047,-0.0393 -0.0091,-0.0114 -0.0126,-0.0223 -0.01734,-0.0351 -0.0073,-0.0113 -0.02126,-0.0198 -0.01907,-0.0351 -0.0011,-0.008 -0.0051,-0.0166 -0.01043,-0.0235 -0.0088,-0.0113 -0.01378,-0.0207 -0.01351,-0.0347 -0.0028,-0.0117 -0.0108,-0.019 -0.01714,-0.0292 -0.0072,-0.0149 -0.0069,-0.0276 -0.0063,-0.0441 2.91e-4,-0.012 1.89e-4,-0.0241 3.44e-4,-0.0361 4.5e-4,-0.008 -5.55e-4,-0.0167 -0.002,-0.0249 -0.0083,-0.0143 -0.01993,-0.0282 -0.02366,-0.0442 -0.0049,-0.0226 -0.01556,-0.043 -0.02606,-0.0635 -0.0066,-0.0247 -0.0212,-0.0451 -0.03198,-0.068 -0.0132,-0.026 -0.02907,-0.0504 -0.0369,-0.0789 -0.0045,-0.033 -0.01374,-0.0649 -0.02222,-0.0971 -0.003,-0.041 -0.0096,-0.0813 -0.01937,-0.12124 -0.01067,-0.053 -0.01137,-0.10784 -0.02548,-0.1604 -0.01318,-0.0668 -0.01946,-0.13517 -0.04285,-0.19978 -0.01688,-0.0649 -0.04073,-0.12742 -0.06055,-0.19138 -0.0213,-0.0604 -0.04012,-0.12157 -0.06412,-0.18101 -0.02104,-0.0647 -0.0455,-0.12806 -0.0738,-0.18998 -0.0232,-0.0597 -0.04962,-0.11843 -0.07865,-0.17548 -0.03007,-0.0609 -0.0618,-0.12111 -0.09679,-0.1794 -0.03872,-0.0597 -0.07426,-0.12117 -0.112591,-0.18108 -0.0421,-0.0692 -0.08571,-0.13736 -0.126,-0.20758 -0.04286,-0.0768 -0.08215,-0.15557 -0.124789,-0.23251 -0.06064,-0.0958 -0.116513,-0.19491 -0.186758,-0.28431 -0.08132,-0.10691 -0.160864,-0.21584 -0.255035,-0.31205 -0.09751,-0.0992 -0.195134,-0.19799 -0.302535,-0.28672 -0.09938,-0.0852 -0.200102,-0.16985 -0.310364,-0.24077 -0.084229,-0.0517 -0.170181,-0.1007 -0.2616202,-0.13876 0,0 0.2918012,-0.19446 0.2918012,-0.19446 z"
       inkscape:connector-curvature="0"
       style="stroke-width:0.26458332" />
    <path
       id="path950"
       d="m 5.6878106,295.16169 c 0.043617,-0.0551 0.085276,-0.11167 0.1293405,-0.16643 0.02477,-0.0303 0.043613,-0.0649 0.06214,-0.0993 0.011861,-0.0195 0.024559,-0.0389 0.030896,-0.061 0.00587,-0.0212 0.00151,-0.0433 0.00819,-0.0641 0.00574,-0.0148 0.012581,-0.0286 0.016095,-0.0441 0.00206,-0.008 0.0013,-0.004 0.00225,-0.0121 0,0 0.3156987,-0.15828 0.3156987,-0.15828 v 0 c -2.392e-4,0.0104 -1.942e-4,0.005 -1.064e-4,0.016 -0.00285,0.0174 -0.00475,0.035 -0.014073,0.0503 -0.00235,0.005 -0.00771,0.008 -0.00951,0.0133 -0.00472,0.0135 0.00334,0.0315 -0.00108,0.0454 -0.00372,0.0258 -0.011234,0.051 -0.027044,0.0722 -0.022476,0.0339 -0.038098,0.0719 -0.06194,0.10504 -0.045305,0.0533 -0.089326,0.10787 -0.1282099,0.16609 0,0 -0.3226517,0.13708 -0.3226517,0.13708 z"
       inkscape:connector-curvature="0"
       style="stroke-width:0.26458332" />
    <path
       id="path952"
       d="m 6.0368814,295.38318 c -0.011814,0.0708 -0.027464,0.1406 -0.036799,0.21177 -0.012089,0.0772 0.00341,0.15343 0.01614,0.22926 0.012073,0.0709 0.035349,0.13865 0.058008,0.20661 0.016378,0.0574 0.036059,0.11376 0.060299,0.16827 0.019817,0.0482 0.039455,0.0965 0.059935,0.14439 0.022349,0.0383 0.04084,0.0785 0.058479,0.11912 0.01764,0.0369 0.033342,0.0748 0.048589,0.11277 0.014994,0.0288 0.031665,0.0567 0.046607,0.0856 0.011012,0.0265 0.024299,0.0523 0.040191,0.0762 0.011118,0.0263 0.025932,0.0506 0.038206,0.0764 0.011216,0.0201 0.023604,0.0392 0.035573,0.0588 0.010149,0.0205 0.019775,0.0406 0.031178,0.0606 0.00574,0.0167 0.014727,0.0296 0.023881,0.044 0.096571,0.11966 -0.2014249,0.28349 -0.3090132,0.18576 -0.022016,-0.0245 -0.039914,-0.0517 -0.057329,-0.0796 -0.039812,-0.0651 -0.077913,-0.13118 -0.1170422,-0.19667 -0.081676,-0.13555 -0.1689724,-0.26752 -0.2523357,-0.402 -0.1152412,-0.19039 -0.2106131,-0.39208 -0.3048741,-0.59343 -0.1040654,-0.20322 -0.1962886,-0.41185 -0.2844726,-0.62232 -0.03873,-0.0999 -0.020661,-0.0523 -0.054398,-0.14274 0,0 0.2998824,-0.16575 0.2998824,-0.16575 v 0 c 0.029889,0.0913 0.013526,0.0434 0.049506,0.1435 0.08404,0.21177 0.1743464,0.42077 0.2795476,0.62306 0.094505,0.19971 0.1912461,0.39915 0.3071445,0.5875 0.084661,0.13388 0.1734814,0.26504 0.2582592,0.39885 0.040788,0.0643 0.080379,0.12935 0.1217568,0.19328 0.016423,0.0251 0.033154,0.0498 0.054373,0.0712 0.1036915,0.10062 -0.3811119,0.0403 -0.2876177,0.19351 0.00308,0.005 -0.010112,-0.0214 -0.00793,-0.0159 -0.010525,-0.0149 -0.019135,-0.029 -0.024834,-0.0463 -0.010851,-0.0196 -0.021183,-0.0388 -0.030096,-0.0593 -0.013219,-0.0206 -0.025733,-0.0414 -0.037948,-0.0627 -0.010708,-0.0246 -0.025323,-0.0472 -0.03528,-0.072 -0.016126,-0.0253 -0.030837,-0.0518 -0.041868,-0.0797 -0.014848,-0.0302 -0.03298,-0.0585 -0.047686,-0.0888 -0.014436,-0.038 -0.030472,-0.0755 -0.048053,-0.11211 -0.016563,-0.041 -0.036157,-0.0807 -0.057579,-0.11945 -0.020161,-0.0479 -0.040441,-0.0956 -0.059266,-0.14399 -0.024964,-0.0555 -0.044937,-0.11315 -0.061079,-0.17182 -0.02308,-0.0697 -0.046683,-0.13926 -0.059731,-0.21182 -0.01311,-0.0787 -0.031199,-0.15771 -0.020944,-0.23795 0.00781,-0.0711 0.023654,-0.14052 0.03372,-0.21112 0,0 0.3149055,-0.15486 0.3149055,-0.15486 z"
       inkscape:connector-curvature="0"
       style="stroke-width:0.26458332" />
    <path
       id="path954"
       d="m 8.139704,294.71556 c 0.063798,0.0801 0.106562,0.17138 0.1409734,0.26705 0.049597,0.15357 0.085694,0.31089 0.1181444,0.46881 0.027898,0.16835 0.061531,0.33564 0.093036,0.50333 0.028919,0.1395 0.050822,0.28016 0.071556,0.42105 0.015327,0.11973 0.034329,0.23884 0.055133,0.35773 0.01556,0.0925 0.041632,0.18217 0.073993,0.27 0.021786,0.0582 0.041032,0.11758 0.058062,0.17741 0.018124,0.0488 0.029566,0.0995 0.042095,0.14997 0.012319,0.0557 0.022974,0.11187 0.03705,0.16719 0.012351,0.0535 0.036824,0.10282 0.055985,0.15395 0.018238,0.0362 0.032473,0.0742 0.047906,0.11161 0.010618,0.027 0.022003,0.0537 0.034126,0.0802 0,0 -0.304741,0.17216 -0.304741,0.17216 v 0 c -0.012269,-0.0268 -0.025675,-0.0531 -0.035785,-0.0808 -0.015565,-0.038 -0.029433,-0.0765 -0.047506,-0.11341 -0.018711,-0.0525 -0.044454,-0.10251 -0.05699,-0.15711 -0.015031,-0.0552 -0.025855,-0.1115 -0.037488,-0.16747 -0.012562,-0.0501 -0.024101,-0.10057 -0.042034,-0.14911 -0.015589,-0.0594 -0.034488,-0.11804 -0.054409,-0.17609 -0.032736,-0.0901 -0.058939,-0.182 -0.074688,-0.2767 -0.020415,-0.11951 -0.039745,-0.23909 -0.053322,-0.35962 -0.020979,-0.14056 -0.041817,-0.28109 -0.070367,-0.4204 -0.02973,-0.16803 -0.061898,-0.33562 -0.090203,-0.50391 -0.032656,-0.15583 -0.069127,-0.31096 -0.1206857,-0.46183 -0.033597,-0.0916 -0.073456,-0.18072 -0.1403964,-0.25349 0,0 0.3005553,-0.18045 0.3005553,-0.18045 z"
       inkscape:connector-curvature="0"
       style="stroke-width:0.26458332" />
    <path
       id="path958"
       d="m 10.265138,294.67713 c -0.01286,0.10065 -0.02425,0.20151 -0.0379,0.30207 -0.01773,0.11982 -0.02909,0.24057 -0.02846,0.36172 0.0023,0.11729 0.01466,0.23415 0.03138,0.35018 0.01338,0.0916 0.02929,0.18284 0.04789,0.27351 0.01673,0.0728 0.03472,0.14531 0.05438,0.21736 0.0172,0.0611 0.03732,0.1214 0.05523,0.18233 0.01665,0.0431 0.02848,0.0875 0.04069,0.132 0.01217,0.0333 0.01885,0.068 0.0298,0.10161 0.0073,0.0279 0.01934,0.0537 0.03171,0.0796 0.0044,0.0227 0.01545,0.0418 0.02498,0.0624 0.0045,0.0177 0.01044,0.0323 0.01922,0.0479 0.01058,0.0168 0.01412,0.0357 0.01617,0.0551 -5.29e-4,0.0151 0.0019,0.0251 0.0083,0.0382 0.0079,0.0137 0.01137,0.0288 0.01546,0.0439 0.0106,0.018 0.01687,0.0372 0.02088,0.0576 0,0 -0.311568,0.16519 -0.311568,0.16519 v 0 c -0.0023,-0.0184 -0.0071,-0.0349 -0.01722,-0.0508 -0.0063,-0.0136 -0.0069,-0.028 -0.0142,-0.0414 -0.0083,-0.0167 -0.01773,-0.0306 -0.01471,-0.0501 -6.35e-4,-0.0145 -7.14e-4,-0.0286 -0.0087,-0.0412 -0.0098,-0.0166 -0.0183,-0.0316 -0.02084,-0.051 -0.0088,-0.0207 -0.02197,-0.0394 -0.02463,-0.0623 -0.01191,-0.0275 -0.02565,-0.0542 -0.03258,-0.0835 -0.01146,-0.0341 -0.01864,-0.0688 -0.02992,-0.10296 -0.01359,-0.0441 -0.0215,-0.09 -0.03979,-0.13281 -0.0168,-0.0615 -0.03686,-0.12207 -0.05448,-0.18334 -0.0191,-0.073 -0.03773,-0.14607 -0.05418,-0.21966 -0.01935,-0.0915 -0.0336,-0.18397 -0.04683,-0.27648 -0.01719,-0.11748 -0.029,-0.23595 -0.03271,-0.35466 -0.0021,-0.12249 0.0085,-0.24488 0.02595,-0.36611 0.01364,-0.0993 0.02558,-0.19899 0.0325,-0.29897 0,0 0.3142018,-0.1552 0.3142018,-0.1552 z"
       inkscape:connector-curvature="0"
       style="stroke-width:0.26458332" />
    <path
       id="path960"
       d="m 0.87768805,290.72478 c -0.0845821,-0.0109 -0.1626847,-0.0504 -0.2376343,-0.0891 -0.0527862,-0.0242 -0.0996611,-0.0591 -0.15042507,-0.0866 -0.0423561,-0.0302 -0.0920437,-0.0456 -0.1395354,-0.0655 -0.0657036,-0.0305 -0.13144968,-0.0608 -0.1986711,-0.0879 -0.0387423,-0.0126 -0.07669906,-0.0265 -0.11520451,-0.0398 -0.02009958,-0.016 -0.04226093,-0.0259 -0.06689578,-0.0321 -0.012218,-0.002 -0.02508353,-10e-4 -0.03752652,-4.5e-4 -0.01308883,4.2e-4 -0.0261829,3.1e-4 -0.03927637,5.8e-4 -0.0114096,-1.5e-4 -0.005042,10e-4 -0.0176197,-0.009 0,0 0.29347897,-0.1963 0.29347897,-0.1963 v 0 c 0.004596,-0.005 0.001562,-0.003 0.009925,-0.003 0.0131857,6e-5 0.0263718,-3.2e-4 0.0395513,1.7e-4 0.014835,0.001 0.0294816,0.003 0.043238,0.009 0.0233454,0.009 0.0441087,0.0227 0.0665415,0.0337 0.037987,0.0143 0.0768363,0.0263 0.11402829,0.0427 0.0662802,0.0287 0.13149003,0.0598 0.19806079,0.0878 0.0498353,0.0194 0.0999722,0.0382 0.14453475,0.0685 0.0478201,0.0305 0.095009,0.062 0.14623111,0.0868 0.0724396,0.0367 0.14789979,0.0749 0.23113129,0.0736 0,0 -0.2839321,0.20629 -0.2839321,0.20629 z"
       inkscape:connector-curvature="0"
       style="stroke-width:0.26458332" />
    <path
       id="path962"
       d="m 0.37883515,291.16395 c -0.0541744,-0.0263 -0.1119428,-0.0437 -0.17093648,-0.055 -0.0338926,0.001 -0.0617963,-0.0177 -0.0936315,-0.0246 -0.0393808,-0.0169 -0.08085282,-0.0278 -0.12087558,-0.0433 -0.05482216,-0.0167 -0.10941003,-0.0349 -0.16538339,-0.0476 -0.031813,-0.008 -0.0644672,-0.009 -0.0970335,-0.009 -0.0212111,-9e-5 -0.0424139,4.8e-4 -0.0636206,7.7e-4 -0.0109032,4.5e-4 -0.0218022,1.9e-4 -0.0327085,2.6e-4 -0.011077,-1.3e-4 -0.0221589,7e-5 -0.0332359,-9e-5 -0.021858,-7.6e-4 -0.0423661,-0.0176 -0.061408,-0.0288 -0.0290477,-0.0139 -0.0556215,-0.0312 -0.0873759,-0.0385 -0.0173289,-0.005 -0.0348191,-0.005 -0.052561,-0.004 0,0 0.28653822,-0.20652 0.28653822,-0.20652 v 0 c 0.0194183,0.002 0.0383397,0.006 0.0567888,0.0128 0.0317107,0.0123 0.0609708,0.0294 0.0913627,0.0446 0.0182052,0.01 0.0326188,0.0165 0.0524436,0.0131 0.0111202,-1.6e-4 0.02224405,5e-5 0.03336419,-1.1e-4 0.01072877,10e-6 0.02144935,-3.5e-4 0.03217923,-1.2e-4 0.02121423,-5e-5 0.04242495,1.5e-4 0.06362699,10e-4 0.03382033,0.002 0.06731937,0.007 0.09990779,0.0162 0.0560067,0.0155 0.11171452,0.0326 0.16688451,0.0507 0.0404805,0.0135 0.081194,0.0264 0.12158461,0.0401 0.0298234,0.0105 0.0591682,0.0197 0.0907714,0.0239 0.0589035,0.0149 0.11561476,0.0359 0.17276854,0.0562 0,0 -0.28945032,0.19824 -0.28945032,0.19824 z"
       inkscape:connector-curvature="0"
       style="stroke-width:0.26458332" />
    <path
       id="path964"
       d="m 1.4604087,290.51326 c -0.1051318,-0.0626 -0.2107218,-0.12428 -0.3176717,-0.18372 -0.067218,-0.0346 -0.1327302,-0.0728 -0.20506482,-0.0957 -0.0188508,-0.004 -0.0381431,-0.008 -0.0575191,-0.006 0,0 0.28728242,-0.20572 0.28728242,-0.20572 v 0 c 0.020645,0.004 0.041181,0.009 0.060871,0.016 0.070471,0.0288 0.1358015,0.068 0.2025119,0.1043 0.1074074,0.0614 0.2137808,0.12467 0.3236053,0.18175 0,0 -0.2940147,0.18947 -0.2940147,0.18947 z"
       inkscape:connector-curvature="0"
       style="stroke-width:0.26458332" />
  </g>
</svg>
