<?xml version="1.0" encoding="UTF-8" standalone="no"?>
<!-- Created with Inkscape (http://www.inkscape.org/) -->

<svg
   xmlns:dc="http://purl.org/dc/elements/1.1/"
   xmlns:cc="http://creativecommons.org/ns#"
   xmlns:rdf="http://www.w3.org/1999/02/22-rdf-syntax-ns#"
   xmlns:svg="http://www.w3.org/2000/svg"
   xmlns="http://www.w3.org/2000/svg"
   xmlns:sodipodi="http://sodipodi.sourceforge.net/DTD/sodipodi-0.dtd"
   xmlns:inkscape="http://www.inkscape.org/namespaces/inkscape"
   width="64"
   height="64"
   viewBox="0 0 64.000001 64.000001"
   id="svg2"
   version="1.1"
   inkscape:version="0.91 r13725"
   inkscape:export-filename="/home/oserkin/zwork/DeepLearning/deep_learning_workshop_tasks/commonlearningdata/cartooncats/1_cat_11.png"
   inkscape:export-xdpi="90"
   inkscape:export-ydpi="90"
   sodipodi:docname="1_cat_11.svg">
  <defs
     id="defs4" />
  <sodipodi:namedview
     id="base"
     pagecolor="#ffffff"
     bordercolor="#666666"
     borderopacity="1.0"
     inkscape:pageopacity="0.0"
     inkscape:pageshadow="2"
     inkscape:zoom="11.2"
     inkscape:cx="30.481924"
     inkscape:cy="29.606808"
     inkscape:document-units="px"
     inkscape:current-layer="layer1"
     showgrid="false"
     units="px"
     inkscape:window-width="1855"
     inkscape:window-height="1056"
     inkscape:window-x="1985"
     inkscape:window-y="24"
     inkscape:window-maximized="1" />
  <metadata
     id="metadata7">
    <rdf:RDF>
      <cc:Work
         rdf:about="">
        <dc:format>image/svg+xml</dc:format>
        <dc:type
           rdf:resource="http://purl.org/dc/dcmitype/StillImage" />
        <dc:title></dc:title>
      </cc:Work>
    </rdf:RDF>
  </metadata>
  <g
     inkscape:label="Layer 1"
     inkscape:groupmode="layer"
     id="layer1"
     transform="translate(0,-988.36216)">
    <path
       style="fill:none;fill-rule:evenodd;stroke:#000000;stroke-width:1px;stroke-linecap:butt;stroke-linejoin:miter;stroke-opacity:1"
       d="m 17.142857,1006.4693 c 0.02976,0.1786 0.07127,0.3556 0.08929,0.5357 0.01777,0.1777 0,0.3572 0,0.5357 0,0.1191 0,0.2381 0,0.3572 0,0.089 0.01468,0.1798 0,0.2678 -0.01547,0.093 -0.07761,0.1745 -0.08929,0.2679 -0.01846,0.1476 0,0.2976 0,0.4464 0,0.3572 0,0.7143 0,1.0714 0,0.9524 0,1.9048 0,2.8572 0,0.2976 0,0.5952 0,0.8928 0,0.1191 0,0.2381 0,0.3572 0,0.089 -0.01107,0.1792 0,0.2678 0.03765,0.3012 0.145054,0.5912 0.178572,0.8929 0.158022,1.4222 -0.224787,-0.9238 0.08929,0.8036 0.03239,0.1781 0.0243,0.3667 0.08929,0.5357 0.08614,0.2239 0.27644,0.399 0.357143,0.625 0.07078,0.1982 0.04519,0.4192 0.08929,0.625 0.0454,0.2118 0.145625,0.4108 0.178571,0.625 0.02715,0.1765 -0.05251,0.365 0,0.5357 0.07056,0.2293 0.291224,0.3943 0.357143,0.625 0.05723,0.2003 -0.02753,0.4185 0,0.625 0.110374,0.8278 0.195648,0.5869 0.446428,1.3393 0.627243,1.8817 -0.159401,-0.3506 0.178572,1.3393 0.04987,0.2493 0.182331,0.4748 0.267857,0.7143 0.0033,0.01 0.356486,1.0701 0.357143,1.0714 0.337764,0.6755 0.3583,0.3316 0.535714,0.9821 0.181254,0.6646 -0.03141,0.423 0.267857,1.0715 0.100553,0.2178 0.242244,0.4143 0.357143,0.625 0.06374,0.1168 0.140326,0.2296 0.178572,0.3571 0.05202,0.1734 0.01966,0.3686 0.08929,0.5357 0.376876,0.5653 0.329092,0.4139 0.535715,0.9822 0.06433,0.1769 0.114244,0.3588 0.178571,0.5357 0.05477,0.1506 0.123799,0.2958 0.178571,0.4464 0.06447,0.1773 0.20484,0.7101 0.357143,0.8929 0.0687,0.082 0.191979,0.1027 0.267857,0.1785 0.04706,0.047 0.04771,0.1266 0.08929,0.1786 0.182927,0.2287 0.442073,0.3963 0.625,0.625 0.281823,0.3523 -0.180706,-0 0.267857,0.4464 0.04706,0.047 0.131514,0.042 0.178572,0.089 0.07588,0.076 0.114186,0.182 0.178571,0.2679 0.07576,0.101 0.178572,0.1786 0.267857,0.2678 0.05952,0.06 0.10853,0.1319 0.178572,0.1786 0.05537,0.037 0.125331,0.049 0.178571,0.089 0.124392,0.093 0.2445,0.2445 0.357143,0.3571 0.02976,0.03 0.05427,0.066 0.08929,0.089 0.05537,0.037 0.123199,0.052 0.178571,0.089 0.03502,0.023 0.05427,0.066 0.08929,0.089 0.05537,0.037 0.123199,0.052 0.178571,0.089 0.07705,0.051 0.198118,0.1981 0.267857,0.2678"
       id="path3442"
       inkscape:connector-curvature="0" />
    <path
       style="fill:none;fill-rule:evenodd;stroke:#000000;stroke-width:1px;stroke-linecap:butt;stroke-linejoin:miter;stroke-opacity:1"
       d="m 20.803571,1027.8979 c -0.148809,-0.089 -0.286919,-0.1995 -0.446428,-0.2679 -0.05471,-0.023 -0.119048,0 -0.178572,0 -0.267857,0 -0.535714,0 -0.803571,0 -0.625,0 -1.25,0 -1.875,0 -0.565476,0 -1.130952,0 -1.696429,0 -0.208333,0 -0.416666,0 -0.625,0 -0.08929,0 -0.184957,-0.033 -0.267857,0 -0.07816,0.031 -0.111228,0.1281 -0.178571,0.1786 -0.05324,0.04 -0.119048,0.059 -0.178572,0.089 -0.119047,0.06 -0.234805,0.1261 -0.357142,0.1785 -0.08651,0.037 -0.187154,0.041 -0.267858,0.089 -0.07218,0.043 -0.111227,0.1281 -0.178571,0.1786 -0.05324,0.04 -0.119048,0.06 -0.178571,0.089 -0.08929,0.059 -0.184064,0.1115 -0.267858,0.1786 -0.06573,0.053 -0.108529,0.1318 -0.178571,0.1785 -0.110745,0.074 -0.248835,0.1012 -0.357143,0.1786 -0.102749,0.073 -0.169257,0.189 -0.267857,0.2679 -0.05197,0.042 -0.126605,0.048 -0.178571,0.089 -0.02802,0.022 -0.478494,0.4641 -0.535715,0.5357 -0.158709,0.1984 -0.207845,0.2956 -0.267857,0.5357 -0.0072,0.029 0.01651,0.064 0,0.089 -0.340656,0.511 -0.03346,-0.2735 -0.357143,0.5357 -0.01105,0.028 0.0072,0.06 0,0.089 -0.02283,0.091 -0.07083,0.1755 -0.08929,0.2678 -0.01167,0.058 0.01882,0.1221 0,0.1786 -0.04209,0.1263 -0.142007,0.2292 -0.178572,0.3571 -0.01391,0.049 0,0.6422 0,0.7143 0,0.625 0,1.25 0,1.875 0,0.506 0,1.0119 0,1.5179 0,0.089 0,0.1786 0,0.2678 0,0.06 -0.01167,0.1202 0,0.1786 0.01846,0.092 0.07598,0.1747 0.08929,0.2679 0.02946,0.2062 -0.03425,0.4195 0,0.625 0.01547,0.093 0.07598,0.1747 0.08929,0.2678 0.01684,0.1179 -0.01957,0.2397 0,0.3572 0.02106,0.1263 0.23976,0.3621 0.267857,0.4464 0.02823,0.085 0,0.1786 0,0.2679 0.05952,0.119 0.129139,0.2335 0.178571,0.3571 0.01105,0.028 0,0.059 0,0.089 0,0.06 0,0.119 0,0.1786 0,0.2133 -0.02823,0.3398 0.08929,0.5357 0.04331,0.072 0.140925,0.1032 0.178571,0.1785 0.0969,0.1938 0.08167,0.4312 0.178572,0.625 0.04799,0.096 0.119047,0.1786 0.178571,0.2679 0.05952,0.089 0.114187,0.182 0.178572,0.2679 0.02525,0.034 0.06594,0.054 0.08929,0.089 0.361373,0.5421 -0.257025,-0.2795 0.178572,0.4465 0.04331,0.072 0.119047,0.119 0.178571,0.1785 0.05952,0.06 0.119048,0.1191 0.178572,0.1786 0.08929,0.089 0.166841,0.1921 0.267857,0.2679 0.05324,0.04 0.125331,0.049 0.178571,0.089 0.06734,0.051 0.10853,0.1318 0.178572,0.1785 0.02476,0.016 0.06041,-0.01 0.08929,0 0.09131,0.023 0.180474,0.054 0.267857,0.089 0.226204,0.091 0.398797,0.2667 0.625,0.3572 0.08738,0.035 0.175023,0.074 0.267858,0.089 0.176141,0.029 0.358937,-0.025 0.535714,0 0.121478,0.017 0.235665,0.072 0.357143,0.089 0.08839,0.013 0.181237,-0.022 0.267857,0 0.155487,0.039 0.288336,0.1522 0.446428,0.1786 0.205499,0.034 0.416667,0 0.625,0 0.267858,0.03 0.538167,0.042 0.803572,0.089 0.241688,0.043 0.471329,0.1438 0.714286,0.1786 0.176776,0.025 0.357142,0 0.535714,0 0.386905,0.03 0.777179,0.03 1.160714,0.089 0.392456,0.06 0.76607,0.224 1.160714,0.2679 0.414119,0.046 0.833334,0 1.25,0 1.25,0 2.5,0 3.75,0 0.178572,0 0.357143,0 0.535715,0 0.303307,0 0.691524,0.056 0.982143,-0.089 0.03765,-0.019 0.05952,-0.06 0.08929,-0.089 0.02976,-0.03 0.05952,-0.06 0.08929,-0.089 0.05952,-0.06 0.151952,-0.099 0.178572,-0.1786 0.01331,-0.04 -0.119048,-0.06 -0.08929,-0.089 0.02976,-0.03 0.05952,0.06 0.08929,0.089"
       id="path3444"
       inkscape:connector-curvature="0" />
    <path
       style="fill:none;fill-rule:evenodd;stroke:#000000;stroke-width:1px;stroke-linecap:butt;stroke-linejoin:miter;stroke-opacity:1"
       d="m 33.392857,1025.13 c -0.178571,0 -0.362474,-0.043 -0.535714,0 -0.08167,0.02 -0.113903,0.1247 -0.178571,0.1786 -0.114319,0.095 -0.22794,0.194 -0.357143,0.2678 -0.08172,0.047 -0.183678,0.047 -0.267857,0.089 -0.09598,0.048 -0.174688,0.1254 -0.267858,0.1786 -0.231125,0.1321 -0.48316,0.2251 -0.714285,0.3571 -0.197464,-0.01 -0.233326,0.1854 -0.357143,0.2679 -0.05537,0.037 -0.126605,0.048 -0.178572,0.089 -0.141662,0.1133 -0.493692,0.4937 -0.625,0.625 -0.178571,0.1786 -0.357142,0.3571 -0.535714,0.5357 -0.08929,0.089 -0.187022,0.1709 -0.267857,0.2679 -0.0687,0.082 -0.123362,0.1758 -0.178571,0.2678 -0.03424,0.057 -0.03732,0.137 -0.08929,0.1786 -0.103933,0.083 -0.246398,0.1047 -0.357143,0.1786 -0.07004,0.047 -0.119048,0.119 -0.178571,0.1785 -0.08929,0.089 -0.192096,0.1669 -0.267858,0.2679 -0.01786,0.024 0.01331,0.063 0,0.089 -0.07761,0.1552 -0.171594,0.302 -0.267857,0.4464 -0.02335,0.035 -0.05952,0.06 -0.08929,0.089 -0.119048,0.119 -0.238096,0.2381 -0.357143,0.3571 -0.08929,0.089 -0.178572,0.1786 -0.267858,0.2679 -0.02976,0.03 -0.06403,0.056 -0.08929,0.089 -0.06439,0.086 -0.114187,0.182 -0.178572,0.2678 -0.02525,0.034 -0.07046,0.052 -0.08929,0.089 -0.04209,0.084 -0.0472,0.1837 -0.08929,0.2679 -0.04799,0.096 -0.111537,0.184 -0.178572,0.2678 -0.05259,0.066 -0.147307,0.1004 -0.178571,0.1786 -0.03316,0.083 0,0.1786 0,0.2679 0,0.119 0.01957,0.2397 0,0.3571 -0.01094,0.066 -0.05952,0.119 -0.08929,0.1786 -0.05952,0.119 -0.136481,0.2308 -0.178571,0.3571 -0.01882,0.056 0.01444,0.1208 0,0.1786 -0.01614,0.064 -0.07315,0.114 -0.08929,0.1786 -0.01444,0.058 0.01167,0.1202 0,0.1785 -0.01846,0.092 -0.07083,0.1756 -0.08929,0.2679 -0.01167,0.058 0,0.119 0,0.1786 0,0.089 0,0.1785 0,0.2678 0,0.2976 0,0.5953 0,0.8929 0,0.022 -0.01352,0.9348 0,0.9821 0.02948,0.1032 0.123362,0.1759 0.178572,0.2679 0.03424,0.057 0.06824,0.1154 0.08929,0.1785 0.02976,0.1191 0.05952,0.2381 0.08929,0.3572 0,0.03 -0.0072,0.06 0,0.089 0.02283,0.091 0.07083,0.1755 0.08929,0.2678 0.01167,0.058 -0.01882,0.1221 0,0.1786 0.04209,0.1263 0.136482,0.2309 0.178571,0.3571 0.01882,0.057 -0.0098,0.1199 0,0.1786 0.02017,0.1211 0.07193,0.2357 0.08929,0.3572 0.01263,0.088 -0.01468,0.1797 0,0.2678 0.01547,0.093 0.07381,0.175 0.08929,0.2679 0.01468,0.088 0,0.1785 0,0.2678 0,0.06 -0.02662,0.1254 0,0.1786 0.685004,1.37 -0.04477,-0.283 0.446428,0.5357 0.04842,0.081 0.0472,0.1837 0.08929,0.2679 0.01882,0.038 0.06594,0.054 0.08929,0.089 0.03692,0.055 0.05237,0.1232 0.08929,0.1785 0.04669,0.07 0.119047,0.1191 0.178571,0.1786 0.08929,0.089 0.178572,0.1786 0.267857,0.2679 0.02976,0.03 0.06594,0.054 0.08929,0.089 0.07383,0.1108 0.09542,0.2533 0.178571,0.3572 0.07888,0.099 0.178572,0.1786 0.267858,0.2678 0.119047,0.1191 0.238095,0.2381 0.357142,0.3572 0.343827,0.3438 0.0051,0.022 0.535715,0.4464 0.03287,0.026 0.05164,0.07 0.08929,0.089 0.08418,0.042 0.183678,0.047 0.267858,0.089 0.09598,0.048 0.175841,0.1234 0.267857,0.1786 0.114131,0.068 0.233563,0.1291 0.357143,0.1785 0.08738,0.035 0.176551,0.066 0.267857,0.089 0.02887,0.01 0.06452,-0.017 0.08929,0 0.07004,0.047 0.106389,0.1353 0.178572,0.1786 0.0807,0.048 0.183678,0.047 0.267857,0.089 0.03765,0.019 0.05164,0.07 0.08929,0.089 0.08418,0.042 0.176551,0.066 0.267857,0.089 0.02887,0.01 0.06452,-0.016 0.08929,0 0.07004,0.047 0.108529,0.1318 0.178571,0.1785 0.04953,0.033 0.122102,-0.019 0.178571,0 0.06314,0.021 0.116782,0.065 0.178572,0.089 0.08738,0.035 0.183678,0.047 0.267857,0.089 0.03765,0.019 0.05164,0.071 0.08929,0.089 0.02662,0.013 0.05952,0 0.08928,0 0.05952,0 0.119048,0 0.178572,0 0.238095,0 0.47619,0 0.714286,0 0.744047,0 1.488095,0 2.232142,0 0.476191,0 0.952381,0 1.428572,0 0.178571,0 0.357143,0 0.535714,0 0.05952,0 0.119048,0 0.178572,0 0.02976,0 0.06266,0.013 0.08928,0 0.03765,-0.019 0.05164,-0.071 0.08929,-0.089 0.02662,-0.013 0.05952,0 0.08929,0 0.05952,0 0.120825,0.014 0.178571,0 0.159315,-0.04 0.248772,-0.1595 0.357143,-0.2678 0.02976,-0.03 0.05164,-0.071 0.08929,-0.089 0.02662,-0.013 0.06267,0.013 0.08928,0 0.03765,-0.019 0.05164,-0.07 0.08929,-0.089 0.02662,-0.013 0.06165,0.011 0.08929,0 0.123579,-0.049 0.238095,-0.1191 0.357143,-0.1786 0.05952,-0.03 0.119047,-0.06 0.178571,-0.089 0.05952,0 0.122102,0.019 0.178572,0 0.03993,-0.013 0.05164,-0.07 0.08928,-0.089 0.02662,-0.013 0.05952,0 0.08929,0 0.05952,0 0.122102,0.019 0.178571,0 0.03993,-0.013 0.05427,-0.066 0.08929,-0.089 0.05537,-0.037 0.123199,-0.052 0.178572,-0.089 0.03502,-0.023 0.05164,-0.07 0.08928,-0.089 0.02662,-0.013 0.08929,-0.03 0.08929,0 0,0.03 -0.05952,0 -0.08929,0 0.359364,-0.9853 0.342323,-1.2322 1.160688,-2.0506 0.256885,-0.2569 0.600388,-0.4095 0.892857,-0.625 0.546372,-0.4026 1.064202,-0.8428 1.607143,-1.25 0.0076,-0.01 1.248605,-0.8916 1.25,-0.8929 0.141009,-0.1282 0.204687,-0.3321 0.357142,-0.4464 0.09817,-0.074 0.247387,-0.034 0.357143,-0.089 0.07529,-0.038 0.119048,-0.119 0.178572,-0.1786 0.05952,-0.059 0.128063,-0.1112 0.178571,-0.1785 0.270633,-0.3609 0.01414,-0.042 0.08929,-0.2679 0.02105,-0.063 0.05505,-0.1215 0.08929,-0.1786 0.06096,-0.1016 0.330141,-0.4899 0.357142,-0.625 0.01751,-0.087 -0.01468,-0.1797 0,-0.2678 0.01547,-0.093 0.05952,-0.1786 0.08929,-0.2679 0.02976,-0.089 0.04086,-0.1871 0.08929,-0.2678 0.04331,-0.072 0.140925,-0.1033 0.178571,-0.1786 0.116746,-0.2335 0.04693,-0.4056 0.178572,-0.625 0.211061,-0.3518 0.190031,0.021 0.267857,-0.4464 0.01957,-0.1175 -0.02335,-0.2404 0,-0.3572 0.02407,-0.1203 0.06911,-0.2361 0.08929,-0.3571 0.0098,-0.059 0,-0.1191 0,-0.1786 0,-0.119 0,-0.2381 0,-0.3571 0,-0.3572 0,-0.7143 0,-1.0715 0,-0.5654 0,-1.1309 0,-1.6964 0,-0 0.0091,-0.7809 0,-0.8036 -0.03126,-0.078 -0.135262,-0.1063 -0.178572,-0.1785 -0.04899,-0.082 -0.169591,-0.5711 -0.178571,-0.625 -0.0593,-0.3558 0.136684,-0.01 -0.08929,-0.5357 -0.04227,-0.099 -0.123362,-0.1759 -0.178571,-0.2679 -0.06848,-0.1141 -0.12914,-0.2336 -0.178572,-0.3571 -0.03495,-0.087 -0.0472,-0.1837 -0.08929,-0.2679 -0.10188,-0.2038 -0.201037,-0.246 -0.267857,-0.4464 -0.0094,-0.028 0,-0.059 0,-0.089 -0.02976,-0.1191 -0.04371,-0.2432 -0.08928,-0.3572 -0.01563,-0.039 -0.05952,-0.059 -0.08929,-0.089 -0.08929,-0.089 -0.188978,-0.1693 -0.267857,-0.2679 -0.425463,-0.5318 0.430775,0.2732 -0.357143,-0.3571 -0.131466,-0.1052 -0.225677,-0.252 -0.357143,-0.3572 -0.08379,-0.067 -0.184064,-0.1115 -0.267857,-0.1786 -0.06573,-0.053 -0.111228,-0.128 -0.178572,-0.1785 -0.05324,-0.04 -0.119047,-0.059 -0.178571,-0.089 -0.119048,-0.06 -0.246398,-0.1048 -0.357143,-0.1786 -0.307442,-0.2049 -0.04098,-0.1949 -0.446428,-0.3571 -0.05527,-0.022 -0.127531,0.031 -0.178572,0 -0.108275,-0.065 -0.169257,-0.189 -0.267857,-0.2679 -0.05197,-0.042 -0.119048,-0.059 -0.178571,-0.089 -0.05952,-0.03 -0.116782,-0.065 -0.178572,-0.089 -0.08738,-0.035 -0.183678,-0.047 -0.267857,-0.089 -0.09598,-0.048 -0.175841,-0.1234 -0.267857,-0.1786 -0.223214,-0.1339 -0.267857,-0.089 -0.535714,-0.2679 -0.24383,-0.1625 -0.122068,-0.249 -0.446429,-0.3571 -0.0847,-0.028 -0.184957,0.033 -0.267857,0 -0.07816,-0.031 -0.106388,-0.1353 -0.178572,-0.1786 -0.0807,-0.048 -0.180473,-0.054 -0.267857,-0.089 -0.06179,-0.025 -0.116781,-0.065 -0.178571,-0.089 -0.08738,-0.035 -0.189549,-0.037 -0.267857,-0.089 -0.105063,-0.07 -0.159583,-0.2029 -0.267857,-0.2679 -0.05104,-0.031 -0.120204,0.012 -0.178572,0 -0.09229,-0.019 -0.178571,-0.059 -0.267857,-0.089 -0.08929,-0.03 -0.178571,-0.059 -0.267857,-0.089 -0.08929,-0.03 -0.183678,-0.047 -0.267857,-0.089 -0.09598,-0.048 -0.171878,-0.1305 -0.267857,-0.1785 -0.290398,-0.1452 -0.212383,-0.023 -0.446429,-0.1786 -0.123817,-0.082 -0.240942,-0.1749 -0.357143,-0.2679 -0.03287,-0.026 -0.05164,-0.07 -0.08929,-0.089 -0.08418,-0.042 -0.183677,-0.047 -0.267857,-0.089 -0.191958,-0.096 -0.343756,-0.2612 -0.535714,-0.3572 -0.02662,-0.013 -0.05952,0 -0.08929,0 -0.08928,-0.03 -0.183678,-0.047 -0.267857,-0.089 -0.09598,-0.048 -0.171878,-0.1305 -0.267857,-0.1785 -0.08418,-0.042 -0.180473,-0.054 -0.267857,-0.089 -0.06179,-0.025 -0.119048,-0.059 -0.178572,-0.089 -0.08928,-0.03 -0.180473,-0.054 -0.267857,-0.089 -0.123579,-0.049 -0.238095,-0.119 -0.357143,-0.1786 -0.05952,-0.03 -0.123198,-0.052 -0.178571,-0.089 -0.07004,-0.047 -0.100413,-0.1473 -0.178571,-0.1786 -0.113935,-0.046 -0.243209,-0.044 -0.357143,-0.089 -0.03908,-0.016 -0.05427,-0.066 -0.08929,-0.089 -0.166118,-0.1107 -0.362371,-0.1688 -0.535714,-0.2678 -0.244561,-0.1398 -0.220667,-0.1776 -0.446429,-0.2679 -0.233046,-0.093 -0.50191,-0.1263 -0.714286,-0.2679 -0.123817,-0.082 -0.240942,-0.1749 -0.357142,-0.2678 -0.03287,-0.026 -0.05164,-0.07 -0.08929,-0.089 -0.08418,-0.042 -0.187154,-0.041 -0.267857,-0.089 -0.07218,-0.043 -0.112839,-0.126 -0.178572,-0.1786 -0.08379,-0.067 -0.18201,-0.1141 -0.267857,-0.1785 -0.06734,-0.051 -0.119048,-0.1191 -0.178571,-0.1786 -0.08929,-0.089 -0.188978,-0.1693 -0.267857,-0.2679 -0.04157,-0.052 -0.05237,-0.1232 -0.08929,-0.1785 -0.04669,-0.07 -0.119048,-0.1191 -0.178572,-0.1786 -0.148809,-0.1488 -0.297619,-0.2976 -0.446428,-0.4464 -0.08929,-0.089 -0.192096,-0.1669 -0.267857,-0.2679 -0.03993,-0.053 -0.05237,-0.1232 -0.08929,-0.1786 -0.02335,-0.035 -0.06594,-0.054 -0.08929,-0.089 -0.03692,-0.055 -0.04936,-0.1254 -0.08929,-0.1786 -0.07576,-0.101 -0.197816,-0.1628 -0.267858,-0.2679 -0.03691,-0.055 -0.05505,-0.1215 -0.08929,-0.1785 -0.04115,-0.069 -0.238701,-0.3298 -0.267857,-0.4465 -0.01444,-0.058 0.02211,-0.1233 0,-0.1785 -0.03985,-0.1 -0.130582,-0.1719 -0.178572,-0.2679 -0.04209,-0.084 -0.03708,-0.1895 -0.08929,-0.2679 -0.07004,-0.105 -0.192095,-0.1668 -0.267857,-0.2678 -0.01786,-0.024 0.0072,-0.06 0,-0.089 -0.02283,-0.091 -0.04086,-0.1872 -0.08929,-0.2679 -0.04331,-0.072 -0.135262,-0.1063 -0.178572,-0.1785 -0.04842,-0.081 -0.0472,-0.1837 -0.08929,-0.2679 -0.01882,-0.038 -0.06594,-0.054 -0.08929,-0.089 -0.03691,-0.055 -0.05505,-0.1215 -0.08929,-0.1785 -0.05521,-0.092 -0.130582,-0.1719 -0.178571,-0.2679 -0.01331,-0.027 0.0072,-0.06 0,-0.089 -0.02283,-0.091 -0.0472,-0.1837 -0.08929,-0.2678 -0.01882,-0.038 -0.07908,-0.048 -0.08929,-0.089 -0.02165,-0.087 0.03316,-0.185 0,-0.2679 -0.06253,-0.1563 -0.28185,-0.2065 -0.357143,-0.3571 -0.02662,-0.053 0.01882,-0.1221 0,-0.1786 -0.01331,-0.04 -0.06594,-0.054 -0.08929,-0.089 -0.415463,-0.6232 0.396192,0.439 -0.267858,-0.4464 -0.02525,-0.034 -0.07046,-0.052 -0.08929,-0.089 -0.04209,-0.084 -0.0472,-0.1837 -0.08929,-0.2679 -0.01882,-0.038 -0.07046,-0.052 -0.08929,-0.089 -0.01331,-0.027 0,-0.06 0,-0.089 0,-0.089 0.03316,-0.185 0,-0.2679 -0.03126,-0.078 -0.128064,-0.1112 -0.178571,-0.1786 -0.03993,-0.053 -0.05952,-0.119 -0.08929,-0.1785 -0.02976,-0.06 -0.07623,-0.1133 -0.08929,-0.1786 -0.01751,-0.087 0.02166,-0.1812 0,-0.2679 -0.01021,-0.041 -0.07046,-0.052 -0.08929,-0.089 -0.01331,-0.027 0.0094,-0.061 0,-0.089 -0.107896,-0.3237 -0.04236,-0.064 -0.178572,-0.2679 -0.300703,-0.451 -6.89e-4,-0 -0.08929,-0.2678 -0.02104,-0.063 -0.06824,-0.1155 -0.08929,-0.1786 -0.0094,-0.028 0.01331,-0.063 0,-0.089 -0.01882,-0.038 -0.07046,-0.052 -0.08929,-0.089 -0.01331,-0.027 0.01651,-0.064 0,-0.089 -0.04669,-0.07 -0.140925,-0.1032 -0.178571,-0.1785 -0.02662,-0.053 0.01882,-0.1221 0,-0.1786 -0.01331,-0.04 -0.06594,-0.054 -0.08929,-0.089 -0.03692,-0.055 -0.06824,-0.1154 -0.08929,-0.1786 -0.01816,-0.054 0,-0.4667 0,-0.5357 0,-0.03 0.0094,-0.061 0,-0.089 -0.02105,-0.063 -0.06824,-0.1154 -0.08929,-0.1785 -0.01679,-0.05 0,-0.2092 0,-0.2679"
       id="path3446"
       inkscape:connector-curvature="0" />
    <path
       style="fill:none;fill-rule:evenodd;stroke:#000000;stroke-width:1px;stroke-linecap:butt;stroke-linejoin:miter;stroke-opacity:1"
       d="m 15.089286,1005.3979 c 0.209045,0.052 0.362717,0.063 0.535714,0.1785 0.03502,0.023 0.04845,0.079 0.08929,0.089 0.328249,0.082 0.192587,-0.1011 0.446428,0.089 0.06734,0.051 0.10853,0.1319 0.178572,0.1786 0.04953,0.033 0.125331,-0.027 0.178571,0 0.03765,0.019 0.04936,0.076 0.08929,0.089 0.112938,0.038 0.244204,-0.038 0.357143,0 0.03993,0.013 0.04936,0.076 0.08929,0.089 0.05647,0.019 0.120825,-0.014 0.178572,0 0.06456,0.016 0.115437,0.068 0.178571,0.089 0.02824,0.01 0.06452,-0.017 0.08929,0 0.07004,0.047 0.10853,0.1318 0.178571,0.1785 0.02476,0.016 0.06105,-0.01 0.08929,0 0.06313,0.021 0.114009,0.073 0.178572,0.089 0.05775,0.014 0.120824,-0.014 0.178571,0 0.06456,0.016 0.113314,0.076 0.178571,0.089 0.08755,0.018 0.180306,-0.017 0.267858,0 0.06526,0.013 0.113314,0.076 0.178571,0.089 0.08755,0.017 0.184957,-0.033 0.267857,0 0.07816,0.031 0.10853,0.1319 0.178572,0.1786 0.02476,0.016 0.05952,0 0.08929,0 0.05952,0 0.120825,-0.014 0.178572,0 0.06456,0.016 0.115437,0.068 0.178571,0.089 0.07804,0.026 0.481936,-0.027 0.535714,0 0.03765,0.019 0.04936,0.076 0.08929,0.089 0.04087,0.014 0.396593,0 0.446429,0 0.238095,0 0.47619,0 0.714285,0 0.386905,0 0.77381,0 1.160715,0 0.07482,0 0.408481,0.019 0.446428,0 0.07529,-0.038 0.10853,-0.1319 0.178572,-0.1786 0.02476,-0.017 0.06105,0.01 0.08929,0 0.06313,-0.021 0.114009,-0.073 0.178572,-0.089 0.08662,-0.022 0.181237,0.022 0.267857,0 0.0913,-0.023 0.176552,-0.067 0.267857,-0.089 0.02887,-0.01 0.06105,0.01 0.08929,0 0.06313,-0.021 0.115437,-0.068 0.178571,-0.089 0.05199,-0.017 0.47428,0 0.535715,0 0.02976,0 0.06105,0.01 0.08929,0 0.323687,-0.1079 0.06355,-0.042 0.267857,-0.1786 0.05537,-0.037 0.119048,-0.059 0.178572,-0.089 0.05952,-0.03 0.114009,-0.073 0.178571,-0.089 0.05775,-0.014 0.122103,0.019 0.178572,0 0.03993,-0.013 0.05952,-0.06 0.08929,-0.089 0.05952,-0.06 0.119048,-0.1191 0.178572,-0.1786 0.07016,-0.07 0.417992,-0.3896 0.446428,-0.4464 0.01331,-0.027 -0.01331,-0.063 0,-0.089 0.01882,-0.038 0.07046,-0.052 0.08929,-0.089 0.04209,-0.084 0.0472,-0.1837 0.08929,-0.2679 0.03765,-0.075 0.128064,-0.1112 0.178571,-0.1785 0.195081,-0.2601 0.178572,-0.1696 0.178572,-0.3572 0,-0.03 -0.01331,-0.063 0,-0.089 0.04799,-0.096 0.114186,-0.182 0.178571,-0.2678 0.02525,-0.034 0.07046,-0.052 0.08929,-0.089 0.01331,-0.027 0,-0.059 0,-0.089 0,-0.089 -0.02165,-0.1812 0,-0.2678 0.01021,-0.041 0.07908,-0.048 0.08929,-0.089 0.02166,-0.087 0,-0.1786 0,-0.2679 0,-0.059 0,-0.119 0,-0.1786 0,-0.3273 0,-0.6547 0,-0.9821 0,-0.6845 0,-1.3691 0,-2.0536 0,-0.17855 0,-0.35712 0,-0.53569 0,-0.0893 0.02166,-0.18124 0,-0.26786 -0.0484,-0.1936 -0.219459,-0.25283 -0.267858,-0.44643 -0.01444,-0.0577 0.01882,-0.1221 0,-0.17857 -0.02662,-0.0799 -0.140925,-0.10328 -0.178571,-0.17857 -0.01331,-0.0266 0.01331,-0.0627 0,-0.0893 -0.100959,-0.20192 -0.142293,-0.23158 -0.267857,-0.35715 -0.02976,-0.0298 -0.06594,-0.0543 -0.08929,-0.0893 -0.03692,-0.0554 -0.05237,-0.1232 -0.08929,-0.17857 -0.04675,-0.07 -0.119104,-0.11905 -0.178628,-0.17857 -0.08929,-0.0893 -0.178571,-0.17857 -0.267857,-0.26786 -0.02976,-0.0298 -0.06403,-0.0556 -0.08929,-0.0893 -0.04185,-0.0558 -0.165475,-0.28888 -0.267857,-0.35714 -0.05537,-0.0369 -0.123199,-0.0524 -0.178571,-0.0893 -0.267858,-0.17858 0.178571,0 -0.267858,-0.26786 -0.0807,-0.0484 -0.183677,-0.0472 -0.267857,-0.0893 -0.354384,-0.17719 0.394614,-0.0282 -0.357143,-0.17857 -0.05837,-0.0117 -0.123304,0.0221 -0.178571,0 -0.09963,-0.0399 -0.171878,-0.13058 -0.267857,-0.17857 -0.115957,-0.19722 -0.305526,-0.0329 -0.446429,-0.0893 -0.09963,-0.0399 -0.166055,-0.14463 -0.267857,-0.17857 -0.0847,-0.0282 -0.179786,0.0147 -0.267857,0 -0.09284,-0.0155 -0.178571,-0.0595 -0.267857,-0.0893 -0.08929,-0.0298 -0.178572,-0.0595 -0.267857,-0.0893 -0.08929,-0.0298 -0.17557,-0.0708 -0.267857,-0.0893 -0.05837,-0.0117 -0.119048,0 -0.178572,0 -0.119047,0 -0.238095,0 -0.357143,0 -0.327381,0 -0.654762,0 -0.982143,0 -0.47619,0 -0.95238,0 -1.428571,0 -0.08741,0 -0.543192,-0.0164 -0.625,0 -0.06526,0.013 -0.116782,0.0646 -0.178571,0.0893 -0.08738,0.0349 -0.178572,0.0595 -0.267858,0.0893 -0.08929,0.0298 -0.174687,0.076 -0.267857,0.0893 -0.3113,0.0445 -0.35485,-0.0728 -0.625,0.0893 -0.07218,0.0433 -0.101198,0.14541 -0.178571,0.17857 -0.139486,0.0598 -0.299203,0.0525 -0.446429,0.0893 -0.0913,0.0228 -0.178571,0.0595 -0.267857,0.0893 -0.08929,0.0298 -0.181351,0.0522 -0.267857,0.0893 -0.30567,-0.13715 -0.291209,0.19025 -0.446429,0.26785 -0.08418,0.0421 -0.186142,0.0426 -0.267857,0.0893 -0.263723,-0.0208 -0.287865,0.25143 -0.446428,0.35714 -0.110746,0.0738 -0.25321,0.0954 -0.357143,0.17857 -0.0986,0.0789 -0.169258,0.18898 -0.267857,0.26786 -0.05197,0.0416 -0.123199,0.0524 -0.178572,0.0893 -0.03502,0.0233 -0.05952,0.0595 -0.08929,0.0893 -0.05952,0.0595 -0.128064,0.11123 -0.178572,0.17858 -0.41108,0.5481 0.174727,-0.17089 -0.08929,0.35714 -0.03765,0.0753 -0.131877,0.10853 -0.178571,0.17857 -0.01651,0.0248 0.0094,0.0611 0,0.0893 -0.04209,0.12627 -0.152468,0.22663 -0.178571,0.35714 0,0.50777 0.03993,0.0588 -0.08929,0.44643 -0.0094,0.0282 0,0.0595 0,0.0893 0,0.11905 0.01957,0.23972 0,0.35714 -0.178069,1.06842 0.02443,0.0404 -0.178572,0.44642 -0.01331,0.027 0,0.06 0,0.089 0,0.06 0,0.119 0,0.1786 0,0.1785 0,0.3571 0,0.5357 0,0.2678 0,0.5357 0,0.8036 0,0.089 -0.02823,0.1831 0,0.2678 0.01331,0.04 0.07046,0.052 0.08929,0.089 0.01331,0.027 0,0.06 0,0.089 0,0.059 -0.01444,0.1208 0,0.1786 0.01614,0.064 0.07315,0.114 0.08929,0.1785 0.02101,0.084 -0.02101,0.1838 0,0.2679 0.02283,0.091 0.06646,0.1765 0.08929,0.2678 0.01648,0.066 0,0.3828 0,0.4465 0,0.03 -0.01651,0.064 0,0.089 0.04669,0.07 0.147308,0.1004 0.178571,0.1785 0.03316,0.083 -0.02166,0.1813 0,0.2679 0.01021,0.041 0.07046,0.052 0.08929,0.089 0.01331,0.027 -0.0094,0.061 0,0.089 0.02105,0.063 0.06824,0.1154 0.08929,0.1785 0.07515,0.2255 -0.181346,-0.093 0.08929,0.2679 0.05051,0.067 0.131877,0.1085 0.178572,0.1786 0.03302,0.049 -0.02662,0.1253 0,0.1785 0.03765,0.075 0.140925,0.1033 0.178571,0.1786 0.02662,0.053 -0.02662,0.1253 0,0.1786 0.01882,0.038 0.05952,0.059 0.08929,0.089 0.05952,0.059 0.119047,0.119 0.178571,0.1785 0.02976,0.03 0.05952,0.06 0.08929,0.089 0.02976,0.03 0.04936,0.076 0.08929,0.089 0.05079,0.017 0.362336,0 0.446428,0 0.07299,0 0.579747,-0.015 0.625,0 0.330992,0.1103 -0.108835,0.089 0.178572,0.089 0.119047,0 0.238095,0 0.357142,0 0.02976,0 0.05952,0 0.08929,0 0.02976,0 0.08929,-0.03 0.08929,0 0,0.03 -0.05952,0 -0.08929,0"
       id="path3448"
       inkscape:connector-curvature="0" />
    <path
       style="fill:none;fill-rule:evenodd;stroke:#000000;stroke-width:1px;stroke-linecap:butt;stroke-linejoin:miter;stroke-opacity:1"
       d="m 17.5,999.50502 c 0.78145,0 0.199307,-0.10523 0.625,0.17857 0.02476,0.0165 0.06267,-0.0133 0.08929,0 0.03765,0.0188 0.05164,0.0705 0.08929,0.0893 0.02662,0.0133 0.05952,0 0.08929,0 0.02976,0 0.05952,0 0.08929,0 0.02976,0 0.08929,0.0298 0.08929,0 0,-0.16201 -0.473895,-0.0584 -0.535715,-0.0893 -0.03765,-0.0188 -0.05426,-0.0659 -0.08929,-0.0893 -0.05537,-0.0369 -0.141657,-0.0339 -0.178572,-0.0893 -0.178571,-0.26786 0.08929,-0.0893 0,-0.26786 -0.03765,-0.0753 -0.151951,-0.0987 -0.178571,-0.17857 -0.01882,-0.0565 0,-0.11905 0,-0.17857 0,-0.0298 -0.01331,-0.0627 0,-0.0893 0.01882,-0.0377 0.05164,-0.0705 0.08929,-0.0893 0.09963,-0.0498 0.439623,0.11451 0.535715,0.17857 0.03502,0.0234 0.05426,0.0659 0.08929,0.0893 0.05537,0.0369 0.123199,0.0524 0.178572,0.0893 0.03502,0.0234 0.05952,0.0595 0.08929,0.0893 0.02976,0.0298 0.07046,0.0516 0.08929,0.0893 0.01331,0.0266 0,0.0595 0,0.0893 0,0.0298 0,0.0595 0,0.0893 0,0.0595 0,0.11905 0,0.17857 0,0.0298 0.01331,0.0627 0,0.0893 -0.01882,0.0376 -0.05952,0.0595 -0.08929,0.0893 -0.02976,0.0298 -0.05164,0.0705 -0.08929,0.0893 -0.02662,0.0133 -0.06267,-0.0133 -0.08929,0 -0.03765,0.0188 -0.04936,0.076 -0.08929,0.0893 -0.048,0.016 -0.281549,0 -0.357142,0 -0.119048,0 -0.238096,0 -0.357143,0 -0.02976,0 -0.05952,0 -0.08929,0 -0.02976,0 -0.08929,0.0298 -0.08929,0 0,-0.0421 0.05952,-0.0595 0.08929,-0.0893"
       id="path3450"
       inkscape:connector-curvature="0" />
    <path
       style="fill:none;fill-rule:evenodd;stroke:#000000;stroke-width:1px;stroke-linecap:butt;stroke-linejoin:miter;stroke-opacity:1"
       d="m 22.142857,999.50502 c -0.0965,0.38601 -0.08929,0.23443 -0.08929,0.44643 0,0.0212 -0.01001,0.33715 0,0.35715 0.01882,0.038 0.07046,0.052 0.08929,0.089 0.04209,0.084 0.0472,0.1837 0.08929,0.2678 0.01882,0.038 0.05952,0.06 0.08929,0.089 0.02976,0.03 0.05164,0.071 0.08929,0.089 0.02715,0.014 0.295489,0 0.357143,0 0.07559,0 0.309143,0.016 0.357143,0 0.03993,-0.013 0.05952,-0.059 0.08929,-0.089 0.02976,-0.03 0.07046,-0.052 0.08929,-0.089 0.01331,-0.027 -0.01331,-0.063 0,-0.089 0.01882,-0.038 0.07598,-0.049 0.08929,-0.089 0.01882,-0.057 -0.01444,-0.1209 0,-0.1786 0.01614,-0.065 0.06824,-0.1155 0.08929,-0.1786 0.0094,-0.028 -0.01651,-0.064 0,-0.089 0.04669,-0.07 0.131877,-0.10851 0.178571,-0.17855 0.01651,-0.0248 0,-0.0595 0,-0.0893 0,-0.0756 0.016,-0.30914 0,-0.35714 -0.01331,-0.0399 -0.05952,-0.0595 -0.08929,-0.0893 -0.02976,-0.0298 -0.04936,-0.076 -0.08929,-0.0893 -0.04338,-0.0145 -0.533844,0 -0.625,0 -0.04021,0 -0.240685,-0.0136 -0.267857,0 -0.155219,0.0776 -0.297619,0.17857 -0.446429,0.26785 z"
       id="path3452"
       inkscape:connector-curvature="0" />
    <path
       style="fill:none;fill-rule:evenodd;stroke:#000000;stroke-width:1px;stroke-linecap:butt;stroke-linejoin:miter;stroke-opacity:1"
       d="m 19.821429,1001.8264 c -0.02976,0.1489 -0.08929,0.2947 -0.08929,0.4465 0,0.042 0.05164,0.07 0.08929,0.089 0.02369,0.012 0.608034,0.01 0.625,0 0.03993,-0.013 0.08929,-0.047 0.08929,-0.089 0,-0.2953 -0.208832,-0.1292 -0.357143,-0.1786 -0.03993,-0.013 -0.05561,-0.064 -0.08929,-0.089 -0.08585,-0.064 -0.178572,-0.119 -0.267857,-0.1786 z"
       id="path3454"
       inkscape:connector-curvature="0" />
    <path
       style="fill:none;fill-rule:evenodd;stroke:#000000;stroke-width:1px;stroke-linecap:butt;stroke-linejoin:miter;stroke-opacity:1"
       d="m 16.875,1003.7014 c 0.253986,0.021 0.271325,0.3297 0.446429,0.4465 0.05537,0.037 0.123198,0.052 0.178571,0.089 0.07004,0.047 0.119048,0.119 0.178571,0.1785 0.04701,0.047 0.220172,0.244 0.267858,0.2679 0.02662,0.013 0.06267,-0.013 0.08929,0 0.03765,0.019 0.04936,0.076 0.08929,0.089 0.05647,0.019 0.125332,-0.027 0.178571,0 0.07529,0.038 0.10853,0.1319 0.178572,0.1786 0.02476,0.016 0.05952,0 0.08929,0 0.0353,0 0.408296,0.019 0.446428,0 0.03765,-0.019 0.05164,-0.071 0.08929,-0.089 0.09458,-0.047 0.08399,0.047 0.178571,0 0.03765,-0.019 0.05427,-0.066 0.08929,-0.089 0.05537,-0.037 0.131514,-0.042 0.178571,-0.089 0.02104,-0.021 -0.01331,-0.063 0,-0.089 0.03765,-0.075 0.140926,-0.1033 0.178572,-0.1786 0.01331,-0.027 -0.0094,-0.061 0,-0.089 0.02105,-0.063 0.06824,-0.1154 0.08929,-0.1785 0.0094,-0.028 -0.01331,-0.063 0,-0.089 0.01882,-0.038 0.05952,-0.06 0.08929,-0.089 0.02976,-0.03 0.05952,-0.1191 0.08929,-0.089 0.02976,0.03 -0.08929,0.047 -0.08929,0.089 0,0.03 0.06824,-0.021 0.08929,0 0.02105,0.021 -0.01651,0.065 0,0.089 0.04669,0.07 0.140925,0.1033 0.178571,0.1785 0.02662,0.053 -0.01882,0.1221 0,0.1786 0.01331,0.04 0.07046,0.052 0.08929,0.089 0.01331,0.027 0,0.059 0,0.089 0.02976,0.03 0.06594,0.054 0.08929,0.089 0.196711,0.045 0.0472,0.1837 0.08929,0.2678 0.02384,0.048 0.220851,0.2209 0.267857,0.2679 0.05952,0.06 0.119047,0.119 0.178571,0.1786 0.02976,0.03 0.05164,0.07 0.08929,0.089 0.05324,0.027 0.125332,-0.027 0.178571,0 0.03765,0.019 0.04936,0.076 0.08929,0.089 0.048,0.016 0.281549,0 0.357143,0 0.238095,0 0.47619,0 0.714286,0 0.06278,0 0.509388,0.018 0.535714,0 0.07004,-0.047 0.111228,-0.128 0.178571,-0.1785 0.05324,-0.04 0.123199,-0.052 0.178572,-0.089 0.03502,-0.023 0.05426,-0.066 0.08929,-0.089 0.05537,-0.037 0.131514,-0.042 0.178572,-0.089 0.158545,-0.1585 0.05079,-0.2031 0.08929,-0.3571 0.0684,-0.2736 0.03803,-0.2166 0.178571,-0.3572"
       id="path3456"
       inkscape:connector-curvature="0" />
    <path
       style="fill:none;fill-rule:evenodd;stroke:#000000;stroke-width:1px;stroke-linecap:butt;stroke-linejoin:miter;stroke-opacity:1"
       d="m 22.589286,999.77287 c 0.2301,-0.12153 0.388837,0.28373 0.535714,0.35713 0.02662,0.013 0.08929,-0.03 0.08929,0 0,0.03 -0.06824,-0.021 -0.08929,0 -0.02105,0.021 0,0.059 0,0.089"
       id="path3458"
       inkscape:connector-curvature="0" />
    <path
       style="fill:none;fill-rule:evenodd;stroke:#000000;stroke-width:1px;stroke-linecap:butt;stroke-linejoin:miter;stroke-opacity:1"
       d="m 12.946429,999.32645 c -0.202354,-0.33726 -0.274764,-0.38477 -0.357143,-0.71429 -0.0072,-0.0289 0.0094,-0.0611 0,-0.0893 -0.02104,-0.0631 -0.04936,-0.12533 -0.08929,-0.17857 -0.210858,-0.28114 -0.190259,-0.0584 -0.267857,-0.44643 -0.01167,-0.0584 0.01167,-0.1202 0,-0.17857 -0.01846,-0.0923 -0.07083,-0.17557 -0.08929,-0.26785 -0.02335,-0.11674 0.0327,-0.24268 0,-0.35715 -0.05952,-0.14881 -0.119047,-0.29762 -0.178571,-0.44643 0,-0.0595 0.01444,-0.12082 0,-0.17857 -0.01614,-0.0646 -0.07834,-0.11292 -0.08929,-0.17857 -0.01957,-0.11743 0.01957,-0.23971 0,-0.35714 -0.01094,-0.0657 -0.07835,-0.11293 -0.08929,-0.17857 -0.01957,-0.11743 0,-0.2381 0,-0.35715 0,-0.0595 0.01167,-0.1202 0,-0.17857 -0.01846,-0.0923 -0.06646,-0.17655 -0.08929,-0.26785 -0.0072,-0.0289 0,-0.0595 0,-0.0893 0,-0.11905 0,-0.2381 0,-0.35714 0,-0.14881 0,-0.29762 0,-0.44643 0,-0.625 0,-1.25 0,-1.875 0,-0.0893 -0.03517,-0.18579 0,-0.26786 0.05862,-0.13678 0.191295,-0.22954 0.267857,-0.35714 0.01531,-0.0255 -0.0094,-0.0611 0,-0.0893 0.02105,-0.0631 0.07315,-0.11401 0.08929,-0.17857 0.01444,-0.0578 0,-0.11905 0,-0.17857 0,-0.0298 -0.01331,-0.0627 0,-0.0893 0.03765,-0.0753 0.151952,-0.0987 0.178572,-0.17857 0.11033,-0.33099 -0.120105,-0.0585 0.08929,-0.26786 0.02976,-0.0298 0.0472,-0.0893 0.08929,-0.0893 0.04209,0 0.05952,0.0595 0.08929,0.0893 0.02976,0.0298 0.07046,0.0516 0.08929,0.0893 0.01331,0.0266 -0.01786,0.0655 0,0.0893 0.07576,0.10101 0.192095,0.16684 0.267857,0.26785 0.01786,0.0238 0,0.0595 0,0.0893 0,0.11905 -0.02335,0.24041 0,0.35714 0.01305,0.0653 0.07314,0.11401 0.08929,0.17857 0.01444,0.0577 -0.01444,0.12083 0,0.17858 0.01614,0.0646 0.06824,0.11543 0.08929,0.17857 0.0094,0.0282 0,0.0595 0,0.0893 0,0.17601 -0.02662,0.20261 0.08929,0.35715 0.05051,0.0673 0.131877,0.10853 0.178571,0.17857 0.01651,0.0248 0,0.0595 0,0.0893 0,0.0595 -0.01882,0.12211 0,0.17857 0.01331,0.0399 0.07598,0.0494 0.08929,0.0893 0.03765,0.11294 -0.03765,0.24421 0,0.35714 0.01331,0.0399 0.06594,0.0543 0.08929,0.0893 0.03691,0.0554 0.06824,0.11544 0.08929,0.17857 0.01882,0.0565 0,0.11905 0,0.17857 0,0.0893 0,0.17857 0,0.26786 0,0.0298 -0.01651,0.0645 0,0.0893 0.04669,0.07 0.119047,0.11904 0.178571,0.17857 0.02976,0.0298 0.07046,0.0516 0.08929,0.0893 0.01331,0.0266 0,0.0595 0,0.0893 0,0.0595 -0.01882,0.1221 0,0.17857 0.01331,0.0399 0.06594,0.0543 0.08929,0.0893 0.03692,0.0554 0.06824,0.11543 0.08929,0.17857 0.0094,0.0282 -0.01651,0.0645 0,0.0893 0.04669,0.07 0.128064,0.11123 0.178572,0.17858 0.03993,0.0532 0.05952,0.11904 0.08929,0.17857 0.02976,0.0595 0.06824,0.11543 0.08929,0.17857 0.0094,0.0282 0,0.0595 0,0.0893 0.02976,0.0893 0.0472,0.18368 0.08929,0.26786 0.03765,0.0753 0.140925,0.10328 0.178571,0.17857 0.04209,0.0842 0.06646,0.17655 0.08929,0.26786 0.01444,0.0578 -0.02662,0.12533 0,0.17857 0.01882,0.0376 0.05952,0.0595 0.08929,0.0893"
       id="path3460"
       inkscape:connector-curvature="0" />
    <path
       style="fill:none;fill-rule:evenodd;stroke:#000000;stroke-width:1px;stroke-linecap:butt;stroke-linejoin:miter;stroke-opacity:1"
       d="m 25.446429,996.73716 c 0.0585,-0.26529 0.258279,-0.46713 0.357142,-0.71429 0.03495,-0.0874 0.04086,-0.18715 0.08929,-0.26785 0.04331,-0.0722 0.119048,-0.11905 0.178572,-0.17857 0.08929,-0.14881 0.181757,-0.29576 0.267857,-0.44643 0.126779,-0.22187 0.0693,-0.20816 0.267857,-0.44643 0.08084,-0.097 0.188977,-0.16926 0.267857,-0.26786 0.04157,-0.052 0.05952,-0.11905 0.08929,-0.17857 0.05952,-0.11905 0.104741,-0.2464 0.178571,-0.35714 0.04669,-0.07 0.119048,-0.11905 0.178572,-0.17857 0.08929,-0.0893 0.178571,-0.17858 0.267857,-0.26786 0.02976,-0.0298 0.06594,-0.0543 0.08929,-0.0893 0.03692,-0.0554 0.04936,-0.12533 0.08929,-0.17857 0.161686,-0.21558 0.226781,-0.18142 0.446429,-0.35714 0.06573,-0.0526 0.111228,-0.12807 0.178571,-0.17857 0.05952,-0.0298 0.119048,-0.0595 0.178572,-0.0893 0.02976,0 0.06267,0.0133 0.08929,0 0.03765,-0.0188 0.04936,-0.076 0.08929,-0.0893 0.0847,-0.0282 0.178572,0 0.267857,0 0.14881,0 0.297619,0 0.446429,0 0.245823,0 -0.136344,0.009 0.357143,-0.0893 0.05837,-0.0117 0.119047,0 0.178571,0 0.193112,0 0.635931,0.0209 0.803572,0 0.230395,0.0923 0.351138,-0.14166 0.535714,-0.17857 0.14592,-0.0292 0.300509,0.0292 0.446428,0 0.09229,-0.0185 0.176552,-0.0665 0.267858,-0.0893 0.02887,-0.007 0.05952,0 0.08928,0 0.119048,0 0.238095,0 0.357143,0 0.05769,0 0.335862,-0.0213 0.357143,0 0.02976,0.0298 -0.05952,0.0595 -0.08929,0.0893 -0.02976,0.0298 -0.05427,0.0659 -0.08928,0.0893 -0.05537,0.0369 -0.123199,0.0524 -0.178572,0.0893 -0.105062,0.07 -0.169257,0.18898 -0.267857,0.26786 -0.08379,0.067 -0.182011,0.11418 -0.267857,0.17857 -0.03367,0.0253 -0.05642,0.063 -0.08929,0.0893 -0.116201,0.093 -0.240942,0.1749 -0.357143,0.26786 -0.03287,0.0263 -0.05319,0.0676 -0.08929,0.0893 -0.114132,0.0685 -0.246398,0.10474 -0.357143,0.17857 -0.07004,0.0467 -0.119048,0.11905 -0.178572,0.17857 -0.05952,0.0595 -0.119047,0.11905 -0.178571,0.17857 -0.238108,0.2381 -0.476204,0.47619 -0.714299,0.71429 -0.119048,0.11904 -0.225677,0.25197 -0.357143,0.35714 -0.115418,0.0923 -0.265507,0.14568 -0.357143,0.26786 -0.06438,0.0858 -0.123362,0.17584 -0.178571,0.26785 -0.03424,0.0571 -0.04936,0.12534 -0.08929,0.17858 -0.07576,0.10101 -0.197815,0.16279 -0.267857,0.26785 -0.415462,0.6232 0.396192,-0.43897 -0.267857,0.44643 -0.02525,0.0337 -0.07046,0.0516 -0.08929,0.0893 -0.145199,0.29039 -0.02254,0.21238 -0.178571,0.44643 -0.02335,0.035 -0.05952,0.0595 -0.08929,0.0893 -0.02976,0.0595 -0.05237,0.1232 -0.08929,0.17857 -0.02335,0.035 -0.07046,0.0516 -0.08929,0.0893 -0.01331,0.0266 0.0072,0.0604 0,0.0893 -0.02283,0.0913 -0.06646,0.17655 -0.08929,0.26785 -0.0072,0.0289 0,0.0595 0,0.0893 0,0.0893 0,0.17857 0,0.26786 0,0.17857 0,0.35714 0,0.53571"
       id="path3462"
       inkscape:connector-curvature="0" />
    <path
       style="fill:none;fill-rule:evenodd;stroke:#000000;stroke-width:1px;stroke-linecap:butt;stroke-linejoin:miter;stroke-opacity:1"
       d="m 45.089286,1024.4157 c 0.415894,-0.3386 0.427738,0.2585 0.625,0.3572 0.02662,0.013 0.06105,-0.01 0.08929,0 0.06313,0.021 0.116781,0.064 0.178571,0.089 0.08738,0.035 0.183678,0.047 0.267857,0.089 0.155219,0.078 0.29121,0.1902 0.446429,0.2678 0.02662,0.013 0.05952,0 0.08928,0 0.05952,0 0.120825,-0.014 0.178572,0 0.06456,0.016 0.113314,0.076 0.178571,0.089 0.08755,0.017 0.179469,-0.013 0.267857,0 0.121479,0.017 0.236101,0.069 0.357143,0.089 0.05871,0.01 0.119048,0 0.178572,0 0.08928,0 0.178571,0 0.267857,0 0.08929,0 0.179786,-0.015 0.267857,0 0.09284,0.015 0.176552,0.066 0.267857,0.089 0.05775,0.014 0.119048,0 0.178572,0 0.238095,0 0.47619,0 0.714285,0 0.565476,0 1.130953,0 1.696429,0 0.446428,0 0.892857,0 1.339286,0 0.268495,0 0.662651,0.049 0.892857,-0.089 0.144366,-0.087 0.222456,-0.2561 0.357143,-0.3572 0.05324,-0.04 0.125331,-0.049 0.178571,-0.089 0.06734,-0.051 0.10853,-0.1319 0.178571,-0.1786 0.110746,-0.074 0.243012,-0.1101 0.357143,-0.1786 0.07218,-0.043 0.119048,-0.119 0.178572,-0.1786 0.05953,-0.06 0.119048,-0.119 0.178572,-0.1785 0.02976,-0.03 0.06594,-0.054 0.08929,-0.089 0.03692,-0.055 0.05237,-0.1232 0.08929,-0.1786 0.02335,-0.035 0.06763,-0.053 0.08928,-0.089 0.05952,-0.119 0.119048,-0.2381 0.178572,-0.3571 0,-0.06 -0.02211,-0.1233 0,-0.1786 0.03985,-0.1 0.130582,-0.1719 0.178571,-0.2679 0.04209,-0.084 0.05221,-0.1813 0.08929,-0.2678 0.05243,-0.1224 0.126141,-0.2348 0.178571,-0.3572 0.03707,-0.087 0.05952,-0.1785 0.08929,-0.2678 0.02976,-0.089 0.06343,-0.1774 0.08929,-0.2679 0.03371,-0.118 0.07193,-0.2356 0.08928,-0.3571 0.01263,-0.088 -0.02823,-0.1832 0,-0.2679 0.03393,-0.1018 0.130582,-0.1719 0.178572,-0.2678 0.08309,-0.1662 0.158195,-0.5717 0.178571,-0.7143 0.0084,-0.059 -0.01167,-0.1202 0,-0.1786 0.01846,-0.092 0.07381,-0.175 0.08929,-0.2678 0.01468,-0.088 0,-0.1786 0,-0.2679 0,-0.3556 0,-0.1802 0,-0.5357 0,-0.4762 0,-0.9524 0,-1.4286 0,-0.5655 0,-1.1309 0,-1.6964 0,-0.1488 0,-0.2976 0,-0.4464 0,-0.06 0.01167,-0.1203 0,-0.1786 -0.01846,-0.092 -0.07381,-0.175 -0.08929,-0.2679 -0.01468,-0.088 0.02453,-0.182 0,-0.2678 -0.03656,-0.128 -0.142006,-0.2292 -0.178571,-0.3572 -0.02453,-0.086 0,-0.1785 0,-0.2678 0,-0.3556 0,-0.1802 0,-0.5357 0,-0.2381 0,-0.4762 0,-0.7143 0,-0.06 -0.01444,-0.1209 0,-0.1786 0.01614,-0.065 0.05952,-0.1191 0.08929,-0.1786 0.02976,-0.06 0.05952,-0.119 0.08928,-0.1785 0.139724,-0.2795 0.318049,-0.4967 0.535715,-0.7143 0.08928,-0.089 0.178571,-0.1786 0.267857,-0.2679 0.02976,-0.03 0.05427,-0.066 0.08928,-0.089 0.05537,-0.037 0.119048,-0.06 0.178572,-0.089 0.05952,-0.03 0.115437,-0.068 0.178571,-0.089 0.116415,-0.039 0.243208,-0.044 0.357143,-0.089 0.03908,-0.016 0.05952,-0.059 0.08929,-0.089 0.09076,-0.091 0.123712,-0.1426 0.267857,-0.1786 0.08403,-0.021 0.183824,0.021 0.267857,0 0.116159,-0.029 0.335588,-0.1047 0.446429,-0.1786 0.03502,-0.023 0.05164,-0.07 0.08928,-0.089 0.05315,-0.027 0.54953,0.019 0.625,0 0.04083,-0.01 0.05164,-0.07 0.08929,-0.089 0.01308,-0.01 0.332906,-0.01 0.357143,0 0.06314,0.021 0.116782,0.065 0.178571,0.089 0.181499,0.073 0.289386,0.074 0.446429,0.1786 0.03502,0.023 0.05164,0.071 0.08929,0.089 0.219906,0.1099 -0.0806,-0.2592 0.267857,0.089 0.02105,0.021 -0.01331,0.063 0,0.089 0.03765,0.075 0.140925,0.1032 0.178571,0.1785 0.04209,0.084 0.0472,0.1837 0.08929,0.2679 0.03765,0.075 0.151952,0.099 0.178571,0.1786 0.01882,0.056 -0.01882,0.1221 0,0.1785 0.03401,0.1021 0.204082,0.077 0,0.1786 -0.02717,0.014 -0.227646,0 -0.267857,0 -0.255226,0 -0.474287,0.031 -0.714285,-0.089 -0.07529,-0.038 -0.10853,-0.1319 -0.178572,-0.1786 -0.451054,-0.3007 -0.0021,-6e-4 -0.267857,-0.089 -0.646734,-0.2156 0.140769,0.026 -0.267857,-0.1786 -0.08069,-0.04 -0.230703,0.077 -0.267857,0.089 -0.0847,0.028 -0.181238,-0.022 -0.267857,0 -0.161602,-0.054 -0.166056,0.1446 -0.267858,0.1785 -0.05647,0.019 -0.123305,-0.022 -0.178571,0 -0.221129,-0.049 -0.224044,0.2014 -0.357143,0.2679 -0.02662,0.013 -0.06267,-0.013 -0.08929,0 -0.03765,0.019 -0.05164,0.071 -0.08928,0.089 -0.02662,0.013 -0.06267,-0.013 -0.08929,0 -0.03765,0.019 -0.04936,0.076 -0.08929,0.089 -0.05647,0.019 -0.122102,-0.019 -0.178571,0 -0.03993,0.013 -0.05952,0.06 -0.08929,0.089 -0.02976,0.03 -0.05952,0.06 -0.08929,0.089 -0.08928,0.089 -0.178571,0.1785 -0.267857,0.2678 -0.02976,0.03 -0.06594,0.054 -0.08928,0.089 -0.03692,0.055 -0.05952,0.1191 -0.08929,0.1786 -0.02976,0.06 -0.06824,0.1154 -0.08929,0.1786 -0.01868,0.056 0,0.2852 0,0.3571 0,0.2083 0,0.4167 0,0.625 0,0.2381 0,0.4762 0,0.7143 0,0.06 0,0.119 0,0.1786 0,0.059 -0.01882,0.1221 0,0.1785 0.02662,0.08 0.140925,0.1033 0.178572,0.1786 0.03571,0.071 -0.03572,0.1964 0,0.2679 0.01882,0.038 0.07597,0.049 0.08928,0.089 0.01882,0.056 0,0.1191 0,0.1786 0.02976,0.059 0.06824,0.1155 0.08929,0.1786 0.03162,0.095 -0.03162,0.2623 0,0.3571 0.02105,0.063 0.07314,0.114 0.08929,0.1786 0.01444,0.058 0,0.119 0,0.1786 0,0.1785 0,0.3571 0,0.5357 0,0.4762 0,0.9524 0,1.4286 0,0.5654 0,1.1309 0,1.6964 0,0.2083 0,0.4167 0,0.625 0,0.06 0.01167,0.1202 0,0.1786 -0.01846,0.092 -0.05952,0.1785 -0.08929,0.2678 -0.02976,0.089 -0.0472,0.1837 -0.08929,0.2679 -0.01882,0.038 -0.07046,0.052 -0.08928,0.089 -0.02563,0.051 0.019,0.3704 0,0.4464 -0.01614,0.065 -0.06824,0.1154 -0.08929,0.1786 -0.02824,0.085 0.01751,0.1803 0,0.2678 -0.03692,0.1846 -0.147627,0.3501 -0.178572,0.5357 -0.08749,0.525 0.120461,0.011 -0.08928,0.5358 0.03159,0.1523 -0.130582,0.1718 -0.178572,0.2678 -0.01331,0.027 0,0.06 0,0.089 0,0.089 0.02166,0.1812 0,0.2678 -0.01021,0.041 -0.07046,0.052 -0.08928,0.089 -0.01331,0.027 0.0094,0.061 0,0.089 -0.02105,0.063 -0.06824,0.1155 -0.08929,0.1786 -0.0094,0.028 0.0094,0.061 0,0.089 -0.02105,0.063 -0.05952,0.119 -0.08929,0.1785 -0.02976,0.06 -0.05237,0.1232 -0.08929,0.1786 -0.168547,0.2528 -0.05731,-0.1692 -0.267857,0.3572 -0.02211,0.055 0.01882,0.1221 0,0.1785 -0.01359,0.041 -0.227646,0.2277 -0.267857,0.2679 -0.119047,0.119 -0.238095,0.2381 -0.357143,0.3571 -0.05952,0.06 -0.119047,0.1191 -0.178571,0.1786 -0.02976,0.03 -0.05427,0.066 -0.08929,0.089 -0.05537,0.037 -0.119047,0.059 -0.178571,0.089 -0.119048,0.06 -0.238096,0.119 -0.357143,0.1785 -0.05952,0.03 -0.131514,0.042 -0.178572,0.089 -0.04706,0.047 -0.05237,0.1232 -0.08928,0.1786 -0.03658,0.055 -0.340823,0.3473 -0.357143,0.3571 -0.725994,0.4356 0.09563,-0.1828 -0.446429,0.1786 -0.116688,0.078 -0.239423,0.2689 -0.357143,0.3572 0.01691,0.4612 -0.246397,0.1047 -0.357142,0.1785 -0.07004,0.047 -0.119048,0.1191 -0.178572,0.1786 -0.02976,0.03 -0.04936,0.076 -0.08929,0.089 -0.05647,0.019 -0.119047,0 -0.178571,0 -0.02976,0 -0.06267,-0.013 -0.08929,0 -0.03765,0.019 -0.05164,0.07 -0.08928,0.089 -0.02662,0.013 -0.05952,0 -0.08929,0 -0.05952,0 -0.119048,0 -0.178572,0 -0.238095,0 -0.47619,0 -0.714285,0 -0.416667,0 -0.833334,0 -1.25,0 -0.08819,0 -0.411229,0.018 -0.446429,0 -0.09598,-0.048 -0.171878,-0.1306 -0.267857,-0.1786 -0.05324,-0.027 -0.125332,0.027 -0.178571,0 -0.03765,-0.019 -0.04845,-0.079 -0.08929,-0.089 -0.08286,-0.021 -0.66516,0.025 -0.714286,0 -0.03765,-0.019 -0.05164,-0.071 -0.08929,-0.089 -0.02662,-0.013 -0.05952,0 -0.08928,0 -0.05952,0 -0.119048,0 -0.178572,0 -0.208333,0 -0.416666,0 -0.625,0"
       id="path3464"
       inkscape:connector-curvature="0" />
    <path
       style="fill:none;fill-rule:evenodd;stroke:#000000;stroke-width:1px;stroke-linecap:butt;stroke-linejoin:miter;stroke-opacity:1"
       d="m 39.553572,1042.8979 c -0.119048,-0.03 -0.235665,-0.072 -0.357143,-0.089 -0.147314,-0.021 -0.297619,0 -0.446429,0 -0.238095,0 -0.47619,0 -0.714286,0 -0.08819,0 -0.411228,-0.018 -0.446428,0 -0.09598,0.048 -0.171878,0.1306 -0.267857,0.1786 -0.01854,0.01 -0.609517,0 -0.625,0 -0.565477,0 -1.130953,0 -1.696429,0 -0.565476,0 -1.130952,0 -1.696428,0 -0.238096,0 -0.476191,0 -0.714286,0 -0.08929,0 -0.180305,-0.017 -0.267857,0 -0.06526,0.013 -0.115437,0.068 -0.178572,0.089 -0.02823,0.01 -0.05952,0 -0.08928,0 -0.08929,0 -0.180306,-0.018 -0.267858,0 -0.06526,0.013 -0.113314,0.076 -0.178571,0.089 -0.09677,0.019 -0.343105,-0.026 -0.446429,0 -0.0913,0.023 -0.175569,0.071 -0.267857,0.089 -0.05837,0.012 -0.119047,0 -0.178571,0 -0.238095,0 -0.476191,0 -0.714286,0 -0.422809,0 0.11781,-0.033 -0.446428,0.1786 -0.142071,0.319 -0.360085,0.045 -0.535715,0.089 -0.0913,0.023 -0.178571,0.06 -0.267857,0.089 -0.08929,0.03 -0.178571,0.06 -0.267857,0.089 -0.08929,0.03 -0.183678,0.047 -0.267857,0.089 -0.03765,0.019 -0.05164,0.071 -0.08929,0.089 -0.08418,0.042 -0.180473,0.054 -0.267857,0.089 -0.06179,0.025 -0.114009,0.073 -0.178571,0.089 -0.05775,0.014 -0.120825,-0.014 -0.178572,0 -0.414514,0.2073 0.05139,0.01 -0.357143,0.089 -0.256489,0.051 -0.224248,0.046 -0.357143,0.1786 -0.02976,0.03 -0.05164,0.07 -0.08929,0.089 -0.08418,0.042 -0.177363,0.063 -0.267858,0.089 -0.11799,0.034 -0.240728,0.05 -0.357142,0.089 -0.06313,0.021 -0.116782,0.065 -0.178572,0.089 -0.08738,0.035 -0.180473,0.054 -0.267857,0.089 -0.06179,0.025 -0.116782,0.065 -0.178571,0.089 -0.08738,0.035 -0.180474,0.054 -0.267858,0.089 -0.06179,0.025 -0.114008,0.073 -0.178571,0.089 -0.05775,0.014 -0.123305,-0.022 -0.178571,0 -0.160028,0.064 -0.273092,0.2246 -0.446429,0.2679 -0.05775,0.014 -0.122102,-0.019 -0.178571,0 -0.03993,0.013 -0.05164,0.071 -0.08929,0.089 -0.02662,0.013 -0.06041,-0.01 -0.08929,0 -0.0913,0.023 -0.176552,0.066 -0.267857,0.089 -0.05775,0.014 -0.125332,-0.027 -0.178571,0 -0.07529,0.038 -0.09871,0.1519 -0.178572,0.1785 -0.05647,0.019 -0.122102,-0.019 -0.178571,0 -0.03993,0.013 -0.04936,0.076 -0.08929,0.089 -0.03487,0.012 -0.267857,-0.05 -0.267857,0.089 0,0.03 0.05952,0 0.08929,0 0.08929,0 0.181237,-0.022 0.267857,0 0.04083,0.01 0.05952,0.06 0.08929,0.089 0.119048,0 0.238096,0 0.357143,0 0.595238,0 1.190477,0 1.785715,0 0.208333,0 0.416666,0 0.625,0 0.08929,0 0.183153,-0.028 0.267857,0 0.07986,0.027 0.103279,0.1409 0.178571,0.1786 0.02662,0.013 0.06041,-0.01 0.08929,0 0.0913,0.023 0.180473,0.054 0.267857,0.089 0.06179,0.025 0.114009,0.073 0.178571,0.089 0.05775,0.014 0.119858,-0.01 0.178572,0 0.121042,0.02 0.235665,0.072 0.357143,0.089 0.104166,0.015 0.555555,-0.02 0.625,0 0.103179,0.029 0.168224,0.1388 0.267857,0.1786 0.05527,0.022 0.119048,0 0.178571,0 0.14881,0 0.297619,0 0.446429,0 0.47619,0 0.952381,0 1.428571,0 0.297619,0 0.595238,0 0.892858,0 0.08929,0 0.180305,0.017 0.267857,0 0.06526,-0.013 0.114582,-0.071 0.178571,-0.089 0.188743,-0.2062 0.418638,-0.048 0.625,-0.089 0.09229,-0.018 0.176552,-0.066 0.267857,-0.089 0.147226,-0.037 0.300511,-0.048 0.446429,-0.089 0.06399,-0.018 0.116781,-0.065 0.178571,-0.089 0.08738,-0.035 0.177363,-0.063 0.267857,-0.089 0.11799,-0.034 0.236101,-0.069 0.357143,-0.089 0.05871,-0.01 0.122838,0.021 0.178572,0 0.186937,-0.07 0.348777,-0.1977 0.535714,-0.2678 0.05573,-0.021 0.119857,0.01 0.178571,0 0.230396,0.092 0.351139,-0.1417 0.535715,-0.1786 0.145919,-0.029 0.300508,0.029 0.446428,0 0.09229,-0.019 0.17557,-0.071 0.267857,-0.089 0.05837,-0.012 0.119048,0 0.178572,0 0.02976,0 0.06165,0.011 0.08929,0 0.123579,-0.049 0.233563,-0.1291 0.357142,-0.1786 0.02763,-0.011 0.05952,0 0.08929,0 0.05952,0 0.120825,0.014 0.178572,0 0.06456,-0.016 0.115436,-0.068 0.178571,-0.089 0.02824,-0.01 0.05952,0 0.08929,0 0.119047,0 0.239291,0.017 0.357143,0 0.09317,-0.013 0.175569,-0.071 0.267857,-0.089 0.05837,-0.012 0.120203,0.012 0.178571,0 0.374037,-0.075 0.184557,-0.092 0.535714,-0.2678 0.08418,-0.042 0.187154,-0.041 0.267858,-0.089 0.07218,-0.043 0.106388,-0.1353 0.178571,-0.1786 0.0807,-0.048 0.187154,-0.041 0.267857,-0.089 0.07303,-0.044 0.282971,-0.32 0.357143,-0.3571 0.02662,-0.013 0.06452,0.016 0.08929,0 0.07004,-0.047 0.119047,-0.119 0.178571,-0.1786 0.02976,-0.03 0.07046,-0.052 0.08929,-0.089 0.01331,-0.027 -0.01331,-0.063 0,-0.089 0.03765,-0.075 0.140925,-0.1033 0.178571,-0.1786 0.01331,-0.027 0,-0.059 0,-0.089 0,-0.03 0,-0.06 0,-0.089"
       id="path3466"
       inkscape:connector-curvature="0" />
    <path
       style="fill:none;fill-rule:evenodd;stroke:#000000;stroke-width:1px;stroke-linecap:butt;stroke-linejoin:miter;stroke-opacity:1"
       d="m 21.964286,1044.2372 c -0.268552,-0.1642 -0.525243,-0.043 -0.803572,-0.089 -0.09283,-0.015 -0.175022,-0.074 -0.267857,-0.089 -0.08807,-0.015 -0.178571,0 -0.267857,0 -0.119048,0 -0.238095,0 -0.357143,0 -0.238095,0 -0.47619,0 -0.714286,0 -0.684523,0 -1.369047,0 -2.053571,0 -1.093488,0 0.263523,0.038 -0.625,-0.089 -0.02391,-0 -0.700422,0 -0.714286,0 -0.129125,-0.032 -0.229164,-0.142 -0.357143,-0.1786 -0.08585,-0.024 -0.179468,0.013 -0.267857,0 -0.121478,-0.017 -0.235182,-0.076 -0.357143,-0.089 -0.325378,-0.036 -0.656386,0.033 -0.982142,0 -0.122103,-0.012 -0.235665,-0.072 -0.357143,-0.089 -0.147314,-0.021 -0.297619,0 -0.446429,0 -0.416666,0 -0.833333,0 -1.25,0 -0.208333,0 -0.416666,0 -0.625,0 -0.08929,0 -0.178571,0 -0.267857,0 -0.05952,0 -0.120825,0.014 -0.178571,0 -0.06456,-0.016 -0.114009,-0.073 -0.178572,-0.089 -0.05775,-0.014 -0.119047,0 -0.178571,0 -0.178572,0 -0.357143,0 -0.535715,0 -0.2380948,0 -0.47619,0 -0.7142853,0 -0.073098,0 -0.3885788,-0.019 -0.4464285,0 -0.063135,0.021 -0.1140088,0.073 -0.1785715,0.089 -0.057747,0.014 -0.1190476,0 -0.1785714,0 -0.029762,0 -0.064522,-0.017 -0.089286,0 -0.070042,0.047 -0.1190476,0.119 -0.1785714,0.1785 -0.029762,0.03 -0.05164,0.071 -0.089286,0.089 -0.02662,0.013 -0.059524,0 -0.089286,0 -0.029762,0 -0.059524,0 -0.089286,0 -0.1643099,0 -0.7581941,-0.045 -0.8928571,0.089 -0.04812,0.048 0.5315127,0.3104 0.625,0.3572 0.2380952,0.119 0.4761905,0.238 0.7142857,0.3571 0.059524,0.03 0.1145823,0.071 0.1785714,0.089 0.2206879,0.1868 0.4789972,0.042 0.7142857,0.089 0.065257,0.013 0.1129273,0.078 0.1785715,0.089 0.1174278,0.02 0.2380952,0 0.3571428,0 0.1488101,0 0.2976191,0 0.4464291,0 0.08929,0 0.184957,-0.033 0.267857,0 0.07816,0.031 0.09871,0.1519 0.178571,0.1785 0.112939,0.038 0.239715,-0.02 0.357143,0 0.06564,0.011 0.113314,0.076 0.178571,0.089 0.08755,0.017 0.179261,-0.011 0.267858,0 0.150584,0.019 0.296736,0.064 0.446428,0.089 0.02936,0 0.05952,0 0.08929,0 0.178571,0 0.357143,0 0.535714,0 0.357143,0 0.714286,0 1.071429,0 1.071428,0 2.142857,0 3.214285,0 0.714286,0 1.428572,0 2.142858,0 0.238095,0 0.47619,0 0.714285,0 0.05952,0 0.119048,0 0.178572,0 0.02976,0 0.06267,0.013 0.08929,0 0.09598,-0.048 0.182011,-0.1142 0.267858,-0.1786 0.06734,-0.051 0.103279,-0.1409 0.178571,-0.1785 0.02662,-0.013 0.06267,0.013 0.08929,0 0.03765,-0.019 0.04936,-0.076 0.08929,-0.089 0.05647,-0.019 0.125332,0.027 0.178572,0 0.07529,-0.038 0.10853,-0.1319 0.178571,-0.1786 0.03818,-0.025 0.371944,0.025 0.446429,0 0.06313,-0.021 0.114009,-0.073 0.178571,-0.089 0.357143,-0.089 0.04464,0.045 0.267857,0 0.120329,-0.024 0.236815,-0.065 0.357143,-0.089 0.02918,-0.01 0.05952,0 0.08929,0 0.08929,0 0.181237,0.022 0.267857,0 0.04083,-0.01 0.05164,-0.07 0.08929,-0.089 0.02662,-0.013 0.05952,0 0.08929,0 0.196593,0 0.06452,-0.016 0.357142,0.1786"
       id="path3468"
       inkscape:connector-curvature="0" />
  </g>
</svg>
