<?xml version="1.0" encoding="UTF-8" standalone="no"?>
<!-- Created with Inkscape (http://www.inkscape.org/) -->

<svg
   xmlns:dc="http://purl.org/dc/elements/1.1/"
   xmlns:cc="http://creativecommons.org/ns#"
   xmlns:rdf="http://www.w3.org/1999/02/22-rdf-syntax-ns#"
   xmlns:svg="http://www.w3.org/2000/svg"
   xmlns="http://www.w3.org/2000/svg"
   xmlns:sodipodi="http://sodipodi.sourceforge.net/DTD/sodipodi-0.dtd"
   xmlns:inkscape="http://www.inkscape.org/namespaces/inkscape"
   width="64"
   height="64"
   viewBox="0 0 64.000001 64.000001"
   id="svg2"
   version="1.1"
   inkscape:version="0.91 r13725"
   inkscape:export-filename="/home/oserkin/zwork/DeepLearning/deep_learning_workshop_tasks/commonlearningdata/cartooncats/1_cat_20.png"
   inkscape:export-xdpi="90"
   inkscape:export-ydpi="90"
   sodipodi:docname="1_cat_20.svg">
  <defs
     id="defs4" />
  <sodipodi:namedview
     id="base"
     pagecolor="#ffffff"
     bordercolor="#666666"
     borderopacity="1.0"
     inkscape:pageopacity="0.0"
     inkscape:pageshadow="2"
     inkscape:zoom="11.2"
     inkscape:cx="30.481924"
     inkscape:cy="29.606808"
     inkscape:document-units="px"
     inkscape:current-layer="layer1"
     showgrid="false"
     units="px"
     inkscape:window-width="1855"
     inkscape:window-height="1056"
     inkscape:window-x="1985"
     inkscape:window-y="24"
     inkscape:window-maximized="1" />
  <metadata
     id="metadata7">
    <rdf:RDF>
      <cc:Work
         rdf:about="">
        <dc:format>image/svg+xml</dc:format>
        <dc:type
           rdf:resource="http://purl.org/dc/dcmitype/StillImage" />
        <dc:title></dc:title>
      </cc:Work>
    </rdf:RDF>
  </metadata>
  <g
     inkscape:label="Layer 1"
     inkscape:groupmode="layer"
     id="layer1"
     transform="translate(0,-988.36216)">
    <path
       style="fill:none;fill-rule:evenodd;stroke:#000000;stroke-width:1px;stroke-linecap:butt;stroke-linejoin:miter;stroke-opacity:1"
       d="m 19.910765,1007.4519 c -0.170371,0 -0.01308,0.021 -0.178571,-0.089 -0.110745,-0.074 -0.250664,-0.098 -0.357143,-0.1785 -0.06734,-0.05 -0.119051,-0.1196 -0.178571,-0.1786 -0.02977,-0.03 -0.05953,-0.059 -0.08929,-0.089 -0.02977,-0.03 -0.04936,-0.076 -0.08929,-0.089 -0.09488,-0.032 -0.262263,0.032 -0.357143,0 -0.305303,-0.1017 -0.06644,-0.074 -0.357143,-0.2678 -0.02477,-0.016 -0.05953,0 -0.08929,0 -0.02977,0 -0.05953,0 -0.08929,0 -0.148809,0 -0.297619,0 -0.446429,0 -0.09116,0 -0.58162,-0.014 -0.625,0 -0.03993,0.013 -0.05164,0.07 -0.08929,0.089 -0.02662,0.013 -0.05953,0 -0.08929,0 -0.02977,0 -0.05953,0 -0.08929,0 -0.06004,0 -0.57168,-0.013 -0.625,0 -0.04084,0.01 -0.05164,0.07 -0.08929,0.089 -0.02662,0.013 -0.06267,-0.013 -0.08929,0 -0.03765,0.019 -0.05427,0.066 -0.08929,0.089 -0.05537,0.037 -0.123201,0.052 -0.178571,0.089 -0.03503,0.023 -0.05164,0.07 -0.08929,0.089 -0.02662,0.013 -0.06267,-0.013 -0.08929,0 -0.18823,0.094 -0.139934,0.5164 -0.446428,0.4464 0.05952,0.1488 0.106894,0.3031 0.178571,0.4465 0.04544,0.091 0.195367,0.1423 0.267857,0.1785 0.119048,0.06 0.230874,0.1365 0.357143,0.1786 0.05647,0.019 0.125332,-0.027 0.178572,0 0.03765,0.019 0.04936,0.076 0.08929,0.089 0.386573,0.1289 -0.03282,-0.1707 0.357143,0.089 0.03502,0.023 0.04936,0.076 0.08929,0.089 0.08012,0.056 0.183153,-0.028 0.267857,0 0.06313,0.021 0.114009,0.073 0.178571,0.089 0.09249,0.023 0.254763,0 0.357143,0 0.238096,0 0.476191,0 0.714286,0 0.08636,0 0.509233,0.013 0.535714,0 0.03765,-0.019 0.05164,-0.071 0.08929,-0.089 0.02662,-0.013 0.06267,0.013 0.08929,0 0.03765,-0.019 0.05426,-0.066 0.08929,-0.089 0.05537,-0.037 0.123199,-0.052 0.178572,-0.089 0.03502,-0.023 0.05952,-0.059 0.08929,-0.089 0.05952,-0.059 0.119047,-0.119 0.178571,-0.1786 0.04701,-0.047 0.244014,-0.2201 0.267857,-0.2678 0.01331,-0.027 0,-0.059 0,-0.089 0,-0.03 0,-0.059 0,-0.089"
       id="path4223"
       inkscape:connector-curvature="0" />
    <path
       style="fill:none;fill-rule:evenodd;stroke:#000000;stroke-width:1px;stroke-linecap:butt;stroke-linejoin:miter;stroke-opacity:1"
       d="m 27.589286,1007.63 c 0.394789,-0.1974 0.263027,-0.084 0.446428,-0.2678 0.02976,-0.03 0.05427,-0.066 0.08929,-0.089 0.05537,-0.037 0.123199,-0.052 0.178572,-0.089 0.07004,-0.047 0.103279,-0.1409 0.178571,-0.1786 0.678662,-0.3393 0.05276,-0.013 0.357143,-0.089 0.0913,-0.023 0.176552,-0.066 0.267857,-0.089 0.05775,-0.014 0.119048,0 0.178571,0 0.178572,0 0.357143,0 0.535715,0 0.535714,0 1.071428,0 1.607143,0 0.178571,0 0.357142,0 0.535714,0 0.08929,0 0.181237,-0.022 0.267857,0 0.04083,0.01 0.05164,0.07 0.08929,0.089 0.02662,0.013 0.06452,-0.017 0.08928,0 0.299425,0.1996 0.05911,0.1786 0.267858,0.1786 0.04021,0 0.240684,-0.014 0.267857,0 0.03765,0.019 0.119047,0.06 0.08928,0.089 -0.02976,0.03 -0.05952,-0.059 -0.08928,-0.089"
       id="path4229"
       inkscape:connector-curvature="0" />
    <path
       style="fill:none;fill-rule:evenodd;stroke:#000000;stroke-width:1px;stroke-linecap:butt;stroke-linejoin:miter;stroke-opacity:1"
       d="m 27.410714,1007.8979 c 0.394789,0.1974 0.263028,0.084 0.446429,0.2678 0.02976,0.03 0.05427,0.066 0.08929,0.089 0.05537,0.037 0.125331,0.049 0.178571,0.089 0.06734,0.051 0.111228,0.1281 0.178572,0.1786 0.05324,0.04 0.123198,0.052 0.178571,0.089 0.03502,0.023 0.05427,0.066 0.08929,0.089 0.05952,0.03 0.119047,0.059 0.178571,0.089 0.02976,0 0.06267,-0.013 0.08929,0 0.09598,0.048 0.18201,0.1141 0.267857,0.1785 0.03367,0.025 0.04936,0.076 0.08929,0.089 0.05647,0.019 0.122102,-0.019 0.178571,0 0.03993,0.013 0.05164,0.071 0.08929,0.089 0.02662,0.013 0.06267,-0.013 0.08929,0 0.03765,0.019 0.04936,0.076 0.08929,0.089 0.04087,0.014 0.396593,0 0.446429,0 0.297619,0 0.595238,0 0.892857,0 0.238095,0 0.47619,0 0.714286,0 0.05952,0 0.122102,0.019 0.178571,0 0.06313,-0.021 0.119048,-0.06 0.178572,-0.089 0.05952,-0.03 0.123198,-0.052 0.178571,-0.089 0.0436,-0.029 0.328074,-0.3135 0.357143,-0.3571 0.03692,-0.055 0.05237,-0.1232 0.08929,-0.1786 0.08759,-0.1314 0.269555,-0.2258 0.357142,-0.3571 0.01651,-0.025 0,-0.06 0,-0.089 0,-0.1314 -0.02104,-0.068 0.08929,-0.1786"
       id="path4231"
       inkscape:connector-curvature="0" />
    <path
       style="fill:none;fill-rule:evenodd;stroke:#000000;stroke-width:1px;stroke-linecap:butt;stroke-linejoin:miter;stroke-opacity:1"
       d="m 17.678571,1006.4693 c 0,0.119 -0.01957,0.2397 0,0.3571 0.03597,0.2158 0.08786,0.1318 0.178572,0.2679 0.03692,0.055 0.06824,0.1154 0.08929,0.1786 0.0094,0.028 0,0.059 0,0.089 0,0.059 0,0.119 0,0.1785 0,0.2084 0,0.4167 0,0.625"
       id="path4233"
       inkscape:connector-curvature="0" />
    <path
       style="fill:none;fill-rule:evenodd;stroke:#000000;stroke-width:1px;stroke-linecap:butt;stroke-linejoin:miter;stroke-opacity:1"
       d="m 30.178572,1007.0943 c -0.02976,0.1488 -0.08929,0.2947 -0.08929,0.4464 0,0.042 0.07046,0.052 0.08929,0.089 0.01331,0.027 0,0.059 0,0.089 0,0.081 -0.01656,0.6481 0,0.7143 0.02042,0.082 0.151951,0.099 0.178571,0.1786 0.03765,0.1129 -0.03765,0.2442 0,0.3571 0.01331,0.04 0.07046,0.052 0.08929,0.089 0.01331,0.027 0,0.06 0,0.089 0,0.059 0,0.119 0,0.1786"
       id="path4235"
       inkscape:connector-curvature="0" />
    <path
       style="fill:none;fill-rule:evenodd;stroke:#000000;stroke-width:1px;stroke-linecap:butt;stroke-linejoin:miter;stroke-opacity:1"
       d="m 21.964286,1014.505 c 0.119047,-0.089 0.238095,-0.1786 0.357143,-0.2678 0.02976,0 0.06267,0.013 0.08929,0 0.03765,-0.019 0.04936,-0.076 0.08929,-0.089 0.08036,-0.027 0.1875,0.027 0.267857,0 0.06313,-0.021 0.114009,-0.073 0.178572,-0.089 0.05775,-0.014 0.119047,0 0.178571,0 0.178571,0 0.357143,0 0.535714,0 0.119048,0 0.238096,0 0.357143,0 0.02976,0 0.05952,0 0.08929,0 0.02976,0 0.06267,-0.013 0.08929,0 0.03765,0.019 0.04936,0.076 0.08929,0.089 0.04525,0.015 0.55201,0 0.625,0 0.02976,0 0.06267,-0.013 0.08929,0 0.107143,0.053 0.160714,0.2143 0.267857,0.2678 0.05324,0.027 0.125332,-0.027 0.178572,0 0.03765,0.019 0.05952,0.059 0.08929,0.089"
       id="path4237"
       inkscape:connector-curvature="0" />
    <path
       style="fill:none;fill-rule:evenodd;stroke:#000000;stroke-width:1px;stroke-linecap:butt;stroke-linejoin:miter;stroke-opacity:1"
       d="m 21.339286,1014.8622 c 0.208333,0 0.416666,0 0.625,0 0.02976,0 0.06105,-0.01 0.08929,0 0.06313,0.021 0.115437,0.068 0.178572,0.089 0.02823,0.01 0.06267,-0.013 0.08929,0 0.02371,0.012 0.256004,0.2441 0.267857,0.2678 0.01331,0.027 -0.01651,0.065 0,0.089 0.04669,0.07 0.119047,0.119 0.178571,0.1786 0.119048,0.119 0.238095,0.2381 0.357143,0.3571 0.08929,0.089 0.178571,0.1786 0.267857,0.2679 0.02976,0.03 0.05164,0.07 0.08929,0.089 0.02662,0.013 0.05952,0 0.08929,0 0.05952,0.03 0.123198,0.052 0.178571,0.089 0.03502,0.023 0.04936,0.076 0.08929,0.089 0.05647,0.019 0.122102,-0.019 0.178571,0 0.0531,0.018 0.231351,0.2679 0.267857,0.2679 0.02976,0 0,-0.06 0,-0.089 0,-0.3488 -0.02662,-0.01 0.08929,-0.3571 0.0094,-0.028 -0.01331,-0.063 0,-0.089 0.04799,-0.096 0.123362,-0.1759 0.178571,-0.2679 0.03424,-0.057 0.05237,-0.1232 0.08929,-0.1786 0.02335,-0.035 0.07046,-0.052 0.08929,-0.089 0.01331,-0.027 -0.01331,-0.063 0,-0.089 0.01882,-0.038 0.06594,-0.054 0.08929,-0.089 0.03692,-0.055 0.05237,-0.1232 0.08929,-0.1786 0.04669,-0.07 0.131877,-0.1085 0.178572,-0.1786 0.196711,-0.045 0.0472,-0.1836 0.08929,-0.2678 0.02384,-0.048 0.220852,-0.2209 0.267858,-0.2679"
       id="path4239"
       inkscape:connector-curvature="0" />
    <path
       style="fill:none;fill-rule:evenodd;stroke:#000000;stroke-width:1px;stroke-linecap:butt;stroke-linejoin:miter;stroke-opacity:1"
       d="m 23.035714,1014.3264 c 0.454195,-0.054 0.52614,0.08 0.803572,0.3572 0.05952,0.06 0.10853,0.1319 0.178571,0.1786 0.05537,0.037 0.123199,0.052 0.178572,0.089 0.03502,0.023 0.04936,0.076 0.08929,0.089 0.153318,0.051 0.184101,-0.078 0.267857,0.089 0.01359,0.027 0,0.2277 0,0.2679"
       id="path4241"
       inkscape:connector-curvature="0" />
    <path
       style="fill:none;fill-rule:evenodd;stroke:#000000;stroke-width:1px;stroke-linecap:butt;stroke-linejoin:miter;stroke-opacity:1"
       d="m 23.928571,1014.5943 c -0.122104,0.319 -0.08929,0.6495 -0.08929,0.9821 0,0.03 0,0.06 0,0.089 0,0.03 -0.01331,0.063 0,0.089 0.09871,0.1974 0.05541,0.028 0.178571,0.089 0.04769,0.024 0.220852,0.2209 0.267857,0.2679"
       id="path4243"
       inkscape:connector-curvature="0" />
    <path
       style="fill:none;fill-rule:evenodd;stroke:#000000;stroke-width:1px;stroke-linecap:butt;stroke-linejoin:miter;stroke-opacity:1"
       d="m 23.214286,1015.2193 c -0.02976,-0.119 -0.05952,-0.2381 -0.08929,-0.3571 -0.02976,-0.03 -0.07046,-0.052 -0.08929,-0.089 -0.01331,-0.027 0.01331,-0.063 0,-0.089 -0.01882,-0.038 -0.05952,-0.059 -0.08929,-0.089 -0.02976,-0.03 -0.05952,-0.059 -0.08929,-0.089 -0.02976,-0.03 -0.05952,-0.059 -0.08929,-0.089 -0.02976,-0.03 -0.07046,-0.052 -0.08929,-0.089 -0.01331,-0.027 0,-0.06 0,-0.089 0,-0.03 0,-0.06 0,-0.089"
       id="path4245"
       inkscape:connector-curvature="0" />
    <path
       style="fill:none;fill-rule:evenodd;stroke:#000000;stroke-width:1px;stroke-linecap:butt;stroke-linejoin:miter;stroke-opacity:1"
       d="m 15.535709,1019.7716 c 0.273057,0.2735 -0.164578,-0.1458 0.267857,0.1785 0.06734,0.051 0.106392,0.1356 0.178572,0.1786 0.0807,0.048 0.183677,0.047 0.267857,0.089 0.07529,0.038 0.111231,0.1276 0.178571,0.1786 0.08585,0.064 0.182008,0.1146 0.267858,0.1786 0.03368,0.025 0.05562,0.064 0.08929,0.089 0.08585,0.064 0.178567,0.1196 0.267857,0.1786 0.157218,0.1048 0.274835,0.1989 0.446429,0.2679 0.08738,0.035 0.180475,0.054 0.267825,0.089 0.06179,0.024 0.121502,0.055 0.178572,0.089 0.09202,0.055 0.168227,0.1385 0.267857,0.1785 0.05527,0.022 0.119051,0 0.178571,0 0.119048,0 0.238095,0 0.357143,0 0.14881,0 0.297619,0 0.446429,0 0.08929,0 0.178567,0 0.267857,0 0.02977,0 0.06106,0.01 0.08929,0 0.06314,-0.021 0.113312,-0.076 0.178572,-0.089 0.129187,-0.026 0.406396,0.032 0.535714,0 0.06456,-0.016 0.114012,-0.073 0.178572,-0.089 0.05775,-0.014 0.125331,0.027 0.178571,0 0.581402,-0.2908 -0.177984,-0.089 0.357143,-0.2678 0.116414,-0.038 0.243208,-0.043 0.357143,-0.089 0.03908,-0.015 0.05562,-0.064 0.08929,-0.089 0.08585,-0.064 0.175838,-0.1236 0.267858,-0.1786 0.148243,-0.089 0.337916,-0.1231 0.446428,-0.2678 0.06438,-0.086 0.114192,-0.1819 0.178572,-0.2679 0.02526,-0.033 0.06594,-0.054 0.08929,-0.089 0.07383,-0.1107 0.104742,-0.2464 0.178572,-0.3571 0.02335,-0.035 0.06594,-0.054 0.08929,-0.089 0.03692,-0.055 0.04223,-0.1316 0.08929,-0.1786 0.07588,-0.076 0.191977,-0.1025 0.267857,-0.1785 0.02105,-0.021 -0.01651,-0.064 0,-0.089 0.230407,-0.3456 0.162527,0.01 0.357143,-0.4464 0.04834,-0.1128 0.06522,-0.2369 0.08929,-0.3572 0.0058,-0.029 -0.01651,-0.064 0,-0.089 0.04669,-0.07 0.135261,-0.1066 0.178571,-0.1786 0.14547,-0.2424 0.07666,-0.5406 0.08929,-0.8035 0.238951,0.2748 0.463103,0.5298 0.535714,0.8928 0.08154,0.4077 -0.182526,-0.099 0.08929,0.5357 0.04227,0.099 0.144638,0.1661 0.178571,0.2679 0.02823,0.085 -0.01263,0.1795 0,0.2679 0.09281,0.6497 0.04125,0.1237 0.178572,0.5357 0.0388,0.1164 0.06267,0.2373 0.08929,0.3571 0.341174,1.5353 -0.176609,-0.5298 0.267857,0.8036 0.01882,0.057 -0.02211,0.1233 0,0.1786 0.08287,0.2071 0.297721,0.387 0.446428,0.5357 0.05952,0.059 0.111228,0.128 0.178572,0.1785 0.05324,0.04 0.123199,0.052 0.178571,0.089 0.03502,0.023 0.05164,0.071 0.08929,0.089 0.02662,0.013 0.06105,-0.01 0.08929,0 0.06313,0.021 0.115437,0.068 0.178571,0.089 0.05037,0.017 0.209187,0 0.267857,0 0.267857,0 0.535714,0 0.803572,0 0.267857,0 0.535714,0 0.803571,0 0.05952,0 0.120204,0.012 0.178572,0 0.29704,-0.059 0.272345,-0.1098 0.535714,-0.2679 0.114131,-0.068 0.233563,-0.1291 0.357143,-0.1785 0.08738,-0.035 0.183677,-0.047 0.267857,-0.089 0.09598,-0.048 0.171878,-0.1306 0.267857,-0.1786 0.05324,-0.027 0.122102,0.019 0.178571,0 0.06314,-0.021 0.115437,-0.068 0.178572,-0.089 0.116414,-0.039 0.240728,-0.05 0.357143,-0.089 0.06313,-0.021 0.114008,-0.073 0.178571,-0.089 0.05775,-0.014 0.123305,0.022 0.178572,0 0.248126,-0.099 0.52498,-0.4357 0.714285,-0.625 0.02976,-0.03 0.05427,-0.066 0.08929,-0.089 0.05537,-0.037 0.131514,-0.042 0.178571,-0.089 0.02105,-0.021 -0.0094,-0.061 0,-0.089 0.02105,-0.063 0.05952,-0.119 0.08929,-0.1786 0.02976,-0.06 0.05505,-0.1215 0.08929,-0.1785 0.05952,-0.089 0.119047,-0.1786 0.178571,-0.2679 0.02976,-0.03 0.06594,-0.054 0.08929,-0.089 0.300703,-0.451 6.89e-4,-0 0.08929,-0.2678 0.02105,-0.063 0.05952,-0.1191 0.08928,-0.1786"
       id="path4247"
       inkscape:connector-curvature="0" />
    <path
       style="fill:none;fill-rule:evenodd;stroke:#000000;stroke-width:1px;stroke-linecap:butt;stroke-linejoin:miter;stroke-opacity:1"
       d="m 9.0178572,1005.13 c 0,1.9345 0,3.8691 0,5.8036 0,0.3869 0,0.7738 0,1.1607 0,0.1786 -0.029357,0.3596 0,0.5357 0.030945,0.1857 0.1448996,0.3505 0.1785714,0.5357 0.02662,0.1464 -0.050855,0.3066 0,0.4465 0.073344,0.2017 0.2543735,0.3473 0.3571429,0.5357 0.076747,0.1407 0.1278887,0.2944 0.1785714,0.4464 0.062352,0.1871 0.057768,0.3746 0.1785714,0.5357 0.1959857,0.2613 0.2068867,0.081 0.2678567,0.4464 0.01468,0.088 -0.02823,0.1832 0,0.2679 0.211729,0.6352 0.113313,-0.041 0.357143,0.4464 0.02662,0.053 -0.01167,0.1202 0,0.1786 0.01846,0.092 0.05433,0.1805 0.08929,0.2679 0.133639,0.3341 0.05823,0.027 0.267857,0.4464 0.07136,0.1427 0.140429,0.4915 0.178572,0.625 0.02585,0.091 0.05952,0.1786 0.08929,0.2678 0.02976,0.089 0.04259,0.1862 0.08929,0.2679 0.07383,0.1292 0.201308,0.224 0.267857,0.3571 0.05488,0.1098 0.05048,0.2408 0.08929,0.3572 0.06682,0.2004 0.165977,0.2427 0.267857,0.4464 0.01331,0.027 0,0.059 0,0.089 0.05952,0.1191 0.104741,0.2464 0.178571,0.3572 0.04669,0.07 0.128064,0.1112 0.178572,0.1785 0.03993,0.053 0.04936,0.1254 0.08929,0.1786 0.05051,0.067 0.125985,0.1128 0.178571,0.1786 0.06704,0.084 0.111537,0.184 0.178571,0.2678 0.05259,0.066 0.135262,0.1064 0.178572,0.1786 0.04842,0.081 0.0472,0.1837 0.08929,0.2679 0.180244,0.3604 0.183142,0.2066 0.446428,0.5357 0.04157,0.052 0.04223,0.1315 0.08929,0.1785 0.105224,0.1053 0.242824,0.1726 0.357143,0.2679 0.097,0.081 0.166842,0.1921 0.267857,0.2679 0.885399,0.664 -0.176765,-0.1477 0.446428,0.2678 0.03502,0.023 0.05164,0.071 0.08929,0.089 0.08418,0.042 0.189549,0.037 0.267857,0.089 0.105063,0.07 0.165108,0.1944 0.267857,0.2678 0.0038,0.5607 0.308996,0.096 0.446429,0.1786 0.127603,0.077 0.220365,0.2092 0.357143,0.2679 0.08207,0.035 0.179469,-0.013 0.267857,0 0.121478,0.017 0.239153,0.055 0.357143,0.089 0.09049,0.026 0.174468,0.078 0.267857,0.089 0.14766,0.019 0.301163,-0.032 0.446429,0 0.129929,0.029 0.234805,0.1262 0.357142,0.1786 0.08651,0.037 0.178572,0.06 0.267858,0.089 0.08929,0.03 0.176551,0.066 0.267857,0.089 0.147225,0.037 0.305526,0.033 0.446428,0.089 0.161128,0.064 0.283938,0.2069 0.446429,0.2678 0.0836,0.031 0.179469,-0.013 0.267857,0 0.121478,0.017 0.236814,0.065 0.357143,0.089 0.02918,0.01 0.05952,0 0.08929,0 0.119047,0.03 0.236814,0.065 0.357142,0.089 0.02918,0.01 0.05952,0 0.08929,0 0.119048,0 0.238095,0 0.357143,0 0.05952,0 0.122102,-0.019 0.178571,0 0.12627,0.042 0.230874,0.1365 0.357143,0.1786 0.05647,0.019 0.119858,-0.01 0.178572,0 0.121042,0.02 0.235379,0.074 0.357143,0.089 0.236256,0.03 0.478583,-0.034 0.714285,0 0.09317,0.013 0.174469,0.078 0.267857,0.089 0.147661,0.018 0.29762,0 0.446429,0 0.208333,0 0.416667,0 0.625,0 0.05952,0 0.119858,-0.01 0.178571,0 0.121042,0.02 0.236101,0.069 0.357143,0.089 0.05871,0.01 0.119048,0 0.178572,0 0.148809,0 0.297619,0 0.446428,0 0.267857,0 0.535715,0 0.803572,0 0.178571,0 0.357143,0 0.535714,0 0.08929,0 0.180305,0.017 0.267857,0 0.06526,-0.013 0.113314,-0.076 0.178572,-0.089 0.08755,-0.017 0.181237,0.022 0.267857,0 0.0086,-0 0.155088,-0.1609 0.178571,-0.1785 0.02408,-0.018 0.357401,-0.2531 0.446429,-0.2679 0.117428,-0.02 0.241649,0.029 0.357143,0 0.129125,-0.032 0.234805,-0.1261 0.357143,-0.1786 0.127201,-0.054 0.511729,-0.1624 0.625,-0.1785 0.08839,-0.013 0.180305,0.017 0.267857,0 0.06526,-0.013 0.115437,-0.068 0.178571,-0.089 0.116414,-0.039 0.244353,-0.041 0.357143,-0.089 0.0014,-6e-4 0.527896,-0.3523 0.535714,-0.3572 0.147162,-0.092 0.29121,-0.1902 0.446429,-0.2678 0.08418,-0.042 0.189548,-0.037 0.267857,-0.089 0.105062,-0.07 0.169258,-0.189 0.267857,-0.2679 0.05197,-0.042 0.119048,-0.06 0.178572,-0.089 0.185457,-0.093 0.266856,-0.1242 0.446428,-0.2679 0.07153,-0.057 0.513302,-0.5077 0.535714,-0.5357 0.509307,-0.6366 -0.466234,0.4133 0.178572,-0.4464 0.03993,-0.053 0.123199,-0.052 0.178571,-0.089 0.07004,-0.047 0.119048,-0.1191 0.178572,-0.1786 0.148809,-0.1488 0.297619,-0.2976 0.446428,-0.4464 0.119048,-0.1191 0.238095,-0.2381 0.357143,-0.3572 0.02976,-0.03 0.05952,-0.06 0.08929,-0.089 0.02976,-0.03 0.07046,-0.052 0.08929,-0.089 0.04209,-0.084 0.04086,-0.1872 0.08928,-0.2679 0.04331,-0.072 0.128064,-0.1112 0.178572,-0.1786 0.342648,-0.4568 -0.01807,6e-4 0.08928,-0.2678 0.05952,-0.1191 0.119048,-0.2381 0.178572,-0.3572 0.02976,-0.03 0.07046,-0.052 0.08929,-0.089 0.04209,-0.084 0.05433,-0.1804 0.08928,-0.2678 0.02472,-0.062 0.07315,-0.114 0.08929,-0.1786 0.01444,-0.058 -0.01444,-0.1208 0,-0.1786 0.02911,-0.1166 0.226665,-0.3778 0.267815,-0.4464 0.117545,-0.1959 0.130751,-0.4422 0.267857,-0.625 0.338444,-0.4512 0.05174,0.075 0.267857,-0.3571 0.125106,-0.2502 0.108288,-0.1843 0.178572,-0.5357 0.0058,-0.029 -0.01786,-0.066 0,-0.089 0.07576,-0.101 0.192096,-0.1669 0.267857,-0.2679 0.01786,-0.024 -0.01105,-0.062 0,-0.089 0.04943,-0.1236 0.119048,-0.2381 0.178571,-0.3571 0.02976,-0.059 0.04936,-0.1254 0.08929,-0.1786 0.05051,-0.067 0.131877,-0.1085 0.178572,-0.1786 0.07383,-0.1107 0.112535,-0.2415 0.178571,-0.3571 0.05324,-0.093 0.130582,-0.1719 0.178571,-0.2679 0.04209,-0.084 0.0472,-0.1836 0.08929,-0.2678 0.218497,-0.437 0.108003,-0.1143 0.357143,-0.4464 0.03993,-0.053 0.05952,-0.1191 0.08929,-0.1786 0.05952,-0.1191 0.101209,-0.2489 0.178571,-0.3572 0.07339,-0.1027 0.188978,-0.1692 0.267857,-0.2678 0.04157,-0.052 0.06307,-0.1174 0.08929,-0.1786 0.06313,-0.1473 0.09905,-0.3073 0.178571,-0.4464 0.04176,-0.073 0.135262,-0.1064 0.178572,-0.1786 0.145196,-0.242 0.03337,-0.4723 0.178571,-0.7143 0.04331,-0.072 0.135262,-0.1064 0.178572,-0.1785 0.06449,-0.1075 0.149385,-0.5375 0.178571,-0.625 0.02105,-0.063 0.07834,-0.113 0.08929,-0.1786 0.01957,-0.1174 -0.02887,-0.2417 0,-0.3572 0.08929,-0.3571 0.178571,-0.2678 0.267857,-0.5357 0.212275,-0.6368 -0.002,-0.075 0.08929,-0.7143 0.03411,-0.2387 0.184749,-0.4033 0.267857,-0.625 0.310643,-0.8283 -0.01109,-0.034 0.08929,-0.5357 0.01846,-0.092 0.07083,-0.1755 0.08928,-0.2678 0.01167,-0.058 0,-0.1191 0,-0.1786 0,-0.1191 -0.01684,-0.2393 0,-0.3571 0.01331,-0.093 0.06646,-0.1766 0.08929,-0.2679 0.0072,-0.029 0,-0.059 0,-0.089 0,-0.059 0,-0.119 0,-0.1786 0,-0.2678 0,-0.5357 0,-0.8035 0,-0.048 0.01278,-0.4209 0,-0.4465 -0.01882,-0.038 -0.05952,-0.06 -0.08929,-0.089 -0.02976,-0.03 -0.05952,-0.06 -0.08928,-0.089"
       id="path4251"
       inkscape:connector-curvature="0" />
    <path
       style="fill:none;fill-rule:evenodd;stroke:#000000;stroke-width:1px;stroke-linecap:butt;stroke-linejoin:miter;stroke-opacity:1"
       d="m 17.946429,998.79073 c 0.518611,-0.31117 0.323717,-0.14514 0.625,-0.44643 0.02976,-0.0298 0.05164,-0.0705 0.08929,-0.0893 0.08418,-0.0421 0.187154,-0.0409 0.267857,-0.0893 0.446429,-0.26786 0,-0.0893 0.267858,-0.26786 0.05537,-0.0369 0.119047,-0.0595 0.178571,-0.0893 0.05952,-0.0595 0.111228,-0.12807 0.178571,-0.17857 0.156026,-0.11703 0.266357,-0.0885 0.446424,-0.17857 0.03765,-0.0188 0.05164,-0.0705 0.08929,-0.0893 0.02662,-0.0133 0.05952,0 0.08929,0 0.08929,0 0.184958,0.0332 0.267858,0 0.07816,-0.0313 0.103279,-0.14093 0.178571,-0.17857 0.05324,-0.0266 0.120825,0.0144 0.178571,0 0.06456,-0.0161 0.113315,-0.0762 0.178572,-0.0893 0.08755,-0.0175 0.178571,0 0.267857,0 0.02976,0 0.06041,0.007 0.08929,0 0.0913,-0.0228 0.175569,-0.0708 0.267857,-0.0893 0.116736,-0.0233 0.238095,0 0.357143,0 0.208333,0 0.416666,0 0.625,0 0.178571,0 0.357143,0 0.535714,0 0.05952,0 0.119858,-0.01 0.178571,0 0.119048,0.0298 0.238096,0.0595 0.357143,0.0893 0.02976,0.0298 0.04936,0.076 0.08929,0.0893 0.05647,0.0188 0.122102,-0.0188 0.178571,0 0.03993,0.0133 0.05952,0.0595 0.08929,0.0893 0.05952,0.0298 0.114009,0.0731 0.178572,0.0893 0.05775,0.0144 0.123305,-0.0221 0.178571,0 0.536089,0.21444 0.03651,0.11119 0.446429,0.35714 0.0807,0.0484 0.183677,0.0472 0.267857,0.0893 0.03765,0.0188 0.04936,0.076 0.08929,0.0893 0.05647,0.0188 0.125332,-0.0266 0.178572,0 0.07529,0.0376 0.106388,0.13527 0.178571,0.17858 0.0807,0.0484 0.183678,0.0472 0.267857,0.0893 0.07529,0.0376 0.106389,0.13526 0.178572,0.17857 0.114132,0.0685 0.243011,0.1101 0.357143,0.17857 0.03609,0.0217 0.04936,0.076 0.08929,0.0893 0.05647,0.0188 0.122103,-0.0188 0.178572,0 0.03993,0.0133 0.05427,0.0659 0.08929,0.0893 0.05537,0.0369 0.125331,0.0494 0.178571,0.0893 0.451258,0.33844 -0.0751,0.0517 0.357143,0.26785 0.05952,0.0298 0.119048,0.0595 0.178571,0.0893 0.05952,0.0298 0.114009,0.0732 0.178572,0.0893 0.05775,0.0144 0.125332,-0.0266 0.178571,0 0.07529,0.0376 0.10853,0.13188 0.178572,0.17857 0.02476,0.0165 0.06267,-0.0133 0.08929,0 0.07914,0.0396 0.186579,0.21367 0.267858,0.26786 0.05537,0.0369 0.123198,0.0524 0.178571,0.0893 0.03502,0.0233 0.05952,0.0595 0.08929,0.0893 0.05952,0.0595 0.119047,0.11905 0.178571,0.17861 0.08929,0.089 0.178572,0.1785 0.267857,0.2678 0.02976,0.03 0.04936,0.076 0.08929,0.089 0.05647,0.019 0.122102,-0.019 0.178571,0 0.330992,0.1103 -0.108835,0.089 0.178572,0.089"
       id="path4253"
       inkscape:connector-curvature="0" />
    <path
       style="fill:none;fill-rule:evenodd;stroke:#000000;stroke-width:1px;stroke-linecap:butt;stroke-linejoin:miter;stroke-opacity:1"
       d="m 16.785714,998.79073 c -0.221742,-0.14784 -0.03204,-0.36397 -0.08929,-0.53571 -0.01331,-0.0399 -0.07046,-0.0516 -0.08929,-0.0893 -0.02959,-0.0592 0.02494,-0.28231 0,-0.35714 -0.05405,-0.16217 -0.07642,-0.1657 -0.178572,-0.26786 -0.02976,-0.0298 -0.07046,-0.0516 -0.08929,-0.0893 -0.02662,-0.0533 0.01882,-0.12211 0,-0.17858 -0.02105,-0.0631 -0.06824,-0.11543 -0.08929,-0.17857 -0.0094,-0.0282 0.01331,-0.0627 0,-0.0893 -0.01882,-0.0376 -0.07046,-0.0516 -0.08929,-0.0893 -0.01331,-0.0266 0.01331,-0.0627 0,-0.0893 -0.01882,-0.0376 -0.05952,-0.0595 -0.08929,-0.0893 -0.0595,-0.0595 -0.125958,-0.11284 -0.178545,-0.17857 -0.06703,-0.0838 -0.114186,-0.18201 -0.178571,-0.26786 -0.02525,-0.0337 -0.06403,-0.0556 -0.08929,-0.0893 -0.06438,-0.0859 -0.111537,-0.18407 -0.178571,-0.26786 -0.05259,-0.0657 -0.125985,-0.11284 -0.178572,-0.17857 -0.06703,-0.0838 -0.114186,-0.18201 -0.178571,-0.26786 -0.02525,-0.0337 -0.05952,-0.0595 -0.08929,-0.0893 -0.04419,-0.0442 -0.402234,-0.40223 -0.446429,-0.44642 -0.08929,-0.0893 -0.178571,-0.17858 -0.267857,-0.26786 -0.05952,-0.0595 -0.112838,-0.12599 -0.178571,-0.17857 -0.08379,-0.067 -0.178572,-0.11905 -0.267857,-0.17857 -0.178572,-0.11905 -0.361074,-0.2324 -0.535715,-0.35715 -0.121091,-0.0865 -0.236051,-0.18136 -0.357142,-0.26785 -0.08732,-0.0624 -0.185421,-0.10988 -0.267858,-0.17858 -0.097,-0.0808 -0.162794,-0.19781 -0.267857,-0.26785 -0.07831,-0.0522 -0.183677,-0.0472 -0.267857,-0.0893 -0.155219,-0.0776 -0.291209,-0.19025 -0.446428,-0.26786 -0.171972,-0.086 -0.453357,-0.12135 -0.625,-0.17857 -0.1875,-0.0625 -0.348215,-0.20535 -0.535715,-0.26785 -0.05647,-0.0188 -0.120203,0.0117 -0.178571,0 -0.09229,-0.0185 -0.17557,-0.0708 -0.267857,-0.0893 -0.09669,-0.0193 -0.5295561,0 -0.6250003,0 -0.297619,0 -0.5952381,0 -0.8928571,0 -0.3869048,0 -0.7738095,0 -1.1607143,0 -0.1190476,0 -0.2380952,0 -0.3571429,0 -0.059524,0 -0.1221021,-0.0188 -0.1785714,0 -0.03993,0.0133 -0.05164,0.0705 -0.089286,0.0893 -0.084179,0.0421 -0.1804732,0.0543 -0.2678571,0.0893 -0.06179,0.0247 -0.1190477,0.0595 -0.1785715,0.0893 -0.059524,0.0298 -0.1253317,0.0494 -0.1785714,0.0893 -0.1,0.075 -0.1678571,0.19286 -0.2678571,0.26786 -0.085846,0.0644 -0.1919786,0.10269 -0.2678569,0.17857 -0.072869,0.0729 -0.1907064,0.43285 -0.2678571,0.53572 -0.050508,0.0673 -0.1352615,0.10638 -0.1785715,0.17857 -0.048422,0.0807 -0.059524,0.17857 -0.089286,0.26785 -0.029762,0.0893 -0.059524,0.17858 -0.089286,0.26786 -0.029762,0.0893 -0.070828,0.17557 -0.089286,0.26786 -0.011674,0.0584 0.022107,0.1233 0,0.17857 -0.2037596,0.5094 -0.137854,0.0564 -0.2678568,0.44643 -0.038805,0.11641 -0.074065,0.23538 -0.089286,0.35714 -0.014766,0.11813 0,0.2381 0,0.35714 0,0.26786 0,0.53572 0,0.80358 0,0.29761 0,0.59523 0,0.89285 0,0.17857 -0.029357,0.35958 0,0.53572 0.010941,0.0656 0.06457,0.11678 0.089286,0.17857 0.034954,0.0874 0.054332,0.18047 0.089286,0.26786 0.024716,0.0618 0.076234,0.11331 0.089286,0.17857 0.01751,0.0876 -0.01751,0.1803 0,0.26785 0.013051,0.0653 0.068241,0.11544 0.089286,0.17858 0.038804,0.11641 0.065219,0.23681 0.089285,0.35714 0.00584,0.0292 -0.01331,0.0627 0,0.0893 0.04799,0.096 0.1233619,0.17584 0.1785714,0.26782 0.2340465,0.3901 -0.076958,-0.0646 0.1785715,0.4465 0.018823,0.038 0.065938,0.054 0.089286,0.089 0.036915,0.055 0.049356,0.1253 0.089286,0.1785 0.050508,0.067 0.1190476,0.1191 0.1785714,0.1786 0.029762,0.03 0.070463,0.052 0.089286,0.089 0.04209,0.084 0.040864,0.1871 0.089286,0.2678 0.085065,0.1418 0.2655466,0.2198 0.3571428,0.3572 0.036915,0.055 0.052371,0.1232 0.089286,0.1786 0.070042,0.105 0.1889775,0.1692 0.2678572,0.2678 0.067035,0.084 0.1026931,0.192 0.1785714,0.2679 0.047058,0.047 0.1231988,0.052 0.1785714,0.089 0.035021,0.023 0.054265,0.066 0.089286,0.089 0.055373,0.037 0.1253318,0.049 0.1785715,0.089 0.1010152,0.076 0.1627949,0.1979 0.2678571,0.2679 0.1107453,0.074 0.2463976,0.1047 0.3571429,0.1786 0.103022,0.069 0.1648351,0.1991 0.2678571,0.2678 0.055373,0.037 0.1253317,0.049 0.1785715,0.089 0.1010152,0.076 0.1785714,0.1786 0.2678571,0.2679 0.052513,0.053 0.3364697,0.3158 0.3571429,0.3571 0.01331,0.027 0,0.06 0,0.089"
       id="path4255"
       inkscape:connector-curvature="0" />
    <path
       style="fill:none;fill-rule:evenodd;stroke:#000000;stroke-width:1px;stroke-linecap:butt;stroke-linejoin:miter;stroke-opacity:1"
       d="m 29.464286,1000.3086 c 0.388938,-0.1441 0.561283,-0.33179 0.714286,-0.7143 0.03495,-0.0874 0.0472,-0.18368 0.08929,-0.26785 0.04799,-0.096 0.119048,-0.17858 0.178572,-0.26786 0.05952,-0.0893 0.111536,-0.18406 0.178571,-0.26786 0.105173,-0.13147 0.238095,-0.23809 0.357143,-0.35714 0.02976,-0.0298 0.05952,-0.0595 0.08929,-0.0893 0.02976,-0.0298 0.07046,-0.0516 0.08929,-0.0893 0.04209,-0.0842 0.04086,-0.18716 0.08929,-0.26786 0.06497,-0.10828 0.178572,-0.17857 0.267857,-0.26786 0.14881,-0.14881 0.297619,-0.29762 0.446429,-0.44643 0.05952,-0.0595 0.112838,-0.12598 0.178571,-0.17857 0.329093,-0.26327 0.168242,-0.10094 0.446429,-0.26785 0.01067,-0.006 0.533005,-0.35606 0.535714,-0.35715 0.05527,-0.0221 0.119048,0 0.178572,0 0.250592,0 0.477967,0.0289 0.714285,-0.0893 0.07529,-0.0376 0.100413,-0.14731 0.178572,-0.17857 0.0829,-0.0332 0.180305,0.0175 0.267857,0 0.06526,-0.0131 0.113314,-0.0762 0.178571,-0.0893 0.08755,-0.0175 0.178572,0 0.267857,0 0.178572,0 0.357143,0 0.535715,0 0.267857,0 0.535714,0 0.803571,0 0.14881,0 0.300509,-0.0292 0.446429,0 0.06526,0.0131 0.116781,0.0646 0.178571,0.0893 0.08738,0.0349 0.176552,0.0665 0.267857,0.0893 0.02887,0.007 0.0601,-0.006 0.08929,0 0.186648,0.0373 0.374864,0.0713 0.535714,0.17857 0.131382,0.0876 0.225762,0.26956 0.357143,0.35715 0.05537,0.0369 0.131514,0.0422 0.178572,0.0893 0.07588,0.0759 0.111536,0.18407 0.178571,0.26786 0.05259,0.0657 0.128064,0.11123 0.178571,0.17857 0.03993,0.0532 0.05505,0.12151 0.08929,0.17857 0.05952,0.0893 0.119048,0.17857 0.178572,0.26786 0.02976,0.0298 0.06594,0.0543 0.08928,0.0893 0.03692,0.0554 0.05237,0.1232 0.08929,0.17858 0.07004,0.10506 0.192096,0.16684 0.267857,0.26785 0.207619,0.27683 0.04232,0.08 0.08929,0.26786 0.02283,0.0913 0.0472,0.18368 0.08929,0.26786 0.01882,0.0377 0.05952,0.0595 0.08928,0.0893 0.08929,0.0893 0.188978,0.16925 0.267857,0.26785 0.04157,0.052 0.05952,0.11905 0.08929,0.17858 0.02976,0.0595 0.07314,0.11401 0.08929,0.17857 0.01444,0.0578 -0.01167,0.1202 0,0.17857 0.03678,0.18388 0.09921,0.28772 0.178571,0.44642 0.02976,0.06 0.07315,0.114 0.08929,0.1786 0.01444,0.058 -0.01882,0.1221 0,0.1786 0.01331,0.04 0.07598,0.049 0.08929,0.089 0.01882,0.057 0,0.1191 0,0.1786 0,0.06 0,0.1191 0,0.1786 0,0.2976 0,0.5952 0,0.8928 0,0.2381 0,0.4762 0,0.7143 0,0.059 0,0.1191 0,0.1786 0,0.06 0.02211,0.1233 0,0.1786 -0.03985,0.1 -0.130582,0.1718 -0.178572,0.2678 -0.01331,0.027 0.0094,0.061 0,0.089 -0.04209,0.1263 -0.136481,0.2309 -0.178571,0.3572 -0.0094,0.028 0.01331,0.063 0,0.089 -0.01882,0.038 -0.07908,0.048 -0.08929,0.089 -0.02166,0.087 0,0.1786 0,0.2679 0,0.03 0.01651,0.064 0,0.089 -0.04669,0.07 -0.128064,0.1112 -0.178571,0.1786 -0.196711,0.045 -0.0472,0.1836 -0.08929,0.2678 -0.01882,0.038 -0.05952,0.06 -0.08929,0.089 -0.02976,0.03 -0.05952,0.059 -0.08928,0.089"
       id="path4257"
       inkscape:connector-curvature="0" />
    <path
       style="fill:none;fill-rule:evenodd;stroke:#000000;stroke-width:1px;stroke-linecap:butt;stroke-linejoin:miter;stroke-opacity:1"
       d="m 13.125,995.04073 c 0.290701,0 0.371136,-0.0376 0.625,0.0893 0.102359,0.0512 0.124197,0.18629 0.178571,0.26785 0.02335,0.035 0.06403,0.0556 0.08929,0.0893 0.06439,0.0858 0.114187,0.18201 0.178572,0.26786 0.188346,0.25113 0.0068,-0.16491 0.267857,0.35714 0.01331,0.0266 -0.0094,0.0611 0,0.0893 0.02105,0.0631 0.07623,0.11331 0.08929,0.17857 0.01751,0.0876 -0.01468,0.17978 0,0.26785 0.01547,0.0928 0.07083,0.17557 0.08929,0.26786 0.01774,0.0887 0,0.47033 0,0.53572 0,0.0298 -0.0072,0.0604 0,0.0893 0.02283,0.0913 0.07083,0.17557 0.08929,0.26786 0.03293,0.16465 -0.03273,0.46134 0,0.625 0.0261,0.13051 0.136482,0.23087 0.178571,0.35714 0.02823,0.0847 -0.02166,0.18124 0,0.26786 0.01614,0.0646 0.07315,0.11401 0.08929,0.17857 0.0039,0.0156 0.0039,0.43082 0,0.44643 -0.01614,0.0646 -0.06824,0.11544 -0.08929,0.17857 -0.0094,0.0282 0.0094,0.0611 0,0.0893 -0.02105,0.0631 -0.07315,0.11405 -0.08929,0.17855 -0.02166,0.087 0.02823,0.1832 0,0.2679 -0.215578,0.6467 0.02574,-0.1408 -0.178572,0.2678 -0.01331,0.027 0.01331,0.063 0,0.089 -0.01882,0.038 -0.05952,0.059 -0.08929,0.089 -0.02976,0.03 -0.05952,0.06 -0.08929,0.089 -0.14881,0.1488 -0.297619,0.2976 -0.446429,0.4464"
       id="path4259"
       inkscape:connector-curvature="0" />
    <path
       style="fill:none;fill-rule:evenodd;stroke:#000000;stroke-width:1px;stroke-linecap:butt;stroke-linejoin:miter;stroke-opacity:1"
       d="m 31.785714,997.54073 c 0.09512,0.47561 0.08929,0.29467 0.08929,0.53572 0,0.0595 0.02662,0.12533 0,0.17857 -0.03765,0.0753 -0.131877,0.10853 -0.178571,0.17857 -0.01651,0.0248 0.0094,0.0611 0,0.0893 -0.252933,0.50586 0.03327,-0.1331 -0.08929,0.35714 -0.01614,0.0646 -0.05237,0.1232 -0.08929,0.17857 -0.02335,0.035 -0.07908,0.0485 -0.08929,0.0893 -0.02165,0.0866 0,0.17857 0,0.26786 0,0.11905 0,0.2381 0,0.35714 0,0.0298 0.01651,0.0645 0,0.0893 -0.04669,0.07 -0.140926,0.10328 -0.178572,0.17853 -0.007,0.014 0,0.4215 0,0.4465 0,0.2083 0,0.4166 0,0.625 0,0.059 -0.01679,0.2175 0,0.2678 0.02105,0.063 0.07315,0.114 0.08929,0.1786 0.01444,0.058 -0.01882,0.1221 0,0.1786 0.01331,0.04 0.05952,0.059 0.08929,0.089 0.02976,0.059 0.06824,0.1154 0.08929,0.1785 0.0886,0.2658 -0.211417,-0.1832 0.08929,0.2679 0.02335,0.035 0.05952,0.059 0.08929,0.089 0.08929,0.089 0.178571,0.1786 0.267857,0.2678 0.267857,0.2679 0.535714,0.5358 0.803571,0.8036"
       id="path4261"
       inkscape:connector-curvature="0" />
    <path
       style="fill:none;fill-rule:evenodd;stroke:#000000;stroke-width:1px;stroke-linecap:butt;stroke-linejoin:miter;stroke-opacity:1"
       d="m 11.607143,1019.505 c 0,1.6369 0,3.2738 0,4.9107 0,0.3572 0,0.7143 0,1.0715 0,0.1488 -0.03609,0.302 0,0.4464 0.293757,1.175 0.09852,-0.5512 0.267857,0.8036 0.01107,0.089 -0.01263,0.1794 0,0.2678 -0.0085,0.2261 0.142951,0.4113 0.178571,0.625 0.01468,0.088 -0.03517,0.1858 0,0.2679 0.05862,0.1368 0.201308,0.224 0.267858,0.3571 0.02662,0.053 -0.01882,0.1221 0,0.1786 0.04209,0.1263 0.119047,0.2381 0.178571,0.3571 0.119048,0.2381 0.238095,0.4762 0.357143,0.7143 0.02976,0.059 0.06824,0.1155 0.08929,0.1786 0.0388,0.1164 0.03441,0.2474 0.08929,0.3571 0.03765,0.075 0.135262,0.1064 0.178572,0.1786 0.136657,0.2278 0.03366,0.4076 0.178571,0.625 0.07004,0.1051 0.202892,0.1596 0.267857,0.2679 0.03062,0.051 -0.02662,0.1253 0,0.1785 0.03765,0.075 0.131877,0.1086 0.178572,0.1786 0.07383,0.1107 0.119047,0.2381 0.178571,0.3571 0.08929,0.1786 0.186772,0.3533 0.267857,0.5358 0.03822,0.086 0.03708,0.1895 0.08929,0.2678 0.07004,0.1051 0.188978,0.1693 0.267857,0.2679 0.04157,0.052 0.04771,0.1266 0.08929,0.1785 0.263286,0.3292 0.266185,0.1753 0.446428,0.5358 0.252933,0.7588 -0.09982,-0.1664 0.267858,0.4464 0.04842,0.081 0.05433,0.1805 0.08929,0.2678 0.02472,0.062 0.05505,0.1216 0.08929,0.1786 0.145856,0.2431 0.319257,0.46 0.446429,0.7143 0.02976,0.06 0.07315,0.114 0.08929,0.1786 0.01444,0.058 -0.02211,0.1233 0,0.1785 0.03985,0.1 0.130582,0.1719 0.178572,0.2679 0.04209,0.084 0.04086,0.1872 0.08929,0.2679 0.04331,0.072 0.140926,0.1032 0.178572,0.1785 0.05488,0.1098 0.03441,0.2474 0.08929,0.3572 0.03765,0.075 0.128063,0.1112 0.178571,0.1785 0.03993,0.053 0.05627,0.1208 0.08929,0.1786 0.0861,0.1507 0.171594,0.3021 0.267857,0.4464 0.02335,0.035 0.07046,0.052 0.08929,0.089 0.04209,0.084 0.0472,0.1837 0.08929,0.2679 0.01882,0.038 0.06299,0.056 0.08929,0.089 0.09296,0.1162 0.174897,0.2409 0.267857,0.3571 0.02629,0.033 0.06594,0.054 0.08929,0.089 0.03692,0.055 0.04771,0.1266 0.08929,0.1786 0.07888,0.099 0.178571,0.1785 0.267857,0.2678 0.02976,0.03 0.06763,0.053 0.08929,0.089 0.06848,0.1141 0.104742,0.2464 0.178572,0.3572 0.07004,0.105 0.197816,0.1628 0.267857,0.2678 0.03692,0.055 0.05505,0.1215 0.08929,0.1786 0.05521,0.092 0.123362,0.1758 0.178571,0.2678 0.03424,0.057 0.04936,0.1254 0.08929,0.1786 0.05051,0.067 0.119048,0.1191 0.178571,0.1786 0.208334,0.2083 0.416667,0.4167 0.625,0.625 0.05952,0.059 0.131877,0.1085 0.178572,0.1786 0.03691,0.055 0.04936,0.1253 0.08929,0.1785 0.1,0.1334 0.257143,0.2238 0.357143,0.3572 0.06439,0.086 0.111537,0.184 0.178572,0.2678 0.103177,0.129 0.257739,0.2246 0.357143,0.3572 0.06438,0.086 0.114186,0.182 0.178571,0.2678 0.07576,0.101 0.178571,0.1786 0.267857,0.2679 0.119048,0.119 0.238095,0.2381 0.357143,0.3571 0.08929,0.089 0.178571,0.1786 0.267857,0.2679 0.02976,0.03 0.05427,0.066 0.08929,0.089 0.05537,0.037 0.125332,0.049 0.178571,0.089 0.134687,0.101 0.227806,0.2493 0.357143,0.3571 0.114319,0.095 0.240942,0.1749 0.357143,0.2679 0.03287,0.026 0.05561,0.064 0.08929,0.089 0.08585,0.064 0.184063,0.1116 0.267857,0.1786 0.06573,0.053 0.112838,0.126 0.178571,0.1786 0.08379,0.067 0.184064,0.1115 0.267857,0.1786 0.06573,0.053 0.111228,0.128 0.178572,0.1785 0.05324,0.04 0.123199,0.052 0.178571,0.089 0.03502,0.023 0.05561,0.064 0.08929,0.089 0.08585,0.064 0.184064,0.1115 0.267857,0.1786 0.204962,0.164 0.171615,0.2472 0.446429,0.3571 0.05527,0.022 0.125331,-0.027 0.178571,0 0.07529,0.038 0.106388,0.1353 0.178572,0.1786 0.0807,0.048 0.180473,0.054 0.267857,0.089 0.06179,0.025 0.115437,0.068 0.178571,0.089 0.116415,0.039 0.244353,0.041 0.357143,0.089 0.197263,0.085 0.343756,0.2611 0.535714,0.3571 0.08418,0.042 0.183678,0.047 0.267857,0.089 0.419247,0.2096 0.112331,0.1342 0.446429,0.2678 0.174768,0.07 0.360946,0.1087 0.535714,0.1786 0.184729,0.074 0.350986,0.194 0.535715,0.2679 0.290438,0.1161 0.602418,0.1516 0.892857,0.2678 0.123579,0.049 0.230874,0.1365 0.357143,0.1786 0.02823,0.01 0.06041,-0.01 0.08929,0 0.09131,0.023 0.17557,0.071 0.267858,0.089 0.05837,0.012 0.120203,-0.012 0.178571,0 0.09229,0.018 0.175022,0.074 0.267857,0.089 0.08807,0.015 0.182007,-0.025 0.267857,0 0.127978,0.036 0.229165,0.142 0.357143,0.1785 0.0744,0.021 0.347222,-0.014 0.446429,0 0.150231,0.022 0.2956,0.073 0.446428,0.089 0.11832,0.013 0.239015,-0.015 0.357143,0 0.121764,0.015 0.236814,0.065 0.357143,0.089 0.02918,0.01 0.06041,-0.01 0.08929,0 0.0913,0.023 0.178571,0.06 0.267857,0.089 0.08929,0.059 0.166056,0.1446 0.267857,0.1786 0.0847,0.028 0.181237,-0.022 0.267857,0 0.04083,0.01 0.04845,0.079 0.08929,0.089 0.08929,0 0.178571,0 0.267857,0 0.02976,0.03 0.04936,0.076 0.08929,0.089 0.05647,0.019 0.119047,0 0.178571,0 0.08929,0 0.178572,0 0.267857,0 0.08929,0 0.178572,0 0.267857,0 0.05952,0 0.120825,-0.014 0.178572,0 0.06456,0.016 0.112927,0.078 0.178571,0.089 0.117428,0.02 0.238095,0 0.357143,0 0.08929,0 0.183153,-0.028 0.267857,0 0.101802,0.034 0.164678,0.1491 0.267857,0.1786 0.162037,0.046 0.451389,-0.035 0.625,0 0.06526,0.013 0.113315,0.076 0.178572,0.089 0.163656,0.033 0.460345,-0.033 0.625,0 0.09229,0.019 0.176552,0.067 0.267857,0.089 0.02887,0.01 0.05952,0 0.08929,0 0.08928,0 0.178571,0 0.267857,0 0.05952,0 0.120203,-0.012 0.178571,0 0.09229,0.018 0.17557,0.071 0.267857,0.089 0.107006,0.021 0.457602,-0.031 0.535715,0 0.09963,0.04 0.168224,0.1387 0.267857,0.1785 0.05527,0.022 0.119047,0 0.178571,0 0.238095,0 0.476191,0 0.714286,0 0.684524,0 1.369048,0 2.053571,0 0.105947,0 0.627633,-0.017 0.714286,0 0.06526,0.013 0.113314,0.076 0.178572,0.089 0.116735,0.023 0.238095,0 0.357142,0 0.327381,0 0.654762,0 0.982143,0 0.952381,0 1.904762,0 2.857143,0 0.238095,0 0.476191,0 0.714286,0 0.08929,0 0.178571,0 0.267857,0 0.05952,0 0.120204,-0.012 0.178571,0 0.09229,0.019 0.176552,0.067 0.267858,0.089 0.02887,0.01 0.05952,0 0.08928,0 0.06866,0 0.453121,-0.021 0.535715,0 0.0913,0.023 0.175569,0.071 0.267857,0.089 0.05837,0.012 0.119047,0 0.178571,0 0.238095,0 0.476191,0 0.714286,0 0.654762,0 1.309524,0 1.964286,0 0.416666,0 0.833333,0 1.25,0 0.178571,0 0.358937,0.025 0.535714,0 0.06588,-0.01 0.116781,-0.065 0.178571,-0.089 0.25553,-0.1022 0.237038,-0.053 0.446429,-0.1786 0.09202,-0.055 0.168224,-0.1387 0.267857,-0.1785 0.05527,-0.022 0.122102,0.019 0.178571,0 0.03993,-0.013 0.05427,-0.066 0.08929,-0.089 0.05537,-0.037 0.116782,-0.065 0.178572,-0.089 0.08738,-0.035 0.183677,-0.047 0.267857,-0.089 0.03765,-0.019 0.05427,-0.066 0.08928,-0.089 0.05537,-0.037 0.119048,-0.06 0.178572,-0.089 0.05952,-0.03 0.115437,-0.068 0.178571,-0.089 0.02824,-0.01 0.06267,0.013 0.08929,0 0.03765,-0.019 0.05952,-0.06 0.08929,-0.089 0.02976,-0.03 0.05952,-0.06 0.08928,-0.089 0.178572,-0.1786 0.357143,-0.3572 0.535715,-0.5357 0.05952,-0.06 0.10853,-0.1319 0.178571,-0.1786 0.05537,-0.037 0.125332,-0.049 0.178572,-0.089 0.184018,-0.138 0.353021,-0.3895 0.535714,-0.5357 0.01939,-0.015 0.316219,-0.186 0.357143,-0.2679 0.01331,-0.027 0,-0.06 0,-0.089 0.05952,-0.06 0.119047,-0.1191 0.178571,-0.1786 0.14881,-0.1488 0.297619,-0.2976 0.446429,-0.4464 0.02976,-0.03 0.07046,-0.052 0.08928,-0.089 0.269633,-0.5393 -0.01287,-0.038 0.08929,-0.4465 0.01614,-0.065 0.07314,-0.114 0.08929,-0.1785 0.01444,-0.058 -0.02662,-0.1254 0,-0.1786 0.03765,-0.075 0.140925,-0.1033 0.178571,-0.1786 0.02662,-0.053 -0.01444,-0.1208 0,-0.1785 0.01614,-0.065 0.07624,-0.1134 0.08929,-0.1786 0.01464,-0.073 0,-0.6272 0,-0.7143 0,-0.059 -0.01444,-0.1208 0,-0.1786 0.01614,-0.064 0.07314,-0.114 0.08929,-0.1785 0.03609,-0.1444 -0.02918,-0.3006 0,-0.4465 0.01305,-0.065 0.06824,-0.1154 0.08928,-0.1785 0.0094,-0.028 0,-0.06 0,-0.089 0,-0.089 -0.01468,-0.1798 0,-0.2679 0.130628,-0.7837 0.03284,0.1365 0.178572,-0.4464 0.01444,-0.058 0,-0.1191 0,-0.1786 0,-0.089 0,-0.1786 0,-0.2678 0,-0.2084 0,-0.4167 0,-0.625 0,-0.4167 0,-0.8334 0,-1.25 0,-0.065 0.01774,-0.4471 0,-0.5358 -0.01858,-0.092 -0.05964,-0.1786 -0.0894,-0.2678 0,-0.1191 0.01684,-0.2393 0,-0.3572 -0.01331,-0.093 -0.07381,-0.175 -0.08929,-0.2678 -0.03425,-0.2055 0.02946,-0.4188 0,-0.625 -0.01331,-0.093 -0.07083,-0.1756 -0.08928,-0.2679 -0.01167,-0.058 0.02211,-0.1233 0,-0.1786 -0.03985,-0.1 -0.111537,-0.184 -0.178572,-0.2678 -0.05259,-0.066 -0.147308,-0.1004 -0.178571,-0.1786 -0.008,-0.02 0.0077,-0.497 0,-0.5357 -0.01305,-0.065 -0.06824,-0.1154 -0.08929,-0.1786 -0.03881,-0.1164 -0.04371,-0.2432 -0.08929,-0.3571 -0.01563,-0.039 -0.06594,-0.054 -0.08928,-0.089 -0.03692,-0.055 -0.05952,-0.1191 -0.08929,-0.1786 -0.02976,-0.06 -0.07623,-0.1133 -0.08929,-0.1785 -0.01751,-0.088 0.02824,-0.1832 0,-0.2679 -0.03393,-0.1018 -0.130582,-0.1719 -0.178571,-0.2679 -0.04209,-0.084 -0.0472,-0.1836 -0.08929,-0.2678 -0.01882,-0.038 -0.07365,-0.05 -0.08929,-0.089 -0.04557,-0.1139 -0.05048,-0.2407 -0.08928,-0.3571 -0.02105,-0.063 -0.05952,-0.1191 -0.08929,-0.1786 -0.05952,-0.1191 -0.119048,-0.2381 -0.178571,-0.3572 -0.02976,-0.06 -0.07315,-0.114 -0.08929,-0.1785 -0.01444,-0.058 0.01882,-0.1221 0,-0.1786 -0.01331,-0.04 -0.07046,-0.052 -0.08929,-0.089 -0.04209,-0.084 -0.04086,-0.1871 -0.08929,-0.2678 -0.04331,-0.072 -0.119047,-0.1191 -0.178571,-0.1786 -0.02976,-0.03 -0.07046,-0.052 -0.08929,-0.089 -0.255496,-0.5111 0.05551,-0.056 -0.178538,-0.4464 -0.05521,-0.092 -0.114187,-0.1821 -0.178572,-0.2679 -0.05051,-0.067 -0.131877,-0.1085 -0.178571,-0.1786 -0.03692,-0.055 -0.04936,-0.1253 -0.08929,-0.1785 -0.05051,-0.067 -0.119047,-0.1191 -0.178571,-0.1786 -0.02976,-0.03 -0.07046,-0.052 -0.08929,-0.089 -0.04209,-0.084 -0.0472,-0.1837 -0.08929,-0.2679 -0.01882,-0.038 -0.05952,-0.059 -0.08928,-0.089 -0.02976,-0.03 -0.05427,-0.066 -0.08929,-0.089 -0.05537,-0.037 -0.131514,-0.042 -0.178571,-0.089 -0.04706,-0.047 -0.05237,-0.1232 -0.08929,-0.1786 -0.02335,-0.035 -0.05952,-0.06 -0.08929,-0.089 -0.119047,-0.119 -0.238095,-0.2381 -0.357143,-0.3571 -0.09477,-0.095 -0.465401,-0.4889 -0.535714,-0.5357 -0.07831,-0.052 -0.183678,-0.047 -0.267857,-0.089 -0.03765,-0.019 -0.05164,-0.071 -0.08929,-0.089 -0.08418,-0.042 -0.187154,-0.041 -0.267857,-0.089 -0.406454,-0.4065 0.03698,-0.047 -0.357143,-0.1786 -0.03993,-0.013 -0.05952,-0.059 -0.08929,-0.089 -0.05952,-0.03 -0.113314,-0.076 -0.178571,-0.089 -0.08755,-0.018 -0.184957,0.033 -0.267857,0 -0.07816,-0.031 -0.106388,-0.1353 -0.178572,-0.1786 -0.0807,-0.048 -0.180473,-0.054 -0.267857,-0.089 -0.06179,-0.025 -0.115437,-0.068 -0.178571,-0.089 -0.116414,-0.039 -0.244353,-0.041 -0.357143,-0.089 -0.09863,-0.042 -0.166056,-0.1446 -0.267857,-0.1786 -0.0847,-0.028 -0.179786,0.015 -0.267857,0 -0.09284,-0.015 -0.177363,-0.063 -0.267857,-0.089 -0.178421,-0.051 -0.639912,-0.1581 -0.803572,-0.1786 -0.09259,-0.012 -0.570988,0.015 -0.625,0 -0.103179,-0.03 -0.168224,-0.1387 -0.267857,-0.1786 -0.05527,-0.022 -0.119048,0 -0.178571,0 -0.08929,0 -0.179787,0.015 -0.267858,0 -0.185669,-0.031 -0.351138,-0.1416 -0.535714,-0.1785 -0.116736,-0.023 -0.24165,0.029 -0.357143,0 -0.06456,-0.016 -0.115437,-0.068 -0.178571,-0.089 -0.02824,-0.01 -0.05952,0 -0.08929,0 -0.119047,0 -0.238095,0 -0.357143,0 -0.267857,0 -0.535714,0 -0.803571,0 -0.119048,0 -0.242676,0.033 -0.357143,0 -0.103179,-0.03 -0.166056,-0.1447 -0.267857,-0.1786 -0.0847,-0.028 -0.180305,0.017 -0.267857,0 -0.06526,-0.013 -0.113314,-0.076 -0.178572,-0.089 -0.204287,-0.041 -0.41876,0.03 -0.625,0 -0.09317,-0.013 -0.175569,-0.071 -0.267857,-0.089 -0.116736,-0.023 -0.239715,0.02 -0.357143,0 -0.121042,-0.02 -0.236814,-0.065 -0.357143,-0.089 -0.05837,-0.012 -0.119047,0 -0.178571,0 -0.14881,0 -0.297619,0 -0.446429,0 -0.05952,0 -0.125331,0.027 -0.178571,0 -0.07529,-0.038 -0.100413,-0.1473 -0.178571,-0.1785 -0.0829,-0.033 -0.178572,0 -0.267858,0 -0.02976,0 -0.06266,0.013 -0.08928,0 -0.03765,-0.019 -0.04845,-0.079 -0.08929,-0.089 -0.170388,-0.043 -0.363782,0.034 -0.535714,0 -0.09229,-0.018 -0.176552,-0.066 -0.267857,-0.089 -0.08662,-0.022 -0.180306,0.017 -0.267858,0 -0.374011,-0.075 -0.184531,-0.092 -0.535689,-0.2678 -0.02662,-0.013 -0.05952,0 -0.08929,0 -0.05952,0 -0.119857,0.01 -0.178571,0 -0.121042,-0.02 -0.235379,-0.074 -0.357143,-0.089 -0.118128,-0.015 -0.238095,0 -0.357143,0 -0.02976,0 -0.06041,0.01 -0.08928,0 -0.241675,0.1517 -0.230874,-0.1365 -0.357143,-0.1786 -0.05647,-0.019 -0.122103,0.019 -0.178572,0 -0.126269,-0.042 -0.243011,-0.1101 -0.357143,-0.1786 -0.03609,-0.022 -0.04845,-0.079 -0.08928,-0.089 -0.08662,-0.022 -0.180306,0.018 -0.267857,0 -0.0042,-8e-4 -0.344801,-0.1736 -0.357143,-0.1785 -0.08738,-0.035 -0.180474,-0.054 -0.267857,-0.089 -0.12358,-0.049 -0.233564,-0.1291 -0.357143,-0.1786 -0.08738,-0.035 -0.180474,-0.054 -0.267857,-0.089 -0.334098,-0.1336 -0.02718,-0.058 -0.446429,-0.2678 -0.02662,-0.013 -0.06105,0.01 -0.08929,0 -0.06313,-0.021 -0.116781,-0.065 -0.178571,-0.089 -0.12862,-0.052 -0.326777,-0.089 -0.446429,-0.1786 -0.06734,-0.051 -0.103279,-0.1409 -0.178571,-0.1785 -0.05324,-0.027 -0.120204,0.012 -0.178572,0 -0.09229,-0.018 -0.180473,-0.054 -0.267857,-0.089 -0.01234,-0 -0.352931,-0.1778 -0.357143,-0.1786 -0.08755,-0.018 -0.18579,0.035 -0.267857,0 -0.136777,-0.059 -0.233326,-0.1853 -0.357143,-0.2679 -0.05537,-0.037 -0.123198,-0.052 -0.178571,-0.089 -0.03502,-0.023 -0.05561,-0.064 -0.08929,-0.089 -0.08585,-0.064 -0.18201,-0.1142 -0.267857,-0.1786 -0.03367,-0.025 -0.05427,-0.066 -0.08929,-0.089 -0.05537,-0.037 -0.123198,-0.052 -0.178571,-0.089 -0.131382,-0.088 -0.225761,-0.2695 -0.357143,-0.3571 -0.130114,-0.087 -0.18597,-0.056 -0.267857,-0.1786 -0.03692,-0.055 -0.05237,-0.1232 -0.08929,-0.1786 -0.02335,-0.035 -0.05952,-0.06 -0.08928,-0.089 -0.05952,-0.06 -0.131878,-0.1086 -0.178572,-0.1786 -0.01651,-0.025 0.01331,-0.063 0,-0.089 -0.296123,-0.2961 0.04209,0.084 -0.08929,-0.1786 -0.01882,-0.038 -0.07597,-0.049 -0.08928,-0.089 -0.01882,-0.056 0.01882,-0.1221 0,-0.1785 -0.01331,-0.04 -0.07046,-0.052 -0.08929,-0.089 -0.01001,-0.02 0,-0.336 0,-0.3572"
       id="path4263"
       inkscape:connector-curvature="0" />
    <path
       style="fill:none;fill-rule:evenodd;stroke:#000000;stroke-width:1px;stroke-linecap:butt;stroke-linejoin:miter;stroke-opacity:1"
       d="m 16.964286,1037.1836 c 0.584038,1.7521 0.0563,-0.019 0.178571,0.7143 0.02017,0.121 0.07193,0.2356 0.08929,0.3571 0.02525,0.1768 -0.02215,0.3585 0,0.5357 0.01882,0.1506 0.06434,0.2968 0.08929,0.4465 0.0049,0.029 -0.0058,0.06 0,0.089 0.01907,0.095 0.121839,0.5115 0.178571,0.625 0.136141,0.2722 0.07078,-0.1633 0.178571,0.2678 0.02887,0.1155 -0.02335,0.2404 0,0.3572 0.01846,0.092 0.07083,0.1755 0.08929,0.2678 0.01167,0.058 0,0.1191 0,0.1786 0,0.2678 0,0.5357 0,0.8036 0,0.5059 0,1.0119 0,1.5178 0,0.1067 0.02102,0.5619 0,0.625 -0.03393,0.1018 -0.123362,0.1758 -0.178571,0.2679 -0.125635,0.2094 -0.07636,0.1909 -0.178572,0.4464 -0.02472,0.062 -0.07315,0.114 -0.08929,0.1786 -0.100329,0.4013 0.221269,-0.085 -0.08929,0.5357 -0.03765,0.075 -0.147308,0.1004 -0.178572,0.1786 -0.03316,0.083 0.01751,0.1803 0,0.2678 -0.0076,0.038 -0.23916,0.4927 -0.267857,0.5357 -0.02335,0.035 -0.06594,0.054 -0.08929,0.089 -0.03691,0.055 -0.05505,0.1215 -0.08929,0.1786 -0.110419,0.184 -0.228373,0.364 -0.357143,0.5357 -0.02525,0.034 -0.07046,0.052 -0.08929,0.089 -0.09003,0.18 -0.06155,0.2904 -0.178571,0.4464 -0.07576,0.101 -0.197816,0.1628 -0.267857,0.2679 -0.03691,0.055 -0.05237,0.1232 -0.08929,0.1785 -0.02335,0.035 -0.07598,0.049 -0.08929,0.089 -0.01882,0.056 0.01882,0.1221 0,0.1786 -0.01331,0.04 -0.05427,0.066 -0.08929,0.089 -0.05537,0.037 -0.123199,0.052 -0.178572,0.089 -0.03502,0.023 -0.05952,0.06 -0.08929,0.089 -0.02976,0.03 -0.06594,0.054 -0.08929,0.089 -0.03691,0.055 -0.05237,0.1232 -0.08929,0.1786 -0.02335,0.035 -0.07046,0.052 -0.08929,0.089 -0.03695,0.074 0.03121,0.1495 0.08929,0.1786 0.06111,0.031 0.400779,-0.031 0.446429,0 0.213463,0.1423 0.112897,0.2068 0.357142,0.2678 0.05775,0.014 0.120825,-0.014 0.178572,0 0.06456,0.016 0.115437,0.068 0.178571,0.089 0.05447,0.018 0.466756,0 0.535715,0 0.05952,0 0.119047,0 0.178571,0 0.05952,0 0.122102,0.019 0.178571,0 0.152421,-0.051 0.05952,-0.089 0.08929,-0.1786 0.02105,-0.063 0.07315,-0.114 0.08929,-0.1785 0.02165,-0.087 -0.02824,-0.1832 0,-0.2679 0.04209,-0.1263 0.14629,-0.228 0.178571,-0.3571 0.01444,-0.058 -0.02662,-0.1254 0,-0.1786 0.03765,-0.075 0.125985,-0.1128 0.178572,-0.1786 0.06703,-0.084 0.114186,-0.182 0.178571,-0.2678 0.02525,-0.034 0.07598,-0.049 0.08929,-0.089 0.01882,-0.056 -0.02662,-0.1253 0,-0.1786 0.03765,-0.075 0.125985,-0.1128 0.178571,-0.1786 0.06704,-0.084 0.130582,-0.1718 0.178572,-0.2678 0.01331,-0.027 -0.0094,-0.061 0,-0.089 0.02104,-0.063 0.06824,-0.1154 0.08929,-0.1786 0.169327,-0.5079 0.0066,-0.195 0.178572,-0.625 0.02472,-0.062 0.06824,-0.1154 0.08929,-0.1785 0.0094,-0.028 0,-0.06 0,-0.089 0.02976,-0.089 0.05433,-0.1805 0.08929,-0.2679 0.02472,-0.062 0.07624,-0.1133 0.08929,-0.1786 0.01751,-0.088 -0.03316,-0.1849 0,-0.2678 0.03126,-0.078 0.128064,-0.1112 0.178571,-0.1786 0.169146,0.01 0.05952,-0.2083 0.08929,-0.2678 0.01882,-0.038 0.07046,-0.052 0.08929,-0.089 0.01331,-0.027 -0.0072,-0.06 0,-0.089 0.02283,-0.091 0.07083,-0.1756 0.08929,-0.2679 0.02335,-0.1167 -0.04421,-0.2466 0,-0.3571 0.03985,-0.1 0.138718,-0.1682 0.178571,-0.2679 0.02211,-0.055 -0.01444,-0.1208 0,-0.1786 0.01614,-0.064 0.06824,-0.1154 0.08929,-0.1785 0.0094,-0.028 -0.0072,-0.06 0,-0.089 0.02283,-0.091 0.06646,-0.1766 0.08929,-0.2679 0.01444,-0.058 -0.02662,-0.1253 0,-0.1785 0.01882,-0.038 0.07598,-0.049 0.08929,-0.089 0.01361,-0.041 -0.01986,-0.3174 0,-0.3572 0.03765,-0.075 0.151952,-0.099 0.178572,-0.1785 0.01741,-0.052 0,-0.4591 0,-0.5358 0,-0.3571 0,-0.7142 0,-1.0714"
       id="path4265"
       inkscape:connector-curvature="0" />
    <path
       style="fill:none;fill-rule:evenodd;stroke:#000000;stroke-width:1px;stroke-linecap:butt;stroke-linejoin:miter;stroke-opacity:1"
       d="m 22.5,1033.7014 c 0.05952,0.1191 0.08446,0.2631 0.178571,0.3572 0.06655,0.066 0.183678,0.047 0.267858,0.089 0.09598,0.048 0.174687,0.1253 0.267857,0.1785 0.115562,0.066 0.243011,0.1101 0.357143,0.1786 0.03609,0.022 0.05952,0.059 0.08929,0.089 0.05952,0.06 0.119048,0.119 0.178572,0.1786 0.08929,0.089 0.192095,0.1668 0.267857,0.2678 0.03993,0.053 0.04771,0.1266 0.08929,0.1786 0.07888,0.099 0.211388,0.1549 0.267857,0.2679 0.03993,0.08 -0.02824,0.1831 0,0.2678 0.03393,0.1018 0.144637,0.1661 0.178571,0.2679 0.02824,0.085 -0.01107,0.1792 0,0.2678 0.01882,0.1506 0.0476,0.3005 0.08929,0.4465 0.01828,0.064 0.07623,0.1133 0.08929,0.1785 0.01751,0.088 -0.01263,0.1795 0,0.2679 0.01735,0.1215 0.07193,0.2357 0.08929,0.3571 0.01263,0.088 0,0.1786 0,0.2679 0,0.1488 0,0.2976 0,0.4464 0,0.3869 0,0.7738 0,1.1607 0,0.8631 0,1.7262 0,2.5893 0,0.2976 0,0.5953 0,0.8929 0,0.119 0.01477,0.239 0,0.3571 -0.01522,0.1218 -0.06267,0.2374 -0.08929,0.3572 -0.03292,0.1481 -0.0413,0.3024 -0.08929,0.4464 -0.04209,0.1263 -0.131837,0.2325 -0.178572,0.3571 -0.04309,0.1149 -0.04095,0.2444 -0.08929,0.3572 -0.04227,0.099 -0.136301,0.1692 -0.178572,0.2678 -0.171643,0.4005 -0.0048,0.2775 -0.178571,0.625 -0.04799,0.096 -0.119048,0.1786 -0.178572,0.2679 -0.02976,0.119 -0.04371,0.2432 -0.08929,0.3571 -0.01563,0.039 -0.06594,0.054 -0.08929,0.089 -0.03692,0.055 -0.05505,0.1215 -0.08929,0.1786 -0.05521,0.092 -0.1363,0.1692 -0.178571,0.2678 -0.04834,0.1128 -0.04371,0.2433 -0.08929,0.3572 -0.01563,0.039 -0.06594,0.054 -0.08929,0.089 -0.03692,0.055 -0.05952,0.119 -0.08929,0.1785 -0.05952,0.06 -0.131877,0.1086 -0.178572,0.1786 -0.03302,0.049 0.02662,0.1253 0,0.1786 -0.01882,0.038 -0.07597,0.049 -0.08929,0.089 0,0.4064 0.04209,0.01 -0.08929,0.2678 -0.02361,0.047 0.01087,0.3137 0,0.3572 -0.01614,0.064 -0.06824,0.1154 -0.08929,0.1785 -0.0094,0.028 0,0.06 0,0.089 0,0.06 0,0.1191 0,0.1786 0,0.1786 0,0.3571 0,0.5357 0,0.1191 0,0.2381 0,0.3571 0,0.06 0.01882,0.1222 0,0.1786 -0.215578,0.6468 0.02574,-0.1407 -0.178571,0.2679 -0.0119,0.024 0,0.4953 0,0.5357 0,0.03 0.01331,0.063 0,0.089 -0.05517,0.1103 -0.170383,0.089 0,0.089"
       id="path4267"
       inkscape:connector-curvature="0" />
    <path
       style="fill:none;fill-rule:evenodd;stroke:#000000;stroke-width:1px;stroke-linecap:butt;stroke-linejoin:miter;stroke-opacity:1"
       d="m 28.392857,1031.9157 c -0.122194,0.4646 0.507502,0.4206 0.625,0.7143 0.03316,0.083 -0.01468,0.1798 0,0.2679 0.01547,0.093 0.07381,0.175 0.08929,0.2678 0.01468,0.088 -0.03316,0.185 0,0.2679 0.03126,0.078 0.135261,0.1064 0.178571,0.1786 0.170203,0.2836 0.03455,0.2966 0.08929,0.625 0.01094,0.066 0.06824,0.1154 0.08929,0.1785 0.0388,0.1164 0.05402,0.2396 0.08929,0.3572 0.05409,0.1803 0.12686,0.3547 0.178571,0.5357 0.0082,0.029 0,0.059 0,0.089 0,0.119 -0.01477,0.239 0,0.3571 0.01522,0.1218 0.06911,0.2361 0.08929,0.3572 0.0098,0.059 0,0.119 0,0.1785 0,0.1191 0,0.2381 0,0.3572 0,0.089 -0.01468,0.1798 0,0.2678 0.01547,0.093 0.07381,0.175 0.08929,0.2679 0.01468,0.088 0,0.1786 0,0.2678 0,0.1191 0,0.2381 0,0.3572 0,0.4762 0,0.9524 0,1.4286 0,0.4166 0,0.8333 0,1.25 0,0.1785 0.01972,0.3582 0,0.5357 -0.07209,0.6488 -0.05939,0.2476 -0.267857,0.8035 -0.04309,0.1149 -0.07407,0.2354 -0.08929,0.3572 -0.05097,0.4077 0.08141,0.316 -0.08929,0.7143 -0.261871,0.611 -0.117367,-0.066 -0.267857,0.5357 -0.03681,0.1472 -0.05636,0.2983 -0.08929,0.4464 -0.02662,0.1198 -0.06522,0.2368 -0.08929,0.3572 -0.0058,0.029 0.01331,0.063 0,0.089 -0.04799,0.096 -0.140893,0.1674 -0.178571,0.2679 -0.05329,0.1421 -0.0476,0.3005 -0.08929,0.4464 -0.01828,0.064 -0.07623,0.1133 -0.08929,0.1786 -0.09601,0.4801 0.153612,0.058 -0.08929,0.625 -0.04227,0.099 -0.144638,0.1661 -0.178572,0.2679 -0.02823,0.085 0.01263,0.1794 0,0.2678 -0.09281,0.6497 -0.04125,0.1238 -0.178571,0.5357 -0.02919,0.088 -0.114082,0.5175 -0.178572,0.625 -0.04331,0.072 -0.131877,0.1086 -0.178571,0.1786 -0.01651,0.025 0.0072,0.06 0,0.089 -0.02283,0.091 -0.0472,0.1837 -0.08929,0.2678 -0.01882,0.038 -0.07046,0.052 -0.08929,0.089 -0.01331,0.027 0.01651,0.064 0,0.089 -0.04669,0.07 -0.119048,0.1191 -0.178572,0.1786 -0.02976,0.03 -0.07046,0.052 -0.08929,0.089 -0.04209,0.084 -0.05433,0.1804 -0.08929,0.2678 -0.02472,0.062 -0.05952,0.1191 -0.08929,0.1786 -0.02976,0.06 -0.05237,0.1232 -0.08929,0.1786 -0.04669,0.07 -0.119047,0.119 -0.178571,0.1785 -0.05952,0.06 -0.119048,0.1191 -0.178572,0.1786 -0.02976,0.03 -0.05426,0.066 -0.08929,0.089 -0.05537,0.037 -0.123199,0.052 -0.178572,0.089 -0.03502,0.023 -0.05319,0.068 -0.08929,0.089 -0.114131,0.069 -0.243011,0.1101 -0.357142,0.1785 -0.07218,0.043 -0.103279,0.141 -0.178572,0.1786 -0.02662,0.013 -0.06267,-0.013 -0.08929,0 -0.03694,0.018 -0.242627,0.23 -0.267857,0.2679 -0.03691,0.055 -0.04223,0.1315 -0.08929,0.1785 -0.02104,0.021 -0.06267,-0.013 -0.08929,0 -0.197416,0.099 -0.02771,0.056 -0.08929,0.1786 -0.01882,0.038 -0.08929,0.047 -0.08929,0.089 0,0.042 0.08929,0.047 0.08929,0.089 0,0.1355 -0.125211,0.072 -0.178571,0.089 -0.06314,0.021 -0.114009,0.073 -0.178572,0.089 -0.05775,0.014 -0.119047,0 -0.178571,0 -0.08929,0 -0.178572,0 -0.267857,0 -0.02976,0 -0.06105,-0.01 -0.08929,0 -0.126269,0.042 -0.228018,0.1463 -0.357143,0.1785 -0.05775,0.014 -0.119047,0 -0.178571,0 -0.08929,0 -0.178572,0 -0.267857,0 -0.05952,0 -0.122103,-0.019 -0.178572,0 -0.03993,0.013 -0.04936,0.076 -0.08929,0.089 -0.05647,0.019 -0.120824,-0.014 -0.178571,0 -0.06456,0.016 -0.113314,0.076 -0.178571,0.089 -0.08755,0.017 -0.178572,0 -0.267858,0 -0.178571,0 -0.357142,0 -0.535714,0 -0.02976,0 -0.06041,-0.01 -0.08929,0 -0.09131,0.023 -0.175569,0.071 -0.267857,0.089 -0.0886,0.018 -0.352621,0 -0.446428,0 -0.327381,0 -0.654762,0 -0.982143,0 -0.208333,0 -0.416667,0 -0.625,0 -0.151472,0 -0.323746,0.033 -0.446429,-0.089 -0.02104,-0.021 0.01331,-0.063 0,-0.089 -0.01882,-0.038 -0.07046,-0.052 -0.08929,-0.089 -0.01331,-0.027 0.01651,-0.064 0,-0.089 -0.04669,-0.07 -0.131877,-0.1086 -0.178572,-0.1786 -0.01651,-0.025 0,-0.059 0,-0.089 0,-0.03 0,-0.06 0,-0.089 0,-0.1488 0,-0.2976 0,-0.4464 0,-0.03 -0.0094,-0.061 0,-0.089 0.04209,-0.1263 0.119048,-0.2381 0.178572,-0.3571 0.145755,-0.2915 0.04223,-0.1315 0.357142,-0.4465 0.02976,-0.03 0.05952,-0.06 0.08929,-0.089 0.02976,-0.03 0.05164,-0.07 0.08929,-0.089 0.05324,-0.027 0.125332,0.027 0.178571,0 0.03765,-0.019 0.05164,-0.07 0.08929,-0.089 0.02662,-0.013 0.05952,0 0.08929,0 0.05952,0 0.119047,0 0.178571,0 0.238095,0 0.476191,0 0.714286,0 0.07299,0 0.579747,-0.015 0.625,0 0.03993,0.013 0.05164,0.07 0.08929,0.089 0.05324,0.027 0.125331,-0.027 0.178571,0 0.07529,0.038 0.103279,0.1409 0.178571,0.1785 0.02662,0.013 0.05952,0 0.08929,0 0.07559,0 0.309143,-0.016 0.357143,0 0.03993,0.013 0.05952,0.06 0.08929,0.089"
       id="path4269"
       inkscape:connector-curvature="0" />
    <path
       style="fill:none;fill-rule:evenodd;stroke:#000000;stroke-width:1px;stroke-linecap:butt;stroke-linejoin:miter;stroke-opacity:1"
       d="m 57.232143,1031.4693 c -0.02976,-0.119 -0.06522,-0.2368 -0.08929,-0.3571 -0.0058,-0.029 0.0072,-0.06 0,-0.089 -0.07301,-0.2921 -0.240269,-0.5309 -0.357143,-0.8036 -0.06313,-0.1473 -0.106891,-0.3031 -0.178567,-0.4464 -0.09598,-0.192 -0.272601,-0.3385 -0.357143,-0.5357 -0.04834,-0.1128 -0.0284,-0.2506 -0.08929,-0.3572 -0.06265,-0.1096 -0.200934,-0.1608 -0.267857,-0.2678 -0.08494,-0.136 -0.100736,-0.3064 -0.178571,-0.4465 -0.07227,-0.1301 -0.188988,-0.2309 -0.267857,-0.3571 -0.07054,-0.1129 -0.108029,-0.2443 -0.178572,-0.3572 -0.07887,-0.1261 -0.195589,-0.227 -0.267857,-0.3571 -0.07784,-0.1401 -0.113478,-0.3 -0.178571,-0.4464 -0.280698,-0.6316 -0.09247,-0.076 -0.357143,-0.8036 -0.06433,-0.1769 -0.111001,-0.36 -0.178572,-0.5357 -0.08137,-0.2116 -0.196181,-0.41 -0.267857,-0.625 -0.465221,-1.3957 -0.0015,-0.099 -0.178571,-1.25 -0.0329,-0.2138 -0.281532,-0.9339 -0.357143,-1.1607 -0.07561,-0.2269 -0.324245,-0.9469 -0.357143,-1.1607 -0.02715,-0.1765 0.01617,-0.3579 0,-0.5358 -0.01374,-0.1511 -0.07765,-0.2951 -0.08929,-0.4464 -0.01826,-0.2374 0,-0.4762 0,-0.7143 0,-0.1488 0.03916,-0.3028 0,-0.4464 -0.05253,-0.1926 -0.215326,-0.3431 -0.267857,-0.5357 -0.03915,-0.1436 0.01236,-0.2981 0,-0.4464 -0.01748,-0.2098 -0.07181,-0.4153 -0.08928,-0.625 -0.01236,-0.1483 0,-0.2977 0,-0.4465 0,-0.4706 0,-0.2437 0,-0.7143 0,-0.1488 -0.02918,-0.3005 0,-0.4464 0.04624,-0.2312 0.08136,-0.122 0.178571,-0.2678 0.07383,-0.1108 0.09871,-0.2507 0.178571,-0.3572 0.386187,-0.3862 0.01399,0.024 0.267858,-0.3571 0.08189,-0.1229 0.137742,-0.092 0.267857,-0.1786 0.03502,-0.023 0.05952,-0.059 0.08928,-0.089 0.08929,-0.059 0.175842,-0.1233 0.267858,-0.1786 0.04496,-0.1967 0.183677,-0.047 0.267857,-0.089 0.03765,-0.019 0.05164,-0.071 0.08928,-0.089 0.08418,-0.042 0.187154,-0.041 0.267858,-0.089 0.07218,-0.043 0.111227,-0.1281 0.178571,-0.1786 0.284444,-0.2133 0.0727,0.035 0.357143,-0.1786 0.134687,-0.101 0.225677,-0.2519 0.357143,-0.3571 0.08379,-0.067 0.191979,-0.1027 0.267857,-0.1786 0.07588,-0.076 0.111536,-0.184 0.178571,-0.2678 0.05259,-0.066 0.119048,-0.1191 0.178572,-0.1786 0.08928,-0.1191 0.181363,-0.2361 0.267857,-0.3572 0.426467,-0.597 -0.02699,0.054 0.267857,-0.5357 0.04799,-0.096 0.130582,-0.1718 0.178571,-0.2678 0.183529,-0.3671 0.02667,-0.16 0.08929,-0.5357 0.01547,-0.093 0.05952,-0.1786 0.08929,-0.2679 0,-0.119 -0.01684,-0.2393 0,-0.3571 0.01331,-0.093 0.07598,-0.1747 0.08929,-0.2679 0.01684,-0.1178 0,-0.2381 0,-0.3571 0,-0.1489 0,-0.2977 0,-0.4465 0,-0.5952 0,-1.1904 0,-1.7857 0,-0.2678 0,-0.5357 0,-0.8036 0,-0.119 0.01684,-0.2392 0,-0.3571 -0.03526,-0.2468 -0.18312,-0.392 -0.267858,-0.625 -0.07404,-0.2036 -0.142951,-0.4113 -0.178571,-0.625 -0.02446,-0.1468 0,-0.2976 0,-0.4464 0,-0.3869 0,-0.7738 0,-1.1607 0,-0.2381 0,-0.4762 0,-0.7143 0,-0.1949 -0.02602,-0.5227 0.178571,-0.625 0.0051,-0 0.416954,-0.015 0.446429,0 0.03765,0.019 0.05427,0.066 0.08929,0.089 0.01663,0.011 0.351421,0.1728 0.357143,0.1785 0.04706,0.047 0.05237,0.1232 0.08928,0.1786 0.108562,0.1628 0.337868,0.1943 0.446429,0.3571 0.07383,0.1108 0.119047,0.2381 0.178571,0.3572 0.05952,0.119 0.136482,0.2309 0.178572,0.3571 0.01928,0.058 0,0.3734 0,0.4465 0,0.2381 0,0.4762 0,0.7142 0,0.3572 0,0.7143 0,1.0715 0,0.089 0,0.1785 0,0.2678 0,0.06 0.0084,0.1197 0,0.1786 -0.22135,1.5495 0.02916,-0.3244 -0.178572,0.7143 -0.01167,0.058 0.0098,0.1198 0,0.1786 -0.02017,0.121 -0.06522,0.2368 -0.08928,0.3571 -0.0058,0.029 0.0094,0.061 0,0.089 -0.02105,0.063 -0.07624,0.1133 -0.08929,0.1786 -0.01751,0.087 0.02823,0.1831 0,0.2678 -0.03393,0.1018 -0.114187,0.182 -0.178572,0.2679 -0.02525,0.034 -0.07597,0.049 -0.08928,0.089 -0.0338,0.1014 0.03056,0.4134 0,0.5357 -0.02283,0.091 -0.05433,0.1805 -0.08929,0.2678 -0.09852,0.2463 -0.258621,0.468 -0.357143,0.7143 -0.03495,0.087 -0.04259,0.1862 -0.08929,0.2679 -0.647693,0.8636 -0.01628,-0.057 -0.357142,0.625 -0.01882,0.038 -0.05952,0.06 -0.08929,0.089 -0.02976,0.059 -0.06457,0.1168 -0.08929,0.1785 -0.03495,0.087 -0.05433,0.1805 -0.08929,0.2679 -0.192302,0.4808 0.01373,-0.1236 -0.178571,0.3571 -0.03495,0.087 -0.05433,0.1805 -0.08929,0.2679 -0.02472,0.062 -0.07623,0.1133 -0.08928,0.1786 -0.01751,0.087 0.02823,0.1831 0,0.2678 -0.03393,0.1018 -0.138719,0.1683 -0.178572,0.2679 -0.02211,0.055 0.01444,0.1208 0,0.1786 -0.01614,0.064 -0.07623,0.1133 -0.08929,0.1785 -0.01751,0.088 0,0.1786 0,0.2679 0,0.089 0,0.1786 0,0.2678 0,0.089 0.01468,0.1798 0,0.2679 -0.01547,0.093 -0.07381,0.175 -0.08928,0.2679 -0.01468,0.088 0,0.1785 0,0.2678 0,0.1191 0,0.2381 0,0.3572 0,0.5357 0,1.0714 0,1.6071 0,0.2976 0,0.5952 0,0.8929 0,0.059 0,0.119 0,0.1785 0,0.089 -0.03316,0.185 0,0.2679 0.03126,0.078 0.140925,0.1033 0.178571,0.1786 0.189667,0.3793 0.032,0.2813 0.08929,0.625 0.01547,0.093 0.07083,0.1755 0.08929,0.2678 0.01167,0.058 -0.01167,0.1202 0,0.1786 0.105605,0.528 0.05716,0.01 0.267857,0.5357 0.02211,0.055 -0.01167,0.1202 0,0.1786 0.01846,0.092 0.07083,0.1755 0.08928,0.2678 0.01167,0.058 -0.01444,0.1209 0,0.1786 0.01614,0.065 0.07834,0.1129 0.08929,0.1786 0.01957,0.1174 -0.01684,0.2393 0,0.3571 0.01331,0.093 0.06646,0.1766 0.08929,0.2679 0.0072,0.029 0,0.059 0,0.089 0,0.2083 0,0.4166 0,0.625 0,0.089 0,0.1785 0,0.2678 0,0.1191 -0.0327,0.2427 0,0.3572 0.02948,0.1031 0.138718,0.1682 0.178571,0.2678 0.02211,0.055 0,0.1191 0,0.1786 0,0.06 0,0.119 0,0.1786 0,0.2976 0,0.5952 0,0.8928 0,0.4762 0,0.9524 0,1.4286 0,0.2083 0,0.4167 0,0.625 0,0.059 -0.0098,0.1199 0,0.1786 0.02017,0.121 0.06522,0.2368 0.08929,0.3571 0.0058,0.029 0,0.06 0,0.089 0,0.065 -0.01774,0.447 0,0.5357 0.01846,0.092 0.07083,0.1756 0.08929,0.2679 0.02335,0.1167 -0.02335,0.2404 0,0.3571 0.01846,0.092 0.07083,0.1756 0.08928,0.2679 0.01167,0.058 -0.02211,0.1233 0,0.1785 0.120413,0.3011 0.267858,0.2394 0.267858,0.625 0,0.2147 -0.0094,-0.038 0.08928,0.3572 0.02433,0.097 -0.02821,0.4793 0,0.5357 0.01882,0.038 0.07908,0.048 0.08929,0.089 0.02652,0.1061 0,0.3182 0,0.4464 0,0.2083 0,0.4167 0,0.625 0,0.06 0.01882,0.1221 0,0.1786 -0.02105,0.063 -0.06824,0.1154 -0.08929,0.1785 -0.0094,0.028 0.01331,0.063 0,0.089 -0.01882,0.038 -0.05952,0.06 -0.08928,0.089 -0.02976,0.03 -0.04801,0.081 -0.08929,0.089 -0.116736,0.023 -0.238095,0 -0.357143,0 z"
       id="path4271"
       inkscape:connector-curvature="0" />
    <path
       style="fill:none;fill-rule:evenodd;stroke:#000000;stroke-width:1px;stroke-linecap:butt;stroke-linejoin:miter;stroke-opacity:1"
       d="m 49.732143,1041.38 c -0.216218,-0.4324 -0.08446,-0.263 -0.357143,-0.5357 -0.02976,-0.03 -0.06763,-0.053 -0.08929,-0.089 -0.06848,-0.1141 -0.110092,-0.243 -0.178571,-0.3571 -0.02166,-0.036 -0.05952,-0.059 -0.08929,-0.089 -0.208333,-0.2083 -0.416666,-0.4167 -0.625,-0.625 -0.119047,-0.1191 -0.238095,-0.2381 -0.357143,-0.3572 -0.08928,-0.089 -0.169257,-0.1889 -0.267857,-0.2678 -0.05197,-0.042 -0.123199,-0.052 -0.178571,-0.089 -0.03502,-0.023 -0.05642,-0.063 -0.08929,-0.089 -0.116201,-0.093 -0.240942,-0.1749 -0.357143,-0.2678 -0.03287,-0.026 -0.05164,-0.071 -0.08928,-0.089 -0.08418,-0.042 -0.187154,-0.041 -0.267858,-0.089 -0.07218,-0.043 -0.119047,-0.1191 -0.178571,-0.1786 -0.02976,-0.03 -0.05164,-0.07 -0.08929,-0.089 -0.184466,-0.092 -0.270525,-0.089 -0.446428,-0.089 -0.08929,0 -0.180306,0.018 -0.267857,0 -0.06526,-0.013 -0.114009,-0.073 -0.178572,-0.089 -0.05775,-0.014 -0.123305,0.022 -0.178571,0 -0.09963,-0.04 -0.168224,-0.1388 -0.267857,-0.1786 -0.05527,-0.022 -0.119048,0 -0.178572,0 -0.178571,0 -0.357143,0 -0.535714,0 -0.05952,0 -0.120204,0.012 -0.178572,0 -0.09229,-0.019 -0.175569,-0.071 -0.267857,-0.089 -0.05837,-0.012 -0.119047,0 -0.178571,0 -0.08929,0 -0.178572,0 -0.267857,0 -0.267857,0 -0.535715,0 -0.803572,0 -0.178571,0 -0.357143,0 -0.535714,0 -0.05952,0 -0.120825,-0.014 -0.178571,0 -0.06456,0.016 -0.115437,0.068 -0.178572,0.089 -0.02824,0.01 -0.06105,-0.01 -0.08929,0 -0.126269,0.042 -0.228017,0.1463 -0.357142,0.1786 -0.05775,0.014 -0.120204,-0.012 -0.178572,0 -0.103713,0.021 -0.344388,0.1105 -0.446428,0.1785 -0.03502,0.023 -0.05164,0.071 -0.08929,0.089 -0.08418,0.042 -0.183678,0.047 -0.267857,0.089 -0.07529,0.038 -0.111228,0.1281 -0.178572,0.1786 -0.153118,0.1148 -0.328597,0.2 -0.446428,0.3571 -0.06439,0.086 -0.111537,0.1841 -0.178572,0.2679 -0.05259,0.066 -0.119047,0.119 -0.178571,0.1785 -0.02976,0.03 -0.07046,0.052 -0.08929,0.089 -0.01331,0.027 0.01331,0.063 0,0.089 -0.01882,0.038 -0.07046,0.052 -0.08929,0.089 -0.02361,0.047 0.01087,0.3136 0,0.3571 0.05382,0.1617 -0.144637,0.1661 -0.178571,0.2679 -0.01446,0.043 0,0.5338 0,0.625 0,0.1488 0,0.2976 0,0.4464 0,0.059 -0.01679,0.2175 0,0.2679 0.02105,0.063 0.06824,0.1154 0.08929,0.1786 0.0094,0.028 -0.01331,0.063 0,0.089 0.01882,0.038 0.07046,0.052 0.08928,0.089 0.01331,0.027 0,0.06 0,0.089 0,0.059 -0.01882,0.1221 0,0.1786 0.01331,0.04 0.06594,0.054 0.08929,0.089 0.03692,0.055 0.05237,0.1232 0.08929,0.1785 0.02335,0.035 0.06594,0.054 0.08929,0.089 0.03692,0.055 0.05237,0.1232 0.08928,0.1786 0.02335,0.035 0.06594,0.054 0.08929,0.089 0.136863,0.2053 0.04171,0.2411 0.178571,0.4464 0.05136,0.077 0.198118,0.1981 0.267858,0.2679 0.047,0.047 0.220171,0.244 0.267857,0.2678 0.02662,0.013 0.05952,0 0.08928,0 0.05952,0.03 0.125332,0.049 0.178572,0.089 0.101015,0.076 0.162795,0.1978 0.267857,0.2679 0.05952,0.03 0.119048,0.06 0.178571,0.089 0.02976,0 0.06267,-0.013 0.08929,0 0.08786,0.044 0.269283,0.3132 0.357143,0.3571 0.02662,0.013 0.06267,-0.013 0.08929,0 0.03765,0.019 0.05427,0.066 0.08928,0.089 0.05537,0.037 0.123199,0.052 0.178572,0.089 0.08128,0.054 0.18872,0.2283 0.267857,0.2678 0.02662,0.013 0.06267,-0.013 0.08929,0 0.07529,0.038 0.103279,0.141 0.178571,0.1786 0.02662,0.013 0.06452,-0.016 0.08929,0 0.105062,0.07 0.162795,0.1978 0.267857,0.2679 0.130114,0.087 0.18597,0.056 0.267857,0.1785 0.03692,0.055 0.05237,0.1232 0.08929,0.1786 0.02335,0.035 0.05952,0.06 0.08929,0.089 0.02976,0.03 0.05164,0.071 0.08928,0.089 0.02662,0.013 0.05952,0 0.08929,0 0.02976,0.03 0.05164,0.07 0.08929,0.089 0.02662,0.013 0.06267,-0.013 0.08928,0 0.07529,0.038 0.10853,0.1318 0.178572,0.1785 0.05537,0.037 0.123199,0.052 0.178571,0.089 0.08356,0.056 0.299961,0.3 0.357143,0.3572 0.02976,0.03 0.05164,0.07 0.08929,0.089 0.02662,0.013 0.05952,0 0.08929,0 0.05952,0.03 0.123198,0.052 0.178571,0.089 0.03502,0.023 0.05164,0.071 0.08929,0.089 0.02662,0.013 0.05952,0 0.08928,0 0.05952,0.03 0.123199,0.052 0.178572,0.089 0.07004,0.047 0.103279,0.1409 0.178571,0.1786 0.02662,0.013 0.08929,-0.03 0.08929,0 0,0.03 -0.05952,0 -0.08929,0 -0.02976,0 -0.05952,0 -0.08928,0 -0.04989,0 -0.393739,0.018 -0.446429,0 -0.06314,-0.021 -0.115437,-0.068 -0.178571,-0.089 -0.02824,-0.01 -0.05952,0 -0.08929,0 -0.08929,0 -0.178572,0 -0.267857,0 -0.327381,0 -0.654762,0 -0.982143,0 -0.833334,0 -1.666667,0 -2.5,0 -0.267857,0 -0.535714,0 -0.803572,0 -0.08928,0 -0.178571,0 -0.267857,0 -0.05952,0 -0.120203,-0.012 -0.178571,0 -0.274725,0.055 -0.528846,0.2129 -0.803572,0.2679 -0.05837,0.012 -0.123305,-0.022 -0.178571,0 -0.09963,0.04 -0.168224,0.1387 -0.267857,0.1785 -0.05527,0.022 -0.120204,-0.012 -0.178572,0 -0.09229,0.018 -0.176551,0.066 -0.267857,0.089 -0.02887,0.01 -0.06105,-0.01 -0.08928,0 -0.06314,0.021 -0.114009,0.073 -0.178572,0.089 -0.05775,0.014 -0.122102,-0.019 -0.178571,0 -0.03993,0.013 -0.05319,0.068 -0.08929,0.089 -0.119048,0.06 -0.238095,0.1191 -0.357143,0.1786 -0.02976,0.03 -0.05427,0.066 -0.08929,0.089 -0.542059,0.3613 0.279566,-0.2571 -0.446428,0.1785 -0.07218,0.043 -0.112839,0.126 -0.178572,0.1786 -0.08379,0.067 -0.18201,0.1142 -0.267857,0.1786 -0.03367,0.025 -0.05561,0.064 -0.08928,0.089 -0.08585,0.064 -0.182011,0.1142 -0.267858,0.1786 -0.177088,0.1328 -0.321722,0.3799 -0.446428,0.5357 -0.05259,0.066 -0.131877,0.1086 -0.178572,0.1786 -0.03692,0.055 -0.05237,0.1232 -0.08928,0.1786 -0.05419,0.081 -0.228289,0.1887 -0.267857,0.2678 -0.02853,0.057 0.02396,0.2853 0,0.3572 -0.02105,0.063 -0.06824,0.1154 -0.08929,0.1785 -0.01756,0.053 0,0.3966 0,0.4465 0,0.03 -0.01651,0.064 0,0.089 0.254247,0.3813 0.07508,0.1143 0.267857,0.1785 0.06313,0.021 0.115437,0.068 0.178571,0.089 0.05647,0.019 0.119048,0 0.178572,0 0.119047,0 0.238095,0 0.357143,0 0.297619,0 0.595238,0 0.892857,0 0.10372,0 0.365487,0.02 0.446428,0 0.06456,-0.016 0.113315,-0.076 0.178572,-0.089 0.08755,-0.018 0.178571,0 0.267857,0 0.02976,0 0.06452,0.016 0.08929,0 0.07004,-0.047 0.100413,-0.1473 0.178571,-0.1785 0.0829,-0.033 0.180305,0.018 0.267857,0 0.06526,-0.013 0.116782,-0.065 0.178572,-0.089 0.08738,-0.035 0.175569,-0.071 0.267857,-0.089 0.05837,-0.012 0.119857,0.01 0.178571,0 0.121042,-0.02 0.235665,-0.072 0.357143,-0.089 0.08839,-0.013 0.183153,0.028 0.267857,0 0.101802,-0.034 0.164678,-0.1491 0.267857,-0.1786 0.131038,-0.1443 0.302063,0.036 0.446429,0 0.394831,-0.099 0.138536,-0.055 0.446429,-0.1785 0.08738,-0.035 0.180473,-0.054 0.267857,-0.089 0.123579,-0.05 0.233563,-0.1292 0.357143,-0.1786 0.08738,-0.035 0.180473,-0.054 0.267857,-0.089 0.06179,-0.025 0.114008,-0.073 0.178571,-0.089 0.31118,-0.078 0.06124,0.1419 0.446429,-0.089 0.07218,-0.043 0.119047,-0.119 0.178571,-0.1785 0.02976,-0.03 0.05164,-0.071 0.08929,-0.089 0.08418,-0.042 0.183678,-0.047 0.267857,-0.089 0.107143,-0.054 0.160714,-0.2143 0.267857,-0.2679 0.05324,-0.027 0.122102,0.019 0.178572,0 0.07986,-0.027 0.103279,-0.1409 0.178571,-0.1785 0.08418,-0.042 0.176552,-0.067 0.267857,-0.089 0.02887,-0.01 0.06267,0.013 0.08929,0 0.09598,-0.048 0.175841,-0.1234 0.267857,-0.1786 0.114132,-0.069 0.238095,-0.119 0.357143,-0.1786 0.119047,-0.06 0.246397,-0.1047 0.357143,-0.1785 0.204313,-0.1362 -0.05583,-0.071 0.267857,-0.1786 0.07517,-0.025 0.393271,0.027 0.446428,0 0.03765,-0.019 0.05164,-0.071 0.08929,-0.089 0.02505,-0.013 0.332089,-0.013 0.357143,0 0.107143,0.054 0.160714,0.2143 0.267857,0.2679 0.02662,0.013 0.06267,-0.013 0.08929,0 0.07345,0.037 0.291108,0.3131 0.357143,0.3571 0.02476,0.016 0.06267,-0.013 0.08928,0 0.07529,0.038 0.10328,0.1409 0.178572,0.1786 0.02662,0.013 0.06267,-0.013 0.08929,0 0.03765,0.019 0.05164,0.07 0.08928,0.089 0.02662,0.013 0.05952,0 0.08929,0 0.02976,0 0.05952,0 0.08929,0"
       id="path4273"
       inkscape:connector-curvature="0" />
    <path
       style="fill:none;fill-rule:evenodd;stroke:#000000;stroke-width:1px;stroke-linecap:butt;stroke-linejoin:miter;stroke-opacity:1"
       d="m 32.589286,1015.2193 c 0.08929,0.1786 0.148068,0.376 0.267857,0.5357 0.06439,0.086 0.179947,0.1171 0.267857,0.1786 0.209741,0.1468 0.401858,0.3209 0.625,0.4464 0.255477,0.1437 0.551216,0.208 0.803572,0.3572 0.405132,0.2394 0.764875,0.5491 1.160714,0.8035 0.437935,0.2816 0.901351,0.5221 1.339286,0.8036 0.395839,0.2545 0.775873,0.5328 1.160714,0.8036 0.418752,0.2947 0.81928,0.6159 1.25,0.8928 0.403678,0.2595 0.826981,0.4877 1.25,0.7143 2.630026,1.409 -0.226015,-0.1566 2.767857,1.1607 0.256996,0.1131 0.480668,0.2907 0.714286,0.4465 0.0055,0 1.248007,0.8917 1.25,0.8928 0.13844,0.081 0.299969,0.1135 0.446428,0.1786 0.409973,0.1822 0.258226,0.2775 0.446429,0.089"
       id="path4275"
       inkscape:connector-curvature="0" />
    <path
       style="fill:none;fill-rule:evenodd;stroke:#000000;stroke-width:1px;stroke-linecap:butt;stroke-linejoin:miter;stroke-opacity:1"
       d="m 33.392857,1013.7014 c 0.241915,0.1755 0.544936,0.2192 0.803572,0.3572 0.326243,0.174 1.605555,0.977 1.875,1.1607 0.334461,0.228 0.635025,0.506 0.982143,0.7143 0.39946,0.2397 0.839364,0.405 1.25,0.625 0.423019,0.2266 0.820767,0.4997 1.25,0.7143 0.346058,0.173 0.714285,0.2976 1.071428,0.4464 0.357143,0.1488 0.704379,0.3241 1.071429,0.4464 0.002,7e-4 1.599207,0.3552 1.607143,0.3572 0.2102,0.052 0.416666,0.119 0.625,0.1785 0.208333,0.06 0.422125,0.1025 0.625,0.1786 0.03941,0.015 0.05164,0.071 0.08928,0.089 0.08758,0.044 0.130172,-0.041 0.178572,-0.089"
       id="path4277"
       inkscape:connector-curvature="0" />
    <path
       style="fill:none;fill-rule:evenodd;stroke:#000000;stroke-width:1px;stroke-linecap:butt;stroke-linejoin:miter;stroke-opacity:1"
       d="m 12.142857,1013.0764 c -0.208333,0.1191 -0.410384,0.2499 -0.625,0.3572 -0.143352,0.072 -0.300907,0.1114 -0.446428,0.1786 -0.313761,0.1448 -1.037642,0.5131 -1.3392861,0.7142 -0.247634,0.1651 -0.4761905,0.3572 -0.7142857,0.5358 -0.2380953,0.1785 -0.4778697,0.3549 -0.7142857,0.5357 -0.2695558,0.2061 -0.5340157,0.4188 -0.8035715,0.625 -0.236416,0.1808 -0.4832994,0.348 -0.7142857,0.5357 -0.2455418,0.1995 -0.462972,0.4328 -0.7142857,0.625 -2.0811345,1.5914 0.3002643,-0.4788 -1.3392857,1.1607 -0.1940239,0.194 -0.4477592,0.3263 -0.625,0.5357 -0.1549927,0.1832 -0.220562,0.4277 -0.3571429,0.625 -0.2130182,0.3077 -0.329206,0.4185 -0.5357143,0.625 -0.059524,0.059 -0.1280638,0.1112 -0.1785714,0.1786 -0.03993,0.053 -0.052371,0.1232 -0.089286,0.1786 -0.024454,0.037 -0.2311761,0.2434 -0.2678572,0.2678 -0.055373,0.037 -0.1190476,0.059 -0.1785714,0.089"
       id="path4279"
       inkscape:connector-curvature="0" />
    <path
       style="fill:none;fill-rule:evenodd;stroke:#000000;stroke-width:1px;stroke-linecap:butt;stroke-linejoin:miter;stroke-opacity:1"
       d="m 11.517857,1017.005 c -0.178571,0 -0.361395,-0.039 -0.535714,0 -0.104753,0.023 -0.171878,0.1306 -0.267857,0.1786 -0.08418,0.042 -0.178572,0.06 -0.267857,0.089 -0.14881,0.119 -0.287866,0.2514 -0.446429,0.3571 -0.2887884,0.1925 -0.5952381,0.3572 -0.8928571,0.5357 -1.1689049,0.7014 -0.6040688,0.3432 -1.6964286,1.0715 -0.2678571,0.1785 -0.5405697,0.35 -0.8035714,0.5357 -0.2431452,0.1716 -0.4761905,0.3571 -0.7142857,0.5357 -0.2380953,0.1786 -0.4832994,0.348 -0.7142858,0.5357 -0.2455418,0.1995 -0.4591606,0.4379 -0.7142857,0.625 -0.3157006,0.2315 -0.9969441,0.4873 -1.25,0.8036 -0.094801,0.1185 -0.021418,0.3107 -0.089286,0.4464 -0.029762,0.06 -0.1386416,0.036 -0.1785714,0.089 -0.056469,0.075 -0.047196,0.1837 -0.089286,0.2678 -0.04799,0.096 -0.1141866,0.1821 -0.1785715,0.2679 -0.025254,0.034 -0.075976,0.049 -0.089286,0.089 -0.018823,0.056 0.018823,0.1221 0,0.1786 C 2.4789552,1023.9432 2.5,1023.5033 2.5,1023.7907"
       id="path4281"
       inkscape:connector-curvature="0" />
    <path
       style="fill:none;fill-rule:evenodd;stroke:#000000;stroke-width:1px;stroke-linecap:butt;stroke-linejoin:miter;stroke-opacity:1"
       d="m 10.803571,1012.005 c -0.119047,-0.059 -0.233563,-0.1291 -0.357142,-0.1786 -0.05527,-0.022 -0.119048,0 -0.178572,0 -0.148809,0 -0.2976189,0 -0.4464284,0 -0.1190476,0 -0.2380952,0 -0.3571429,0 -0.1190476,0 -0.2416497,-0.029 -0.3571428,0 -0.5944611,0.1487 -0.1450305,0.1665 -0.625,0.4465 -0.2531916,0.1477 -0.5445149,0.22 -0.8035715,0.3571 -0.248144,0.1314 -0.4695706,0.3088 -0.7142857,0.4464 -0.2320121,0.1306 -0.4903652,0.2132 -0.7142857,0.3572 -0.1955302,0.1257 -0.3445974,0.3141 -0.5357143,0.4464 -0.2750661,0.1904 -0.6685948,0.379 -0.9821428,0.5357 -0.1190476,0.06 -0.2430112,0.1101 -0.3571429,0.1786 -0.036092,0.022 -0.054265,0.066 -0.089286,0.089 -0.055373,0.037 -0.1253317,0.049 -0.1785714,0.089 -0.067344,0.05 -0.1190477,0.119 -0.1785715,0.1786 -0.029762,0.03 -0.051639,0.07 -0.089286,0.089 -0.2627508,0.1314 0.117552,-0.2068 -0.1785714,0.089"
       id="path4283"
       inkscape:connector-curvature="0" />
  </g>
</svg>
